<?xml version="1.0" standalone="no"?><!DOCTYPE svg PUBLIC "-//W3C//DTD SVG 1.1//EN" "http://www.w3.org/Graphics/SVG/1.1/DTD/svg11.dtd"><svg t="1550212805013" class="icon" style="" viewBox="0 0 1025 1024" version="1.1" xmlns="http://www.w3.org/2000/svg" p-id="3196" xmlns:xlink="http://www.w3.org/1999/xlink" width="200.1953125" height="200"><defs><style type="text/css">@font-face { font-family: "Roboto Condensed"; src: url("chrome-extension://lienonopcegannlgdkgonpofbhgmclcc/RobotoCondensed-Regular.ttf"); }
</style></defs><path d="M512.312704 1023.895765H5.003257c-3.752443 0-4.586319-0.833876-4.586319-4.586319V4.899023C0 1.250814 0.833876 0 5.003257 0h1015.035831c3.752443 0 4.586319 0.833876 4.586319 4.586319v1014.410424c0 3.752443-0.833876 4.586319-4.586319 4.586319z" fill="#FEFEFE" p-id="3197"></path><path d="M341.159609 925.081433a297.068404 297.068404 0 0 1-43.361563-20.846905 445.602606 445.602606 0 0 1-158.853421-145.928339 448.208469 448.208469 0 0 1-73.798045-262.67101 444.977199 444.977199 0 0 1 67.856677-221.185668 15.114007 15.114007 0 0 1 1.563518-1.876221 46.697068 46.697068 0 0 1 22.931596-0.521173 2.29316 2.29316 0 0 1 0 1.250815c-3.335505 9.068404-7.81759 17.511401-11.778501 26.267101-0.729642 1.667752-1.355049 3.335505-1.876222 4.482084 4.794788-10.423453 9.589577-20.846906 15.114007-31.895765l1.355049-0.833876a162.397394 162.397394 0 0 1 30.228013 1.042345 296.026059 296.026059 0 0 1 41.693811 7.400651 12.716612 12.716612 0 0 1 5.003257 1.980456 6.879479 6.879479 0 0 1 1.667752 4.377851c0 1.563518-0.938111 2.814332-1.459283 4.169381-1.980456 3.856678-2.501629 8.338762-5.837133 11.570032a17.407166 17.407166 0 0 1-2.710098 1.250815c-5.420195 2.501629-6.566775 5.107492-4.899023 10.423452a10.423453 10.423453 0 0 1 0.938111 3.856678c-1.667752 5.003257-4.586319 9.485342-6.358306 14.488599-1.250814 2.710098-2.501629 5.420195-3.856678 8.026059 0.729642 0 0 0 0 0 0.833876-2.605863 2.397394-4.899023 3.23127-7.504886q3.23127-7.192182 6.775245-14.175896c1.250814-0.938111 2.501629 0 3.856677 0a7.609121 7.609121 0 0 0 8.96417-4.482085 7.81759 7.81759 0 0 0-2.397395-9.381107 8.859935 8.859935 0 0 1-1.667752-1.876222 27.309446 27.309446 0 0 1 4.690554-13.237785 4.586319 4.586319 0 0 1 1.876221-1.250814c2.188925-0.729642 1.563518-2.605863 1.563518-4.169381v-10.423453c0-3.543974 0-4.065147 1.980456-5.003257 2.814332 2.710098 1.667752 6.254072 1.563518 9.381107a6.462541 6.462541 0 0 0 5.628665 7.400652 296.338762 296.338762 0 0 1 37.732899 14.175896 24.18241 24.18241 0 0 1 4.482084 2.814332 1.980456 1.980456 0 0 1 0 1.355049 85.055375 85.055375 0 0 0-5.107492 12.612377c0 0.625407 1.042345 0 0 0a66.188925 66.188925 0 0 1 5.420196-12.508143 2.188925 2.188925 0 0 1 1.355049 0 166.149837 166.149837 0 0 1 19.387622 9.381108c2.501629 2.29316 6.462541 2.397394 7.921824 6.045602 0 2.29316-2.397394 3.127036-4.065147 4.169381a347.517915 347.517915 0 0 0-111.947882 120.078176 286.540717 286.540717 0 0 0-28.143323 72.130293 243.283388 243.283388 0 0 0-6.045602 71.713355 199.192182 199.192182 0 0 0 24.495114 82.449512 207.635179 207.635179 0 0 0 14.697068 23.765472 253.289902 253.289902 0 0 0 64.521173 62.540717 375.2443 375.2443 0 0 0 129.563518 54.514658 13.550489 13.550489 0 0 1 3.335504 0.938111c3.23127 3.23127 0 5.211726-1.667752 7.087947-6.254072 7.504886-12.19544 15.322476-17.928339 23.2443a393.90228 393.90228 0 0 0-44.403909 79.322476 8.442997 8.442997 0 0 1-3.23127 4.065146z" fill="#178785" p-id="3198"></path><path d="M922.788274 335.739414a170.423453 170.423453 0 0 1 10.423452 24.912052 100.37785 100.37785 0 0 1-7.504886 17.928339c-1.250814 3.335505-3.335505 6.254072-4.273615 9.693811s-1.771987 4.169381-2.710098 6.149837v-0.729642a33.563518 33.563518 0 0 0 2.188925-4.899023c1.355049-3.23127 3.127036-6.358306 4.482085-9.589576s3.543974-7.400651 5.107492-11.153095c0.625407-1.563518 0.833876-3.960912 3.335505-4.169381a359.609121 359.609121 0 0 1 18.762215 69.628665 418.501629 418.501629 0 0 1 6.983713 81.615635 448.208469 448.208469 0 0 1-200.7557 370.032573 427.361564 427.361564 0 0 1-67.127036 36.586319 28.872964 28.872964 0 0 1-5.628665-10.423452c-5.732899-12.403909-11.778502-24.703583-18.762215-36.58632a10.423453 10.423453 0 0 1-2.293159-7.400651v-64.833876c0-3.23127 2.29316-3.543974 4.482084-4.37785a368.052117 368.052117 0 0 0 69.941368-32.521173 284.143322 284.143322 0 0 0 52.117264-39.81759 237.758958 237.758958 0 0 0 43.153095-55.661237 194.29316 194.29316 0 0 0 26.579804-83.387623 238.28013 238.28013 0 0 0-5.420195-70.775244 298.631922 298.631922 0 0 0-70.149837-132.482085 374.514658 374.514658 0 0 0-51.596091-47.114006c-1.355049-1.042345-3.960912-1.667752-2.397395-4.482085a119.348534 119.348534 0 0 1 27.205212-9.381107 255.895765 255.895765 0 0 1 61.081433-7.713355 25.120521 25.120521 0 0 1 9.381108 1.250814c1.355049 0.521173 1.563518 2.084691 2.397394 3.022801s1.459283-2.710098 3.127036-3.022801a40.442997 40.442997 0 0 1 19.491856 2.084691c1.876221 2.188925 0 4.065147-0.521172 5.941368-5.52443 12.820847-11.778502 25.32899-17.302932 38.254071a41.693811 41.693811 0 0 0-2.814332 6.149837c0 0.625407 1.042345 0 0 0a51.074919 51.074919 0 0 1 2.814332-6.254071c5.732899-13.13355 11.986971-26.058632 17.928339-39.087948a8.026059 8.026059 0 0 1 3.960912-4.794788 47.739414 47.739414 0 0 1 22.09772 4.794788 5.211726 5.211726 0 0 1 0 2.918567c0 5.628664 0.938111 8.234528 4.482085 9.276873s6.045603 0 9.068404-4.899023c0.833876-1.980456 1.459283-4.482085 4.37785-3.648209a77.758958 77.758958 0 0 1 24.286645 8.96417z" fill="#3D8D87" p-id="3199"></path><path d="M446.644951 954.162866h-1.771987c-1.563518-0.938111-3.439739 0-4.899023-0.833876a265.485342 265.485342 0 0 1-41.693811-8.442997 104.234528 104.234528 0 0 1-18.032573-5.628664c-1.667752-1.980456-0.833876-4.169381 0-6.149837a372.846906 372.846906 0 0 1 33.459283-91.726385 10.423453 10.423453 0 0 1 3.543974-4.065146 143.322476 143.322476 0 0 1 61.185668-13.863192h17.615635a143.843648 143.843648 0 0 1 66.29316 20.846905 49.71987 49.71987 0 0 1 17.302931 19.491857 168.7557 168.7557 0 0 1 17.407167 60.351791c0.833876 6.775244 0.625407 13.550489 1.667752 20.325733 0 2.501629 1.042345 5.420195-2.084691 7.087948a121.745928 121.745928 0 0 1-18.345276 3.231271c-1.667752 0-3.335505 0-4.273616-1.667753a98.814332 98.814332 0 0 0-24.703583-28.872964c-9.276873-8.964169-18.762215-17.71987-28.039088-26.684039-2.605863-2.501629-4.37785-3.022801-7.296417 0-13.446254 12.508143-27.100977 24.807818-40.651466 37.211726a51.074919 51.074919 0 0 0-13.654723 18.136808c-1.771987 4.37785-4.065147 5.003257-7.817589 3.022801-1.667752-1.771987-3.648208-0.833876-5.211727-1.771987z" fill="#FA665A" p-id="3200"></path><path d="M290.29316 300.820847a408.599349 408.599349 0 0 0-41.693811-15.009772 4.169381 4.169381 0 0 1-3.543974-5.003257v-11.882737c5.52443-3.022801 11.465798-1.042345 17.198697-1.355048a8.130293 8.130293 0 0 0 6.254071-0.833877c4.899023-3.439739 10.423453-5.628664 15.322476-9.381107 2.084691-1.563518 5.003257-2.605863 3.960912-6.254072a0.938111 0.938111 0 0 1 0-0.938111c2.814332-1.667752 5.52443-3.439739 8.338762-5.003257s1.14658 3.439739 3.648209 3.022801l1.146579-0.625407c4.899023-6.149837 12.612378-8.7557 18.241043-13.967426a15.947883 15.947883 0 0 1 7.296417-3.127036 110.488599 110.488599 0 0 0 14.384365-6.254072 4.065147 4.065147 0 0 0 2.08469-1.250814c3.856678-5.628664 10.423453-6.67101 15.947883-10.423453a9.172638 9.172638 0 0 1 8.859935-0.729642c0 4.586319-3.335505 7.609121-4.482085 12.19544 1.667752-4.586319 4.169381-8.130293 5.52443-12.403909a8.130293 8.130293 0 0 1 2.918567-5.107492 169.172638 169.172638 0 0 0 21.576547-13.863192c1.667752-1.563518 5.628664-1.876221 8.234528-3.439739s6.775244-5.003257 10.423452-6.879479a93.811075 93.811075 0 0 0 12.091206-9.798046 3.439739 3.439739 0 0 1 2.188925-1.042345c10.423453 0 16.57329-7.192182 24.703583-11.153094 2.814332-1.355049 4.794788-5.52443 8.859935-2.501629 0 2.501629-1.563518 4.169381-2.188925 6.149837a28.039088 28.039088 0 0 0 3.127035-7.921824 5.315961 5.315961 0 0 1 3.335505-4.586319 4.899023 4.899023 0 0 0 3.335505 0 174.175896 174.175896 0 0 0 17.824104-10.423453c3.022801-2.29316 6.462541-4.899023 9.485342-7.609121a34.084691 34.084691 0 0 1 11.986971-5.941368 50.970684 50.970684 0 0 0 11.882736-6.671009c4.169381-2.710098 8.7557-4.273616 13.029316-6.67101 6.462541-3.752443 12.508143-8.026059 19.283388-11.257329a9.276873 9.276873 0 0 0 4.37785-5.837134 4.690554 4.690554 0 0 1 4.273616-3.648208c12.19544 0 20.846906-7.921824 31.270358-13.029316 2.918567-1.563518 6.67101-2.605863 7.60912-6.566775l10.423453 1.980456a1.771987 1.771987 0 0 1 0 1.459283c-7.713355 17.198697-15.322476 34.501629-23.140065 52.117264-0.833876 1.980456-1.563518 4.065147-3.648208 5.107492a91.830619 91.830619 0 0 0-23.869707 11.465798c-14.801303 8.130293-29.185668 16.885993-43.882736 25.224755-1.876221 1.042345-3.960912 2.918567-6.045603 0a12.19544 12.19544 0 0 1 2.188925-7.921824 133.837134 133.837134 0 0 0 6.67101-15.218241c-2.605863 0.833876-3.127036 3.127036-3.960912 5.107492-3.127036 7.296417-6.566775 14.488599-9.589577 21.785016a8.859935 8.859935 0 0 1-3.439739 4.794789c-14.071661 6.879479-27.205212 15.218241-40.7557 23.03583-49.824104 28.664495-99.439739 57.433225-149.263844 86.09772-2.188925 1.250814-4.37785 2.605863-6.983713 0.938111-1.250814-3.648208 1.14658-6.462541 2.397394-9.276873 4.586319-10.423453 9.172638-19.908795 14.175895-29.70684a22.827362 22.827362 0 0 0 3.022802-8.338763 18.345277 18.345277 0 0 0-3.752443 6.67101c-6.149837 14.175896-12.508143 28.247557-18.553746 42.423453a11.674267 11.674267 0 0 1-3.335505 5.420195c-2.397394 1.250814-4.273616 3.127036-6.775244 3.856678z" fill="#2FB9AE" p-id="3201"></path><path d="M681.381107 98.397394a338.449511 338.449511 0 0 1 49.824105 24.078176 8.442997 8.442997 0 0 0 3.439739 2.605863c4.690554 2.501629 4.690554 4.37785 0 7.087948l-24.18241 13.758958-62.540717 36.065146c-2.605863 1.459283-5.107492 5.107492-8.964169 2.710098a76.716612 76.716612 0 0 1 7.921824-19.179153 200.7557 200.7557 0 0 0 8.130293-18.65798c-4.899023 9.485342-8.859935 19.387622-13.446254 28.977198a44.612378 44.612378 0 0 1-7.504886 14.4886 61.915309 61.915309 0 0 0-16.57329 10.423452c-3.543974-1.667752-2.814332-5.52443-4.273616-8.338762 0-0.625407-1.14658 0 0 0a26.267101 26.267101 0 0 1-4.794788 13.133551 63.791531 63.791531 0 0 0-16.677524 8.7557c-24.18241 13.654723-48.052117 27.726384-72.130293 41.693811a9.589577 9.589577 0 0 1-5.52443 2.084691c-7.192182-4.690554-11.04886 0-15.009772 5.107491a309.055375 309.055375 0 0 1-32 3.335505c-3.856678 0-3.960912-2.814332-2.605864-5.732899 2.188925-4.690554 4.482085-9.276873 6.67101-13.863192 5.52443-11.674267 10.423453-23.452769 16.677525-35.022801a4.37785 4.37785 0 0 1 1.563517-1.876222 161.042345 161.042345 0 0 0 22.931597-11.98697c15.635179-8.7557 31.270358-17.928339 46.592833-26.788274 2.084691-1.14658 4.169381-2.918567 6.879479-1.355049 0 5.732899-4.169381 10.423453-5.941368 15.218241 0 1.250814-1.14658 2.29316-1.667752 3.543974a43.986971 43.986971 0 0 0-2.605863 6.566775c0-2.397394 2.188925-4.273616 2.710097-6.671009 2.814332-6.566775 6.358306-12.716612 8.651466-19.491857a8.442997 8.442997 0 0 1 3.335505-4.794788c15.530945-7.921824 30.228013-17.407166 45.446254-25.745929 1.876221-1.042345 3.543974-2.710098 5.941368-1.563518a10.423453 10.423453 0 0 1 1.667753 3.543974 5.107492 5.107492 0 0 0 5.941368 3.127036 4.37785 4.37785 0 0 0 3.752443-3.960912 5.003257 5.003257 0 0 0-3.335505-5.837133 10.423453 10.423453 0 0 1-3.127036-1.250815c-0.521173-0.938111 0-1.563518 0.833876-1.980456a329.798046 329.798046 0 0 0 36.586319-20.013029c3.752443-2.084691 7.400651-4.37785 11.257329-6.358306a13.654723 13.654723 0 0 0 6.149837-5.837134z" fill="#38BDAF" p-id="3202"></path><path d="M246.410423 152.912052a384.521173 384.521173 0 0 1 58.267101-36.794788 444.664495 444.664495 0 0 1 120.286645-42.631922h2.918567c4.169381-0.625407 2.501629 2.397394 1.876222 3.648208a143.114007 143.114007 0 0 1-9.068404 19.179154 337.824104 337.824104 0 0 1-28.977199 17.407166c-8.547231 4.586319-17.198697 9.172638-25.224756 14.28013-10.423453 6.775244-22.09772 11.882736-32.312703 19.179153a25.745928 25.745928 0 0 1-7.504886 3.022801c-2.188925 0.729642-3.127036-1.771987-3.43974-3.960912s0-1.876221 0-3.335505c-2.814332 5.003257-4.169381 10.423453-7.400651 14.801303-7.400651 3.543974-13.863192 8.651466-20.846906 12.091206-0.729642 0-1.355049 0.938111-2.188925 0.833876a6.67101 6.67101 0 0 1-1.876221-1.563518c-3.648208-3.543974-6.045603-3.022801-8.130293 1.563518l-0.729642 1.771987a15.009772 15.009772 0 0 1-10.944625 10.423453c-3.648208 0.833876-5.107492 5.003257-8.96417 5.941368s-4.899023 3.23127-6.67101 3.335505c-4.899023 0-6.149837 4.690554-9.90228 6.254071a68.794788 68.794788 0 0 0-11.04886 6.67101c-3.648208 2.397394-7.713355 3.960912-11.153094 6.462541-1.250814 0.938111-3.127036 1.771987-3.960912-0.729642a122.47557 122.47557 0 0 1 9.276873-20.846906c4.586319-10.423453 10.423453-20.846906 14.801303-31.270358a18.86645 18.86645 0 0 1 2.918566-5.732899z" fill="#21B3AD" p-id="3203"></path><path d="M596.638436 950.931596a8.442997 8.442997 0 0 0 0.833877-2.814332c-1.876221-31.270358-5.315961-62.540717-23.035831-90.579805a61.081433 61.081433 0 0 0-29.289902-20.846905 143.947883 143.947883 0 0 0-48.364821-11.778502c-1.563518-1.14658-1.667752-2.29316 0-2.501629a38.566775 38.566775 0 0 1 6.879479 0 368.260586 368.260586 0 0 0 49.094462-1.146579 391.609121 391.609121 0 0 0 39.400652-4.273616 12.403909 12.403909 0 0 1 7.296417 0 54.931596 54.931596 0 0 1 11.778501 15.218241 314.47557 314.47557 0 0 1 34.188925 83.387622c1.563518 5.732899 3.335505 11.465798 4.58632 17.302932 0 1.876221 1.355049 3.856678 0 5.732899a282.47557 282.47557 0 0 1-53.368079 12.299674z" fill="#F24E4E" p-id="3204"></path><path d="M650.527687 937.172638a416 416 0 0 0-16.052117-55.244299 241.094463 241.094463 0 0 0-27.62215-55.973942c-2.29316-3.23127-4.794788-6.254072-7.192182-9.485342a4.794788 4.794788 0 0 1 3.648208-2.293159c6.775244-1.042345 13.446254-3.127036 20.846906-3.543974 3.648208 1.14658 5.107492 4.586319 7.296417 7.192182a363.465798 363.465798 0 0 1 32.416938 45.029316 10.423453 10.423453 0 0 1 2.188925 5.420196 447.270358 447.270358 0 0 1 23.2443 45.550488c1.14658 2.605863 1.980456 5.211726 2.918566 7.921824a352.521173 352.521173 0 0 1-41.693811 15.42671z" fill="#E94949" p-id="3205"></path><path d="M639.478827 185.120521a101.315961 101.315961 0 0 0 20.117264-10.423453c18.762215-10.423453 37.315961-21.472313 55.973942-32.208469l19.80456-11.465798c2.710098-1.563518 2.188925-3.022801 0-4.273615s-4.273616-0.938111-3.960912-3.856678l13.13355 7.609121a2.501629 2.501629 0 0 1 0 2.814332c-6.254072 13.446254-11.361564 27.309446-18.553746 40.338762-5.732899 5.837134-13.550489 8.547231-19.700325 14.071661a20.846906 20.846906 0 0 1-15.009772 7.504886c-1.042345 0-0.938111 1.250814-1.459284 1.771987a9.485342 9.485342 0 0 1-4.586319 3.648209 56.912052 56.912052 0 0 0-22.09772 13.863192c-1.563518 1.14658-3.127036 1.980456-4.899023 0 0 0 0-0.625407 0 0a11.882736 11.882736 0 0 1-10.423452 6.879479c-4.273616 0-6.67101 4.169381-10.423453 5.837133a43.570033 43.570033 0 0 1-10.423453 3.43974 20.846906 20.846906 0 0 1-4.482085-11.778502 6.254072 6.254072 0 0 1 0-1.563518c3.752443-10.423453 9.381107-20.013029 13.967427-30.123778 0.625407-0.729642 0.938111-2.397394 3.022801-2.084691z" fill="#3DC0AF" p-id="3206"></path><path d="M417.042345 838.358306a100.065147 100.065147 0 0 0-12.299674 23.035831 401.71987 401.71987 0 0 0-22.931596 68.586319c-0.729642 3.022801-1.14658 6.149837-1.667753 9.276873a269.863192 269.863192 0 0 1-38.983713-14.175896 356.586319 356.586319 0 0 1 32-63.374593 408.599349 408.599349 0 0 1 33.667753-46.175895c0.833876-1.042345 3.127036-1.980456 1.042345-3.960912a62.540717 62.540717 0 0 1 23.03583 5.107491 4.482085 4.482085 0 0 1-1.250814 3.543974c-4.169381 5.732899-7.713355 12.19544-12.612378 18.136808z" fill="#E94949" p-id="3207"></path><path d="M754.136808 136.442997a309.055375 309.055375 0 0 1 44.091205 32.416938c0 0.521173 0 0 0 0 4.482085 6.045603 4.482085 6.149837-2.501629 9.589576-8.859935 4.37785-17.198697 9.693811-25.954397 14.384365s-14.071661 8.130293-20.846906 12.19544a180.534202 180.534202 0 0 0-28.143322 16.990228c-1.876221 1.563518-4.586319 1.355049-6.462541 2.918567-0.938111 0-2.084691-2.084691-2.814332 0s-0.833876 3.752443-2.710098 4.794788-4.690554 3.543974-7.817589 1.459283c-0.625407-4.482085 2.501629-7.713355 4.169381-11.361563 7.296417-16.052117 14.801303-32 22.514658-47.947883a8.130293 8.130293 0 0 1 2.605863-3.543974c2.710098-0.625407 4.690554-3.543974 8.234528-1.355049 1.459283 0.833876 3.856678-1.980456 4.794788-4.065146a3.022801 3.022801 0 0 1 3.648208-2.188925 23.2443 23.2443 0 0 0 16.469056-7.504886 5.315961 5.315961 0 0 0-1.042345-8.651466l-7.713356-5.52443c-0.938111-0.208469-2.814332-1.042345-0.521172-2.605863z" fill="#41C2B0" p-id="3208"></path><path d="M598.618893 73.589577c0.938111 2.397394 0 3.752443-2.084691 5.003257-7.087948 3.648208-14.071661 7.713355-20.846906 11.674267-3.335505 1.980456-7.921824 1.14658-10.423452 4.899023-0.938111 1.459283-1.876221 0-2.814333-0.729642a3.335505 3.335505 0 0 0-5.107491 1.980456c-1.14658 7.087948-7.713355 8.026059-12.19544 11.465798a93.811075 93.811075 0 0 1-16.990228 9.798046 76.508143 76.508143 0 0 0-12.19544 6.149837 110.697068 110.697068 0 0 1-16.260586 8.651466c-3.23127 1.563518-5.003257 4.37785-7.81759 5.628664s-5.837134 5.003257-9.381107 6.566775c-5.732899 2.501629-10.423453 6.254072-16.260587 9.068404-1.042345 0-1.250814-0.729642-1.355049-1.563518s0-3.648208 0.938111-5.107491c4.690554-9.798046 8.964169-19.80456 13.967427-29.498372a7.713355 7.713355 0 0 1 2.501629-3.022801l77.029316-44.508143a7.296417 7.296417 0 0 0 2.397394-1.771987 223.061889 223.061889 0 0 1 36.899023 5.315961z" fill="#2BB7AE" p-id="3209"></path><path d="M681.381107 98.397394c0.938111 2.814332-0.625407 4.065147-2.918566 5.420196q-21.680782 12.403909-43.257329 25.120521a80.885993 80.885993 0 0 1-8.651466 3.23127 12.820847 12.820847 0 0 1-5.003257 5.107492c-10.423453 4.899023-20.325733 11.361564-30.540717 16.990228a134.149837 134.149837 0 0 1-20.846906 10.423453c-1.042345-1.250814 0-2.501629 0-3.752443 5.003257-11.361564 10.423453-22.410423 15.739414-33.667753a5.420195 5.420195 0 0 1 2.814332-2.188925 47.843648 47.843648 0 0 0 16.677525-8.338762c14.384365-8.026059 28.664495-16.364821 42.631922-24.807818a3.127036 3.127036 0 0 1-4.169381-1.459283 3.439739 3.439739 0 0 1 1.355048-4.794788 264.964169 264.964169 0 0 1 36.169381 12.716612z" fill="#33BBAF" p-id="3210"></path><path d="M714.423453 224.938111c4.794788-3.127036 9.485342-6.462541 14.384365-9.381108 2.501629-1.459283 4.794788-3.23127 7.192182-4.482084s5.420195-2.397394 8.130293-4.065147c7.296417-4.586319 15.322476-8.026059 22.201955-13.029316a41.693811 41.693811 0 0 1 11.98697-6.358306 41.068404 41.068404 0 0 0 8.442997-5.315961 83.387622 83.387622 0 0 0 14.592834-7.609121c0-2.188925-4.690554-2.29316-3.127036-5.628664a129.980456 129.980456 0 0 1 18.970684 16.885993c3.335505 3.856678 3.23127 4.065147-1.250814 6.775245-16.260586 9.589577-32.625407 18.86645-48.990228 28.351791-1.980456 1.14658-3.856678 2.605863-5.837134 3.752443a16.364821 16.364821 0 0 0-5.315961 2.814332 9.172638 9.172638 0 0 1-2.293159 1.355049 12.716612 12.716612 0 0 0-4.899023 2.710098 8.651466 8.651466 0 0 1-2.188925 1.250814 12.716612 12.716612 0 0 0-4.899023 2.814333 31.270358 31.270358 0 0 1-6.879479 3.960912 12.403909 12.403909 0 0 0-5.003257 2.710097 8.7557 8.7557 0 0 1-2.188925 1.250815 6.149837 6.149837 0 0 0-4.37785 3.335505c0 0.625407-0.833876 1.14658-1.667753 0.93811a47.947883 47.947883 0 0 1-6.983713-23.03583z" fill="#45C3B0" p-id="3211"></path><path d="M760.18241 224c11.570033-8.026059 24.18241-14.28013 36.169382-21.576547 6.67101-4.065147 13.34202-8.026059 20.221498-11.570033 3.648208-1.876221 0-3.439739 0-5.107492a52.117264 52.117264 0 0 1 10.944625 10.423453 196.482085 196.482085 0 0 1-14.488599 31.270358c-1.876221 5.211726-7.087948 3.439739-10.423453 4.58632a82.65798 82.65798 0 0 0-14.28013 7.504886c-10.423453 5.315961-19.80456 11.257329-29.70684 16.781759-6.045603 3.335505-12.19544 6.566775-17.928339 10.423452-3.439739 2.397394-6.67101 5.628664-11.570033 4.690554a93.811075 93.811075 0 0 1-7.60912-21.263844c0-0.625407 0-1.250814 0.729641-1.771987v-2.08469c1.563518-1.250814 3.439739-1.667752 5.003258-3.022801l1.980456-1.042346c1.563518-1.250814 3.543974-1.667752 5.003257-3.022801l6.983713-3.960912c1.563518-1.250814 3.543974-1.667752 5.003258-3.022801l1.980456-1.042346c1.563518-1.250814 3.543974-1.667752 5.003257-3.022801l1.980456-1.042345c1.563518-1.355049 3.543974-1.876221 5.003257-3.127036z" fill="#48C5B0" p-id="3212"></path><path d="M857.016287 227.856678a243.491857 243.491857 0 0 1 19.908794 25.954397 7.921824 7.921824 0 0 0 2.29316 4.273616 81.511401 81.511401 0 0 1 8.7557 19.596091c1.250814 2.501629-1.14658 4.37785-4.482084 3.960912v0.625407a7.81759 7.81759 0 0 1-1.563518 4.586319c-1.250814 1.771987-2.605863 3.543974-5.211727 3.022801s-2.397394-2.29316-2.605863-4.273615-0.833876 0-1.250814 0c-2.188925 0-2.918567 1.771987-3.648209 3.439739-1.667752 3.335505-2.918567 6.879479-4.586319 10.423453-0.729642 1.563518-1.355049 3.335505-3.335505 3.960912a3.648208 3.648208 0 0 1-3.543974-3.335505c0 1.459283 0 1.980456-1.980456 3.022802s-5.628664-0.938111-8.338762 0a72.338762 72.338762 0 0 1-7.713355-20.846906c-0.729642-2.29316 1.14658-3.335505 3.23127-3.439739 4.169381 0 4.065147-2.188925 2.918567-5.211727-1.876221-5.315961-3.648208-10.423453-5.420195-16.052117a10.423453 10.423453 0 0 1-1.042346-5.837134 35.439739 35.439739 0 0 1 13.34202-9.172638c6.149837-2.397394 7.087948-5.211726 4.169381-10.423453-0.833876-1.980456-1.980456-2.814332 0.104235-4.273615z" fill="#4FC9B1" p-id="3213"></path><path d="M149.680782 250.892508a359.713355 359.713355 0 0 1 38.46254-46.697068 405.472313 405.472313 0 0 1 51.283388-46.071661c2.501629 0 1.355049 1.980456 0.938111 2.814332-8.338762 18.345277-15.843648 37.003257-25.120521 54.931596-18.86645 10.423453-38.045603 20.846906-56.286645 32.625407a52.117264 52.117264 0 0 1-6.566776 3.543974c-1.459283 0.416938-2.605863 1.14658-2.710097-1.14658z" fill="#21B3AD" p-id="3214"></path><path d="M872.859935 284.872964c0.625407 0 1.459283-2.710098 2.08469 0s0 3.335505 2.188925 3.752443 3.23127-1.667752 4.065147-3.022801a25.32899 25.32899 0 0 0 2.188925-5.941368c0 0.729642 0.833876 2.188925 1.14658 2.188925s1.980456-1.459283 2.605863-2.710098 0-2.501629-0.938111-2.814332-2.29316-0.938111-2.188925-2.188925c0.938111-6.67101-3.335505-11.257329-6.149837-16.469056-0.625407-1.250814-2.084691-2.29316-0.938111-3.960912a397.446254 397.446254 0 0 1 45.863193 81.824105l-22.306189-7.609121c-2.814332-0.938111-4.899023-0.938111-5.52443 2.605863-1.14658-0.729642-1.14658-1.876221-1.355049-3.022801a6.67101 6.67101 0 0 0-10.423453-5.107492c-1.042345 0-1.876221 1.459283-3.127036 1.14658a93.185668 93.185668 0 0 0-21.993485-4.899023v-0.625407a184.390879 184.390879 0 0 1 8.964169-20.846906c1.355049-3.752443 3.856678-8.026059 5.837134-12.299674z" fill="#54CAB1" p-id="3215"></path><path d="M857.016287 227.856678c0 0.729642-0.625407 1.355049 0 2.188925 3.127036 3.960912 5.628664 7.81759-0.938111 11.257329s-10.423453 6.358306-16.364821 9.589576c-2.814332-0.833876-2.605863-3.648208-3.543974-5.52443-1.771987-3.752443-2.710098-7.81759-4.482085-12.19544l-8.130293 24.39088a15.322476 15.322476 0 0 1-2.605863 5.837133c-8.026059 5.52443-16.781759 9.798046-25.120521 14.905538-2.188925 1.355049-2.501629 0-2.710098-1.876222a50.241042 50.241042 0 0 1 5.52443-13.237785c10.423453-20.846906 19.908795-42.631922 30.123779-63.791531a3.856678 3.856678 0 0 1 1.250814-1.563517 294.254072 294.254072 0 0 1 26.996743 30.019544z" fill="#4AC7B0" p-id="3216"></path><path d="M561.71987 68.273616c0 2.29316-1.771987 2.918567-3.335505 3.752443-13.237785 7.296417-26.47557 14.905537-39.609121 22.514658-11.153094 6.462541-22.410423 12.716612-33.355049 19.491856a14.905537 14.905537 0 0 1-2.710097 1.042346c-1.250814-2.29316 0-4.273616 0.93811-6.149838 6.254072-12.820847 12.19544-25.850163 18.241043-38.775244a10.423453 10.423453 0 0 1 3.439739-4.794788h26.058632c2.084691 0.625407 4.169381 0 6.254072 0.625407a147.074919 147.074919 0 0 1 24.078176 2.29316z" fill="#27B6AE" p-id="3217"></path><path d="M149.680782 250.892508c3.752443 1.250814 6.045603-1.876221 8.442997-3.439739 8.964169-5.732899 18.136808-11.153094 27.622149-16.052118s16.885993-9.693811 25.328991-14.697068c1.14658-0.625407 2.084691-1.771987 3.543974-0.729642a2.397394 2.397394 0 0 1 0 2.397395 264.859935 264.859935 0 0 1-11.570033 24.807817c-10.423453 6.879479-21.472313 12.508143-32.104235 18.86645-1.667752 0.938111-4.065147 2.710098-5.107491-0.938111s3.335505-7.087948 3.960912-11.257329c-2.188925 0.729642-2.188925 2.710098-2.918567 4.065146a117.680782 117.680782 0 0 1-9.172639 18.970684 173.550489 173.550489 0 0 0-23.03583 0 186.684039 186.684039 0 0 1 15.009772-21.993485z" fill="#25B4AE" p-id="3218"></path><path d="M645.52443 85.472313c0 1.667752-1.980456 3.439739 0 5.107492s3.648208-1.14658 5.628664-1.667753c0.833876 3.127036-1.771987 3.543974-3.127035 4.37785-12.19544 7.296417-24.495114 14.488599-36.794789 21.680782l-16.36482 9.485342c-1.563518 0.833876-3.127036 2.918567-5.211727 0.729642s1.250814-6.67101 2.605863-9.693811c4.794788-10.423453 9.798046-20.846906 14.592834-31.270359a16.260586 16.260586 0 0 0 1.771987-8.026058v-0.625407a303.322476 303.322476 0 0 1 36.899023 9.90228z" fill="#2FB9AE" p-id="3219"></path><path d="M437.055375 71.400651a416.938111 416.938111 0 0 1 63.895765-6.149837c1.355049 2.501629 0 4.169381-1.459283 6.045603a26.162866 26.162866 0 0 1-12.925082 6.775244 3.127036 3.127036 0 0 0-2.397394 1.563518 3.543974 3.543974 0 0 1-4.586319 1.980456c-1.250814 0-2.084691-1.14658-1.876222-2.501628s1.042345-3.856678 3.543974-4.169382v-0.625407a141.550489 141.550489 0 0 1-14.697068 9.068404c-10.423453 3.856678-17.928339 12.925081-28.977199 15.42671-2.605863 4.169381-7.296417 5.420195-11.257329 7.713355-1.980456 1.14658-1.667752 3.022801-1.563518 4.899023a7.921824 7.921824 0 0 1-10.423452 7.921824 20.846906 20.846906 0 0 1 3.543973-10.423453c5.107492-10.944625 10.423453-21.785016 15.322476-32.833876a7.087948 7.087948 0 0 1 3.856678-4.690554z" fill="#23B4AE" p-id="3220"></path><path d="M754.136808 136.442997v1.980456c2.918567 1.876221 5.732899 3.856678 8.651466 5.732899 5.211726 3.543974 4.794788 8.442997-0.938111 11.570032-2.188925 1.250814-3.543974 3.543974-6.358306 4.377851a22.09772 22.09772 0 0 1-10.423453 1.667752c-0.833876 0-1.459283 0.521173-1.355049 1.042345 0.938111 2.918567-2.188925 3.022801-2.918567 4.37785-1.771987 3.335505-2.710098 2.918567-5.003257 0.521173s-3.127036 2.501629-5.315961 1.14658-0.521173-3.439739 0-5.107492c4.690554-9.068404 8.442997-18.65798 13.34202-27.62215 0.938111-1.771987 1.563518-4.273616 4.586319-3.335505z" fill="#3DC0AF" p-id="3221"></path><path d="M437.055375 71.400651c-7.296417 15.947883-15.42671 31.270358-22.09772 47.739414a54.201954 54.201954 0 0 1-6.358306 15.530945c-5.107492 10.423453-10.423453 21.993485-15.63518 32.729641s-10.423453 22.618893-16.052117 33.876222a15.530945 15.530945 0 0 1-3.752443 5.732899l-8.859935 17.511401c0-4.899023 3.022801-8.234528 3.752443-12.508144a41.693811 41.693811 0 0 1 5.732899-15.009772c10.423453-24.18241 21.576547-47.947883 32-72.130293 3.23127-7.713355 6.879479-15.218241 10.423453-23.03583a11.986971 11.986971 0 0 1 3.960912-5.52443c2.710098-6.149837 5.628664-12.19544 8.130293-18.449512 0.521173-1.355049 3.127036-3.335505 0-4.690554a23.140065 23.140065 0 0 1 8.755701-1.771987z" fill="#6DCFC5" p-id="3222"></path><path d="M830.019544 198.045603a77.029316 77.029316 0 0 1-7.713355 18.136807c-8.964169 19.596091-18.345277 38.983713-27.517915 58.371336a15.947883 15.947883 0 0 0-0.729642 2.397394 191.374593 191.374593 0 0 1-11.465798 26.788274c-1.563518 3.856678-3.752443 7.400651-5.315961 11.257329-0.625407 1.563518-1.355049 4.065147-3.648209 3.022801s-0.938111-3.335505 0-4.899023c1.980456-4.690554 4.169381-9.381107 6.358307-14.071661s5.628664-12.403909 8.234527-18.553746c6.67101-14.488599 13.13355-28.977199 19.491857-43.465798 1.563518-3.543974 3.648208-6.566775 5.52443-9.90228 4.273616-9.276873 8.547231-18.553746 12.820847-27.934854 0.521173-1.250814 0.833876-2.501629 2.29316-3.022801a2.918567 2.918567 0 0 1 1.667752 1.876222z" fill="#83D7CB" p-id="3223"></path><path d="M749.34202 133.107492c-1.563518 0-2.188925 1.250814-2.814333 2.397394l-14.905537 31.270358a8.442997 8.442997 0 0 0 0 2.397394c-6.566775 10.423453-10.944625 22.514658-16.57329 33.667753-4.794788 9.589577-8.859935 19.491857-13.237785 29.185668a75.778502 75.778502 0 0 1-8.338762 18.136807c-0.625407 1.042345-1.459283 2.605863-3.022802 1.667753s-0.625407-2.188925 0-3.127036c2.084691-4.37785 3.648208-8.859935 5.837134-13.13355 8.338762-18.345277 16.364821-36.794788 24.703583-55.140066a21.576547 21.576547 0 0 1 4.37785-7.087947l19.074919-42.944626a12.091205 12.091205 0 0 1 4.899023 2.710098z" fill="#81D6CB" p-id="3224"></path><path d="M498.762215 71.296417l2.084691-6.045603h4.482084c-7.609121 16.677524-16.260586 32.833876-23.03583 49.928339-6.775244 11.882736-11.986971 24.599349-17.824105 37.003257-3.543974 4.37785-4.065147 10.423453-8.338762 14.384365l3.335505-8.442996c-0.729642-2.188925 0.625407-3.856678 1.459283-5.52443 4.899023-10.423453 9.798046-21.785016 14.4886-32.729642 6.254072-14.697068 12.925081-29.289902 19.387622-43.882736a10.423453 10.423453 0 0 1 3.960912-4.690554z" fill="#6DCFC5" p-id="3225"></path><path d="M203.04886 242.86645l11.986971-26.892509 15.530944-34.918566 9.589577-20.846906v-1.771987a23.452769 23.452769 0 0 1 6.983713-5.107492l-24.807817 53.055375c-0.729642 1.667752-1.355049 3.335505-2.084691 5.003257a17.198697 17.198697 0 0 1-1.459283 5.628665c-3.960912 7.192182-7.087948 14.801303-10.423453 22.306189-2.605863 3.960912-3.439739 8.964169-7.192183 12.195439a1.250814 1.250814 0 0 1-1.250814-0.625407 7.400651 7.400651 0 0 1 3.127036-8.026058z" fill="#4CC2BB" p-id="3226"></path><path d="M933.628664 363.674267c-3.543974 4.899023-4.794788 10.423453-7.921824 15.843648-0.938111 0-1.459283 0-1.042345-1.042345l8.026059-17.928339c1.250814 0.833876 1.14658 1.980456 0.93811 3.127036z" fill="#74B0AC" p-id="3227"></path><path d="M494.905537 958.957655h-9.798045a24.390879 24.390879 0 0 1 9.798045-0.833876v0.625407z" fill="#BEBCB6" p-id="3228"></path><path d="M528.781759 958.123779h10.423453v0.833876h-10.423453v-0.521173z" fill="#BDB7B1" p-id="3229"></path><path d="M494.905537 958.957655a5.628664 5.628664 0 0 0 0-0.833876h8.026059a16.885993 16.885993 0 0 1-8.026059 0.833876zM528.781759 958.123779a4.690554 4.690554 0 0 0 0 0.833876 21.368078 21.368078 0 0 1-7.504886 0 20.846906 20.846906 0 0 1 7.504886-0.833876z" fill="#DBD5D3" p-id="3230"></path><path d="M552.651466 957.289902c-2.397394 1.355049-4.273616 0.625407-7.087948 0.625407a12.19544 12.19544 0 0 1 7.087948-0.625407z" fill="#BCB7B1" p-id="3231"></path><path d="M479.687296 958.019544h-4.690553v-0.521173h5.003257z" fill="#D0C9C5" p-id="3232"></path><path d="M562.553746 956.456026a6.149837 6.149837 0 0 1-5.52443 0z" fill="#BEB8B2" p-id="3233"></path><path d="M538.058632 66.29316c-2.084691 0-4.273616 0.729642-6.254072-0.625408a10.423453 10.423453 0 0 1 6.254072 0.625408z" fill="#2BB7AE" p-id="3234"></path><path d="M565.576547 955.517915a6.254072 6.254072 0 0 1 4.794789 0 5.52443 5.52443 0 0 1-4.794789 0z" fill="#BCB7B1" p-id="3235"></path><path d="M439.973941 953.120521c1.667752 0 3.439739-0.521173 4.899023 0.833876-2.084691 0.104235-3.543974 0.833876-4.899023-0.833876z" fill="#B07D75" p-id="3236"></path><path d="M446.644951 954.162866c1.771987 0 3.648208-0.625407 5.211727 0.833877a6.149837 6.149837 0 0 1-5.211727-0.833877z" fill="#B07169" p-id="3237"></path><path d="M461.550489 956.664495a3.335505 3.335505 0 0 1 3.439739 0c-1.355049 0.938111-1.876221 0.521173-3.439739 0z" fill="#BDC0BB" p-id="3238"></path><path d="M465.928339 265.90228l33.980456-3.23127a35.960912 35.960912 0 0 1 15.635179-1.355049 328.338762 328.338762 0 0 1 71.60912 6.879479 343.973941 343.973941 0 0 1 57.850163 16.469055 49.407166 49.407166 0 0 0 4.899023 2.084691c7.296417 2.814332 14.384365 6.149837 21.680782 9.068404s16.260586 8.234528 24.18241 12.612377c4.169381 2.501629 8.547231 4.690554 12.612378 7.400652a27.100977 27.100977 0 0 0 3.43974 2.188925c3.752443 2.188925 7.192182 4.690554 10.423452 6.983713s6.879479 3.856678 8.859935 7.609121a440.807818 440.807818 0 0 1 38.775244 32.938111c5.52443 5.420195 10.423453 11.04886 15.843649 16.885993a97.980456 97.980456 0 0 1 10.423452 37.52443 269.237785 269.237785 0 0 1-2.814332 65.042345 235.257329 235.257329 0 0 1-32.104234 84.742671c-3.23127 0.938111-2.814332-1.980456-3.335505-3.543974a198.045603 198.045603 0 0 0-22.931596-45.758957 243.908795 243.908795 0 0 0-81.302932-73.693811 271.009772 271.009772 0 0 0-96.208469-33.250815 280.390879 280.390879 0 0 0-125.081433 9.693811 265.068404 265.068404 0 0 0-91.62215 49.302932 205.863192 205.863192 0 0 0-65.980456 91.413681 141.550489 141.550489 0 0 0 4.273616 107.778501 159.478827 159.478827 0 0 0 16.990228 29.185668c1.14658 1.563518 3.439739 3.022801 1.563518 5.52443a38.879479 38.879479 0 0 1-17.302932 0 357.315961 357.315961 0 0 1-60.560261-8.859935 63.270358 63.270358 0 0 1-10.423452-3.335505 143.947883 143.947883 0 0 1-14.280131-22.931596 10.423453 10.423453 0 0 1 0.938111-5.315961 165.732899 165.732899 0 0 0 10.423453-61.811075 146.553746 146.553746 0 0 0-27.205212-83.387622 20.117264 20.117264 0 0 1-3.022801-5.732899 284.664495 284.664495 0 0 1 43.465798-96.416938 352 352 0 0 1 95.583062-93.811075l7.296417-5.107492a10.423453 10.423453 0 0 1 4.065146-3.543974 370.65798 370.65798 0 0 1 71.296417-34.710097c2.918567-0.833876 5.837134-1.876221 8.651466-2.918567a341.889251 341.889251 0 0 1 53.993485-13.029316c1.876221-0.416938 3.127036 1.563518 5.420196 0.416938z" fill="#FA665A" p-id="3239"></path><path d="M761.120521 570.371336c0-3.335505 2.084691-5.52443 3.543974-8.026059a237.13355 237.13355 0 0 0 26.579805-70.358306 265.485342 265.485342 0 0 0 4.690553-66.188925 93.811075 93.811075 0 0 0-7.817589-36.065147 15.843648 15.843648 0 0 1-1.980456-7.087948 256.208469 256.208469 0 0 1 28.872964 36.586319 282.996743 282.996743 0 0 1 41.693811 94.957655 15.635179 15.635179 0 0 1-2.918567 5.732899 145.928339 145.928339 0 0 0-28.456026 80.990228 168.651466 168.651466 0 0 0 8.859935 62.540717 13.13355 13.13355 0 0 1 1.14658 7.296417 189.70684 189.70684 0 0 1-24.39088 35.648208 315.830619 315.830619 0 0 1-144.260586 93.811075l-1.250814 0.729642a5.837134 5.837134 0 0 1-3.752443 1.667752c-10.423453 3.23127-20.846906 6.358306-32 8.859935a5.420195 5.420195 0 0 1-4.794789 0l-25.016286 5.003257a489.90228 489.90228 0 0 1-66.084691 6.358307 105.276873 105.276873 0 0 1-26.47557 0c-3.335505-0.729642-6.775244 0.938111-10.423453 0-0.625407 0 0 1.042345 0 1.563517h-18.970684c0-2.710098 2.29316-1.771987 3.231271-1.667752s4.586319 0 5.837133 0a306.136808 306.136808 0 0 1-46.592834-3.856677 16.990228 16.990228 0 0 1-9.381107-2.605864l-23.140065-4.899022a304.57329 304.57329 0 0 1-46.905538-12.612378 341.159609 341.159609 0 0 1-95.374592-48.260587 236.403909 236.403909 0 0 1-56.182411-56.599348c2.501629-1.563518 4.690554 0 6.879479 1.042345a320.938111 320.938111 0 0 0 47.739414 8.026059c11.361564 1.042345 22.618893 2.501629 33.980456 2.918566a5.837134 5.837134 0 0 1 4.065146 2.605864 229.941368 229.941368 0 0 0 71.609121 56.390879 307.908795 307.908795 0 0 0 87.869707 28.456026 366.071661 366.071661 0 0 0 75.98697 3.752443 252.664495 252.664495 0 0 0 51.179153-7.60912c3.439739-0.833876 6.879479-1.042345 10.423453-1.771987a325.941368 325.941368 0 0 0 60.977199-23.973942 200.442997 200.442997 0 0 0 90.47557-86.931596 139.04886 139.04886 0 0 0 11.153094-98.293159c-0.625407-2.710098-2.29316-5.211726-0.625407-8.130293z" fill="#F55954" p-id="3240"></path><path d="M303.322476 289.771987c4.690554 0.729642 7.713355-2.710098 11.257329-4.690554 31.270358-17.824104 61.915309-35.856678 92.872964-53.680782l86.09772-49.5114a15.843648 15.843648 0 0 1 6.358306-2.710098c1.355049 1.771987 0 3.543974 0 5.107492-4.690554 10.423453-8.964169 20.221498-13.550489 30.332248a7.296417 7.296417 0 0 1-2.397394 3.127035l-111.322476 63.687297-52.117263 30.436482a12.19544 12.19544 0 0 1-4.690554 1.563518l-18.970684-9.693811a17.511401 17.511401 0 0 1 6.462541-13.967427z" fill="#33BBAF" p-id="3241"></path><path d="M176.885993 514.188925a133.107492 133.107492 0 0 1 27.100978 56.182411 164.482085 164.482085 0 0 1-8.130293 99.752443 3.856678 3.856678 0 0 1-0.625408 0.833876 187.62215 187.62215 0 0 1-19.596091-48.57329 207.322476 207.322476 0 0 1-3.23127-85.889251 125.081433 125.081433 0 0 1 4.482084-22.306189z" fill="#F5F5F5" p-id="3242"></path><path d="M315.413681 313.641694l52.742671-31.270358c20.221498-11.674267 40.338762-23.557003 60.56026-35.022802 18.136808-10.423453 35.752443-20.846906 54.306189-31.270358 1.355049 1.876221 0 3.543974 0 5.211726-6.462541 14.071661-12.508143 28.143322-19.283387 41.693811a4.586319 4.586319 0 0 1-2.29316 2.501629A459.465798 459.465798 0 0 0 406.514658 278.618893c-2.918567-0.833876-1.14658-2.710098-0.833876-4.169382 0.833876-3.439739 3.335505-6.254072 3.23127-10.423452a52.117264 52.117264 0 0 0-5.941368 11.361563 9.589577 9.589577 0 0 1-4.37785 5.628665 416 416 0 0 0-74.840391 36.169381z" fill="#38BDAF" p-id="3243"></path><path d="M203.04886 242.86645c-0.938111 2.710098-3.127036 4.899023-2.918567 8.026058l6.983714-11.986971c7.296417-4.794788 15.009772-8.7557 22.514657-13.13355 1.876221-1.14658 4.169381-2.814332 5.315961 0.938111a39.921824 39.921824 0 0 1-3.23127 11.98697c-2.501629 7.921824-5.315961 15.739414-7.81759 23.661238-1.355049 4.273616-0.833876 4.899023 3.648209 5.107492h7.921824c2.605863 0 4.794788 1.563518 4.690554 4.586319s1.250814 7.296417-1.355049 10.423453a320.104235 320.104235 0 0 0-75.361564-10.423453 15.530945 15.530945 0 0 0-2.397394 0 12.716612 12.716612 0 0 1 5.628665-11.465798c1.459283 3.335505 3.127036 0 4.065146 0 9.90228-5.52443 19.700326-11.257329 29.498372-16.885993a15.218241 15.218241 0 0 1 2.814332-0.833876z" fill="#28B6AE" p-id="3244"></path><path d="M238.488599 282.788274c0-4.37785 1.876221-10.423453-0.833876-12.925082s-8.130293-1.042345-12.403909-0.938111-5.107492-1.563518-3.752443-5.52443c4.169381-12.299674 8.130293-24.807818 12.091206-37.211726a84.429967 84.429967 0 0 1 6.254071-20.846905c0-0.938111 1.042345-1.980456 1.980456-1.980456s1.876221 1.14658 2.397394 2.188925c1.667752 3.752443 2.710098 7.81759 4.065147 11.674267 3.23127 10.423453 6.566775 20.013029 10.423453 30.019544 1.563518 5.628664 3.960912 10.423453 5.732899 16.364821 0.521173 1.771987 1.980456 3.648208 0 5.524429h-18.86645a57.954397 57.954397 0 0 0-1.042345 17.511401c0 1.980456 0 4.586319-3.127036 2.397394a3.127036 3.127036 0 0 1-0.625407-1.250814v-1.876222a2.084691 2.084691 0 0 1-1.459283 1.14658c-1.355049-1.355049-0.625407-2.918567-0.833877-4.273615z" fill="#056865" p-id="3245"></path><path d="M171.778502 461.863192a10.944625 10.944625 0 0 1-10.423453 10.944626 11.465798 11.465798 0 0 1-11.465798-11.04886 10.423453 10.423453 0 0 1 10.944625-10.423453 10.423453 10.423453 0 0 1 10.944626 10.527687z" fill="#94C7C6" p-id="3246"></path><path d="M303.322476 289.771987a64.104235 64.104235 0 0 0-6.462541 13.967427h-1.980456v-0.938111a5.52443 5.52443 0 0 1 2.08469-6.045603c5.003257-8.547231 8.130293-18.032573 12.299675-26.996742s7.921824-18.136808 11.778501-27.309447c0.521173-1.355049 1.042345-3.127036 3.127036-2.293159s1.563518 2.397394 0.729642 4.065146c-6.879479 14.28013-13.550489 28.664495-20.325733 43.04886a18.449511 18.449511 0 0 0-1.250814 2.501629z" fill="#5BC9BF" p-id="3247"></path><path d="M235.674267 302.28013a9.068404 9.068404 0 0 1 4.794788 11.570033c-2.188925 5.211726-6.462541 6.566775-13.863192 4.482085v-1.250815a67.543974 67.543974 0 0 1 7.713355-14.801303 1.771987 1.771987 0 0 1 1.355049 0z" fill="#94C7C6" p-id="3248"></path><path d="M166.67101 260.586319a59.517915 59.517915 0 0 0-6.045603 11.882736h-0.833876a1.563518 1.563518 0 0 1-2.084691 0c2.397394-8.026059 6.566775-15.42671 9.693811-23.140065 0-1.250814 1.14658-3.23127 3.127036-2.08469s1.042345 2.397394 0 3.856677a47.322476 47.322476 0 0 0-3.856677 9.485342z" fill="#4CC2BB" p-id="3249"></path><path d="M157.70684 272.885993h2.084691a50.553746 50.553746 0 0 1-5.941368 13.446255c-3.23127 6.983713-6.67101 13.863192-10.423453 20.846905l-1.14658-0.521173z" fill="#459E98" p-id="3250"></path><path d="M225.667752 317.602606c-4.794788-8.859935-2.605863-14.071661 6.983714-16.052117v0.521172a144.469055 144.469055 0 0 1-6.358306 15.42671s-0.416938 0.729642-0.625408 0.104235z" fill="#93C6C5" p-id="3251"></path><path d="M235.674267 302.28013h-1.355049a2.814332 2.814332 0 0 1-2.08469-0.625407l5.003257-11.778502a1.980456 1.980456 0 0 1 2.918567 0 42.631922 42.631922 0 0 0-4.482085 12.403909z" fill="#469F99" p-id="3252"></path><path d="M225.667752 317.602606h0.833877a2.918567 2.918567 0 0 1 0 0.833876 56.286645 56.286645 0 0 1-6.983714 14.071661 83.387622 83.387622 0 0 1 6.149837-14.905537z" fill="#479F99" p-id="3253"></path><path d="M296.859935 296.7557l-2.084691 6.045603a6.775244 6.775244 0 0 1-3.960912-1.980456 7.504886 7.504886 0 0 1 6.045603-4.065147z" fill="#33BBAF" p-id="3254"></path><path d="M294.358306 303.739414h1.042345l-5.837133 13.446254a34.918567 34.918567 0 0 1 4.794788-13.446254z" fill="#459E98" p-id="3255"></path><path d="M240.469055 289.876221h-2.918566l1.876221-3.022801 2.814332-5.107492c1.355049 3.127036-1.355049 4.899023-0.833876 7.087948z" fill="#398F89" p-id="3256"></path><path d="M211.908795 349.70684a10.423453 10.423453 0 0 1 2.918567-6.46254 10.423453 10.423453 0 0 1-2.918567 6.46254z" fill="#3D9D96" p-id="3257"></path><path d="M219.62215 332.716612a14.801303 14.801303 0 0 1-3.648209 8.026059 15.114007 15.114007 0 0 1 3.543974-8.130293z" fill="#419E97" p-id="3258"></path><path d="M835.335505 670.749186a178.86645 178.86645 0 0 1-11.361564-55.765473 149.368078 149.368078 0 0 1 26.788274-93.811075c1.771987-2.605863 3.856678-4.899023 5.837134-7.400651a137.693811 137.693811 0 0 1 5.107491 30.749186 217.120521 217.120521 0 0 1 0 48.156351 196.37785 196.37785 0 0 1-26.371335 78.071662z" fill="#F5F5F5" p-id="3259"></path><path d="M731.413681 332.716612l-9.172639-6.46254c1.355049-2.605863 3.960912-1.563518 6.045603-1.771987 5.003257 0 5.003257 0 3.648208-5.003258a11.986971 11.986971 0 0 1-0.625407-3.856677c0.938111-6.462541 6.775244-7.296417 11.153095-9.381108s10.423453-6.254072 15.843648-8.7557c7.296417-3.23127 13.758958-8.130293 20.846905-11.570033a16.052117 16.052117 0 0 0 4.690554-3.543973c1.355049-1.355049 2.918567-2.918567 5.107492-1.563518l-16.156352 36.586319c2.814332-0.521173 2.710098-2.29316 3.335505-3.43974l17.824104-37.107491v0.93811c5.52443-4.690554 13.13355-5.628664 18.345277-10.944625 1.980456-2.084691 5.420195-1.771987 7.504886-3.960912 1.980456 3.648208-0.625407 6.67101-1.563518 9.90228s-1.667752 5.732899 3.127036 6.045603 3.23127 2.710098 2.501629 5.211726c-1.771987 5.837134-3.856678 11.570033-5.732899 17.511401s-1.042345 4.794788 3.543974 4.899022h5.420195c1.771987 0 4.169381 0.625407 4.482085 3.127036s1.771987 5.628664-1.876222 7.192183a229.315961 229.315961 0 0 0-97.667752 15.739413z" fill="#4FC9B1" p-id="3260"></path><path d="M830.019544 316.76873c1.355049-1.980456 0.521173-4.169381 0.729642-6.254072s-0.938111-2.918567-3.022802-2.918567h-5.941368c-6.879479 0-6.983713 0-4.690553-6.775244s3.648208-11.361564 5.732899-16.885994c1.14658-3.022801 0.833876-4.690554-2.918567-4.169381s-5.003257-1.250814-3.543974-5.107492 2.501629-7.81759 3.648208-11.778501l11.882736-33.563518 7.921825 20.846905c2.710098 8.338762 5.315961 16.677524 8.130293 25.016287 1.042345 2.918567 0.833876 4.482085-2.710098 3.856678-5.211726-0.833876-5.315961 1.355049-3.648208 5.315961 2.397394 5.837134 3.543974 11.986971 6.358306 17.615635s1.876221 5.628664-2.501629 6.254071c-0.625407 0 0 0 0 0-6.045603-0.833876-10.423453 0.938111-10.423453 7.609121 0 1.771987 0.729642 4.586319-2.188925 4.482085s-2.605863-1.876221-2.814332-3.543974z" fill="#056865" p-id="3261"></path><path d="M624.57329 811.465798c13.758958-2.918567 27.205212-7.087948 40.7557-11.04886 1.459283 1.14658 1.042345 2.710098 1.042346 4.169381v59.62215c0 1.459283 0 3.022801-0.938111 4.169381a434.241042 434.241042 0 0 0-39.296417-54.306189 19.074919 19.074919 0 0 1-1.563518-2.605863z" fill="#19A08F" p-id="3262"></path><path d="M892.872964 582.358306a10.423453 10.423453 0 0 1-11.361563 11.778502 12.091205 12.091205 0 0 1-12.403909-12.508144 12.299674 12.299674 0 0 1 12.508143-11.570032 10.944625 10.944625 0 0 1 11.257329 12.299674z" fill="#4E9E99" p-id="3263"></path><path d="M834.084691 316.664495c0-8.964169 0-9.172638 9.589576-8.964169 4.065147 0 5.941368-0.625407 4.37785-4.899023 0-0.833876 0-3.335505 2.084691-1.771987s6.775244 1.042345 7.296417-4.169381c0.833876 2.918567 1.563518 5.003257 3.752443 5.837133 1.876221 2.814332 0 5.003257-1.355049 7.400652a23.557003 23.557003 0 0 1-4.273616 8.338762h-0.729641a95.478827 95.478827 0 0 0-20.742671-1.771987z" fill="#53CAB1" p-id="3264"></path><path d="M880.052117 323.648208a8.338762 8.338762 0 0 1 9.485342-3.23127c5.211726 1.771987 5.732899 5.732899 5.420196 10.423453-2.710098 5.732899-6.462541 7.504886-11.257329 5.420195s-6.045603-6.67101-3.648209-12.612378z" fill="#A6D3CF" p-id="3265"></path><path d="M858.058632 318.85342l-20.846906 43.778502a0.625407 0.625407 0 0 1-1.042345 0 201.798046 201.798046 0 0 1 9.798046-23.348534c2.814332-6.879479 6.045603-13.654723 9.068404-20.846906a1.980456 1.980456 0 0 1 2.814332 0z" fill="#7AB3AF" p-id="3266"></path><path d="M924.76873 378.47557l1.042345 1.042345a46.488599 46.488599 0 0 1-4.899023 9.068404 31.270358 31.270358 0 0 1 3.856678-10.110749zM835.960912 362.631922h1.042345l-3.752443 7.60912a10.423453 10.423453 0 0 1 2.710098-7.60912z" fill="#6DACA8" p-id="3267"></path><path d="M920.912052 388.586319a11.257329 11.257329 0 0 1-2.918567 6.67101 9.381107 9.381107 0 0 1 2.710098-6.879479z" fill="#6DACA7" p-id="3268"></path><path d="M431.009772 816.469055a611.752443 611.752443 0 0 0 61.185668 6.149838c-5.628664 1.771987-10.423453-0.521173-14.280131 1.771986a146.65798 146.65798 0 0 0-60.872964 13.967427 100.690554 100.690554 0 0 1 12.820847-20.325733z" fill="#F24E4E" p-id="3269"></path><path d="M264.234528 268.716612l-6.775245-21.785016a3.022801 3.022801 0 0 1 1.876222-3.543974c7.504886-4.169381 14.697068-9.068404 22.410423-12.925081 1.459283 0.938111 1.355049 0 1.667753-1.250815 6.67101-15.530945 14.592834-30.436482 21.368078-45.758957a6.775244 6.775244 0 0 1 3.022801-3.856678 243.491857 243.491857 0 0 0 26.058632-14.488599c21.993485-12.508143 43.986971-25.32899 65.876222-38.045603 2.084691-1.250814 4.273616-3.439739 7.192182-1.876221l-38.879479 86.827361a108.19544 108.19544 0 0 0-11.98697 4.169381c-7.713355 2.084691-11.674267 9.276873-19.283388 11.778502-5.211726 1.771987-10.423453 3.856678-15.843648 5.732899a3.127036 3.127036 0 0 0-0.938111 0.938111c-5.420195 5.837134-13.237785 8.442997-18.86645 13.863192s0-0.521173 0-0.833876v0.833876c-4.794788 4.273616-2.605863-1.771987-4.273615-2.29316s-3.127036 4.37785-6.045603 3.856678-1.980456 1.250814-1.771987 1.563518c2.710098 3.022801 0 4.065147-1.876221 5.420195-6.358306 3.648208-12.508143 7.609121-18.762215 11.361564a3.543974 3.543974 0 0 1-4.169381 0.312703z" fill="#2BB7AE" p-id="3270"></path><path d="M476.872964 120.18241c-5.315961 12.820847-10.423453 25.537459-16.990228 37.941369-3.23127-2.29316-5.628664 1.771987-6.462541 2.501628-6.67101 5.732899-15.322476 8.026059-22.097719 13.550489a6.879479 6.879479 0 0 1-1.250815 0.625407c0-2.188925-2.397394-3.127036-3.856677-1.980456a50.65798 50.65798 0 0 0-6.67101 6.566775c-0.521173 0.521173-0.625407 1.980456-1.042345 2.084691-8.234528 1.250814-12.403909 9.798046-20.325733 11.465798-4.065147 0.833876-6.254072 4.37785-10.423453 5.837133a124.247557 124.247557 0 0 0-11.674267 6.983714c-0.938111 0.521173-1.667752 2.29316-3.335505 1.250814 5.941368-13.446254 11.882736-26.996743 18.970684-39.921824 9.381107-6.566775 19.80456-11.674267 30.228013-17.407166 16.57329-9.798046 33.250814-19.179153 49.824104-28.76873 1.250814-0.938111 2.918567-3.543974 5.107492-0.729642z" fill="#2CB8AE" p-id="3271"></path><path d="M565.576547 170.110749a31.270358 31.270358 0 0 0-13.237785 6.358306c-19.80456 11.257329-39.400651 22.827362-58.996742 34.29316-0.938111 0.625407-2.188925 1.876221-3.43974 0s0-2.814332 0-4.169381c5.003257-10.423453 10.423453-21.472313 15.114007-32.208469 0.729642-1.563518 1.14658-3.648208 3.543974-3.543974 1.355049 1.771987 2.501629 0.625407 3.856677 0 20.846906-11.986971 41.693811-23.973941 62.540717-36.065147a11.153094 11.153094 0 0 1 6.566775-1.563518c1.250814 1.771987 0 3.543974 0 5.107492-4.794788 9.798046-8.964169 19.908795-13.654723 29.706841-0.729642 0.938111-1.14658 1.876221-2.29316 2.08469z" fill="#33BBAF" p-id="3272"></path><path d="M508.76873 171.04886c-5.107492 8.234528-8.338762 17.407166-12.820847 25.954397-2.29316 4.482085-4.169381 9.276873-6.149837 13.863193l-24.599349 51.283387c-0.521173 1.14658-2.501629 3.022801 0.625407 3.648209a7.713355 7.713355 0 0 1-4.899023 0.833876c7.713355-16.364821 15.42671-32.833876 21.889251-49.71987a196.169381 196.169381 0 0 0 10.423453-23.348534 71.921824 71.921824 0 0 0 6.149837-14.592834c4.482085-7.400651 7.087948-15.635179 10.423453-23.2443 1.250814-2.501629 2.397394-5.107492 3.543974-7.60912s1.250814-3.23127 3.543974-1.980456 0.833876 2.710098 0 4.169381a164.794788 164.794788 0 0 0-8.130293 20.742671z" fill="#5BC9BF" p-id="3273"></path><path d="M565.576547 170.110749c5.315961-12.299674 11.465798-24.286645 16.052117-36.899023s10.423453-22.931596 15.947883-34.501628c3.022801-6.566775 5.837134-13.237785 8.755701-19.908795a4.482085 4.482085 0 0 1 2.188925-2.501629c2.605863 1.771987 1.667752 3.648208 0.625407 5.941368-6.358306 14.384365-13.967427 28.143322-19.596091 42.840391a468.013029 468.013029 0 0 0-18.970684 40.026059l-11.986971 23.973941a0.729642 0.729642 0 0 1-1.14658 0z" fill="#76D1C9" p-id="3274"></path><path d="M394.587045 208.488971m-8.442454 0.095781a8.442997 8.442997 0 1 0 16.884907-0.191562 8.442997 8.442997 0 1 0-16.884907 0.191562Z" fill="#5CC9BF" p-id="3275"></path><path d="M587.361564 269.446254a390.358306 390.358306 0 0 0-71.609121-6.879479 3.752443 3.752443 0 0 1-1.876222-4.690554 190.749186 190.749186 0 0 0 22.723128-12.925081c18.449511-10.423453 36.690554-20.846906 55.03583-31.270358 3.335505-1.876221 6.462541-4.065147 9.90228-5.732899 1.667752-0.833876 3.23127-3.439739 5.628665-1.250815s0.625407 3.543974 0 5.211727c-6.045603 18.345277-12.19544 36.586319-18.241043 54.931596a4.690554 4.690554 0 0 1-1.563517 2.605863z" fill="#3DC0AF" p-id="3276"></path><path d="M587.361564 269.446254c4.169381-15.322476 10.423453-30.228013 14.697068-45.342019l5.628664-18.032574 5.52443-14.592834c2.710098 2.710098 2.188925 6.775244 4.377851 9.589577a62.540717 62.540717 0 0 1 5.732899 13.654723 3.648208 3.648208 0 0 1 0 2.188925c-3.960912 8.964169-8.338762 17.71987-10.423453 23.557003 1.771987-5.003257 6.149837-12.612378 9.485342-20.846905a1.042345 1.042345 0 0 1 1.563518-0.521173l4.065146 10.423453a8.964169 8.964169 0 0 1 2.710098 5.107492c3.543974 10.944625 7.504886 21.785016 11.361564 32.729642 1.355049 4.273616 2.814332 8.442997 4.169381 12.612377 0.625407 1.876221 1.459283 3.752443 0 5.628665a443.205212 443.205212 0 0 0-58.892508-16.156352z" fill="#056865" p-id="3277"></path><path d="M622.384365 216.912052v-1.876221a105.90228 105.90228 0 0 1 11.153094-24.912052c5.732899-10.423453 9.589577-21.368078 14.801303-32 1.771987-3.543974 3.127036-7.296417 4.794788-10.423453 0.521173-1.250814 0.938111-3.335505 3.022802-2.397394s0.833876 2.501629 0 3.752443l-15.322476 31.895765c-0.625407 1.355049-1.042345 2.710098-1.563518 4.169381-5.941368 10.423453-10.423453 21.993485-15.947882 33.042345-0.729642 0.104235-1.14658-0.208469-0.938111-1.250814z" fill="#7ED5CA" p-id="3278"></path><path d="M633.537459 190.123779a148.534202 148.534202 0 0 1-11.153094 24.912052 48.052117 48.052117 0 0 1-4.899023-13.967427c0-1.14658 0-2.397394 1.14658-3.022801a71.81759 71.81759 0 0 1 14.905537-7.921824z" fill="#3DC0AF" p-id="3279"></path><path d="M621.446254 137.172638a8.547231 8.547231 0 0 1 5.003257-5.107491 6.67101 6.67101 0 0 1 7.921825 4.37785 6.983713 6.983713 0 0 1-3.856678 8.547231 6.983713 6.983713 0 0 1-8.859935-4.899023 15.635179 15.635179 0 0 1-0.208469-2.918567z" fill="#83D7CB" p-id="3280"></path><path d="M513.667752 257.876221l1.876222 4.690554h-15.635179c1.667752-7.192182 7.192182-9.068404 13.758957-4.690554z" fill="#A6D4CF" p-id="3281"></path><path d="M557.446254 189.081433h1.14658a21.993485 21.993485 0 0 1-4.586319 8.755701 16.156352 16.156352 0 0 1 3.439739-8.755701z" fill="#66CDC3" p-id="3282"></path><path d="M407.035831 125.081433a216.18241 216.18241 0 0 0-27.309447 15.009772c-20.846906 11.570033-40.651466 23.452769-60.977198 35.022802-3.23127 1.876221-6.045603 5.107492-10.423453 4.794788-1.250814-1.459283 0-2.814332 0-4.169381 3.752443-9.068404 8.338762-17.71987 12.403909-26.684039 0.625407-1.355049 1.14658-3.23127 3.335505-3.022802 2.084691 6.983713 6.775244 1.459283 8.026058 0.625407 9.798046-6.775244 20.846906-11.153094 30.749186-18.032573 6.983713-4.899023 14.697068-8.7557 21.889251-13.237785 4.899023-3.022801 10.423453-5.837134 15.843648-8.651466s12.19544-7.296417 18.241042-10.423452h0.938111zM247.348534 217.120521l-5.315961-14.175896-8.338762 23.140066c-0.938111-1.459283-1.771987-0.625407-2.814332 0-6.566775 3.960912-13.237785 7.81759-19.908795 11.570032-1.250814 0.729642-2.501629 2.397394-4.37785 1.250814a260.586319 260.586319 0 0 1 12.925081-27.934853 64 64 0 0 0 13.654723-6.983713c5.003257-2.29316 9.068404-6.254072 14.280131-8.547232 1.563518-0.625407 2.188925-3.439739 3.439739-5.52443 0.729642 1.355049 1.14658 3.856678 3.43974 0.938111s5.732899-2.188925 7.504886-3.856677c5.837134-5.420195 15.739414-5.941368 18.65798-14.905538 0.938111 0 1.459283 0 2.084691 0.938111 3.752443 2.605863 5.107492 2.397394 8.026058-1.250814a5.003257 5.003257 0 0 1 1.667753-1.667753c2.605863-3.752443 7.087948-4.482085 10.423452-6.462541s7.087948-6.254072 12.091206-6.46254c0.833876 1.563518 0 2.918567-0.625408 4.273615A198.045603 198.045603 0 0 1 302.28013 186.579805c-16.885993 8.7557-33.042345 18.762215-49.5114 28.247557a11.674267 11.674267 0 0 1-5.420196 2.293159z" fill="#25B4AE" p-id="3283"></path><path d="M302.28013 186.058632l12.925082-28.977199c1.771987-4.065147 3.335505-8.130293 5.315961-12.091205 0.729642-1.563518 0.625407-4.586319 3.23127-3.856678s0 3.23127 0 5.003258a300.508143 300.508143 0 0 0-15.947883 33.876221c-5.420195 9.068404-9.172638 18.970684-13.863192 28.351792s-7.921824 16.677524-12.091205 25.433225c-0.938111-1.563518 0-2.188925 0-2.918567s0-3.127036 0.625407-4.586319c5.420195-12.19544 11.04886-24.286645 16.260586-36.58632a7.296417 7.296417 0 0 1 3.543974-3.648208z" fill="#4CC2BB" p-id="3284"></path><path d="M292.37785 170.110749c-0.625407 2.814332-1.563518 5.315961-4.794788 5.941368s-5.420195-1.459283-6.983713-4.065146c0.938111-1.771987 0-4.273616 2.293159-5.732899s6.775244-1.250814 9.485342 3.856677z" fill="#82D7CB" p-id="3285"></path><path d="M640.833876 267.882736a392.964169 392.964169 0 0 1-12.925081-37.941368 95.791531 95.791531 0 0 1 11.257329-4.794788c2.084691-0.625407 2.605863-2.605863 3.543974-3.543974 3.23127-3.23127 8.026059-0.521173 11.04886-3.960912 1.042345-1.250814 3.335505-1.980456 3.960912-3.752443s1.771987-2.188925 3.127036-2.710098c0.625407 1.876221-1.667752 1.459283-1.563518 2.918567a1.980456 1.980456 0 0 0 2.397394 0c2.605863-4.065147 8.338762-4.37785 10.423453-9.172639a7.504886 7.504886 0 0 1 6.045602-3.648208 11.570033 11.570033 0 0 0 11.361564-6.983713 2.084691 2.084691 0 0 1 1.563518-0.938111 18.032573 18.032573 0 0 0 12.299674-6.775244 33.980456 33.980456 0 0 1 11.257329-7.400652 62.540717 62.540717 0 0 0 10.423453-6.045603l-23.765473 53.785017-4.065146 8.964169c-8.338762 5.003257-16.990228 9.381107-25.224756 14.592834s-14.488599 7.713355-21.368078 12.19544a21.368078 21.368078 0 0 1-9.798046 5.211726z" fill="#41C2B0" p-id="3286"></path><path d="M622.384365 216.912052l1.14658 1.14658v0.833876l-12.925082 26.058632a187.62215 187.62215 0 0 1 11.778502-28.039088z" fill="#479892" p-id="3287"></path><path d="M708.169381 316.977199l-13.029316-7.400652c-1.250814-2.188925 0-4.169381 0-6.254071s1.771987-5.315961 2.710098-8.026059c1.876221-5.628664 1.771987-5.732899-4.065147-6.149837s-5.941368-1.250814-4.273615-6.566775c2.397394-7.609121 5.003257-15.114007 7.504886-22.723127s5.52443-16.469055 8.338762-24.703584c0.625407-1.876221 0.938111-3.856678 2.710098-5.107491l3.543974-8.859935c1.771987 0.833876 1.355049 2.710098 2.397394 3.752443a193.980456 193.980456 0 0 0 7.921824 23.03583c2.084691 7.81759 4.794788 15.42671 7.713355 23.035831a32.104235 32.104235 0 0 1 5.732899 14.384365c0.729642 2.501629-1.250814 3.439739-3.43974 3.752443a69.52443 69.52443 0 0 0-8.338762 0.625407c-2.188925 0-3.127036 2.084691-3.960912 3.960912l-7.921824 17.928339c-0.521173 1.980456-1.042345 4.37785-3.543974 5.315961z" fill="#056865" p-id="3288"></path><path d="M708.37785 230.045603a286.332248 286.332248 0 0 1-10.423453 29.915309c-9.381107 6.149837-19.179153 11.465798-28.872964 16.990228a8.234528 8.234528 0 0 1-3.335505 1.042345c-8.338762-1.563518-12.925081 3.439739-16.781759 9.693811l-3.856677-1.563517-4.273616-18.241043c3.543974-3.856678 8.7557-5.003257 12.716613-8.338762a66.710098 66.710098 0 0 1 12.612377-6.358306 63.061889 63.061889 0 0 0 6.983714-4.482085 143.42671 143.42671 0 0 0 17.302931-10.423453c1.667752-1.563518 4.794788-1.563518 7.192183-2.293159l-6.67101 15.009772c5.211726-5.52443 6.358306-13.13355 10.423453-19.074919 2.605863 0.625407 3.960912-3.752443 6.983713-1.876221z" fill="#45C3B0" p-id="3289"></path><path d="M760.18241 224a6.149837 6.149837 0 0 1-5.003257 3.022801 6.149837 6.149837 0 0 1 5.003257-3.022801zM753.198697 227.960912a6.149837 6.149837 0 0 1-5.003257 3.022801 6.149837 6.149837 0 0 1 5.003257-3.022801zM746.214984 231.921824a6.149837 6.149837 0 0 1-5.003258 3.022801 6.149837 6.149837 0 0 1 5.003258-3.022801zM734.644951 238.905537a6.149837 6.149837 0 0 1-5.003257 3.022802 6.149837 6.149837 0 0 1 5.003257-3.022802zM727.2443 242.86645a6.149837 6.149837 0 0 1-5.003258 3.022801 6.149837 6.149837 0 0 1 5.003258-3.022801z" fill="#48C5B0" p-id="3290"></path><path d="M723.283388 288.729642a20.846906 20.846906 0 0 1 9.172638-0.729642c2.188925 0 2.918567-0.729642 2.084691-3.022801-1.667752-4.690554-3.022801-9.381107-4.58632-14.071662a81.615635 81.615635 0 0 0 16.57329-9.068403c6.775244-3.648208 13.446254-7.609121 20.117264-11.465798l21.576547-12.612378 16.469056-9.172639a2.188925 2.188925 0 0 1 2.293159 0c1.042345 0.521173 1.563518 2.605863 3.231271 1.355049s0-2.710098 0-4.37785l2.501628 1.459283c-4.794788 11.04886-9.589577 22.09772-14.488599 33.14658-3.127036 6.983713-6.254072 13.863192-9.381107 20.846906-4.586319 0-5.941368 4.899023-9.798046 6.671009a207.322476 207.322476 0 0 0-21.576547 11.986971 55.035831 55.035831 0 0 0-8.026059 3.856678 53.055375 53.055375 0 0 1-14.28013 7.192182c-1.459283 0.625407-2.188925 2.814332-3.127036 4.273616-2.397394 0-2.501629-2.29316-3.022801-3.856678-1.980456-5.837134-4.065147-11.674267-5.837134-17.615635a6.879479 6.879479 0 0 1 0.104235-4.794788z" fill="#4BC7B0" p-id="3291"></path><path d="M728.390879 254.123779a5.52443 5.52443 0 0 1 3.231271-3.43974c10.423453-5.941368 21.889251-12.091205 32.521172-18.345277 7.81759-4.690554 15.947883-9.068404 23.557004-14.175896a244.325733 244.325733 0 0 1 26.162866-14.488599 21.472313 21.472313 0 0 0 5.315961-3.335505c0.729642-0.625407 1.459283-1.563518 2.605863-0.833876s0 1.771987 0 2.710098a8.130293 8.130293 0 0 1-6.149837 6.46254 108.612378 108.612378 0 0 0-13.13355 7.81759c-10.423453 5.107492-20.846906 11.361564-30.749186 17.198697a146.762215 146.762215 0 0 1-20.846906 12.19544c-5.211726 1.980456-8.547231 6.462541-13.550488 8.547231a38.045603 38.045603 0 0 1-7.504886 1.771987c-0.938111 0.312704-1.459283-0.833876-1.459284-2.08469z" fill="#48C5B0" p-id="3292"></path><path d="M857.850163 318.644951h-2.814332c1.355049-5.52443 5.107492-10.423453 5.941368-15.843648a83.387622 83.387622 0 0 0 7.60912-15.843648c1.14658-2.397394 2.084691-2.918567 4.273616-2.188925s0 2.501629 0 3.648208z" fill="#83D7CB" p-id="3293"></path><path d="M476.872964 120.18241c-4.794788 0-7.921824 3.543974-11.674267 5.628665-24.078176 13.654723-47.947883 27.62215-71.81759 41.693811h-1.250814c7.400651-16.052117 14.488599-32.208469 22.827362-47.843648 3.335505 0 5.420195-3.022801 8.338762-4.169381s0.833876-1.459283 0.521173-2.710098c-0.729642-3.648208-1.459283-6.983713 4.169381-8.442997a12.612378 12.612378 0 0 0 9.172638-6.775244 40.859935 40.859935 0 0 0 4.586319-1.355049 60.76873 60.76873 0 0 0 16.364821-10.423453c1.355049-1.459283 4.690554-1.250814 7.087948-2.814332 5.003257-3.335505 10.423453-5.837134 15.739414-8.7557 0.833876 0 1.563518-1.459283 2.605863-0.521173a1.771987 1.771987 0 0 1 0.625407 2.188925c0 0.833876-1.14658 1.876221-2.29316 1.250814-2.814332-1.563518-2.29316 1.250814-3.127035 2.29316a1.14658 1.14658 0 0 0 0.625407 1.876222c1.355049 0 3.127036 0.833876 3.543974-1.771987 0-0.729642 1.459283-2.084691 2.08469-1.980456 5.837134 0.833876 8.964169-4.482085 13.863193-5.732899z" fill="#28B6AE" p-id="3294"></path><path d="M761.120521 570.371336a162.501629 162.501629 0 0 1 6.045603 48.677524 144.052117 144.052117 0 0 1-20.846906 68.273616 208.469055 208.469055 0 0 1-83.387622 76.612377l-2.29316 0.938111c-0.729642-2.501629 1.355049-3.127036 2.814333-3.960912s5.52443-3.648208 8.442996-5.211726a13.446254 13.446254 0 0 0 7.296417-12.508144 298.006515 298.006515 0 0 0-5.315961-76.091205c-2.710098-12.508143-5.52443-24.912052-9.068403-37.107492-0.625407-2.188925-2.084691-4.794788 0.833876-6.671009s7.81759 0 11.674267-1.771987a457.90228 457.90228 0 0 0-79.947883 0c2.29316 2.397394 5.52443 0.938111 7.81759 2.293159s1.459283 2.918567 1.355049 4.482085c0 12.612378-1.042345 25.224756-1.667753 37.732899-0.938111 19.074919-1.771987 38.045603-2.814332 57.120521-0.833876 16.885993-1.459283 33.771987-2.605863 50.657981a59.62215 59.62215 0 0 0 0 15.322475 353.563518 353.563518 0 0 1-49.198697 8.651466 336.781759 336.781759 0 0 1-117.055375-8.7557 253.394137 253.394137 0 0 1-127.061889-72.96417c-2.814332-3.022801-5.420195-6.254072-8.130293-9.381107a162.29316 162.29316 0 0 1-28.872965-60.456026 143.009772 143.009772 0 0 1 2.29316-75.674267 206.592834 206.592834 0 0 1 73.589577-103.192183 269.863192 269.863192 0 0 1 132.273615-55.661238 277.263844 277.263844 0 0 1 118.09772 8.651466 266.423453 266.423453 0 0 1 107.986971 60.872964 198.67101 198.67101 0 0 1 57.224756 88.286645 3.23127 3.23127 0 0 0 0.521172 0.833877z" fill="#F9E7DA" p-id="3295"></path><path d="M666.371336 276.846906c8.338762-3.543974 15.843648-8.859935 23.765472-13.133551 2.605863-1.355049 4.586319-4.482085 8.234528-3.752443-2.501629 7.81759-4.794788 15.739414-7.504886 23.557003-1.14658 3.23127-1.250814 4.690554 3.022801 4.58632 8.547231 0 8.547231-1.042345 5.628664 7.817589-1.563518 4.482085-2.814332 9.068404-4.273615 13.654723l-23.869707-12.612378a19.387622 19.387622 0 0 0-5.003257-20.117263z" fill="#48C5B0" p-id="3296"></path><path d="M724.221498 292.690554l7.921824 22.09772c0 3.856678 4.794788 8.026059 1.563518 10.423452s-7.609121 0.625407-11.465798 0.729642l-11.04886-7.400651a2.188925 2.188925 0 0 1 0-1.876222c3.543974-7.400651 6.67101-15.114007 10.423453-22.410423 0.625407-0.729642 1.250814-1.876221 2.605863-1.563518z" fill="#056865" p-id="3297"></path><path d="M666.371336 276.846906c8.130293 6.358306 8.651466 8.442997 4.899022 20.013029l-21.785016-9.172639c3.127036-9.485342 5.420195-10.944625 16.885994-10.84039z" fill="#6ECFC5" p-id="3298"></path><path d="M724.221498 292.690554c-5.420195 8.130293-8.130293 17.615635-13.029316 26.058632a4.169381 4.169381 0 0 1-3.022801-1.771987c3.752443-8.234528 7.504886-16.469055 11.153095-24.703583 0.833876-1.876221 1.250814-3.856678 3.960912-3.543974a6.879479 6.879479 0 0 1 0.93811 3.960912z" fill="#4D9D98" p-id="3299"></path><path d="M398.175896 282.579805a118.514658 118.514658 0 0 0 7.400651-15.426711c0.729642-1.563518 0.625407-5.003257 3.960912-3.335504s0.625407 3.335505 0 5.003257c-1.355049 3.648208-4.273616 6.879479-3.543974 11.153094a28.143322 28.143322 0 0 1-7.817589 2.605864z" fill="#5BC8BE" p-id="3300"></path><path d="M664.390879 624.052117c4.37785 15.218241 8.338762 30.540717 11.361564 46.071662a285.185668 285.185668 0 0 1 4.794788 66.605863c2.29316 13.34202-6.045603 19.491857-16.260586 24.390879-1.459283 0.729642-3.23127 1.14658-3.648209 3.022801a290.397394 290.397394 0 0 1-60.872964 23.765473c-3.022801-0.625407-2.084691-3.022801-2.08469-4.794788q1.14658-27.413681 2.501628-54.931597c0.833876-16.781759 1.459283-33.667752 2.501629-50.449511s1.14658-36.273616 3.022801-54.306189c1.771987-1.980456 4.169381-1.771987 6.462541-1.771987h45.863192c2.188925 0.729642 4.586319 0.416938 6.358306 2.397394z" fill="#FEFEFE" p-id="3301"></path><path d="M199.609121 250.892508c0 1.250814 0 2.605863-1.459284 3.543974a3.335505 3.335505 0 0 1 1.459284-3.543974z" fill="#4CC2BB" p-id="3302"></path><path d="M302.28013 186.058632l-19.908794 44.925081-21.889251 12.925082a7.296417 7.296417 0 0 0-3.022802 3.127036 280.807818 280.807818 0 0 1-10.423452-29.811075c10.423453-7.192182 20.846906-12.508143 31.895765-18.970684 5.941368-3.648208 11.986971-6.879479 18.032573-10.423453a8.651466 8.651466 0 0 1 5.315961-1.771987z" fill="#28B6AE" p-id="3303"></path><path d="M232.547231 302.28013a1.876221 1.876221 0 0 1 1.771987 0 80.885993 80.885993 0 0 1-8.026058 15.009772c0.416938-5.628664 4.899023-9.90228 6.254071-15.009772z" fill="#A7D4D0" p-id="3304"></path><path d="M301.34202 249.016287c-1.250814-1.667752-1.042345-2.710098 0-4.690554z" fill="#2FB9AE" p-id="3305"></path><path d="M434.032573 686.801303c-1.250814 2.918567 0 5.837134 0 8.7557s0.833876 3.543974 0 5.211727c1.250814 1.876221 0 4.169381 0.938111 6.045602-1.667752 4.273616 1.563518 8.651466 0 12.925082 1.250814 2.918567 0 6.149837 0.938111 8.964169v11.361564c1.250814 2.918567 0 6.149837 0.938111 8.964169-1.667752 4.273616 1.563518 8.651466 0 12.925081 1.250814 2.188925 0 4.794788 0.93811 6.983714a40.026059 40.026059 0 0 0 1.042346 12.820847c0 3.648208 0 5.003257-4.273616 3.752443a306.970684 306.970684 0 0 1-68.37785-29.289903 98.918567 98.918567 0 0 1-8.547232-6.045602c-4.065147-3.23127-2.397394-7.81759-2.605863-11.882736-1.14658-1.563518 0-3.543974-0.93811-5.003258v-23.973941c1.250814-1.876221 0-4.169381 0.93811-6.045603a70.358306 70.358306 0 0 1 1.355049-19.908794 418.188925 418.188925 0 0 1 10.423453-50.657981 39.087948 39.087948 0 0 0 3.127036-11.986971c1.771987-1.980456 4.169381-1.771987 6.46254-1.771987h46.801303c2.29316 0 4.690554 0 6.462541 1.771987q1.355049 17.71987 2.605863 35.335505s0 0.938111-0.521172 1.355049c1.250814 2.188925 0 4.794788 0.93811 6.983713-1.355049 4.273616 1.14658 8.651466 0 12.925082 1.667752 3.335505-0.312704 6.566775 1.355049 9.485342z" fill="#F9F3EF" p-id="3306"></path><path d="M703.374593 693.263844a20.846906 20.846906 0 0 1-12.925082-4.377851 7.609121 7.609121 0 0 1 0.729642-12.612377 24.912052 24.912052 0 0 1 25.850163 0 7.609121 7.609121 0 0 1-1.042345 13.654723 23.452769 23.452769 0 0 1-12.612378 3.335505zM328.130293 672.833876a18.86645 18.86645 0 0 1 11.465798 2.710098c6.566775 3.752443 7.087948 8.964169 1.355049 13.863192a23.348534 23.348534 0 0 1-26.267101-0.625407 7.192182 7.192182 0 0 1 1.355049-12.925081 18.86645 18.86645 0 0 1 12.091205-3.022802z" fill="#F090AF" p-id="3307"></path><path d="M664.390879 624.052117h-66.188925c-2.397394 0-3.335505-0.729642-3.335504-3.127036s1.250814-2.918567 3.439739-2.918566h77.654723c2.397394 0 3.648208 0 3.648209 3.23127s-1.667752 2.814332-3.648209 2.814332z" fill="#2C1919" p-id="3308"></path><path d="M430.071661 621.13355h-71.296417c-1.876221 0-2.710098-0.625407-2.710097-2.605863s0-3.335505 2.710097-3.23127h77.550489c1.563518 0 3.648208-0.729642 4.273616 1.459283s0.938111 4.482085-2.605864 4.37785z" fill="#2E1C1C" p-id="3309"></path><path d="M434.032573 686.801303c-1.980456-2.814332-0.521173-6.045603-0.93811-8.964169 1.876221 2.814332 0.521173 5.941368 0.93811 8.964169zM436.013029 728.703583c-1.980456-2.814332-0.521173-6.045603-0.93811-8.964169 1.876221 2.814332 0.521173 5.941368 0.93811 8.964169zM437.055375 748.612378c-1.980456-2.814332-0.521173-6.045603-0.938111-8.96417 1.876221 2.814332 0.521173 6.045603 0.938111 8.96417z" fill="#FAF2ED" p-id="3310"></path><path d="M432.990228 664.807818c-1.876221-2.084691-0.625407-4.690554-0.938111-6.983714 1.876221 2.188925 0.312704 4.690554 0.938111 6.983714zM437.993485 768.625407c-1.876221-2.084691-0.625407-4.690554-0.93811-6.983713 1.876221 2.084691 0.625407 4.586319 0.93811 6.983713z" fill="#FAF3EE" p-id="3311"></path><path d="M355.23127 703.687296c0 1.980456 0.833876 4.273616-0.93811 6.045603 0.208469-1.980456-0.833876-4.273616 0.93811-6.045603z" fill="#FAF2ED" p-id="3312"></path><path d="M434.970684 706.710098c-1.771987-1.771987-0.729642-3.960912-0.938111-6.045603 1.771987 1.876221 0.625407 4.065147 0.938111 6.045603z" fill="#FAF3EE" p-id="3313"></path><path d="M354.188925 733.70684c1.667752 1.459283 0.729642 3.335505 0.938111 5.003258-1.563518-1.459283-0.729642-3.335505-0.938111-5.003258z" fill="#F9F3EF" p-id="3314"></path></svg>