<?xml version="1.0" standalone="no"?><!DOCTYPE svg PUBLIC "-//W3C//DTD SVG 1.1//EN" "http://www.w3.org/Graphics/SVG/1.1/DTD/svg11.dtd"><svg t="1550212701336" class="icon" style="" viewBox="0 0 1025 1024" version="1.1" xmlns="http://www.w3.org/2000/svg" p-id="2532" xmlns:xlink="http://www.w3.org/1999/xlink" width="200.1953125" height="200"><defs><style type="text/css">@font-face { font-family: "Roboto Condensed"; src: url("chrome-extension://lienonopcegannlgdkgonpofbhgmclcc/RobotoCondensed-Regular.ttf"); }
</style></defs><path d="M1.022875 511.437419Q1.022875 258.685046 0.920587 5.523524C0.920587 1.738887 1.738887 0.920587 5.523524 0.920587h1013.873539c3.784637 0 4.602937 0.8183 4.602937 4.602937v1013.873539c0 3.784637-0.8183 4.602937-4.602937 4.602937H5.523524c-3.784637 0-4.602937-0.8183-4.602937-4.602937Q1.022875 765.621816 1.022875 511.437419z" fill="#FEFEFE" p-id="2533"></path><path d="M868.216162 241.500749a446.484867 446.484867 0 0 1 53.394067 90.626711 429.607432 429.607432 0 0 1 24.753571 72.828688 475.023075 475.023075 0 0 1 10.228748 55.030667 430.221157 430.221157 0 0 1 2.557187 73.442413 439.83618 439.83618 0 0 1-19.741484 111.902507 446.689442 446.689442 0 0 1-27.822196 68.532614 430.630307 430.630307 0 0 1-56.667266 85.614624l-8.387573 10.228749c-2.761762 0-3.068625-2.148037-3.375487-4.0915a36.209769 36.209769 0 0 1 0-5.932674V675.097393v-7.978424a36.925782 36.925782 0 0 1 4.398362-12.479073 193.016482 193.016482 0 0 0 18.207172-90.319848 27.822196 27.822196 0 0 0-0.511438-9.103586 34.16402 34.16402 0 0 1 0-6.648687 14.21796 14.21796 0 0 0-0.613725-5.625811 166.217161 166.217161 0 0 0-4.296074-25.878734A276.176206 276.176206 0 0 0 844.894616 470.522425a21.480372 21.480372 0 0 1-2.04575-7.671561c-0.511437-68.941764 0-137.781241 0-206.723005a29.66337 29.66337 0 0 0-1.841174-12.17221c0-2.4549 2.352612-2.659475 4.091499-2.761762a143.202477 143.202477 0 0 1 23.116971 0.306862z" fill="#C9E9FE" p-id="2534"></path><path d="M383.884927 940.226551a430.528019 430.528019 0 0 1-85.205474-35.186895c-1.943462-1.125162-1.022875-2.86405-0.8183-4.398361a47.768255 47.768255 0 0 1 10.228748-24.651284 170.001798 170.001798 0 0 1 58.917591-49.404855c10.228748-5.625812 21.787234-10.228748 32.322845-16.468285 5.318949-3.580062 10.944761-6.750974 16.365997-10.228748a22.094096 22.094096 0 0 0 10.228748-13.195085c5.523524-11.047048 10.228748-22.298671 16.059135-33.243433A156.49985 156.49985 0 0 1 460.293677 724.39996a23.321546 23.321546 0 0 1 9.308161-7.160124 20.457497 20.457497 0 0 1 29.765658 18.71861 49.60943 49.60943 0 0 1-1.329738 16.775147 35.698332 35.698332 0 0 0-1.534312 12.785936 208.257317 208.257317 0 0 0 6.853262 32.322844 63.622815 63.622815 0 0 1 2.250324 21.991809c0 2.148037 0.8183 3.068625 2.761762 3.2732a151.487763 151.487763 0 0 0 16.877435 0c2.352612 0 2.04575-2.148037 1.943462-3.784637a80.704825 80.704825 0 0 1 1.841175-20.457497 172.35441 172.35441 0 0 0 7.466986-34.880032 49.711717 49.711717 0 0 0-2.045749-14.21796 39.073819 39.073819 0 0 1 0-17.286585A19.843772 19.843772 0 0 1 548.874638 716.012386a22.503246 22.503246 0 0 1 23.219259 7.978424 148.623714 148.623714 0 0 1 18.309459 29.049645c5.523524 11.558486 11.558486 22.912396 16.365998 34.880032a22.605534 22.605534 0 0 0 10.228748 11.967636c6.137249 4.091499 12.683648 7.569274 18.820897 11.763061 11.967636 6.444111 24.446709 11.865348 36.312057 18.616322a163.659974 163.659974 0 0 1 43.676755 34.880032 75.283588 75.283588 0 0 1 18.411747 28.947358c0.716012 2.4549 1.841175 5.114374-0.613724 7.262411a481.364899 481.364899 0 0 1-69.248627 31.606832 97.377685 97.377685 0 0 1-20.457497 6.546399 28.640495 28.640495 0 0 1-13.604235-6.444111 138.497253 138.497253 0 0 1-35.084607-30.686245c-8.489861-10.228748-15.44541-20.457497-23.935271-30.686245a87.660374 87.660374 0 0 0-25.878734-20.457497 28.333633 28.333633 0 0 1-14.320247-15.138548 8.694436 8.694436 0 0 0-7.364699-5.830386c-5.114374-0.8183-10.228748-2.04575-15.240835-2.4549a3.477774 3.477774 0 0 0-4.296075 2.966337 31.504545 31.504545 0 0 1-17.388872 21.173509 72.419539 72.419539 0 0 0-28.02677 24.958146c-7.160124 10.228748-16.979722 19.127759-24.548996 29.458796a109.549895 109.549895 0 0 1-41.835581 33.038857 11.558486 11.558486 0 0 1-8.489861 0.8183z" fill="#E94949" p-id="2535"></path><path d="M64.850265 502.947558v-9.001299a34.470882 34.470882 0 0 0 0-12.99051 6.955549 6.955549 0 0 0 1.022875-3.989212 13.092798 13.092798 0 0 0 0-7.978424l1.022874-2.966337c1.329737-2.148037 0-4.807512 1.022875-6.955549s-0.920587-5.523524 0.920588-7.978424a66.896014 66.896014 0 0 1 14.729397 0.716013l17.286585 0.920587c9.103586 1.329737 18.411747 0.920587 27.617621 1.841175a12.172211 12.172211 0 0 1 7.160123 1.432025 12.376786 12.376786 0 0 1 1.841175 9.001298v276.483069a33.959445 33.959445 0 0 1 0 6.955549c-0.716012 3.375487-2.148037 4.091499-4.296074 0.920587a100.037159 100.037159 0 0 1-11.967636-19.230047A437.278993 437.278993 0 0 1 78.761363 625.385676a397.693737 397.693737 0 0 1-8.899012-45.620218c-1.125162-1.534312 0-3.477774-1.022874-5.012087V572.809909c-1.22745-1.841175 0-4.091499-1.022875-5.932674v-2.04575c-1.329737-2.148037 0-4.807512-1.022875-6.955549v-2.045749c-1.329737-2.86405 0-6.034962-1.022875-9.001299v-2.966337c-1.329737-4.602937 0-9.410449-1.022875-13.911098v-9.001298a69.044052 69.044052 0 0 1 0.102288-18.002597z" fill="#F0F9FE" p-id="2536"></path><path d="M383.884927 940.226551a44.69963 44.69963 0 0 0 17.695734-7.569274A143.202477 143.202477 0 0 0 437.483568 900.129857c10.228748-11.763061 18.820897-25.162721 30.174808-36.312057a72.624113 72.624113 0 0 1 19.639197-14.21796 28.538208 28.538208 0 0 0 15.547697-20.457497c0.716012-2.659475 1.329737-3.784637 4.500649-3.580062a162.637099 162.637099 0 0 1 19.53691 3.2732 4.398362 4.398362 0 0 1 3.886924 2.761762 32.52742 32.52742 0 0 0 18.820897 19.843772 92.058735 92.058735 0 0 1 32.220558 30.686245c4.500649 6.341824 10.228748 11.967636 14.013385 18.616322a52.984917 52.984917 0 0 1 4.705224 19.843772 238.22755 238.22755 0 0 1 1.943462 25.265008 6.648686 6.648686 0 0 1-0.818299 3.886925l-22.912397 4.296074a1.125162 1.125162 0 0 1-1.329737 0c-10.228748-18.002597-27.413046-29.970233-41.835581-44.188193-3.580062-3.477774-7.160124-6.955549-10.228748-10.228748s-3.886924-2.250325-6.239537 0c-9.308161 8.080711-18.30946 16.365997-27.310758 24.651283-5.216662 4.807512-10.228748 9.410449-15.752273 14.422536a86.944361 86.944361 0 0 0-12.17221 16.877434 2.659475 2.659475 0 0 1-2.557187 0.920588 430.323444 430.323444 0 0 1-77.431625-16.26371z" fill="#FA665A" p-id="2537"></path><path d="M132.973729 749.460394c1.534312 0.920587 3.375487 2.4549 3.068624-1.22745v-2.4549-282.824892a11.660773 11.660773 0 0 0-1.022874-6.750974 6.239537 6.239537 0 0 1 5.625811-1.329738c17.798022 1.534312 35.596044 0.613725 53.291779 0.920588a18.820897 18.820897 0 0 1 7.364699 0.716012c2.04575 1.432025 1.125162 3.273199 0 4.909799a295.406253 295.406253 0 0 0-19.536909 54.723804 131.030267 131.030267 0 0 0-4.193787 24.344421 32.015982 32.015982 0 0 1-1.432025 5.216662 36.516632 36.516632 0 0 0 0 5.421237 20.457497 20.457497 0 0 1 0 4.091499 40.198981 40.198981 0 0 0-0.511437 10.228748c-0.8183 8.489861 0.613725 16.979722-1.022875 25.367296s0 13.911098 0 20.457497v176.445909a23.014684 23.014684 0 0 1 0 6.444112c-1.22745 4.091499-3.784637 4.705224-7.160124 1.738887A115.482569 115.482569 0 0 1 151.180901 777.384877 209.996204 209.996204 0 0 1 132.973729 749.460394z" fill="#EEF8FE" p-id="2538"></path><path d="M793.341724 164.785136a145.555089 145.555089 0 0 1 19.230047 16.775148c0 2.557187-0.920587 3.682349-3.068624 4.296074a16.161422 16.161422 0 0 1-4.50065 0H577.617421c-3.477774 0-7.262411 0-8.285286-4.398362a29.970233 29.970233 0 0 0-2.04575-3.886924 8.182999 8.182999 0 0 0-13.706523 0 29.66337 29.66337 0 0 0-2.557187 4.193787 6.341824 6.341824 0 0 1-6.546399 4.398361h-326.297073a38.050944 38.050944 0 0 1-5.932674 0c-1.534312 0-3.477774 0-3.68235-2.454899a184.935771 184.935771 0 0 1 19.843772-17.08201 31.811407 31.811407 0 0 1 12.785936-1.432025h539.668764a116.096294 116.096294 0 0 0 12.479073-0.40915z" fill="#65C2FE" p-id="2539"></path><path d="M309.317351 876.092298a50.01858 50.01858 0 0 0-10.228748 28.947358 96.76396 96.76396 0 0 1-21.275797-11.558485 420.299271 420.299271 0 0 1-46.949955-33.243433 16.161422 16.161422 0 0 1-0.613725-5.421236V737.288183c0-5.625812 1.534312-11.149336 1.125162-16.775147 1.943462-2.966337 3.273199-0.511437 4.602937 0.716012a363.938867 363.938867 0 0 0 47.97283 38.766956c7.160124 4.807512 14.62711 9.205874 22.196384 13.297373 1.738887 0.920587 3.682349 1.6366 4.193787 3.886925a56.360404 56.360404 0 0 0-2.4549 22.503246v30.686245c0 10.228748-1.22745 18.002597 0 26.901608a56.053541 56.053541 0 0 0 1.432025 18.820897z" fill="#E8F5FE" p-id="2540"></path><path d="M180.639696 211.632804a159.261612 159.261612 0 0 1 14.729398-15.343123 78.147638 78.147638 0 0 1 10.944761 0h531.894915a19.843772 19.843772 0 0 1 12.581361 1.943463c1.432025 1.22745 1.534312 2.761762 0 3.682349a26.492458 26.492458 0 0 0-9.205874 12.58136 7.466986 7.466986 0 0 1-5.523524 1.943463H192.402757a75.590451 75.590451 0 0 1-8.489861 0c-2.659475-0.8183-3.886924-1.6366-3.2732-4.807512z" fill="#72C6FE" p-id="2541"></path><path d="M275.357906 132.973729a217.565478 217.565478 0 0 1 29.049646-16.67286H405.365298a5.625812 5.625812 0 0 1 3.784637 1.943462 10.228748 10.228748 0 0 0 15.138548 0 5.830387 5.830387 0 0 1 4.296074-2.148037h285.38208c-0.613725-1.22745-2.4549-2.352612 0-3.580062a221.861552 221.861552 0 0 1 28.947358 16.059135c1.329737 1.841175 4.705224 2.86405 3.886924 5.318949s-4.296074 1.943462-6.750974 1.943462H287.325542a50.530017 50.530017 0 0 1-7.978424 0c-1.943462 0-3.989212-0.40915-3.989212-2.864049z" fill="#52BDFE" p-id="2542"></path><path d="M166.626311 796.308061c4.091499 2.04575 5.830387 1.22745 5.932674-3.170912s0-6.648686 0-10.228748V601.041255a19.536909 19.536909 0 0 0-0.613725-7.876137 2.659475 2.659475 0 0 1 1.6366-3.682349 14.524823 14.524823 0 0 1 2.250325 7.978424 212.246529 212.246529 0 0 0 24.446708 74.874438 84.489462 84.489462 0 0 1 8.899011 16.059135c0.511437 1.22745 0.613725 2.761762 1.432025 3.682349a29.356508 29.356508 0 0 1 4.398362 20.457497v122.74498c0 2.86405 1.329737 6.444111-2.557187 8.182999a16.570572 16.570572 0 0 1-5.216662-3.682349c-13.501948-13.297373-26.901608-26.799321-39.176106-40.914994a4.705224 4.705224 0 0 1-1.432025-2.557187z" fill="#EDF7FE" p-id="2543"></path><path d="M180.639696 211.632804c0 1.841175 0.8183 3.580062 3.477775 2.966337a8.285286 8.285286 0 0 1 1.943462 0h548.567775c2.4549 0 5.114374 0.613725 6.750974-2.04575a21.480372 21.480372 0 0 1 2.86405 13.195086 15.240835 15.240835 0 0 1-9.205874 1.329737H382.350614a10.228748 10.228748 0 0 0-11.047048 2.761762 4.193787 4.193787 0 0 1-4.296074 0.8183 43.983618 43.983618 0 0 0-10.228749-0.613725h-177.980221a45.211068 45.211068 0 0 1-6.955549 0c-1.943462 0-4.091499-0.613725-4.0915-3.375487z" fill="#78C8FD" p-id="2544"></path><path d="M733.196684 900.948157A31.811407 31.811407 0 0 0 726.241135 879.67236c-3.375487-5.216662-7.569274-10.228748-11.353911-14.831685a11.763061 11.763061 0 0 1-1.6366-7.160124v-67.100589a16.059135 16.059135 0 0 1 0.8183-6.341824 39.073819 39.073819 0 0 1 14.933973-9.410448 423.16332 423.16332 0 0 0 36.312057-22.707822c2.04575-1.432025 4.193787-3.886924 6.955548-0.920587a15.85456 15.85456 0 0 1 1.943463 9.103586v107.504145a13.092798 13.092798 0 0 1-1.6366 7.160124 267.277195 267.277195 0 0 1-34.470882 23.116971z" fill="#D0ECFE" p-id="2545"></path><path d="M100.753172 454.05414a203.552093 203.552093 0 0 1-29.867946-2.045749 8.080711 8.080711 0 0 1-2.148037-1.022875 290.189591 290.189591 0 0 1 7.057836-39.892119 442.29108 442.29108 0 0 1 33.34572-94.615922c0.716012-1.432025 1.6366-2.86405 2.557187-4.193787a6.648686 6.648686 0 0 1 4.398362 0c10.228748 3.170912 21.582659 6.034962 32.322845 9.001299a8.080711 8.080711 0 0 1 3.477774 1.738887c1.738887 3.170912 0 6.137249-0.613725 9.103586-3.989212 14.320248-8.796724 28.538208-12.069923 43.06303 4.705224 3.580062 2.4549 7.262411 0 11.047049-11.967636 21.684947-24.037559 43.267606-36.005194 64.952552a7.364699 7.364699 0 0 1-2.454899 2.864049z" fill="#CEE9FE" p-id="2546"></path><path d="M764.394366 143.202477l11.047048 7.876137a5.318949 5.318949 0 0 0 3.170912 2.659474c0.920587 0.8183 1.534312 1.943462 2.966337 1.943462l1.841175 1.329738c0 2.250325-2.352612 2.148037-3.886924 2.352612a47.768255 47.768255 0 0 1-6.444112 0H252.956947a41.631006 41.631006 0 0 1-7.466986 0c-1.943462 0-3.580062-0.920587-3.273199-3.477775a113.948257 113.948257 0 0 1 16.263709-11.76306h496.503447a27.822196 27.822196 0 0 0 9.410448-0.920588z" fill="#5DC0FE" p-id="2547"></path><path d="M844.178604 665.584657v137.474378c0 2.250325-0.8183 4.807512 1.943462 6.137249a347.777445 347.777445 0 0 1-45.824793 43.983618 5.523524 5.523524 0 0 1-1.125162-4.602937c1.22745-37.948656 0-75.9996 0-113.948257a17.184297 17.184297 0 0 0-1.22745-6.341824c-1.329737-2.86405 0-4.705224 2.250325-6.444111A233.420038 233.420038 0 0 0 838.757367 672.233343c1.738887-2.148037 1.432025-6.341824 5.421237-6.648686z" fill="#CCEAFE" p-id="2548"></path><path d="M751.506143 199.562881a16.059135 16.059135 0 0 0-9.512736-2.04575H202.01778c-2.148037 0-4.705224 1.022875-6.546399-1.22745a38.766956 38.766956 0 0 1 7.057837-6.853261 83.364299 83.364299 0 0 0 10.944761 0.511437h340.208171c11.456198 1.841175 11.865348 1.6366 15.44541-9.103586a2.148037 2.148037 0 0 1 0.920587-1.125162c0.613725 4.091499 2.761762 5.114374 6.955549 5.114374h228.919389c2.761762 0 5.625812 0 6.648686-3.170912 6.137249 3.375487 9.410449 10.228748 14.729398 14.21796 0.920587 2.4549-1.022875 2.761762-2.557187 3.170912a24.139846 24.139846 0 0 1-5.932674 0h-47.256818a23.219259 23.219259 0 0 0-10.228748 1.432025 13.297373 13.297373 0 0 1-9.819599-0.920587z" fill="#6BC4FE" p-id="2549"></path><path d="M764.394366 143.202477c-0.511437 1.534312-0.716012 3.273199-3.068624 2.761762a11.251623 11.251623 0 0 0-2.4549 0H265.947458c-2.4549 0-5.421237 1.22745-7.160124-1.943462A110.98192 110.98192 0 0 1 275.357906 132.973729c1.534312 2.966337 4.296074 2.04575 6.648687 2.04575H745.675757c0-2.659475-3.273199-3.375487-3.170912-5.7281A184.117471 184.117471 0 0 1 764.394366 143.202477z" fill="#59BFFE" p-id="2550"></path><path d="M380.304865 226.464489a11.558486 11.558486 0 0 1 6.750974-0.920587h351.255219c2.04575 0 4.398362 0.8183 6.137249-1.022875s2.4549 0.511437 3.580062 1.22745a14.115673 14.115673 0 0 0 20.457497-5.523524c0.8183-1.738887 1.22745-3.886924 3.682349-4.296075h58.713016a21.378084 21.378084 0 0 0 13.195085-2.557187 107.29957 107.29957 0 0 1 15.138548 17.388872c0 3.068625-2.250325 3.784637-4.705225 4.193787a38.562381 38.562381 0 0 1-6.444111 0h-94.30906a20.457497 20.457497 0 0 0-10.228748 1.943462 20.457497 20.457497 0 0 1-10.228749 1.022875H400.557786a53.394067 53.394067 0 0 1-7.466986 0 18.820897 18.820897 0 0 1-12.785935-11.456198z" fill="#79C8FD" p-id="2551"></path><path d="M391.04505 236.59095H736.469883c3.068625 0 6.239537 0.716012 8.592149-2.4549 1.022875-1.22745 3.170912-0.511437 4.807512-0.511437h102.287483c2.761762 0 5.421237 0 6.853262-2.86405a102.287484 102.287484 0 0 1 9.001298 10.842474c-2.86405 2.04575-6.034962 0.613725-9.001298 0.920587a76.511038 76.511038 0 0 0-17.90031 0.920587 4.500649 4.500649 0 0 1-3.068624 1.432025 284.97293 284.97293 0 0 0-37.232645 5.728099 9.615023 9.615023 0 0 1-3.477774 0 30.686245 30.686245 0 0 0-12.785936-1.432025H413.548297a73.953851 73.953851 0 0 1-9.410449 0 21.071222 21.071222 0 0 1-13.092798-12.58136z" fill="#7FC9FD" p-id="2552"></path><path d="M242.216762 155.476975c1.022875 0.920587 1.22745 2.761762 3.273199 2.148037a11.763061 11.763061 0 0 1 2.966337 0H777.384877c2.04575 0 4.296074 0.716012 6.239536-0.818299a61.986215 61.986215 0 0 1 10.228749 7.876136c0 1.432025-1.125162 1.943462-2.4549 1.943462H236.897812c-2.86405 0-5.728099 1.22745-8.489861 0a79.068225 79.068225 0 0 1 13.808811-11.149336z" fill="#61C1FE" p-id="2553"></path><path d="M332.229747 102.287484a227.794226 227.794226 0 0 1 29.049646-11.660773c20.457497-1.022875 40.096694 0 60.14504-0.613725H655.867346c2.352612 0 4.398362 1.841175 6.750974 0.716012a253.26381 253.26381 0 0 1 29.970233 11.967636c0 2.761762-2.352612 2.966337-4.296075 3.273199a54.110079 54.110079 0 0 1-7.466986 0H440.756768a135.530916 135.530916 0 0 0-13.911098 0.511438c-0.613725 0 0 0 0 0a18.207172 18.207172 0 0 0-19.53691 0c-21.582659-1.125162-43.165318 0-64.747977-0.511438a34.368595 34.368595 0 0 1-5.932674 0c-2.4549-0.204575-4.602937-0.613725-4.398362-3.682349z" fill="#47BBFE" p-id="2554"></path><path d="M462.953152 954.955948a52.575767 52.575767 0 0 1 13.39966-18.923184c14.62711-12.888223 28.538208-25.674158 42.756168-38.766956 1.329737-1.22745 2.352612-2.86405 4.398362-0.8183 16.161422 15.956847 33.652582 30.686245 48.688842 47.665967a31.197683 31.197683 0 0 1 5.830387 10.228749c-1.534312 1.22745-3.580062 0-5.216662 1.022874a2.04575 2.04575 0 0 1-2.04575 1.022875 7.876136 7.876136 0 0 0-5.932674 0 2.04575 2.04575 0 0 1-2.045749 1.022875 10.228748 10.228748 0 0 0-6.955549 0c-0.716012 1.22745-1.943462 1.022875-3.068625 1.022875a17.593447 17.593447 0 0 0-8.899011 0c-1.022875 1.534312-2.659475 0.920587-4.091499 1.022875a66.486864 66.486864 0 0 0-17.90031 0h-1.022875a121.006093 121.006093 0 0 1-17.491159 0 54.007791 54.007791 0 0 0-19.332335 0c-1.432025 0-2.966337 0.511437-4.091499-0.920588a17.286585 17.286585 0 0 0-8.899011 0c-1.125162 0-2.352612 0-3.068625-1.022874s-4.296074 0.716012-5.012086-2.557188z" fill="#F1F1F1" p-id="2555"></path><path d="M662.516032 91.035861a22.298671 22.298671 0 0 1-10.228748 0.716012C639.399061 92.058735 626.306263 92.058735 613.724903 92.058735c-7.466986 0-14.933973-0.716012-22.298672 0-11.967636 0.716012-23.832984-0.920587-35.800619 0H535.986415c-10.740186 0-21.582659-0.8183-32.425132 0-6.444111 0.613725-13.195085 0-19.94606 0H376.41794a40.914994 40.914994 0 0 1-15.138547-0.613725 277.301368 277.301368 0 0 1 39.892118-12.069923 4.705224 4.705224 0 0 0 3.375487 0 132.257717 132.257717 0 0 1 39.789831-3.273199 161.000499 161.000499 0 0 1 17.593448 0.716012 145.043652 145.043652 0 0 0 22.400959 0h23.423833c5.216662 0 10.228748-1.534312 15.649985 1.6366a21.173509 21.173509 0 0 1 13.297373-1.738887c9.615023 0 19.127759 0 28.742783 0.511437 4.398362 0 9.001299-1.22745 13.604236-1.22745a118.551194 118.551194 0 0 1 32.322844 2.148038 4.602937 4.602937 0 0 0 3.375487 0 249.070023 249.070023 0 0 1 45.415643 13.604235 10.944761 10.944761 0 0 0 2.352612-0.716012z" fill="#44B9FE" p-id="2556"></path><path d="M797.842373 726.241135c3.068625 1.022875 2.966337 3.784637 2.966337 6.137249v112.516232c0 2.86405-1.534312 5.421237-1.022874 8.285286a162.841674 162.841674 0 0 1-23.730697 19.332335c-1.329737 1.022875-2.761762 1.738887-4.193786 2.659474V760.405154a22.400959 22.400959 0 0 0-2.04575-10.228748c0-1.6366 0.8183-2.352612 1.841175-3.170912 7.773849-6.137249 15.343123-12.479073 22.605533-19.332334 1.534312-0.716012 2.4549-1.432025 3.580062-1.432025z" fill="#CEEBFE" p-id="2557"></path><path d="M425.106783 105.765258a59.940465 59.940465 0 0 1 14.831685-1.022875H685.326141c2.352612 0 5.114374 1.022875 6.750974-1.738887a168.672061 168.672061 0 0 1 20.968934 10.228749c0 3.784637 3.784637 2.250325 4.705225 4.500649a56.053541 56.053541 0 0 1-14.831686 0H433.187494c-2.04575 0-4.398362 0.920587-6.137249-1.125163a23.219259 23.219259 0 0 1-1.943462-10.842473z" fill="#4EBCFE" p-id="2558"></path><path d="M167.649186 226.566777c1.534312 2.966337 4.398362 1.943462 6.648686 1.943462h188.515833c2.250325 0 4.705224-0.613725 6.239536 1.943462A30.07252 30.07252 0 0 1 353.505544 245.489961c-11.251623-1.022875-22.605534 0-33.857157 0h-55.848966a63.725102 63.725102 0 0 0-11.865348 0.920587c-4.398362-1.22745-3.273199-5.421237-4.50065-8.285286a15.547698 15.547698 0 0 1-2.864049 10.228749 26.594746 26.594746 0 0 1-23.935272 1.841174c-1.534312-1.738887-0.716012-3.784637-0.613724-5.728099a10.228748 10.228748 0 1 0-20.457497 0c0 2.250325 1.22745 4.602937-0.716013 6.648687a6.648686 6.648686 0 0 1-3.784636 1.125162h-38.357807c-2.352612 0-5.114374 0-5.625811-3.580062a175.832185 175.832185 0 0 1 16.570572-22.094096z" fill="#7EC9FD" p-id="2559"></path><path d="M212.553391 844.280891c1.6366-1.432025 1.022875-3.375487 1.022875-5.114374V703.840176a10.228748 10.228748 0 0 0-2.352612-7.262412 16.775147 16.775147 0 0 1-3.580062-9.103586c3.886924 0.8183 4.398362 4.705224 6.546399 7.057837a194.346219 194.346219 0 0 0 14.115673 17.695734c1.943462 2.148037 4.398362 3.989212 4.500649 7.364699 0.511437 9.205874-1.022875 18.30946-1.022875 27.515333v106.276696a11.967636 11.967636 0 0 1-1.022875 6.750974 109.243033 109.243033 0 0 1-18.207172-15.85456z" fill="#EBF6FE" p-id="2560"></path><path d="M554.0913 190.561582a12.069923 12.069923 0 0 1-6.239537 1.125163H207.74588c-1.841175 0-4.602937 1.22745-5.216662-2.148038a28.538208 28.538208 0 0 1 6.034961-5.932674c1.432025 1.6366 3.375487 1.022875 5.114375 1.022875h330.183997c4.398362 0 5.523524-2.148037 6.750974-5.114374a48.688842 48.688842 0 0 1 3.477775 11.047048z" fill="#6BC4FE" p-id="2561"></path><path d="M122.744981 292.337629a97.58226 97.58226 0 0 1 12.069923-20.457497 219.91809 219.91809 0 0 1 26.79932 0h68.634902c2.966337 0 6.137249 0 7.262411 3.580062a120.596943 120.596943 0 0 1-4.398361 18.104884 4.193787 4.193787 0 0 1-3.580062 3.580062 63.82739 63.82739 0 0 0-13.911098-1.125162H132.973729c-3.886924-0.102287-8.080711 0.613725-10.228748-3.682349z" fill="#8FCEFD" p-id="2562"></path><path d="M122.744981 292.337629a15.956847 15.956847 0 0 0 9.001298 2.045749h87.455799a19.434622 19.434622 0 0 1 11.456198 2.04575 28.947358 28.947358 0 0 1-4.091499 17.695735 19.127759 19.127759 0 0 0-15.240836-1.125163c-1.6366 0-4.193787-2.250325-5.932674-1.841174-7.364699 1.841175-14.831685-0.613725-21.889521 0.511437s-11.047048 0-16.468285 1.432025c-1.841175 0-3.477774 2.04575-5.523524 1.432025s-2.352612-4.909799-3.68235-7.978424c-0.716012 1.738887-1.022875 3.375487-2.352612 4.398362a47.052243 47.052243 0 0 1-20.457496 0.920587 21.275797 21.275797 0 0 0-12.069924 1.432025c-2.04575 0.716012-1.534312-1.943462-3.375486-2.04575s-4.705224 1.022875-6.648687-0.8183a81.829987 81.829987 0 0 1 9.819599-18.104884z" fill="#95D0FD" p-id="2563"></path><path d="M614.64549 76.920188a3.068625 3.068625 0 0 1-3.068625 1.22745A117.016881 117.016881 0 0 0 583.038657 76.306463c-2.966337 0-7.364699-2.659475-10.228748 1.738887-2.86405-3.273199-6.444111 0.8183-10.228748-1.125162s-6.341824 0-9.615024 0c-7.466986-0.613725-14.933973 0-22.400959 0-2.659475 0-5.523524 0-7.160124 2.454899l-0.716012 0.511438c-4.193787-5.830387-10.228748-1.841175-15.138548-2.4549a171.12696 171.12696 0 0 0-17.798022-0.511437 95.94566 95.94566 0 0 1-18.411747 0c-1.125162 0-1.125162 0.920587-1.6366 1.534312a3.068625 3.068625 0 0 1-3.989211 0.8183c-5.421237-4.500649-11.967636-2.250325-17.695735-2.4549a73.953851 73.953851 0 0 0-15.03626 0 106.890421 106.890421 0 0 0-29.867945 3.886925c-1.22745 0.613725-1.841175 0-2.352613-1.22745a340.617321 340.617321 0 0 1 50.120867-10.228748 436.869843 436.869843 0 0 1 75.488163-3.886925 464.180601 464.180601 0 0 1 80.295675 10.228749c2.966337-0.102287 5.216662 1.6366 7.978424 1.329737z" fill="#3DB8FE" p-id="2564"></path><path d="M844.383179 213.473979c0 3.068625-2.352612 4.091499-5.421237 4.091499h-63.213665a8.182999 8.182999 0 0 1-4.296074-1.022875 3.170912 3.170912 0 0 1-1.22745-2.557187 14.115673 14.115673 0 0 0-6.750974-11.353911c-1.022875-0.716012-2.4549-1.22745-2.148037-2.966337a10.228748 10.228748 0 0 1 6.853261-2.045749h54.212366c1.738887 0 4.193787 1.125162 4.9098-1.841175a104.333233 104.333233 0 0 1 17.08201 17.695735z" fill="#72C6FE" p-id="2565"></path><path d="M151.590051 247.331136a6.137249 6.137249 0 0 0 5.318949 2.148037h39.176106c1.329737 0 2.659475 0 3.580062-1.125162s2.148037 0.613725 2.966337 1.329737a9.308161 9.308161 0 0 0 13.706523 0.511437c1.22745-0.8183 2.148037-2.148037 3.886925-1.841174a33.038857 33.038857 0 0 0 24.139846-1.943463 24.037559 24.037559 0 0 1-6.034962 18.616322h-89.808411c-2.659475 0-6.341824 0.920587-6.955548-3.580061a72.930976 72.930976 0 0 1 10.024173-14.115673z" fill="#83CBFD" p-id="2566"></path><path d="M332.229747 102.287484c1.22745 2.86405 3.784637 2.148037 6.034962 2.148037h55.132954a60.042753 60.042753 0 0 1 14.729397 1.022875 23.116971 23.116971 0 0 1-1.943462 10.842473 12.479073 12.479073 0 0 1-6.648686 1.125162h-89.296974c-2.04575 0-4.398362 0.613725-5.728099-1.738887A221.55469 221.55469 0 0 1 332.229747 102.287484z" fill="#4EBCFE" p-id="2567"></path><path d="M141.668165 261.344521c1.329737 2.761762 3.886924 2.04575 6.137249 2.04575h85.410049a10.944761 10.944761 0 0 1 6.239537 1.022875 8.592149 8.592149 0 0 1-2.966338 10.228748 7.876136 7.876136 0 0 0-5.421236-1.432025h-94.820498c-0.511437 0-1.022875-0.613725-1.534312-0.920587a37.948656 37.948656 0 0 1 6.955549-10.944761z" fill="#88CCFD" p-id="2568"></path><path d="M601.757267 949.841574a314.738588 314.738588 0 0 0-5.932674-48.791129c4.091499 2.4549 6.137249 6.750974 9.410448 10.228748a149.339726 149.339726 0 0 0 38.562382 27.924483 244.773949 244.773949 0 0 1-42.040156 10.637898z" fill="#F14E4E" p-id="2569"></path><path d="M112.516232 310.340226c3.068625 0.716012 6.955549-2.761762 9.205874 1.943462 0.716012-1.841175 1.943462-2.04575 3.886924-1.943462h13.501948c3.477774 4.091499 7.262411 0.613725 10.740186 0 1.6366 0 2.966337 2.04575 4.500649 0a11.967636 11.967636 0 0 1-3.068625 12.99051c-13.39966-3.273199-26.697033-6.955549-39.994406-11.047048z" fill="#9AD1FD" p-id="2570"></path><path d="M502.947558 958.94516h18.002597a38.869244 38.869244 0 0 1-18.923185 0s0.511437-0.306862 0.920588 0z" fill="#E7F3FE" p-id="2571"></path><path d="M502.947558 958.94516h-18.820897a37.539507 37.539507 0 0 1 18.820897 0z" fill="#EBD3D1" p-id="2572"></path><path d="M521.666167 958.94516a33.652582 33.652582 0 0 1 17.90031 0z" fill="#EBD3D0" p-id="2573"></path><path d="M64.850265 502.947558v17.900309a33.34572 33.34572 0 0 1 0-17.900309z" fill="#E7F3FE" p-id="2574"></path><path d="M64.850265 529.951453a40.914994 40.914994 0 0 1 1.022875 13.911098 40.914994 40.914994 0 0 1-1.022875-13.911098z" fill="#E5F3FE" p-id="2575"></path><path d="M64.850265 480.751174a17.90031 17.90031 0 0 1 0 12.99051z" fill="#E6F3FE" p-id="2576"></path><path d="M471.13615 957.922285a9.001299 9.001299 0 0 1 8.899011 0z" fill="#E9D3D2" p-id="2577"></path><path d="M65.87314 546.828888c1.943462 2.761762 0.511437 6.034962 1.022874 9.001299-2.04575-2.761762-0.613725-5.932674-1.022874-9.001299z" fill="#E5F3FE" p-id="2578"></path><path d="M543.862551 958.024573a9.103586 9.103586 0 0 1 8.899011 0z" fill="#EAD2D0" p-id="2579"></path><path d="M462.953152 954.955948c1.125162 1.943462 3.784637 0 5.012086 2.04575-2.352612 0-4.807512 0.8183-7.057836-0.8183z" fill="#E9CECC" p-id="2580"></path><path d="M65.87314 468.988113a7.466986 7.466986 0 0 1 0 7.978424zM66.896014 557.875936c1.943462 2.148037 0.613725 4.602937 1.022875 6.955549-1.943462-2.250325-0.716012-4.705224-1.022875-6.955549zM67.816602 459.066227c0 2.352612 0.920587 4.909799-1.022875 6.955549 0.40915-2.352612-0.8183-4.909799 1.022875-6.955549z" fill="#E6F3FE" p-id="2581"></path><path d="M555.830187 957.001698a5.728099 5.728099 0 0 1 6.955549 0z" fill="#E7D2D1" p-id="2582"></path><path d="M781.476376 155.476975c-2.966337 2.352612-2.148037-1.125162-2.966337-1.943462a3.682349 3.682349 0 0 1 2.966337 1.943462zM778.510039 153.431226c-2.148037 0-3.273199 0-3.170912-2.659475a5.523524 5.523524 0 0 1 3.170912 2.659475z" fill="#61C1FE" p-id="2583"></path><path d="M564.831485 955.978823a4.500649 4.500649 0 0 1 5.932674 0z" fill="#E9D3D2" p-id="2584"></path><path d="M572.809909 954.955948c1.432025-1.6366 3.477774-0.716012 5.216662-1.022874a1.125162 1.125162 0 0 1 0.8183 0c-1.841175 1.841175-3.989212 0.8183-6.034962 1.022874z" fill="#E7D2D3" p-id="2585"></path><path d="M67.918889 566.877235c1.841175 1.738887 0.613725 3.989212 1.022875 5.932674-1.943462-1.738887-0.716012-3.989212-1.022875-5.932674z" fill="#E6F3FE" p-id="2586"></path><path d="M68.839477 574.855659c1.6366 1.432025 0.716012 3.273199 1.022874 5.012086-1.6366-1.432025-0.716012-3.375487-1.022874-5.012086z" fill="#E4F2FE" p-id="2587"></path><path d="M797.842373 726.241135l-27.924483 23.832983a422.651883 422.651883 0 0 1-54.826091 33.141145 72.112676 72.112676 0 0 1-19.946059 10.228749 390.022176 390.022176 0 0 1-53.905504 17.695734 32.322845 32.322845 0 0 1-6.853262 1.022875c-7.364699-4.909799-15.240835-9.001299-22.400959-14.320248a29.867945 29.867945 0 0 1-6.750974-9.512736c1.022875-1.329737 2.557187-1.329737 3.989212-1.738887a259.912496 259.912496 0 0 0 98.502847-51.143742A165.091999 165.091999 0 0 0 767.156128 640.626511a139.41784 139.41784 0 0 0-1.738887-60.758766 34.368595 34.368595 0 0 1-1.6366-9.308161 15.85456 15.85456 0 0 1 3.068625-7.262411 238.329837 238.329837 0 0 0 29.970233-90.524423 257.457597 257.457597 0 0 0 0-61.37249 92.058735 92.058735 0 0 0-6.239537-20.457497c-0.716012-2.04575-2.352612-4.193787 0-6.444112 4.807512 0 6.034962 3.989212 8.592149 6.546399a312.692838 312.692838 0 0 1 42.858455 66.28229 39.278394 39.278394 0 0 1 2.148038 6.648686A336.321247 336.321247 0 0 1 859.214864 510.312257l1.329737 5.216661a13.604235 13.604235 0 0 1-2.86405 5.216662 147.293977 147.293977 0 0 0-28.640495 86.126061 180.230546 180.230546 0 0 0 9.205873 59.326741 16.161422 16.161422 0 0 1 1.022875 6.341824 268.913795 268.913795 0 0 1-33.550294 45.92708c-2.04575 2.761762-4.807512 5.318949-7.876137 7.773849z" fill="#F55954" p-id="2588"></path><path d="M844.076316 464.487464a340.105884 340.105884 0 0 0-31.606832-53.803217c-4.602937-6.239537-9.410449-12.376786-14.115673-18.514034a8.796724 8.796724 0 0 1-0.8183-4.398362v-136.042353c0-0.716012 0 0 0 0a3.273199 3.273199 0 0 1 0.613725-1.841175 230.760563 230.760563 0 0 1 42.756168-6.137249 7.057836 7.057836 0 0 1 3.068625 5.728099v214.803716s0.102287 0 0.102287 0.204575z" fill="#CCEAFE" p-id="2589"></path><path d="M839.677954 672.437918a170.30866 170.30866 0 0 1-10.228748-80.807112A146.884827 146.884827 0 0 1 855.941664 521.666167c1.534312-2.148037 3.375487-3.989212 5.114374-6.034961a110.470482 110.470482 0 0 1 4.193787 27.310758c1.125162 1.534312 0 3.477774 0.920588 5.012087v6.955548c1.22745 2.86405 0 6.137249 0.920587 9.001299a186.16322 186.16322 0 0 1-12.888223 78.04535c-3.068625 7.978424-6.648686 15.85456-10.228748 23.730696-2.4549 1.432025-2.557187 4.602937-4.296075 6.750974z" fill="#F5F5F5" p-id="2590"></path><path d="M874.148836 366.700629a8.899011 8.899011 0 0 1 9.512736-9.512736 10.228748 10.228748 0 0 1 10.228749 9.512736 10.944761 10.944761 0 0 1-10.228749 10.228749c-5.523524-0.40915-10.535611-5.318949-9.512736-10.228749z" fill="#FEFEFE" p-id="2591"></path><path d="M867.193287 563.808611c-1.943462-2.86405-0.511437-6.034962-0.920587-9.001299 1.943462 2.86405 0.511437 6.034962 0.920587 9.001299z" fill="#F1E5E7" p-id="2592"></path><path d="M866.170413 547.851763c-1.6366-1.432025-0.716012-3.273199-0.920588-5.012087 1.6366 1.432025 0.716012 3.273199 0.920588 5.012087z" fill="#F0DFDE" p-id="2593"></path><path d="M765.314954 571.173309c1.943462 10.228748 4.500649 20.457497 5.523524 30.686245A139.82699 139.82699 0 0 1 756.92738 676.733993a197.414844 197.414844 0 0 1-81.829987 83.773449A276.176206 276.176206 0 0 1 612.497453 787.613625a15.547698 15.547698 0 0 1-6.853262 1.125162c-3.989212-10.228748-8.899011-20.457497-13.80881-30.07252-0.8183-1.6366-1.329737-3.273199-2.04575-5.012087 1.329737-2.148037 3.682349-2.659475 5.728099-3.784636A77.22705 77.22705 0 0 0 621.907901 726.241135a18.207172 18.207172 0 0 0 2.86405-5.830387 61.37249 61.37249 0 0 0 5.421236-33.038857 6.341824 6.341824 0 0 0-6.137249-6.853261q-33.959445-5.216662-68.225751-7.773849a568.513835 568.513835 0 0 0-61.37249-1.738887 416.003196 416.003196 0 0 0-86.432924 10.228748c-7.466986 1.841175-8.285286 2.761762-8.489861 10.228748a61.986215 61.986215 0 0 0 11.149335 35.084607l1.329738 2.04575a63.315952 63.315952 0 0 0 26.185595 22.094096c1.738887 0.920587 3.886924 1.125162 4.50065 3.477775l-15.85456 32.425132c-1.841175 1.22745-3.580062 0-5.216662 0a268.70922 268.70922 0 0 1-88.990111-46.949955 195.164519 195.164519 0 0 1-31.29997-32.015982 157.420438 157.420438 0 0 1-29.765658-61.372491 146.066527 146.066527 0 0 1 5.216662-83.466586 215.928878 215.928878 0 0 1 79.579662-101.776047 273.925882 273.925882 0 0 1 121.722106-49.404854 298.474878 298.474878 0 0 1 31.197683-2.4549 272.596144 272.596144 0 0 1 82.341424 8.694436A269.834382 269.834382 0 0 1 701.692139 475.6368a211.735091 211.735091 0 0 1 61.37249 84.489461 42.142443 42.142443 0 0 1 2.250325 11.047048z" fill="#F9E7DA" p-id="2594"></path><path d="M302.46409 707.522525a228.817101 228.817101 0 0 0 73.442413 59.019878 283.438618 283.438618 0 0 0 51.143742 20.457497c-1.22745 8.899011-8.489861 12.479073-14.933973 16.67286-3.989212 2.659475-8.080711 5.012087-12.17221 7.466986a224.316452 224.316452 0 0 1-42.960744-12.17221 438.19958 438.19958 0 0 1-42.65388-18.002597c-1.943462-0.920587-3.989212-1.6366-4.807512-3.989212a342.663071 342.663071 0 0 1-47.359105-30.686245c-8.592149-7.057836-16.877435-14.422535-25.162721-21.684947a43.472181 43.472181 0 0 1-4.091499-4.807512c-5.932674-7.262411-11.763061-14.524823-17.798023-21.684946a8.080711 8.080711 0 0 1-1.534312-2.86405c0-2.659475 2.352612-1.738887 3.580062-1.329737a391.147338 391.147338 0 0 0 70.578364 11.353911c4.807512 0.511437 10.228748-1.329737 14.729398 2.250324z" fill="#F55954" p-id="2595"></path><path d="M625.487963 722.35421a68.839477 68.839477 0 0 1-35.596044 30.686245c-4.602937-7.466986-9.001299-15.03626-13.80881-22.298671a30.686245 30.686245 0 0 0-12.479073-12.479073 19.639197 19.639197 0 0 0-28.845071 18.514035 71.601239 71.601239 0 0 0 2.4549 20.150634 26.083308 26.083308 0 0 1 0 7.876136 17.388872 17.388872 0 0 1-12.888223 1.841175 85.921486 85.921486 0 0 0-22.707822 0 8.387574 8.387574 0 0 1-6.955548-0.8183 36.414344 36.414344 0 0 1 1.534312-13.706523 37.846369 37.846369 0 0 0 0-21.582659 17.593447 17.593447 0 0 0-14.320248-13.604235 22.094096 22.094096 0 0 0-21.173509 8.387573 181.151134 181.151134 0 0 0-18.30946 29.458796 77.124763 77.124763 0 0 1-29.151933-20.457497 5.421237 5.421237 0 0 1-1.738887-2.966337 56.053541 56.053541 0 0 1 20.457497-18.616322 93.08161 93.08161 0 0 1 71.601239-9.001299 51.143742 51.143742 0 0 0 25.878733 0 112.516232 112.516232 0 0 1 67.202877 2.250325 102.287484 102.287484 0 0 1 24.242133 12.58136 15.547698 15.547698 0 0 1 4.602937 3.784637z" fill="#FC7485" p-id="2596"></path><path d="M309.521926 777.384877a419.378683 419.378683 0 0 0 85.921486 32.425132c1.534312 0 3.273199 0 4.50065 1.738887-16.26371 9.001299-33.550295 15.956847-49.097993 26.185596a176.957347 176.957347 0 0 0-41.528718 38.766956c-2.4549-3.682349-5.216662-7.262411-1.841175-12.069923 0-0.716012-1.6366-2.966337-1.534312-4.296074 0.8183-7.773849 0.511437-15.752273 1.022875-23.526121v-14.933973a298.065728 298.065728 0 0 1 0-32.425132c-0.102287-4.602937-0.920587-8.899011 2.557187-11.865348z" fill="#E5F4FE" p-id="2597"></path><path d="M634.796124 812.264909a93.08161 93.08161 0 0 1 17.388873-5.216662 403.217261 403.217261 0 0 0 61.37249-22.810109 18.923184 18.923184 0 0 1 2.352612-0.8183 9.410449 9.410449 0 0 0-1.022875 5.318949v76.408751c-22.094096-24.958146-51.246029-38.664669-80.0911-52.882629z" fill="#D2ECFE" p-id="2598"></path><path d="M524.837079 765.212666a91.44501 91.44501 0 0 0 12.785936-0.613725 131.950854 131.950854 0 0 1-7.773849 35.596045 6.137249 6.137249 0 0 1-4.500649 1.636599h-16.67286a8.899011 8.899011 0 0 1-6.546399-2.761762c-1.125162-7.671561-4.602937-14.831685-5.421237-22.605534 0-3.580062-1.022875-7.160124-1.534312-10.842473h6.853261a166.421736 166.421736 0 0 1 22.810109-0.40915z" fill="#F9E7DA" p-id="2599"></path><path d="M502.02697 798.967536a126.631905 126.631905 0 0 0 27.822196 1.22745 93.593048 93.593048 0 0 0-1.329737 21.991809c0 1.6366 0 2.761762-1.738888 2.557187-6.648686-0.716012-13.297373 0.613725-20.457496 0-2.659475 0-2.659475-1.22745-2.352612-3.580062a51.859754 51.859754 0 0 0-1.943463-22.196384z" fill="#F55954" p-id="2600"></path><path d="M100.753172 454.05414l35.596044-64.338827c1.022875-1.841175 2.04575-3.784637 2.966337-5.830386s4.296074-5.728099-1.943462-6.137249c-0.613725 0 0-1.125162 0-1.534313 9.615023-0.920587 19.127759 0 28.742783 0h5.012086c3.784637 0 4.500649-1.432025 3.580062-4.909799q-4.807512-17.184297-9.410448-34.470882c-0.8183-2.966337-2.659475-5.830387-1.125163-9.103586a4.705224 4.705224 0 0 1 4.0915-0.920587c15.03626 3.580062 30.174808 6.853261 45.211068 10.228748 2.352612 0 5.114374 0 6.444111 3.170912a73.033263 73.033263 0 0 1-4.091499 18.71861c-1.329737 6.239537-1.432025 6.444111 5.114374 6.444111h39.176106a25.162721 25.162721 0 0 1 6.853262 0c3.477774 2.04575 0.613725 3.682349-0.613725 5.012087-4.500649 4.807512-9.103586 9.615023-13.604236 14.524822a323.023874 323.023874 0 0 0-47.256817 67.612027c-0.920587 1.738887-1.22745 4.296074-3.886924 4.602937-22.298671 0-44.69963 0-66.998302-1.022875a333.457197 333.457197 0 0 1-33.857157-2.04575z" fill="#CBE8FE" p-id="2601"></path><path d="M201.710918 457.122765a379.486565 379.486565 0 0 1 31.504545-50.530017 440.347618 440.347618 0 0 1 35.391469-40.301269c1.125162-3.784637 4.398362-5.625812 7.160124-7.978423s2.761762-2.352612 4.0915-3.68235a86.023774 86.023774 0 0 1 7.160123-6.239536c8.285286-7.160124 17.08201-13.604235 25.878734-20.457497a354.528419 354.528419 0 0 1 30.686245-19.025472c3.989212-2.557187 8.285286-4.398362 12.376786-6.648686l2.557187-1.329738a350.436919 350.436919 0 0 1 72.828688-27.61762 379.179702 379.179702 0 0 1 58.099291-10.228749 193.425632 193.425632 0 0 0 23.730696-1.432025 57.792428 57.792428 0 0 1 14.422535 0 18.207172 18.207172 0 0 0 4.909799 0.716013 322.921586 322.921586 0 0 1 72.317252 9.205873 389.613026 389.613026 0 0 1 71.601238 25.162721 374.679053 374.679053 0 0 1 72.624114 45.108781 390.635901 390.635901 0 0 1 37.130356 34.266307c2.250325 2.4549 5.523524 4.398362 5.625812 8.387573-1.534312 0.920587-1.125162 2.148037-0.511438 3.477775 11.047048 23.526121 10.228748 48.484267 8.489862 73.442413a225.032464 225.032464 0 0 1-10.228749 54.826092A232.397163 232.397163 0 0 1 767.156128 566.570373a8.796724 8.796724 0 0 0-1.636599 4.602936 208.461892 208.461892 0 0 0-25.571871-51.143742 251.422635 251.422635 0 0 0-106.276696-85.410048 268.70922 268.70922 0 0 0-79.886525-21.787235 280.983718 280.983718 0 0 0-140.747578 18.820898A256.741584 256.741584 0 0 0 317.0912 498.856058 180.332834 180.332834 0 0 0 270.75497 593.267406a143.202477 143.202477 0 0 0 24.344421 103.719508l7.364699 10.228749c-16.365997-1.6366-32.834282-2.966337-49.20028-5.114374A204.574968 204.574968 0 0 1 217.87234 695.55489c-1.432025 0-2.86405-1.943462-4.500649 0l-5.728099-7.569274-8.182999-13.80881a11.353911 11.353911 0 0 1 1.22745-8.182999 171.12696 171.12696 0 0 0 10.228749-56.053541 149.339726 149.339726 0 0 0-14.013386-65.668565 132.973729 132.973729 0 0 0-14.21796-23.935271 6.955549 6.955549 0 0 1-1.943462-3.989212 252.547797 252.547797 0 0 1 19.127759-54.621516c0.8183-1.432025 1.329737-3.273199 1.841175-4.602937z" fill="#FA665A" p-id="2602"></path><path d="M180.844271 515.835781a110.879632 110.879632 0 0 1 21.684947 38.050944 163.659974 163.659974 0 0 1-2.557187 117.323743 18.104885 18.104885 0 0 0-0.511438 2.352613 198.028569 198.028569 0 0 1-20.457496-53.700929 184.117471 184.117471 0 0 1-5.114375-30.072521v-24.037558c1.329737-3.580062 0-7.364699 1.022875-10.944761v-4.091499a7.671561 7.671561 0 0 0 0-5.932674 38.357806 38.357806 0 0 0 2.761762-14.627111 71.601239 71.601239 0 0 1 3.170912-14.320247z" fill="#F5F5F5" p-id="2603"></path><path d="M167.342323 511.437419A13.195085 13.195085 0 0 1 153.431226 524.734792a14.21796 14.21796 0 0 1-13.706523-15.138548 14.524823 14.524823 0 0 1 14.524823-12.274498A14.320248 14.320248 0 0 1 167.342323 511.437419z" fill="#FEFEFE" p-id="2604"></path><path d="M174.604735 554.909599c0 3.580062 1.125162 7.466986-1.022875 10.944761 0.306862-3.273199-1.125162-7.466986 1.022875-10.944761z" fill="#F2E1DE" p-id="2605"></path><path d="M174.604735 544.885426a4.398362 4.398362 0 0 1 0 5.932674z" fill="#F5D8D1" p-id="2606"></path><path d="M554.0913 190.561582a12.785935 12.785935 0 0 1-3.477775-10.944761 10.228748 10.228748 0 0 1 19.332335 0c0 8.285286-1.943462 10.842473-8.592149 12.581361a7.978424 7.978424 0 0 1-7.262411-1.6366z" fill="#FEFEFE" p-id="2607"></path><path d="M235.874938 728.593747a7.773849 7.773849 0 0 1 5.421236 3.477774c-2.966337 0.613725-3.682349-1.022875-5.421236-3.477774z" fill="#EBF6FE" p-id="2608"></path><path d="M761.325742 199.665168a16.365997 16.365997 0 0 1 10.228748 16.877435 15.44541 15.44541 0 0 1-27.003896 7.978424 20.457497 20.457497 0 0 1-3.068624-11.967636 16.979722 16.979722 0 0 1 10.228748-12.888223z" fill="#ADDEFE" p-id="2609"></path><path d="M406.183598 116.607731a16.161422 16.161422 0 0 1 1.943462-10.842473 11.456198 11.456198 0 0 1 16.877435 0 16.161422 16.161422 0 0 1 1.943462 10.842473 11.660773 11.660773 0 0 1-20.764359 0z" fill="#9FD5FE" p-id="2610"></path><path d="M430.937169 275.051044A411.80941 411.80941 0 0 0 358.006193 302.361802a153.942663 153.942663 0 0 1-45.313355 1.738887c-4.296074 0-8.592149 0-12.888223-0.613725s-1.943462-2.557187-0.716012-4.091499 4.091499-4.296074 6.137249-6.341824c6.853261-6.648686 13.501948-13.39966 20.457496-20.457497s11.353911-11.251623 16.979723-16.979722a81.829987 81.829987 0 0 1 12.58136-11.456198 104.946958 104.946958 0 0 0 13.80881-14.013386 21.991809 21.991809 0 0 0 3.989212-3.477774c2.352612-3.273199 4.602937-3.273199 7.262412-0.511437a62.19079 62.19079 0 0 0 10.228748 10.228748l11.149336 10.944761A100.344022 100.344022 0 0 1 419.378683 262.776546a96.047947 96.047947 0 0 1 11.558486 12.274498z" fill="#F4FEFE" p-id="2611"></path><path d="M164.682849 327.319948c3.989212 14.933973 7.876136 29.867945 12.17221 44.801918 1.22745 4.091499 0 5.318949-3.784636 5.216662h-31.29997c-1.432025 0-3.068625 0-4.0915-1.022875 2.966337-14.831685 8.080711-29.151933 12.069923-43.676756a31.504545 31.504545 0 0 0 1.943462-9.103586 50.427729 50.427729 0 0 0 3.068625-12.99051c1.738887-1.738887 1.534312-4.296074 2.659475-6.750974 2.86405 3.170912 2.352612 7.569274 4.296074 10.740186A15.44541 15.44541 0 0 1 164.682849 327.319948z" fill="#A4BFEE" p-id="2612"></path><path d="M419.378683 263.492558l-17.286584-15.956847h388.692438a28.026771 28.026771 0 0 1 7.978424 2.148037v0.920587a4.807512 4.807512 0 0 1-2.966337 1.6366c-12.479073 3.170912-24.651284 7.671561-36.925782 11.660773a18.923184 18.923184 0 0 1-6.341824 1.125162q-94.30906 0.613725-188.515833 0c-11.865348 0-23.832984 0-35.800619-1.329737h-15.138547c-7.876136 1.125162-15.85456 0-23.730697 0.8183-20.457497 1.329737-40.914994 0.613725-61.37249 0.716012a15.138548 15.138548 0 0 1-8.592149-1.738887z" fill="#82CBFD" p-id="2613"></path><path d="M280.47228 355.244431l-11.865348 11.047048h-51.143742c-4.193787 0-5.114374-0.920587-3.784636-5.012086 2.352612-7.262411 3.989212-14.62711 5.932674-21.991809-2.250325-3.886924 0.716012-7.262411 1.022874-10.842474a51.143742 51.143742 0 0 1 4.398362-14.115672 128.984517 128.984517 0 0 0 5.523524-17.695735 198.846868 198.846868 0 0 0 6.034962-21.991809l2.966337-10.228748 5.012087-18.002598 2.864049-10.228748h0.920588l2.352612 9.103586c3.273199 2.4549 2.86405 6.444111 4.296074 10.228748 1.738887 5.932674 3.170912 11.967636 5.012087 17.90031 2.250325 7.671561 4.193787 15.44541 6.546399 23.219259 1.432025 5.523524 2.966337 10.944761 4.500649 16.468285s3.068625 10.944761 4.500649 16.365997A178.900809 178.900809 0 0 1 280.267706 347.777445c-0.40915 2.352612 2.04575 4.807512 0.204574 7.466986z" fill="#A4BFEE" p-id="2614"></path><path d="M253.468385 255.718709l-2.966337-10.228748a15.03626 15.03626 0 0 1 8.489861-2.04575h81.829987a59.735891 59.735891 0 0 1 14.729398 1.022875 97.479972 97.479972 0 0 1-11.967636 11.967636 16.775147 16.775147 0 0 1-5.421237 0.613725h-76.511038a11.353911 11.353911 0 0 1-8.182998-1.329738z" fill="#82CBFD" p-id="2615"></path><path d="M220.32724 248.456298a33.652582 33.652582 0 0 1-4.909799 4.193787c-6.137249 3.477774-9.410449 2.557187-15.752273-4.193787a12.069923 12.069923 0 0 1 3.477775-14.729398 11.660773 11.660773 0 0 1 13.39966 0c4.398362 2.659475 5.625812 7.160124 3.784637 14.729398z" fill="#FDFEFE" p-id="2616"></path><path d="M225.032464 314.329438a55.030666 55.030666 0 0 1-3.989212 14.013385 16.365997 16.365997 0 0 0-11.660773 2.4549c-1.329737 0.920587-1.738887 0-2.250324-0.716013a4.705224 4.705224 0 0 0-7.160124-0.8183c-2.250325 2.761762-4.500649 0-5.625812 0a30.686245 30.686245 0 0 0-16.468285-1.943462c-3.068625 0-6.239537-1.738887-9.205873 0h-3.989212l-2.966337-12.99051a13.80881 13.80881 0 0 1 13.80881-2.250325 5.728099 5.728099 0 0 0 3.989212-0.8183 11.865348 11.865348 0 0 1 11.251623-0.8183c4.091499 2.4549 6.546399 0 9.717311 0a13.092798 13.092798 0 0 1 9.615024 1.329738 4.500649 4.500649 0 0 0 4.807511 0c5.012087-4.909799 7.773849-1.125162 10.126461 2.557187z" fill="#9AD1FD" p-id="2617"></path><path d="M753.551893 263.492558c8.285286-1.841175 16.059135-5.216662 24.139846-7.671561a116.403157 116.403157 0 0 1 20.457497-5.421237c1.6366 1.432025 1.022875 3.375487 1.022875 5.114374v128.268505c0 2.86405-0.920587 5.523524-1.022875 8.285286l-6.750974-7.057836a317.0912 317.0912 0 0 0-39.892119-38.664669l-3.273199-2.966337A12.376786 12.376786 0 0 1 746.698632 337.548696v-68.123464a10.228748 10.228748 0 0 1 0-1.943462c1.022875-3.580062 4.602937-2.761762 6.853261-3.989212z" fill="#CFEBFE" p-id="2618"></path><path d="M625.487963 722.35421c-3.989212-2.557187-7.978424-5.216662-12.17221-7.569273a108.424733 108.424733 0 0 0-80.0911-10.944761 13.911098 13.911098 0 0 0-2.4549 0.613725c-11.251623 4.705224-21.889522 0.613725-32.93657-1.432025a87.660374 87.660374 0 0 0-72.828688 15.44541c-4.705224 3.682349-8.796724 8.080711-13.092798 12.069923A59.838178 59.838178 0 0 1 398.921187 686.144441c0-3.580062 1.943462-4.602937 5.012086-5.421237a404.444711 404.444711 0 0 1 76.306463-10.228748 668.244131 668.244131 0 0 1 122.744981 5.932674c7.569274 1.022875 15.03626 2.557187 22.707821 3.068625 4.602937 0 5.421237 2.86405 5.830387 6.341824a58.815303 58.815303 0 0 1-6.034962 36.516631z" fill="#D72E2E" p-id="2619"></path><path d="M376.315653 553.989012a38.766956 38.766956 0 0 1 46.131655 5.012087 39.073819 39.073819 0 1 1-64.441115 36.516631 37.948656 37.948656 0 0 1 5.728099-29.458795c0.716012-1.022875 1.22745-2.4549 2.966337-2.250324s1.125162 2.659475 1.22745 4.091499a10.944761 10.944761 0 0 0 9.615024 10.228748 11.456198 11.456198 0 0 0 11.149335-7.057836 11.251623 11.251623 0 0 0-5.216661-13.195086 15.752273 15.752273 0 0 0-2.250325-1.022874c-1.738887-1.125162-4.398362-0.204575-4.909799-2.86405zM674.585955 559.614824a31.504545 31.504545 0 0 1 8.694437 27.310758A38.255519 38.255519 0 0 1 654.639896 620.885026a38.971531 38.971531 0 1 1 7.671561-72.214963c1.022875 0.511437 2.148037 0.920587 2.352613 2.250325-1.432025 1.534312-3.375487 1.125162-5.114375 1.636599a10.944761 10.944761 0 0 0-8.080711 11.660773 10.228748 10.228748 0 0 0 10.228748 9.308161 10.228748 10.228748 0 0 0 11.149336-9.205873c0.511437-1.738887-0.716012-3.784637 1.738887-4.705224z" fill="#2C1919" p-id="2620"></path><path d="M332.638897 674.279093a18.411747 18.411747 0 0 1 13.706523 4.807512 6.955549 6.955549 0 0 1-0.613725 11.456198 24.651284 24.651284 0 0 1-26.697033 0c-5.318949-4.193787-4.398362-10.228748 2.148037-14.013385a24.753571 24.753571 0 0 1 11.456198-2.250325zM710.693437 674.38138a20.457497 20.457497 0 0 1 10.228749 2.86405 7.671561 7.671561 0 0 1 0.613724 13.80881 25.162721 25.162721 0 0 1-25.469583 0 7.671561 7.671561 0 0 1-0.511437-12.58136 20.457497 20.457497 0 0 1 15.138547-4.0915z" fill="#F090AF" p-id="2621"></path><path d="M674.585955 559.614824a46.643093 46.643093 0 0 1 0 5.421236 12.069923 12.069923 0 0 1-13.195085 10.228749 12.172211 12.172211 0 0 1-11.149336-11.967636 12.479073 12.479073 0 0 1 11.353911-12.274498h3.477774a19.127759 19.127759 0 0 1 9.512736 8.592149zM381.225452 555.523324a12.274498 12.274498 0 0 1 9.103586 12.683648 12.172211 12.172211 0 0 1-24.242134 0v-3.989212c1.329737-3.886924 5.318949-5.216662 7.978424-7.876136s4.398362-0.8183 7.160124-0.8183z" fill="#FEF9F9" p-id="2622"></path><path d="M642.876835 533.224653A37.232644 37.232644 0 0 1 685.326141 546.624313c1.534312 2.250325 2.966337 2.4549 5.318949 1.432025a20.457497 20.457497 0 0 1 10.228749-2.86405 32.11827 32.11827 0 0 1-9.205874 4.705225c-1.22745 0.613725-3.989212 0.613725-2.045749 3.068624s0.511437 6.546399 5.318949 4.602937l9.512736-3.784637a26.594746 26.594746 0 0 1-12.990511 7.057836c-1.22745 0-1.22745-1.534312-1.636599-2.352612A39.278394 39.278394 0 0 0 644.411148 533.633803s-1.022875-0.306862-1.534313-0.40915zM335.707522 559.103386a12.785935 12.785935 0 0 1 8.387573 2.250325c4.602937 2.557187 4.909799-1.125162 6.341824-3.682349s-1.6366-3.068625-2.966337-3.886925-5.523524-1.6366-8.285286-4.500649a15.649985 15.649985 0 0 1 8.592149 2.454899 5.625812 5.625812 0 0 0 8.182999-1.841174 38.766956 38.766956 0 0 1 39.073818-14.115673c1.125162 0 2.4549 0 2.659475 1.738887-2.761762 1.125162-5.523524 0-8.285286 0a38.869244 38.869244 0 0 0-38.357807 24.753571c-1.534312 3.477774-2.86405 3.784637-5.830386 2.250325a35.289182 35.289182 0 0 1-9.512736-5.421237z" fill="#342120" p-id="2623"></path><path d="M359.233643 633.568674c0.613725-3.068625 7.262411-4.296074 2.04575-9.001298s-4.909799 4.091499-8.796724 2.557187a17.695735 17.695735 0 0 1 5.728099-6.853261 1.534312 1.534312 0 0 1 2.557187 0A32.834282 32.834282 0 0 0 386.748976 634.182399s0 0.511437 0.511438 1.125163a22.503246 22.503246 0 0 1-16.468285-3.2732c-3.784637-2.352612-6.341824-2.659475-9.001299 1.22745-0.40915 0.920587-1.125162 0.920587-2.557187 0.306862z" fill="#382524" p-id="2624"></path><path d="M681.439217 629.170313l-1.6366 0.613725c-4.091499-6.034962-8.285286-2.966337-12.99051-0.716013a17.08201 17.08201 0 0 1-13.808811 1.432025c3.886924-1.329737 8.080711-1.432025 11.865348-2.86405a28.43592 28.43592 0 0 0 13.092798-9.512736c2.352612-3.170912 4.091499-3.477774 6.239537 0 1.125162 1.534312 3.375487 2.250325 3.375487 5.012087-3.273199 0-4.091499-3.580062-6.239537-4.705224-6.239537 3.170912-4.296074 7.057836 0.102288 10.740186z" fill="#382525" p-id="2625"></path><path d="M525.859954 642.365398h-16.67286 16.67286z" fill="#F6CBC5" p-id="2626"></path><path d="M578.640296 633.466387h-14.524823 14.422535z" fill="#F6CFC8" p-id="2627"></path><path d="M381.225452 555.523324h-7.057836c0-1.432025 1.125162-1.534312 2.045749-1.943462 1.432025 1.943462 3.682349 0.306862 5.012087 1.943462z" fill="#453231" p-id="2628"></path><path d="M451.190091 635.307562a10.228748 10.228748 0 0 1 6.648686 0z" fill="#F7D1CA" p-id="2629"></path><path d="M472.977325 635.205274a16.67286 16.67286 0 0 1-7.978424 0 16.979722 16.979722 0 0 1 7.978424 0z" fill="#F7D2CA" p-id="2630"></path><path d="M534.042953 641.137948a3.273199 3.273199 0 0 1-3.375487 0 2.966337 2.966337 0 0 1 3.375487 0z" fill="#F5CFC9" p-id="2631"></path><path d="M524.837079 765.212666h-22.810109a63.82739 63.82739 0 0 1 22.810109 0z" fill="#F46D75" p-id="2632"></path><path d="M168.672061 327.319948c1.841175-1.022875 3.068625-3.784637 5.932674-1.022875a5.318949 5.318949 0 0 0 5.114374 0c3.477774-2.4549 6.955549 0.920587 10.228748-0.613725 1.022875 0 2.659475 3.580062 3.170912 0 1.432025 0.613725 0 2.86405 1.943463 3.170912s-0.8183-1.841175 0.613724-2.659474c1.432025 1.6366 2.659475 7.671561 5.31895 0.716012 0 0 2.966337 0.716012 4.602936 0a6.444111 6.444111 0 0 1 1.943463 0l1.227449 3.886925c4.398362-1.329737 8.080711-5.421237 12.990511-1.534313 0 3.886924-2.4549 7.160124-2.04575 10.944761-11.865348-2.659475-23.832984-5.216662-35.698332-8.080711a70.782939 70.782939 0 0 1-15.343122-4.807512z" fill="#9FD4FE" p-id="2633"></path><path d="M748.437519 265.947458v77.022475a412.423135 412.423135 0 0 0-56.258116-36.107482l-15.752273-8.285286c0.920587-1.534312 2.659475-1.841175 4.0915-2.557187 16.059135-8.080711 32.220557-16.161422 48.791129-23.423834 4.602937-1.841175 9.001299-3.886924 13.604236-5.625811 1.738887-1.022875 3.784637-1.943462 5.523524-1.022875z" fill="#D0ECFE" p-id="2634"></path><path d="M748.437519 265.947458l-18.923185 7.057836a238.125262 238.125262 0 0 1-28.333633 0.511438h-84.284886a71.601239 71.601239 0 0 1-11.353911-0.613725c-9.410449-1.738887-18.820897-3.580062-28.231346-5.114374a293.667366 293.667366 0 0 0-46.847667-4.193787 13.604235 13.604235 0 0 1-2.86405-0.613725h225.953052c-1.22745 2.352612-3.784637 1.943462-5.114374 2.966337z" fill="#89CCFD" p-id="2635"></path><path d="M605.644191 273.516732a42.756168 42.756168 0 0 1 4.9098-0.511438h115.175706a26.083308 26.083308 0 0 1 3.784637 0.511438c-6.239537 3.682349-13.092798 6.137249-19.639197 9.308161-9.410449 4.500649-18.616322 9.205874-27.924483 13.911097a13.39966 13.39966 0 0 1-5.523524 1.943463c-14.013385-5.932674-27.924483-12.274498-42.244731-16.67286-9.615023-2.966337-19.127759-5.830387-28.538208-8.489861z" fill="#8FCEFD" p-id="2636"></path><path d="M298.37259 302.361802a466.635501 466.635501 0 0 0 59.838178 0l-2.04575 1.022875a8.899011 8.899011 0 0 1-4.193786 1.022875 6.955549 6.955549 0 0 0-7.773849 5.523524l-30.686245 19.127759a4.909799 4.909799 0 0 1-1.534313-3.170912 76.920188 76.920188 0 0 0 0-15.343122c-0.613725-5.830387-0.613725-5.830387-6.648686-6.034962-2.557187 0-5.421237 0.8183-7.364699-1.6366a0.716012 0.716012 0 0 1 0.40915-0.511437z" fill="#D6E3F8" p-id="2637"></path><path d="M312.385975 326.297073c1.125162 0.716012 0.920587 1.841175 0.920588 2.86405l-25.878734 20.457497a6.034962 6.034962 0 0 1-7.978423-1.022875l-5.012087-18.923185c1.6366-3.682349 1.6366-3.273199 5.318949-3.477774 1.22745 0 2.352612-2.966337 2.148037 0.8183 0-1.738887 1.738887-2.250325 2.966337-1.22745s-1.841175 2.148037-1.022875 3.682349 1.022875 0.511437 0 0c1.329737-2.04575 3.682349-0.716012 5.012087-0.613725 4.193787 0 4.193787 0.8183 7.466986-2.352612 0.613725-0.613725 0.920587-1.125162 2.04575-0.716012s0.716012 3.068625 1.943462 1.534312 1.943462 0 2.659475-1.125162 1.841175 2.352612 3.375487 0.511437c1.943462 0.613725 3.989212 0 6.034961-0.40915z" fill="#9FD5FE" p-id="2638"></path><path d="M419.378683 263.492558h94.002198l-22.400959 1.6366a362.097693 362.097693 0 0 0-59.940465 10.228748A83.159724 83.159724 0 0 1 419.378683 263.492558z" fill="#89CCFD" p-id="2639"></path><path d="M344.29967 310.033363c0-6.648686 0-6.648686 6.546399-6.648686h5.421237z" fill="#A7BEEB" p-id="2640"></path><path d="M279.449406 347.777445a40.914994 40.914994 0 0 0 7.978423 1.022875l-6.955549 6.034961c0.40915-2.04575-2.04575-3.989212-1.022874-7.057836z" fill="#C7E3FA" p-id="2641"></path><path d="M253.468385 255.718709h83.568874a11.047048 11.047048 0 0 1 6.239537 1.022875 194.346219 194.346219 0 0 1-16.979723 16.979723 15.649985 15.649985 0 0 1-7.364699 1.125162c-18.923184-0.8183-37.846369-0.716012-56.871841 0a4.398362 4.398362 0 0 1-3.682349-1.022875z" fill="#88CCFD" p-id="2642"></path><path d="M258.480471 273.414444c17.593447-1.022875 35.186894 0 52.780342 0h15.138548a263.287983 263.287983 0 0 1-19.94606 20.457497 17.593447 17.593447 0 0 1-10.228748 2.557187h-30.686245c-3.477774-7.364699-4.500649-15.44541-7.057837-23.014684z" fill="#8FCEFD" p-id="2643"></path><path d="M265.43602 296.633703a22.298671 22.298671 0 0 1 10.228749-2.04575 196.085106 196.085106 0 0 0 30.686245-0.920587l-7.978424 9.001298c1.841175 2.148037 4.296074 0.8183 6.444112 0.920588 7.978424 0 7.978424 0 7.569273 8.080711v1.022875a17.08201 17.08201 0 0 0-12.888223-1.022875c-5.830387 1.022875-11.660773 0-17.491159 1.022875a47.256818 47.256818 0 0 0-12.274498 1.022875 173.888722 173.888722 0 0 1-4.296075-17.08201z" fill="#95D0FD" p-id="2644"></path><path d="M269.425232 313.306563c2.352612-1.432025 4.398362-5.114374 7.364699-0.8183 1.738887-3.477774 5.012087-1.534312 7.160124-1.432025 7.978424 0 15.85456-1.738887 23.832984-1.22745a8.080711 8.080711 0 0 1 4.602936 1.534313 30.686245 30.686245 0 0 1 0 14.933972c-1.329737 3.375487-3.886924 2.148037-5.728099 1.022875s-5.114374-0.8183-6.750974 2.352612l-2.557187-6.137249c1.022875 7.773849-6.239537 3.886924-7.671561 7.978424v-3.477775c-1.329737 0-1.432025 5.421237-3.784637 0.920588 0-0.613725-0.716012 0-1.534312 1.432025-1.022875-1.841175 0-3.273199 0.613725-4.9098-2.966337 0-1.534312 2.4549-2.352612 3.580062-1.534312-0.920587 0-2.659475-1.125163-3.784637-1.534312 1.022875 0 3.068625-1.227449 4.193787-1.943462-0.8183 0.613725-3.273199-1.125163-3.682349s-2.250325 3.068625-4.296074 3.477774z" fill="#9AD1FD" p-id="2645"></path></svg>