<?xml version="1.0" standalone="no"?><!DOCTYPE svg PUBLIC "-//W3C//DTD SVG 1.1//EN" "http://www.w3.org/Graphics/SVG/1.1/DTD/svg11.dtd"><svg t="1550212810254" class="icon" style="" viewBox="0 0 1024 1024" version="1.1" xmlns="http://www.w3.org/2000/svg" p-id="3431" xmlns:xlink="http://www.w3.org/1999/xlink" width="200" height="200"><defs><style type="text/css">@font-face { font-family: "Roboto Condensed"; src: url("chrome-extension://lienonopcegannlgdkgonpofbhgmclcc/RobotoCondensed-Regular.ttf"); }
</style></defs><path d="M0.766329 512Q0.766329 258.298942 0.664154 5.108761C0.664154 0.919577 1.481556 0 4.955513 0h1013.782479c3.780483 0 4.597885 0.817402 4.597884 4.597885v1014.80423c0 3.780483-0.817402 4.597885-4.597884 4.597885H4.955513c-3.780483 0-4.597885-0.817402-4.597884-4.597885q0.408701-253.701058 0.4087-507.402115z" fill="#FEFEFE" p-id="3432"></path><path d="M68.508497 446.710038a370.998204 370.998204 0 0 1 11.647974-55.174616 441.499102 441.499102 0 0 1 33.717821-85.418479 459.788465 459.788465 0 0 1 51.087607-76.937937 445.38176 445.38176 0 0 1 118.829775-101.459988 448.242666 448.242666 0 0 1 96.146877-42.811415 473.684295 473.684295 0 0 1 69.17262-15.224107 478.89523 478.89523 0 0 1 86.235881-3.269607 362.006785 362.006785 0 0 1 57.933346 7.05009 456.825384 456.825384 0 0 1 86.031531 25.237278 446.812213 446.812213 0 0 1 90.220715 49.96368 441.192576 441.192576 0 0 1 62.020355 53.437637 451.818799 451.818799 0 0 1 45.876671 55.992018 442.929555 442.929555 0 0 1 68.661744 156.941129 8.480543 8.480543 0 0 1 0 1.941329c-1.634803 1.021752-3.167432 0-4.70006 0l-4.495709-2.145679c-30.652564-15.428457-61.305129-29.937338-91.957693-45.161445-8.582718-4.291359-17.369786-8.378368-26.05468-12.567551a10.217521 10.217521 0 0 0-10.217521 0c-11.443624 4.291359-23.091598 8.174017-34.637398 12.15885a10.728398 10.728398 0 0 1-6.334863 0.919577 99.825185 99.825185 0 0 1-15.632808-13.691479 362.211136 362.211136 0 0 0-195.052485-89.096787 320.625823 320.625823 0 0 0-57.115945-3.167431 368.341648 368.341648 0 0 0-111.064458 21.55897 17.267611 17.267611 0 0 1-4.802235 1.328278c-2.452205 0-3.576133-2.247855-5.006585-3.882658a37.089603 37.089603 0 0 0-24.624227-12.465377c-6.845739 0-7.05009-0.613051-7.05009-7.765316a48.226701 48.226701 0 0 0-28.200359-45.672321 51.087607 51.087607 0 0 0-72.850928 33.002595c-2.14568 8.174017-2.14568 7.969667-10.217522 6.334863a44.446218 44.446218 0 0 0-53.539812 33.51347 45.05927 45.05927 0 0 0 33.717821 54.45939 120.975454 120.975454 0 0 0 25.339453 1.021752h33.819996c1.839154 0 4.087009-0.919577 5.313111 1.532628-1.430453 4.70006-5.823987 6.641389-8.991419 9.502295a339.630413 339.630413 0 0 0-61.305128 73.055278c-2.963081 4.802235-5.823987 9.706645-8.684894 14.508881a6.845739 6.845739 0 0 1-4.802235 3.984833 34.126522 34.126522 0 0 1-5.926162 0H76.478163a11.239274 11.239274 0 0 1-7.969666-1.532628z" fill="#BFF1FE" p-id="3433"></path><path d="M951.915401 444.462183a175.537019 175.537019 0 0 1 3.269607 28.40471 448.038316 448.038316 0 0 1-35.761325 219.983237A449.570944 449.570944 0 0 1 742.354036 894.033127s-1.021752 0.613051-1.430453 0a54.459389 54.459389 0 0 1-17.165436-14.406705c0-2.452205 2.55438-3.371782 4.291359-4.597885a348.315306 348.315306 0 0 0 61.91818-51.087607 166.239074 166.239074 0 0 0 25.85033-35.250449 83.47715 83.47715 0 0 1 29.630812-29.528637c6.232688-4.087009 13.078427-7.25444 19.106765-11.75015a26.463381 26.463381 0 0 0 11.137098-33.002594 51.087607 51.087607 0 0 0-3.780483-10.728398A31.16344 31.16344 0 0 0 838.500913 688.252245a93.796847 93.796847 0 0 0-16.85891 4.393534 4.802235 4.802235 0 0 1-4.70006 0c-1.226103-2.043504 0-3.371782 1.226103-4.802235a208.335262 208.335262 0 0 0 11.341448-18.391538 194.132908 194.132908 0 0 0 26.769907-81.944522 239.600878 239.600878 0 0 0-5.313112-72.033527 272.399122 272.399122 0 0 0-23.500299-64.26821c-1.021752-1.839154-3.473957-4.291359 0-6.334863a15.530633 15.530633 0 0 1 5.108761-0.408701h103.912193a32.798244 32.798244 0 0 0 14.202355 0z" fill="#3FD067" p-id="3434"></path><path d="M68.508497 446.710038h129.251646c1.226103 2.14568 0 3.882658-1.123927 5.517462a277.610058 277.610058 0 0 0-23.5003 63.246457 254.416284 254.416284 0 0 0-6.437038 73.055279 191.476352 191.476352 0 0 0 16.450209 64.779086c1.123927 2.55438 2.963081 4.90441 1.941329 7.969666a6.743564 6.743564 0 0 1-5.721812 0c-22.478547-4.087009-45.161445-7.05009-67.742167-10.217521-7.356615-1.021752-14.815406-1.430453-22.172021-2.656556a8.684893 8.684893 0 0 1-5.108761-1.634803 393.783277 393.783277 0 0 1-14.815406-61.305129 439.353422 439.353422 0 0 1-5.823987-89.198962 371.30473 371.30473 0 0 1 4.802235-49.554979z" fill="#58D55B" p-id="3435"></path><path d="M593.89345 951.149072a193.417681 193.417681 0 0 1-20.435043 3.780483 2.55438 2.55438 0 0 1-3.167432-1.634803c-6.539214-14.815406-19.515466-24.011175-30.652564-34.943924-7.560966-7.663141-15.632808-14.815406-23.398124-22.376372-2.247855-2.247855-3.678308-2.35003-6.028338 0a2076.302534 2076.302534 0 0 1-40.870086 36.885253 59.976851 59.976851 0 0 0-15.939333 22.478547 1.634803 1.634803 0 0 1-2.14568 0 414.21832 414.21832 0 0 1-75.711834-16.756735c-1.736979-5.313111 1.226103-10.217521 2.043505-14.917582 8.174017-18.595889 14.10018-37.907005 21.252444-56.809419a222.844143 222.844143 0 0 1 10.217522-24.317701 17.165436 17.165436 0 0 1 4.291359-6.028338 131.703852 131.703852 0 0 1 51.087607-13.180602 100.336061 100.336061 0 0 1 23.295949-0.817402 20.435043 20.435043 0 0 0 7.25444 0.715226 136.506087 136.506087 0 0 1 64.881261 21.763321 56.707244 56.707244 0 0 1 19.617641 27.076432 179.215326 179.215326 0 0 1 13.691479 62.837757 62.224706 62.224706 0 0 1 0.715227 16.245859z" fill="#FA665A" p-id="3436"></path><path d="M378.508098 923.255238l-2.963082 15.121932a378.76352 378.76352 0 0 1-58.035522-22.682897 447.52744 447.52744 0 0 1-232.346437-265.655558 7.356615 7.356615 0 0 1-0.613052-3.371782c12.874077 1.532628 25.850329 2.860906 38.724407 4.597884 14.611056 1.941329 29.324287 4.291359 43.935342 6.539214l17.982838 2.963081c4.087009 1.941329 4.291359 6.539214 6.743564 9.604471 3.269607 6.028338 6.947915 11.75015 10.728397 17.574136 1.021752 1.532628 3.269607 3.371782 0 5.313112a24.726402 24.726402 0 0 1-9.093594-2.247855 51.700659 51.700659 0 0 0-22.989423-2.35003 28.506885 28.506885 0 0 0-20.435043 15.224107 62.224706 62.224706 0 0 0-5.926162 16.85891 23.909 23.909 0 0 0 6.743564 20.945919 64.983436 64.983436 0 0 0 18.493714 13.384953 89.812014 89.812014 0 0 1 38.520055 37.089603 88.483736 88.483736 0 0 0 7.867492 12.669727 255.948912 255.948912 0 0 0 49.96368 50.372381 549.293953 549.293953 0 0 0 97.986031 59.874675 51.087607 51.087607 0 0 1 14.713231 8.174017z" fill="#87F191" p-id="3437"></path><path d="M593.89345 951.149072a105.138296 105.138296 0 0 1-2.043505-18.493714 184.426262 184.426262 0 0 0-14.71323-62.735582 60.385552 60.385552 0 0 0-31.674317-31.878666 153.875873 153.875873 0 0 0-50.065855-13.589304c1.123927-3.269607 3.984833-2.35003 6.232688-2.452205 10.217521 0 20.435043 0 30.652564-0.715227a595.988026 595.988026 0 0 0 61.305129-6.130512 69.070445 69.070445 0 0 1 15.734983 21.252444 337.791259 337.791259 0 0 1 20.435043 49.657154c4.597885 12.567551 9.093594 25.237278 14.10018 37.702655 0.613051 4.802235 3.780483 9.297945 1.736978 14.406705a304.175614 304.175614 0 0 1-51.700658 12.976252z" fill="#F14E4E" p-id="3438"></path><path d="M936.691294 445.790461h-1.021752a124.960287 124.960287 0 0 1-16.85891-12.158851c-31.572141-23.806825-63.042107-47.920176-94.512074-71.52265-1.941329-1.532628-4.90441-2.452205-4.189183-5.926162l66.924765 32.696068 55.787667 27.382958a36.783077 36.783077 0 0 0 3.678308 1.328278 135.893035 135.893035 0 0 1 5.415286 26.872081v1.226103a51.905009 51.905009 0 0 1-15.224107 0.102175z" fill="#2A9F5A" p-id="3439"></path><path d="M645.696284 938.17282l-2.860907-14.713231c0.817402-2.043504 2.860906-2.656556 4.597885-3.473957a583.3183 583.3183 0 0 0 71.52265-38.315706c1.634803-1.021752 3.167432-2.55438 5.415287-1.634803a119.442826 119.442826 0 0 0 17.982837 13.998004 432.916384 432.916384 0 0 1-94.716423 43.628817 7.765316 7.765316 0 0 1-1.941329 0.510876z" fill="#87F191" p-id="3440"></path><path d="M486.813825 958.710038c1.430453-1.123927 2.860906-0.715227 4.087008-0.715227a29.732987 29.732987 0 0 1 10.217522 1.123928h-11.852325z" fill="#E6CDC2" p-id="3441"></path><path d="M533.099197 959.016564h-13.793654v-0.919577h13.793654v0.613051c0 0.613051 0.102175 0.306526 0 0.306526z" fill="#E9CFC4" p-id="3442"></path><path d="M478.026756 957.586111a11.545799 11.545799 0 0 1-6.437038 0 9.195769 9.195769 0 0 1 6.437038 0z" fill="#E5CCC1" p-id="3443"></path><path d="M542.294966 957.892636c1.941329-1.226103 3.371782-0.715227 5.823988-0.919577-2.35003 1.634803-3.780483 0.817402-5.823988 0.919577z" fill="#E2CABF" p-id="3444"></path><path d="M466.889658 956.564358a7.458791 7.458791 0 0 1-5.210936 0 6.028338 6.028338 0 0 1 5.210936 0z" fill="#E6CDC2" p-id="3445"></path><path d="M451.25685 955.338256h4.904411c-1.634803 0.715227-3.371782 1.328278-4.904411 0z" fill="#C4CDB5" p-id="3446"></path><path d="M555.169043 956.155658h2.963082c-1.430453 1.736979-2.14568 0.510876-2.963082 0z" fill="#DDC7BC" p-id="3447"></path><path d="M533.099197 959.016564a2.656556 2.656556 0 0 1 0-0.919577h4.291359c-1.123927 1.430453-2.963081 0.817402-4.291359 0.919577z" fill="#B8AA83" p-id="3448"></path><path d="M203.175429 693.156655c1.021752-1.941329-0.817402-2.860906-1.634803-4.087008a147.438835 147.438835 0 0 1-10.728398-18.085013 29.324287 29.324287 0 0 1 2.452206-10.217522 163.480343 163.480343 0 0 0 9.195769-54.765915 147.234484 147.234484 0 0 0-27.280782-86.542406 13.180603 13.180603 0 0 1-2.860906-5.210936 264.735981 264.735981 0 0 1 22.580722-61.305129c1.021752-2.043504 1.941329-4.189184 2.963081-6.334863a383.872281 383.872281 0 0 1 32.900419-49.044103 357.613251 357.613251 0 0 1 47.511475-48.737578 21.661145 21.661145 0 0 0 1.736979-1.839153 7.25444 7.25444 0 0 1 3.065256-3.780483 363.130712 363.130712 0 0 1 96.146877-56.502894c1.634803-0.715227 3.269607-1.736979 5.210936-0.919577a374.983037 374.983037 0 0 1 71.52265-18.902415 367.830772 367.830772 0 0 1 72.748753-3.984833 365.072042 365.072042 0 0 1 235.002993 100.540411l6.130513 5.823987a31.469966 31.469966 0 0 1 12.874077 13.895829c12.771902 28.915586 11.341449 59.261624 8.071842 89.607664a230.302934 230.302934 0 0 1-30.652564 91.344641 14.815406 14.815406 0 0 1-3.473958 4.802235c-3.269607 0-3.065256-2.55438-3.678307-4.291359a196.482938 196.482938 0 0 0-33.513471-58.852923 248.796647 248.796647 0 0 0-76.018359-61.91818 275.873079 275.873079 0 0 0-98.701257-30.652564 287.725404 287.725404 0 0 0-59.568151-1.226103 268.414289 268.414289 0 0 0-83.6815 21.048094 235.002993 235.002993 0 0 0-120.668929 106.97745 144.577929 144.577929 0 0 0 10.217522 159.904211c1.430453 2.043504 4.70006 3.780483 2.452205 7.152265a28.40471 28.40471 0 0 1-13.282778 0 404.205149 404.205149 0 0 1-63.961684-8.991419c-2.55438-0.613051-5.006586-1.634803-7.663141-2.043505s-4.495709-0.306526-5.415287-2.860906z" fill="#FA665A" p-id="3449"></path><path d="M384.43426 285.88625a392.454999 392.454999 0 0 0-70.092197 35.965676c-11.9545 7.765316-23.091598 16.552385-34.433048 25.237278a43.833167 43.833167 0 0 0-12.976252-0.613052c-15.632808 0-31.265616 0.715227-46.898423-0.510876a45.26362 45.26362 0 0 1-38.315706-31.572141 45.978847 45.978847 0 0 1 36.783078-59.7725 43.015765 43.015765 0 0 1 21.55897 1.634803c2.55438 1.021752 3.371782 0.715227 3.984833-2.452205a52.211535 52.211535 0 0 1 37.80483-41.483137 53.335462 53.335462 0 0 1 59.363799 23.295949 50.372381 50.372381 0 0 1 7.25444 29.324286c0 2.55438 0 4.393534 3.576133 4.393534a38.00918 38.00918 0 0 1 32.389543 16.552385zM591.952121 233.36819h-45.467971a35.148274 35.148274 0 0 1-38.111355-34.126522 34.535223 34.535223 0 0 1 32.696069-36.680902 29.017761 29.017761 0 0 1 12.261026 1.021752c3.371782 1.328278 4.087009 0 4.802235-3.167431a38.724406 38.724406 0 0 1 28.302534-29.732988 39.746158 39.746158 0 0 1 51.087607 37.089603c0 5.210936 1.634803 6.845739 6.232688 6.641389a29.017761 29.017761 0 0 1 25.85033 24.828577c0.613051 18.493714-7.663141 30.652564-23.5003 33.30912a158.984634 158.984634 0 0 1-26.769906 0.817402c-9.093594 0.20435-18.187188 0-27.382957 0z" fill="#FEFEFE" p-id="3450"></path><path d="M781.487144 382.544003l-11.9545-13.282778c14.202355-4.90441 28.40471-10.217521 42.607064-14.815406a7.356615 7.356615 0 0 1 8.174017 1.123928c1.226103 3.473957 4.597885 4.70006 7.152265 6.641389 31.16344 23.806825 62.531231 47.307124 93.592497 71.52265a83.068449 83.068449 0 0 1 14.917581 12.15885H826.342063c-1.736979 0-2.35003-1.736979-3.065257-2.963081a331.252045 331.252045 0 0 0-39.030932-55.583317 15.632808 15.632808 0 0 1-2.75873-4.802235z" fill="#2AB667" p-id="3451"></path><path d="M781.487144 382.544003a289.258032 289.258032 0 0 1 41.789662 57.626821l3.269607 5.517462a283.944921 283.944921 0 0 1 25.543804 68.661744 15.734983 15.734983 0 0 1-3.576133 5.926162 144.067052 144.067052 0 0 0-26.872081 69.683497 172.063061 172.063061 0 0 0 7.969667 73.974855 14.10018 14.10018 0 0 1 1.123927 6.743564c-3.678308 7.867492-9.40012 14.50888-13.282778 22.172022-0.715227 2.247855-2.758731 2.656556-4.597885 3.371782a97.679505 97.679505 0 0 0-46.898423 37.702654 59.465975 59.465975 0 0 1-16.552385 14.917581 387.141888 387.141888 0 0 1-60.589902 34.228697 619.794851 619.794851 0 0 1-65.903013 26.872082c-7.05009 2.35003-14.406705 3.984833-21.456795 6.232688a6.947915 6.947915 0 0 1-6.232688 0 577.596488 577.596488 0 0 1-62.939933 6.232688c-10.217521 0-21.048094 0-31.674316 0.715226-1.736979 0-3.678308-0.613051-5.108761 1.021752-2.35003 0-4.90441 0.919577-6.947914-1.021752a1.430453 1.430453 0 0 1 1.328277 0h-1.328277a292.629814 292.629814 0 0 1-60.079027-5.006585 467.553782 467.553782 0 0 1-96.964278-35.761325 363.232888 363.232888 0 0 1-62.020355-35.863501 73.87268 73.87268 0 0 1-15.939334-16.348034 93.899022 93.899022 0 0 0-40.870086-32.185193c-2.043504-0.919577-5.108761-0.817402-5.619636-3.984833 8.480543 1.736979 16.961086 3.780483 25.543803 5.313111a363.539413 363.539413 0 0 0 37.600479 4.70006c7.867492 0.613051 15.632808 1.941329 23.602475 1.941329 3.065256 0 4.087009 2.656556 5.619636 4.393534a232.346438 232.346438 0 0 0 81.229296 59.670326 297.6364 297.6364 0 0 0 91.242467 24.930752 337.893434 337.893434 0 0 0 60.079026 1.634803 325.632409 325.632409 0 0 0 87.155458-17.267611 242.053083 242.053083 0 0 0 96.044701-59.56815 156.838954 156.838954 0 0 0 44.344043-85.725005 142.023548 142.023548 0 0 0-3.065256-56.707244c-0.613051-2.452205-2.14568-5.006586 0-7.663141 3.882658-7.458791 7.969667-14.815406 11.647975-22.376372a231.631211 231.631211 0 0 0 21.150269-69.376971 248.285771 248.285771 0 0 0 0-70.603073 85.418479 85.418479 0 0 0-4.802235-15.121932 44.241868 44.241868 0 0 1-2.963081-9.60447z" fill="#F55954" p-id="3452"></path><path d="M594.813027 816.482139a481.449611 481.449611 0 0 0 91.957693-33.717821 478.793055 478.793055 0 0 0 56.911594-31.776491 116.58192 116.58192 0 0 0 29.119936-28.60906 87.564159 87.564159 0 0 1 32.900419-24.828577c3.678308-1.839154 7.560966-3.371782 11.341449-5.006586 6.641389-1.328278 12.874077-4.087009 19.617641-5.108761a32.593893 32.593893 0 0 1 39.950509 25.237278c5.006586 17.880663 1.532628 28.098184-14.30453 38.315706-7.560966 5.108761-15.837158 8.991419-23.193773 14.50888a84.192377 84.192377 0 0 0-23.806825 26.974257 208.130912 208.130912 0 0 1-50.576732 57.524646c-12.874077 10.932748-26.872081 20.435043-40.870085 30.141688a680.486929 680.486929 0 0 1-68.150868 37.600479c-4.291359 2.043504-8.787068 3.882658-13.180603 5.823987-6.028338-13.180603-10.217521-27.076432-15.428458-40.870086a301.008182 301.008182 0 0 0-21.967671-51.087607c-2.860906-5.415286-7.560966-9.60447-10.319696-15.121932z" fill="#E94949" p-id="3453"></path><path d="M830.429071 670.780283c-17.471962-48.941928-16.348034-96.555578 10.217522-142.227898a53.641988 53.641988 0 0 1 10.728397-14.202355 133.645181 133.645181 0 0 1 4.904411 28.711235 221.515865 221.515865 0 0 1 0.919577 43.628817 196.789463 196.789463 0 0 1-26.769907 84.090201z" fill="#F5F5F5" p-id="3454"></path><path d="M936.691294 445.790461h14.917582a24.624227 24.624227 0 0 1-14.917582 0z" fill="#2AB667" p-id="3455"></path><path d="M172.318515 514.35003a108.305727 108.305727 0 0 1 19.617641 32.287368 145.804031 145.804031 0 0 1 11.852325 58.444222 166.239074 166.239074 0 0 1-12.976253 65.596488l-5.721812-10.217521a232.346438 232.346438 0 0 1-17.369786-53.641988 199.343844 199.343844 0 0 1-1.839154-52.007184 264.940331 264.940331 0 0 1 5.313111-37.804829c0.306526-1.021752 0.715227-1.634803 1.123928-2.656556z" fill="#F5F5F5" p-id="3456"></path><path d="M207.058088 693.871882a118.318898 118.318898 0 0 1 29.630812 16.756735 75.814009 75.814009 0 0 1 15.837158 16.348034 105.649172 105.649172 0 0 0 36.272201 30.652565 575.450808 575.450808 0 0 0 107.590501 49.759329 235.002993 235.002993 0 0 0 30.652564 8.684893c0.613051 1.328278 0 2.247855-1.021752 3.065257-4.802235 5.619637-8.684893 11.852325-12.976252 17.880662a141.921373 141.921373 0 0 0-13.180603 29.426462c-6.437039 17.063261-12.567551 34.228697-18.800239 51.087607a11.341449 11.341449 0 0 1-2.860906 5.108761 503.315107 503.315107 0 0 1-64.47256-33.206945 384.280982 384.280982 0 0 1-79.696668-60.692077 178.091399 178.091399 0 0 1-30.652564-40.870086 85.316304 85.316304 0 0 0-33.411295-30.652564 95.840351 95.840351 0 0 1-17.880663-11.647975A26.974257 26.974257 0 0 1 143.709455 714.20475a52.31371 52.31371 0 0 1 8.378367-17.267612 34.330872 34.330872 0 0 1 35.148274-9.093594 76.529236 76.529236 0 0 1 15.121932 4.802235c1.941329 1.839154 3.576133 0.102175 4.70006 1.226103z" fill="#E94949" p-id="3457"></path><path d="M413.656371 837.428058a73.055278 73.055278 0 0 1 13.998005-20.435043 416.874875 416.874875 0 0 0 66.413889 6.130513 11.034923 11.034923 0 0 1-5.619637 0.919577 173.697865 173.697865 0 0 0-74.792257 13.384953z" fill="#F14E4E" p-id="3458"></path><path d="M756.14769 569.524646c1.941329 10.217521 4.495709 19.617641 5.517462 29.732987a139.060467 139.060467 0 0 1-11.545799 71.52265 192.293754 192.293754 0 0 1-79.901018 86.133706 289.462383 289.462383 0 0 1-115.866693 39.030932 322.771503 322.771503 0 0 1-170.326083-22.989423 233.266015 233.266015 0 0 1-78.266214-53.641988c-4.087009-4.291359-7.969667-8.889244-11.852325-13.384953a167.771702 167.771702 0 0 1-27.485133-53.131111 144.475753 144.475753 0 0 1 3.780483-91.957693 213.648374 213.648374 0 0 1 76.631411-98.190382 262.896827 262.896827 0 0 1 117.603672-49.554979 274.646977 274.646977 0 0 1 223.048493 58.444223 202.61345 202.61345 0 0 1 67.639992 95.533826 19.20894 19.20894 0 0 0 1.021752 2.452205z" fill="#F9E7DA" p-id="3459"></path><path d="M537.901432 641.149471a61.91818 61.91818 0 0 1 15.326282-3.065256c3.473957 0 5.619637 1.532628 5.823988 5.210936a252.57713 252.57713 0 0 1-4.189184 77.040111c-3.269607 0-3.984833-2.55438-5.313111-4.393534a44.446218 44.446218 0 0 0-37.80483-18.800239 45.46797 45.46797 0 0 0-40.870086 24.011175c-1.021752 1.736979-1.328278 4.291359-4.087008 4.393534a142.023548 142.023548 0 0 1-2.043504-44.037517 286.090601 286.090601 0 0 1 5.517461-41.789663c1.123927-5.517462 3.371782-6.947915 8.787069-5.517461 3.065256 0.817402 6.028338 1.941329 9.093594 2.55438a2.758731 2.758731 0 0 1 2.55438 3.371782c2.656556 11.341449 10.217521 14.202355 21.048094 13.282778a67.435642 67.435642 0 0 1 10.217522 0 13.691479 13.691479 0 0 0 14.815406-10.217522 8.378368 8.378368 0 0 1 1.123927-2.043504z" fill="#D72E2E" p-id="3460"></path><path d="M467.196184 725.954899a61.305129 61.305129 0 0 1 17.063261-20.435043 47.715825 47.715825 0 0 1 67.844342 12.874077c0.715227 1.123927 1.328278 2.35003 2.758731 2.758731a61.305129 61.305129 0 0 1-20.435043 36.783077A40.870086 40.870086 0 0 1 470.670141 738.215925a32.287368 32.287368 0 0 1-3.473957-12.261026z" fill="#FC7485" p-id="3461"></path><path d="M537.901432 641.149471a13.691479 13.691479 0 0 1-14.611056 14.10018h-18.391538a14.30453 14.30453 0 0 1-14.406705-15.019757 3.780483 3.780483 0 0 1 3.780483-1.941329c1.430453 1.226103 3.473957 0 4.90441 0.919577h1.123927c1.839154 1.226103 3.984833 0 5.823987 0.919577h1.123928c3.167432 1.430453 6.641389 0 10.217521 1.021752h15.019757a5.823987 5.823987 0 0 1 5.006585 0z" fill="#FEF2F2" p-id="3462"></path><path d="M695.149087 639.105967a88.892437 88.892437 0 0 0-80.718419-9.40012 7.25444 7.25444 0 0 1 2.452205-5.823987 87.155458 87.155458 0 0 1 71.52265-24.930752c1.532628 0 4.087009 0 3.882658 1.839153s-2.758731 1.226103-4.189183 1.021753a83.579325 83.579325 0 0 0-65.085612 21.048094A91.957693 91.957693 0 0 1 695.455613 636.347236z" fill="#301D1D" p-id="3463"></path><path d="M323.844358 673.028138a18.391539 18.391539 0 0 1 11.852325 2.963081 7.560966 7.560966 0 0 1 0 13.895829 23.500299 23.500299 0 0 1-24.215526-0.20435 7.458791 7.458791 0 0 1 0-13.793654 18.595889 18.595889 0 0 1 12.363201-2.860906z" fill="#F08FAF" p-id="3464"></path><path d="M698.92957 672.925963a18.493714 18.493714 0 0 1 15.326282 5.313111 6.437039 6.437039 0 0 1 0 9.297945 23.295949 23.295949 0 0 1-28.711235 1.021752 7.969667 7.969667 0 0 1 1.532628-12.465376 19.00459 19.00459 0 0 1 11.852325-3.167432z" fill="#F090AF" p-id="3465"></path><path d="M406.299756 620.407903a71.52265 71.52265 0 0 0-19.00459-16.348035 83.2728 83.2728 0 0 0-44.241868-12.874077h-1.941329c-1.123927 0-2.55438 0-2.35003-1.736978s1.430453-1.123927 2.35003-1.226103a71.52265 71.52265 0 0 1 17.778487 1.328278 89.301137 89.301137 0 0 1 51.087608 30.652564 16.65456 16.65456 0 0 1 2.043504 2.758731 22.274197 22.274197 0 0 1 1.123927 3.167432c-1.839154 1.328278-3.269607 0-4.70006-0.510876a85.316304 85.316304 0 0 0-71.52265 0l-1.839154 0.817401c-1.123927 0-2.656556 1.021752-3.167431 0s0.817402-2.14568 2.043504-2.758731a89.096787 89.096787 0 0 1 49.044103-8.889243 129.762522 129.762522 0 0 1 23.295949 5.619637z" fill="#2F1D1C" p-id="3466"></path><path d="M517.057688 641.047296c-3.269607 0-6.743564 1.021752-10.217521-1.021752 3.576133 0.510876 7.05009-1.430453 10.217521 1.021752zM505.614064 640.025544c-1.941329 0-4.087009 0.817402-5.823987-0.919577 2.35003 0.306526 4.495709-0.510876 5.823987 0.919577z" fill="#F7CAC2" p-id="3467"></path><path d="M536.981855 641.047296H531.97527a3.371782 3.371782 0 0 1 5.006585 0z" fill="#F7C4BD" p-id="3468"></path><path d="M499.074851 638.595091c-1.634803 0-3.576133 0.715227-4.904411-0.919577 1.226103 0.919577 3.473957-0.306526 4.904411 0.919577z" fill="#F7CCC4" p-id="3469"></path></svg>