<?xml version="1.0" standalone="no"?><!DOCTYPE svg PUBLIC "-//W3C//DTD SVG 1.1//EN" "http://www.w3.org/Graphics/SVG/1.1/DTD/svg11.dtd"><svg t="1550212867349" class="icon" style="" viewBox="0 0 1024 1024" version="1.1" xmlns="http://www.w3.org/2000/svg" p-id="5001" xmlns:xlink="http://www.w3.org/1999/xlink" width="200" height="200"><defs><style type="text/css">@font-face { font-family: "Roboto Condensed"; src: url("chrome-extension://lienonopcegannlgdkgonpofbhgmclcc/RobotoCondensed-Regular.ttf"); }
</style></defs><path d="M1023.418073 511.576772v507.873528c0 3.703244-0.846456 4.5497-4.549701 4.5497H4.602615c-3.703244 0-4.5497-0.846456-4.549701-4.5497V4.867121C0.052914 1.163877 0.89937 0.317421 4.602615 0.317421h1014.583178c3.703244 0 4.5497 0.846456 4.5497 4.5497q-0.317421 253.301922-0.31742 506.709651z" fill="#FEFEFE" p-id="5002"></path><path d="M133.792943 274.357512c4.232279-6.66584 8.147138-13.543294 12.802646-19.99752 7.089068-9.84005 14.38975-19.362678 22.219466-28.567886a494.753461 494.753461 0 0 1 41.793759-43.909899 454.970035 454.970035 0 0 1 57.982228-45.073776 443.754495 443.754495 0 0 1 106.865055-50.893159 425.449886 425.449886 0 0 1 66.023558-15.871048s0.740649 0.846456 0.740649 1.269684a72.266171 72.266171 0 0 0 1.587105 19.362678c-1.163877 1.587105-2.856789 1.481298-4.5497 1.481298a26.451746 26.451746 0 0 0-25.816905 17.352345 29.096921 29.096921 0 0 0 4.972929 31.213061 28.7795 28.7795 0 0 0 5.925191 5.184542c1.481298 0.952263 3.280017 1.798719 2.962596 4.126473a27.615623 27.615623 0 0 1-2.962596 4.5497 23.806572 23.806572 0 0 0 17.140731 38.090515c12.27361 0.634842 19.785906-4.761314 25.816905-18.304609 1.375491-1.692912 3.068403-0.846456 4.5497 0a48.353792 48.353792 0 0 0 21.161397 3.809052 4.338086 4.338086 0 0 1 5.184542 4.232279 71.102294 71.102294 0 0 1-3.809051 32.376937 12.908452 12.908452 0 0 1-9.205208 1.05807 14.601364 14.601364 0 0 0-17.563959 10.580699c-8.041331 16.294276-17.034925 31.742095-24.864642 48.565406a8.993594 8.993594 0 0 1-5.290349 2.539367 356.146311 356.146311 0 0 0-65.494524 22.431081 19.785906 19.785906 0 0 1-7.089068 2.221947c-11.21554-2.539368-22.007853-6.242612-33.117586-9.205208a620.45216 620.45216 0 0 0-84.645588-15.553627 670.287249 670.287249 0 0 0-86.021079-3.914858c-7.618103 0-15.236206 1.375491-22.854308 1.05807a9.522629 9.522629 0 0 1-4.443894-0.211614z" fill="#FEF7BD" p-id="5003"></path><path d="M958.875812 490.415375a27.827237 27.827237 0 0 1 1.05807 10.580699 405.875594 405.875594 0 0 1-2.11614 55.125439 445.764827 445.764827 0 0 1-150.140112 291.180822 462.588138 462.588138 0 0 1-84.645588 58.934491 18.198801 18.198801 0 0 1-6.242612 2.750981c-2.327754-0.846456-2.856789-3.068403-3.809051-4.972928a459.413928 459.413928 0 0 0-36.397603-60.627402 10.580698 10.580698 0 0 1-1.269684-13.543294 74.064889 74.064889 0 0 0 8.464559-25.922712 17.669766 17.669766 0 0 1 1.587105-5.713577 108.240546 108.240546 0 0 1 17.669766-7.935524 327.261004 327.261004 0 0 0 85.28043-53.749948 229.918578 229.918578 0 0 0 50.998967-63.484191 194.473238 194.473238 0 0 0 26.769167-97.130812 250.339326 250.339326 0 0 0-6.030998-57.664807c0-2.433561-2.539368-4.867121 0-7.406489a23.383344 23.383344 0 0 1 10.580698-0.634842c26.980781 2.327754 53.961562 4.5497 80.836537 8.358752 5.396156 0.740649 6.030998 0 6.136805-5.396156s0-10.580698 0-16.50589c-0.211614-1.904526-0.529035-4.126472 1.269684-6.242612z" fill="#FDB866" p-id="5004"></path><path d="M567.813195 67.822277a370.324447 370.324447 0 0 1 39.042778 6.560033 436.453813 436.453813 0 0 1 95.226286 31.742096 441.638355 441.638355 0 0 1 93.321761 58.93449 417.514362 417.514362 0 0 1 32.694358 29.520149c4.338086 4.338086 8.358752 8.887787 12.696839 13.225873-1.163877 2.750982-3.914858 2.856789-6.242613 3.597438a440.05125 440.05125 0 0 0-63.484191 26.557553 746.045051 746.045051 0 0 0-70.361644 40.841496c-10.580698 6.560033-20.103327 13.543294-30.578219 19.680099a11.321347 11.321347 0 0 1-6.242612-1.481297 346.306262 346.306262 0 0 0-66.235173-21.161397 28.250465 28.250465 0 0 1-6.66584-2.010333 17.140732 17.140732 0 0 1-4.972928-6.66584c-8.676173-14.072329-17.352346-28.144658-26.240132-42.322794-0.846456-1.587105-1.904526-3.068403-2.856789-4.655507a9.416822 9.416822 0 0 0-10.580698-5.184543 9.628436 9.628436 0 0 1-8.570366-1.37549 95.226286 95.226286 0 0 1-5.60777-32.694359c0-3.068403 2.327754-3.385824 4.761314-3.49163a24.864641 24.864641 0 0 0 13.860715-3.914859c3.17421-1.375491 4.655507-4.972928 8.147138-5.819384 3.597437 1.269684 6.454226 4.020665 10.580698 4.972928a21.161397 21.161397 0 0 0 11.215541 0.529035 22.748502 22.748502 0 0 0 15.76524-31.953709c-0.740649-1.798719-2.327754-3.280017-2.010332-5.501963 2.327754-1.904526 5.60777-1.587105 7.829717-3.703245a15.976855 15.976855 0 0 0 6.030998-21.161397 16.717504 16.717504 0 0 0-19.680099-8.570366 26.874974 26.874974 0 0 1-3.809052 1.05807c-2.010333 0-2.962596-1.269684-3.597437-2.856788a35.339533 35.339533 0 0 0-16.188469-16.929118c-4.338086-2.327754-4.5497-3.17421-1.481298-7.089068s2.221947-6.030998 4.232279-8.676173z" fill="#FEF7BD" p-id="5005"></path><path d="M310.384801 910.045877a354.982434 354.982434 0 0 1-39.99504-22.642695 448.092581 448.092581 0 0 1-151.409796-163.471791 451.055177 451.055177 0 0 1-34.704691-83.481711 9.628436 9.628436 0 0 1 0-1.904526 7.089068 7.089068 0 0 1 4.549701-2.750982c28.991114-8.993594 57.982228-17.775573 86.973341-26.557553 2.856789 0.740649 2.327754 3.385824 2.645175 5.290349a200.292622 200.292622 0 0 0 21.796239 59.146105 214.364951 214.364951 0 0 0 13.543294 22.11366 134.692292 134.692292 0 0 0 15.342013 19.574292 294.989874 294.989874 0 0 0 107.923124 75.546187 12.379417 12.379417 0 0 1 5.078736 2.962596 10.580698 10.580698 0 0 1 1.37549 5.713577 86.3385 86.3385 0 0 0 9.84005 31.742095 7.72391 7.72391 0 0 1-0.634842 9.099401 658.394544 658.394544 0 0 0-31.742095 50.787353c-2.539368 4.5497-4.655507 9.205208-7.089068 13.754908-0.846456 2.221947-1.375491 4.232279-3.491631 5.078735z" fill="#FDB866" p-id="5006"></path><path d="M670.551778 298.375697c1.375491-3.068403 4.5497-3.703244 6.983261-5.290349a927.50403 927.50403 0 0 1 86.867534-52.162843 499.197355 499.197355 0 0 1 73.112627-31.001447l3.703244-1.375491a431.163464 431.163464 0 0 1 38.831164 48.353792 444.918372 444.918372 0 0 1 53.749948 104.431494 4.972928 4.972928 0 0 1 0 0.952263c-1.587105 1.587105-3.703244 1.163877-5.60777 1.375491-14.601364 1.269684-29.202728 0.740649-43.804092 1.269684-27.086588 1.05807-54.067369 1.375491-81.153957 2.11614-8.676173 0-17.246539 0.634842-25.922711 0a15.765241 15.765241 0 0 1-12.273611-5.184543 350.22112 350.22112 0 0 0-71.631328-50.681545 202.83199 202.83199 0 0 0-19.151065-9.311015c-1.692912-0.634842-3.914858-1.05807-3.703244-3.491631z" fill="#FEE493" p-id="5007"></path><path d="M66.076473 524.802645a441.532548 441.532548 0 0 1 26.240132-165.693738 21.161397 21.161397 0 0 1 1.692912-2.962596 6.348419 6.348419 0 0 1 4.761314-1.05807c19.468485 1.798719 39.042777 2.539368 58.511263 3.491631s40.100847 2.010333 60.098367 2.645174c15.871048 0 31.742095 1.481298 47.718951 1.692912a16.611697 16.611697 0 0 1 5.925191 0.846456c2.645175 1.269684 2.010333 2.962596 0.529035 4.761314s-3.597437 3.809051-5.60777 5.713578A322.076462 322.076462 0 0 0 218.12111 433.808638a279.859475 279.859475 0 0 0-33.3292 74.699731c-0.740649 2.433561-1.375491 4.867121-4.232279 5.607771-16.400083 2.327754-33.011779 3.280017-49.517669 5.078735-19.468485 2.11614-38.93697 4.338086-58.405456 6.560033-2.539368 0.105807-4.655507 0.740649-6.560033-0.952263z" fill="#E2602E" p-id="5008"></path><path d="M685.57637 798.207894a88.348832 88.348832 0 0 1-10.580699 33.964042 6.454226 6.454226 0 0 0 0 8.041331 487.346973 487.346973 0 0 1 41.582145 68.77454A276.262038 276.262038 0 0 1 677.217618 927.186609a380.905146 380.905146 0 0 1-73.00682 21.796239c-4.338086 0.740649-3.491631-2.645175-3.597437-4.761315a249.281256 249.281256 0 0 0-5.184542-37.8789 112.261211 112.261211 0 0 0-21.161397-48.882827 32.482744 32.482744 0 0 0-8.676173-7.406489 156.382724 156.382724 0 0 0-67.504857-21.05559 7.72391 7.72391 0 0 1-5.184542-1.269684c0.952263-3.385824 3.809051-2.645175 6.030998-2.645175 19.045257 0 38.196322 0 57.241579-0.846456 8.570366-0.529035 17.140732-1.798719 25.711097-2.539367 2.645175 0 4.338086-1.375491 4.23228-4.338087a14.283943 14.283943 0 0 1 4.655507-11.109733 4.655507 4.655507 0 0 0 1.05807-6.242612 12.908452 12.908452 0 0 1-1.481298-4.761314 28.885307 28.885307 0 0 1 3.597438-20.103328 47.824757 47.824757 0 0 1 65.388716-20.209134 44.862162 44.862162 0 0 1 13.120067 8.041331 36.926638 36.926638 0 0 1 14.38975 29.308535 7.829717 7.829717 0 0 1-1.269684 5.925191z" fill="#E94949" p-id="5009"></path><path d="M271.342024 364.928291l-46.555074-1.481298c-37.032445-1.692912-74.064889-3.068403-111.097334-5.501963-6.66584 0-13.225873-0.634842-19.785906-1.375491a169.291176 169.291176 0 0 1 8.993594-24.018185 389.581318 389.581318 0 0 1 30.895639-58.193842 126.968382 126.968382 0 0 1 24.123993-1.798719 580.986154 580.986154 0 0 1 74.064889 2.010333 624.261211 624.261211 0 0 1 87.290763 14.178136c15.659434 3.703244 30.89564 8.570366 46.343459 12.802645 0 2.327754-2.327754 2.645175-3.809051 3.491631a384.60839 384.60839 0 0 0-74.06489 48.671213c-3.597437 2.962596-6.983261 6.136805-10.580698 9.205207a7.406489 7.406489 0 0 1-5.819384 2.010333z" fill="#FEE493" p-id="5010"></path><path d="M493.007657 828.045464a149.716884 149.716884 0 0 1 74.06489 21.161397 54.067369 54.067369 0 0 1 20.420748 27.404009 199.128746 199.128746 0 0 1 14.178136 68.033891c0 1.798719 0 3.809051 2.327753 4.23228a201.033271 201.033271 0 0 1-27.192395 4.761314 6.560033 6.560033 0 0 1-3.174209-3.068403 124.534821 124.534821 0 0 0-21.161397-22.642694c-8.887787-8.041331-16.929118-16.823311-25.922712-24.758835-4.338086-3.809051-4.761314-4.232279-8.993593 0-8.252945 7.72391-16.823311 15.130399-24.970449 22.854309-4.020665 3.809051-8.147138 7.300682-12.27361 10.580698a164.424055 164.424055 0 0 0-16.50589 19.362679 324.827444 324.827444 0 0 1-42.322794-6.454226c-1.587105 0-3.385824 0-4.655507-1.163877s0-3.491631 0-5.290349a63.484191 63.484191 0 0 0 1.798719-22.219467 248.540608 248.540608 0 0 1 0.952263-31.742096 177.438314 177.438314 0 0 1 5.925191-41.264724 20.209134 20.209134 0 0 1 4.972928-10.580698 129.296136 129.296136 0 0 1 39.99504-9.522629 104.431494 104.431494 0 0 1 17.352346-1.05807 6.242612 6.242612 0 0 1 5.184542 1.375491z" fill="#FA6559" p-id="5011"></path><path d="M430.898957 837.991321a79.778467 79.778467 0 0 0-7.829717 28.991113 330.117793 330.117793 0 0 0-2.750981 50.364125 84.645588 84.645588 0 0 1-3.280017 30.578219 298.164083 298.164083 0 0 1-45.179583-12.167803A395.718124 395.718124 0 0 1 310.384801 909.94007a492.848936 492.848936 0 0 1 40.629882-68.986154 7.72391 7.72391 0 0 0 0.740649-9.522629 91.840463 91.840463 0 0 1-10.580698-37.455672 5.501963 5.501963 0 0 1-0.740649-4.761315 38.93697 38.93697 0 0 1 19.468485-30.15499 60.204174 60.204174 0 0 1 37.032445-9.311015 41.370531 41.370531 0 0 1 25.287869 11.532961 40.524075 40.524075 0 0 1 15.024592 30.260798 10.580698 10.580698 0 0 1-0.740649 5.290349 8.887787 8.887787 0 0 0 1.798719 12.167804 10.580698 10.580698 0 0 1 2.433561 9.734242 28.885307 28.885307 0 0 1-9.84005 19.256872z" fill="#E94949" p-id="5012"></path><path d="M776.252956 366.409589l57.559-1.375491 79.355238-2.010333 21.161397-0.740649A373.710271 373.710271 0 0 1 951.257709 423.22794a334.455879 334.455879 0 0 1 7.089068 54.490597c0 5.184542 0 5.819384-5.925191 4.972928-18.93945-2.645175-37.773094-5.713577-56.712544-8.464559l-50.364125-7.089068a6.030998 6.030998 0 0 1-4.232279-3.809051 309.908659 309.908659 0 0 0-48.353793-72.901013c-0.952263-1.163877-1.798719-2.433561-2.750981-3.49163-4.972928-5.396156-10.580698-10.580698-15.342013-15.553627-1.05807-1.05807-2.539368-2.221947-2.010333-3.703244s2.327754-0.423228 3.597438-1.269684z" fill="#CE5C2A" p-id="5013"></path><path d="M66.076473 524.802645l37.878901-4.126472c10.580698-1.163877 21.161397-2.645175 31.742095-3.703245 13.649101-1.375491 27.192395-2.645175 40.841496-3.914858h4.972929c1.904526 2.327754 0.846456 4.761314 0 7.089068a241.028312 241.028312 0 0 0-4.549701 83.16429c0 2.11614 0.846456 4.338086-0.846456 6.136805s-6.454226 3.068403-9.734242 4.020666c-27.298202 8.464559-54.702211 16.717504-82.000414 24.970448a295.307295 295.307295 0 0 1-10.580698-42.957636 389.263897 389.263897 0 0 1-7.406489-67.71647c-0.423228-0.952263-0.317421-2.010333-0.317421-2.962596z" fill="#FDB052" p-id="5014"></path><path d="M559.031216 168.762141c-2.221947 2.221947-3.914858 4.972928-7.089068 5.925191a9.84005 9.84005 0 0 1-13.649101-6.66584c-1.904526-6.66584 2.327754-12.061996 11.321347-14.178136a13.860715 13.860715 0 0 0-12.908452-5.819384 4.761314 4.761314 0 0 0-3.809052 3.49163 42.322794 42.322794 0 0 1-9.628435 15.024592c-2.750982 2.962596-2.010333 4.761314 0.846456 6.771647a28.250465 28.250465 0 0 0 6.136805 3.280017 5.396156 5.396156 0 0 1 3.809051 4.126472 137.54908 137.54908 0 0 0 5.396157 33.752428 74.911345 74.911345 0 0 1-23.912379 0.846456c-2.327754-1.163877-1.904526-3.280017-1.904526-5.184542v-35.339533a25.076255 25.076255 0 0 1 1.904526-8.147138 31.742095 31.742095 0 0 0-28.462079-43.16925 28.462079 28.462079 0 0 0-22.219467 8.358752 18.516222 18.516222 0 0 1 19.574292 14.601364 17.669766 17.669766 0 0 1-9.205207 19.680099 18.410415 18.410415 0 0 1-19.362679-1.481297 18.833643 18.833643 0 0 1-3.809051-3.703245 46.343459 46.343459 0 0 1-7.406489-17.246538 41.582145 41.582145 0 0 1 1.587105-23.594958c1.05807-3.280017 0-5.184542-3.280017-5.819384a21.161397 21.161397 0 0 0-18.516222 3.597437 13.754908 13.754908 0 0 1 12.591031 11.744576 11.744575 11.744575 0 0 1-6.136805 12.696838 10.580698 10.580698 0 0 1-12.802645-1.05807 28.038851 28.038851 0 0 1-6.771647-30.578219 28.356272 28.356272 0 0 1 25.076255-20.314941 56.924158 56.924158 0 0 1 6.454226 0c5.184542-2.433561 9.099401 1.05807 13.437487 2.962596a7.829717 7.829717 0 0 0 11.850383 0.952263 39.571812 39.571812 0 0 1 17.246538-5.607771c4.126472 0 4.443893-2.11614 3.914859-5.819384a17.987187 17.987187 0 0 1 5.078735-17.88138 156.065303 156.065303 0 0 1 31.001447 0c0 2.539368-2.327754 2.433561-3.703245 3.280016a22.536888 22.536888 0 0 0-10.051664 11.215541 14.283943 14.283943 0 0 0 5.184543 17.88138c1.375491 0.952263 2.750982 1.798719 4.020665 2.856789a46.026038 46.026038 0 0 1 13.754908 22.854308c0 1.269684 0.634842 2.539368 2.010333 3.17421a29.731763 29.731763 0 0 1 22.007853 9.734243 24.653027 24.653027 0 0 1 5.396156 8.781979c0 1.481298 0.634842 3.068403 1.163877 4.549701a20.103327 20.103327 0 0 1-6.136805 19.468485zM844.075233 465.973962c8.676173 1.05807 17.352346 2.010333 26.028518 3.174209l39.571813 5.819384c14.495557 2.11614 28.991114 4.232279 43.486671 6.66584 3.597437 0.634842 4.972928 0 4.761314-3.914858a51.422195 51.422195 0 0 1 0.952263 12.696838v25.393676c0 3.809051-1.05807 5.078735-4.867122 4.549701l-35.868567-4.338087c-8.147138-0.952263-16.400083-2.11614-24.547221-2.539367a297.106014 297.106014 0 0 0-34.493077-1.904526c-3.068403-3.385824-2.856789-7.935524-4.338086-11.956189-3.385824-9.311015-6.030998-18.93945-10.580699-28.038851-0.634842-1.481298-1.798719-3.491631-0.105807-5.60777z" fill="#FC6733" p-id="5015"></path><path d="M463.804929 955.966109A52.903492 52.903492 0 0 1 476.184347 939.248605c14.072329-12.802645 28.250465-25.711097 42.322794-38.619549 2.433561-2.221947 3.914858-2.539368 6.454226 0q19.99752 19.468485 40.312461 38.513742a61.579665 61.579665 0 0 1 11.532961 14.918785 121.678033 121.678033 0 0 1-21.161397 2.645175 60.627402 60.627402 0 0 0-9.205207 1.37549c-1.798719-1.269684-4.020665 0-5.819385-0.952262a17.140732 17.140732 0 0 1-8.147137 0.952262 5.819384 5.819384 0 0 1-4.972929 0l-3.068402 0.952263a160.826617 160.826617 0 0 0-27.827237 0l-8.993594-1.05807c-1.798719-1.269684-4.126472 0-5.925191-0.952262a49.729283 49.729283 0 0 1-17.881381-1.05807z" fill="#F1F1F1" p-id="5016"></path><path d="M534.801416 127.814838c-2.221947-2.856789-2.010333-6.560033-3.280016-9.734243a57.982228 57.982228 0 0 0-11.638769-17.140731 11.638768 11.638768 0 0 1 4.020666-9.205208 54.702211 54.702211 0 0 1 7.829717-7.618103 110.568299 110.568299 0 0 0 14.072329-7.512296c2.645175 2.221947 4.443893 0.634842 6.242612-1.269684s2.010333-5.925191 3.914858-8.358752a38.619549 38.619549 0 0 1 12.061996 0.952263 12.802645 12.802645 0 0 1-4.232279 10.580699c-1.587105 1.587105-1.798719 2.433561 0.529035 3.49163a33.752428 33.752428 0 0 1 18.727836 19.468486 2.221947 2.221947 0 0 0 1.904526 1.37549 37.349866 37.349866 0 0 1 1.375491 13.649101 24.018186 24.018186 0 0 1-3.703245 10.580699 14.178136 14.178136 0 0 1-19.99752 1.269684 13.966522 13.966522 0 0 1-2.539367-18.304609 10.580698 10.580698 0 0 1 7.300682-5.396156h0.846455c0.105807 0 0 0 0 0a23.912379 23.912379 0 0 0-31.742095 20.632362 3.914858 3.914858 0 0 1-1.692912 2.539368z" fill="#FDB052" p-id="5017"></path><path d="M485.072133 89.935937a52.903492 52.903492 0 0 0-21.161397 8.887787c-1.375491 1.05807-2.11614 0-2.962595-0.740649l-4.338087-3.17421c-1.163877-1.587105 0-2.327754 1.05807-3.280016 8.041331-7.72391 7.194875-14.38975-2.645174-19.468485a4.867121 4.867121 0 0 1-1.587105-1.163877c0.740649-3.491631 4.232279-1.587105 6.136805-2.962596h1.904526a21.902046 21.902046 0 0 1 24.758834 16.929118 5.60777 5.60777 0 0 1-1.163877 4.972928z" fill="#FEE976" p-id="5018"></path><path d="M531.838821 84.857202a50.681546 50.681546 0 0 0-12.061997 16.082662 15.976855 15.976855 0 0 1-10.580698-18.304609 21.161397 21.161397 0 0 1 13.860715-16.611696 18.833643 18.833643 0 0 0 2.11614-1.163877c1.692912-1.163877 3.280017 0 4.972928 0a12.802645 12.802645 0 0 0 1.692912 19.99752z" fill="#FDB866" p-id="5019"></path><path d="M453.118424 70.89068a11.956189 11.956189 0 0 1 10.580698 9.945856 11.21554 11.21554 0 0 1-6.136805 11.744576 2.539368 2.539368 0 0 0-1.587105 2.221946 27.615623 27.615623 0 0 0-13.120066-4.232279 33.435007 33.435007 0 0 1-1.375491-20.526555 58.934491 58.934491 0 0 1 10.580699-1.269684c0.846456 0.423228 0 1.481298 1.05807 2.11614z" fill="#FDB052" p-id="5020"></path><path d="M531.838821 84.857202a10.580698 10.580698 0 0 1-2.010333-19.99752 36.926638 36.926638 0 0 1 13.966522 1.05807c2.327754 3.280017 4.5497 6.560033 1.904526 10.580698-0.740649 3.914858-4.232279 4.020665-6.983261 5.184542z" fill="#FC6733" p-id="5021"></path><path d="M485.072133 89.935937a22.536888 22.536888 0 0 0-24.123992-22.11366 156.276917 156.276917 0 0 1 33.435007-2.856788 25.076255 25.076255 0 0 0-3.385824 18.092994c1.163877 6.771647 1.163877 6.771647-5.925191 6.877454z" fill="#FDB052" p-id="5022"></path><path d="M545.699536 76.710064c0.740649-3.809051-1.587105-7.089068-1.904526-10.580698a31.001447 31.001447 0 0 1 12.061996 1.058069 12.485224 12.485224 0 0 1-6.136805 11.95619c-2.433561 1.375491-3.914858 0.740649-4.020665-2.433561z" fill="#FEE875" p-id="5023"></path><path d="M496.922516 958.71709c1.692912-2.010333 4.020665-1.05807 6.030998-0.952263a90.570779 90.570779 0 0 1 21.796239 0.846456z" fill="#F7ADA3" p-id="5024"></path><path d="M453.118424 70.89068c-0.952263 0-1.05807-1.269684-1.05807-2.11614 2.221947-1.587105 4.655507-0.740649 6.983261-0.740649z" fill="#FCB665" p-id="5025"></path><path d="M482.003731 956.812565c2.010333 0 4.232279-0.846456 5.925191 0.952262-2.010333-0.317421-4.126472 0.846456-5.925191-0.952262z" fill="#F6D4CA" p-id="5026"></path><path d="M540.938221 956.812565c1.904526 0 4.126472-0.952263 5.819384 0.952262-1.904526-0.317421-4.126472 0.846456-5.819384-0.952262z" fill="#F7AE97" p-id="5027"></path><path d="M527.923962 957.764827h4.972928a3.280017 3.280017 0 0 1-4.972928 0z" fill="#FCEAD0" p-id="5028"></path><path d="M181.617701 518.560033c-0.952263-1.904526 0.529035-3.809051 0-5.713577 2.750982-8.464559 5.184542-17.034925 8.358751-25.393677a298.164083 298.164083 0 0 1 22.748502-47.401529 347.787559 347.787559 0 0 1 56.924158-71.737136c0.846456-0.846456 3.068403-1.375491 1.692912-3.385823a31.742095 31.742095 0 0 0 10.580698-7.935524 358.156644 358.156644 0 0 1 64.330647-45.179582l19.151064-10.580699a474.121099 474.121099 0 0 1 55.019632-21.161397 185.268031 185.268031 0 0 0 21.796239-6.136805 4.972928 4.972928 0 0 1 2.539368-1.481298 234.045051 234.045051 0 0 1 39.042777-5.396156c8.358752-0.846456 16.611697-1.481298 24.970449-2.010333h10.580698a365.880554 365.880554 0 0 1 64.330647 5.501963 18.198801 18.198801 0 0 1 7.406489 2.750982 363.235379 363.235379 0 0 1 72.583592 22.642695c2.11614 0.952263 4.338086 1.587105 6.454226 2.43356 8.887787 4.655507 17.987187 9.099401 26.769167 13.966522a346.72949 346.72949 0 0 1 62.426121 43.698285c3.068403 2.750982 6.348419 5.290349 9.205208 8.358752s4.761314 1.798719 7.300682 2.11614l-3.491631 1.269684 18.304609 18.304608a138.924571 138.924571 0 0 1 10.580698 72.583592 242.192188 242.192188 0 0 1-18.092994 80.836536 310.860922 310.860922 0 0 1-17.140732 33.752428 1.798719 1.798719 0 0 1-1.163877 0.846456c-2.221947-1.05807-2.433561-3.491631-3.068402-5.396156a188.548047 188.548047 0 0 0-42.322794-69.197768 263.141971 263.141971 0 0 0-162.307915-83.16429 273.299442 273.299442 0 0 0-160.826617 26.451746 251.820624 251.820624 0 0 0-70.467452 50.575739 185.162224 185.162224 0 0 0-52.903492 99.035338 139.982641 139.982641 0 0 0 16.294275 93.850795c3.385824 6.136805 7.300682 11.850382 11.215541 17.669767 0.952263 1.375491 2.11614 2.645175 1.904525 4.443893s-2.433561 1.904526-4.126472 1.798719a431.586691 431.586691 0 0 1-76.075222-10.580699 25.711097 25.711097 0 0 1-9.099401-3.809051 108.134739 108.134739 0 0 1-13.014259-21.902046 6.771647 6.771647 0 0 1 0-4.867121 177.2267 177.2267 0 0 0 10.580698-50.998967 148.129779 148.129779 0 0 0-27.192395-95.226287c-1.05807-0.634842-2.433561-2.327754-1.798718-4.232279z" fill="#FA665A" p-id="5029"></path><path d="M518.930368 266.316181h-8.993593c-2.645175-3.809051-0.529035-8.252945-1.692912-12.379417a30.578219 30.578219 0 0 0 0-3.385824 2.856789 2.856789 0 0 0-2.750982-2.327753 3.17421 3.17421 0 0 0-3.068402 2.116139 14.918785 14.918785 0 0 0-0.740649 4.338087c0 2.539368-1.481298 4.443893-4.232279 4.655507a5.184542 5.184542 0 0 1-5.925192-4.232279 28.144658 28.144658 0 0 1-0.740649-6.877454 70.044224 70.044224 0 0 0 0-13.966522v-2.962596c0-0.952263 0-4.867121-3.280016-4.655507s-3.280017 2.433561-3.491631 4.761314a7.194875 7.194875 0 0 1-2.645174 6.136805 4.126472 4.126472 0 0 1-3.280017 0.634842 21.161397 21.161397 0 0 1-11.109733-11.744575 48.353792 48.353792 0 0 1 5.184542-8.993594 5.290349 5.290349 0 0 1 5.184542-2.856789h17.352346a31.742095 31.742095 0 0 1 21.161397 0c8.147138 0.952263 16.188469-1.798719 24.335606 0h6.454226c8.887787 0 11.850382 2.11614 15.130399 10.580699a10.580698 10.580698 0 0 1 0 7.194875c-1.481298 5.819384-3.280017 11.427154-4.443893 17.352345s-3.280017 7.194875-6.454226 6.983261a7.194875 7.194875 0 0 1-5.819384-8.464558 140.511676 140.511676 0 0 0 0-14.918785c0-2.11614 0-5.60777-2.750982-5.501963s-2.11614 3.385824-2.11614 5.396156v21.161397a31.742095 31.742095 0 0 1-0.740648 6.877454 5.184542 5.184542 0 0 1-5.925192 4.5497 5.396156 5.396156 0 0 1-5.819384-4.972928c-0.529035-2.750982 0-5.60777 0-8.464559s0-3.280017-2.327753-3.385823-2.433561 1.904526-2.539368 3.49163 0 5.290349 0 7.935524a7.72391 7.72391 0 0 1-3.914859 5.925191z" fill="#CB5D2B" p-id="5030"></path><path d="M514.909703 214.470758h-20.526555a116.387683 116.387683 0 0 0 2.539368-30.895639c0-3.385824-0.634842-5.396156-4.972929-4.972928a42.322794 42.322794 0 0 1-20.632362-3.809052c-1.05807 0-2.539368-2.539368-3.385823 0a94.168217 94.168217 0 0 1-10.580699-8.993594c-0.740649-0.740649-1.587105-1.692912-0.740649-2.962595a23.277537 23.277537 0 0 0 11.215541 3.280016 16.611697 16.611697 0 0 0 15.976854-14.283943 17.563959 17.563959 0 0 0-12.061996-18.516222 19.362678 19.362678 0 0 0-9.945856 0 28.038851 28.038851 0 0 1 11.427154-8.78198 31.742095 31.742095 0 0 1 35.339533 7.089068 30.578219 30.578219 0 0 1 8.358752 33.752428 104.748915 104.748915 0 0 0-2.11614 29.625956c0 6.454226 0.211614 13.014259 0.105807 19.468485z" fill="#FDB866" p-id="5031"></path><path d="M466.132683 226.426948a64.542261 64.542261 0 0 0 10.580698 10.580698 95.226286 95.226286 0 0 1 7.089068 31.213061 265.99876 265.99876 0 0 0-36.397602 5.501963 45.60281 45.60281 0 0 1-5.396157 0.634842 97.765654 97.765654 0 0 1 8.887787-19.151064c4.972928-9.628436 10.263278-18.727836 15.236206-28.7795z" fill="#AE825B" p-id="5032"></path><path d="M446.029356 143.685886a65.917752 65.917752 0 0 0 7.089068 16.82331c-1.375491 1.692912-3.280017 1.163877-5.078735 1.481298a16.717504 16.717504 0 0 0-14.918785 11.956189c8.570366-2.433561 14.495557 0 16.505889 6.983261a10.580698 10.580698 0 0 1-7.512296 12.485224 24.547221 24.547221 0 0 1-21.796238-33.752428 20.420748 20.420748 0 0 1 6.983261-9.945856 16.188469 16.188469 0 0 1 18.727836-6.030998z" fill="#FDB052" p-id="5033"></path><path d="M442.114497 193.520975c7.935524-6.030998 8.993594-12.379417 2.856789-17.458152-3.914858-3.17421-7.089068-3.068403-13.437487 0.846456a17.246539 17.246539 0 0 1 16.717504-16.188469h4.972928l2.962595 2.962596c1.481298 3.385824 4.761314 4.972928 7.406489 6.983261a15.342013 15.342013 0 0 1 4.338087 5.078735 25.076255 25.076255 0 0 1-23.17173 18.410415c-0.846456 0-2.010333 0-2.645175-0.634842z" fill="#FEE976" p-id="5034"></path><path d="M446.029356 143.685886a26.134325 26.134325 0 0 0-18.93945 6.030998c-2.327754-3.491631-7.194875-4.020665-8.993594-8.041331a13.225873 13.225873 0 0 0 13.649101-1.269684 10.580698 10.580698 0 0 0 3.49163-12.485224 11.850382 11.850382 0 0 0-10.580698-7.935524 31.742095 31.742095 0 0 0-3.385824 0 21.161397 21.161397 0 0 1 25.605291-5.078735 2.433561 2.433561 0 0 1 1.269684 3.597437 44.333127 44.333127 0 0 0-2.11614 25.182063z" fill="#FDB866" p-id="5035"></path><path d="M765.143222 573.897086a30.684026 30.684026 0 0 1 5.925191-12.379417 240.076049 240.076049 0 0 0 29.414342-113.425088 117.657367 117.657367 0 0 0-8.570365-54.596404 13.120066 13.120066 0 0 1-1.692912-7.194875 302.290556 302.290556 0 0 1 42.322794 58.61707c3.914858 6.983261 7.72391 14.178136 11.638768 21.161397a84.645588 84.645588 0 0 0 5.819384 15.553626 241.980574 241.980574 0 0 1 9.099401 29.943377l1.798719 6.136805a15.765241 15.765241 0 0 1-2.010333 4.443894 142.522009 142.522009 0 0 0-29.096921 75.546187 162.413722 162.413722 0 0 0 7.829717 67.187435c0.952263 2.856789 2.856789 5.713577 1.692912 9.099401a123.15933 123.15933 0 0 1-16.929118 28.038851 264.517462 264.517462 0 0 1-67.822277 62.214507 320.171936 320.171936 0 0 1-68.77454 34.38727 36.080182 36.080182 0 0 0-14.072329-33.964042 276.367845 276.367845 0 0 0 35.974375-24.970448 167.38665 167.38665 0 0 0 59.886753-94.591445 138.924571 138.924571 0 0 0-1.587105-63.484191c-0.846456-2.539368-2.433561-5.078735-0.846456-7.72391z" fill="#F55954" p-id="5036"></path><path d="M839.313919 674.307915a173.100227 173.100227 0 0 1-10.580699-70.679066 143.368465 143.368465 0 0 1 32.694359-85.597851 165.905352 165.905352 0 0 1 4.972928 29.308535 252.561273 252.561273 0 0 1 1.163877 37.244059 191.299029 191.299029 0 0 1-17.881381 71.737135 62.1087 62.1087 0 0 1-10.369084 17.987188z" fill="#F6F5F5" p-id="5037"></path><path d="M518.930368 266.316181V251.820624c0-3.068403 1.163877-5.078735 4.126473-5.078735s3.809051 2.433561 3.914858 4.972928 0 5.290349 0 7.935524 0.740649 5.290349 4.338087 5.713577 4.443893-1.692912 4.972928-4.655507a189.711924 189.711924 0 0 0 0.423228-23.277537v-8.464559a3.703244 3.703244 0 0 1 3.703244-3.385823c2.11614 0 2.856789 1.163877 3.17421 3.068402a84.645588 84.645588 0 0 1 1.481298 18.410416v2.43356c0 3.17421 1.375491 5.819384 4.5497 6.242613s4.655507-2.327754 4.972928-5.078736c1.269684-8.676173 4.443893-16.929118 6.348419-25.499483 10.580698 15.44782 20.314941 31.742095 29.83757 47.824757a385.878074 385.878074 0 0 0-71.842943-6.66584z" fill="#956D44" p-id="5038"></path><path d="M563.580916 148.870428c-1.269684-1.163877-0.740649-2.645175-0.952263-4.020666a109.82765 109.82765 0 0 0 12.802645-9.945856 38.513743 38.513743 0 0 1 6.348419-7.512296 15.130399 15.130399 0 0 1 13.120067 8.358752 24.970448 24.970448 0 0 1 0.529035 30.049183 18.622029 18.622029 0 0 1-14.812978 8.78198 9.099401 9.099401 0 0 1-9.099401-10.580698c0-6.66584 5.184542-10.580698 14.178136-9.945857a14.283943 14.283943 0 0 0-22.11366-5.184542z" fill="#FDB052" p-id="5039"></path><path d="M533.743346 180.612523c-3.068403-4.020665-8.570366-3.914858-12.167803-7.300682s-3.280017-4.020665 0-6.983261a40.312461 40.312461 0 0 0 9.311015-13.33168c2.645175-6.454226 4.761314-7.72391 10.580698-6.136805a19.045257 19.045257 0 0 1 8.676173 4.761314c0.952263 0.846456 2.433561 1.692912 2.010333 3.17421s-2.327754 0.846456-3.491631 0.740649a8.993594 8.993594 0 0 0-8.887787 5.819384 9.099401 9.099401 0 0 0 1.163877 9.84005c2.750982 3.809051 6.877454 3.491631 10.580699 3.49163a23.17173 23.17173 0 0 1-15.130399 4.655507c-0.740649 0.211614-2.433561-0.952263-2.645175 1.269684z" fill="#FDB866" p-id="5040"></path><path d="M584.742313 116.599297c0.740649-4.5497-1.375491-9.099401 0-13.754908a17.775573 17.775573 0 0 1 24.441414 6.560033 17.034925 17.034925 0 0 1-6.242613 23.489151c-4.761314 1.05807-7.618103 0-9.0994-4.126472s0-7.618103 6.771647-11.109734a11.744575 11.744575 0 0 0-11.532962-1.904526c-1.481298 0.317421-2.645175 1.692912-4.338086 0.846456z" fill="#FC6733" p-id="5041"></path><path d="M563.580916 148.870428a3.703244 3.703244 0 0 1 2.539368-3.809052 17.246539 17.246539 0 0 1 22.11366 11.95619c-0.846456 0.740649-1.481298 0-2.221947 0a8.993594 8.993594 0 0 0-12.485224 4.443893 8.887787 8.887787 0 0 0 4.972928 12.27361l2.221947 1.163877a22.642695 22.642695 0 0 1-21.690432-5.925191 28.356272 28.356272 0 0 0 4.5497-20.103327z" fill="#FEE976" p-id="5042"></path><path d="M584.742313 116.599297a12.379417 12.379417 0 0 1 18.727836 2.750982c-4.972928 0-9.311015 1.481298-9.0994 7.300682s3.914858 6.454226 8.464558 6.348419a11.638768 11.638768 0 0 1-7.935523 2.856789 32.800165 32.800165 0 0 0-13.120067-8.041331q-0.846456 0 0-1.05807c0.634842-3.491631 3.068403-6.66584 2.962596-10.157471z" fill="#FDB865" p-id="5043"></path><path d="M212.619147 696.421575a290.22856 290.22856 0 0 0 42.322794 8.887786c15.024592 2.010333 30.049184 3.385824 45.179583 4.443894a5.819384 5.819384 0 0 0 1.904525-0.529035c4.5497 1.05807 6.136805 5.290349 8.78198 8.358752a218.491424 218.491424 0 0 0 41.476338 36.080182c2.962596 2.010333 6.560033 3.17421 8.358752 6.771647a40.418268 40.418268 0 0 0-18.93945 33.752428 338.582352 338.582352 0 0 1-64.648068-34.810498 267.374251 267.374251 0 0 1-62.320314-59.886754 24.547221 24.547221 0 0 1-2.11614-3.068402z" fill="#F55954" p-id="5044"></path><path d="M181.617701 518.560033A146.33106 146.33106 0 0 1 211.666884 598.655921a169.291176 169.291176 0 0 1-12.061996 75.757801 81.577185 81.577185 0 0 1-10.580699-21.161397 220.290143 220.290143 0 0 1-13.014259-44.015706 212.777847 212.777847 0 0 1-2.010332-40.524075 299.856995 299.856995 0 0 1 6.030998-47.507336 3.809051 3.809051 0 0 1 1.587105-2.645175z" fill="#F6F5F5" p-id="5045"></path><path d="M360.325698 760.328994a215.740442 215.740442 0 0 1-56.395123-48.988634 29.308535 29.308535 0 0 0-2.11614-2.11614 176.803472 176.803472 0 0 1-24.441413-44.862162 146.754288 146.754288 0 0 1 7.72391-114.588964 228.014052 228.014052 0 0 1 92.898533-97.977268 271.077495 271.077495 0 0 1 105.806984-36.397603 279.542054 279.542054 0 0 1 165.587932 28.673693 253.301922 253.301922 0 0 1 63.484191 45.814424 204.207481 204.207481 0 0 1 52.903492 83.904939 168.021492 168.021492 0 0 1 6.242612 45.179583 148.764621 148.764621 0 0 1-31.742095 88.348832 213.835917 213.835917 0 0 1-62.849349 55.019632 7.72391 7.72391 0 0 1-5.501963 1.904526c-15.976855-13.33168-43.16925-19.256871-61.579666-5.078735a42.322794 42.322794 0 0 0-18.622029 29.83757 31.742095 31.742095 0 0 0 0 5.925191 7.300682 7.300682 0 0 1-5.078735 2.856788 318.161604 318.161604 0 0 1-45.814425 5.925191c-8.252945 0-16.50589 1.163877-24.864641 0.846456a352.019839 352.019839 0 0 1-73.324241-9.311014 10.580698 10.580698 0 0 1-6.560033-3.280017c0.740649-19.891713-21.161397-40.735689-41.264724-41.05311a70.467452 70.467452 0 0 0-34.493077 9.416822z" fill="#F9E7DA" p-id="5046"></path><path d="M436.083499 792.071089a338.582352 338.582352 0 0 0 66.658401 10.580699 332.762968 332.762968 0 0 0 84.010746-6.136806l4.761314-1.163876a11.427154 11.427154 0 0 1-2.750982 16.294275c-1.904526 1.481298-1.692912 4.972928-1.269683 7.512296s0 4.020665-3.385824 4.443894a407.356892 407.356892 0 0 1-46.66088 3.703244c-12.908452 0-25.922711 0.529035-38.831164 0a6.454226 6.454226 0 0 0-5.60777 1.269684h-4.972928a57.241579 57.241579 0 0 0-15.871048-1.481298c-9.205208-1.05807-18.410415-1.904526-27.509816-3.280016-2.221947 0-5.290349 0-4.443893-4.126473a14.812978 14.812978 0 0 0-5.713578-12.908452c-2.010333-1.692912-2.11614-2.856789-0.952262-4.867121a14.283943 14.283943 0 0 0 2.539367-9.84005z" fill="#F55954" p-id="5047"></path><path d="M440.104165 819.05187c2.327754 5.290349 7.618103 3.17421 11.321347 3.703245a251.926431 251.926431 0 0 0 35.868568 3.280016c2.856789 0 1.587105 0.952263 0.740649 2.010333a179.871874 179.871874 0 0 0-56.818351 9.945857 53.432527 53.432527 0 0 0 8.887787-18.939451z" fill="#F14E4E" p-id="5048"></path><path d="M581.779717 126.650961v1.05807a33.435007 33.435007 0 0 1-19.151064 17.034924 27.086588 27.086588 0 0 0-27.933044-17.034924 24.970448 24.970448 0 0 1 34.916305-23.912379c0.634842 1.163877 0 1.375491-0.952263 2.010333a10.580698 10.580698 0 0 0-9.522628 8.676173 11.744575 11.744575 0 0 0 3.703244 12.908452 12.27361 12.27361 0 0 0 13.225873 2.539367 45.708617 45.708617 0 0 0 5.713577-3.280016z" fill="#FEE976" p-id="5049"></path><path d="M568.448037 105.806985l0.952263-2.010333c0.740649 0 1.904526 0 1.481298 1.269684s-1.269684 0.634842-2.433561 0.740649z" fill="#FDBB68" p-id="5050"></path><path d="M483.802449 268.220707l-6.877454-30.89564c3.597437 0 4.972928-1.904526 4.867122-5.184542v-2.433561a5.290349 5.290349 0 0 1 5.184542-4.972928c2.750982 0 3.17421 2.327754 3.703244 4.443893s1.05807 2.856789 0 4.23228a52.903492 52.903492 0 0 1 0 15.024592 8.676173 8.676173 0 0 1 0.952263 4.761314c0 3.17421 1.269684 5.078735 4.655508 5.078735s3.280017-2.539368 3.280016-4.972928v-1.481298c0-3.703244 1.798719-6.242612 5.925191-5.396156s4.020665 3.703244 3.068403 6.877454a37.984708 37.984708 0 0 1 0 13.014259z" fill="#B8663A" p-id="5051"></path><path d="M508.878705 266.421988v-13.014259c2.11614 4.232279 0 8.676173 0.952263 12.908452h-0.952263zM490.997324 248.540608v-15.024592a24.758834 24.758834 0 0 1 0 15.024592z" fill="#B8663A" p-id="5052"></path><path d="M588.233944 726.364951c3.703244-8.041331 7.089068-15.553627 10.580698-23.065922 0-0.952263 0.634842-2.433561 2.010333-2.645175s1.692912 1.269684 2.221946 2.221947c3.491631 6.030998 3.491631 6.030998 9.311015 2.43356s7.618103-4.5497 8.78198 3.809052c0.740649 5.078735 2.539368 6.030998 6.983261 4.232279 1.587105-0.634842 4.020665-2.010333 5.078735-0.529035s-1.163877 3.491631-2.327754 4.867122a83.904939 83.904939 0 0 1-22.854308 22.642694 19.468485 19.468485 0 0 1-28.991114-5.184542c-3.17421-4.020665-6.66584-7.935524-9.628436-12.061996a6.030998 6.030998 0 0 0-6.771647-2.750982 60.204174 60.204174 0 0 1-11.321347 1.587105c-4.972928 0-5.925191 2.645175-6.348419 6.66584-1.692912 13.543294-3.491631 26.980781-5.29035 40.524075 0 1.375491 0 3.491631-1.37549 4.020666s-2.645175-1.692912-3.597438-2.856789c-4.020665-4.867121-8.252945-9.628436-11.850382-14.812978s-3.703244-2.645175-5.819384 0c-4.232279 6.136805-8.887787 11.956189-13.225873 18.092995-2.327754 3.280017-3.809051 4.443893-6.560033 0-3.809051-6.030998-8.252945-11.638768-12.273611-17.56396-1.692912-2.539368-3.068403-3.068403-5.925191-1.481298-6.877454 3.703244-13.860715 7.089068-21.161397 10.580699-1.587105 0.740649-3.385824 2.750982-4.867121 1.587105s0-4.020665 0-6.030998a425.767307 425.767307 0 0 1 17.140731-66.764208c4.232279-12.591031 8.887787-24.970448 14.178136-37.138252 1.269684-2.962596 2.327754-3.17421 4.549701-1.058069s6.454226 5.713577 9.416821 8.887786 3.385824 1.798719 5.396157 0c6.030998-4.443893 12.167803-8.676173 18.092994-13.225873 2.433561-1.904526 3.597437-1.375491 4.5497 1.375491 2.327754 6.560033 4.867121 13.014259 6.877454 19.680099 0.952263 3.280017 1.904526 4.338086 5.396157 2.856789 5.290349-2.327754 10.580698-3.914858 16.400082-5.819384 1.05807 0 2.327754-1.163877 3.17421 0s0 1.904526 0 2.750981a253.936764 253.936764 0 0 0-9.945857 37.455673c-0.846456 3.914858 0 4.761314 3.809052 3.280016s10.580698-3.280017 15.553627-5.290349a5.290349 5.290349 0 0 1 7.194874 1.904526c4.232279 6.030998 8.676173 11.21554 13.437488 16.82331z" fill="#DB3333" p-id="5053"></path><path d="M655.950414 676.529862a79.355239 79.355239 0 0 1-68.986154-37.984708c-0.634842-0.952263-0.952263-2.11614-1.587105-3.068403-1.692912-2.750982-0.634842-3.491631 2.11614-4.232279l57.029965-15.342013c11.956189-3.280017 23.912379-6.348419 35.868567-9.734242a4.867121 4.867121 0 0 1 6.560033 2.327753 88.983674 88.983674 0 0 1 10.580699 24.335607 32.376937 32.376937 0 0 1-28.356272 42.851829 65.071296 65.071296 0 0 1-13.225873 0.846456zM384.661305 676.424055a58.61707 58.61707 0 0 1-20.526555-2.962596 31.107254 31.107254 0 0 1-21.161397-37.56148 84.645588 84.645588 0 0 1 11.956189-28.144658 4.126472 4.126472 0 0 1 5.396156-2.116139q46.66088 12.696838 93.321761 25.182062c4.443893 1.163877 3.703244 2.856789 1.904525 5.819384a79.143625 79.143625 0 0 1-70.890679 39.783427z" fill="#332020" p-id="5054"></path><path d="M332.921689 697.479645a27.72143 27.72143 0 0 1-13.966522-4.338087 7.72391 7.72391 0 0 1 0-12.379417 24.335607 24.335607 0 0 1 27.298202 0.105807 7.618103 7.618103 0 0 1 0 12.379417 26.134325 26.134325 0 0 1-13.33168 4.23228zM703.140329 681.396983a17.352346 17.352346 0 0 1 11.321348 4.443893 6.877454 6.877454 0 0 1-0.952263 11.744576 23.700765 23.700765 0 0 1-25.28787 0 7.512296 7.512296 0 0 1 0-12.273611 25.711097 25.711097 0 0 1 14.918785-3.914858z" fill="#F090AF" p-id="5055"></path><path d="M532.791083 678.540194c2.010333 1.481298 3.809051 0 5.607771 0l16.188468-5.60777c1.481298 1.05807 0.529035 1.904526 0 2.750982a257.640008 257.640008 0 0 0-9.0994 37.032444 5.078735 5.078735 0 0 1-3.914859 4.549701c-6.136805 1.904526-12.27361 4.020665-18.410415 6.136805-1.481298 0-3.280017 0-4.338087 2.645174 4.020665 1.798719 7.72391-0.634842 11.532962-0.634841a57.135772 57.135772 0 0 0 9.311014-1.481298c2.221947 0 3.597437 0 3.068403 2.962595-2.221947 13.966522-4.020665 28.038851-6.030998 43.063443a64.330647 64.330647 0 0 1-10.580699-13.225873c4.232279 0 5.184542 4.020665 8.252945 6.242612 0.740649-3.809051 1.05807-7.512296 1.481298-11.21554a6.983261 6.983261 0 0 0-2.539368-5.713577c-3.491631-3.491631-7.194875-6.983261-10.580698-10.580699s-4.020665-2.010333-6.348419 0c-4.338086 3.491631-7.935524 7.618103-11.850383 11.321348s-4.761314 3.491631-7.935523 0-4.972928-6.66584-7.194875-10.580699a4.020665 4.020665 0 0 0-5.607771-2.433561l-19.151064 9.628436c-6.348419 3.280017-4.5497 9.522629-6.242612 15.342013a222.194668 222.194668 0 0 0 21.161397-9.205208c1.481298-0.740649 4.338086-3.491631 4.761314 1.269684a133.528415 133.528415 0 0 0-21.161397 9.628436c-2.433561 1.05807-5.396156 4.020665-6.983261 2.856788s0-5.290349 0-7.72391a482.585658 482.585658 0 0 1 28.673693-94.274023c1.481298-3.703244 2.645175-4.232279 5.607771-1.163877a35.762761 35.762761 0 0 0 11.427154 9.205208c0 2.962596-2.221947 2.433561-3.809052 1.058069s-5.290349-4.020665-7.618102-6.348419-2.645175-1.375491-3.809052 0.634842c-3.703244 6.560033-3.597437 8.252945 2.327754 12.908452a67.399049 67.399049 0 0 1 6.983261 6.348419 5.819384 5.819384 0 0 0 8.676172 1.05807c2.433561-1.692912 5.078735-3.068403 7.618103-4.655507a4.020665 4.020665 0 0 1 6.242613 1.481298c1.692912 2.645175 3.17421 5.396156 4.761314 8.147138a4.761314 4.761314 0 0 0 6.560033 2.645174c4.972928-1.798719 10.051664-3.385824 15.130399-5.078735s4.867121-5.184542 5.60777-8.676173-1.587105-1.481298-2.750982-1.163877c-3.491631 0.846456-6.877454 2.539368-10.580698 3.17421-1.798719 0.634842-4.761314 1.692912-4.443894-2.327754z" fill="#FC7485" p-id="5056"></path><path d="M483.802449 751.123786c-1.269684-3.280017-3.068403-0.634842-4.232279 0-7.406489 3.280017-14.707171 6.771647-22.854309 10.580698l2.539368-14.38975a5.078735 5.078735 0 0 1 3.068403-3.597437c7.406489-3.809051 14.812978-7.406489 22.113659-11.427154 2.750982-1.481298 4.020665-0.634842 5.607771 1.692911 2.750982 4.126472 5.819384 8.041331 8.570365 12.167804 1.481298 2.11614 2.433561 1.904526 4.126473 0 4.867121-4.761314 10.051664-9.205208 14.812978-13.966522 2.010333-2.010333 3.068403-1.481298 4.655507 0a139.241992 139.241992 0 0 0 11.321347 11.21554 9.734243 9.734243 0 0 1 3.809052 11.532961c-0.952263 2.962596 0 6.348419-1.798719 9.522629-3.491631-2.327754-4.972928-6.560033-8.676173-8.464559-7.089068-8.676173-7.089068-8.676173-13.754908 0-3.17421 4.232279-6.560033 8.358752-9.628435 12.591031s-3.280017 3.597437-5.607771 0c-4.338086-5.60777-9.099401-11.427154-14.072329-17.458152z" fill="#FEFEFE" p-id="5057"></path><path d="M537.869819 720.333953c9.84005-3.385824 19.785906-6.66584 29.625956-10.580698a4.232279 4.232279 0 0 1 5.819384 1.798719c4.020665 5.290349 8.570366 10.580698 12.802645 15.236205 2.010333 2.433561 3.280017 2.11614 4.5497-0.634842 2.327754-5.290349 4.761314-10.580698 7.089068-15.871047a14.38975 14.38975 0 0 1 3.385824-5.925191c5.184542 6.877454 5.290349 6.983261 12.696838 2.116139 3.068403-2.11614 5.184542-2.962596 5.184542 2.11614v1.375491c1.375491 6.66584 1.375491 6.66584 7.72391 5.184542h1.481298a58.405456 58.405456 0 0 1-16.400083 19.151064 30.472412 30.472412 0 0 1-16.294275 7.72391 15.342013 15.342013 0 0 1-13.754909-6.454226c-4.232279-5.290349-8.464559-10.580698-12.591031-15.976855a4.126472 4.126472 0 0 0-4.5497-1.798718c-8.676173 1.375491-17.352346 2.327754-26.028518 3.385823-0.740649 0.529035-0.952263 0.105807-0.740649-0.846456z" fill="#FC7385" p-id="5058"></path><path d="M532.791083 678.540194c0.529035 3.385824 2.962596 1.904526 4.549701 1.481298 4.972928-1.375491 9.84005-3.068403 14.707171-4.5497a12.591031 12.591031 0 0 1-8.78198 14.283943c-5.078735 1.692912-10.580698 3.280017-15.130399 5.078735a3.068403 3.068403 0 0 1-4.443893-1.587105c-2.010333-3.597437-4.338086-7.089068-6.348419-10.580698s-2.221947-2.327754-4.23228-0.952263-6.877454 4.020665-10.580698 6.136805a3.703244 3.703244 0 0 1-5.184542 0c-4.126472-3.809051-8.358752-7.618103-12.696839-11.21554a4.867121 4.867121 0 0 1-1.587104-6.771648c3.914858-9.099401 3.809051-9.099401 11.21554-2.962595 1.375491 1.163877 2.856789 2.327754 4.126472 3.597437s2.221947 1.163877 3.068403 0c6.030998-4.020665 12.167803-7.935524 18.092994-12.061996 2.962596-2.11614 4.126472-1.269684 5.184543 1.692912 2.962596 5.501963 5.501963 11.956189 8.04133 18.410415z" fill="#FEFEFE" p-id="5059"></path><path d="M537.869819 720.333953l0.952263 1.05807c-1.587105 1.692912-3.703244 0-5.501964 1.05807a6.771647 6.771647 0 0 1 4.549701-2.11614z" fill="#EE5759" p-id="5060"></path><path d="M586.96426 633.466419l24.335606-6.66584c22.960116-6.136805 45.920231-12.27361 68.880347-18.62203a4.020665 4.020665 0 0 1 5.501964 2.221947 75.757801 75.757801 0 0 1 10.580698 28.356272 27.827237 27.827237 0 0 1-20.314941 32.588551 75.228766 75.228766 0 0 1-73.112627-16.82331 62.743542 62.743542 0 0 1-15.871047-21.05559zM384.555498 674.519529a50.152511 50.152511 0 0 1-28.462079-7.300682 28.673693 28.673693 0 0 1-11.215541-31.742096 72.795206 72.795206 0 0 1 10.580699-25.816904 3.280017 3.280017 0 0 1 4.443893-1.692912l92.157884 24.653028c3.809051 1.05807 1.692912 2.856789 0.846456 4.232279a76.181029 76.181029 0 0 1-48.77702 35.44534 73.218434 73.218434 0 0 1-19.574292 2.221947z" fill="#FEFEFE" p-id="5061"></path></svg>