<?xml version="1.0" standalone="no"?><!DOCTYPE svg PUBLIC "-//W3C//DTD SVG 1.1//EN" "http://www.w3.org/Graphics/SVG/1.1/DTD/svg11.dtd"><svg t="1550212862278" class="icon" style="" viewBox="0 0 1024 1024" version="1.1" xmlns="http://www.w3.org/2000/svg" p-id="4768" xmlns:xlink="http://www.w3.org/1999/xlink" width="200" height="200"><defs><style type="text/css">@font-face { font-family: "Roboto Condensed"; src: url("chrome-extension://lienonopcegannlgdkgonpofbhgmclcc/RobotoCondensed-Regular.ttf"); }
</style></defs><path d="M0 511.456476V4.565605C0 0.869639 0.869639 0 4.565605 0h1015.194905c3.695966 0 4.565605 0.869639 4.565605 4.565605v1014.86879c0 3.695966-0.869639 4.565605-4.565605 4.565605H4.89172c-3.695966 0-4.565605-0.869639-4.565605-4.565605q-0.326115-254.043312-0.326115-507.977919z" fill="#FEFEFE" p-id="4769"></path><path d="M389.924416 940.29724a220.888323 220.888323 0 0 1-32.611465-10.870488 431.232272 431.232272 0 0 1-50.112951-21.740977 37.068365 37.068365 0 0 1-3.587261-2.500212 34.242038 34.242038 0 0 1 6.304883-24.241189 162.405096 162.405096 0 0 1 32.611465-36.198726 139.35966 139.35966 0 0 1 23.806369-16.197028c11.848832-6.196178 24.132484-11.848832 35.872612-18.26242 6.304883-4.022081 12.935881-7.391932 19.023355-11.631423a23.697665 23.697665 0 0 0 9.783439-12.174947 341.985563 341.985563 0 0 1 29.459023-56.417834 39.025053 39.025053 0 0 1 9.457325-10.870489 20.327813 20.327813 0 0 1 33.481104 13.153291 31.307006 31.307006 0 0 1 0 15.762208 54.352442 54.352442 0 0 0 0 27.502336c1.413163 7.283227 3.587261 14.457749 5.435244 21.740976a51.852229 51.852229 0 0 1 2.174098 23.915075 32.611465 32.611465 0 0 0-0.652229 3.804671 69.245011 69.245011 0 0 1-2.391508 8.587685 25.763057 25.763057 0 0 1-12.501061 14.892569 82.941826 82.941826 0 0 0-33.263695 29.241614c-6.522293 9.783439-15.653503 17.175372-22.393205 26.632696a97.834395 97.834395 0 0 1-30.546073 27.284926 51.852229 51.852229 0 0 1-19.349469 8.587686zM738.214862 895.293418a41.199151 41.199151 0 0 1-14.783864 9.457325 489.171975 489.171975 0 0 1-76.093418 32.611465 4.565605 4.565605 0 0 1-1.521869 0 47.395329 47.395329 0 0 1-15.327388-8.9138 171.318896 171.318896 0 0 1-43.481954-44.351593 40.546921 40.546921 0 0 0-3.369851-4.23949 95.986412 95.986412 0 0 0-35.546497-30.872187 27.284926 27.284926 0 0 1-13.58811-16.305732 85.985563 85.985563 0 0 1-2.282803-10.326964 68.810191 68.810191 0 0 1 1.956688-25.871763 134.794055 134.794055 0 0 0 6.848408-34.024628 38.155414 38.155414 0 0 0-1.630573-12.283652 35.002972 35.002972 0 0 1 0-18.69724 19.566879 19.566879 0 0 1 15.001273-16.305732 21.740977 21.740977 0 0 1 21.740977 6.957112 77.397877 77.397877 0 0 1 10.870488 14.45775 336.115499 336.115499 0 0 1 22.610616 45.329936 35.329087 35.329087 0 0 0 17.610191 20.001699c2.826327 1.521868 5.326539 3.369851 8.044162 5.000424 15.218684 8.696391 31.198301 15.870913 46.52569 24.567304a192.733758 192.733758 0 0 1 18.805944 12.935881 200.451805 200.451805 0 0 1 26.958811 27.719745 66.418684 66.418684 0 0 1 9.457325 16.197028 9.892144 9.892144 0 0 1 1.195754 6.957112z" fill="#E94949" p-id="4770"></path><path d="M945.732484 618.095966a168.709979 168.709979 0 0 1-7.174522 26.741401 455.90828 455.90828 0 0 1-30.111253 71.853928c-2.826327 5.435244-5.978769 10.870488-9.022505 16.088323a13.261996 13.261996 0 0 1-6.739703 1.195754h-14.892569a17.827601 17.827601 0 0 0-16.305732 13.696815 17.175372 17.175372 0 0 0 9.566029 19.349469c1.413163 0.760934 3.695966 0.869639 3.695966 3.369851-1.195754 0.652229-1.956688 1.847983-3.152441 2.391508a18.588535 18.588535 0 0 0-10.870489 14.349044 9.022505 9.022505 0 0 1-0.978344 3.261147 468.844161 468.844161 0 0 1-46.743099 50.112951 59.352866 59.352866 0 0 1-6.304884 4.783015 15.544798 15.544798 0 0 1-12.283651 0c-1.630573-1.956688 0-3.043737 1.304458-4.022081a20.219108 20.219108 0 0 0 6.739703-17.392781v-2.500212c0-9.239915 0-9.239915 9.34862-10.109554a21.088747 21.088747 0 0 0 19.566879-21.740977 20.436518 20.436518 0 0 0-20.001699-20.653928h-2.935031a5.000425 5.000425 0 0 1-5.870064-5.652654v-7.500637c0-5.326539 0-5.761359-5.652654-5.761359h-26.523992a20.110403 20.110403 0 0 1-6.413588 0c-3.152442-2.608917 0-3.695966 1.304459-4.891719 5.000425-4.348195 10.326964-8.370276 15.327388-12.718472a238.498514 238.498514 0 0 0 52.613164-65.22293 210.887473 210.887473 0 0 0 18.47983-42.394904c1.087049-3.369851 0.869639-7.391932 4.565605-9.674735a24.893418 24.893418 0 0 1 10.000849 0 13.58811 13.58811 0 0 0 7.391932 0 262.848408 262.848408 0 0 1 30.002548 0 12.935881 12.935881 0 0 0 6.848408 0 264.9138 264.9138 0 0 1 31.089597 0 6.630998 6.630998 0 0 1 4.130785 3.043737z" fill="#FEC5FA" p-id="4771"></path><path d="M108.704883 317.092144a451.125265 451.125265 0 0 1 51.85223-83.26794 3.043737 3.043737 0 0 1 0.869639 0c3.804671-0.760934 3.152442 2.391507 3.369851 4.23949a72.506157 72.506157 0 0 0 0.869639 13.044586c0 3.152442-1.739278 5.217834-3.261146 7.500637a82.289597 82.289597 0 0 0-14.45775 47.830149 83.376645 83.376645 0 0 0 15.109979 46.634395c1.413163 2.065393 3.913376 4.022081 2.065393 7.065817a19.023355 19.023355 0 0 0-2.065393 10.870488v152.186837a22.719321 22.719321 0 0 1-0.760934 8.805096c-2.608917 3.043737-4.89172 0.652229-6.957113-0.543525-8.044161-4.565605-7.935456-4.565605-12.718471 3.369851s-10.870488 16.849257-16.523142 25.436943c-1.956688 3.152442-1.739278 4.783015 1.413163 6.739703s7.391932 4.4569 10.870488 6.848408c5.978769 4.022081 6.087473 5.10913 1.195754 10.109554l-2.500212 2.500212c-10.870488 10.870488-10.870488 10.870488-25.436943 9.892144a3.043737 3.043737 0 0 1-3.261146-2.391507 35.981316 35.981316 0 0 1 0.326114-7.718047V327.310403v-10.218259z" fill="#FEB0FA" p-id="4772"></path><path d="M932.361783 357.96518a449.059873 449.059873 0 0 1 19.566879 73.049682 180.232696 180.232696 0 0 1 3.478557 24.784713 7.718047 7.718047 0 0 1-5.652654 1.521869H836.810191c-2.826327 0-4.022081-2.608917-5.217834-4.89172a333.941401 333.941401 0 0 0-41.416561-62.396603c-2.065393-2.391507-4.4569-4.4569-6.304883-7.065817-6.196178-7.391932-13.479406-13.479406-19.892994-20.545223-1.413163-1.521868-4.67431-3.587261 0-5.435244a37.068365 37.068365 0 0 1 7.391932 0h151.752017a16.740552 16.740552 0 0 1 9.239915 0.978343z" fill="#FEC6FA" p-id="4773"></path><path d="M288.50276 123.597452a395.685775 395.685775 0 0 1 49.134607-24.784713 139.57707 139.57707 0 0 1 24.567304-9.13121c2.391507 2.717622 1.630573 5.978769 1.630573 9.022505V293.285775a5.000425 5.000425 0 0 1-3.369851 5.000425 382.423779 382.423779 0 0 0-42.177495 23.806369c-1.304459 0.869639-2.717622 2.065393-4.4569 0.543524a14.783864 14.783864 0 0 1 0-6.413588 80.224204 80.224204 0 0 0-22.501911-68.375371 10.870488 10.870488 0 0 1-3.478556-5.870064 52.830573 52.830573 0 0 1 0-7.935456v-103.487049a28.371975 28.371975 0 0 1 0.652229-6.957113z" fill="#FEB9FA" p-id="4774"></path><path d="M414.0569 74.78896a136.424628 136.424628 0 0 1 26.089172-5.435245 346.007643 346.007643 0 0 1 38.698939-4.891719 9.022505 9.022505 0 0 1 1.630573 6.630998v121.749469a12.392357 12.392357 0 0 1-0.869639 5.870064 2.935032 2.935032 0 0 1-2.391508 1.521868c-5.10913 0-5.978769 3.261146-5.761358 7.609342a206.539278 206.539278 0 0 0 0.652229 23.588959 200.234395 200.234395 0 0 1 0 31.850531 5.543949 5.543949 0 0 1-4.783015 2.935032 422.535881 422.535881 0 0 0-45.547346 9.239915 8.9138 8.9138 0 0 1-5.326539 0c-1.956688-0.869639-2.282803-2.717622-2.500213-4.565605a56.526539 56.526539 0 0 1 0-5.978769q-0.869639-89.355414-0.869639-178.710828a66.636093 66.636093 0 0 1 0.978344-11.414012z" fill="#FEBDFA" p-id="4775"></path><path d="M535.697665 832.461996a33.807219 33.807219 0 0 0 17.501486 17.936305 82.072187 82.072187 0 0 1 31.415711 29.350319 79.24586 79.24586 0 0 1 8.9138 29.241614 168.927389 168.927389 0 0 1 3.478557 34.024628 14.892569 14.892569 0 0 0 1.630573 6.630998 178.384713 178.384713 0 0 1-25.002123 4.022081 3.043737 3.043737 0 0 1-1.739278-1.195754 106.8569 106.8569 0 0 0-21.740977-25.328238c-10.218259-9.457325-20.545223-18.805945-30.219958-28.915499-2.608917-2.717622-4.4569-3.478556-7.718046-0.652229l-27.176221 24.784713c-4.348195 4.022081-9.022505 7.826752-13.261996 12.066242a63.592357 63.592357 0 0 0-12.827176 16.957962 5.543949 5.543949 0 0 1-2.500212 2.935032 344.81189 344.81189 0 0 1-41.960085-7.065818 195.66879 195.66879 0 0 1-24.784714-6.630997 183.493843 183.493843 0 0 0 31.198302-18.371126 241.650955 241.650955 0 0 0 20.980042-22.393206c10.870488-10.870488 18.69724-24.458599 29.459024-35.437792a78.593631 78.593631 0 0 1 21.740976-15.979617 27.284926 27.284926 0 0 0 14.131635-18.805945l1.087049-3.804671c0.652229 0 0 0 0 0a36.850955 36.850955 0 0 1 27.393631 6.630998z" fill="#FA665A" p-id="4776"></path><path d="M414.0569 74.78896c0.869639 0 1.413163 0 1.413164 1.521868v193.059873c0 1.956688-1.521868 4.89172 1.956688 5.870063 0 2.391507-2.174098 2.282803-3.587262 2.717622a366.770276 366.770276 0 0 0-44.569002 16.740552c-1.739278 0.760934-3.587261 1.847983-5.652654 0.543525s-1.087049-4.022081-1.087048-6.087474V89.790234a259.152442 259.152442 0 0 1 51.526114-15.001274z" fill="#FEBCFA" p-id="4777"></path><path d="M108.704883 317.092144c1.521868 1.521868 0.869639 3.478556 0.869639 5.217835v273.718896c-3.478556 4.348195-8.370276 7.174522-12.174947 10.870488s-8.9138 9.239915-13.58811 13.58811c-1.304459 1.195754-2.717622 4.022081-5.10913 0.978344-2.065393-11.848832-5.435244-23.480255-7.174522-35.437792s-4.022081-27.067516-5.000424-40.764331-1.304459-26.741401-1.304459-40.438216a486.889172 486.889172 0 0 1 11.414013-94.681954 476.127389 476.127389 0 0 1 31.415711-91.312101 16.957962 16.957962 0 0 1 0.652229-1.739279z" fill="#FEADFA" p-id="4778"></path><path d="M645.380892 83.811465a385.467516 385.467516 0 0 1 56.852654 21.740977 12.935881 12.935881 0 0 1 3.478556 9.022505v39.351168a10.870488 10.870488 0 0 1-1.087049 5.326539c-2.391507 1.087049-2.500212 2.282803-1.087049 4.783015a36.307431 36.307431 0 0 1 4.89172 15.544798c0 3.043737-2.282803 4.23949-4.348195 5.543949a44.134183 44.134183 0 0 0-20.653928 30.654777 24.349894 24.349894 0 0 0 3.261146 17.066667c0.978344 1.847983 3.478556 3.587261 0.978344 6.087473a12.283652 12.283652 0 0 1-4.891719 0.65223c-5.870064 0-5.978769 0-5.978769 5.870063a45.221231 45.221231 0 0 0 0 10.870489s0.760934 1.304459 1.521868 1.195753c5.978769 0 7.718047 3.695966 9.239915 8.370276 4.4569 13.80552 9.13121 27.61104 13.696816 41.416561a9.34862 9.34862 0 0 1 0.978344 6.196178c-1.739278 1.413163-3.152442 0-4.456901-0.760934a378.401699 378.401699 0 0 0-48.373673-23.697664c-2.174098-0.869639-4.348195-1.847983-4.67431-4.565606-0.652229-10.109554 0-20.219108 0-30.328662v-65.22293a20.871338 20.871338 0 0 0 0-2.826327 37.61189 37.61189 0 0 1 0-6.957112v-86.963907c-0.978344-3.043737-1.521868-5.978769 0.65223-8.370276z" fill="#FEC3FA" p-id="4779"></path><path d="M645.380892 83.811465v102.508705a2.391507 2.391507 0 0 1-1.630574 1.087049 100.334607 100.334607 0 0 1-25.219532 0 5.435244 5.435244 0 0 1-1.630574-4.565605c0-4.565605-2.391507-5.543949-6.304883-5.435245h-20.653928a11.740127 11.740127 0 0 1-6.304883-0.978344 4.348195 4.348195 0 0 1-1.304459-2.608917c-1.413163-6.413588-1.413163-6.413588-7.718046-6.413588h-11.848833c-3.913376 0-5.978769 1.195754-5.761358 5.326539a5.543949 5.543949 0 0 1-1.304459 4.130786c-1.195754 0-1.630573 0-2.065393-1.195754a23.15414 23.15414 0 0 1-0.652229-7.935456V77.723992c0-4.348195 0-8.696391-4.89172-10.870489-0.543524 0-0.652229-1.087049-0.543524-1.739278a400.03397 400.03397 0 0 1 53.700212 7.391932 345.138004 345.138004 0 0 1 44.134183 11.305308z" fill="#FEC1FA" p-id="4780"></path><path d="M217.409766 845.506582a375.792781 375.792781 0 0 1-40.438216-40.546922c-5.978769-6.957113-12.066242-13.914225-17.501486-21.740976a71.092994 71.092994 0 0 1-0.65223-10.870489V614.18259a43.481953 43.481953 0 0 0-0.760934-10.870488 5.10913 5.10913 0 0 1 1.630573-5.435244c2.717622-2.174098 4.130786 0 5.54395 1.847983 2.717622 3.695966 5.000425 7.718047 7.935456 10.870488 2.282803 6.196178 3.478556 12.718471 5.543949 19.13206a187.407219 187.407219 0 0 0 16.414437 38.916348 192.190234 192.190234 0 0 0 13.805521 22.610615c2.608917 4.022081 5.652654 7.718047 8.587685 11.414013a10.870488 10.870488 0 0 1 3.261147 6.413588c0 3.478556-0.760934 6.848408-0.869639 10.218259 0.978344 11.522718 2.174098 23.15414 2.935032 34.676858a9.34862 9.34862 0 0 1 0 4.4569 5.326539 5.326539 0 0 1-4.67431 2.282803c-3.695966 0-4.23949 2.282803-3.804671 5.435244 2.500212 23.697665 4.783015 47.286624 7.283227 70.984289a12.718471 12.718471 0 0 1-0.652229 7.718046 2.391507 2.391507 0 0 1-3.587262 0.65223z" fill="#FEB2FA" p-id="4781"></path><path d="M547.655202 64.461996c0 0.869639 1.195754 1.956688 2.174097 1.739278 4.783015-1.304459 4.783015 1.847983 4.783015 5.000425v104.139278a9.892144 9.892144 0 0 1-6.739703 1.304458h-33.807218c-15.653503 0-13.370701-1.956688-13.588111 13.370701a15.544798 15.544798 0 0 1-1.304458 9.239915 30.002548 30.002548 0 0 1-20.110404 0V64.679406a486.671762 486.671762 0 0 1 68.592782-0.21741z" fill="#FEC0FA" p-id="4782"></path><path d="M932.361783 357.96518H762.129936c-2.174098 0.543524-3.369851-1.087049-4.67431-2.174097a409.491295 409.491295 0 0 0-46.634395-35.437792c-1.521868-0.978344-4.130786-2.065393-3.369851-4.239491s3.478556-1.413163 5.435244-1.413163h51.2a23.045435 23.045435 0 0 0 7.826752-0.869639c10.870488-0.760934 21.740977 0 32.611465 0 14.892569 1.087049 29.785138 0 44.677707 0h50.656475a40.003397 40.003397 0 0 1 14.24034 0.652229 414.926539 414.926539 0 0 1 18.26242 43.481953z" fill="#E14484" p-id="4783"></path><path d="M913.881953 314.483227c-13.80552 0.978344-27.719745 0-41.525265 0h-66.418684a10.870488 10.870488 0 0 1-1.521868-7.609342v-89.572823c0-6.957113 0-6.957113-6.630998-8.696391a4.783015 4.783015 0 0 1-4.130786-4.89172v-21.740976a4.565605 4.565605 0 0 1 4.67431-4.89172 25.545648 25.545648 0 0 1 12.718472 1.087049 328.940977 328.940977 0 0 1 29.785138 29.241613c-1.739278 1.739278-4.022081 1.304459-6.087474 1.413164h-20.871337c-3.695966 0-5.543949 1.195754-5.32654 5.109129s0 7.935456 0 11.957537 1.521868 4.783015 5.10913 4.022081c13.153291-2.826327 26.306582-5.543949 39.351168-8.587686a399.707856 399.707856 0 0 1 36.52484 49.678132s0 0.869639-0.652229 0.869639c-8.805096 0.869639-8.805096 0.869639-8.805095 10.000849v18.91465c0 2.826327 0.760934 3.804671 3.587261 3.695966h19.349469a7.174522 7.174522 0 0 1 8.587686 5.326539c0.652229 1.739278 1.521868 3.369851 2.282802 4.67431z" fill="#C78B64" p-id="4784"></path><path d="M810.829724 178.167304h-12.392357c-4.130786 0-3.478556 0.978344-3.478556 3.478556v21.740977c0 3.695966 1.304459 4.89172 4.565605 4.23949 5.326539-0.869639 6.522293 1.304459 6.522293 6.413588v100.986837h-35.329087a81.311253 81.311253 0 0 1 5.652654-19.34947c2.935032-8.587686 5.870064-17.175372 8.696391-25.871762a19.675584 19.675584 0 0 1 8.478981-13.479405 91.312102 91.312102 0 0 0 0-12.827177c0-2.717622-1.304459-3.695966-3.913376-3.80467a32.611465 32.611465 0 0 1-9.78344-0.65223c-2.282803-1.413163-1.195754-3.261146 0-4.783015 8.805096-14.349045 3.478556-26.958811-4.891719-39.133758a65.22293 65.22293 0 0 1-5.10913-7.283227 49.134607 49.134607 0 0 0-26.306582-26.632696 44.677707 44.677707 0 0 1 6.522293 26.850106c0 1.956688 0 4.565605-1.847983 5.326539s-3.261146-1.739278-4.348195-3.369851a55.765605 55.765605 0 0 0-24.458599-17.827601c-5.10913-4.130786-11.631423-6.304883-15.653503-11.848832a19.566879 19.566879 0 0 0 0.978344-6.739703v-32.611465a39.351168 39.351168 0 0 0-2.065393-15.001274 447.320594 447.320594 0 0 1 91.964331 57.722293c5.326539 4.348195 10.653079 9.457325 16.197028 14.45775z" fill="#FEC5FA" p-id="4785"></path><path d="M160.883227 597.115924c-1.739278 2.174098-3.695966 4.130786-1.195754 7.174522 0.652229 0.869639 0 2.608917 0 3.913376v170.231847c0 1.739278 0.652229 3.695966-0.978343 5.109129A442.211465 442.211465 0 0 1 95.986412 673.209342c-1.087049-3.152442 1.521868-4.4569 3.152442-6.196179l32.611464-32.611464a21.740977 21.740977 0 0 0 3.913376-29.241614 5.217834 5.217834 0 0 1 0.869639-7.500637 54.352442 54.352442 0 0 1 10.870489-9.892144 17.392781 17.392781 0 0 1 5.870063-0.760935 4.89172 4.89172 0 0 1 2.935032 3.043737c0 1.304459 0 2.717622 1.956688 3.152442s3.261146 1.739278 2.717622 3.913376z" fill="#FEB0FA" p-id="4786"></path><path d="M288.50276 123.597452c1.739278 1.630573 0.978344 3.695966 0.978344 5.652654v113.814013c-2.174098 0.869639-3.369851-0.869639-4.67431-2.065393a84.13758 84.13758 0 0 0-54.352442-19.458174 10.870488 10.870488 0 0 1-7.609341-1.413163 10.870488 10.870488 0 0 1-1.304459-6.630998v-36.090022a12.718471 12.718471 0 0 1 1.630573-7.065817 163.057325 163.057325 0 0 1 20.871338-17.175372 363.835244 363.835244 0 0 1 44.460297-29.567728z" fill="#FEB6FA" p-id="4787"></path><path d="M834.853503 455.799575h120.553716c2.065393 12.501062 2.391507 25.219533 3.261146 37.938005 0 2.174098 0.869639 4.4569-0.543524 6.413588a29.241614 29.241614 0 0 1-12.283652 0.978344h-92.616561a4.67431 4.67431 0 0 1-4.02208-3.804671 317.635669 317.635669 0 0 0-13.696816-36.524841 5.652654 5.652654 0 0 1-0.652229-5.000425z" fill="#EA1B2C" p-id="4788"></path><path d="M456.56051 953.994055a52.939278 52.939278 0 0 1 14.240339-19.892993c14.24034-13.044586 28.589384-25.871762 42.721019-38.916349 2.065393-1.847983 3.152442-1.956688 5.10913 0 14.566454 14.02293 29.350318 27.82845 43.481953 41.960085a45.221231 45.221231 0 0 1 10.109554 15.218684c0 2.608917-2.282803 0.760934-2.935032 1.956688l-4.130785 1.087049a5.435244 5.435244 0 0 0-4.89172 0l-4.130785 1.087049a7.826752 7.826752 0 0 0-5.870064 0l-6.087474 0.978343a17.501486 17.501486 0 0 0-8.9138 0h-5.10913a29.785138 29.785138 0 0 1-8.152866 0h-18.914649a30.111253 30.111253 0 0 1-8.261572 0h-5.109129a17.392781 17.392781 0 0 0-8.805096 0l-6.087473-1.630573a7.718047 7.718047 0 0 0-5.870064 0l-5.109129-0.978344a5.435244 5.435244 0 0 0-4.89172 0z" fill="#F1F1F1" p-id="4789"></path><path d="M343.072611 845.615287a240.020382 240.020382 0 0 0-27.82845 29.567728 54.352442 54.352442 0 0 0-10.870488 30.002548 387.967728 387.967728 0 0 1-49.460722-30.219958 412.100212 412.100212 0 0 1-36.090021-27.82845c0-1.847983 1.739278-1.413163 2.608917-2.174098 12.066242-0.760934 24.132484 0 36.307431 0a54.352442 54.352442 0 0 0 9.892145-0.543524 200.016985 200.016985 0 0 1 21.740976 0H337.311253a6.304883 6.304883 0 0 1 5.761358 1.195754z" fill="#423B3E" p-id="4790"></path><path d="M155.882803 590.158811l-2.065393-2.935032c-2.500212-2.500212-4.022081 0-5.978769 0.978344l-3.695966 3.261147c-5.543949 5.000425-10.870488 8.9138-5.000424 18.371125a19.023355 19.023355 0 0 1-5.32654 23.915074L99.247558 668.317622c-1.413163 1.413163-3.152442 2.500212-3.478556 4.67431a39.894692 39.894692 0 0 1-4.89172-11.957537c8.587686-6.848408 15.653503-15.218684 23.58896-22.828026q5.978769-5.652654 11.631423-11.631422a12.174947 12.174947 0 0 0 0.869639-17.718896 12.827176 12.827176 0 0 0-17.936306 0c-8.261571 7.935456-16.305732 16.088323-24.349894 24.241189a5.543949 5.543949 0 0 1-1.956688 1.521868 55.222081 55.222081 0 0 1-3.913376-13.044586c2.065393 1.413163 2.935032 0 4.022081-1.521868 5.978769-5.870064 11.848832-11.848832 17.718896-17.827601a36.090021 36.090021 0 0 1 9.13121-6.630998 24.132484 24.132484 0 0 1 12.283652-0.760934 7.609342 7.609342 0 0 0 8.044161-2.935032c3.261146-3.478556 6.630998-6.957113 10.218259-10.218259s2.826327-3.587261 0-5.543949c-5.326539-3.043737-10.218259-6.739703-15.436093-9.892144-2.065393-1.195754-2.282803-2.065393-0.978344-4.130786 7.500637-11.414013 14.892569-23.045435 22.284501-34.568153 1.304459-2.065393 2.500212-2.500212 4.67431-0.869639s6.739703 4.130786 10.109554 6.196179a29.785138 29.785138 0 0 1 10.870488 5.978768 7.174522 7.174522 0 0 1 0 7.718047 11.848832 11.848832 0 0 0 0 7.718047 238.172399 238.172399 0 0 0 1.630574 50.76518c0 1.847983 1.195754 3.913376 0 5.652654a46.96051 46.96051 0 0 1-7.609342-10.000849c-1.087049-1.413163-1.521868-3.261146-3.369851-4.130786l-2.935032-4.022081c-2.717622 0-2.717622-1.521868-3.587261-2.391507z" fill="#F3F3F3" p-id="4791"></path><path d="M851.92017 499.281529h106.530785a0.978344 0.978344 0 0 1 0 1.413163 4.89172 4.89172 0 0 1-1.847983 0.760934c-7.391932 1.195754-7.391932 1.195754-7.391932 8.587686v2.500212c0 7.283227 0 7.283227 7.065818 8.370276a4.67431 4.67431 0 0 1 2.717622 1.195754 7.283227 7.283227 0 0 1 0 5.10913c-10.870488 0-10.870488 0-10.870488 10.870488v10.870488c0 3.913376 0.652229 5.000425 4.348195 4.67431s4.89172-0.652229 4.67431 3.152442-2.717622 2.826327-4.67431 2.717622c-3.587261 0-4.565605 1.195754-4.4569 4.565605v17.392781c0 1.739278 0 3.804671 2.391507 4.022081 1.195754 0 2.608917 0 2.391507 1.739278s0 3.587261-1.847983 3.804671c-3.804671 0.652229-2.826327 3.369851-2.935031 5.761359a56.743949 56.743949 0 0 1-1.956688 21.740977c-1.087049 0-2.282803 0-3.043737-0.978344a21.740977 21.740977 0 0 1-1.413163-12.609767c0-13.261996 1.304459-11.631423-11.740128-11.740127h-12.935881c-4.348195 0-5.326539 1.630573-5.217834 5.326539s0 8.587686 0 12.935881a8.696391 8.696391 0 0 1-1.521869 6.087474 3.478556 3.478556 0 0 1-5.000424 0 21.740977 21.740977 0 0 1-1.413164-12.609767c0-13.261996 1.304459-11.631423-11.740127-11.740127h-11.957537c-4.022081 0-5.326539 1.630573-5.217835 5.326539s0 8.587686 0 12.935881a8.696391 8.696391 0 0 1-1.521868 6.087474 4.565605 4.565605 0 0 1-5.978769 0c-2.282803-2.935032-1.304459-6.413588-1.413163-9.56603s0-6.630998 0-9.892144a5.326539 5.326539 0 0 0-2.717622-5.435245c-2.935032-2.065393-3.804671-4.348195-1.195754-7.283227a5.870064 5.870064 0 0 0 4.022081-6.630998V566.352442a5.10913 5.10913 0 0 0-4.130786-5.870064 5.10913 5.10913 0 0 1 0-7.065817c3.695966-0.760934 4.23949-3.369851 4.022081-6.522293 0.543524-4.89172 2.935032-9.783439 0-14.892569-1.195754-2.174098-2.282803-4.022081-5.10913-3.043737s-4.022081-1.087049-3.913376-3.804671 1.847983-3.261146 3.913376-3.478556 2.935032 0 3.913376-1.413164a53.047983 53.047983 0 0 0 0-14.675159c0-2.391507-1.739278-2.826327-3.695966-3.043737a23.262845 23.262845 0 0 1-9.239915-0.978344 1.141401 1.141401 0 0 1 0.108705-2.282802z" fill="#E4E3E3" p-id="4792"></path><path d="M793.545648 845.397877h13.15329a202.734607 202.734607 0 0 1-24.893418 20.980042 466.452654 466.452654 0 0 1-40.438216 27.502336 24.458599 24.458599 0 0 1-3.152442 1.413163 110.335456 110.335456 0 0 0-34.894268-46.416985l-3.152441-3.152441c1.630573-2.174098 4.130786-1.847983 6.413588-1.847984h37.068365a164.687898 164.687898 0 0 0 46.199576 0.86964 5.217834 5.217834 0 0 1 3.695966 0.652229z" fill="#423B3E" p-id="4793"></path><path d="M222.627601 170.449257v44.569002c0 1.847983-0.760934 4.022081 1.304458 5.435244 0 1.413163-1.413163 1.739278-2.608917 1.956688a86.963907 86.963907 0 0 0-51.634819 26.197877 6.848408 6.848408 0 0 1-4.022081 2.608917c-2.391507 0-1.847983-2.391507-1.847983-3.913376v-10.326964c0-1.630573 0-3.478556-1.956688-3.80467a380.467091 380.467091 0 0 1 50.98259-54.352442 41.199151 41.199151 0 0 1 9.78344-8.370276z" fill="#FEB3FA" p-id="4794"></path><path d="M598.529087 949.102335c-3.369851 0-3.043737-2.174098-3.043737-4.348195a210.343949 210.343949 0 0 0-7.174522-53.156688c-0.978344-4.130786-2.500212-8.152866-3.804671-12.283652a57.287473 57.287473 0 0 1 10.000849 12.718472 157.622081 157.622081 0 0 0 51.091295 44.242887l0.65223 0.65223a288.93758 288.93758 0 0 1-47.721444 12.174946z" fill="#F14D4E" p-id="4795"></path><path d="M83.050531 635.053928a4.67431 4.67431 0 0 1 1.630573-2.935032c8.044161-8.044161 15.979618-16.305732 24.349894-24.241189a13.370701 13.370701 0 0 1 22.610616 6.630998 11.848832 11.848832 0 0 1-3.369852 11.848832c-10.870488 10.870488-21.740977 22.284501-33.372399 33.481104-0.978344 0.978344-1.956688 2.500212-3.695966 1.195754z" fill="#FEAEFA" p-id="4796"></path><path d="M852.789809 221.323142c0 2.174098-1.847983 2.174098-3.152442 2.500213-12.935881 2.717622-25.871762 5.217834-38.698938 8.152866-3.478556 0.760934-4.022081-0.543524-4.022081-3.478556v-16.957962c0-3.369851 1.304459-4.23949 4.348196-4.130786h29.350318z" fill="#BA7952" p-id="4797"></path><path d="M880.509554 736.801699v23.371549a9.674735 9.674735 0 0 1-2.608917 6.630998 7.826752 7.826752 0 0 1-7.283227-2.174097 16.631847 16.631847 0 0 1-5.870064-16.849257 15.218684 15.218684 0 0 1 10.109554-10.870489 4.565605 4.565605 0 0 1 5.652654-0.108704z" fill="#FAEB3E" p-id="4798"></path><path d="M880.509554 736.801699a15.218684 15.218684 0 0 0-14.566454 10.870488 15.001274 15.001274 0 0 0 9.783439 18.153715l2.282803 0.869639c-0.978344 1.304459-1.413163 3.152442-3.152442 4.022081a32.611465 32.611465 0 0 1-10.870488-6.413588 18.153715 18.153715 0 0 1-3.261147-19.892994 17.718896 17.718896 0 0 1 16.523143-11.522717h21.740976a5.761359 5.761359 0 0 1-6.413588 3.804671 126.967304 126.967304 0 0 0-12.066242 0.108705z" fill="#C88C64" p-id="4799"></path><path d="M859.746921 790.610616a18.153715 18.153715 0 0 1 15.001274-19.566879 142.185987 142.185987 0 0 1-15.001274 19.566879z" fill="#C88C65" p-id="4800"></path><path d="M894.315074 299.155839h-7.935456c-1.087049 0-2.500212 0-2.500212-1.630574s1.304459-1.304459 2.282802-1.304458h16.088323c1.195754 0 2.608917 0 2.500212 1.739278s-1.739278 1.087049-2.717622 1.195754zM892.358386 292.090021h-6.957112c-1.195754 0-1.739278-0.760934-1.847983-1.956688s0.978344-1.304459 1.956688-1.304458h13.479405c1.413163 0 1.739278 0.760934 1.956688 1.630573s-1.195754 1.630573-2.282802 1.630573h-6.413588zM890.510403 284.806794c-2.282803-1.195754-6.196178 1.413163-6.196178-1.956688s3.804671-1.087049 5.870064-1.087049 6.522293-1.521868 6.413588 1.521869-4.23949 0.108705-6.087474 1.521868z" fill="#CDF0F7" p-id="4801"></path><path d="M958.342251 500.477282v-7.174522a136.750743 136.750743 0 0 1 0.652229 24.676009c0 3.043737 1.087049 6.304883-0.869639 9.13121v-5.000425a32.611465 32.611465 0 0 1 0.21741-21.632272z" fill="#FDE7FA" p-id="4802"></path><path d="M502.86879 957.037792h20.001698v0.652229h-20.001698v-0.652229c0-0.652229-0.108705 0 0 0z" fill="#F6D1CE" p-id="4803"></path><path d="M957.581316 543.850531v-10.326964 10.870488z" fill="#F9EEF7" p-id="4804"></path><path d="M535.806369 957.037792a9.022505 9.022505 0 0 1 8.913801 0z" fill="#F2D2CB" p-id="4805"></path><path d="M480.910403 957.037792a9.13121 9.13121 0 0 1 8.805096 0z" fill="#F5D6CF" p-id="4806"></path><path d="M502.86879 957.037792v0.978344c-2.608917 0-5.543949 0.978344-8.044162-0.978344zM522.761783 958.016136v-0.978344h7.935457c-2.391507 2.065393-5.326539 0.652229-7.935457 0.978344z" fill="#FEE4F8" p-id="4807"></path><path d="M468.952866 955.842038a4.4569 4.4569 0 0 1 5.870064 0z" fill="#F5D4CE" p-id="4808"></path><path d="M550.698938 955.842038a4.4569 4.4569 0 0 1 5.870064 0z" fill="#F0D0CA" p-id="4809"></path><path d="M955.081104 573.092144a6.304883 6.304883 0 0 1 0-4.783014c0.978344 1.195754 0.21741 2.500212 0 4.783014z" fill="#FAE9F6" p-id="4810"></path><path d="M220.670913 846.267516c-0.760934 0-1.521868 0-1.847983 0.978344a2.391507 2.391507 0 0 1-1.847983-1.847983h2.826327c0.760934-0.21741 1.087049 0.108705 0.869639 0.869639z" fill="#87757F" p-id="4811"></path><path d="M569.722293 953.994055l2.935032-1.956688 0.978344 1.195754c-1.087049 1.304459-2.608917 0.652229-3.913376 0.760934z" fill="#F4C6C0" p-id="4812"></path><path d="M458.952017 955.081104a3.369851 3.369851 0 0 1 4.89172 0z" fill="#F4D1CC" p-id="4813"></path><path d="M560.699788 954.972399a3.261146 3.261146 0 0 1 4.891719 0z" fill="#F2D6CE" p-id="4814"></path><path d="M608.747346 783.327389a270.131635 270.131635 0 0 0-31.089597-57.504884 23.480255 23.480255 0 0 0-14.240339-9.13121 18.045011 18.045011 0 0 0-21.740977 10.870488 27.61104 27.61104 0 0 0-1.847983 19.023355 72.506157 72.506157 0 0 1-1.956688 42.06879c-0.760934 3.043737-1.739278 6.087473-2.608917 9.022505a4.89172 4.89172 0 0 1-3.478556 1.739278q-10.870488 0.543524-21.740977 0a4.89172 4.89172 0 0 1-3.478556-1.739278 255.347771 255.347771 0 0 1-6.522293-29.024204 49.025902 49.025902 0 0 1 1.847983-19.349469 32.611465 32.611465 0 0 0-0.543525-20.110403 19.458174 19.458174 0 0 0-33.915923-5.978769 125.228025 125.228025 0 0 0-15.218684 22.719321c-7.609342 13.479406-13.914225 27.502335-20.110403 41.63397-1.956688 1.521868-3.804671 0-5.652654 0a271.001274 271.001274 0 0 1-99.138854-50.004246 202.517197 202.517197 0 0 1-31.633121-32.611465 157.730786 157.730786 0 0 1-31.633121-71.745223 150.664968 150.664968 0 0 1 12.066242-84.13758 205.23482 205.23482 0 0 1 41.742676-60.657325 251.76051 251.76051 0 0 1 59.244161-45.112526 277.306157 277.306157 0 0 1 95.660297-32.611465 281.980467 281.980467 0 0 1 152.186837 19.458174 260.89172 260.89172 0 0 1 71.962632 44.895117 207.517622 207.517622 0 0 1 62.505308 92.61656 151.208493 151.208493 0 0 1 6.304883 56.526539 137.185563 137.185563 0 0 1-15.653503 56.09172 174.688747 174.688747 0 0 1-34.350743 45.547346 249.042887 249.042887 0 0 1-88.15966 53.808918 93.594904 93.594904 0 0 1-13.153291 4.565605c-2.174098 0.21741-4.23949 1.087049-5.652654-0.869639z" fill="#F9E7DA" p-id="4815"></path><path d="M296.546921 704.842463a225.671338 225.671338 0 0 0 39.242463 37.829299 269.370701 269.370701 0 0 0 96.203822 44.895117c-3.478556 10.218259-13.153291 13.696815-21.088747 19.023355-2.608917 1.739278-5.326539 3.261146-7.935457 4.891719a248.064544 248.064544 0 0 1-24.676008-5.978768c-4.022081-1.521868-8.261571-2.282803-12.392357-3.804671a399.381741 399.381741 0 0 1-75.441189-32.611465c-4.565605-3.369851-9.56603-5.978769-14.24034-9.13121a78.050106 78.050106 0 0 1-7.826751-5.870064s-0.543524 1.847983-1.956688 1.304459a16.740552 16.740552 0 0 0-6.630998-7.174523 281.763057 281.763057 0 0 1-25.545648-21.740976l-1.413163-1.413164-5.652654-5.652654-3.261147-3.261146a17.718896 17.718896 0 0 1-4.23949-6.522293 207.408917 207.408917 0 0 1-12.283652-16.740552c1.847983-1.521868 3.804671 0 5.652654 0a392.098514 392.098514 0 0 0 66.309979 10.870488 52.178344 52.178344 0 0 1 17.175371 1.087049z" fill="#F55954" p-id="4816"></path><path d="M290.785563 767.456476a452.647134 452.647134 0 0 0 44.242887 21.740976c10.870488 4.022081 20.762633 7.826752 31.198302 11.631423 1.521868 2.717622 4.23949 2.717622 6.957112 2.935032a36.742251 36.742251 0 0 1 5.326539 0.869639 112.618259 112.618259 0 0 1 24.567304 7.065817 354.595329 354.595329 0 0 0-60.005096 34.133333H289.481104a8.261571 8.261571 0 0 1-1.521868-6.087473v-64.244586c0.108705-3.152442-1.087049-6.630998 2.826327-8.044161z" fill="#FEB9FA" p-id="4817"></path><path d="M506.89087 797.241614a206.539278 206.539278 0 0 0 28.69809 0 67.831847 67.831847 0 0 0-1.847983 25.219532 56.526539 56.526539 0 0 1-22.828026 0.86964c-1.087049 0-1.630573-1.087049-2.174097-1.956688a45.547346 45.547346 0 0 0-1.847984-24.132484z" fill="#F55954" p-id="4818"></path><path d="M508.847558 821.482803a19.349469 19.349469 0 0 0 9.674735 0.978343h15.218684l1.956688 10.00085a81.419958 81.419958 0 0 0-26.850107-7.065818z" fill="#F14D4E" p-id="4819"></path><path d="M608.747346 783.327389c2.826327 1.304459 5.217834 0 7.609342-1.195754a249.042887 249.042887 0 0 0 102.834819-62.070489 155.230573 155.230573 0 0 0 45.656051-92.290445 140.555414 140.555414 0 0 0-4.565605-55.113376c0-1.739278-0.760934-3.587261-1.195753-5.326539a22.828025 22.828025 0 0 1 2.935031-6.304884 242.41189 242.41189 0 0 0 29.785138-90.551167 252.304034 252.304034 0 0 0 0-61.418259 142.077282 142.077282 0 0 0-7.065817-21.740977c0-1.630573-2.391507-3.587261 0-5.000425a308.721868 308.721868 0 0 1 50.112951 73.484501 294.155414 294.155414 0 0 1 15.979618 41.85138 11.848832 11.848832 0 0 0 1.087049 2.065393 1.630573 1.630573 0 0 0 0 0.869639 21.740977 21.740977 0 0 1 3.695966 13.153291c-4.348195 7.065817-9.56603 13.479406-13.588111 20.762633a153.491295 153.491295 0 0 0-17.936305 60.439915 178.602123 178.602123 0 0 0 9.022505 69.89724 9.022505 9.022505 0 0 1 0.652229 4.348195 126.858599 126.858599 0 0 1-17.392781 27.61104 257.630573 257.630573 0 0 1-50.656476 50.112952c-0.978344 0.760934-2.391507 1.304459-2.608917 2.826327a170.666667 170.666667 0 0 1-25.980467 17.718896l-2.500212 1.413163-1.739278 1.195754a375.140552 375.140552 0 0 1-91.529512 37.285775c-2.282803 0.652229-4.565605 0-6.739703 1.087049-3.152442-1.956688-6.196178-4.23949-9.457325-5.978769a35.220382 35.220382 0 0 1-16.414437-19.132059z" fill="#F55954" p-id="4820"></path><path d="M634.619108 808.438217c7.609342-3.261146 15.653503-4.67431 23.480255-7.174523a419.274735 419.274735 0 0 0 74.897665-32.611465c2.174098 2.391507 0.978344 5.435244 1.521868 8.261571s0.869639 3.369851 0 4.89172a21.088747 21.088747 0 0 0-12.392357 19.240765c-0.869639 7.826752 0 15.870913 0 23.806369 0 3.913376 1.630573 5.326539 5.32654 5.109129a16.849257 16.849257 0 0 1 6.413588 0 4.783015 4.783015 0 0 1 2.826327 3.261147c1.413163 4.783015 6.196178 7.065817 8.152866 11.522718h-43.481953a509.825902 509.825902 0 0 0-66.744799-36.307431z" fill="#FEC4FA" p-id="4821"></path><path d="M744.193631 845.397877a25.219533 25.219533 0 0 1-10.109555-13.588111c1.304459-2.065393 3.369851-1.739278 5.32654-1.739278h8.9138c2.935032 0 4.130786-1.413163 4.130786-4.23949v-24.241189a38.155414 38.155414 0 0 0-7.065818-16.197028 5.543949 5.543949 0 0 0-4.783015-2.174097 6.630998 6.630998 0 0 1-5.000424-1.630574 23.806369 23.806369 0 0 1 0-14.675159l27.39363-17.610191h36.850956c3.152442 0 4.67431 0.760934 4.130785 4.130786a18.69724 18.69724 0 0 0 0 2.935031c0 3.695966-1.087049 7.935456 0 10.870489s6.304883 0.543524 9.56603 1.087049a22.719321 22.719321 0 0 1 18.805945 24.784713 21.740977 21.740977 0 0 1-23.80637 19.784289c-4.89172 0-5.217834 1.304459-5.000424 5.109129a70.658174 70.658174 0 0 1 0 11.957537 21.740977 21.740977 0 0 1-10.218259 15.218684 40.873036 40.873036 0 0 1-19.023355 2.174098 89.464119 89.464119 0 0 1-30.111252-1.956688z" fill="#EA1B2C" p-id="4822"></path><path d="M833.657749 669.187261a136.968153 136.968153 0 0 1-9.674734-35.655202 154.578344 154.578344 0 0 1 11.740127-89.464118 119.575372 119.575372 0 0 1 19.13206-30.546073c1.739278 5.652654 6.630998 6.630998 10.870488 7.935457-1.413163 1.630573-3.369851 0.869639-5.109129 0.978344s-3.804671 0-3.804671 2.608917 2.174098 2.282803 3.913375 2.391507a1.304459 1.304459 0 0 1 0 1.304459 27.502335 27.502335 0 0 0 0 17.175372v5.109129a5.761359 5.761359 0 0 1 0 2.391508c-1.739278 1.739278 0.652229 4.23949-0.978344 5.978768a3.369851 3.369851 0 0 1 2.065393 2.608917 60.983439 60.983439 0 0 1-1.087049 23.37155 3.913376 3.913376 0 0 0 0.978344 5.978769c-2.500212 6.739703-2.391507 13.914225-4.4569 20.762632a9.022505 9.022505 0 0 1-2.608917 5.217835 231.758811 231.758811 0 0 1-17.610191 47.069214c-0.869639 1.739278-1.413163 3.804671-3.369852 4.783015z" fill="#F6F6F5" p-id="4823"></path><path d="M909.533758 617.117622v-21.740977c0-3.261146 0.652229-4.783015 4.348195-4.67431h24.241189c3.695966 0 4.4569 1.413163 4.348196 4.67431v21.740977zM872.682803 617.117622v-21.740977c0-3.261146 0.652229-4.783015 4.348195-4.67431h23.262845c3.695966 0 4.4569 1.413163 4.348195 4.67431v21.740977zM855.724841 617.117622a162.296391 162.296391 0 0 0 4.02208-21.740977c0-1.956688 0-4.022081 2.935032-4.4569s4.130786 0.652229 4.022081 3.804671v21.740977z" fill="#FEFEFB" p-id="4824"></path><path d="M165.774947 251.216985a87.507431 87.507431 0 0 1 55.87431-30.002548 12.392357 12.392357 0 0 0 2.282802-0.760934 89.898938 89.898938 0 0 1 50.330361 11.631423 148.056051 148.056051 0 0 1 15.109979 10.870488 87.724841 87.724841 0 0 1 25.871762 45.982166 94.138429 94.138429 0 0 1 0 34.024628 6.196178 6.196178 0 0 1-3.043736 3.695966c-5.543949 3.913376-10.870488 7.826752-16.523143 11.957537-1.195754 0.869639-2.826327 3.152442-4.02208 0a47.938854 47.938854 0 0 1 3.261146-8.805095 66.636093 66.636093 0 0 0-51.308705-90.333758 65.22293 65.22293 0 0 0-77.180467 52.721868 66.853503 66.853503 0 0 0 53.047983 79.137155 69.136306 69.136306 0 0 0 34.785563-2.500212 10.000849 10.000849 0 0 1 5.217834-1.195754c1.739278 1.195754 0.543524 2.500212 0 3.261147-6.087473 5.978769-10.870488 12.718471-17.501486 18.588535a6.196178 6.196178 0 0 1-3.043737 1.630573 84.246285 84.246285 0 0 1-62.070488-20.110404c-2.500212-2.174098-5.217834-4.130786-7.500637-6.413588s-3.261146-2.826327-2.935032-5.326539a99.138854 99.138854 0 0 1-15.653503-31.307006 84.246285 84.246285 0 0 1 12.283652-72.940977c1.304459-1.195754 1.956688-2.500212 2.717622-3.804671z" fill="#EA1B2C" p-id="4825"></path><path d="M165.666242 358.943524a86.963907 86.963907 0 0 0 68.918896 30.763482h4.565605c1.521868 3.043737-1.087049 4.67431-2.500212 6.304884a322.418684 322.418684 0 0 0-24.132484 34.024628 281.436943 281.436943 0 0 0-35.329087 83.92017 200.56051 200.56051 0 0 0-4.239491 20.762633c0 1.630573 0 3.369851-1.521868 4.565605a25.763057 25.763057 0 0 1-9.892145-5.978769c1.739278-1.630573 0.978344-3.804671 0.978344-5.652654V366.987686c-0.652229-3.261146-1.195754-6.848408 3.152442-8.044162z" fill="#FEB3FA" p-id="4826"></path><path d="M175.558386 513.521868a262.739703 262.739703 0 0 1 25.110828-66.309978 326.11465 326.11465 0 0 1 35.872612-53.700213c0.978344-1.195754 2.174098-2.065393 2.174098-3.804671 7.718047-6.630998 13.80552-14.783864 20.980042-21.740976a41.416561 41.416561 0 0 1 10.870488-12.066242c6.087473-5.761359 12.827176-10.870488 19.023355-16.414438a1.739278 1.739278 0 0 1 1.739278 0c3.587261-0.652229 5.435244-3.695966 8.152866-5.543949 5.000425-3.369851 10.000849-6.957113 15.001274-10.870488a523.848832 523.848832 0 0 1 48.808493-27.82845c12.066242-4.565605 23.697665-10.109554 35.981316-14.02293l17.827601-5.870064c17.610191-4.4569 35.437792-8.044161 53.374098-10.870488a13.044586 13.044586 0 0 1 7.609341-1.847983c6.848408-0.760934 13.80552-1.413163 20.762633-1.630573a368.944374 368.944374 0 0 1 55.983015 1.956688c3.152442 0 6.304883 0.978344 9.457325 1.195753s5.543949 0.978344 8.261571 1.195754 7.718047 1.413163 11.631422 1.847983q10.870488 2.282803 21.740977 5.000425c9.892144 2.500212 9.892144 3.478556 9.78344-7.391932v-70.54947c0-2.608917-0.978344-5.761359 2.065392-7.609341h27.284926l0.760934 1.195753a8.152866 8.152866 0 0 1-6.087473 1.413164h-14.892569c-5.000425 0-5.217834 1.630573-5.217835 5.326539V269.58811a7.174522 7.174522 0 0 0 5.978769 8.261572 153.491295 153.491295 0 0 1 15.436093 5.435244 10.870488 10.870488 0 0 1 5.000425 3.152441c14.02293 6.413588 28.480679 12.066242 41.960085 19.892994l13.696815 7.826752a29.893843 29.893843 0 0 1 9.34862 0h52.178344a11.631423 11.631423 0 0 1 7.609342 1.413163c-1.630573 1.630573-3.804671 0.978344-5.652654 0.978344h-57.504883a501.020807 501.020807 0 0 1 54.352441 41.525265l18.805945 19.458174c1.304459 1.413163 2.500212 2.935032 3.804671 4.456901a47.395329 47.395329 0 0 0 5.435244 16.523142 65.22293 65.22293 0 0 1 3.478557 17.827601 235.563482 235.563482 0 0 1 0 48.917197 245.455626 245.455626 0 0 1-32.611465 99.247559 4.783015 4.783015 0 0 1-2.391508 2.391507 208.495966 208.495966 0 0 0-22.284501-45.873461 248.390658 248.390658 0 0 0-107.29172-88.37707 280.567304 280.567304 0 0 0-290.024628 37.8293 206.539278 206.539278 0 0 0-64.135881 85.442038 144.903609 144.903609 0 0 0 18.69724 144.794904l2.826327 4.130786a383.184713 383.184713 0 0 1-42.177495-3.695966 284.698089 284.698089 0 0 1-46.851805-9.13121 130.44586 130.44586 0 0 1-13.80552-21.740977c0-1.413163 0-2.935032 0.760934-4.348195a181.21104 181.21104 0 0 0 10.435669-47.069215 149.469214 149.469214 0 0 0-12.283652-75.006369 127.402123 127.402123 0 0 0-15.327388-26.632697 6.739703 6.739703 0 0 1-1.521869-3.695966z" fill="#FA665A" p-id="4827"></path><path d="M498.738004 262.196178l-28.154565 2.065393v-32.611465s0.652229-0.869639 1.087049-0.869639a72.180042 72.180042 0 0 1 27.176221 0 6.957113 6.957113 0 0 1 1.413164 4.67431v21.740977a6.304883 6.304883 0 0 1-1.521869 5.000424z" fill="#6285BB" p-id="4828"></path><path d="M498.629299 231.323992h-27.937155a285.132909 285.132909 0 0 1-0.543524-29.241614c0-1.956688 0.978344-2.608917 2.826327-2.608917h25.763057c3.152442 5.000425 1.087049 10.870488 1.630573 15.870913v10.870488a5.761359 5.761359 0 0 1-1.739278 5.10913z" fill="#39547A" p-id="4829"></path><path d="M771.043737 314.483227h-64.461996a8.261571 8.261571 0 0 1-4.67431-1.195754c-3.804671-14.02293-9.022505-27.61104-13.479406-41.41656 0-0.978344-0.760934-1.847983-0.978343-2.826327-1.413163-6.522293-3.369851-12.283652-11.848833-10.870488a8.261571 8.261571 0 0 1 6.522293-1.630574h105.987261a8.261571 8.261571 0 0 1 6.522293 1.630574c-4.348195 0-5.652654 2.935032-6.848407 6.739702-5.10913 16.957962-11.087898 33.372399-16.740552 49.569427z" fill="#FE9631" p-id="4830"></path><path d="M718.865393 171.318896c1.521868-1.847983 2.717622 0 3.804671 0a56.743949 56.743949 0 0 1 24.893418 23.58896 47.830149 47.830149 0 0 0-6.957113-35.655202c12.609766 6.630998 25.002123 13.479406 29.567729 28.371974-1.739278 1.304459-1.739278 1.521868-3.478557 0-3.695966-2.391507-7.609342-4.565605-10.870488-7.174522a47.286624 47.286624 0 0 1-5.761359 56.30913 6.087473 6.087473 0 0 1-3.478556 2.717622c-14.131635 0.978344-28.371975 0-42.503609 0h-10.870489a6.522293 6.522293 0 0 1-5.435244-1.739278 37.938004 37.938004 0 0 1 13.479406-53.156688c2.174098-1.413163 5.652654-1.847983 5.761359-5.543949l4.348195-2.500213c1.304459-0.869639 3.043737-2.500212 4.348195-1.195753s0 3.369851-1.087049 4.783015a40.003397 40.003397 0 0 0-4.67431 9.892144 43.481953 43.481953 0 0 0 4.130786 36.95966 43.481953 43.481953 0 0 0 8.044161-48.482378 35.220382 35.220382 0 0 1-3.261146-7.174522z" fill="#8EA041" p-id="4831"></path><path d="M646.250531 286.111253l-25.328238-8.587686a3.261146 3.261146 0 0 1-2.500212-3.587261v-82.941826c0-3.043737 1.304459-3.587261 3.913375-3.587261h23.80637z" fill="#F35734" p-id="4832"></path><path d="M688.101911 238.389809h59.89639a7.174522 7.174522 0 0 1 4.67431-1.413164h21.740977a7.174522 7.174522 0 0 1 4.67431 1.413164h12.935881c1.847983 0 3.261146 0 3.152442 2.608917a145.229724 145.229724 0 0 1 0 17.284077h-119.575372v-17.284077c0-2.282803 0.978344-2.717622 2.935032-2.717622z" fill="#FE7229" p-id="4833"></path><path d="M718.865393 171.318896a33.807219 33.807219 0 0 1 8.261571 18.69724 46.851805 46.851805 0 0 1-11.848832 39.351168c-9.13121-7.718047-13.914225-33.263694 0.760934-52.939279-3.478556 0-5.000425 4.565605-8.587686 3.043737a48.156263 48.156263 0 0 0-8.261571-20.436518c1.956688-0.869639 2.826327 1.087049 4.130785 1.087049a117.401274 117.401274 0 0 1 15.544799 11.196603z" fill="#759645" p-id="4834"></path><path d="M618.095966 186.428875a9.674735 9.674735 0 0 0 0 5.326539v80.224204c0 4.022081-0.760934 4.565605-4.67431 3.478556-9.674735-2.717622-19.566879-4.89172-29.459023-7.283227a8.370276 8.370276 0 0 1-1.521869-6.087474v-79.680679c0-2.282803 0-4.67431 1.847983-6.413588h28.589385c4.4569 0 6.413588 0.978344 5.761358 5.652654a30.654777 30.654777 0 0 0-0.543524 4.783015z" fill="#0090BF" p-id="4835"></path><path d="M499.064119 215.453079v-15.762209-19.458174c0-3.478556 0.978344-4.4569 4.4569-4.4569h51.308705l0.978344 0.760934a5.978769 5.978769 0 0 1 1.630573 5.000425v29.241614a7.609342 7.609342 0 0 1-1.304458 4.67431 10.870488 10.870488 0 0 1-7.174523 1.413163h-42.829724a9.457325 9.457325 0 0 1-7.065817-1.413163z" fill="#97CA52" p-id="4836"></path><path d="M555.373248 215.453079v-38.916349c0-10.870488 0-10.870488 10.870489-10.870488h11.848832c3.913376 0 5.435244 1.195754 4.89172 5.000425a36.95966 36.95966 0 0 0 0 5.435244v92.181741a50.330361 50.330361 0 0 1-10.870489-1.956688 11.631423 11.631423 0 0 1-1.521868-8.152866v-62.614013c0-2.391507 1.304459-6.413588-2.282802-6.522293s-2.282803 4.130786-2.391508 6.413588v62.179193a10.870488 10.870488 0 0 1-1.521868 7.609342l-8.913801-0.978344a7.826752 7.826752 0 0 1-1.739278-5.978768v-37.068366a8.478981 8.478981 0 0 1 1.630573-5.761358z" fill="#FEFEFE" p-id="4837"></path><path d="M220.670913 846.267516l-0.869639-0.978344c-1.521868-16.197028-3.043737-32.611465-4.565605-48.482378-0.978344-10.870488-2.174098-20.762633-3.261147-31.198301-0.652229-6.087473-0.652229-6.087473 5.761359-6.304884a38.590234 38.590234 0 0 0 3.913376 0c2.391507-1.521868 5.10913 0 7.609342-1.087048h2.065393a22.284501 22.284501 0 0 0 7.391932 0 91.638217 91.638217 0 0 0 19.784288 0 43.481953 43.481953 0 0 1 8.478981 0 16.197028 16.197028 0 0 0 3.804671 0.869639c4.565605 0 6.630998 2.282803 6.304883 6.848407-2.065393 21.740977-4.348195 42.721019-6.522293 64.135881a40.112102 40.112102 0 0 1-2.826327 16.414438c-1.195754 1.195754-2.826327 0.760934-4.23949 0.760934z" fill="#FE7229" p-id="4838"></path><path d="M175.558386 513.521868a127.184713 127.184713 0 0 1 25.871763 50.982591 164.470488 164.470488 0 0 1-6.413588 103.052229c0 0.760934 0 1.630573-1.195754 1.956688a201.864968 201.864968 0 0 1-20.871338-54.352442c0-1.630573-0.760934-3.261146-1.087049-4.783015a168.383864 168.383864 0 0 1-3.478556-29.350318 128.706582 128.706582 0 0 1 1.521868-27.61104 13.914225 13.914225 0 0 1 0-7.935457c2.500212-2.065393 0-4.783015 0.978344-7.065817a97.834395 97.834395 0 0 1 4.67431-24.893419z" fill="#F6F6F5" p-id="4839"></path><path d="M228.280255 758.760085a16.088323 16.088323 0 0 1-7.283227 0l-3.587262-39.894692c2.065393-3.261146 4.89172-2.608917 7.826752-1.521869a4.4569 4.4569 0 0 1 1.413164 3.043737 36.850955 36.850955 0 0 1 0 4.022081v3.043737a21.740977 21.740977 0 0 1 0.760934 5.109129 15.218684 15.218684 0 0 0 0.543524 5.10913 9.457325 9.457325 0 0 1 0 1.521868v4.565605a19.349469 19.349469 0 0 0 0.760934 6.196178 32.611465 32.611465 0 0 1 0 4.89172 6.087473 6.087473 0 0 1-0.434819 3.913376z" fill="#0191BF" p-id="4840"></path><path d="M225.562633 717.887049a13.914225 13.914225 0 0 0-7.826752 0.978344c1.413163-3.261146 0-7.065817 1.956688-10.218259a24.893418 24.893418 0 0 1 5.000425 5.870063c0.21741 1.195754 1.739278 2.174098 0.869639 3.369852z" fill="#E4E1E1" p-id="4841"></path><path d="M779.087898 238.389809h-30.980892a58.374522 58.374522 0 0 1 6.304884-10.870488 46.416985 46.416985 0 0 0-1.304459-50.004247c4.23949 2.608917 8.370276 5.326539 12.609766 7.826752 1.304459 0.760934 2.391507 2.826327 4.456901 1.739278 2.826327 3.695966 5.870064 7.174522 8.261571 10.870488a33.372399 33.372399 0 0 1 0.652229 40.438217z" fill="#95A240" p-id="4842"></path><path d="M147.947346 588.202123c3.913376-4.783015 3.913376-4.783015 5.978769-0.978344a17.066667 17.066667 0 0 1-5.978769 0.978344zM155.882803 590.158811a3.369851 3.369851 0 0 1 2.065392 3.043737c-4.67431 1.630573-1.630573-1.847983-2.065392-3.043737z" fill="#FEB2FA" p-id="4843"></path><path d="M267.631423 845.506582l5.435244-55.222081c0.869639-8.587686 1.847983-17.066667 2.717622-25.654352 0.869639-1.956688 0-4.23949 0.760934-6.087474a105.661146 105.661146 0 0 1 14.24034 9.022505 11.740127 11.740127 0 0 0-1.304459 7.500637v70.33206z" fill="#FEB6FA" p-id="4844"></path><path d="M169.797028 546.350743v7.935457a7.391932 7.391932 0 0 1 0-7.935457z" fill="#F6DCD2" p-id="4845"></path><path d="M925.948195 585.267091h-12.935881c-2.608917 0-3.478556-0.978344-3.478556-3.478556v-18.91465c0-2.935032 1.304459-3.587261 3.913376-3.587261h25.328238c2.826327 0 3.804671 0.978344 3.695966 3.804671v18.371125c0 3.261146-1.304459 3.913376-4.130786 3.804671s-8.261571 0-12.392357 0zM924.969851 553.63397c-4.348195 0-10.870488 2.282803-14.457749-1.195753s-0.869639-9.783439-0.869639-14.892569c0-9.892144 0-9.892144 9.892144-9.892145h17.936306c3.587261 0 5.217834 1.087049 5.000425 4.783015v17.392781c0 2.826327-0.869639 3.913376-3.695966 3.804671s-8.696391 0-13.805521 0zM888.553715 585.267091h-12.392356c-4.130786 0-3.587261-0.869639-3.478556-3.478556v-18.91465c0-2.391507 0.652229-3.695966 3.369851-3.695966h25.328238c2.282803 0 3.261146 0.869639 3.261146 3.152442v19.349469c0 2.717622-1.087049 3.478556-3.587261 3.369852zM888.445011 553.63397h-10.870489c-3.913376 0-5.761359-0.760934-5.435244-5.109129s0-10.870488 0-16.957962c0-2.608917 0-4.022081 3.478556-4.022081h24.349894c2.608917 0 4.022081 0.978344 4.022081 3.804671v18.91465c0 2.717622-1.304459 3.369851-3.695966 3.261146zM926.0569 500.477282h12.392357c4.130786 0 4.022081 1.087049 3.913376 4.022081s0 8.9138 0 13.370701-1.087049 4.565605-4.348196 4.4569h-24.893418c-2.826327 0-3.804671-0.978344-3.804671-3.695966v-14.45775c0-4.89172 1.304459-3.913376 4.130786-3.804671s8.478981 0.108705 12.609766 0.108705zM888.553715 522.435669h-12.392356c-4.130786 0-3.587261-0.869639-3.478556-3.478556v-14.892569c0-2.500212 0.760934-3.587261 3.369851-3.587262h25.328238c2.391507 0 3.261146 0.978344 3.152441 3.261147v14.892569c0 2.826327-1.413163 3.804671-4.02208 3.695966z" fill="#FEFEFB" p-id="4846"></path><path d="M866.704034 521.022505c-8.9138 0-8.9138 0-11.848832-7.935456l-2.935032-12.935881a95.660297 95.660297 0 0 0 9.892144 0c4.130786 0 5.10913 1.413163 4.89172 5.109129s0 10.870488 0 15.762208z" fill="#FEFDFA" p-id="4847"></path><path d="M958.342251 500.477282v21.740977c-10.870488 0-10.870488 0-10.870489-10.870488s0-10.870488 10.870489-10.870489zM861.703609 585.267091v-20.219108a10.218259 10.218259 0 0 0-0.978344-5.652654c4.67431-0.760934 6.522293 0.869639 6.087474 5.761359a98.812739 98.812739 0 0 0 0 15.327388c0.21741 4.022081-1.413163 5.761359-5.10913 4.783015z" fill="#FEFEFB" p-id="4848"></path><path d="M861.703609 551.677282c-2.065393-1.847983-0.760934-3.478556 0-5.217834a20.871338 20.871338 0 0 0 0-18.045011 1.956688 1.956688 0 0 0 0-0.978344c2.391507-2.391507 3.261146 0 4.348196 1.413164a20.110403 20.110403 0 0 1 0.543524 17.066667c-1.087049 2.391507-1.195754 5.652654-4.89172 5.761358z" fill="#0C95C2" p-id="4849"></path><path d="M861.703609 551.677282l4.89172-5.652654c0 3.478556 1.956688 8.370276-4.89172 7.391933-1.087049-0.652229-0.21741-1.195754 0-1.739279z" fill="#F9FCFA" p-id="4850"></path><path d="M672.230998 599.942251a40.981741 40.981741 0 0 1 4.130785 47.177919 41.85138 41.85138 0 1 1-35.002972-62.614013 30.872187 30.872187 0 0 1 21.740977 7.718047c-1.413163 1.413163-3.152442 0.652229-4.67431 0.760934a10.870488 10.870488 0 0 0-10.870489 11.740127 10.870488 10.870488 0 0 0 10.870489 10.870489 11.631423 11.631423 0 0 0 12.501061-10.870489c0.21741-1.304459-1.195754-3.587261 1.304459-4.783014zM382.206369 598.094268a41.63397 41.63397 0 1 1-6.957112 63.266242 42.503609 42.503609 0 0 1-3.152442-54.352442 1.847983 1.847983 0 0 1 2.065393-0.760934c1.521868 1.413163 0.543524 3.152442 0.760934 4.67431a12.283652 12.283652 0 0 0 7.718047 10.870488 10.870488 10.870488 0 0 0 10.870488-1.847983 10.870488 10.870488 0 0 0 3.695966-12.501062 9.892144 9.892144 0 0 0-9.13121-7.826751c-1.847983-0.326115-4.130786 0.326115-5.870064-1.521868z" fill="#2C1919" p-id="4851"></path><path d="M511.78259 708.973248a20.001699 20.001699 0 0 1 0-3.043736c1.413163-4.23949 0-6.304883-4.4569-7.174523a10.870488 10.870488 0 0 1-8.9138-9.566029c0-0.978344-0.652229-2.608917 0.978344-2.826327s1.521868 0.978344 1.847983 1.956688a10.870488 10.870488 0 0 0 10.870488 7.826751 10.218259 10.218259 0 0 0 10.870488-8.370276c0-0.978344 0-2.174098 1.630573-2.065393s1.195754 1.304459 1.521869 2.282803a10.000849 10.000849 0 0 0 10.870488 8.152866c6.196178 0 8.261571-1.630573 10.870488-8.044161 0-0.869639 0-2.717622 1.956688-2.174098s1.304459 1.956688 0.978344 3.369852a12.501062 12.501062 0 0 1-10.109554 9.783439 4.4569 4.4569 0 0 0-4.022081 5.543949 32.611465 32.611465 0 0 1-1.630573 13.696815 12.501062 12.501062 0 0 1-11.957537 9.457325 11.522718 11.522718 0 0 1-10.870488-9.56603c0.43482-3.043737 0.108705-6.196178-0.43482-9.239915z" fill="#F3A9AA" p-id="4852"></path><path d="M703.538004 671.904883a20.653928 20.653928 0 0 1 12.501062 3.913376 7.283227 7.283227 0 0 1 0.869639 11.848832 23.697665 23.697665 0 0 1-28.48068 0 7.609342 7.609342 0 0 1 1.847983-11.957537 21.740977 21.740977 0 0 1 13.261996-3.804671z" fill="#F190AF" p-id="4853"></path><path d="M672.230998 599.942251c-1.087049 1.087049 0 2.174098 0 3.261146a12.935881 12.935881 0 0 1-13.370701 14.349045 12.609766 12.609766 0 0 1-12.501061-14.566455 12.827176 12.827176 0 0 1 15.653503-10.870488H663.425902a31.959236 31.959236 0 0 1 8.805096 7.826752zM382.206369 598.094268a24.567304 24.567304 0 0 1 9.78344 0.869639 13.153291 13.153291 0 0 1-8.370276 24.784713 12.935881 12.935881 0 0 1-9.892144-15.001274v-2.391507a43.481953 43.481953 0 0 1 8.47898-8.261571z" fill="#FEF9F9" p-id="4854"></path><path d="M340.246285 691.906582a19.784289 19.784289 0 0 1-12.501062-3.913376 6.957113 6.957113 0 0 1 0-11.740127 23.58896 23.58896 0 0 1 26.850106 0 7.826752 7.826752 0 0 1-1.739278 11.957537 21.740977 21.740977 0 0 1-12.609766 3.695966z" fill="#F190AF" p-id="4855"></path><path d="M356.334607 595.159236c3.369851 1.630573 4.565605-1.087049 6.196179-3.043737a42.2862 42.2862 0 0 1 42.612314-15.109979 8.152866 8.152866 0 0 1 1.847983 0.652229v0.65223c0 0.652229-1.847983 0.760934-2.826327 0.543524a41.742675 41.742675 0 0 0-47.286624 26.197877c-1.304459 2.935032-2.391507 3.804671-5.435245 2.282803s-6.739703-2.826327-10.000849-4.239491c0 0 0-0.760934-1.087049-1.521868a18.26242 18.26242 0 0 1 9.78344 3.043737c5.435244 2.935032 4.89172-2.174098 6.522293-4.348196s-1.847983-2.717622-2.717622-4.130785 1.413163-1.413163 2.391507-0.978344z" fill="#342121" p-id="4856"></path><path d="M677.448832 580.157962c1.195754 1.087049 2.500212 2.065393 3.695966 3.261146 5.761359 5.978769 5.761359 5.978769 13.588111 2.935032 1.630573-0.543524 3.152442-2.065393 5.652654-0.760934a90.659873 90.659873 0 0 1-12.718472 6.087473c3.587261 7.935456 3.587261 7.935456 11.414013 4.89172l4.23949-1.413163h2.391508a89.898938 89.898938 0 0 1-14.349045 6.413588c-1.087049 0-1.739278-0.652229-2.065392-1.630573a55.113376 55.113376 0 0 0-13.044586-19.13206c-0.21741-0.543524 0.108705-0.978344 1.195753-0.652229zM686.362633 668.643737c-1.956688 0.652229-2.391507-0.869639-3.261147-1.739278a4.67431 4.67431 0 0 0-8.370276 1.739278c-0.543524 1.413163 0 1.739278 1.087049 2.391507s3.152442 2.391507 3.478556 4.565605h-0.869639c-4.130786-5.326539-8.261571-4.348195-13.58811-1.195753a20.327813 20.327813 0 0 1-16.305733 2.282802 10.218259 10.218259 0 0 1 5.978769-1.413163 31.089597 31.089597 0 0 0 21.740977-11.957538c3.043737-4.022081 5.000425-2.717622 7.174522 0s3.043737 2.935032 2.935032 5.32654zM363.183015 669.83949c1.521868-2.065393 2.717622-4.4569 5.435244-0.978344a31.741826 31.741826 0 0 0 25.545648 13.153291c0.760934 0 1.739278 0 1.956687 0.978344a19.784289 19.784289 0 0 1-17.501486-3.043736c-4.022081-2.608917-6.848408-2.826327-9.566029 1.304458a1.630573 1.630573 0 0 1-2.500213 0.652229c0-1.847983 1.847983-2.717622 2.826327-4.02208s3.261146-1.956688 0.978344-3.369852-1.847983-6.196178-6.087473-3.478556c-0.978344 0.108705-1.413163-0.21741-1.087049-1.195754z" fill="#362424" p-id="4857"></path><path d="M677.448832 580.157962l-1.195753 1.087049a45.547346 45.547346 0 0 0-37.720595-8.587686 37.285775 37.285775 0 0 1 38.916348 7.500637z" fill="#3B2829" p-id="4858"></path><path d="M356.334607 595.159236c-0.760934 0-1.630573 0-2.065393 0.978344a19.240764 19.240764 0 0 1-9.892144-5.217835 34.568153 34.568153 0 0 1 11.957537 4.239491z" fill="#483738" p-id="4859"></path><path d="M363.183015 669.83949l1.087049 1.195754a7.718047 7.718047 0 0 1-5.32654 4.239491 10.109554 10.109554 0 0 1 4.239491-5.435245z" fill="#402D2D" p-id="4860"></path><path d="M258.608917 758.760085a72.506157 72.506157 0 0 1-20.762632 0 96.529936 96.529936 0 0 1-3.913376-33.589809l0.543524-0.760934a341.985563 341.985563 0 0 0 26.415287 22.284501 14.783864 14.783864 0 0 1-2.282803 12.066242z" fill="#FEB6F9" p-id="4861"></path><path d="M234.476433 724.409342c0 11.522718 2.935032 22.828025 3.369852 34.350743a8.9138 8.9138 0 0 1-7.174523 0 5.543949 5.543949 0 0 1-1.521868-4.239491v-4.674309a14.02293 14.02293 0 0 1-0.978344-5.978769v-5.217834a12.174947 12.174947 0 0 1 0-4.67431c0-1.847983 0.978344-4.130786-1.304459-5.543949v-3.261147a8.044161 8.044161 0 0 1 8.044162-0.760934z" fill="#716365" p-id="4862"></path><path d="M258.608917 758.760085l1.956688-11.957537c2.608917 2.282803 6.739703 3.369851 6.087474 8.044161a1.956688 1.956688 0 0 1 0 3.043737c-2.826327 1.521868-5.761359 0.652229-8.044162 0.869639z" fill="#EB1F30" p-id="4863"></path><path d="M266.326964 757.781741v-3.043737c1.087049 0 0-3.695966 2.826327-1.630573s4.67431 3.587261 7.065817 5.326539c0 2.065393 0.652229 4.23949-0.760934 6.087474 0.652229-4.23949-1.087049-5.870064-5.326539-5.217835-1.195754 0.326115-3.152442 0.869639-3.804671-1.521868z" fill="#FDAFE3" p-id="4864"></path><path d="M234.041614 723.865817a25.002123 25.002123 0 0 1-8.044162 0.760935v-3.804671c0-1.195754 0-2.717622 1.847983-3.261147z" fill="#DDDADE" p-id="4865"></path><path d="M378.510403 804.416136h-8.370276c-2.717622 0-4.23949-0.978344-3.913375-4.022081a64.461996 64.461996 0 0 1 12.283651 4.022081z" fill="#E5DFDF" p-id="4866"></path><path d="M228.280255 717.560934l-1.847983 3.261147v-2.935032l-0.760934-3.261147z" fill="#FCBDF8" p-id="4867"></path><path d="M735.932059 766.695541v14.892569a1.521868 1.521868 0 0 1-2.174097 0 7.065817 7.065817 0 0 0-0.869639-3.913375c1.304459-3.152442 0-6.630998 1.087049-9.78344z" fill="#E9D8D6" p-id="4868"></path><path d="M734.192781 767.78259c-0.652229 3.261146 0.869639 6.630998-1.087049 9.78344v-8.805096z" fill="#F28CA9" p-id="4869"></path><path d="M734.084076 781.914225h2.174098a11.631423 11.631423 0 0 1 13.80552 8.587686 34.459448 34.459448 0 0 1 3.804671 15.544798v21.740977c0 3.369851-1.087049 4.23949-4.348195 4.130785H732.236093c-3.913376 0-9.13121 1.847983-10.870488-1.087048s-0.652229-7.609342-0.760934-11.522718 0-6.957113 0-10.870488a34.676858 34.676858 0 0 1 5.326539-21.740977c1.630573-3.369851 3.804671-5.652654 8.152866-4.783015z" fill="#FAEB3D" p-id="4870"></path><path d="M804.416136 790.501911v-5.000425c0-5.543949 1.847983-7.174522 7.500637-6.739703a12.174947 12.174947 0 0 1-1.739278 24.241189c-3.587261 0-6.522293-1.413163-5.761359-6.087473a43.481953 43.481953 0 0 0 0-6.413588z" fill="#CDEFF6" p-id="4871"></path><path d="M861.703609 528.414437a13.153291 13.153291 0 0 1 0 18.045011c-4.022081-5.217834-1.739278-11.522718-2.717622-17.175372-0.21741-0.869639 1.847983-0.869639 2.717622-0.869639z" fill="#FAFCFA" p-id="4872"></path><path d="M291.437792 338.941826l-24.241189 21.740977-7.609342 7.065817a68.592781 68.592781 0 1 1 39.025053-77.071762 70.658174 70.658174 0 0 1-7.174522 48.264968z" fill="#FEFEFE" p-id="4873"></path><path d="M555.373248 215.453079v48.699787a475.692569 475.692569 0 0 0-57.070063-1.956688v-46.743099z" fill="#FE8D74" p-id="4874"></path><path d="M564.721868 265.13121v-74.028025c0-3.261146 0-4.783015 4.239491-4.67431s3.695966 1.413163 3.695966 4.130785v75.549894a20.327813 20.327813 0 0 1-7.935457-0.978344z" fill="#FEB330" p-id="4875"></path><path d="M491.019958 216.648832a6.196178 6.196178 0 0 1-6.087474 5.978769 6.087473 6.087473 0 0 1-6.522293-6.522293 5.870064 5.870064 0 0 1 6.304883-6.196178 6.196178 6.196178 0 0 1 6.304884 6.739702z" fill="#FCFCFD" p-id="4876"></path><path d="M229.693418 754.738004l1.087049 4.130786h-2.500212v-4.130786s1.087049-0.43482 1.413163 0z" fill="#A5A6DC" p-id="4877"></path><path d="M228.280255 743.758811l0.869639 5.978769h-0.869639a8.261571 8.261571 0 0 1-0.978344-6.087474s0.978344-0.326115 0.978344 0.108705z" fill="#9DA6DC" p-id="4878"></path><path d="M225.888747 727.561783c3.043737 0.760934 1.413163 3.152442 1.739278 5.000425s-0.652229 0-0.869639 0a9.674735 9.674735 0 0 0-0.869639-5.000425z" fill="#A2928F" p-id="4879"></path><path d="M228.280255 749.30276h0.652229v5.000425h-0.652229z" fill="#F5B5EB" p-id="4880"></path><path d="M228.280255 743.758811v-5.326539a6.739703 6.739703 0 0 1 0 5.326539z" fill="#E8B3D3" p-id="4881"></path><path d="M226.758386 732.670913h0.869639v5.761359c-1.413163-1.847983-0.869639-3.804671-0.869639-5.761359z" fill="#93A7DC" p-id="4882"></path><path d="M525.261996 692.450106l3.152441 3.913376a12.935881 12.935881 0 0 1-6.304883 0z" fill="#F8E1D5" p-id="4883"></path><path d="M258.500212 307.960934h-13.479405a27.176221 27.176221 0 0 0-21.740977 8.805096c-5.870064 6.087473-11.957537 11.957537-17.936306 18.04501-1.630573 1.739278-3.804671 3.804671-5.761358 1.630574s0-3.804671 1.956688-5.435245l20.436518-20.436518a9.56603 9.56603 0 0 0 3.478556-6.196178 5.543949 5.543949 0 0 1 9.239915-3.695966 9.892144 9.892144 0 0 0 6.848408 1.956688h34.894267c1.847983 0 4.4569-0.543524 4.348195 2.500212s-2.391507 2.717622-4.4569 2.717622z" fill="#443647" p-id="4884"></path></svg>