<?xml version="1.0" standalone="no"?><!DOCTYPE svg PUBLIC "-//W3C//DTD SVG 1.1//EN" "http://www.w3.org/Graphics/SVG/1.1/DTD/svg11.dtd"><svg t="1550212895899" class="icon" style="" viewBox="0 0 1024 1024" version="1.1" xmlns="http://www.w3.org/2000/svg" p-id="6106" xmlns:xlink="http://www.w3.org/1999/xlink" width="200" height="200"><defs><style type="text/css">@font-face { font-family: "Roboto Condensed"; src: url("chrome-extension://lienonopcegannlgdkgonpofbhgmclcc/RobotoCondensed-Regular.ttf"); }
</style></defs><path d="M0.549356 512V4.614592C0.549356 0.87897 1.428326 0 5.163948 0h1013.781975c3.735622 0 4.614592 0.87897 4.614592 4.614592v1014.770816c0 3.735622-0.87897 4.614592-4.614592 4.614592H5.054077c-3.735622 0-4.614592-0.87897-4.614592-4.614592Q0.659227 765.692704 0.549356 512z" fill="#FEFEFE" p-id="6107"></path><path d="M166.015451 227.323605a402.56824 402.56824 0 0 1 32.961373-36.037768 468.820601 468.820601 0 0 1 91.522747-68.559657 455.52618 455.52618 0 0 1 82.07382-36.367382 440.254077 440.254077 0 0 1 74.712446-17.359656 449.153648 449.153648 0 0 1 85.699571-3.955365 437.397425 437.397425 0 0 1 98.00515 15.93133A450.472103 450.472103 0 0 1 839.306438 208.755365a436.188841 436.188841 0 0 1 52.518455 69.658369 131.845494 131.845494 0 0 1 8.789699 15.711588c0 4.175107-3.186266 6.702146-4.944206 9.998283s-2.527039 1.098712-3.845493 0a45.04721 45.04721 0 0 1-4.39485-4.065236 40.542489 40.542489 0 0 0-48.672961-6.592275l-2.197425 1.208584c-4.504721 2.417167-5.27382 2.197425-7.361374-2.746781a146.238627 146.238627 0 0 0-8.130472-17.579399 106.245494 106.245494 0 0 0-81.524463-54.056653c-6.921888-0.87897-13.953648 0-20.765666-1.757939a7.251502 7.251502 0 0 1-3.735622-1.208584c0-3.296137 2.197425-4.614592 4.39485-6.042919a26.588841 26.588841 0 0 1 15.05236-4.394849c2.417167 0 4.284979-0.659227 4.284979-3.625751a34.169957 34.169957 0 0 1 1.75794-12.195709c1.318455-3.955365 3.076395-7.690987 4.944206-11.866094a143.93133 143.93133 0 0 1-28.896137 10.987124 41.311588 41.311588 0 0 1-33.840344-5.163948 7.251502 7.251502 0 0 0-8.020601 0 72.624893 72.624893 0 0 0-14.832618 9.009442 7.91073 7.91073 0 0 1-5.273819 2.527039 263.690987 263.690987 0 0 1-12.195709-24.281545c0.988841-2.417167 2.307296-4.724464 3.296138-7.251503a38.454936 38.454936 0 0 0-9.888412-43.948497 43.069528 43.069528 0 0 0-5.933048-5.603434 38.784549 38.784549 0 0 1-1.538197 34.719313c-1.318455 2.63691-2.527039 5.493562-5.933047 6.262661a22.743348 22.743348 0 0 1-8.020601-2.527038 103.169099 103.169099 0 0 0-53.617167-5.823176 67.241202 67.241202 0 0 0-24.281545 9.668669 12.964807 12.964807 0 0 1-4.834335 2.307296 52.298712 52.298712 0 0 1-23.402575-48.233476 73.613734 73.613734 0 0 0-10.987125 29.665236 50.760515 50.760515 0 0 0 7.03176 34.279828 31.862661 31.862661 0 0 1 4.504721 7.690988 11.866094 11.866094 0 0 1-6.812017 10.987124 9.778541 9.778541 0 0 1-3.625751-3.955365 111.409442 111.409442 0 0 0-9.229185-10.987124 15.162232 15.162232 0 0 0-17.579399-4.944206 42.190558 42.190558 0 0 1-32.412017-6.921889 204.360515 204.360515 0 0 1-24.061803-17.579399 56.583691 56.583691 0 0 1 0 25.819743c-0.87897 2.527039 1.75794 2.856652 3.406009 3.296137a28.127039 28.127039 0 0 1 12.964807 7.91073 15.821459 15.821459 0 0 1 4.724463 15.93133c-0.87897 2.856652 0 3.845494 3.076395 4.175107a35.598283 35.598283 0 0 1 25.380258 10.987125c1.867811 2.197425 3.845494 0.87897 5.823176 0a32.961373 32.961373 0 0 1 17.249785-3.845494c1.977682 0 4.065236 0 5.163948 2.307296a3.51588 3.51588 0 0 1 0 1.977683c-4.944206 12.964807-8.130472 26.369099-11.975965 39.663519-1.538197 1.098712-2.856652 0-4.175108 0a72.40515 72.40515 0 0 0-60.758798 0.659228c-14.942489 6.262661-29.884979 12.854936-45.486695 17.68927a60.099571 60.099571 0 0 1-29.884979 3.296137 26.259227 26.259227 0 0 1-12.745064-6.482403 14.942489 14.942489 0 0 1-2.307296-20.765665 61.747639 61.747639 0 0 1 15.491845-16.041202 259.406009 259.406009 0 0 1 23.292704-15.381974 187.550215 187.550215 0 0 0 22.96309-16.700429 16.590558 16.590558 0 0 0 5.054078-22.523606c-3.076395-6.812017-3.076395-6.812017 3.076394-10.987124a2.966524 2.966524 0 0 0 1.648069-2.527039c-12.195708-1.977682-24.061803-5.383691-36.477253-8.569957a137.339056 137.339056 0 0 1 11.756223 13.074678 75.04206 75.04206 0 0 1 10.437768 15.162232 20.32618 20.32618 0 0 0 2.307296-5.933047c0-1.208584 0-2.856652 2.087554-2.966524s2.417167 0.988841 3.296137 2.087554a10.987124 10.987124 0 0 1 0 14.612875 38.345064 38.345064 0 0 1-8.460085 7.581116c-10.987124 7.471245-22.96309 13.404292-34.279829 20.326181a103.388841 103.388841 0 0 0-26.149356 21.315021 25.929614 25.929614 0 0 0 16.370815 42.520172 92.181974 92.181974 0 0 0 40.54249-5.493563c12.635193-3.625751 24.72103-8.7897 37.13648-12.964806a76.909871 76.909871 0 0 1 39.224035-3.406009 12.085837 12.085837 0 0 1 6.042918 1.977682c0 3.076395-2.417167 3.076395-4.39485 3.51588a367.519313 367.519313 0 0 0-78.777682 23.951932A206.448069 206.448069 0 0 0 352.24721 307.639485a25.490129 25.490129 0 0 1-6.812017 2.856652 65.922747 65.922747 0 0 0-27.138197 17.249786 107.014592 107.014592 0 0 1-14.393133 10.987124 3.296137 3.296137 0 0 1-3.296138 0c-2.966524-2.746781-5.383691-5.823176-8.240343-8.569957a30.983691 30.983691 0 0 0-34.3897-6.921888l-3.186266 1.428326c-6.042918 2.746781-7.03176 2.417167-8.899571-3.735622a188.099571 188.099571 0 0 0-19.44721-43.948498 113.496996 113.496996 0 0 0-38.564807-39.333906 87.896996 87.896996 0 0 0-17.909013-6.921888c-1.75794 0-4.065236 0-3.955364-3.406009z" fill="#DEFED3" p-id="6108"></path><path d="M715.591416 217.435193A140.195708 140.195708 0 0 1 778.437768 230.729614a108.882403 108.882403 0 0 1 43.948498 43.179399 129.867811 129.867811 0 0 1 8.569957 19.007725c0.769099 2.087554 1.648069 3.076395 3.845494 1.538198a42.300429 42.300429 0 0 1 56.583691 7.690987c0.769099 0.87897 1.648069 1.538197 2.63691 2.527038l6.702146-10.987124c1.538197 0.659227 1.977682 2.087554 2.636909 3.406008a469.919313 469.919313 0 0 1 32.961374 78.55794 439.484979 439.484979 0 0 1 15.711588 68.449786 16.370815 16.370815 0 0 1 0.87897 6.372532c-2.197425 1.318455-4.175107 0-6.262661 0a534.303863 534.303863 0 0 0-102.180258-18.238627l-19.776824-1.538197a6.921888 6.921888 0 0 1-4.175107-3.406009 341.919313 341.919313 0 0 0-31.862661-41.970815 363.563948 363.563948 0 0 0-121.84721-87.896996l-12.30558-5.27382c-1.977682-0.769099-4.175107-1.208584-5.054077-3.625751a79.546781 79.546781 0 0 1 3.296137-12.41545 210.842918 210.842918 0 0 0 4.39485-24.940773 60.319313 60.319313 0 0 0 0.549356-13.733905c0-8.020601 0.87897-9.119313 8.569957-10.987125a12.085837 12.085837 0 0 1 9.558799 5.27382c1.648069 1.867811 3.296137 2.527039 5.603433 0.988841a28.566524 28.566524 0 0 1 24.171674-3.845493c3.625751 0.87897 5.493562 0 5.713305-3.955365 0.549356-3.186266 0.988841-6.262661 4.284978-7.471245zM166.015451 227.323605c3.076395 3.076395 7.471245 3.076395 10.987124 4.504721a97.455794 97.455794 0 0 1 42.410301 34.169957 168.762232 168.762232 0 0 1 27.028326 55.59485c1.318455 4.504721 2.856652 4.834335 6.812017 2.746781a34.3897 34.3897 0 0 1 47.244635 14.832618c0 2.527039-2.087554 3.296137-3.51588 4.39485a412.896137 412.896137 0 0 0-36.147639 32.961373c-7.581116 7.581116-14.503004 15.821459-21.424893 24.061803a9.998283 9.998283 0 0 1-5.823176 4.284978h-39.77339a338.842918 338.842918 0 0 0-45.266953 0h-9.448927c-18.56824 0-37.136481 0-55.704721 1.867812a9.448927 9.448927 0 0 1-6.812017-0.219743 446.516738 446.516738 0 0 1 43.948497-114.156223 494.420601 494.420601 0 0 1 42.739915-63.066094 14.612876 14.612876 0 0 1 2.746781-1.977683z" fill="#F8FEF5" p-id="6109"></path><path d="M602.973391 948.298712a245.012876 245.012876 0 0 1-25.929614 4.724464 8.569957 8.569957 0 0 1-2.746781-2.746781 129.208584 129.208584 0 0 0-24.281545-26.149356c-8.350215-7.800858-16.370815-15.93133-24.830902-23.622318-3.955365-3.51588-4.175107-3.625751-8.020601 0l-41.091845 37.466094a69.109013 69.109013 0 0 0-12.085837 16.370816 2.527039 2.527039 0 0 1-2.527039 0.988841 382.681545 382.681545 0 0 1-77.898712-15.93133 17.030043 17.030043 0 0 1 0.87897-7.361374 434.540773 434.540773 0 0 1 26.039485-75.92103 65.922747 65.922747 0 0 1 9.778541-16.590558 118.660944 118.660944 0 0 1 43.069528-13.074678 150.303863 150.303863 0 0 1 26.808583-2.417167 148.545923 148.545923 0 0 1 74.053219 19.996566 59.9897 59.9897 0 0 1 23.732189 29.884979 192.494421 192.494421 0 0 1 13.294421 54.935622 184.693562 184.693562 0 0 0 1.75794 19.44721z" fill="#FA665A" p-id="6110"></path><path d="M803.158798 848.535622a267.536481 267.536481 0 0 1-29.555365 23.951932 434.32103 434.32103 0 0 1-79.986266 46.365665 25.490129 25.490129 0 0 1-6.812017-16.151073 21.974249 21.974249 0 0 0 1.098713-6.812017v-98.88412c0-2.63691 1.538197-3.845494 3.625751-4.724464A411.35794 411.35794 0 0 0 739.543348 769.098712a5.27382 5.27382 0 0 1 3.296137-0.988841c5.054077 2.417167 7.361373 7.471245 10.987124 10.987125s5.383691 6.702146 8.130473 9.998283c12.415451 16.041202 24.611159 32.192275 36.037768 48.892704 1.977682 3.406009 5.603433 6.042918 5.163948 10.547639z" fill="#55DECB" p-id="6111"></path><path d="M76.580258 406.523605c52.95794-3.51588 105.91588-3.51588 158.98369-1.867811 0.988841 1.75794 0 2.746781-1.318454 3.845494A320.824034 320.824034 0 0 0 196.230043 472.446352c-0.769099 1.867811-1.318455 4.284979-4.065236 4.39485-8.130472 0-16.151073-1.75794-24.281545-2.197425s-15.93133-1.648069-23.84206-1.977683-16.480687-1.318455-24.830902-1.098712c-10.327897-1.208584-20.655794-0.769099-30.873819-0.988841H72.075536a7.03176 7.03176 0 0 1-5.493562-1.538198A288.302146 288.302146 0 0 1 71.855794 428.497854c1.318455-7.471245 3.076395-14.942489 4.724464-21.974249z" fill="#79EEBD" p-id="6112"></path><path d="M119.2103 470.578541a218.094421 218.094421 0 0 1 24.940773 1.098712 4.39485 4.39485 0 0 1 3.406009 4.284979v280.611159c0 3.625751 1.318455 7.800858-2.746782 10.987124a199.52618 199.52618 0 0 1-16.370815-24.501288c-3.955365-6.482403-7.471245-13.184549-10.987124-19.776824V480.796567a13.843777 13.843777 0 0 1 1.757939-10.218026z" fill="#45CCAE" p-id="6113"></path><path d="M144.920172 767.011159a10.987124 10.987124 0 0 0 1.208583-6.262661V477.390558c0-2.197425 0-4.39485-1.977682-5.713305l23.951931 1.977683a4.39485 4.39485 0 0 1 3.406009 4.284978v309.287554a35.378541 35.378541 0 0 1 0 6.482403c0 1.867811-0.769099 3.735622-3.186266 3.735623a253.582833 253.582833 0 0 1-23.402575-30.434335z" fill="#46CDB0" p-id="6114"></path><path d="M602.973391 948.298712c-3.51588-0.87897-2.087554-3.735622-2.197425-5.713304a191.505579 191.505579 0 0 0-16.370816-72.954507 61.308155 61.308155 0 0 0-32.961373-30.654077 155.577682 155.577682 0 0 0-43.948498-12.195708 158.104721 158.104721 0 0 0-40.981974 0 159.972532 159.972532 0 0 0-37.90558 9.229184c-2.966524 1.208584-5.713305 2.63691-8.569957 3.955365a2.527039 2.527039 0 0 1 0-3.186266 122.506438 122.506438 0 0 1 12.854936-18.458369 4.834335 4.834335 0 0 1 2.527038-1.318455 197.76824 197.76824 0 0 1 22.633477 2.63691 605.500429 605.500429 0 0 0 68.0103 3.076395 493.102146 493.102146 0 0 0 69.768241-5.163949 19.776824 19.776824 0 0 1 6.372532 0 10.987124 10.987124 0 0 1 5.823176 5.054078 230.729614 230.729614 0 0 1 31.313305 61.198283 460.690129 460.690129 0 0 1 13.514163 44.607725 13.184549 13.184549 0 0 1 0 5.823176 280.830901 280.830901 0 0 1-43.948498 12.745065c-1.428326 0.659227-3.735622 0.87897-5.933047 1.318454z" fill="#F14E4E" p-id="6115"></path><path d="M119.2103 470.578541v244.57339a9.778541 9.778541 0 0 1-1.757939 7.581116 398.832618 398.832618 0 0 1-30.87382-71.745923 91.412876 91.412876 0 0 0 0-12.41545V478.818884a12.745064 12.745064 0 0 1 1.538197-9.119313 229.740773 229.740773 0 0 1 31.093562 0.87897z" fill="#44CBAC" p-id="6116"></path><path d="M338.513305 922.918455a314.121888 314.121888 0 0 1-49.991417-24.611159 11.866094 11.866094 0 0 1-1.538197-7.141631V773.383691a13.514163 13.514163 0 0 1 0.988841-6.372532c1.75794-2.197425 3.845494-1.428326 5.823176 0a384.549356 384.549356 0 0 0 42.080687 21.424893 5.933047 5.933047 0 0 1 3.955365 4.724463 39.443777 39.443777 0 0 1 0 6.482403q0.439485 57.35279 0.439485 115.035194c0 2.856652 0 6.042918-1.75794 8.240343z" fill="#4BD3B9" p-id="6117"></path><path d="M956.648927 522.657511a222.269528 222.269528 0 0 1-2.966524 41.970815 58.781116 58.781116 0 0 0-16.920171-10.987124c-23.512446-13.624034-47.134764-27.138197-70.537339-40.872103a35.158798 35.158798 0 0 1-9.119314-4.944206c-3.51588-8.7897-5.823176-17.909013-9.229184-26.698713a307.639485 307.639485 0 0 0-19.776824-41.751073c-0.988841-1.648069-2.527039-3.296137-1.538198-5.493562 2.856652-1.867811 5.163948 0 7.361374 1.318455l71.636051 41.311588 47.464378 27.35794a6.482403 6.482403 0 0 1 4.065236 7.03176 103.169099 103.169099 0 0 1-0.439485 11.756223z" fill="#55DECB" p-id="6118"></path><path d="M168.212876 797.555365c2.746781-1.428326 1.867811-4.065236 1.867811-6.262661V479.917597c0-2.307296 0-4.724464-1.977683-6.262661a241.716738 241.716738 0 0 1 24.940773 2.966523 19.227468 19.227468 0 0 1-2.63691 9.888412A164.037768 164.037768 0 0 0 181.83691 516.39485a288.521888 288.521888 0 0 0-6.592275 44.717596 179.309871 179.309871 0 0 0 4.284979 57.242919 205.129614 205.129614 0 0 0 12.305579 36.806867 25.380258 25.380258 0 0 1 3.296137 10.327897 49.002575 49.002575 0 0 0 0 10.987124v138.54764c0 2.856652 1.428326 6.482403-2.636909 8.130472a236.55279 236.55279 0 0 1-24.281545-25.6z" fill="#47CEB1" p-id="6119"></path><path d="M290.060086 766.571674c-2.197425 1.648069-1.318455 3.955365-1.318455 6.042918V898.746781a285.665236 285.665236 0 0 1-38.894421-25.160515c-0.988841-42.300429 0-84.490987 0-126.791416a15.272103 15.272103 0 0 1 1.098713-6.262661c2.417167-3.845494 4.614592-0.87897 6.482403 0 7.581116 5.933047 15.052361 11.975966 23.182833 17.249785l7.031759 4.724464c0.769099 1.208584 2.307296 2.087554 2.417168 4.065236z" fill="#4AD1B7" p-id="6120"></path><path d="M191.835193 824.034335c1.977682-1.75794 1.098712-4.065236 1.098713-6.15279v-143.93133a25.709871 25.709871 0 0 1 1.208583-8.7897c3.406009 1.428326 3.625751 5.27382 5.823176 7.690987a219.742489 219.742489 0 0 0 13.843777 21.974249c2.307296 3.51588 5.054077 6.812017 7.581116 10.218026 1.318455 1.75794 2.527039 3.51588 1.428326 5.823176-0.549356 12.305579 0 24.501288 0 36.806867v94.818884c0 2.63691 1.428326 6.15279-2.856652 7.361373A233.03691 233.03691 0 0 1 191.835193 824.034335z" fill="#48CFB3" p-id="6121"></path><path d="M219.412876 849.634335c2.197425-1.648069 1.318455-3.955365 1.318454-5.933047V714.382833c0-1.867811-1.318455-4.504721 1.75794-5.493563 4.39485 0.988841 6.372532 4.944206 9.009442 7.91073a211.062661 211.062661 0 0 0 16.70043 16.590558c1.538197 1.318455 3.51588 2.63691 3.406008 5.163948a53.617167 53.617167 0 0 0-1.098712 14.832618v112.06867c0 2.527039 2.966524 5.823176-0.988841 8.020601a232.267811 232.267811 0 0 1-30.104721-23.84206z" fill="#49D0B4" p-id="6122"></path><path d="M956.648927 522.657511a19.337339 19.337339 0 0 0-12.085837-22.96309c-23.622318-12.195708-46.255794-26.259227-69.218884-39.66352l-40.652361-23.732189a11.536481 11.536481 0 0 0-7.361373-2.636909 3.186266 3.186266 0 0 1-2.63691-3.845494 480.027468 480.027468 0 0 1 56.254077 5.054077 488.15794 488.15794 0 0 1 72.515022 15.601717 598.688412 598.688412 0 0 1 3.955365 65.922747 9.119313 9.119313 0 0 1-0.769099 6.262661z" fill="#56DFCC" p-id="6123"></path><path d="M653.733906 933.905579c-2.307296-8.130472-4.614592-16.370815-7.03176-24.501287a398.612876 398.612876 0 0 0-18.238627-50.211159 206.448069 206.448069 0 0 0-24.501287-40.65236c0-1.318455 0.769099-1.75794 1.75794-1.977683 6.482403-1.428326 12.964807-2.856652 19.557081-3.845493a5.163948 5.163948 0 0 1 3.406009 0.659227 122.286695 122.286695 0 0 1 18.238626 21.974249 415.313305 415.313305 0 0 1 38.564807 61.967382 16.700429 16.700429 0 0 1 2.307296 7.471245l6.15279 14.612875A313.023176 313.023176 0 0 1 653.733906 933.905579z" fill="#E94949" p-id="6124"></path><path d="M858.094421 507.495279c14.393133 6.372532 27.467811 15.162232 41.091845 22.853219 16.8103 9.558798 33.51073 19.337339 50.32103 28.896137 2.307296 1.318455 4.504721 2.307296 4.175107 5.383691a226.664378 226.664378 0 0 1-6.262661 38.564807c-2.527039 0.769099-4.504721-0.87897-6.372532-1.977682-24.501288-13.843777-48.56309-28.346781-73.174249-41.970816a5.493562 5.493562 0 0 1-2.856652-2.63691c-1.977682-10.987124-2.087554-21.974249-4.39485-32.412017 0-2.417167-0.87897-4.834335-1.538197-7.251502s-2.417167-6.042918-0.988841-9.448927z" fill="#54DDC9" p-id="6125"></path><path d="M434.211159 818.540773a134.372532 134.372532 0 0 0-13.953648 21.974248 200.844635 200.844635 0 0 0-20.216309 43.948498 379.495279 379.495279 0 0 0-15.82146 53.727039s-0.549356 0.769099-0.878969 1.098712a263.690987 263.690987 0 0 1-38.015451-13.184549c-1.428326-3.186266 0.769099-5.823176 1.867811-8.350215a417.51073 417.51073 0 0 1 28.786266-54.935622c0.87897-1.428326 1.75794-2.856652 2.527039-4.284978 8.679828-12.415451 17.249785-24.940773 27.028326-36.587125a36.587124 36.587124 0 0 1 7.141631-7.471245 49.881545 49.881545 0 0 1 21.20515 3.076395s0.439485 0.439485 0.329614 0.988842z" fill="#E94949" p-id="6126"></path><path d="M463.107296 954.012017a45.706438 45.706438 0 0 1 11.536481-16.590558c14.283262-13.294421 28.896137-26.259227 43.28927-39.553648 2.527039-2.307296 3.955365-2.417167 6.372532 0 13.404292 12.964807 27.028326 25.819742 40.652361 38.78455a56.693562 56.693562 0 0 1 11.975966 16.260944h-1.208584c-1.75794 1.208584-4.065236 0-5.823176 0.988841l-2.087554 0.988841a7.800858 7.800858 0 0 0-5.823176 0h-1.977682c-2.197425 1.318455-4.724464 0-6.921889 0.988841h-3.076394c-3.186266 1.318455-6.702146 0-9.888412 0.988842a9.339056 9.339056 0 0 0-5.054078 0.988841 64.164807 64.164807 0 0 0-14.722746 0c-10.987124 0-22.633476-0.659227-33.950215 0a9.448927 9.448927 0 0 0-5.054077-0.988841 17.469528 17.469528 0 0 0-8.899571 0l-3.406009-0.988842c-1.648069-1.428326-4.834335 1.428326-5.933047-1.867811z" fill="#F1F1F1" p-id="6127"></path><path d="M379.385408 858.424034c0 1.977682-1.538197 3.296137-2.417168 4.724464a356.971674 356.971674 0 0 0-31.752789 62.956223 20.106438 20.106438 0 0 1-6.702146-2.856652V791.072961a7.251502 7.251502 0 0 1 5.713304 0.769099c9.888412 3.735622 19.776824 7.361373 29.884979 10.987125 2.197425 0.659227 4.39485 1.538197 5.27382 4.065236 1.098712 10.108155 0 20.216309 0 30.324463a135.581116 135.581116 0 0 1 0 21.20515z" fill="#4CD5BC" p-id="6128"></path><path d="M924.786266 678.015451a252.703863 252.703863 0 0 1-17.909013 38.89442c-3.186266 0-5.27382-1.75794-7.581116-3.076395-19.557082-10.987124-39.004292-22.633476-58.671244-33.730472a12.195708 12.195708 0 0 1-3.955365-2.966523c-0.87897-2.197425 0-3.845494 1.428326-5.603434a157.225751 157.225751 0 0 0 13.514163-28.017167 14.173391 14.173391 0 0 1 3.076395-5.603434c1.75794-0.87897 3.186266 0 4.614592 0.988842 20.545923 11.756223 41.091845 23.732189 61.637769 35.488412 1.648069 0.87897 3.296137 1.648069 3.845493 3.625751z" fill="#50D8C2" p-id="6129"></path><path d="M88.336481 469.699571v173.816309a9.66867 9.66867 0 0 1-1.75794 7.471244 402.678112 402.678112 0 0 1-15.162232-59.330472 463.876395 463.876395 0 0 1-6.812017-100.861802A107.014592 107.014592 0 0 1 66.472103 469.5897z" fill="#43CAAA" p-id="6130"></path><path d="M924.786266 678.015451l-60.099571-34.719314-9.558798-5.163948c-1.098712-1.648069 0-3.186266 0-4.724464a207.986266 207.986266 0 0 0 7.471245-30.434334 7.141631 7.141631 0 0 1 1.538197-3.625752c2.527039-1.977682 4.724464 0 6.812017 0.659228l63.725322 37.246352c1.648069 0.988841 3.625751 1.867811 3.076395 4.504721a225.565665 225.565665 0 0 1-12.964807 36.257511z" fill="#52DBC5" p-id="6131"></path><path d="M937.751073 641.208584c-2.527039-4.284979-7.471245-5.27382-10.987125-7.581116-18.128755-10.987124-36.367382-21.20515-54.935622-31.75279a12.305579 12.305579 0 0 0-6.812017-2.63691c-2.417167-3.735622 0-7.471245 0-10.987124a141.294421 141.294421 0 0 0 0-27.35794 3.406009 3.406009 0 0 1 0.988841-3.296137 363.893562 363.893562 0 0 1 33.730472 18.56824c15.93133 8.899571 31.862661 18.128755 47.68412 27.248069a229.191416 229.191416 0 0 1-9.668669 37.795708z" fill="#53DCC7" p-id="6132"></path><path d="M761.187983 789.644635c-6.702146-6.372532-11.866094-14.173391-18.018884-21.095279 0-1.648069 1.098712-2.307296 2.197425-2.966523 6.592275-4.065236 12.964807-8.460086 19.227467-12.854936a4.39485 4.39485 0 0 1 3.625751-1.098712 353.236052 353.236052 0 0 0 32.961374 19.666952l45.92618 26.588842c1.428326 0.769099 3.076395 1.428326 2.966524 3.515879-5.713305 7.471245-12.195708 14.173391-18.568241 20.985408-1.318455 1.428326-2.856652 2.63691-4.394849 3.955365l-52.848069-30.544206a43.28927 43.28927 0 0 0-13.074678-6.15279z" fill="#4AD1B6" p-id="6133"></path><path d="M849.854077 801.290987c-7.471245-4.504721-14.942489-9.119313-21.974249-13.514163l-54.935622-31.642918c-1.648069-0.988841-4.175107-1.648069-4.175107-4.504721s1.867811-2.966524 3.186266-4.065237a224.137339 224.137339 0 0 0 18.787983-16.041201 7.03176 7.03176 0 0 1 5.054077-2.746781 78.338197 78.338197 0 0 1 16.260944 8.569957c18.348498 10.987124 36.806867 21.20515 54.935622 31.862661 1.977682 1.208584 5.493562 1.648069 4.284979 5.493562a203.591416 203.591416 0 0 1-21.424893 26.588841z" fill="#4CD4BA" p-id="6134"></path><path d="M836.88927 676.916738c9.009442 4.175107 17.359657 9.558798 25.929614 14.393133l43.948498 25.6a225.895279 225.895279 0 0 1-19.007725 32.961374c-14.503004-9.229185-29.665236-17.359657-44.497854-25.929614l-21.974249-12.415451c-2.307296-1.318455-4.724464-2.527039-5.493563-5.383691a6.15279 6.15279 0 0 1 1.538198-4.065236 245.122747 245.122747 0 0 0 15.93133-22.853219c1.428326-1.208584 1.428326-2.417167 3.625751-2.307296z" fill="#4FD7BF" p-id="6135"></path><path d="M817.002575 705.593133c2.966524 5.054077 8.679828 6.482403 13.184549 9.229185 18.128755 10.987124 36.477253 21.095279 54.935623 31.533047 1.538197 0.87897 2.856652 1.648069 2.966523 3.625751a175.793991 175.793991 0 0 1-16.920171 24.940772c0-2.087554-1.867811-2.746781-3.186266-3.515879l-72.075537-41.42146h-0.988841c1.75794-5.27382 6.702146-7.800858 9.668669-12.085837s6.372532-6.482403 9.119314-10.218025a3.51588 3.51588 0 0 1 3.296137-2.087554z" fill="#4DD5BC" p-id="6136"></path><path d="M761.187983 789.644635c1.428326-1.648069 2.856652-0.988841 4.39485 0l57.572532 32.961374c1.428326 0.87897 3.406009 1.428326 3.735622 3.625751a247.430043 247.430043 0 0 1-23.84206 21.974249c-9.229185-14.832618-19.776824-28.676395-30.104721-42.739915a133.383691 133.383691 0 0 1-11.756223-15.821459z" fill="#49D0B4" p-id="6137"></path><path d="M486.180258 958.077253c0.87897-1.098712 2.087554-0.988841 3.186266-0.988841h42.300429c1.098712 0 2.307296 0 3.186266 0.988841z" fill="#E7D4CF" p-id="6138"></path><path d="M540.017167 957.088412c3.076395-1.977682 6.592275-0.549356 9.888412-0.988841-3.186266 1.977682-6.702146 0.549356-9.888412 0.988841z" fill="#E6D4CE" p-id="6139"></path><path d="M463.107296 954.012017c1.428326 2.087554 4.39485 0 5.933047 1.977683-2.63691 0-5.383691 0.87897-7.910729-0.769099z" fill="#E9D1CB" p-id="6140"></path><path d="M472.116738 957.088412a9.009442 9.009442 0 0 1 8.899571 0z" fill="#E7D4CF" p-id="6141"></path><path d="M552.872103 955.879828c2.087554-1.867811 4.614592-0.549356 6.921888-0.988841-2.087554 2.197425-4.614592 0.988841-6.921888 0.988841z" fill="#E6D5CF" p-id="6142"></path><path d="M569.902146 954.012017c1.75794-1.75794 3.955365-0.659227 5.823176-0.988841-1.648069 1.867811-3.845494 0.769099-5.823176 0.988841z" fill="#E7D6D0" p-id="6143"></path><path d="M561.991416 955.000858a4.39485 4.39485 0 0 1 5.823176 0z" fill="#E4D3CD" p-id="6144"></path><path d="M212.930472 694.935622a136.350215 136.350215 0 0 1-13.843777-21.974249 65.922747 65.922747 0 0 1 4.614593-16.151073 161.950215 161.950215 0 0 0-2.087554-100.751931 131.845494 131.845494 0 0 0-17.469528-32.961373 15.381974 15.381974 0 0 1-3.296137-6.042919 188.209442 188.209442 0 0 1 12.41545-39.77339 343.787124 343.787124 0 0 1 31.972533-58.012017l10.437768-14.503005a393.778541 393.778541 0 0 1 65.37339-64.933905l16.920172-12.085837a109.871245 109.871245 0 0 1 27.248069-16.920172 382.901288 382.901288 0 0 1 83.172532-32.961373 302.255794 302.255794 0 0 1 29.555365-6.482404c1.318455 0 2.63691 0 3.296137-1.75794a92.621459 92.621459 0 0 1 17.249785-2.746781 322.472103 322.472103 0 0 1 54.935623-2.307296 437.507296 437.507296 0 0 1 54.935622 6.372532A358.290129 358.290129 0 0 1 644.504721 285.665236a9.998283 9.998283 0 0 1 6.15279 3.955365A359.608584 359.608584 0 0 1 758.660944 354.334764 300.607725 300.607725 0 0 1 789.974249 384.549356a94.599142 94.599142 0 0 0 3.735622 9.229185 111.519313 111.519313 0 0 1 6.812017 35.927897 245.342489 245.342489 0 0 1-30.654077 133.383691 16.041202 16.041202 0 0 1-5.27382 7.031759c-2.856652 0-2.966524-2.197425-3.625751-3.955364a187.769957 187.769957 0 0 0-35.708154-61.74764 254.791416 254.791416 0 0 0-69.328756-56.913305 279.622318 279.622318 0 0 0-237.54163-16.370815 258.527039 258.527039 0 0 0-74.163091 43.179399 200.185408 200.185408 0 0 0-69.878111 105.146781 142.173391 142.173391 0 0 0 23.732189 120.858369c1.538197 2.307296 5.27382 4.175107 2.856652 8.020601a35.488412 35.488412 0 0 1-13.294421 0 416.741631 416.741631 0 0 1-65.922746-9.668669 37.466094 37.466094 0 0 1-8.7897-3.735623z" fill="#FA665A" p-id="6145"></path><path d="M650.657511 289.181116a369.936481 369.936481 0 0 0-136.350215-24.611159 327.196567 327.196567 0 0 0-36.037768 2.527039 7.251502 7.251502 0 0 1 1.867811-9.119314 234.79485 234.79485 0 0 1 11.975966-41.53133c-1.208584-2.966524 0.87897-5.163948 1.867811-7.361373a47.68412 47.68412 0 0 1 8.460086-15.491846 42.959657 42.959657 0 0 0 6.042918-9.888412 18.897854 18.897854 0 0 1 5.163949-8.240343 165.905579 165.905579 0 0 1 13.404292-14.283262 6.262661 6.262661 0 0 1 3.955364-1.867811c29.775107-19.996567 60.429185-16.8103 91.412876-3.186266a39.663519 39.663519 0 0 1 19.996566 16.700429 92.072103 92.072103 0 0 1 11.866095 23.84206 5.493562 5.493562 0 0 1 2.417167 4.175107 145.249785 145.249785 0 0 1 2.966524 23.182833 271.821459 271.821459 0 0 0-0.769099 27.138197 146.238627 146.238627 0 0 1-8.240343 38.015451z" fill="#DF1414" p-id="6146"></path><path d="M479.917597 257.977682a38.345064 38.345064 0 0 0-1.867812 9.119314 64.714163 64.714163 0 0 1-17.139914 1.428326 83.941631 83.941631 0 0 0-50.760515 4.284978 292.367382 292.367382 0 0 1-50.650644 15.931331 55.704721 55.704721 0 0 1-25.160515 0 26.698712 26.698712 0 0 1-14.942489-42.080687 75.481545 75.481545 0 0 1 23.072962-20.216309c10.987124-7.03176 23.182833-13.624034 34.719313-20.545923a55.484979 55.484979 0 0 0 10.437768-7.581115c6.262661-6.042918 6.042918-12.085837-0.988841-18.348498 0 1.977682-0.87897 3.845494-1.208584 5.713304a12.525322 12.525322 0 0 1-2.527038 5.713305 171.728755 171.728755 0 0 0-25.6-32.961373c14.722747 3.186266 28.456652 7.800858 43.28927 9.558798a17.030043 17.030043 0 0 1-8.130472 6.592275c-1.977682 0.988841-2.197425 1.867811-1.098713 3.735622a43.948498 43.948498 0 0 1 3.296138 6.702146 15.93133 15.93133 0 0 1-4.39485 19.007725 164.806867 164.806867 0 0 1-26.369099 19.557082 188.099571 188.099571 0 0 0-28.456652 19.996566 41.201717 41.201717 0 0 0-9.888412 12.30558 13.184549 13.184549 0 0 0 3.735622 16.8103 28.566524 28.566524 0 0 0 22.853219 6.15279 160.302146 160.302146 0 0 0 42.630043-12.964807c9.998283-3.955365 19.886695-8.350215 30.104721-11.866094a65.922747 65.922747 0 0 1 51.309871 2.417167z" fill="#C81B2C" p-id="6147"></path><path d="M502.221459 193.483262l-10.327897 22.853219a25.490129 25.490129 0 0 0-22.633476 3.845493c-2.197425 1.428326-3.625751 1.977682-5.383691 0a30.214592 30.214592 0 0 0-25.380258-10.987124c-4.284979 0-5.603433-0.769099-3.955364-5.383691a16.370815 16.370815 0 0 0-8.350215-19.007726 34.719313 34.719313 0 0 0-10.987125-4.724463c-1.648069 0-3.186266-0.87897-2.087553-2.856652a41.970815 41.970815 0 0 0 0.988841-26.369099v-3.735622c6.042918 4.944206 11.646352 9.778541 17.579399 14.17339a55.704721 55.704721 0 0 0 34.279828 12.745065 28.346781 28.346781 0 0 0 10.987125-2.307297 6.372532 6.372532 0 0 1 7.251502 1.098713 74.053219 74.053219 0 0 1 18.018884 20.655794zM658.897854 223.258369a185.792275 185.792275 0 0 0-4.065236-26.588841 104.927039 104.927039 0 0 1 20.985408-13.184549 7.251502 7.251502 0 0 1 8.240343 0.988841 36.916738 36.916738 0 0 0 30.324464 5.603433 129.428326 129.428326 0 0 0 32.961373-13.184549c0 1.977682-0.988841 3.406009-1.538197 4.944206a43.948498 43.948498 0 0 0-5.713305 23.84206c0 3.406009-1.977682 2.856652-3.845494 2.746781a26.808584 26.808584 0 0 0-16.480686 4.504721 10.987124 10.987124 0 0 0-4.284979 4.614592 10.987124 10.987124 0 0 0-2.856652 9.119314c0 4.284979-1.318455 4.39485-4.504721 3.51588a26.369099 26.369099 0 0 0-21.974249 0.988841c-5.603433 3.406009-9.558798 4.944206-13.624035-1.538198-0.988841-1.538197-3.51588-2.197425-5.383691-3.186266a16.920172 16.920172 0 0 1-8.240343-3.186266zM531.227468 159.313305a152.171674 152.171674 0 0 0-22.853219 24.281545c-19.886695-23.951931-15.601717-52.408584 1.867811-76.909871a52.848069 52.848069 0 0 0 20.985408 52.628326zM642.746781 172.937339a103.938197 103.938197 0 0 0-19.996566-16.700429 38.125322 38.125322 0 0 0 4.504721-43.069528 41.421459 41.421459 0 0 1 15.491845 59.769957z" fill="#740F15" p-id="6148"></path><path d="M344.885837 310.166524l-27.248069 16.920171c-0.549356-2.746781 1.977682-2.856652 3.296138-3.845493a101.081545 101.081545 0 0 1 19.337339-11.756223 8.020601 8.020601 0 0 1 4.614592-1.318455z" fill="#F6F7EB" p-id="6149"></path><path d="M212.930472 694.935622a145.469528 145.469528 0 0 1 19.44721 4.39485 445.857511 445.857511 0 0 0 48.453219 6.592275c7.03176 0 14.063519 1.208584 21.095279 1.867811 2.087554 0 3.296137 1.428326 4.39485 2.856652a216.446352 216.446352 0 0 0 65.922747 53.067811 301.92618 301.92618 0 0 0 110.860086 33.730473 306.430901 306.430901 0 0 0 52.188841 1.648068A293.466094 293.466094 0 0 0 694.386266 747.124464a182.276395 182.276395 0 0 0 63.395708-75.481546 141.074678 141.074678 0 0 0 10.987125-48.123605 158.214592 158.214592 0 0 0-4.944206-47.244635c0-1.867811-1.428326-3.845494 0-5.713305a230.729614 230.729614 0 0 0 26.918455-62.846352 237.321888 237.321888 0 0 0 8.130472-55.704721 149.095279 149.095279 0 0 0-6.042919-55.704721c-1.318455-3.735622-4.065236-7.141631-3.186266-10.987124a304.013734 304.013734 0 0 1 34.060086 44.607725l2.63691 3.845494a304.233476 304.233476 0 0 1 28.676395 64.714163l2.746781 9.009442 1.867811 8.899571a9.888412 9.888412 0 0 1-2.417167 4.834335 147.337339 147.337339 0 0 0-28.346781 75.481545 176.892704 176.892704 0 0 0 8.460085 69.218884 16.8103 16.8103 0 0 1 1.318455 6.262661l-2.087553 4.724463-19.886696 28.676395-21.974249 24.061803-26.588841 21.974249-24.940772 16.920171a502.551073 502.551073 0 0 1-54.935623 26.808584 4.504721 4.504721 0 0 1-2.636909 2.087554 391.581116 391.581116 0 0 1-57.242919 17.139914c-2.746781-1.977682-5.493562 0-8.020601 0-5.603433 0.87897-10.987124 2.417167-16.590558 3.625751-9.119313 1.098712-18.348498 1.977682-27.35794 3.406008-4.284979 0.659227-8.569957 0.988841-12.745064 1.318455a616.927039 616.927039 0 0 1-73.943348 1.098713 294.784549 294.784549 0 0 1-50.540772-5.383691 23.512446 23.512446 0 0 0-4.504721 0 61.527897 61.527897 0 0 0-21.974249-2.966524c-8.7897-2.307296-17.68927-4.065236-26.369099-6.702146a16.260944 16.260944 0 0 1-7.581116-3.296137L338.623176 791.072961a520.130472 520.130472 0 0 1-48.56309-24.72103c-13.074678-8.7897-25.929614-17.909013-38.125322-28.017167-10.218026-9.339056-19.886695-19.337339-29.225751-29.665236z" fill="#F55954" p-id="6150"></path><path d="M658.897854 223.258369a13.624034 13.624034 0 0 1 8.899571 3.076395c-7.251502 1.977682-8.679828 6.921888-8.020601 13.733906a20.436052 20.436052 0 0 1-0.769099 10.987124z" fill="#DDF5CD" p-id="6151"></path><path d="M628.353648 814.475536a2.087554 2.087554 0 0 1 1.648069-1.648068 502.990558 502.990558 0 0 0 58.341631-17.579399 10.987124 10.987124 0 0 1 1.098712 6.262661v94.599141a14.942489 14.942489 0 0 1-2.087554 8.020601 439.484979 439.484979 0 0 0-38.89442-64.604292 277.20515 277.20515 0 0 0-20.106438-25.050644z" fill="#54DDC9" p-id="6152"></path><path d="M180.628326 516.39485a119.2103 119.2103 0 0 1 23.512447 43.179399 164.806867 164.806867 0 0 1-4.39485 112.508154l-0.659228 0.659228-4.834334-8.020601a250.836052 250.836052 0 0 1-17.5794-52.518455 197.76824 197.76824 0 0 1-1.867811-60.758798 193.153648 193.153648 0 0 1 5.823176-35.048927zM838.976824 672.192275a108.882403 108.882403 0 0 1-8.350215-27.797425 153.819742 153.819742 0 0 1 19.227468-114.485837 70.537339 70.537339 0 0 1 9.998284-13.514163 134.372532 134.372532 0 0 1 4.944206 27.248068c0.659227 4.504721 0.87897 9.119313 1.208583 13.733906V560.343348a257.208584 257.208584 0 0 1 0 27.797425l-1.098712 10.987124a267.096996 267.096996 0 0 1-9.888412 38.894421 179.969099 179.969099 0 0 1-16.041202 34.169957z" fill="#F5F5F5" p-id="6153"></path><path d="M378.396567 805.575966l32.961373 8.130472c0.988841 0 1.098712 1.098712 1.098712 1.867811a354.444635 354.444635 0 0 0-29.555364 38.674678c-0.988841 1.428326-2.197425 2.746781-3.406009 4.175107-1.648069-1.428326-0.988841-3.406009-0.988841-5.163948-0.109871-15.93133-0.109871-31.862661-0.109871-47.68412z" fill="#4ED6BD" p-id="6154"></path><path d="M866.115021 588.140773V560.343348a94.928755 94.928755 0 0 1 0 27.797425z" fill="#54DDC9" p-id="6155"></path><path d="M764.154506 570.451502a211.502146 211.502146 0 0 1 6.372533 38.674678 137.66867 137.66867 0 0 1-8.240344 53.617168 184.47382 184.47382 0 0 1-76.140772 91.193133 286.654077 286.654077 0 0 1-115.145065 42.849785 326.64721 326.64721 0 0 1-80.865236 2.63691 288.412017 288.412017 0 0 1-152.611158-56.803434 227.103863 227.103863 0 0 1-35.378541-34.829184 184.693562 184.693562 0 0 1-21.974249-38.235193 145.359657 145.359657 0 0 1 5.163948-122.836052 228.532189 228.532189 0 0 1 94.159657-98.00515 266.987124 266.987124 0 0 1 107.344206-35.598283 274.678112 274.678112 0 0 1 205.019742 57.242918A208.755365 208.755365 0 0 1 760.418884 560.343348z" fill="#F9E7DA" p-id="6156"></path><path d="M593.634335 266.218026l-8.460086-21.974249c-2.527039 6.921888-1.538197 13.514163-3.845494 20.216309l-18.348497-26.588841v19.557081h-1.538198l-23.402575-57.242918c15.93133 8.460086 26.259227 23.072961 40.762232 33.950214a71.306438 71.306438 0 0 1 0-23.182832l16.920171 25.709871c4.175107-7.361373 6.042918-15.052361 9.998284-23.512446l3.406008 27.138197 21.974249-39.663519c7.471245 14.063519-6.702146 51.2-19.44721 67.241201a52.738197 52.738197 0 0 0-4.834335-17.68927c0-0.988841-0.549356-2.63691-2.087554-2.307296s-1.318455 1.318455-1.757939 2.197425z" fill="#740F15" p-id="6157"></path><path d="M586.16309 190.956223a30.983691 30.983691 0 0 1-26.149356 6.812017 41.860944 41.860944 0 0 1-20.216309-8.89957 14.832618 14.832618 0 0 1-6.042919-11.975966c0-2.63691 0.87897-3.51588 3.625752-2.527039z" fill="#F5F3A9" p-id="6158"></path><path d="M630.551073 168.542489c0 11.646352-0.988841 22.633476-10.987125 28.346781s-18.018884 0-26.698712-5.933047z" fill="#F5F2A9" p-id="6159"></path><path d="M533.644635 770.966524c-30.324464 0-54.935622-2.63691-76.909871-14.393133a130.63691 130.63691 0 0 1-43.948498-34.169958 43.28927 43.28927 0 0 1-8.679828-35.158798 32.961373 32.961373 0 0 1 30.104721-27.138197 54.935622 54.935622 0 0 1 41.860944 11.756223 82.183691 82.183691 0 0 0 22.853219 13.953648 58.341631 58.341631 0 0 0 49.002575-3.406009q13.733906-7.03176 26.918455-14.942489a67.570815 67.570815 0 0 1 42.630043-10.987124 32.961373 32.961373 0 0 1 31.203433 41.201716 70.757082 70.757082 0 0 1-32.961373 47.903863 141.514163 141.514163 0 0 1-82.07382 25.380258zM614.949356 623.519313a14.173391 14.173391 0 0 1 14.722747-14.17339 14.393133 14.393133 0 1 1-0.769099 28.676395 14.283262 14.283262 0 0 1-13.953648-14.503005zM435.419742 623.958798a14.283262 14.283262 0 0 1-14.283261 14.06352 14.393133 14.393133 0 0 1-14.283262-14.722747 14.283262 14.283262 0 0 1 14.393133-14.063519 14.063519 14.063519 0 0 1 14.17339 14.722746z" fill="#2C1919" p-id="6160"></path><path d="M708.669528 674.939056a18.678112 18.678112 0 0 1 12.195708 3.406008 7.581116 7.581116 0 0 1 0 12.964807 24.72103 24.72103 0 0 1-26.259227 0 7.690987 7.690987 0 0 1 0.769098-13.404292 21.974249 21.974249 0 0 1 13.294421-2.966523zM332.030901 694.935622a19.666953 19.666953 0 0 1-12.085837-2.746781 7.800858 7.800858 0 0 1 0-14.063519 23.951931 23.951931 0 0 1 24.611159 0 7.581116 7.581116 0 0 1 0 13.404292 18.897854 18.897854 0 0 1-12.525322 3.406008z" fill="#F090AF" p-id="6161"></path><path d="M614.180258 531.557082c4.834335 0 11.866094 8.679828 10.987124 13.184549 0 0 0 0.988841-0.769099 1.098712s-1.538197 0-1.75794-1.318455a19.44721 19.44721 0 0 0-3.515879-7.581115 5.27382 5.27382 0 0 0-5.163949-2.417168 4.724464 4.724464 0 0 0-3.845494 4.065236c0 1.208584 0 3.076395-1.977682 2.527039s-0.988841-2.307296-0.87897-3.406009a7.800858 7.800858 0 0 1 6.921889-6.152789z" fill="#362322" p-id="6162"></path><path d="M432.782833 539.028326c0 0.988841 0 2.197425-1.208584 2.417168s-1.428326-0.87897-1.538197-1.867812a5.054077 5.054077 0 0 0-4.284979-4.834334 5.823176 5.823176 0 0 0-5.933047 3.845493 47.574249 47.574249 0 0 0-2.63691 6.372532c0 0.659227-0.769099 1.318455-1.428326 1.098713a2.087554 2.087554 0 0 1-1.318455-1.318455c-1.208584-4.944206 6.262661-13.514163 10.987124-13.074678a7.581116 7.581116 0 0 1 7.361374 7.361373z" fill="#342120" p-id="6163"></path><path d="M597.5897 662.303863v85.809442a5.383691 5.383691 0 0 1-3.845494 5.933047c-5.823176 2.417167-11.646352 4.724464-17.579399 6.702146-2.63691 0.87897-3.625751 0.549356-3.625751-2.63691v-38.784549-41.751073a5.603433 5.603433 0 0 1 3.296137-5.823176 93.939914 93.939914 0 0 1 21.754507-9.448927z" fill="#FEFEFE" p-id="6164"></path><path d="M569.35279 676.147639v83.612018c0 2.417167-1.098712 3.186266-3.076395 3.515879l-19.117597 3.076395c-2.417167 0-2.856652-0.549356-2.856652-2.63691V691.090129a3.296137 3.296137 0 0 1 2.307296-3.296138c7.471245-3.845494 14.722747-7.581116 22.743348-11.646352z" fill="#FDFDFD" p-id="6165"></path><path d="M485.081545 762.836052a119.759657 119.759657 0 0 1-22.853219-7.91073 3.186266 3.186266 0 0 1-2.087553-3.406009v-84.600858a70.097854 70.097854 0 0 1 15.05236 8.7897 19.44721 19.44721 0 0 1 10.108155 20.216309c-0.87897 20.545923 0 41.201717 0 61.747639zM600.775966 750.530472v-8.130472-75.701288c0-3.955365 0.549356-5.823176 5.163948-6.152789a78.448069 78.448069 0 0 1 16.370816 0.769098c2.746781 0 3.625751 1.648069 3.625751 4.614593v64.274678c0 1.208584 0 2.63691-0.769099 3.735622a110.969957 110.969957 0 0 1-24.391416 16.590558zM456.185408 751.739056a120.858369 120.858369 0 0 1-22.96309-14.942489c-1.428326-1.098712-1.208584-2.63691-1.208584-4.065237V668.017167c0-2.966524 0.988841-3.955365 3.955365-4.175107a61.418026 61.418026 0 0 1 18.238626 0.988841c1.977682 0 2.856652 1.098712 2.856653 3.186266v83.062661z" fill="#FEFEFE" p-id="6166"></path><path d="M541.445494 728.336481v34.279828c0 3.296137-0.988841 4.284979-4.175108 4.175107h-16.920171c-2.746781 0-4.065236 0-4.065236-3.845493v-65.922747c0-2.087554 0-3.845494 2.966523-3.735622a52.408584 52.408584 0 0 0 18.787983-2.527039c2.63691-0.87897 2.966524 0 2.966524 2.307296 0.329614 11.756223 0.439485 23.512446 0.439485 35.26867z" fill="#FDFDFD" p-id="6167"></path><path d="M488.267811 685.376824a84.381116 84.381116 0 0 0 22.853219 7.471245c2.197425 0 2.087554 1.648069 2.087554 3.186266v67.680686c0 2.087554 0 3.076395-2.746781 2.856653l-19.227468-2.417168c-2.197425 0-2.966524-1.098712-2.966524-3.515879v-75.261803z" fill="#FEFEFE" p-id="6168"></path><path d="M428.16824 732.291845c-13.404292-12.085837-23.402575-25.380258-19.776824-44.497854a27.687554 27.687554 0 0 1 16.920172-21.20515c2.527039-1.098712 3.51588-0.769099 3.51588 2.197425v61.637768a7.91073 7.91073 0 0 1-0.659228 1.867811zM628.793133 729.764807v-57.682404c0-2.63691-1.428326-6.921888 0.87897-7.690987s5.493562 2.307296 7.800858 4.39485a24.061803 24.061803 0 0 1 7.800859 16.151073 54.056652 54.056652 0 0 1-16.480687 44.827468z" fill="#FDFDFD" p-id="6169"></path></svg>