<?xml version="1.0" standalone="no"?><!DOCTYPE svg PUBLIC "-//W3C//DTD SVG 1.1//EN" "http://www.w3.org/Graphics/SVG/1.1/DTD/svg11.dtd"><svg t="1550212890958" class="icon" style="" viewBox="0 0 1024 1024" version="1.1" xmlns="http://www.w3.org/2000/svg" p-id="5953" xmlns:xlink="http://www.w3.org/1999/xlink" width="200" height="200"><defs><style type="text/css">@font-face { font-family: "Roboto Condensed"; src: url("chrome-extension://lienonopcegannlgdkgonpofbhgmclcc/RobotoCondensed-Regular.ttf"); }
</style></defs><path d="M511.895039 1023.895039H4.618286c-3.778598 0-4.618286-0.839688-4.618286-4.618286V4.618286c0-3.778598 0.839688-4.618286 4.618286-4.618286h1014.658467c3.778598 0 4.618286 0.839688 4.618286 4.618286v1014.658467c0 3.778598-0.839688 4.618286-4.618286 4.618286z" fill="#FEFEFE" p-id="5954"></path><path d="M64.131201 502.133661a352.774088 352.774088 0 0 1 5.143092-60.457564 432.439524 432.439524 0 0 1 42.824108-132.041001 445.664617 445.664617 0 0 1 192.183682-193.863058 419.00451 419.00451 0 0 1 136.449364-45.028291c131.726117-18.99795 250.332103 12.175482 353.823699 96.249283a437.267733 437.267733 0 0 1 151.983599 244.03444c2.099221 8.711767 3.463715 17.528495 5.143092 26.345224-2.519065 0-3.358754-1.889299-4.513325-3.358754-24.350964-30.123821-48.282083-60.457565-72.423125-90.791308a22.776548 22.776548 0 0 0-4.408364-5.143091c-4.093481-5.457975-4.303403-5.562936-8.711767-0.629767-17.843378 19.732677-36.211562 38.625666-54.264862 58.463305a14.694547 14.694547 0 0 1-5.562936 4.828208c-5.03813-2.833948-7.452235-8.291923-11.440754-12.07052-1.259533-1.259533-2.309143-2.833948-3.673637-3.98852a383.527675 383.527675 0 0 0-48.596966-44.818368 367.363674 367.363674 0 0 0-169.931939-71.373514 337.449774 337.449774 0 0 0-70.533826-3.043871 354.453465 354.453465 0 0 0-138.233702 36.631407 24.875769 24.875769 0 0 1-8.711767 3.568675c-2.728987 0-3.778598-2.414104-5.038131-4.303403-13.225092-19.837638-26.240262-39.885199-39.465354-59.722837-2.414104-4.618286-5.772858-8.711767-8.291923-13.225092a76.831488 76.831488 0 0 0-4.828208-7.662157 155.342353 155.342353 0 0 0-8.816729 17.318574c-5.667897 13.01517-12.175482 25.505535-18.368183 38.205822-13.749897 28.234522-27.394834 56.469045-41.144732 84.703567-15.534235 31.488315-30.858549 64.02624-46.602706 95.934399-1.574416 3.253793-1.574416 7.767118-6.087741 9.02665a7.347273 7.347273 0 0 1-4.408364-2.099221c-11.755638-9.9713-23.721197-19.732677-35.371873-29.808938-2.204182-2.414104-5.143091-3.98852-7.347274-6.297663s-4.933169-3.883559-7.347273-6.192702l-39.255433 61.612136-9.866339 15.429275c-1.04961 1.574416-1.679377 3.778598-4.303403 3.568675z" fill="#7070EE" p-id="5955"></path><path d="M955.670357 468.231242a447.448954 447.448954 0 0 1-257.154572 449.863059c-1.99426 0.944649-3.98852 1.574416-5.98278 2.414104-2.309143-1.154572-2.938909-3.463715-3.883559-5.562936a392.869209 392.869209 0 0 0-59.722837-95.934399 12.700287 12.700287 0 0 1-3.358753-5.457974c1.259533-2.833948 4.093481-2.519065 6.402624-3.043871a405.884379 405.884379 0 0 0 89.846658-33.482575 312.99385 312.99385 0 0 0 64.551046-45.02829 251.906519 251.906519 0 0 0 45.133251-54.159902c1.364494-2.309143 2.519065-4.723247 3.673637-7.03239a215.799918 215.799918 0 0 0 26.240262-87.95736 230.914309 230.914309 0 0 0-5.03813-66.650266 276.99221 276.99221 0 0 0-25.190652-68.01476c-1.154572-2.204182-3.358754-4.408364-1.259533-7.242313a9.446494 9.446494 0 0 1 6.297663 0c27.289873 4.513325 54.369824 10.496105 81.344814 16.583846 10.496105 2.414104 20.99221 4.723247 31.488315 7.767118a14.904469 14.904469 0 0 1 6.612546 2.938909zM342.277983 926.071341a383.737597 383.737597 0 0 1-65.705617-33.587536A445.454695 445.454695 0 0 1 104.121361 699.04059a429.710537 429.710537 0 0 1-35.686757-119.760557c-0.629766-4.093481-1.154572-8.186962-1.679376-12.280443a108.424764 108.424764 0 0 1 18.683066-12.175482 784.478885 784.478885 0 0 1 84.91349-43.453874c2.833948-1.259533 5.562936-3.883559 9.236572-2.099221a22.98647 22.98647 0 0 1-1.049611 7.977039 271.219352 271.219352 0 0 0-6.717507 56.678967c0 4.828208 1.364494 9.551456 1.049611 14.379664a17.108651 17.108651 0 0 0 0 6.507585 202.469865 202.469865 0 0 0 22.881509 74.837229 169.722017 169.722017 0 0 0 15.00943 24.770807 247.917999 247.917999 0 0 0 61.297253 59.93276 368.728167 368.728167 0 0 0 131.726117 56.259122c2.414104 0.524805 5.457975 0 6.717507 3.568676a10.496105 10.496105 0 0 1-2.938909 5.03813 417.744977 417.744977 0 0 0-50.381304 76.201722c-4.303403 8.396884-7.97704 17.108651-11.650677 25.820418a9.341533 9.341533 0 0 1-3.253792 4.828209z" fill="#7F7BFC" p-id="5956"></path><path d="M179.273473 509.166052a763.486675 763.486675 0 0 0-81.659697 40.305043c-10.496105 5.772858-19.837638 12.595326-30.543665 17.528495a382.478065 382.478065 0 0 1-3.043871-64.865929c7.872079-10.496105 13.95982-20.99221 20.99221-31.488315 10.496105-16.583846 20.99221-33.482575 32.223042-50.591225 2.624026 2.938909 6.192702 4.513325 8.501845 7.557195s4.618286 4.198442 6.507586 6.717507c10.496105 10.496105 20.99221 20.99221 32.118081 31.488315 4.093481 4.093481 4.093481 4.093481 7.137351-0.629766 2.099221 0 2.519065-1.99426 3.148832-3.463715l27.709717-57.413694 47.757277-98.558425 29.284133-60.562526c4.303403-8.921689 8.501845-17.948339 13.120131-27.499795l6.612546 10.496105c1.154572 5.457975 5.562936 9.02665 7.662157 13.959819 9.551456 14.169742 17.843378 29.074211 26.555146 43.663797 3.358754 5.667897 6.717507 11.440754 10.496105 17.108651a9.131611 9.131611 0 0 1 1.994259 4.93317c-0.839688 2.204182-2.938909 3.04387-4.828208 4.09348a361.695777 361.695777 0 0 0-74.837228 55.734318 328.842968 328.842968 0 0 0-57.098811 73.472735 276.887249 276.887249 0 0 0-26.345224 61.192291c-0.734727 2.309143-0.839688 5.248052-3.463714 6.822469z" fill="#5E58DC" p-id="5957"></path><path d="M458.050021 956.300123a486.179582 486.179582 0 0 1-77.671177-16.268963 5.143091 5.143091 0 0 1-1.259533-0.839688c4.408364-14.274703 7.557196-28.864289 12.280443-43.03403a343.01271 343.01271 0 0 1 21.936859-52.480525 18.263223 18.263223 0 0 1 9.656417-8.816728 144.636326 144.636326 0 0 1 53.740057-11.125872h18.368184a132.250923 132.250923 0 0 1 69.589176 20.99221 54.264863 54.264863 0 0 1 19.522755 24.665847 177.594096 177.594096 0 0 1 14.904469 59.512915 119.760558 119.760558 0 0 1 0.94465 16.059041 8.606806 8.606806 0 0 1-1.364494 5.667896 207.507995 207.507995 0 0 1-20.99221 4.093481c-2.519065 0.734727-3.673637-1.04961-4.723247-2.833948a139.283313 139.283313 0 0 0-28.0246-31.068471c-7.767118-7.242312-14.694547-15.324313-23.196392-21.726937-2.204182-1.679377-3.883559-2.414104-6.087741 0-14.694547 14.169742-30.543665 26.97499-44.818368 41.98442a58.463305 58.463305 0 0 0-8.711768 12.070521c-1.154572 0.944649-1.154572 3.04387-4.09348 3.148831z" fill="#FA665A" p-id="5958"></path><path d="M598.802788 950.317343a201.105371 201.105371 0 0 0-11.860599-70.953669 70.323903 70.323903 0 0 0-18.99795-30.333744 90.581386 90.581386 0 0 0-28.339483-15.114391 117.97622 117.97622 0 0 0-43.453874-8.501845c0.839688-3.358754 3.673637-2.309143 5.772857-2.309143h38.415744c16.478885-1.574416 33.062731-2.414104 49.541616-4.933169 9.656417-1.469455 19.312833-3.358754 28.96925-5.143092 2.414104 0 4.933169-1.364494 7.137351 0.524806a387.411234 387.411234 0 0 1 51.430914 74.732267c5.667897 10.496105 10.496105 20.99221 15.429274 32.328003a363.480115 363.480115 0 0 1-58.988109 21.621976 259.568676 259.568676 0 0 1-35.056991 8.082001z" fill="#EF4C4C" p-id="5959"></path><path d="M955.670357 468.231242c-31.488315-8.396884-62.97663-15.429274-94.464945-21.621976a233.748257 233.748257 0 0 0-31.488315-5.143091c-1.784338 0-2.414104-1.574416-3.148831-2.833949a361.066011 361.066011 0 0 0-22.566626-34.00738c-0.944649-1.259533-2.519065-2.309143-1.679377-4.303403 6.507585-7.242312 12.805248-14.589586 19.417794-21.831898q20.152522-21.831898 40.514966-43.558836c4.408364-4.723247 4.513325-4.618286 7.662156 0.94465a18.368184 18.368184 0 0 0 1.154572 1.574415c1.364494 2.099221 3.148831 3.883559 4.408364 6.087741 9.131611 11.230832 16.898729 23.301353 24.98073 35.266913 16.478885 24.141041 32.747847 48.282083 49.331693 72.318163a27.604756 27.604756 0 0 1 4.828208 9.131612c1.154572 2.519065-0.314883 5.457975 1.049611 7.977039z" fill="#5E58DC" p-id="5960"></path><path d="M475.99836 825.413694a144.636326 144.636326 0 0 0-53.845018 11.545716 16.268963 16.268963 0 0 0-7.97704 8.396884 381.533415 381.533415 0 0 0-31.488315 88.797048c0 1.889299 0 4.513325-3.043871 5.03813a249.492415 249.492415 0 0 1-36.841328-13.120131 384.367364 384.367364 0 0 1 68.01476-111.678557c1.679377-2.624026 4.198442-1.469455 6.297663-1.049611 15.744157 3.04387 31.488315 5.562936 47.652317 7.032391 6.717507 0.629766 13.435014 1.469455 20.257482 1.574415 2.099221 0 4.828208-0.839688 5.667897 2.519066-5.248052 1.259533-10.076261-0.419844-14.694547 0.944649z" fill="#E94949" p-id="5961"></path><path d="M458.050021 956.300123c4.303403-4.618286 6.192702-10.496105 10.496104-15.429274 11.755638-12.175482 24.770808-22.98647 37.156212-34.532186l10.496105-9.446494a3.253793 3.253793 0 0 1 5.457975 0c14.169742 13.749897 28.549405 27.289873 42.824108 40.934809a55.314473 55.314473 0 0 1 9.761377 13.120131c0.839688 1.574416 1.364494 3.463715 3.778598 3.463715-6.612546 0.944649-13.225092 1.99426-19.942599 2.728987a493.316933 493.316933 0 0 1-65.390734 1.889299c-11.755638-0.314883-23.196392-1.784338-34.637146-2.728987z" fill="#F1F1F1" p-id="5962"></path><path d="M954.305863 460.254203l-37.471095-54.894629-41.984419-61.822059v-0.734727c0-0.734727 0 0 0 0 8.186962 8.816728 15.324313 18.683067 22.881508 28.0246 16.478885 20.99221 32.747847 41.144731 49.226733 61.612136 1.469455 1.784338 2.309143 4.093481 4.408364 5.248053a181.687577 181.687577 0 0 1 2.938909 22.566626z" fill="#4D3FBD" p-id="5963"></path><path d="M179.273473 509.166052a318.661747 318.661747 0 0 1 99.083231-154.397704 356.02788 356.02788 0 0 1 64.446084-45.658057c0.839688 0 1.679377-1.154572 2.414104-1.679377a5.562936 5.562936 0 0 1 4.93317-2.728987c12.805248-5.877819 25.400574-12.175482 38.625666-17.213612a348.260763 348.260763 0 0 1 102.546945-22.98647 361.485855 361.485855 0 0 1 265.131612 88.482165 276.362444 276.362444 0 0 1 31.488314 31.488315 121.125051 121.125051 0 0 1 10.496105 53.215252 249.807298 249.807298 0 0 1-12.595326 83.96884 225.351374 225.351374 0 0 1-23.406314 48.911849c-2.833948 0.629766-2.728987-1.784338-3.253792-3.253793a195.01763 195.01763 0 0 0-34.427224-61.402214 250.332103 250.332103 0 0 0-72.633047-59.932759 273.843378 273.843378 0 0 0-95.934399-32.01312 283.394834 283.394834 0 0 0-62.136941-1.679377 277.831898 277.831898 0 0 0-84.91349 20.467405 263.872079 263.872079 0 0 0-74.102501 46.287822 210.656827 210.656827 0 0 0-52.480524 68.329644 145.790898 145.790898 0 0 0-8.816729 109.99918 157.441574 157.441574 0 0 0 23.196392 44.503485c1.154572 1.679377 3.778598 3.253793 1.469455 5.98278a205.408774 205.408774 0 0 1-31.488315-1.99426 310.579746 310.579746 0 0 1-49.856498-8.396884 34.427224 34.427224 0 0 1-7.347274-2.833949 152.403444 152.403444 0 0 1-14.799508-23.931119 225.141451 225.141451 0 0 0 10.496105-43.768758 153.662977 153.662977 0 0 0-13.120131-83.968839c-4.408364-9.551456-10.496105-17.948339-15.744158-26.97499z" fill="#FA665A" p-id="5964"></path><path d="M762.332103 570.98811c3.778598-7.557196 7.452235-15.114391 11.335794-22.566626a232.488725 232.488725 0 0 0 21.831898-72.213202 331.152112 331.152112 0 0 0 1.364494-53.00533 79.03567 79.03567 0 0 0-7.767118-32.95777c-0.839688-1.784338-2.624026-3.568676-0.944649-5.877818l13.959819 15.849118a443.98524 443.98524 0 0 1 27.604756 40.93481 303.652317 303.652317 0 0 1 25.715457 63.816318c0.839688 3.358754 1.679377 6.717507 2.414104 10.496105a12.700287 12.700287 0 0 1-2.309143 4.828208 149.884379 149.884379 0 0 0-28.864288 101.182452 155.02747 155.02747 0 0 0 8.396884 41.354653 20.99221 20.99221 0 0 1 1.679376 8.711767 233.643296 233.643296 0 0 1-55.524395 67.070111 358.651907 358.651907 0 0 1-149.779418 72.738007c-1.99426 0-4.303403 0-5.877818 2.099221-8.711767 0.734727-17.108651 3.04387-25.715457 4.408365-12.280443 1.99426-24.665847 3.358754-37.051251 4.723247a164.054121 164.054121 0 0 0-22.04182 1.784338 102.546945 102.546945 0 0 0-19.312834 0 158.806068 158.806068 0 0 0-29.284132 0.944649 2.833948 2.833948 0 0 1-2.414105 0c-1.259533-1.469455-3.04387-0.944649-4.618286-0.944649-15.429274 0-30.753588-2.833948-46.0779-4.618287a173.500615 173.500615 0 0 0-29.074211-4.408364c-2.309143-2.624026-5.667897-2.309143-8.606806-2.938909a365.684297 365.684297 0 0 1-139.808118-64.551046 252.641246 252.641246 0 0 1-49.331694-49.646576c-0.734727-1.04961-1.364494-2.204182-2.099221-3.358754a60.457565 60.457565 0 0 1 15.219353 3.253793 349.625256 349.625256 0 0 0 44.398523 6.717507l29.494055 2.833948c2.309143 0 3.463715 1.679377 4.828209 3.253793a227.555556 227.555556 0 0 0 75.466994 57.623616 310.684707 310.684707 0 0 0 97.298893 27.919639 299.663797 299.663797 0 0 0 40.724888 2.519066 335.875359 335.875359 0 0 0 92.365723-13.435015 257.469455 257.469455 0 0 0 96.98401-51.535875 162.794588 162.794588 0 0 0 58.463305-98.453465 139.703157 139.703157 0 0 0-2.833949-56.783927c-0.524805-2.519065-2.099221-5.143091-0.209922-7.767118z" fill="#F55954" p-id="5965"></path><path d="M609.613776 236.687167c4.093481-7.03239 8.291923-13.95982 12.280443-20.99221 2.204182-3.98852 6.402624-3.778598 9.866339-4.723247 6.612546-1.889299 6.612546-1.784338 3.358753-7.872079a29.284133 29.284133 0 0 0-1.679377-3.04387c-1.99426-2.833948-1.259533-3.778598 2.204182-4.093481 10.496105-0.839688 20.99221-2.099221 31.488315-3.148832 3.463715 0 5.562936-1.259533 5.98278-5.562935 0.629766-7.03239 2.519065-13.95982 3.463715-20.99221a5.562936 5.562936 0 0 1 4.093481-4.93317l26.660106-11.02091a5.143091 5.143091 0 0 0 3.778598-4.513325c1.259533-7.97704 2.938909-15.95408 4.618286-23.931119 0-1.154572-0.734727-3.568676 1.784338-3.148832s3.883559 1.259533 3.463715 3.98852c-0.839688 5.562936-1.469455 11.125871-2.414104 16.688807q-3.673637 23.301353-7.452235 46.602706a6.927429 6.927429 0 0 0 1.574416 5.03813c5.353014 8.816728 10.496105 17.528495 16.164001 26.240263a3.98852 3.98852 0 0 1 0 5.562935c-4.513325 5.248052-8.816728 10.496105-13.330053 16.164002a5.457975 5.457975 0 0 0-0.944649 6.612546c1.784338 3.883559 3.148831 7.97704 4.933169 11.96556s0 3.253793-2.204182 3.04387c-14.064781-1.154572-28.129561-2.204182-41.98442-3.463714a62.97663 62.97663 0 0 1-18.263222-2.414105h55.524395a19.942599 19.942599 0 0 0-2.93891-8.082 8.501845 8.501845 0 0 1 1.679377-11.335794c3.778598-3.98852 6.927429-8.501845 10.496105-12.595326a4.513325 4.513325 0 0 0 0-6.507585c-4.618286-7.137351-8.501845-14.694547-13.330053-21.621976a17.00369 17.00369 0 0 1-2.414104-12.805248c1.154572-9.02665 2.309143-17.948339 3.463714-27.604756l-26.03034 11.335793c-2.309143 1.04961-2.099221 3.253793-2.519065 5.038131q-2.624026 10.496105-4.723247 20.99221c-0.629766 2.938909-1.469455 4.408364-4.93317 4.618286-9.446494 0.629766-18.788028 1.889299-28.234522 2.728987-3.883559 0-4.933169 1.259533-2.728987 5.03813 4.408364 7.347273 4.303403 7.872079-4.198442 10.496105a25.400574 25.400574 0 0 0-15.534236 11.230833c-2.938909 4.408364-6.507585 8.396884-9.866338 12.490365-1.04961-0.209922-1.574416-0.419844-1.154572-1.469455z" fill="#FEFEFE" p-id="5966"></path><path d="M350.255023 304.701927a13.120131 13.120131 0 0 1-4.93317 2.728987l-25.820418-43.558835-13.120131-22.146782c0-1.04961 0-1.259533 0.944649-0.944649l40.410004 60.877409c0.734727 1.154572 1.679377 2.099221 2.519066 3.04387z" fill="#4D3FBD" p-id="5967"></path><path d="M171.611316 465.292333a8.396884 8.396884 0 0 1-1.784338 5.457975l-37.9959-36.526446c0-0.944649 0-1.259533 1.049611-1.04961z" fill="#4D3FBE" p-id="5968"></path><path d="M307.325953 240.780648l-0.944649 0.944649c-2.309143-3.673637-4.723247-7.347273-6.927429-10.496105-0.524805-0.839688-1.469455-1.889299 0-2.938909z" fill="#594EC6" p-id="5969"></path><path d="M132.880689 433.279213l-1.049611 1.04961c-2.204182-2.204182-5.562936-3.358754-5.98278-7.03239 2.204182 2.099221 5.353014 3.358754 7.032391 5.98278z" fill="#584CC7" p-id="5970"></path><path d="M875.060271 342.382944v1.154571c-1.364494-1.99426-3.778598-3.358754-3.98852-6.087741a7.767118 7.767118 0 0 1 3.98852 4.93317z" fill="#5B50C9" p-id="5971"></path><path d="M609.613776 236.687167l0.94465 1.04961a4.618286 4.618286 0 0 1-3.253793 3.148832 7.137351 7.137351 0 0 1 2.309143-4.198442z" fill="#DBDBFA" p-id="5972"></path><path d="M836.854449 671.540795a146.945469 146.945469 0 0 1-10.496105-40.724887 154.292743 154.292743 0 0 1 13.854858-87.957359 113.9877 113.9877 0 0 1 17.738418-27.394834 144.636326 144.636326 0 0 1 4.933169 28.759327 216.219762 216.219762 0 0 1-8.501845 85.858139 220.418204 220.418204 0 0 1-17.528495 41.459614zM177.594096 515.778598a52.480525 52.480525 0 0 1 11.545715 15.954079 152.613366 152.613366 0 0 1 19.9426 65.705617 175.599836 175.599836 0 0 1-10.496105 70.638787c0 1.154572 0 2.833948-2.309143 2.728987a206.563346 206.563346 0 0 1-21.93686-62.97663 125.95326 125.95326 0 0 1-1.259532-12.805248c-0.944649-1.99426 0-4.198442-0.839689-6.192702a230.914309 230.914309 0 0 1 4.93317-68.959409c-0.104961-1.259533 0.419844-2.728987 0.419844-4.093481z" fill="#F5F5F5" p-id="5973"></path><path d="M171.821238 589.04141c1.364494 1.889299 0.734727 4.093481 0.839689 6.192702-1.574416-1.889299-0.839688-4.093481-0.839689-6.192702z" fill="#DA97B3" p-id="5974"></path><path d="M489.95818 824.364084a452.487085 452.487085 0 0 1 46.182861-0.94465c1.574416 0 3.358754-0.524805 4.723248 0.94465h-39.675277c-1.784338 0-3.673637-0.629766-5.143092 0.944649h-20.04756a41.354654 41.354654 0 0 1 13.95982-0.944649z" fill="#F5625E" p-id="5975"></path><path d="M762.332103 570.98811a197.95654 197.95654 0 0 1 6.087741 40.200082 146.945469 146.945469 0 0 1-32.328003 94.464945 233.118491 233.118491 0 0 1-109.264453 75.781877 309.00533 309.00533 0 0 1-80.924969 17.213612 316.877409 316.877409 0 0 1-173.605576-32.852808 221.152932 221.152932 0 0 1-69.799098-55.419434c-0.839688-1.04961-1.784338-1.889299-2.728987-2.93891a177.489135 177.489135 0 0 1-24.036081-41.984419 146.945469 146.945469 0 0 1 6.822469-120.180402 228.395244 228.395244 0 0 1 89.741697-94.98975 272.898729 272.898729 0 0 1 100.237802-36.631406 278.461665 278.461665 0 0 1 77.881099-1.364494 271.219352 271.219352 0 0 1 138.863469 57.203772 206.668307 206.668307 0 0 1 72.213202 100.867569 3.04387 3.04387 0 0 0 0.839688 0.629766z" fill="#F9E7DA" p-id="5976"></path><path d="M429.500615 610.138581a91.00123 91.00123 0 0 1 16.478885-6.297663c1.889299-0.839688 1.574416 1.04961 1.574416 2.099221a93.415334 93.415334 0 0 1-15.324314 57.308733 49.01681 49.01681 0 0 1-37.576055 19.312834h-6.507586a4.513325 4.513325 0 0 1-4.09348-1.259533 53.215252 53.215252 0 0 0-26.765068-8.501845c-1.469455 0-3.04387 0-4.093481-1.469455a86.277983 86.277983 0 0 1-23.721197-49.541615c0-2.204182-0.524805-3.568676 2.728987-3.358754h16.373924c1.574416 0 3.358754-0.524805 4.618286 1.049611s0.629766 3.148831 0 4.723247a39.885199 39.885199 0 0 0 23.826158 41.669537 41.03977 41.03977 0 0 0 48.492005-10.496105 37.681017 37.681017 0 0 0 5.98278-38.94055c-0.944649-2.204182-2.728987-3.98852-1.99426-6.297663z" fill="#FEF9F9" p-id="5977"></path><path d="M672.485445 619.060271h12.175482a3.883559 3.883559 0 0 1 3.778597 1.679376 14.064781 14.064781 0 0 1 2.309143 10.496105 43.558836 43.558836 0 0 1-66.965149 33.902419 40.095121 40.095121 0 0 1-15.849119-49.856498c0.839688-2.099221 1.469455-4.513325 3.98852-5.353014l16.059041 3.883559a22.251743 22.251743 0 0 0-2.93891 15.00943 8.396884 8.396884 0 0 0 2.728988 5.562936c0.839688 1.99426-1.04961 2.519065-1.99426 3.358753a5.143091 5.143091 0 0 0 5.98278 8.186962c1.04961-0.629766 1.99426-1.889299 3.463714-1.259532a20.99221 20.99221 0 0 0 24.665847 1.154571 22.776548 22.776548 0 0 0 12.175482-22.251742c-0.314883-1.469455-1.154572-3.148831 0.419844-4.513325zM429.500615 610.138581a40.724887 40.724887 0 0 1 0.839688 39.045511 41.98442 41.98442 0 0 1-51.116031 19.312833 40.514965 40.514965 0 0 1-26.555145-46.602706v-1.99426a75.466995 75.466995 0 0 1 15.954079-0.839688 5.98278 5.98278 0 0 1 0 3.988519 6.927429 6.927429 0 0 0 0 5.143092 24.350964 24.350964 0 0 0 20.99221 20.99221 30.228782 30.228782 0 0 0 16.164002-3.673637 5.248052 5.248052 0 0 1 3.253792 0.94465 4.618286 4.618286 0 0 0 6.192702-1.154572 4.933169 4.933169 0 0 0 0-6.402624 7.662157 7.662157 0 0 1-1.469454-3.568676 28.339483 28.339483 0 0 0-1.364494-20.99221 84.913489 84.913489 0 0 1 17.108651-4.198442z" fill="#2C1919" p-id="5978"></path><path d="M611.712997 609.928659a40.095121 40.095121 0 0 0 27.709717 60.247643 41.354654 41.354654 0 0 0 49.331694-45.658057v-3.463714c0-1.154572 2.519065-2.099221 4.303403-2.099221h14.904469c4.933169 0 4.513325 1.04961 3.883558 4.303403a79.875359 79.875359 0 0 1-20.362443 44.608446 19.312833 19.312833 0 0 0-1.574416 1.889299c-1.574416 1.784338-3.673637 1.04961-5.562936 0.839688a54.474785 54.474785 0 0 0-26.135301 3.778598c-4.618286 1.784338-7.242312 6.087741-11.335793 8.501845a50.486265 50.486265 0 0 1-46.497745-35.896679 90.371464 90.371464 0 0 1-6.192702-31.488315c0-2.833948-0.629766-5.562936-0.94465-8.396884s1.04961-3.778598 3.673637-2.728987a104.96105 104.96105 0 0 1 14.799508 5.562935z" fill="#FEF9F9" p-id="5979"></path><path d="M353.298893 672.065601a54.579746 54.579746 0 0 1 34.95203 10.496105l1.889298 1.99426a27.709717 27.709717 0 0 1-26.765067 20.152521 84.703567 84.703567 0 0 1-28.339484-3.463715c-2.204182-0.629766-4.303403-1.889299-6.717507 0a12.700287 12.700287 0 0 1 1.364494-23.196392 46.917589 46.917589 0 0 1 23.616236-5.982779zM646.455105 682.561706a28.759328 28.759328 0 0 1 22.356703-13.015171 65.915539 65.915539 0 0 1 20.99221 0 48.177122 48.177122 0 0 1 24.770808 12.175482 12.070521 12.070521 0 0 1-3.358754 8.606806 32.747847 32.747847 0 0 1-24.350963 11.650677 77.776138 77.776138 0 0 1-28.444445-3.883559c-1.679377-0.524805-3.463715-1.679377-4.723247 0.734727a13.225092 13.225092 0 0 1-7.242312-16.268962z" fill="#9CDCF3" p-id="5980"></path><path d="M407.143911 645.825338a24.665847 24.665847 0 0 1-38.940549-17.948339 6.192702 6.192702 0 0 1 0-4.93317 6.087741 6.087741 0 0 1 1.049611-3.883558c2.938909-0.734727 1.679377 1.679377 2.204182 2.833948 2.099221 3.358754 2.414104 7.452235 5.457974 10.496105a14.484625 14.484625 0 0 0 16.268963 3.883559 16.373924 16.373924 0 0 0 9.656416-14.484625c0-1.99426-1.04961-3.883559 0-5.877819a46.917589 46.917589 0 0 1 10.496105-2.099221 16.898729 16.898729 0 0 1 3.673637 17.00369 36.946289 36.946289 0 0 1-1.469455 5.248053c-7.03239 1.679377-7.03239 1.679377-8.396884 9.761377zM627.98196 635.01435c-3.148831 0-4.303403-1.99426-4.198442-4.828208 0-5.772858-2.414104-12.175482 4.093481-16.373924a38.835588 38.835588 0 0 1 10.496105 2.099221c0.944649 1.364494 0 2.938909 0 4.303403a15.324313 15.324313 0 0 0 13.749897 17.108651 15.534235 15.534235 0 0 0 16.059041-13.330053c0-1.679377 0-3.778598 1.259532-5.143091h2.728988a25.295613 25.295613 0 0 1-35.266913 29.07421 3.568676 3.568676 0 0 1-2.624026-3.253792 11.650677 11.650677 0 0 0-6.297663-9.656417z" fill="#0F0402" p-id="5981"></path><path d="M669.756458 618.95531a16.688807 16.688807 0 0 1-10.496105 18.473144 16.373924 16.373924 0 0 1-18.788028-4.723247 16.164002 16.164002 0 0 1-2.519065-16.688807zM403.050431 615.806478a16.793768 16.793768 0 0 1-7.557196 20.99221 16.373924 16.373924 0 0 1-20.152522-3.98852 14.064781 14.064781 0 0 1-3.778597-10.496105 5.562936 5.562936 0 0 1 6.192702-3.778598c8.396884-0.314883 16.688807-2.519065 25.295613-2.728987z" fill="#FEFEFE" p-id="5982"></path><path d="M653.487495 698.830668c0-1.259533-1.889299-1.99426-1.469455-3.673636a18.99795 18.99795 0 0 1 7.032391 1.784337 85.9631 85.9631 0 0 0 24.770807 3.778598 30.228782 30.228782 0 0 0 30.543666-18.99795 14.064781 14.064781 0 0 1-5.248053 19.417794 55.314473 55.314473 0 0 1-55.629356-2.309143zM328.318163 700.824928c-1.259533-3.04387 0-3.568676 2.624026-2.414104a78.195982 78.195982 0 0 0 23.091431 5.143092c15.849118 1.154572 29.284133-2.728987 36.211562-18.788028a14.274703 14.274703 0 0 1-6.717507 20.152521 54.474785 54.474785 0 0 1-55.209512-4.093481z" fill="#70CCF1" p-id="5983"></path><path d="M519.452235 693.792538a20.99221 20.99221 0 0 1 20.992209 18.788028c0 1.364494 0 2.519065-1.154571 2.833948s-1.99426-0.944649-2.204182-2.099221a18.473145 18.473145 0 0 0-3.98852-9.9713 17.318573 17.318573 0 0 0-19.627716-5.457974 17.633456 17.633456 0 0 0-11.230833 13.539975c0 1.469455 0 3.98852-2.099221 3.568676s-1.04961-2.833948-0.734727-4.303403a19.942599 19.942599 0 0 1 20.047561-16.898729z" fill="#F2ABAC" p-id="5984"></path><path d="M581.064371 579.489955a14.694547 14.694547 0 0 1-14.064781 2.519065 10.496105 10.496105 0 0 1-8.396884-9.02665c3.148831 2.624026 5.457975 6.297663 9.9713 7.137351a59.722837 59.722837 0 0 0 12.490365-0.629766z" fill="#463332" p-id="5985"></path><path d="M457.105371 577.600656a73.472735 73.472735 0 0 0 13.01517 1.259533 17.528495 17.528495 0 0 0 10.496105-7.032391 9.236572 9.236572 0 0 1-5.772858 7.872079 17.00369 17.00369 0 0 1-17.738417-2.099221z" fill="#443130" p-id="5986"></path><path d="M627.98196 635.01435c6.612546 1.679377 7.872079 3.568676 6.717507 9.866339a6.927429 6.927429 0 0 1-8.082001 3.04387 6.192702 6.192702 0 0 1-4.408364-5.877819c-0.314883-3.883559 2.519065-5.772858 5.772858-7.03239z" fill="#CECACA" p-id="5987"></path><path d="M407.143911 645.825338a7.03239 7.03239 0 0 1 0.734728-8.291923 7.242312 7.242312 0 0 1 8.186962-1.469454c3.673637 4.303403 4.093481 7.452235 1.154571 10.496105s-6.822468 1.99426-10.076261-0.734728z" fill="#CECBCA" p-id="5988"></path><path d="M368.203362 622.943829v4.93317a3.358754 3.358754 0 0 1 0-4.93317z" fill="#372A2A" p-id="5989"></path></svg>