<?xml version="1.0" standalone="no"?><!DOCTYPE svg PUBLIC "-//W3C//DTD SVG 1.1//EN" "http://www.w3.org/Graphics/SVG/1.1/DTD/svg11.dtd"><svg t="1550212886215" class="icon" style="" viewBox="0 0 1025 1024" version="1.1" xmlns="http://www.w3.org/2000/svg" p-id="5794" xmlns:xlink="http://www.w3.org/1999/xlink" width="200.1953125" height="200"><defs><style type="text/css">@font-face { font-family: "Roboto Condensed"; src: url("chrome-extension://lienonopcegannlgdkgonpofbhgmclcc/RobotoCondensed-Regular.ttf"); }
</style></defs><path d="M512.430094 1023.892482H4.62329c-3.763125 0-4.623268-0.860143-4.623267-4.623267V4.623268c0-3.763125 0.860143-4.623268 4.623267-4.623268h1015.721126c3.763125 0 4.623268 0.860143 4.623267 4.623268v1014.645947c0 3.763125-0.860143 4.623268-4.623267 4.623267z" fill="#FEFEFE" p-id="5795"></path><path d="M596.61657 950.99538a189.98404 189.98404 0 0 1-20.428391 3.870643 2.687946 2.687946 0 0 1-3.333054-1.397732 126.01092 126.01092 0 0 0-30.750105-34.835784c-7.526249-7.418732-15.48257-14.51491-23.008819-21.50357-2.150357-2.150357-3.333053-2.150357-5.483411 0-14.51491 13.439731-29.137337 26.664427-43.759764 39.99664a49.565729 49.565729 0 0 0-11.826964 16.450231 4.408232 4.408232 0 0 1-5.375892 3.0105 421.685006 421.685006 0 0 1-75.262495-16.880302 396.740865 396.740865 0 0 1 24.729105-77.197816 208.154557 208.154557 0 0 1 9.354053-19.245695 17.955481 17.955481 0 0 1 8.708946-7.741285 155.363293 155.363293 0 0 1 52.791264-11.611928 138.267955 138.267955 0 0 1-20.643427-1.720286c-7.418732-0.752625-14.837463-2.042839-22.256195-3.118017s-14.622428-3.118018-22.148677-3.655607c-10.106678-3.440571-20.535909-5.268375-30.750105-8.278875a356.744225 356.744225 0 0 1-122.570348-61.50021 239.119698 239.119698 0 0 1-59.134818-67.951281 9.461571 9.461571 0 0 1-2.042839-6.98866 173.856363 173.856363 0 0 0 12.149517-67.198656 145.579168 145.579168 0 0 0-28.277194-84.616548 12.902142 12.902142 0 0 1-2.150357-3.333053 23.761445 23.761445 0 0 1 2.150357-12.041999 281.051659 281.051659 0 0 1 18.49307-47.415372c3.97816-7.741285 7.956321-15.48257 12.47207-23.00882a366.850903 366.850903 0 0 1 39.781605-53.0063l3.333053-3.333053a76.230155 76.230155 0 0 0 6.881142-7.203696c4.623268-4.085678 8.816464-8.49391 13.117178-12.902142q12.149517-10.751785 24.944141-20.750945a41.931961 41.931961 0 0 0 4.300714-3.225535c4.730785-3.548089 9.676606-6.773625 14.622428-10.106678l9.246535-6.128518c8.708946-5.375892 17.740445-10.751785 26.664427-15.267534a360.077278 360.077278 0 0 1 270.729945-23.761445c13.654767 4.193196 26.98698 9.461571 40.211676 14.837463a390.827383 390.827383 0 0 1 76.015119 45.157497 268.794624 268.794624 0 0 1 27.954641 23.976481 127.301134 127.301134 0 0 1 15.052499 15.160016 177.727005 177.727005 0 0 1 16.02016 17.955481 89.347333 89.347333 0 0 1 6.236035 7.848803c1.182696 1.827803 2.687946 3.440571 3.870643 5.268375s2.150357 2.902982 3.225535 4.300714a325.241495 325.241495 0 0 1 20.750945 33.545569 35.588408 35.588408 0 0 1 2.472911 4.51575 282.98698 282.98698 0 0 1 21.50357 56.661907c0 1.50525 0.645107 3.0105 1.075178 4.515749a8.278874 8.278874 0 0 1 0 3.978161c-3.0105 5.375892-7.203696 9.891642-10.751785 15.160016a157.836203 157.836203 0 0 0-21.50357 67.843764 179.554809 179.554809 0 0 0 10.751785 71.391852 9.139017 9.139017 0 0 1-1.827803 6.558589 243.312894 243.312894 0 0 1-26.01932 35.695926 181.597648 181.597648 0 0 1-21.50357 21.50357 289.545569 289.545569 0 0 1-56.98446 40.641747 392.440151 392.440151 0 0 1-100.52919 38.168836c-1.612768 0-3.118018 1.075178-4.730785 1.50525-16.98782 3.118018-33.97564 6.451071-51.178496 8.171357a342.336833 342.336833 0 0 1-34.728266 2.47291 153.105418 153.105418 0 0 1-24.729105 0.53759 164.609828 164.609828 0 0 1 41.071818 14.622427 61.392692 61.392692 0 0 1 29.567409 33.00798 186.758505 186.758505 0 0 1 13.762285 62.467871c0 2.472911 0 4.945821 0.752625 7.418731a10.751785 10.751785 0 0 1-1.075179 8.708946z" fill="#FA665A" p-id="5796"></path><path d="M662.525012 294.061319a440.823184 440.823184 0 0 0-58.274674-19.568249 375.129777 375.129777 0 0 0-78.165477-10.751785 356.314154 356.314154 0 0 0-172.02856 38.276355l-3.225535 1.290214a25.266695 25.266695 0 0 1-13.00966-0.860143c-5.268375-1.075178-10.751785-1.827803-15.805124-3.333053-2.902982-1.182696-4.085678-4.193196-6.236035-6.128518s-4.623268-3.333053-5.805964 1.075179a2.580428 2.580428 0 0 1-1.720285 1.720285 144.396472 144.396472 0 0 1-24.729106-5.053339 915.299454 915.299454 0 0 1-37.631247-9.354052 13.762285 13.762285 0 0 1-6.236036-4.730786q-23.868963-26.664427-46.017639-54.726585c-3.440571-4.408232-6.558589-9.139017-10.214196-13.439732 11.611928-10.751785 22.363713-23.116338 34.728266-33.438051a486.195716 486.195716 0 0 1 45.157496-35.265854 452.865183 452.865183 0 0 1 52.253675-29.782445A440.823184 440.823184 0 0 1 426.523332 73.327173a468.347753 468.347753 0 0 1 50.103318-6.451071c11.611928-0.860143 23.223856-1.50525 34.728265-1.290214a451.574969 451.574969 0 0 1 144.073919 23.976481 443.296094 443.296094 0 0 1 152.782864 89.669886 88.057119 88.057119 0 0 1 10.106678 9.569089 77.950441 77.950441 0 0 1-5.913482 19.890802c-7.203696 20.643427-14.944981 41.071819-23.008819 61.285174a14.944981 14.944981 0 0 1-3.440572 6.558589 97.948761 97.948761 0 0 1-22.47123 3.548089q-44.189836 5.805964-88.057119 13.654767a28.814784 28.814784 0 0 1-12.902142 0.322554z" fill="#D8FBD4" p-id="5797"></path><path d="M196.542652 456.305754a273.095338 273.095338 0 0 0-21.50357 58.919781 12.687106 12.687106 0 0 1 0 5.913482 217.831163 217.831163 0 0 0-5.160857 60.855103 201.811004 201.811004 0 0 0 20.535909 79.563209 15.052499 15.052499 0 0 1 3.0105 9.784124 195.467451 195.467451 0 0 0 28.277195 41.394372 319.758085 319.758085 0 0 0 149.127257 90.745065c10.751785 3.440571 22.256195 6.236035 33.545569 8.816464 1.290214 0 2.687946 0 2.902982 2.042839-0.645107 4.085678-4.085678 6.343553-6.451071 9.246535a395.558169 395.558169 0 0 0-57.199496 95.153297c-1.075178 2.472911-1.50525 5.48341-4.193196 7.096178a432.759345 432.759345 0 0 1-96.766065-54.726585 421.792524 421.792524 0 0 1-49.673246-43.00714A444.908862 444.908862 0 0 1 74.079821 610.916422a456.198236 456.198236 0 0 1-10.751785-76.122638 440.823184 440.823184 0 0 1 13.224696-132.892062 459.638807 459.638807 0 0 1 28.922301-80.423352 6.021 6.021 0 0 1 0.967661-1.182696c3.225535 3.118018 2.042839 8.278874 5.698446 12.041999a38.276354 38.276354 0 0 0 7.096178-19.890802c0-2.042839-0.752625-5.160857 1.50525-5.805964s3.440571 2.580428 4.408232 4.408232c6.236035 11.50441 12.579588 23.00882 19.46073 34.190676a9.461571 9.461571 0 0 1 0 10.751785 33.330533 33.330533 0 0 0 0.645107 32.255355 39.244015 39.244015 0 0 0 7.418732-18.062999c0-1.827803 0-4.623268 1.935321-5.053339s3.118018 2.150357 4.193197 3.763125c13.117178 20.643427 26.664427 40.856783 41.501889 60.317514a6.021 6.021 0 0 1 0.645108 7.741285 38.813944 38.813944 0 0 0-4.408232 19.353213z" fill="#92E07F" p-id="5798"></path><path d="M806.383895 711.445611a271.267535 271.267535 0 0 0 25.911802-36.125997c0.860143-1.612768 1.612768-3.225535 2.47291-4.838304a10.751785 10.751785 0 0 1 2.150357-6.98866 198.262915 198.262915 0 0 0 22.578749-79.025619 219.228895 219.228895 0 0 0-3.440572-61.50021 22.686266 22.686266 0 0 1-0.537589-7.848803l-0.860143-4.085679a40.964301 40.964301 0 0 1 2.902982-10.751785c0-1.075178 0.645107-2.472911 2.150357-2.47291s1.50525 1.612768 1.720286 2.687946 0 2.580428 0.645107 3.978161a22.578748 22.578748 0 0 0 3.333053 8.278874c1.50525 2.150357 3.440571 5.160857 6.021 4.51575s2.150357-4.193196 2.257875-6.558589a31.610248 31.610248 0 0 0-7.633768-23.546409 10.751785 10.751785 0 0 1-2.580428-11.289374c5.805964-24.51407 10.751785-49.135657 15.48257-73.972281a8.063839 8.063839 0 0 1 0.645108-2.365393c0-0.967661 0.752625-2.472911 2.257874-2.257875s1.290214 1.397732 1.50525 2.365393a23.546409 23.546409 0 0 0 5.053339 11.719446c1.290214 1.290214 2.687946 3.0105 4.51575 2.687946s2.042839-2.902982 2.150357-4.51575a27.632087 27.632087 0 0 0-10.751785-27.202016c-2.257875-1.612768-1.182696-3.870643-0.967661-5.913481 2.687946-19.460731 6.881142-38.598908 9.461571-58.059639 0.967661-7.633767 2.472911-15.052499 3.440571-22.686266 0-1.612768 0-3.440571 1.720286-4.408232a8.923982 8.923982 0 0 1 2.580428 4.193196 23.761445 23.761445 0 0 0 8.278875 15.912642 423.835363 423.835363 0 0 1 37.631247 104.507349 412.223436 412.223436 0 0 1 9.354053 63.435532c0.860143 12.794624 1.935321 25.48173 1.612768 38.276354a458.9937 458.9937 0 0 1-19.353213 126.225956 440.823184 440.823184 0 0 1-74.402352 143.536329 446.414112 446.414112 0 0 1-170.308274 133.322133l-3.225536 1.182697a35.050819 35.050819 0 0 1-6.451071-13.00966 403.084418 403.084418 0 0 0-53.758924-86.01428c-2.365393-3.0105-6.021-5.375892-6.666107-9.569088 0.860143-1.827803 2.580428-1.720286 4.193196-2.042839a377.387652 377.387652 0 0 0 129.02142-55.694247c10.106678-6.98866 19.460731-14.837463 28.922301-22.686266a14.084838 14.084838 0 0 1 4.730786 3.978161 59.134817 59.134817 0 0 0 44.942461 16.235195c3.548089 0 3.225535-1.827803 2.042839-4.193196a85.369173 85.369173 0 0 0-25.48173-32.685427 12.794624 12.794624 0 0 1-5.268375-4.730785z" fill="#97E47E" p-id="5799"></path><path d="M623.603551 813.372533a385.02142 385.02142 0 0 1 66.98362 108.593028 446.736665 446.736665 0 0 1-90.745065 28.814783 24.299034 24.299034 0 0 1-3.0105 0 222.131877 222.131877 0 0 0-13.977321-76.552709 63.543049 63.543049 0 0 0-35.48089-36.663586 181.382612 181.382612 0 0 0-39.566569-11.934482c0-1.397732 0.752625-1.50525 1.50525-1.505249 9.461571 0 18.815624-0.645107 28.277195-0.967661a458.348593 458.348593 0 0 0 56.98446-5.698446c8.816464-1.397732 17.525409-3.0105 26.234355-4.945821a4.193196 4.193196 0 0 1 2.795465 0.860143z" fill="#E94949" p-id="5800"></path><path d="M248.688809 380.398152a437.167577 437.167577 0 0 0-39.889122 53.113818c-2.365393 0-3.118018-1.612768-4.193197-2.902982-7.633767-9.246535-14.407392-19.138177-21.503569-28.922302-0.860143-1.182696-2.150357-2.580428-1.290215-3.97816s2.687946-0.752625 4.085679 0a21.50357 21.50357 0 0 0 17.740445-4.300714c2.795464-1.612768 2.687946-3.225535 0-5.268375a21.50357 21.50357 0 0 0-23.976481-1.075178c-4.730785 3.0105-5.053339 3.0105-8.171356-1.720286a981.465939 981.465939 0 0 1-34.943301-56.339353 8.923982 8.923982 0 0 1-1.182697-2.687946c0-1.935321 0-3.0105 2.365393-2.150357s2.257875 1.397732 3.440571 1.935321a21.50357 21.50357 0 0 0 21.50357-2.795464c2.257875-1.935321 2.042839-3.333053 0-5.053339a21.50357 21.50357 0 0 0-24.729105-0.752625c-5.590928 3.763125-6.021 3.548089-9.354053-2.365393s-6.236035-12.472071-10.106678-18.278034a478.239395 478.239395 0 0 1 28.062159-44.727426c1.935321-1.827803 3.97816-0.537589 5.913481 0l8.816464 2.795465c2.687946 0.967661 5.48341 1.075178 8.063839 2.042839s8.171357 2.472911 12.041999 4.300714a8.49391 8.49391 0 0 1 2.687946 3.440571c7.418732 14.837463 15.375052 29.352373 23.116338 44.082318a10.751785 10.751785 0 0 1 0 10.751785 30.427551 30.427551 0 0 0 0 26.879463c0 0.967661 0.752625 2.472911 2.150357 2.365392s1.397732-1.290214 1.827803-2.257875a43.00714 43.00714 0 0 0 4.300714-10.751785c0-1.397732 0-3.225535 1.935322-3.655606s2.795464 1.397732 3.655606 2.795464c6.021 10.751785 12.149517 20.535909 18.385553 30.750105 2.687946 4.408232 5.48341 8.708946 8.063838 13.117177a2.902982 2.902982 0 0 1 1.182697 1.612768zM830.252858 446.52163l-21.50357-33.868123c-0.967661-1.935321 0-3.548089 0.752625-5.160857 15.160017-33.115498 27.847123-67.198656 39.99664-101.49685q2.902982-8.278874 6.128517-16.342713c0.645107-1.612768 0.860143-3.97816 3.225536-3.763125s1.935321 2.365393 2.365392 3.870643a26.01932 26.01932 0 0 0 6.881143 12.364552 28.922302 28.922302 0 0 0 1.397732-24.406551c-0.860143-2.042839-3.0105-4.408232 0-6.558589a27.847123 27.847123 0 0 1 16.880302 1.075178l8.816464 13.977321c-1.720286 13.654767-3.870643 27.202016-5.698446 40.856783-0.967661 6.558589-1.50525 6.98866-8.171357 7.311213a30.535069 30.535069 0 0 0-21.50357 10.214196c-1.075178 1.182696-2.687946 2.472911-2.150357 4.193196s3.0105 1.935321 4.730786 2.150357a19.030659 19.030659 0 0 0 14.622427-5.053339 31.50273 31.50273 0 0 1 6.021-5.053339c2.042839 0 2.042839 1.290214 1.827803 2.580429a18.170517 18.170517 0 0 1-2.042839 5.590928c-15.805124 32.255355-31.717766 63.865603-50.533389 94.185636a5.48341 5.48341 0 0 1-2.042839 3.333054z" fill="#99DC7C" p-id="5801"></path><path d="M339.541392 925.836203a387.064259 387.064259 0 0 1 67.843763-111.49601c3.333053-2.150357 6.451071 0 9.569088 0 15.267535 2.795464 30.535069 4.945821 45.910122 6.666107a89.454851 89.454851 0 0 1 16.342713 1.935321c-7.848803 0.645107-15.590088 1.612768-23.331373 2.902982a159.448971 159.448971 0 0 0-35.695926 9.891642 18.923142 18.923142 0 0 0-9.461571 10.751785 361.259975 361.259975 0 0 0-26.234355 69.02646 174.071399 174.071399 0 0 0-5.160857 21.50357 3.440571 3.440571 0 0 1-2.150357 2.580428 329.434691 329.434691 0 0 1-37.631247-13.762285z" fill="#E94949" p-id="5802"></path><path d="M118.914764 296.534229c2.472911 0 2.902982 1.935321 3.655607 3.440572 2.902982 5.268375 5.805964 10.751785 8.386392 15.805123 1.397732 2.902982 2.687946 3.97816 5.268375 1.397732a22.901302 22.901302 0 0 1 29.244855 0.645108c2.580428 2.150357 2.365393 3.440571 0 5.268374a22.793784 22.793784 0 0 1-30.212516 0c5.268375 8.923982 9.569089 16.557749 14.299874 24.083998 7.848803 12.687106 16.02016 25.266695 23.868963 37.846284 1.50525 2.365393 2.472911 3.118018 5.160857 0.860142a23.116338 23.116338 0 0 1 29.137337 2.795464c1.827803 1.612768 0 2.687946-0.860143 3.548089a23.546409 23.546409 0 0 1-24.191516 5.268375 338.143637 338.143637 0 0 0 26.234355 35.588408l-12.257034 22.793784a24.299034 24.299034 0 0 1 4.193196-19.675766 4.300714 4.300714 0 0 0 0-5.590928c-15.697606-20.320874-29.889962-41.716926-43.759765-63.435531 0 0-0.752625-0.967661-1.827804-2.150357a43.00714 43.00714 0 0 1-8.601428 25.48173 33.868123 33.868123 0 0 1-1.612767-36.01848c1.075178-1.612768 2.257875-3.0105 0.860143-5.268374-8.278874-13.762285-16.235195-27.739605-24.299034-43.00714a67.843763 67.843763 0 0 1-2.04284 15.590088 55.909282 55.909282 0 0 1-6.773624 13.439731 32.255355 32.255355 0 0 1-5.48341-14.837463 229.120538 229.120538 0 0 1 11.611927-23.868963zM884.1193 340.50903a26.126837 26.126837 0 0 1-17.847963 11.396892c-3.763125 0-8.386392 0-9.99916-2.580429s2.472911-5.698446 4.623268-7.741285a30.104998 30.104998 0 0 1 22.363712-9.031499c3.118018 0 4.730785 0 5.160857-4.085678 1.612768-13.117178 3.655607-26.126837 5.590928-39.136498 0-1.397732 0-3.118018 1.827804-3.548089l2.47291 4.730786c-2.042839 17.095338-4.51575 34.083158-7.633767 50.96346-2.257875 12.364553-4.193196 24.729105-6.451071 37.093659-0.645107 3.440571 1.935321 0.752625 2.795464 1.827803a36.233515 36.233515 0 0 1 7.741285 12.364553 39.781604 39.781604 0 0 1 1.397732 20.105838c-0.860143 3.548089-1.935321 4.408232-5.268374 2.257874a23.761445 23.761445 0 0 1-9.676607-17.417891c-1.612768 8.171357-3.655607 16.342713-4.945821 24.621587-2.795464 18.278034-7.848803 36.125997-11.826963 53.758925a9.676606 9.676606 0 0 0 2.580428 9.569089 35.158337 35.158337 0 0 1 6.98866 32.255355c-0.537589 2.580428-1.935321 2.150357-3.548089 1.290214a20.858463 20.858463 0 0 1-10.751785-17.202856v-3.97816c-2.687946 4.730785-2.150357 9.891642-4.838303 13.97732a5.913482 5.913482 0 0 1-1.075178-4.193196 27.202016 27.202016 0 0 1 1.182696-8.278875 489.098698 489.098698 0 0 0 12.579588-54.834103 23.223856 23.223856 0 0 1 1.612768-5.698446 23.438891 23.438891 0 0 1-25.266695 11.826964c-5.913482-1.50525-6.881142-3.763125-3.333053-8.708946a32.900462 32.900462 0 0 1 24.836623-12.902142 6.666107 6.666107 0 0 0 6.988661-6.558589c3.440571-20.320874 7.418732-40.534229 9.354053-61.070139a13.547249 13.547249 0 0 1 0.96766-3.870642c1.827803-5.268375 1.397732-10.751785 3.0105-16.342713 1.182696-1.50525-0.645107-1.290214-1.612768-0.860143zM248.688809 380.398152c-10.751785-15.697606-19.890802-32.255355-30.104998-48.49055a57.952121 57.952121 0 0 1-5.913482 16.235195c-0.537589 1.397732-1.182696 3.0105-2.902982 2.902982s-1.612768-1.935321-2.150357-3.0105a32.255355 32.255355 0 0 1 0-31.072658 5.913482 5.913482 0 0 0 0-6.021c-8.816464-16.450231-17.417892-32.900462-26.019319-49.350693-4.085678-3.0105-5.053339-7.956321-7.311214-12.149517s-5.053339-11.396892-8.063839-16.98782a4.730785 4.730785 0 0 1-0.537589-4.730785c1.290214-1.290214 2.042839-3.118018 3.97816-3.763125a77.305334 77.305334 0 0 1 8.49391 16.020159 25.696766 25.696766 0 0 1 1.720286 4.085679c2.257875 5.805964 4.730785 9.891642 12.794624 8.708946a25.804284 25.804284 0 0 1 20.213356 7.848803 45.802604 45.802604 0 0 1 7.741285 8.816463c0.860143 2.902982-1.50525 3.440571-3.333053 3.978161a28.169677 28.169677 0 0 1-24.836624-2.795464q20.643427 40.104158 43.00714 79.133137c3.440571 5.913482 3.548089 5.913482 9.891642 3.763125a25.804284 25.804284 0 0 1 21.50357 0c1.720286 0.860143 3.763125 1.397732 4.51575 3.548089a133.537169 133.537169 0 0 1-13.332213 12.687106c-2.795464 2.795464-5.913482 0-8.923982 0 0 2.580428 2.902982 4.085678 2.150357 6.881142z" fill="#50B646" p-id="5803"></path><path d="M869.066801 271.805124a32.255355 32.255355 0 0 1 0.967661 30.857623 14.299874 14.299874 0 0 1-1.397732 1.935321 44.189836 44.189836 0 0 1-9.784124-18.600588c-2.150357 5.48341-4.408232 10.751785-6.343554 16.342713q-17.310374 50.533389-38.49139 99.561529c-1.50525 3.440571-3.118018 6.98866-4.730785 10.751785l-2.902982-3.978161c-0.537589-2.902982 1.50525-4.838303 2.365393-7.203695-1.720286 1.397732-3.0105 3.870643-5.913482 2.365392l-6.451071-8.278874a17.095338 17.095338 0 0 1 14.51491-13.869803c5.590928 0 7.741285-2.580428 9.676606-7.311214 7.311214-17.847963 14.407392-35.695926 20.965981-53.758924a36.341033 36.341033 0 0 1-13.117178 6.128517c-2.042839 0-4.085678 0.752625-4.193196-2.47291a29.889962 29.889962 0 0 1 14.729945-22.901302 5.913482 5.913482 0 0 1 2.365393-0.752625c7.418732 0 9.354053-4.51575 10.751785-10.751785s4.300714-12.257035 5.913482-18.493071 4.945821-14.622428 6.98866-22.148677c0-1.720286 0.645107-4.085678 3.225535-4.300714l1.935322 2.04284a6.773625 6.773625 0 0 1 0 5.698446c-0.645107 2.042839-1.290214 4.085678-2.042839 6.128517-1.397732 4.300714-3.333053 8.816464 0.96766 13.00966z" fill="#50B746" p-id="5804"></path><path d="M868.099141 244.603108l-9.139018 26.879462a4.408232 4.408232 0 0 1-3.548089 1.612768c-11.611928 0-23.116338 0.967661-34.728265 0.860143-4.945821-1.397732-2.902982-4.408232-1.397732-6.881142q6.558589-10.751785 13.00966-21.50357c4.193196-7.096178 8.49391-14.192356 12.47207-21.50357a8.601428 8.601428 0 0 1 3.440571-4.085679 280.51407 280.51407 0 0 1 19.890803 24.621588z" fill="#D9FCD4" p-id="5805"></path><path d="M182.887885 208.047039c2.687946 0 3.118018 2.042839 4.193196 3.548089 17.202856 22.901302 35.588408 44.727425 54.941621 65.908442 0.752625 0.860143 1.720286 1.612768 2.580429 2.365393a21.50357 21.50357 0 0 1 7.848803 6.773624c4.193196 5.375892 9.354053 9.891642 14.084838 14.837463a6.128517 6.128517 0 0 0 6.773624 1.827804 26.98698 26.98698 0 0 1 19.353213 2.795464c3.763125 1.720286 3.97816 3.333053 1.290215 6.451071a18.062999 18.062999 0 0 1-4.838304 4.193196c-3.763125 2.042839-2.580428 3.763125 0 5.913482a47.630407 47.630407 0 0 1 11.611928 10.751785 6.881142 6.881142 0 0 1-3.763125 2.795464 68.273835 68.273835 0 0 1-14.084838-11.611928 13.117178 13.117178 0 0 0-8.816464-3.870643 16.98782 16.98782 0 0 1-10.751785-4.408231c-2.580428-2.042839-4.730785-4.408232-1.612767-7.848803s0-3.655607-1.50525-4.945821a200.628307 200.628307 0 0 1-17.310374-18.278035 39.99664 39.99664 0 0 1 0 28.707266c0 1.182696-0.645107 2.795464-2.257875 3.0105s-2.580428-1.290214-3.333053-2.580429a43.00714 43.00714 0 0 1-6.236036-38.276354c0.645107-0.860143 1.182696-2.042839 2.687947-1.075179-10.751785-10.751785-20.320874-22.578748-29.782445-34.405711a82.788744 82.788744 0 0 0-7.956321-9.354053c-4.838303-5.268375-8.708946-11.289374-13.117177-16.880303a4.300714 4.300714 0 0 1-1.290214-4.515749zM780.364575 377.280134l-14.944981-14.944981a33.868123 33.868123 0 0 1 4.945821-14.407392c4.623268-11.396892 8.601428-23.00882 13.654767-33.97564 0.645107-0.537589 0-0.860143 0 0a30.320034 30.320034 0 0 1-18.708106 5.913482c-4.408232 0-5.48341-1.827803-3.440571-5.698446a32.255355 32.255355 0 0 1 25.589248-18.170517 6.773625 6.773625 0 0 0 6.451071-5.053339c1.935321-5.48341 4.408232-10.751785 6.343553-16.235195 8.923982-23.116338 17.955481-46.125157 26.449391-69.456531 0.645107-1.720286 0.967661-3.548089 2.687947-4.623268l2.795464 1.720286a8.601428 8.601428 0 0 1 0 8.063839c-7.526249 21.50357-15.160017 42.146997-23.546409 62.897942-6.666107 14.729945-10.751785 30.212516-17.955481 44.834943-3.763125 7.956321-7.096178 16.127677-10.751785 24.083998a11.50441 11.50441 0 0 0 0 11.289375 35.158337 35.158337 0 0 1 3.118018 19.46073 5.053339 5.053339 0 0 1-2.687947 4.300714z" fill="#50B746" p-id="5806"></path><path d="M829.392715 200.198236c-5.48341 17.202856-12.364553 33.97564-18.815624 50.748425-3.0105 7.848803-6.236035 15.697606-9.461571 23.546409a16.342713 16.342713 0 0 1-12.257035 1.827804c-2.150357-1.50525-0.860143-3.333053 0-4.945822 10.751785-25.589248 20.105838-51.50105 29.782445-77.412851a5.268375 5.268375 0 0 1 2.042839-3.225536 51.608568 51.608568 0 0 1 8.708946 9.461571z" fill="#D9FBD4" p-id="5807"></path><path d="M181.490153 209.98236c4.085678 7.741285 10.751785 13.654767 15.160017 21.50357 6.236035 8.601428 10.751785 18.385552 16.235195 27.309534 0.645107 1.075178 2.257875 2.687946 0 3.763125a30.642587 30.642587 0 0 0-26.234355-7.203696 2.795464 2.795464 0 0 1-3.548089-1.827804l-13.439732-29.567408a90.530029 90.530029 0 0 1 11.826964-13.977321z" fill="#DAFCD3" p-id="5808"></path><path d="M807.029002 272.557749l23.868963-64.51071a9.891642 9.891642 0 0 0 1.182696-6.236035 164.824864 164.824864 0 0 1 13.117178 14.837463 23.546409 23.546409 0 0 1-4.838304 10.214196c-8.063839 14.084838-16.342713 27.954641-24.944141 41.716925a17.202856 17.202856 0 0 1-4.085678 4.945821c-1.612768 0.967661-3.440571 1.935321-4.300714-0.96766z" fill="#D9FBD4" p-id="5809"></path><path d="M811.65227 272.665267c11.50441-17.632927 21.50357-35.910962 32.255354-53.758925a23.331373 23.331373 0 0 1 1.50525-1.935321l3.0105 3.010499c-8.171357 15.805124-17.632927 30.857623-26.664427 46.232676-1.182696 2.042839-3.870643 3.763125-2.257874 6.773624-2.902982 3.0105-5.590928 0.967661-7.848803-0.322553z" fill="#ABE4A4" p-id="5810"></path><path d="M869.066801 271.805124c-6.128517-2.042839-4.193196-6.236035-2.902982-10.751785a59.349853 59.349853 0 0 0 4.085679-14.622428l16.665266 25.374213z" fill="#D1F7CD" p-id="5811"></path><path d="M165.685029 227.722806l15.912642 33.868122a31.610248 31.610248 0 0 1-11.826964-3.763125 10.751785 10.751785 0 0 1-3.870642-6.128517 91.820244 91.820244 0 0 1-6.128518-16.127677 53.758925 53.758925 0 0 1 5.913482-7.848803z" fill="#D8FBD3" p-id="5812"></path><path d="M820.468733 190.736665c-2.902982 10.751785-7.203696 20.535909-10.751785 30.750105-6.343553 16.880302-12.794624 33.653087-19.890802 50.210836a27.417052 27.417052 0 0 0-1.075178 3.763125 1.50525 1.50525 0 0 1-2.257875 0c4.085678-10.751785 8.063839-21.50357 12.257035-32.255355 6.666107-17.095338 12.687106-34.405712 18.600588-51.716086a21.50357 21.50357 0 0 1 1.290214-2.580428z" fill="#ADE5A6" p-id="5813"></path><path d="M161.814386 255.784964c-5.160857-0.645107-9.569089-3.655607-14.837463-3.97816a112.893742 112.893742 0 0 1 9.676607-12.257035 28.707266 28.707266 0 0 1 7.311213 14.407392c0.537589 1.612768-0.322554 2.687946-2.150357 1.827803z" fill="#D8FBD3" p-id="5814"></path><path d="M161.814386 255.784964c3.0105-0.860143 0.967661-2.795464 0-3.763124-1.720286-4.193196-3.763125-8.278874-5.590928-12.364553a10.751785 10.751785 0 0 1 3.0105-4.085678 212.132717 212.132717 0 0 1 9.99916 22.148677 30.750105 30.750105 0 0 1-7.418732-1.935322z" fill="#ABE4A5" p-id="5815"></path><path d="M909.278477 310.51155a14.407392 14.407392 0 0 1-8.278874-15.912642z" fill="#59BA4F" p-id="5816"></path><path d="M511.677469 799.50273a308.898782 308.898782 0 0 1-138.052919-32.255355A215.035699 215.035699 0 0 1 291.803467 699.081058a148.052079 148.052079 0 0 1-27.309534-71.606887 155.363293 155.363293 0 0 1 24.191516-98.056279 245.033179 245.033179 0 0 1 120.419991-99.346493 267.934481 267.934481 0 0 1 77.305334-19.03066 275.245695 275.245695 0 0 1 189.984041 49.565729 211.165057 211.165057 0 0 1 78.272994 95.798404 143.966401 143.966401 0 0 1-20.643427 148.159597 228.367913 228.367913 0 0 1-104.829903 75.262494 310.941621 310.941621 0 0 1-90.53003 19.460731c-7.956321-0.107518-15.912642-0.107518-26.98698 0.215036z" fill="#F9E7DA" p-id="5817"></path><path d="M811.65227 272.665267c2.687946-0.645107 5.375892 1.182696 8.063838 0 13.224696-0.752625 26.449391-1.397732 39.674087-1.182697a271.052499 271.052499 0 0 1-8.708946 26.341874 3.333053 3.333053 0 0 1-3.655607 2.687946 19.030659 19.030659 0 0 0-18.708106 13.654767 37.308694 37.308694 0 0 0-3.225535 10.751785 34.943301 34.943301 0 0 0 18.49307-8.923982 450.177236 450.177236 0 0 1-16.342713 44.51239c-2.472911 6.451071-5.375892 12.794624-8.063839 19.245695-0.752625 1.827803-1.612768 3.225535-3.97816 2.902982-9.99916-1.182696-14.944981 5.268375-19.138178 12.902142l-15.805124-17.955481a34.835783 34.835783 0 0 0-3.118017-26.01932 7.311214 7.311214 0 0 1 0-7.311213c6.98866-15.590088 13.97732-31.072659 20.320873-46.877783 3.225535-8.063839 5.913482-16.450231 9.569089-24.406552 1.397732 1.50525 2.795464 0.215036 4.623268-0.322553zM786.170539 275.460731h2.257875c4.300714 0.645107 8.386392-1.50525 12.687106-0.967661-1.935321 6.881142-5.160857 13.224696-7.526249 19.890802-0.752625 2.150357-2.150357 2.042839-3.870643 2.150357a32.255355 32.255355 0 0 0-27.309534 18.815624c-1.290214 2.257875-0.860143 3.333053 1.935322 3.225535a32.255355 32.255355 0 0 0 22.793784-8.923981l-21.50357 52.683746a438.457791 438.457791 0 0 0-44.727426-35.695926 430.071399 430.071399 0 0 0-58.167156-32.255355c20.428391-3.333053 40.749265-6.773625 61.177656-9.99916 18.815624-2.902982 37.631247-5.698446 56.554389-7.526249 1.827803-0.537589 3.763125-1.075178 5.698446-1.397732zM231.700989 275.783284a44.51239 44.51239 0 0 0 4.193196 34.405712c1.075178 1.935321 2.365393 3.870643 3.97816 6.343553a39.674087 39.674087 0 0 0 0-35.803444 101.174297 101.174297 0 0 1 12.687106 12.794625c3.440571 3.440571 6.773625 6.881142 10.214196 10.214195s4.193196 3.548089 0 5.698446c-2.257875 1.182696-1.720286 2.795464 0 4.300714a16.98782 16.98782 0 0 0 12.687106 5.805964 8.063839 8.063839 0 0 1 6.988661 3.0105c4.51575 5.053339 10.751785 8.601428 14.729945 13.97732l-25.159177 21.50357a27.632087 27.632087 0 0 0-30.212516-1.50525c-3.655607 1.935321-4.085678-1.075178-5.053339-2.687946-6.236035-10.751785-12.472071-21.50357-18.278034-32.255355-9.031499-16.557749-17.847963-33.223016-26.664427-49.888282-0.752625-1.397732-1.397732-2.902982-2.795464-5.805964a26.556909 26.556909 0 0 0 28.599748 5.805964c1.182696 0 2.902982 0 1.935322-2.47291a1.935321 1.935321 0 0 1 1.290214 0 46.9853 46.9853 0 0 0 10.859303 6.558588z" fill="#99DC7C" p-id="5818"></path><path d="M855.412034 515.0105a114.076438 114.076438 0 0 1 4.623268 24.083998 216.540949 216.540949 0 0 1 1.290214 31.180177 206.326753 206.326753 0 0 1-26.664427 100.099118 58.704746 58.704746 0 0 1-6.666106-19.568249 156.868543 156.868543 0 0 1 11.50441-111.818564 104.292314 104.292314 0 0 1 15.912641-23.97648zM193.532152 670.803864a216.218396 216.218396 0 0 1-22.041159-65.478371 227.185216 227.185216 0 0 1 0-69.241495 192.134397 192.134397 0 0 1 4.193196-20.858463 101.926921 101.926921 0 0 1 19.568249 32.255355 161.276774 161.276774 0 0 1 0 120.742546c-0.430071 1.182696-0.537589 2.365393-1.720286 2.580428z" fill="#F5F5F5" p-id="5819"></path><path d="M884.1193 357.49685c-1.290214 9.676606-2.472911 19.245695-4.085678 28.922302-2.257875 13.869803-4.730785 27.632087-7.096178 41.50189-0.537589 3.118018-3.0105 2.365393-5.053339 2.47291a33.545569 33.545569 0 0 0-26.879463 13.654767c-2.150357 3.0105-1.827803 4.408232 1.935322 5.375893a22.256195 22.256195 0 0 0 24.729105-10.751785c1.182696-1.612768 2.257875-3.225535 3.870643-5.590929a663.600168 663.600168 0 0 1-17.417892 73.864763 329.757245 329.757245 0 0 0-18.815624-49.673246c-1.075178-2.257875-2.042839-4.51575-3.010499-6.773625a44.727425 44.727425 0 0 1 6.773624-13.224696c14.084838-24.836623 26.98698-50.318354 39.02898-76.230155 2.580428-5.590928 2.580428-5.698446 5.913481-7.526249a3.548089 3.548089 0 0 1 0.107518 3.97816z" fill="#99DC7C" p-id="5820"></path><path d="M300.512412 333.735405l-14.729945-12.47207c-1.935321-1.612768-3.0105-2.795464 0-4.408232s8.601428-4.51575 8.171357-7.741285-6.236035-3.655607-9.999161-4.838304a17.417892 17.417892 0 0 0-10.751784 0 6.98866 6.98866 0 0 1-8.171357-2.257874c-7.096178-7.418732-14.299874-14.729945-21.50357-22.471231l38.813944 9.246535 25.051659 5.590928a2.365393 2.365393 0 0 1 0.96766 1.612768 88.809744 88.809744 0 0 0 5.805964 27.417052z" fill="#99DC7D" p-id="5821"></path><path d="M806.383895 711.445611a77.090298 77.090298 0 0 1 28.49223 30.320034l0.645107 1.290214c6.021 11.719446 6.021 12.041999-6.98866 11.289374a56.876942 56.876942 0 0 1-40.964301-18.278034 7.096178 7.096178 0 0 1-2.150357-3.225536z" fill="#50B646" p-id="5822"></path><path d="M884.1193 357.49685c0-1.075178 0-2.257875-0.860143-3.548089a91.390172 91.390172 0 0 0-5.698446 11.396892c-10.751785 20.858463-20.320874 42.039479-32.255355 62.360353a232.883662 232.883662 0 0 1-13.332213 22.578748l-1.720285-3.763124a133.537169 133.537169 0 0 1 11.826963-21.50357c15.160017-25.804284 28.169677-52.791264 41.394372-79.670727 0.645107-1.397732 2.257875-3.118018 0.645107-4.945821l1.935321-3.333053a59.887442 59.887442 0 0 1-1.935321 20.428391z" fill="#82D06B" p-id="5823"></path><path d="M315.242358 323.628727a39.566569 39.566569 0 0 1-6.773625-22.148677 63.758085 63.758085 0 0 1 0-6.881142c0-2.257875 0-5.268375 2.150357-6.128517s3.97816 1.612768 5.483411 3.225535a67.198656 67.198656 0 0 1 4.623267 5.698446 20.213356 20.213356 0 0 1 3.655607 20.105838z" fill="#50B646" p-id="5824"></path><path d="M324.381375 317.50021a43.00714 43.00714 0 0 0-3.655607-20.213356l29.674927 5.590928z" fill="#9ADC7D" p-id="5825"></path><path d="M251.591791 377.387652l-5.268375-8.601428c4.51575 0 8.063839 2.365393 12.041999 1.397732a26.664427 26.664427 0 0 1-6.773624 7.203696z" fill="#97D679" p-id="5826"></path><path d="M802.62077 403.51449c3.763125 0 5.160857-3.870643 9.0315-6.236036l-5.483411 10.751785z" fill="#94D577" p-id="5827"></path><path d="M651.773227 213.637967a16.342713 16.342713 0 0 1 24.51407-11.826963c1.827803 0.752625 2.472911 0 3.440571-1.397732a26.556909 26.556909 0 0 1 34.405712-11.934482 23.223856 23.223856 0 0 1 11.50441 10.751785 4.085678 4.085678 0 0 0 5.913482 2.257875 19.353213 19.353213 0 0 1 23.438891 10.751785 17.740445 17.740445 0 0 1-11.50441 22.901302 26.556909 26.556909 0 0 1-7.311214 1.290214h-92.250315a13.00966 13.00966 0 0 1-12.257035-19.890802 13.654767 13.654767 0 0 1 17.095338-4.838303c1.612768 0.752625 1.612768 1.397732 3.0105 1.935321zM485.335596 159.879042h-46.340193a13.00966 13.00966 0 0 1-13.224696-6.98866 12.364553 12.364553 0 0 1 1.827804-13.869802 13.762285 13.762285 0 0 1 15.160016-3.548089c3.870643 1.290214 4.623268 0 5.805964-2.902982a15.48257 15.48257 0 0 1 19.783285-8.601428c3.97816 1.827803 5.590928 1.827803 8.063838-2.472911a25.804284 25.804284 0 0 1 39.244015-4.730785c7.741285 7.633767 7.741285 7.633767 18.278035 7.848803a17.202856 17.202856 0 0 1 16.98782 17.740445 17.632927 17.632927 0 0 1-17.202856 17.202856z" fill="#FEFEFE" p-id="5828"></path><path d="M298.039502 236.754305h-36.341033a17.525409 17.525409 0 0 1-16.450231-9.99916 14.51491 14.51491 0 0 1 2.687946-16.772785 14.299874 14.299874 0 0 1 16.127677-4.730785c3.440571 1.075178 4.085678 0 5.483411-2.472911a21.50357 21.50357 0 0 1 36.878622 0c1.50525 2.687946 2.257875 3.440571 5.48341 1.720286a12.687106 12.687106 0 0 1 17.310374 6.881142c1.075178 3.225535 1.935321 4.085678 5.483411 2.687947a11.117346 11.117346 0 0 1 7.95632 20.750945 18.708106 18.708106 0 0 1-8.171356 1.720285z" fill="#F8FEF6" p-id="5829"></path><path d="M241.807666 229.335573a28.814784 28.814784 0 0 1-20.535909 10.751785 18.600588 18.600588 0 0 1-13.654767-7.096178c-2.042839-2.150357 0-2.902982 1.182697-3.763125a27.309534 27.309534 0 0 1 33.007979 0.107518z" fill="#50B646" p-id="5830"></path><path d="M220.304097 269.547249l-7.203696-7.848803c0-5.48341-4.730785-8.923982-6.881143-13.547249s-6.773625-10.751785-9.031499-17.417892a32.255355 32.255355 0 0 1 7.848803 9.0315c4.730785 8.278874 10.106678 16.127677 14.944981 24.299034 0.322554 1.720286 2.042839 3.333053 0.322554 5.48341z" fill="#ACE4A6" p-id="5831"></path><path d="M220.304097 269.547249c-4.408232-9.569089-10.751785-17.955481-16.02016-27.202016 0-0.860143-1.397732-1.50525 0-2.47291 9.461571 10.751785 18.923142 21.50357 28.599748 32.900462 2.580428 2.902982 0 2.580428-1.290214 3.118017a12.579588 12.579588 0 0 1-11.289374-6.343553z" fill="#D6FAD2" p-id="5832"></path><path d="M407.385155 623.603528a37.738765 37.738765 0 0 1-8.816464 24.836623 29.99748 29.99748 0 0 1-48.705586-2.257875 40.534229 40.534229 0 0 1-0.537589-44.189836 30.535069 30.535069 0 0 1 30.535069-14.622427 33.223016 33.223016 0 0 1 26.664427 26.341873 33.760605 33.760605 0 0 1 0.860143 9.891642zM625.538872 623.280974a37.52373 37.52373 0 0 1 10.751785-26.556908 29.782444 29.782444 0 0 1 46.340193 3.225535 40.534229 40.534229 0 0 1 1.720286 44.51239 30.535069 30.535069 0 0 1-30.750105 15.052499 33.115498 33.115498 0 0 1-26.664427-25.804284 35.803444 35.803444 0 0 1-1.397732-10.429232z" fill="#2C1919" p-id="5833"></path><path d="M327.176839 673.706846a18.815624 18.815624 0 0 1 12.364553 3.118018 7.848803 7.848803 0 0 1 0 13.654766 26.126837 26.126837 0 0 1-25.589248 0 7.848803 7.848803 0 0 1 0-13.332213 19.245695 19.245695 0 0 1 13.224695-3.440571zM704.13442 673.706846a18.708106 18.708106 0 0 1 10.751785 2.257875 7.956321 7.956321 0 0 1 5.160857 7.311213 7.848803 7.848803 0 0 1-4.51575 7.633768 23.331373 23.331373 0 0 1-26.01932-1.935321 6.881142 6.881142 0 0 1 0-10.751785 19.99832 19.99832 0 0 1 14.622428-4.51575z" fill="#F090AF" p-id="5834"></path><path d="M518.773647 735.529609a37.953801 37.953801 0 0 1-40.211676-32.255354c0-1.612768-1.075178-3.763125 0.967661-4.193197s1.720286 2.150357 2.042839 3.440572a39.351533 39.351533 0 0 0 9.784124 19.675766 37.308694 37.308694 0 0 0 30.642588 9.891642 33.760605 33.760605 0 0 0 27.739605-15.052499 55.049139 55.049139 0 0 0 6.128517-15.590088c0-1.290214 0-3.440571 1.935322-3.118018s1.182696 2.257875 0.96766 3.440572a37.631247 37.631247 0 0 1-30.965141 32.255355 45.049979 45.049979 0 0 1-9.031499 1.505249z" fill="#F2ACAC" p-id="5835"></path><path d="M368.463693 606.078118a8.816464 8.816464 0 0 1-8.816463 8.816464 8.923982 8.923982 0 1 1 0.430071-17.847963 8.816464 8.816464 0 0 1 8.386392 9.031499zM651.343156 605.970601a8.923982 8.923982 0 1 1-9.0315-9.139018 8.923982 8.923982 0 0 1 9.0315 9.139018z" fill="#FDF8F8" p-id="5836"></path></svg>