<?xml version="1.0" standalone="no"?><!DOCTYPE svg PUBLIC "-//W3C//DTD SVG 1.1//EN" "http://www.w3.org/Graphics/SVG/1.1/DTD/svg11.dtd"><svg t="1550212852358" class="icon" style="" viewBox="0 0 1024 1024" version="1.1" xmlns="http://www.w3.org/2000/svg" p-id="4421" xmlns:xlink="http://www.w3.org/1999/xlink" width="200" height="200"><defs><style type="text/css">@font-face { font-family: "Roboto Condensed"; src: url("chrome-extension://lienonopcegannlgdkgonpofbhgmclcc/RobotoCondensed-Regular.ttf"); }
</style></defs><path d="M0.206015 511.536465Q0.206015 258.034403 0.103008 4.12031C0.103008 0.824062 0.92707 0 4.532341 0h1015.038326c3.708279 0 4.532341 0.824062 4.532341 4.532341v1014.83231c0 3.708279-0.824062 4.532341-4.532341 4.532341H4.532341c-3.708279 0-4.532341-0.824062-4.532341-4.532341q0.309023-253.914093 0.206015-507.828186z" fill="#FEFEFE" p-id="4422"></path><path d="M100.844583 334.878181A448.70174 448.70174 0 0 1 237.535862 158.631928c8.034604-2.884217 8.858666-2.472186 13.184991 4.429333s7.725581 16.172216 12.669953 23.691782c3.502263 5.459411 6.077457 5.356403 9.270697 0 5.974449-10.300775 10.918821-21.528619 16.996278-32.035409s11.021829-21.528619 17.099286-31.932401c0.92707-1.648124 1.545116-3.708279 3.811286-4.326325a23.691782 23.691782 0 0 1 8.755659 2.987224c9.064682 3.502263 18.026355 7.31355 27.091037 10.300775a11.330852 11.330852 0 0 1 5.150387 2.781209c0.92707 4.635349-2.060155 8.343627-2.884217 12.566945-5.356403 17.614325-11.43386 35.022634-16.89327 52.636958 0 1.133085-0.721054 2.163163-1.030078 3.296248s-1.648124 4.532341 0.515039 6.489488 4.017302 1.030077 6.180465 0c8.755658-2.678201 17.511317-5.04738 26.266975-7.828589a7.416558 7.416558 0 0 1 9.785736 3.090232c5.253395 7.416558 10.815813 14.730108 16.584247 21.837643 1.442108 1.751132 2.781209 4.017302 5.562418 3.502263s3.399256-2.987225 4.12031-5.150387c3.914294-11.639875 7.828589-23.279751 11.639875-35.022634s7.31355-21.631627 10.918821-32.44744c0.618046-1.751132 0.515039-4.12031 3.19324-4.532341a234.85766 234.85766 0 0 0 27.091038 5.665426 14.6271 14.6271 0 0 1 7.519565 2.266171c1.854139 4.223318 0 8.446635 0 12.566945-1.030077 10.300775-1.545116 19.777487-2.678201 29.666231s-1.648124 19.159441-2.678202 28.636153a25.751936 25.751936 0 0 0 0 2.987224c0 2.575194-0.618046 5.562418 2.163163 7.210543s4.738356 0 6.901519-1.442109c7.725581-3.914294 15.142139-8.343627 22.558696-12.669953a8.137612 8.137612 0 0 1 10.300775 0.92707c6.901519 5.974449 13.803038 11.845891 20.601549 17.511317 5.253395 4.12031 7.828589 3.090232 8.652651-3.708279 1.648124-13.494015 2.575194-26.988029 3.811286-40.482044 0.92707-11.43386 2.163163-22.970727 3.090233-34.404587 0-1.648124 0-3.296248 2.163162-4.12031a357.848909 357.848909 0 0 0 39.657982-1.957147 11.742883 11.742883 0 0 1 5.871442 0.618046c3.090232 2.26617 2.678201 5.871442 3.605271 8.961674s1.442108 6.180465 2.060155 9.16769c4.12031 18.953425 7.725581 38.112866 11.845891 57.066291a21.837642 21.837642 0 0 0 0.721054 2.884217c1.339101 3.708279 3.708279 4.532341 6.901519 2.060155a49.237702 49.237702 0 0 0 8.446635-8.446636c3.811287-4.841364 8.446635-8.858666 12.669953-13.391006a7.519565 7.519565 0 0 1 9.476712-1.648124l25.236898 10.300774c1.957147 0.824062 4.017302 2.060155 6.077457 0s1.854139-4.017302 1.442108-6.38648c-2.369178-12.051906-5.150387-24.000805-7.416557-36.155719-1.648124-10.300775-4.326325-20.601549-6.180465-30.902324a11.536868 11.536868 0 0 1 0-6.798511 6.180465 6.180465 0 0 1 4.532341-2.781209c11.742883-2.781209 23.279751-6.283472 34.71361-10.300774a6.592496 6.592496 0 0 1 3.914294 0c2.884217 1.545116 3.090232 4.738356 4.635349 7.210542 7.107534 18.026355 13.906046 36.155719 20.601549 54.182074 0.92707 2.26617 1.236093 5.150387 4.326325 5.459411s4.738356-2.060155 6.180465-4.223318c4.944372-7.107534 9.682728-14.318077 14.421084-21.425611a8.446635 8.446635 0 0 1 10.300775-3.914294c8.446635 2.369178 17.099286 4.017302 25.648929 6.180464 2.26617 0.618046 4.635349 1.339101 6.592495-0.618046s0.824062-4.635349 0-7.004527-4.12031-6.180465-2.369178-10.300774a118.046877 118.046877 0 0 1 16.584247 13.391006 449.216779 449.216779 0 0 1 92.706972 113.308521 401.730208 401.730208 0 0 1 30.902323 67.058042c-1.030077 1.545116-2.884217 1.545116-4.429333 1.85414a74.989639 74.989639 0 0 0-38.112866 20.601549c-1.236093 1.236093-2.369178 2.884217-4.635348 2.060155a45.117393 45.117393 0 0 1-1.85414-13.700031 77.358817 77.358817 0 0 0-69.015189-69.42722 76.122724 76.122724 0 0 0-75.195655 36.876773 6.798511 6.798511 0 0 1-2.163162 2.678201 9.682728 9.682728 0 0 1-6.077457-2.987224 362.072226 362.072226 0 0 0-131.643899-60.671563 387.824163 387.824163 0 0 0-65.924958-9.270697 355.891761 355.891761 0 0 0-163.267277 30.902324 370.827885 370.827885 0 0 0-82.406196 51.503873 5.562418 5.562418 0 0 1-4.429333 1.957147c-2.26617-0.824062-2.987225-2.987225-3.914295-4.944372a78.182879 78.182879 0 0 0-124.227341-24.103812 76.740771 76.740771 0 0 0-20.601549 33.374509c-0.618046 1.854139-0.618046 4.017302-2.472186 5.253395a2.060155 2.060155 0 0 1-1.854139 0 167.799618 167.799618 0 0 0-26.06096-22.249673z" fill="#FEEEAD" p-id="4423"></path><path d="M310.980384 112.072427a451.791973 451.791973 0 0 1 144.210844-43.881299 427.379137 427.379137 0 0 1 77.358817-2.987225 442.933307 442.933307 0 0 1 121.446132 22.764712 431.087416 431.087416 0 0 1 59.126446 24.824867c0 2.163163-2.163163 2.26617-3.502263 2.987224s-4.635349 1.854139-6.901519 2.781209c-7.416558 2.884217-7.725581 3.399256-5.45941 10.815814a4.841364 4.841364 0 0 1 0 4.738356 120.416055 120.416055 0 0 1-24.412836 7.931596 59.744493 59.744493 0 0 1-17.717332 4.017302 14.009053 14.009053 0 0 0-13.081984-1.957147c-15.142139 3.399256-30.902324 6.38648-45.632431 9.476713a36.670757 36.670757 0 0 0-16.069209 5.871441c-13.494015 1.545116-26.988029 2.060155-40.585052 2.678202a13.287999 13.287999 0 0 1-4.944371-0.618047 28.121115 28.121115 0 0 0-14.009054-2.884217c-17.614325-1.854139-35.331657-3.19324-53.048989-5.047379-3.19324 0-5.253395 1.648124-7.725581 2.987224a14.009053 14.009053 0 0 1-7.31355 0 157.395835 157.395835 0 0 1-26.47299-5.253395 17.614325 17.614325 0 0 0-12.875969-8.858666c-14.936123-4.429333-29.563223-10.300775-44.396338-14.6271a31.932401 31.932401 0 0 0-10.300774-2.678201c-4.429333 0-3.605271 5.150387-6.489488 6.695503-12.978976-4.326325-25.545921-9.476713-38.215874-14.833115a8.858666 8.858666 0 0 1-3.296248-2.163163 2.575194 2.575194 0 0 1 0.309023-2.781209zM941.078765 633.909667a438.297958 438.297958 0 0 1-37.49482 91.882909 450.761895 450.761895 0 0 1-175.731214 176.761292 158.425913 158.425913 0 0 1-28.121114 13.597022 5.459411 5.459411 0 0 1-1.957148-4.429333 149.87627 149.87627 0 0 0-18.644402-61.186601 11.330852 11.330852 0 0 1-1.545116-4.12031 8.034604 8.034604 0 0 1 3.090233-4.944371 33.683533 33.683533 0 0 0 8.446635-26.06096 138.957449 138.957449 0 0 0-3.811287-23.382758c0-2.472186 2.575194-2.884217 4.326325-3.605271a338.998491 338.998491 0 0 0 71.075345-39.76099c4.017302-2.884217 7.828589-6.180465 11.845891-9.064682 1.339101-0.92707 2.369178-2.369178 4.326325-2.060155 5.871442 7.416558 10.300775 15.760185 15.657177 23.588774s8.961674 14.009053 13.597023 20.601549 7.210542 11.948899 0.824062 18.850418c4.944372 0 5.665426 0 6.283472-5.562419a79.52198 79.52198 0 0 1 10.300775-25.648928c14.524092-29.666231 28.636153-59.538477 43.263253-89.1017 4.738356-9.682728 9.270697-19.468464 14.112061-29.048185 0.92707-1.854139 1.545116-4.12031 4.017302-4.738356s3.296248-0.618046 3.296248-2.987225 1.648124-4.841364 5.150387-3.811286a60.568554 60.568554 0 0 0 42.130168-4.738357c1.648124-0.618046 3.399256-2.472186 5.562419-1.030077zM316.130772 913.266673a366.91359 366.91359 0 0 1-53.873051-30.902323 459.826577 459.826577 0 0 1-56.963284-45.529424A445.817523 445.817523 0 0 1 84.260336 643.489387a14.833115 14.833115 0 0 1 0-2.472186c3.811287-2.163163 8.034604 0 12.051906-1.030077s7.416558-1.133085 11.124837-2.369178 4.738356 0 4.738356 2.575194c0 5.04738 2.781209 3.502263 5.459411 2.575193 4.429333 5.562418 8.034604 11.639875 11.84589 17.614325l53.873051 83.230258c8.24062 12.669953 16.378232 25.442913 24.618852 38.009858 5.974449 9.064682 5.871442 9.167689 1.957147 19.159441 4.12031 0 5.768434-2.369178 6.077457-7.931596a16.687255 16.687255 0 0 1 1.3391-6.180465c7.622573-16.584247 16.275224-32.756463 23.79479-49.443718a8.446635 8.446635 0 0 1 2.472186-3.708279c1.545116 0 2.472186 0.618046 3.502263 1.442109a314.585655 314.585655 0 0 0 79.624987 49.855748c1.648124 0.721054 3.502263 1.133085 4.12031 3.193241a182.735741 182.735741 0 0 0-4.223317 20.601549 35.022634 35.022634 0 0 0 9.476712 32.344432 5.356403 5.356403 0 0 1 1.85414 3.399255c-3.399256 7.519565-7.31355 14.833115-10.300775 22.455689a146.064983 146.064983 0 0 0-10.300774 41.203098 9.270697 9.270697 0 0 1-1.236093 5.253395z" fill="#FEEEAD" p-id="4424"></path><path d="M594.354693 950.040439a177.482346 177.482346 0 0 1-21.734635 3.914294 3.811287 3.811287 0 0 1-2.884217-2.472186 79.624987 79.624987 0 0 0-17.717332-21.734634c-10.300775-10.300775-21.631627-19.983503-31.932401-30.902324-4.738356-4.944372-5.150387-4.841364-10.300775 0-12.77296 12.257922-26.369983 23.588774-39.142943 35.949703a70.457298 70.457298 0 0 0-12.154914 15.657178c-0.92707 1.545116-1.545116 3.399256-3.399255 4.120309a4.635349 4.635349 0 0 1-2.78121 0 435.207726 435.207726 0 0 1-68.500151-14.318076 4.944372 4.944372 0 0 1-1.236092-0.824062 9.270697 9.270697 0 0 1 0-6.283473 371.754954 371.754954 0 0 1 14.524092-60.156523 10.300775 10.300775 0 0 1 2.575193-4.738356 60.77457 60.77457 0 0 1 9.16769-1.957148 11.330852 11.330852 0 0 0 8.858666-10.300774 119.179962 119.179962 0 0 0 0.618046-14.318077 13.287999 13.287999 0 0 1 0.92707-6.283472 14.318077 14.318077 0 0 1 7.622573-4.12031 169.035711 169.035711 0 0 1 70.148275-8.446635 166.357509 166.357509 0 0 1 51.503873 13.597022 63.246756 63.246756 0 0 1 33.992556 36.361734 191.182376 191.182376 0 0 1 12.669953 53.048989 148.331154 148.331154 0 0 1 0.927069 18.335379 7.828589 7.828589 0 0 1-1.751131 5.871442z" fill="#FA665A" p-id="4425"></path><path d="M594.354693 950.040439a204.367367 204.367367 0 0 0-12.978976-74.783624 66.646011 66.646011 0 0 0-41.203099-41.203098 159.45599 159.45599 0 0 0-67.058042-10.815813 153.481541 153.481541 0 0 0-53.358012 11.84589 11.330852 11.330852 0 0 1 2.575193-13.597022c2.163163-2.781209 3.811287-4.841364-1.3391-5.871442a4.635349 4.635349 0 0 1-3.502264-4.841364 93.531033 93.531033 0 0 1 0-9.476712 30.902324 30.902324 0 0 0-2.678201-14.009054c-0.618046-1.339101-2.060155-2.781209 0-4.53234a8.755658 8.755658 0 0 1 6.283472 0.618046 342.397747 342.397747 0 0 0 65.924958 12.154914 334.363143 334.363143 0 0 0 104.655869-7.622573c2.678201-0.618046 5.356403-2.060155 8.24062-0.515039a2.884217 2.884217 0 0 1 0.515039 2.369178 312.422493 312.422493 0 0 0-2.987225 62.319686c0 11.536868 2.884217 14.6271 14.524092 16.893271a7.725581 7.725581 0 0 1 4.017302 1.648124 78.388894 78.388894 0 0 1 6.592496 19.365456 374.22714 374.22714 0 0 1 10.300775 47.07454 12.257922 12.257922 0 0 1 0 4.429333 217.140328 217.140328 0 0 1-38.524897 8.549643z" fill="#F35250" p-id="4426"></path><path d="M883.394427 381.128659a82.406197 82.406197 0 0 1 30.284277-20.601549 74.165577 74.165577 0 0 1 16.790263-4.12031 44.499346 44.499346 0 0 1 3.811286 10.300775c-23.897797 4.738356-41.203098 18.026355-41.203098 32.344432a151.730409 151.730409 0 0 1 17.305301-13.494015 108.570164 108.570164 0 0 1 23.176743-10.300774c3.19324-1.030077 4.223318 0 5.04738 2.884216a461.268685 461.268685 0 0 1 13.597022 58.611408 483.518358 483.518358 0 0 1 6.077457 61.804647v2.987225c-1.751132 1.339101-3.502263 0-5.150387 0-3.914294-1.339101-8.034604-1.854139-11.948899-2.987225-1.854139-1.545116-1.545116-3.914294-1.854139-5.974449a71.178352 71.178352 0 0 0-71.178352-58.096369c-2.163163 0-4.429333 0.618046-5.768434-1.751131a63.452771 63.452771 0 0 1 4.429333-26.885022 72.105422 72.105422 0 0 1 11.639875-20.601549c1.648124-1.854139 2.575194-3.811287 4.944372-4.12031z" fill="#F46883" p-id="4427"></path><path d="M940.563726 497.527412a53.46102 53.46102 0 0 1 17.305301 3.914294v13.906046a1.957147 1.957147 0 0 1-1.236093 0.618046h-1.442108c-2.163163 0-4.223318-3.502263-6.077457-1.751131s-0.92707 5.04738-1.648124 7.519565 0 1.751132 1.545116 1.751132a24.000805 24.000805 0 0 1 6.695504 1.3391 4.738356 4.738356 0 0 1 2.060155 1.85414 482.694296 482.694296 0 0 1-15.863193 104.037823c0 1.133085-0.721054 2.163163-1.133086 3.296248a76.32874 76.32874 0 0 1-37.185796 9.167689 36.155719 36.155719 0 0 1-10.300774-2.060155c-2.678201-1.030077-4.017302-0.721054-3.708279 2.472186s0 3.605271 0 5.871442l-5.150387-2.163163a4.017302 4.017302 0 0 1-2.78121-0.721054l-3.090232-1.648124c-4.223318-2.472186-4.326325-4.017302 0-6.489488s2.781209-3.399256 0.515039-5.665426a53.358012 53.358012 0 0 1-13.081984-27.297053 6.38648 6.38648 0 0 1 0-4.326325 8.24062 8.24062 0 0 1 4.017302-2.781209 131.540891 131.540891 0 0 0 57.890353-52.945982 77.770848 77.770848 0 0 0 11.948899-45.529423c0-1.339101 0-1.339101 0.721054-2.369178z" fill="#FCAC5F" p-id="4428"></path><path d="M100.844583 334.878181a78.388894 78.388894 0 0 1 27.297053 22.043658 5.04738 5.04738 0 0 1 1.030077 4.635348 127.111558 127.111558 0 0 0 10.300775 65.512927 8.446635 8.446635 0 0 1 1.236093 5.253395c-1.133085 1.957147-3.090232 1.545116-4.841364 1.854139a72.929484 72.929484 0 0 0-60.77457 59.435469v7.931597c0 2.575194 0 3.914294-2.369179 4.12031a9.373705 9.373705 0 0 0-7.72558-7.107535 418.417463 418.417463 0 0 1 16.687254-110.012272 386.176039 386.176039 0 0 1 19.159441-53.667036z" fill="#FE9764" p-id="4429"></path><path d="M632.87959 941.490796a60.156523 60.156523 0 0 1-3.708279-17.202294 506.695101 506.695101 0 0 0-13.494015-52.739966c-1.339101-2.060155 0-2.678201 1.648124-3.296247a15.55417 15.55417 0 0 0 8.137612-14.318077c0-5.04738 1.030077-5.665426 6.180465-4.841364a83.127251 83.127251 0 0 0 38.936928-0.721054c2.575194-0.721054 4.738356-3.399256 7.828588-1.751132A145.75596 145.75596 0 0 1 697.465446 896.167388c1.442108 6.592496 1.854139 13.391007 2.678202 20.601549a341.264662 341.264662 0 0 1-46.662509 18.335378 134.528116 134.528116 0 0 1-20.601549 6.386481zM399.979077 868.355296a423.361835 423.361835 0 0 0-16.996278 70.766322 307.375113 307.375113 0 0 1-43.8813-15.348155c-7.828589-3.19324-15.348154-7.004527-23.073735-10.300774a64.89488 64.89488 0 0 1 2.060155-20.601549 140.090534 140.090534 0 0 1 18.850417-48.722664 2.575194 2.575194 0 0 1 3.19324 0 66.749019 66.749019 0 0 0 38.112866 3.502263h2.472186c8.549643-1.339101 8.549643-1.339101 9.476713 7.210543a13.184991 13.184991 0 0 0 6.901519 10.815813c1.236093 0.412031 3.19324 0.618046 2.884217 2.678201z" fill="#E14242" p-id="4430"></path><path d="M64.997888 498.557489c6.798511 0 6.798511 0 7.107534 7.004527a11.021829 11.021829 0 0 1 1.751132 6.592496A117.119807 117.119807 0 0 0 103.110753 573.238105a123.609295 123.609295 0 0 0 26.472991 24.000805 8.755658 8.755658 0 0 1 2.781209 2.781209 19.159441 19.159441 0 0 1-1.236093 12.669952 47.589579 47.589579 0 0 1-9.476712 17.923348c-1.442108 1.648124-2.575194 2.987225 0 4.635349 4.635349 2.884217 4.635349 3.296248 0 6.695503l-1.236093 0.824062a3.090232 3.090232 0 0 1-2.575194 0l-1.236093 0.721054c-1.442108 1.030077-2.884217 3.090232-4.532341 2.472186s-0.824062-3.19324-1.030077-4.944372 0-4.223318-3.19324-2.884216a45.632431 45.632431 0 0 1-23.79479 2.369178 325.710492 325.710492 0 0 1-12.669952-51.503873 474.968715 474.968715 0 0 1-7.004527-82.406197c-0.103008-2.163163 0.309023-5.04738 0.618047-8.034604z" fill="#F46883" p-id="4431"></path><path d="M455.912282 954.160748a73.650538 73.650538 0 0 1 22.455689-27.709083c11.227844-10.300775 22.661704-20.601549 33.889548-30.902324 2.369178-2.163163 3.811287-2.472186 6.386481 0 12.978976 12.566945 26.163967 25.030882 39.245951 37.391812a72.105422 72.105422 0 0 1 15.039131 20.601549l-3.296248 1.133085a5.253395 5.253395 0 0 0-4.841364 0c-1.133085 1.339101-2.678201 0.824062-4.017302 0.92707a7.416558 7.416558 0 0 0-5.97445 0 2.060155 2.060155 0 0 1-2.060155 0.92707c-1.442108-0.92707-3.090232 0-4.635348 0s-3.605271-0.618046-5.253395 0.515038-2.678201 0.824062-4.017302 0.92707a24.103812 24.103812 0 0 0-7.416558 0h-44.499346a28.224122 28.224122 0 0 1-9.270697-1.442108c-3.296248 0-6.592496 2.060155-10.300775 0a10.300775 10.300775 0 0 0-6.901519 0 2.060155 2.060155 0 0 1-2.060155-0.92707c-0.618046-1.648124-1.751132-0.515039-2.472186-1.442109z" fill="#F1F1F2" p-id="4432"></path><path d="M789.863394 162.546223c1.442108 4.017302 2.987225 8.034604 4.326325 12.051906s-1.236093 8.755658-7.004526 7.416558c-10.300775-2.26617-19.571472-4.635349-29.357208-7.107535a4.841364 4.841364 0 0 0-6.180465 2.163163c-5.150387 7.931596-10.300775 15.657177-15.863192 23.485766-1.751132 2.575194-3.399256 5.356403-7.31355 4.944372s-4.12031-3.502263-5.04738-5.97445q-10.300775-27.503068-21.322603-55.006136a52.327935 52.327935 0 0 1 34.610602-17.717332 5.562418 5.562418 0 0 1 3.296248 0.721054 316.748818 316.748818 0 0 1 49.855749 35.022634z" fill="#FEBB00" p-id="4433"></path><path d="M290.378835 154.820642c-5.871442 11.330852-11.639875 22.661704-17.717332 33.889548-2.781209 5.04738-7.31355 4.841364-10.300775 0-4.429333-8.343627-8.961674-16.584247-13.081983-25.13389-1.854139-3.811287-3.811287-6.38648-8.549643-4.635348a10.300775 10.300775 0 0 1-3.502264 0 312.628508 312.628508 0 0 1 36.773766-26.06096l7.107534-4.429333a46.14747 46.14747 0 0 1 9.270697 26.369983z" fill="#3BB2C0" p-id="4434"></path><path d="M740.007645 127.729605a57.066291 57.066291 0 0 0-34.198571 14.6271 23.691782 23.691782 0 0 1-3.708279 2.369178l-3.296248-6.695504a3.19324 3.19324 0 0 1-1.545116-4.017302c-0.618046-1.854139-1.236093-3.708279-1.957148-5.562418-1.957147-5.253395-0.92707-7.416558 4.223318-9.476713l13.597022-5.665426a157.704859 157.704859 0 0 1 26.885022 14.421085z" fill="#F48634" p-id="4435"></path><path d="M290.378835 154.820642a162.958254 162.958254 0 0 0-9.064681-26.782014 201.792174 201.792174 0 0 1 29.66623-15.966201v2.678202c0.92707 1.751132 0 2.884217-1.236093 3.914294l-17.82034 33.37451a32.962479 32.962479 0 0 1-1.545116 2.781209z" fill="#2EA1A8" p-id="4436"></path><path d="M491.65597 957.147973h31.932401v0.515039h-31.932401v-0.618047c0-0.618046-0.103008 0.103008 0 0.103008z" fill="#F9D8CB" p-id="4437"></path><path d="M957.147973 515.656775h1.030077v11.227844l-1.957147-1.030077a13.906046 13.906046 0 0 1 0.92707-10.197767z" fill="#F9E2D5" p-id="4438"></path><path d="M477.749925 956.117896l8.961673 1.030077v0.618047c0 0.618046 0 0 0 0a12.669953 12.669953 0 0 1-8.961673-1.648124z" fill="#FCEEDB" p-id="4439"></path><path d="M460.856654 956.014888c2.369178-1.751132 5.04738-0.618046 7.519566-0.92707l-0.92707 0.721054z" fill="#FADAC5" p-id="4440"></path><path d="M523.588371 957.972035a5.974449 5.974449 0 0 1 0-0.824062h7.931597v0.618047z" fill="#F8C0BA" p-id="4441"></path><path d="M554.490695 956.117896c1.957147-2.163163 3.914294-1.133085 5.974449 0z" fill="#F9D0C6" p-id="4442"></path><path d="M564.482446 955.190826s-1.648124-0.618046-0.618046-0.824062a5.459411 5.459411 0 0 1 5.45941 0.721054z" fill="#F8CCC2" p-id="4443"></path><path d="M542.541797 957.147973s-1.545116-0.618046-0.618047-0.824062a23.073735 23.073735 0 0 1 5.665426 0v0.618047c0 0.618046 0 0 0 0z" fill="#F8CCC3" p-id="4444"></path><path d="M455.912282 954.160748c0.92707 0 2.575194-1.133085 2.884217 1.030078-1.957147 0-4.223318 0.824062-5.974449-0.92707z" fill="#F9CFC4" p-id="4445"></path><path d="M531.519968 958.075043a6.180465 6.180465 0 0 0 0-0.92707c2.369178 0 4.841364-0.92707 7.004527 0.92707z" fill="#FEF1C4" p-id="4446"></path><path d="M547.486168 957.044965v-0.927069c1.648124 0 3.502263-0.618046 4.944372 0.927069z" fill="#FEF1C8" p-id="4447"></path><path d="M486.711598 958.075043v-1.030078h4.944372v1.030078z" fill="#FEF0BD" p-id="4448"></path><path d="M280.490092 348.16618c11.330852-8.343627 22.249673-17.202294 33.992556-25.030882a363.205311 363.205311 0 0 1 145.652952-56.65426 329.624786 329.624786 0 0 1 61.804647-4.017302 366.398551 366.398551 0 0 1 209.414747 72.105422c1.030077 0.824062 2.26617 1.339101 3.399256 2.060155a114.956644 114.956644 0 0 1 22.558696 17.717332 197.980887 197.980887 0 0 1 24.618852 24.412836c1.442108 1.854139 3.399256 3.19324 3.708278 5.768434a13.597022 13.597022 0 0 0 1.030078 3.811286 154.511619 154.511619 0 0 1 7.725581 70.045267 239.286993 239.286993 0 0 1-14.112061 67.470074 206.015491 206.015491 0 0 1-18.232371 38.627904 8.446635 8.446635 0 0 1-3.502264 4.017303c-2.575194 0-2.884217-2.575194-3.502263-4.326326a202.925259 202.925259 0 0 0-60.362539-86.835529A269.262247 269.262247 0 0 0 544.807967 412.030983a274.927673 274.927673 0 0 0-144.210844 21.94065 250.617845 250.617845 0 0 0-84.05432 58.611407 184.795896 184.795896 0 0 0-51.503873 101.462629 137.309325 137.309325 0 0 0 11.433859 76.740771 161.619153 161.619153 0 0 0 17.614325 30.078262c1.133085 1.545116 3.296248 3.090232 1.545116 5.562418a163.988331 163.988331 0 0 1-26.47299-1.854139 401.730208 401.730208 0 0 1-61.083594-10.300775 50.370788 50.370788 0 0 1-15.348154-25.13389 235.78473 235.78473 0 0 0 9.579721-36.670757 151.318378 151.318378 0 0 0-28.121115-118.046877 10.300775 10.300775 0 0 1 0-6.798511 281.314154 281.314154 0 0 1 20.601549-55.31516c5.974449-9.785736 11.124837-19.983503 17.408309-29.563223a355.994769 355.994769 0 0 1 55.624183-65.512926 41.203098 41.203098 0 0 1 12.669953-9.064682z" fill="#FA665A" p-id="4449"></path><path d="M280.490092 348.16618c-9.682728 9.476713-20.08651 18.335379-29.357208 28.327131a334.981189 334.981189 0 0 0-52.327935 73.238507 30.902324 30.902324 0 0 1-1.854139 2.884217 9.57972 9.57972 0 0 1-5.562418-2.987225 68.294135 68.294135 0 0 0-44.602354-15.55417c-2.369178 0-5.04738 0.824062-6.901519-1.648124a144.210844 144.210844 0 0 1-13.700031-56.757267 147.301076 147.301076 0 0 1 1.957148-18.74741 86.629514 86.629514 0 0 1 23.27975-39.657982 80.140026 80.140026 0 0 1 104.037823-4.12031 87.659592 87.659592 0 0 1 25.030883 35.022633z" fill="#5F9FFE" p-id="4450"></path><path d="M784.816014 383.80686a298.722463 298.722463 0 0 0-38.009858-36.876772l-12.051906-10.300775a71.384368 71.384368 0 0 1 41.203098-35.64068 79.109949 79.109949 0 0 1 106.407002 61.804647 178.615431 178.615431 0 0 1 1.236093 17.82034 82.406197 82.406197 0 0 0-20.60155 51.503873c0 1.442108-1.339101 1.854139-2.472185 1.957147a86.938537 86.938537 0 0 0-30.902324 11.124837c-2.369178 0-2.987225-1.854139-3.811287-3.399256a320.972136 320.972136 0 0 0-36.052711-52.224927 17.614325 17.614325 0 0 1-4.944372-5.768434z" fill="#FECD33" p-id="4451"></path><path d="M531.41696 202.41022c-1.339101 14.318077-2.472186 28.533146-4.017302 42.851223-0.515039 5.150387-5.253395 6.283472-9.682728 2.575193-7.931596-6.592496-15.863193-12.978976-23.588774-19.777487a4.532341 4.532341 0 0 0-6.180465 0l-25.957952 14.6271c-5.665426 3.19324-9.682728 1.030077-9.270697-5.356403 1.030077-13.494015 2.472186-26.988029 3.708279-40.482044 0.515039-6.077457 0.824062-12.154914 1.339101-18.335379 0-1.648124 0-3.399256 0.824062-4.738356a6.695503 6.695503 0 0 0 5.665426 0.618046 58.5084 58.5084 0 0 1 58.405392 19.983503 35.743688 35.743688 0 0 1 6.180464 7.725581c1.030077 1.133085 1.751132 0.309023 2.575194 0.309023z" fill="#F88580" p-id="4452"></path><path d="M412.133991 190.56433c-4.017302 12.463937-7.931596 24.824867-12.154914 37.288803-1.854139 5.459411-6.38648 6.077457-10.300775 1.442109-6.283472-8.137612-12.566945-16.172216-18.644402-24.515844a4.635349 4.635349 0 0 0-6.180465-1.854139c-9.476713 2.987225-18.953425 5.665426-28.430138 8.549643a6.489488 6.489488 0 0 1-7.004526-0.92707c-2.163163-2.060155-1.545116-4.429333-0.721054-6.901519q9.373705-28.430138 18.644401-56.963283a12.978976 12.978976 0 0 1 9.16769-1.236093A61.083593 61.083593 0 0 1 412.133991 190.56433z" fill="#FEBB00" p-id="4453"></path><path d="M663.060859 187.474097c2.678201 12.669953 5.562418 25.236898 8.034604 37.906851 1.030077 5.356403-2.781209 8.034604-8.034604 5.871441-8.755658-3.605271-17.511317-7.004527-26.06096-11.124836a7.31355 7.31355 0 0 0-10.300774 2.163162c-5.768434 6.592496-12.051906 12.77296-18.129363 19.159441-2.060155 2.163163-4.326325 4.635349-7.622574 3.502263s-3.296248-4.12031-3.811286-6.901519c-3.811287-19.159441-7.828589-38.215874-11.742883-57.375314a44.499346 44.499346 0 0 1 20.601549-10.300775 62.937733 62.937733 0 0 1 55.109144 14.524093 8.446635 8.446635 0 0 1 1.957147 2.575193z" fill="#3BB2C0" p-id="4454"></path><path d="M663.060859 187.474097a97.136304 97.136304 0 0 0-24.20682-14.112061 52.842974 52.842974 0 0 0-41.821145 1.442108l-11.536867 5.768434-4.12031-18.129363c-0.92707-1.133085-2.163163-2.26617-0.618047-3.811287a8.137612 8.137612 0 0 1 6.489488-4.738356l58.920431-12.154914a7.210542 7.210542 0 0 1 9.167689 3.708279 3.914294 3.914294 0 0 1 0.824062 4.12031c1.442108 11.43386 4.532341 22.558696 6.592496 33.889548 0.103008 1.339101 0.103008 2.678201 0.309023 4.017302z" fill="#2EA0A8" p-id="4455"></path><path d="M412.133991 190.56433c-2.472186-4.635349-4.738356-9.373705-7.416558-13.803038a57.478322 57.478322 0 0 0-55.109144-30.18127h-2.060155l3.502263-11.948898a2.163163 2.163163 0 0 1 1.133086-2.884217c0-0.92707 0.721054-1.751132 1.030077-2.678202 1.648124-5.04738 3.811287-6.283472 8.961674-4.635348l47.898602 15.760185 10.300774 3.502263a6.180465 6.180465 0 0 1 4.944372 7.004527 2.163163 2.163163 0 0 1-1.133085 2.884217l-10.918821 32.550447c0.103008 1.545116-0.515039 3.399256-1.133085 4.429334z" fill="#F48634" p-id="4456"></path><path d="M531.41696 202.41022c-1.339101 3.502263-2.369178 1.133085-3.399256 0a70.148275 70.148275 0 0 0-29.048184-24.412835 58.920431 58.920431 0 0 0-36.155719-2.060155c-2.575194 0.618046-3.811287 0.618046-3.811286-2.369178l0.92707-12.978976a3.605271 3.605271 0 0 1 0-4.841365 8.652651 8.652651 0 0 1 10.300774-3.502263c12.154914 1.545116 24.309828 2.369178 36.464742 3.502263l23.691782 2.060155a6.38648 6.38648 0 0 1 4.944371 2.884217c1.030077 0.824062 1.957147 1.545116 0.618047 2.884217q-1.442108 13.494015-2.781209 27.091037c-1.030077 3.914294-1.339101 7.828589-1.751132 11.742883z" fill="#FA665A" p-id="4457"></path><path d="M535.331254 163.5763l-0.618046-2.884217q22.352681 0 44.602354-2.678201s0.824062 0 1.236093 0.721054l0.618046 3.811287c-13.597022 0-27.091037 2.575194-41.203098 2.060155-1.236093-0.103008-3.19324 0.618046-4.635349-1.030078z" fill="#FEFEFC" p-id="4458"></path><path d="M352.183483 131.746907l-1.133086 2.884217c-13.906046-4.532341-27.40006-10.300775-41.203098-15.966201l1.236093-3.914294 38.627905 15.039131a3.811287 3.811287 0 0 1 2.472186 1.957147zM656.056332 149.670255a5.356403 5.356403 0 0 1-0.824062-4.12031l42.130168-11.948899 1.545117 4.017302zM459.826577 155.644704v4.841364l-32.138417-4.944372a3.399256 3.399256 0 0 1-2.678201-1.957147 3.811287 3.811287 0 0 1 1.133085-2.884217 278.635952 278.635952 0 0 0 33.683533 4.944372z" fill="#FEFEFD" p-id="4459"></path><path d="M784.816014 383.80686a249.896791 249.896791 0 0 1 25.545921 32.344433c6.695503 9.476713 12.360929 19.571472 18.129364 29.460215 3.914294 2.472186 4.635349 6.901519 6.489488 10.300774s2.781209 6.283472 4.326325 9.270698 2.26617 5.562418 3.502263 8.343627a264.317875 264.317875 0 0 1 10.918821 34.095564 11.43386 11.43386 0 0 1 0 6.798511c-3.914294 6.283472-8.652651 12.154914-12.257921 18.644402a151.421386 151.421386 0 0 0-19.056433 65.718942 185.413942 185.413942 0 0 0 10.300774 70.148275c0 2.781209-1.545116 4.738356-2.575193 7.004526s-2.369178 4.017302-3.605272 6.077457c-4.326325 6.489488-8.858666 12.875968-13.70003 18.953425a52.121919 52.121919 0 0 1-3.399255 4.326326c-3.605271 4.841364-8.24062 8.652651-11.742883 13.597022l-3.296248 3.502264c-5.253395 5.150387-10.300775 10.300775-16.481239 14.627099a3.708279 3.708279 0 0 1-1.957148 0.618047 339.925561 339.925561 0 0 1-89.925762 53.151997 3.296248 3.296248 0 0 0-0.721054 0.618046c-1.957147 0-2.472186-1.442108-3.090232-2.678201a34.71361 34.71361 0 0 0-24.721859-19.67448c-1.545116 0-3.399256-0.515039-3.502264-2.781209a30.181269 30.181269 0 0 1 11.43386-7.519565 216.316266 216.316266 0 0 0 68.397143-60.053516 149.155216 149.155216 0 0 0 28.121115-73.032492 146.270999 146.270999 0 0 0-4.635349-51.503872c0-1.957147-1.751132-4.12031 0-6.180465a229.295242 229.295242 0 0 0 31.932402-83.848305 233.51856 233.51856 0 0 0 3.811286-49.34071 112.072427 112.072427 0 0 0-7.725581-44.602354c-0.309023-1.545116-2.060155-3.811287-0.515039-6.386481z" fill="#F55954" p-id="4460"></path><path d="M655.129263 766.377628c3.399256 2.781209 7.828589 2.575194 11.639875 4.429333a35.331657 35.331657 0 0 1 17.614324 17.923348 23.279751 23.279751 0 0 0 1.85414 2.884217 83.848305 83.848305 0 0 1 4.223317 30.902323 36.979781 36.979781 0 0 1-12.154914 23.588774 74.062569 74.062569 0 0 1-46.868524 3.502264c-3.811287-0.824062-5.253395 0-5.047379 4.223317a14.6271 14.6271 0 0 1-9.785736 15.55417 2.163163 2.163163 0 0 0-1.339101 1.957147 10.300775 10.300775 0 0 0-4.326325-1.030078 14.524092 14.524092 0 0 1-15.657178-15.9662c-0.515039-18.850417 0-37.597827 1.030078-56.448245a49.546726 49.546726 0 0 1 2.781209-10.300774 22.455689 22.455689 0 0 1 12.360929-12.772961 65.924957 65.924957 0 0 1 29.872247-8.446635 107.231063 107.231063 0 0 0 12.154914 0 2.884217 2.884217 0 0 1 1.648124 0z" fill="#E94949" p-id="4461"></path><path d="M777.090434 737.844482l1.236093-1.030077c1.854139-1.133085 2.884217 0 3.605271 1.545116 7.931596 12.051906 15.966201 24.000805 23.382758 36.361734 0 0 0.515039 1.030077 0 1.236093-3.708279-14.936123-6.695503-30.284277-10.300775-45.529423a14.6271 14.6271 0 0 1-0.721054-8.755659 6.077457 6.077457 0 0 1 3.090232-3.090232 5.253395 5.253395 0 0 1 1.85414 3.399256c3.19324 15.55417 7.622573 30.902324 9.476712 46.868524a2.26617 2.26617 0 0 1 0 0.92707c-1.545116-18.644402 0-37.700835-0.721054-56.757268a14.112061 14.112061 0 0 1 1.442109-8.24062l3.090232-3.914294c2.060155 0 2.26617 1.854139 2.26617 3.296248a545.941052 545.941052 0 0 1-0.927069 57.375314c1.648124-23.485766 6.180465-46.250478 9.373705-69.324213a30.181269 30.181269 0 0 1 3.090232-10.300774l3.296248-5.768434c2.781209 1.030077 1.545116 3.296248 1.339101 5.047379-2.472186 17.408309-5.04738 34.816618-7.622574 52.224927-2.163163 14.6271-4.12031 29.2542-6.798511 43.778292v1.751132a43.057238 43.057238 0 0 1 4.738356-12.566945c19.056433-38.730912 37.494819-77.770848 56.757268-116.398753 0.92707-1.751132 0.824062-5.04738 4.429333-4.017302l1.85414 1.236093-44.499346 91.264863c-7.931596 16.275224-15.657177 32.550448-23.485766 48.825671a8.652651 8.652651 0 0 0-0.618047 6.489488c0 1.648124-1.957147 4.326325-2.26617 6.901519s-4.635349 0-5.871442 3.090233c0 0.618046-1.545116 0-1.545116-1.236093a3.605271 3.605271 0 0 1 0.618047-2.369178c5.356403-6.798511 2.163163-12.463937-1.85414-18.335379-8.858666-13.184991-17.408309-26.575998-26.06096-39.967005a28.533146 28.533146 0 0 1-1.648123-4.017303z" fill="#FEFEFD" p-id="4462"></path><path d="M399.979077 868.355296a15.966201 15.966201 0 0 1-11.021829-17.408309c0-2.884217-0.721054-3.708279-3.708279-3.19324a129.480736 129.480736 0 0 1-24.412836 2.163163 59.538477 59.538477 0 0 1-23.794789-5.562419 36.876773 36.876773 0 0 1-11.639875-19.15944 68.706166 68.706166 0 0 1 4.635348-37.391812 14.524092 14.524092 0 0 1 4.738357-10.300774 37.700835 37.700835 0 0 1 30.902323-13.803038 16.172216 16.172216 0 0 0 3.502264 0 70.045267 70.045267 0 0 1 39.554974 12.978976c2.26617 1.751132 4.944372 3.399256 5.356403 6.798511a40.070013 40.070013 0 0 1 4.738356 26.163967c0 4.12031 1.442108 5.665426 5.150387 6.077457 1.236093 0 2.987225-0.618046 3.399256 1.030078s-0.824062 2.781209-1.85414 3.811286a16.584247 16.584247 0 0 0-5.562418 15.039131 171.919928 171.919928 0 0 1 0 18.74741 14.215069 14.215069 0 0 1-15.9662 14.215069z" fill="#E94949" p-id="4463"></path><path d="M368.149683 764.317473c-2.678201 2.575194-5.871442 0-8.858666 1.030078a38.421889 38.421889 0 0 0-29.357208 22.558696 368.458706 368.458706 0 0 1-57.581329-31.829394c-10.300775-6.798511-19.262448-14.421084-28.533146-22.146665a2.781209 2.781209 0 0 1-2.575194-0.721054c-5.04738-4.738356-10.300775-9.785736-14.730107-14.6271a40.379036 40.379036 0 0 1-3.19324-3.605271c-2.163163-3.502263-5.768434-5.871442-7.931597-9.373705-1.133085-1.442108-2.369178-2.678201-3.399255-4.223318s-4.326325-4.12031-3.914295-7.519565c0.824062-1.236093 1.854139-0.824062 3.090233 0a361.45418 361.45418 0 0 0 56.65426 9.682728c9.57972 0.92707 19.365456 1.133085 28.842169 2.781209 2.987225 0 4.017302 2.678201 5.45941 4.429333a222.599738 222.599738 0 0 0 60.980586 49.443718c1.957147 0.721054 4.223318 1.339101 5.047379 4.12031z" fill="#F55954" p-id="4464"></path><path d="M212.401972 700.967709l3.090232 4.017303a10.300775 10.300775 0 0 1 1.442108 4.738356 480.119103 480.119103 0 0 1-0.824062 49.855749c0-11.948899 2.987225-25.339905 4.841365-38.83392 0-2.26617 0-4.738356 2.678201-6.180465a6.283472 6.283472 0 0 1 2.884217 3.19324 56.448245 56.448245 0 0 1-1.648124 17.717332c-1.957147 13.803038-3.811287 27.606076-6.38648 41.203099v1.545116a102.286691 102.286691 0 0 1 9.476712-20.601549c3.399256-7.004527 6.592496-14.112061 10.300775-20.60155 0.92707-1.751132 1.339101-4.326325 4.223317-4.326325l1.751132 1.442109c-1.648124 3.914294-3.19324 8.034604-5.047379 11.84589-6.798511 14.009053-13.70003 28.018107-20.60155 42.027161a5.459411 5.459411 0 0 0-0.721054 5.047379c1.236093 2.987225-5.253395 11.43386-8.137612 11.021829s-1.854139-2.060155-0.927069-3.090232c6.592496-8.137612 1.339101-14.421084-2.884217-20.60155l-85.496429-131.643899a8.549643 8.549643 0 0 1-2.575194-5.974449l1.957147-1.236093c2.163163 0.618046 2.987225 2.575194 4.017302 4.223318q41.203098 62.731717 81.479127 125.66945a20.601549 20.601549 0 0 1 1.85414 3.811286c-12.875968-53.358012-21.425611-107.231063-36.56775-159.558998a60.877578 60.877578 0 0 0-1.85414-8.343627 244.128357 244.128357 0 0 1 2.78121-88.071623c0-2.060155 0-4.841364 3.090232-5.665426a111.248365 111.248365 0 0 1 20.601549 35.743688 153.172518 153.172518 0 0 1 10.300775 70.560306 160.589076 160.589076 0 0 1-11.948899 49.34071c-3.708279 0-3.811287-3.605271-4.532341-5.253395s-1.236093-0.618046-0.618046-0.92707c8.446635 34.610603 15.245146 69.530228 21.734634 99.299467v-58.096369c0.412031-0.618046-0.309023-2.781209 2.266171-3.296248z" fill="#F6F6F6" p-id="4465"></path><path d="M368.149683 764.317473a263.493813 263.493813 0 0 1-51.503873-36.670757c-7.210542-6.798511-13.70003-14.318077-20.601549-21.734635a180.572578 180.572578 0 0 1-25.030882-45.117392 143.386782 143.386782 0 0 1 3.090232-105.376924 221.878684 221.878684 0 0 1 92.088925-104.758878 269.674278 269.674278 0 0 1 112.175435-39.451966 277.296851 277.296851 0 0 1 167.181571 30.902324 243.201288 243.201288 0 0 1 89.925762 79.727995 197.259833 197.259833 0 0 1 22.661704 46.868524 166.254502 166.254502 0 0 1 6.489488 43.160245 147.198069 147.198069 0 0 1-29.460215 88.586662A216.934312 216.934312 0 0 1 659.35258 764.317473l-4.326325 2.472186h-0.92707c-4.326325 1.133085-8.858666 0-13.184991 0.824062a55.830198 55.830198 0 0 0-41.203099 19.983503 398.845991 398.845991 0 0 1-54.285082 9.476712 336.938336 336.938336 0 0 1-60.053515 0 330.448848 330.448848 0 0 1-70.972337-14.009053 58.405392 58.405392 0 0 0-37.082789-17.614325z" fill="#F9E7DA" p-id="4466"></path><path d="M853.728196 514.214667a219.406498 219.406498 0 0 0-11.330852-38.215874c0-0.721054 0-1.545116-0.721054-2.266171a9.476713 9.476713 0 0 1 3.914294-4.944371 82.406197 82.406197 0 0 1 22.661705-12.154914 27.709084 27.709084 0 0 0-24.824867 6.592495c-1.442108 1.133085-2.472186 3.296248-4.944372 2.472186l-10.300775-20.601549a69.427221 69.427221 0 0 1 30.902324-11.845891c1.133085 0 2.369178 0 3.296248-0.824062a84.05432 84.05432 0 0 1 32.241424 4.944372 71.384368 71.384368 0 0 1 45.632432 59.744493 64.688864 64.688864 0 0 1-6.180465 38.112866 133.910069 133.910069 0 0 1-59.435469 61.804647c-2.781209 1.442108-5.665426 2.575194-8.549643 3.914294s-5.665426 4.223318-9.270697 1.648124a60.362539 60.362539 0 0 1 1.236093-17.202293 277.502867 277.502867 0 0 0-2.781209-56.860276 65.100895 65.100895 0 0 1-1.545117-14.318076z" fill="#F381E6" p-id="4467"></path><path d="M857.642491 603.213359c3.19324 0 5.768434-1.545116 8.755658-1.85414a52.636958 52.636958 0 0 0 14.524092 31.726386c3.19324 2.987225 2.369178 4.326325-1.030077 5.871442-1.442108 0.618046-3.19324 1.030077-4.017302 2.884216l6.592495 4.12031c-1.339101 0-1.751132 1.133085-2.26617 2.266171l-45.323408 92.706971c-6.180465 12.669953-12.154914 25.442913-18.129363 38.112866a5.253395 5.253395 0 0 1-1.957148 2.369178l7.210543-48.722664c2.781209-18.541394 5.665426-37.185796 8.343627-55.72719 0 0 0-0.824062-0.618046-1.236093l2.987224-6.077457a71.178352 71.178352 0 0 1 7.931597-17.614325 225.895986 225.895986 0 0 0 14.524092-43.881299c0.515039-1.648124 0.618046-3.708279 2.472186-4.944372z" fill="#FEEEAD" p-id="4468"></path><path d="M957.147973 515.656775c0 3.296248 1.133085 6.798511-1.030077 10.300775a21.837642 21.837642 0 0 0-10.300775 0 73.753546 73.753546 0 0 0 2.472186-12.772961c0-2.060155 1.442108-1.339101 2.369178-0.824062s4.223318 2.060155 6.489488 3.296248z" fill="#FEFEFD" p-id="4469"></path><path d="M174.701137 514.214667a141.944674 141.944674 0 0 0-5.356403 32.035408 204.058344 204.058344 0 0 0-1.236093 40.482045c0.721054 7.210542 1.545116 14.421084 2.26617 21.734634a1.442108 1.442108 0 0 1-0.721054 1.339101 48.516648 48.516648 0 0 1-35.228649-7.210543 4.635349 4.635349 0 0 1-1.854139-2.26617 139.575495 139.575495 0 0 1-55.933206-69.942259A80.758073 80.758073 0 0 1 72.20843 505.562016a152.554471 152.554471 0 0 0 1.957147-16.069208 73.753546 73.753546 0 0 1 122.888241-36.979781 389.575294 389.575294 0 0 0-16.687255 41.203098 157.498843 157.498843 0 0 0-5.665426 20.498542z" fill="#CBEC40" p-id="4470"></path><path d="M132.05593 600.329142a56.242229 56.242229 0 0 0 37.597827 8.549643c1.545116 2.26617-1.957147 5.768434 1.957147 7.31355a555.520773 555.520773 0 0 1 14.833116 57.993361c5.459411 25.854944 11.021829 51.503873 16.584247 77.564832l5.768434 26.782014a64.997888 64.997888 0 0 1-8.549643-12.154914q-27.503068-42.233176-54.800121-84.672367l-25.545921-39.76099 4.532341-3.605271v-0.92707c-6.695503-3.296248-6.592496-3.19324-2.060155-9.064681a51.503873 51.503873 0 0 0 9.682728-28.018107zM212.401972 700.967709c-1.442108 1.751132-0.721054 3.811287-0.824062 5.768434 0 21.94065 0 43.8813-0.721055 65.82195l-24.412835-113.308521c3.399256 3.708279 3.811287 8.137612 6.901519 10.300775a42.645207 42.645207 0 0 0 6.901519 14.421084c2.163163 3.502263 4.532341 6.798511 6.798511 10.300775z" fill="#FEEEAD" p-id="4471"></path><path d="M156.571773 341.676692c6.38648-23.073735 43.778292-39.967005 59.847501-27.709083a110.939342 110.939342 0 0 0-59.847501 27.709083z" fill="#FDFDFE" p-id="4472"></path><path d="M754.634745 341.676692c6.695503-23.073735 44.087315-40.070013 59.744493-27.709083a111.351373 111.351373 0 0 0-59.744493 27.709083z" fill="#FEFEFD" p-id="4473"></path><path d="M857.642491 603.213359a197.259833 197.259833 0 0 1-24.824867 66.749019 137.515341 137.515341 0 0 1-10.300775-36.56775 154.511619 154.511619 0 0 1 16.378232-97.033296 99.196459 99.196459 0 0 1 14.936123-22.146665 75.710693 75.710693 0 0 1 4.635349 24.618851 226.617041 226.617041 0 0 1 1.957147 41.203098c-0.92707 7.519565-1.854139 15.348154-2.781209 23.176743z" fill="#F5F5F5" p-id="4474"></path><path d="M794.60175 721.672266l12.36093 55.933206h-0.92707l-8.343627-12.463937-16.687255-25.854944c-0.721054-1.030077-1.236093-2.472186-2.781209-2.575194zM809.640881 704.572981v67.573081h-0.515039c-2.060155-9.373705-4.326325-18.850417-6.283472-28.224123s-3.399256-17.099286-5.150387-25.648928a147.507092 147.507092 0 0 1 11.948898-13.70003z" fill="#FEEEAD" p-id="4475"></path><path d="M826.431144 681.808269l-12.154914 82.406196h-0.618047v-34.198571-24.412836c0-1.648124 0-3.399256-0.927069-4.738356z" fill="#FEEEAE" p-id="4476"></path><path d="M838.895081 465.698018a47.898602 47.898602 0 0 1 13.287999-9.167689 28.430138 28.430138 0 0 1 20.601549 0 86.938537 86.938537 0 0 0-30.902323 17.408309 30.902324 30.902324 0 0 1-2.987225-8.24062z" fill="#FEFEFE" p-id="4477"></path><path d="M641.017201 767.613721a44.396338 44.396338 0 0 1 13.184992-1.236093 35.228649 35.228649 0 0 1-13.184992 1.236093z" fill="#F55954" p-id="4478"></path><path d="M241.450156 732.48808a55.315159 55.315159 0 0 0-6.283473 11.742883c-5.974449 12.463937-12.051906 24.927874-18.747409 37.288804 2.163163-14.009053 4.12031-27.915099 6.38648-41.924153a212.401972 212.401972 0 0 1 3.502263-21.837642zM223.629816 714.873755l-7.519566 48.825672h-0.618046v-58.405392a55.521175 55.521175 0 0 1 8.137612 9.57972z" fill="#FEEEAD" p-id="4479"></path><path d="M171.713912 616.295343c-2.678201 1.030077-5.04738 1.751132-3.19324-2.678202a30.902324 30.902324 0 0 0 1.133085-4.635348 18.335379 18.335379 0 0 1 2.060155 7.31355z" fill="#21B5C1" p-id="4480"></path><path d="M493.819133 727.749723a87.247561 87.247561 0 0 1 4.532341-38.730912 38.730912 38.730912 0 0 1 4.738356-8.755658 13.081984 13.081984 0 0 1 23.279751 0 49.855749 49.855749 0 0 1 8.137611 20.601549 97.34232 97.34232 0 0 1 0.92707 26.782014c-2.369178 0-3.090232-1.648124-4.223317-2.884217a20.601549 20.601549 0 0 0-33.271502 0c-1.030077 1.339101-1.751132 3.399256-4.12031 2.987224z" fill="#D72E2E" p-id="4481"></path><path d="M493.819133 727.749723a39.76099 39.76099 0 0 1 11.536867-10.300774 21.837642 21.837642 0 0 1 27.297053 7.31355c0.92707 1.133085 1.339101 2.678201 2.884217 3.296248a47.795594 47.795594 0 0 1-10.300775 30.078261 11.948899 11.948899 0 0 1-18.953425 0 47.383563 47.383563 0 0 1-12.463937-30.387285z" fill="#FC7485" p-id="4482"></path><path d="M395.137713 541.717735c1.648124 5.871442 3.19324 11.639875 4.841364 17.408309 4.326325 15.966201 8.652651 31.932401 12.875968 47.898601a4.944372 4.944372 0 0 0 3.399255 3.708279l30.18127 11.43386c1.236093 0 3.399256 0 3.19324 2.369178s-1.957147 1.545116-3.19324 1.957147l-29.460215 10.300775a5.768434 5.768434 0 0 0-4.326326 4.738356c-5.356403 23.176743-10.918821 46.353486-16.481239 69.530229 0 1.442108 0 4.017302-2.060155 3.914294s-1.133085-2.369178-1.442108-3.708279c-5.253395-22.86772-10.300775-45.735439-15.657178-68.706166a7.004527 7.004527 0 0 0-5.562418-5.97445c-9.682728-2.781209-19.262448-5.974449-28.945177-9.064681-1.236093 0-2.987225 0-3.19324-1.957147s1.854139-2.060155 3.090233-2.678202c9.270697-4.12031 18.541394-8.137612 27.812091-12.051906a7.622573 7.622573 0 0 0 4.738356-5.665426c5.562418-20.08651 11.43386-40.070013 17.202294-60.053516 0.618046-0.721054 0.515039-2.472186 2.987225-3.399255zM694.684237 625.360024c-8.858666 3.19324-17.717332 7.004527-26.885022 9.57972a14.730108 14.730108 0 0 0-12.051906 13.081984c-4.635349 22.661704-10.300775 45.014385-15.863193 67.676089-2.369178 0-2.369178-2.26617-2.678201-3.811286-5.356403-23.485766-10.300775-47.07454-15.966201-70.560306-0.515039-2.575194-2.163163-2.987225-4.12031-3.605271l-30.284277-9.785736c-1.133085 0-3.090232 0-3.19324-1.85414s1.751132-1.648124 2.884217-2.163162c9.270697-4.017302 18.438386-8.343627 27.812091-12.051907a8.549643 8.549643 0 0 0 5.562419-6.283472q8.24062-29.357208 16.687254-58.714415c0-1.648124 0-3.708279 2.575194-5.04738a173.671059 173.671059 0 0 1 6.695504 22.661704c3.914294 14.009053 7.622573 28.121115 11.227844 42.233176a6.38648 6.38648 0 0 0 4.738356 4.532341l30.902324 11.948898c0.618046 0.206015 1.957147 0.309023 1.957147 2.163163z" fill="#FECE4F" p-id="4483"></path><path d="M326.328538 672.949603a18.74741 18.74741 0 0 1 10.300775 2.369178 7.622573 7.622573 0 0 1 0.824062 14.318076 24.20682 24.20682 0 0 1-24.927875-0.927069 7.004527 7.004527 0 0 1-3.296247-6.798511 10.300775 10.300775 0 0 1 7.210542-7.622574 20.601549 20.601549 0 0 1 9.888743-1.3391zM702.100795 672.949603a19.056433 19.056433 0 0 1 12.360929 3.19324 7.004527 7.004527 0 0 1 0.824062 11.742883 22.352681 22.352681 0 0 1-27.297052 0 7.004527 7.004527 0 0 1 1.442108-11.948899 19.262448 19.262448 0 0 1 12.669953-2.987224z" fill="#F28EB1" p-id="4484"></path><path d="M142.047681 453.440097a69.221205 69.221205 0 0 0-41.203098 30.902323 32.859471 32.859471 0 0 1 12.257922-26.163967 27.091037 27.091037 0 0 1 28.945176-4.738356z" fill="#FEFEFD" p-id="4485"></path><path d="M343.530832 625.360024c9.373705-4.12031 18.541394-8.24062 27.812091-12.051906a8.034604 8.034604 0 0 0 5.356403-5.768434c5.356403-18.74741 10.300775-37.494819 16.172216-56.242229a5.459411 5.459411 0 0 1 1.85414-3.399256l8.137611 30.18127c2.575194 9.682728 5.253395 19.468464 7.828589 29.151192a7.210542 7.210542 0 0 0 4.944372 5.562418c8.137612 2.884217 16.069208 6.180465 24.103812 9.270697a14.318077 14.318077 0 0 1 5.562419 2.884217c-10.300775 3.502263-19.468464 7.107534-29.151192 10.300775a7.416558 7.416558 0 0 0-5.459411 6.180464c-4.429333 21.94065-9.888744 42.542199-14.730108 64.276834 0 1.133085-0.721054 2.163163-1.545116 4.326325l-7.31355-31.623378c-2.884217-12.669953-5.871442-25.442913-8.65265-38.112866a5.150387 5.150387 0 0 0-4.017302-4.326325l-26.98803-8.652651a6.901519 6.901519 0 0 1-3.914294-1.957147zM639.060054 546.868122c1.854139 6.592496 3.502263 12.051906 4.944372 17.614324 3.811287 14.215069 7.622573 28.430138 11.227844 42.748215a8.137612 8.137612 0 0 0 5.97445 5.871441l29.254199 11.330852c-3.502263 1.442108-5.974449 2.575194-8.446635 3.502264-7.004527 2.472186-14.009053 5.150387-21.116588 7.210542a7.519565 7.519565 0 0 0-5.665426 6.592496q-7.519565 31.932401-15.142138 64.791872a3.19324 3.19324 0 0 1-1.545116 2.472186l-15.348155-68.603159a5.871442 5.871442 0 0 0-4.738356-4.429333l-30.902324-10.300775c9.373705-4.12031 17.717332-8.24062 26.472991-11.433859a12.77296 12.77296 0 0 0 8.652651-9.785736c5.04738-18.129363 10.300775-36.258726 15.554169-54.38809-0.206015-0.618046 0.206015-1.236093 0.824062-3.19324z" fill="#FEFE8E" p-id="4486"></path></svg>