<?xml version="1.0" standalone="no"?><!DOCTYPE svg PUBLIC "-//W3C//DTD SVG 1.1//EN" "http://www.w3.org/Graphics/SVG/1.1/DTD/svg11.dtd"><svg t="1550212900832" class="icon" style="" viewBox="0 0 1024 1024" version="1.1" xmlns="http://www.w3.org/2000/svg" p-id="6286" xmlns:xlink="http://www.w3.org/1999/xlink" width="200" height="200"><defs><style type="text/css">@font-face { font-family: "Roboto Condensed"; src: url("chrome-extension://lienonopcegannlgdkgonpofbhgmclcc/RobotoCondensed-Regular.ttf"); }
</style></defs><path d="M511.947824 1023.895649H4.59146c-3.756649 0-4.59146-0.834811-4.59146-4.591461V4.59146c0-3.756649 0.834811-4.59146 4.59146-4.59146h1014.712728c3.756649 0 4.59146 0.834811 4.591461 4.59146v1014.712728c0 3.756649-0.834811 4.59146-4.591461 4.591461z" fill="#FEFEFE" p-id="6287"></path><path d="M110.508101 313.471517a344.985631 344.985631 0 0 1 31.305412-53.532253A444.015082 444.015082 0 0 1 396.117803 80.559258a420.014267 420.014267 0 0 1 83.481096-13.670029 452.676246 452.676246 0 0 1 68.245797 0 442.554163 442.554163 0 0 1 166.231733 47.688576 447.249975 447.249975 0 0 1 162.057679 140.87435 18.365841 18.365841 0 0 1 1.147865 2.191379c-1.460919 2.817487-4.174055 2.400082-6.574136 2.504433H750.390706a22.122491 22.122491 0 0 0-15.444003 5.634974c-6.782839 5.843677-13.67003 11.583002-20.870274 16.904922a15.339651 15.339651 0 0 1-6.991542 3.652298c-3.547947-1.147865-1.147865-2.817487 0-3.756649 3.234892-3.02619 6.88719-5.739325 10.435137-8.556813 7.826353-6.365434 15.548354-13.043921 23.58341-19.200652a18.887598 18.887598 0 0 0 7.722002-20.035463 112.177723 112.177723 0 0 0-20.870274-45.184144 166.023031 166.023031 0 0 0-37.149088-38.610007 72.106797 72.106797 0 0 0-19.722409-10.435137 17.948436 17.948436 0 0 0-18.574544 3.443595q-71.898094 58.541119-143.587486 116.664833a17.426679 17.426679 0 0 1-8.452461 5.008866 459.146031 459.146031 0 0 0-61.984715 9.078569 375.664934 375.664934 0 0 0-66.784877 22.748599 406.970345 406.970345 0 0 0-36.627331 19.200652 10.435137 10.435137 0 0 1-5.113217 1.773973c-8.661164-1.669622-16.800571-5.113217-25.253032-7.513299a358.342607 358.342607 0 0 0-73.045959-13.356975 274.652808 274.652808 0 0 0-100.072965 10.435137c-4.904514 1.460919-9.809029 3.234892-14.609192 5.008866-1.878325 0.73046-4.174055 2.087027-6.469785 0.417405z" fill="#5C5C5C" p-id="6288"></path><path d="M343.316009 927.266279a364.081932 364.081932 0 0 1-58.228064-28.383572 448.710894 448.710894 0 0 1-161.327219-161.431571 439.632324 439.632324 0 0 1-40.697035-92.455314 87.446449 87.446449 0 0 1-5.32192-20.035463c0-2.817487 1.669622-3.756649 3.965352-4.278406a24.835626 24.835626 0 0 1 5.948028 0h80.350556a12.730867 12.730867 0 0 1 10.435137 2.817487 13.774381 13.774381 0 0 1 3.652298 6.88719 209.433201 209.433201 0 0 0 16.696219 40.697035c4.174055 7.722001 8.869867 15.026597 13.67003 22.331193a37.044737 37.044737 0 0 0 2.504432 3.443595 277.992051 277.992051 0 0 0 98.9251 81.185366 404.25721 404.25721 0 0 0 93.916233 33.288088 8.243758 8.243758 0 0 1 4.904515 2.087027c0.626108 1.982676-0.834811 3.02619-1.878325 4.278406a401.126669 401.126669 0 0 0-64.071741 105.499236c-1.147865 1.356568-1.460919 3.339244-3.443596 4.069703z" fill="#6A6A6A" p-id="6289"></path><path d="M926.014063 678.075206c-2.921838 6.88719-5.948028 13.67003-8.869867 20.870274a370.864771 370.864771 0 0 1-25.357383 48.001631 445.789055 445.789055 0 0 1-197.22409 173.327627c-2.921838 0-3.547947-2.191379-4.278406-3.965352a373.05615 373.05615 0 0 0-31.305411-59.062876 416.570672 416.570672 0 0 0-26.713951-36.52298c-2.087027-2.608784-5.32192-4.59146-5.32192-8.556812a93.916234 93.916234 0 0 1 18.574544-5.426272 358.864364 358.864364 0 0 0 123.865077-59.167227 246.582289 246.582289 0 0 0 49.149495-48.627739 17.113625 17.113625 0 0 1 5.008866-4.800163 43.514522 43.514522 0 0 0 10.435137-13.983083 13.774381 13.774381 0 0 1 13.148273-7.826353h68.663202a20.870274 20.870274 0 0 1 6.88719 0.73046c1.982676 0.73046 3.652298 1.878325 3.339244 5.008865z" fill="#686868" p-id="6290"></path><path d="M705.519617 285.609701a56.245389 56.245389 0 0 0 16.383165-10.435137c5.32192-3.965352 10.435137-8.139407 15.339652-12.522164a14.817895 14.817895 0 0 1 10.435137-3.443595h122.717211a12.000408 12.000408 0 0 0 6.78284-1.043514 396.535208 396.535208 0 0 1 38.714358 66.784877 436.397432 436.397432 0 0 1 27.548762 77.324366c0 1.147865 0 2.29573 0.626108 3.443595 0 3.339244-3.130541 3.130541-5.008866 3.756649-19.096301 6.052379-38.296953 12.104759-57.706308 17.009274-17.322328 4.382758-34.644655 8.974218-52.175685 12.104759-2.817487 0-3.861001-2.29573-5.008866-4.278406a339.976766 339.976766 0 0 0-32.76633-45.079793c-1.356568-1.669622-3.02619-3.130541-4.487109-4.59146a360.951391 360.951391 0 0 0-92.14226-73.045959c-3.965352-2.29573-8.869867-3.02619-11.583002-7.304596v-0.939163a99.655559 99.655559 0 0 1 20.870274-17.322327s1.147865-0.626108 1.460919-0.417406z" fill="#565656" p-id="6291"></path><path d="M828.028126 437.336594l37.670845-9.078569c24.939978-5.843677 49.358198-13.461327 73.776419-20.870274 1.565271 0 3.339244-0.521757 4.382757-2.087027a178.336492 178.336492 0 0 1 7.61765 34.227249 443.388974 443.388974 0 0 1 5.843677 87.237746 448.710894 448.710894 0 0 1-30.366249 149.22246 10.435137 10.435137 0 0 1-1.043513 1.669622c-1.565271-3.861001-4.904514-3.965352-8.243759-3.965352h-72.211148a10.435137 10.435137 0 0 0-10.435137 6.365433c-2.713136 4.382758-5.426271 8.661164-8.139407 12.93957a6.574136 6.574136 0 0 1-4.069704 2.608785c-0.939162-2.29573 0.73046-3.756649 1.773974-5.32192 4.278406-6.469785 8.556812-12.835219 12.20911-19.618058a200.041577 200.041577 0 0 0 26.818302-106.751452 242.09518 242.09518 0 0 0-5.843676-46.749414 278.305105 278.305105 0 0 0-28.90533-75.132987c-0.73046-1.460919-1.773973-2.921838-0.834811-4.695812z" fill="#717171" p-id="6292"></path><path d="M110.508101 313.471517a410.309589 410.309589 0 0 1 41.740549-12.104759 337.26363 337.26363 0 0 1 35.166412-5.008865 272.357077 272.357077 0 0 1 31.305411-0.73046 328.185061 328.185061 0 0 1 83.481096 13.356975c9.495975 2.713136 18.991949 5.843677 28.383573 8.765516 0 2.087027-1.773973 2.713136-3.130541 3.547946a365.229797 365.229797 0 0 0-68.141445 55.619281 333.298278 333.298278 0 0 0-40.592683 51.653928c-1.252216 1.878325-2.191379 5.530623-5.948028 2.817487a11.061245 11.061245 0 0 0-7.200245-1.56527H74.819933a4.904514 4.904514 0 0 1-3.75665-0.834811 432.849485 432.849485 0 0 1 36.731683-110.925507 11.791705 11.791705 0 0 1 2.713135-4.591461z" fill="#7C7C7C" p-id="6293"></path><path d="M71.167635 429.301539a45.7059 45.7059 0 0 1 13.252624-1.043514h123.865077c2.921838 0 5.843677 0 6.261082 3.756649a101.638235 101.638235 0 0 1-8.661164 18.365842 288.427188 288.427188 0 0 0-25.044329 66.99358 263.591562 263.591562 0 0 0-6.469785 72.211148 156.527056 156.527056 0 0 0 4.278407 27.027005c0.626108 2.608784 1.982676 5.426271 0 8.139407a11.687354 11.687354 0 0 0-8.974218-3.02619H85.046367c-2.921838 0-5.739325 0-7.200245 3.130541a255.869561 255.869561 0 0 1-8.765515-39.444818 430.13635 430.13635 0 0 1-5.843676-74.298176 436.814837 436.814837 0 0 1 7.930704-81.811474z" fill="#747474" p-id="6294"></path><path d="M460.085193 957.00642a254.30429 254.30429 0 0 1-36.001223-5.217568c-13.461327-2.713136-26.818302-6.469785-40.175277-9.809029a6.88719 6.88719 0 0 1-1.669622-0.939163c-1.356568-1.878325-0.521757-3.861001 0-5.739325a386.100071 386.100071 0 0 1 32.244573-90.263936 18.574544 18.574544 0 0 1 5.739326-7.408947 139.622134 139.622134 0 0 1 59.375929-13.461327h17.948436a67.306634 67.306634 0 0 1 16.383165 1.773974 136.178539 136.178539 0 0 1 52.697443 19.931111 47.792928 47.792928 0 0 1 15.130948 17.635382 157.153164 157.153164 0 0 1 17.322328 57.393254 180.527871 180.527871 0 0 1 1.982676 24.313869c0 2.29573 0 4.800163-2.29573 6.156731a193.154387 193.154387 0 0 1-21.913788 4.069703 107.064506 107.064506 0 0 0-19.931112-24.626923c-11.583002-10.435137-22.435545-20.870274-33.601141-31.305411a4.069703 4.069703 0 0 0-6.782839 0c-7.095893 6.991542-14.817895 13.252624-22.01814 20.139814s-11.687354 10.435137-17.113624 15.861409a76.802609 76.802609 0 0 0-15.2353 20.139814 5.843677 5.843677 0 0 1-2.087028 1.356568z" fill="#C3C3C3" p-id="6295"></path><path d="M598.768165 950.954041a14.817895 14.817895 0 0 0 0.834811-8.765516 204.841741 204.841741 0 0 0-16.383166-73.045959 64.071742 64.071742 0 0 0-36.522979-32.244574 156.527056 156.527056 0 0 0-27.444411-8.556812 29.218384 29.218384 0 0 0-5.426271-0.626108c-1.147865-2.817487 0.834811-3.547947 2.817487-4.069704a14.817895 14.817895 0 0 1 4.487109 0 492.121064 492.121064 0 0 0 75.863446-6.052379 15.96576 15.96576 0 0 1 4.487109 0c4.069703 1.460919 5.843677 5.217569 8.035056 8.452461a233.329665 233.329665 0 0 1 26.609599 49.671252 495.877713 495.877713 0 0 1 17.948436 58.541119 6.052379 6.052379 0 0 1 0 1.982676 284.253134 284.253134 0 0 1-55.306226 14.713544z" fill="#B6B6B6" p-id="6296"></path><path d="M460.085193 957.00642a83.481097 83.481097 0 0 1 24.522572-31.305411c9.91338-9.287272 20.139815-18.157138 30.157546-27.340059 5.32192-4.904514 5.217569-4.904514 10.435137 0 13.565678 12.93957 27.235708 25.670437 40.592684 38.81871a39.862224 39.862224 0 0 1 11.061245 17.322327 125.221645 125.221645 0 0 1-20.870274 2.921839 430.13635 430.13635 0 0 1-61.880363 1.982676 231.033935 231.033935 0 0 1-34.018547-2.400082z" fill="#F1F1F1" p-id="6297"></path><path d="M653.761337 936.136146c-3.234892-3.339244-2.921838-7.930704-4.069703-12.000408a380.986854 380.986854 0 0 0-27.34006-75.341689 135.656782 135.656782 0 0 0-17.53103-28.383573 16.070111 16.070111 0 0 1-1.669622-3.02619 8.452461 8.452461 0 0 1 6.261082-2.504433 53.427902 53.427902 0 0 1 17.844085-2.400081 453.302354 453.302354 0 0 1 45.810252 65.323958 387.456639 387.456639 0 0 1 18.052787 35.896871c1.043514 2.29573 1.356568 5.217569 4.069703 6.574137a248.773668 248.773668 0 0 1-41.427494 15.861408z" fill="#AAAAAA" p-id="6298"></path><path d="M420.22297 838.358912a180.736574 180.736574 0 0 0-17.948436 36.418628 445.997758 445.997758 0 0 0-19.931112 66.367472 223.83369 223.83369 0 0 1-38.923061-13.774381 388.082747 388.082747 0 0 1 62.610822-106.125344l6.261082-7.722002a48.00163 48.00163 0 0 1 20.870274 3.234893c2.087027 0.626108 1.147865 2.504433 0 3.652298-4.59146 5.634974-8.035056 12.313462-12.939569 17.948436z" fill="#A9A9A9" p-id="6299"></path><path d="M179.797412 516.121879a264.739427 264.739427 0 0 1 18.052787-52.697442 270.165699 270.165699 0 0 1 16.487516-31.305411c7.513299-9.704677 13.774381-20.244166 20.870274-29.844492a353.751146 353.751146 0 0 1 72.419852-69.28931c7.304596-5.217569 14.817895-10.435137 22.226842-15.130949a427.11016 427.11016 0 0 1 57.497605-28.487924 349.47274 349.47274 0 0 1 93.916233-22.85295l18.783247-1.773974c0.626108 3.130541-1.982676 4.382758-3.756649 5.843677-16.591868 13.252624-32.661979 27.131356-49.46255 40.070926a18.052787 18.052787 0 0 0-7.200245 16.070111c0 3.130541-2.191379 4.695812-4.382757 6.156731-5.739325 3.861001-11.896056 7.200245-18.26149 11.687354 10.435137 4.487109 21.496382 6.88719 31.305411 11.269948a14.400489 14.400489 0 0 1 3.861001 5.008866 178.649547 178.649547 0 0 0 21.392031 29.114032 81.49842 81.49842 0 0 1 12.104759 13.461327 3.652298 3.652298 0 0 1-1.669622 2.921838 83.481097 83.481097 0 0 1-17.009273 10.435137 172.284113 172.284113 0 0 0-29.114033 6.782839 265.782941 265.782941 0 0 0-98.403342 53.114848 207.241822 207.241822 0 0 0-59.793336 80.976664 144.839702 144.839702 0 0 0-2.713135 104.35137 160.805462 160.805462 0 0 0 21.392031 39.757872c0.73046 1.669622 2.504433 3.234892 0 5.217569a40.279629 40.279629 0 0 1-16.69622 0 354.79466 354.79466 0 0 1-62.610822-9.495975 24.522572 24.522572 0 0 1-8.661164-3.652298 185.223683 185.223683 0 0 1-12.522164-22.226842 213.815958 213.815958 0 0 0 10.435137-44.453684 149.22246 149.22246 0 0 0-25.461735-105.603587 36.314277 36.314277 0 0 1-3.026189-5.426271z" fill="#C3C3C3" p-id="6300"></path><path d="M439.214919 326.411087a19.513706 19.513706 0 0 1 9.078569-17.635381c17.113625-13.252624 33.705493-27.235708 50.401712-41.010089 1.043514-0.834811 2.191379-1.565271 2.400082-3.02619a93.916234 93.916234 0 0 0 18.157138-14.50484c17.53103-13.983084 34.957709-28.17487 52.175686-42.471008 15.757057-12.835219 31.305411-25.87914 47.062468-38.81871l34.122898-27.966167a19.722409 19.722409 0 0 1 22.018139-0.834811 120.212779 120.212779 0 0 1 41.740548 32.76633 168.423112 168.423112 0 0 1 24.105167 35.583818 81.394069 81.394069 0 0 1 9.91338 29.948843 18.052787 18.052787 0 0 1-7.513298 16.383165l-35.896872 28.800978a10.435137 10.435137 0 0 0-1.565271 1.982676 187.832467 187.832467 0 0 0-22.018139 18.157139 42.575359 42.575359 0 0 1-9.18292 8.243758c-3.02619 2.29573-3.652298 4.174055-0.834811 7.61765 24.522572 30.261897 49.46255 60.315092 73.985121 90.57699q24.418221 29.948843 48.940793 59.688984c6.365434 7.826353 12.93957 15.652706 19.200652 23.58341a23.166004 23.166004 0 0 1 0.73046 31.305411 39.653521 39.653521 0 0 1-28.487924 17.635382 24.000815 24.000815 0 0 1-9.287272-1.356568c-8.139407-2.817487-12.20911-10.435137-17.009274-16.278814-9.809029-12.835219-20.139815-25.14868-30.261897-37.566494-16.904922-20.870274-34.018547-41.740548-51.02782-62.610822s-36.105574-44.036278-54.471416-66.26312c-3.02619-3.756649-3.756649-3.756649-7.61765-0.626108-22.85295 18.470193-45.497198 37.253439-68.350148 55.723631-3.234892 3.02619-6.88719 5.739325-10.435137 8.869867a20.139815 20.139815 0 0 1-20.870274 3.234892 87.133394 87.133394 0 0 1-28.383573-17.113624 13.356975 13.356975 0 0 1-3.861-5.113218 187.832467 187.832467 0 0 1-37.044737-46.853765c-2.921838-1.878325-3.652298-5.113217-4.904514-8.035055a70.854581 70.854581 0 0 1-4.382758-12.835219c-1.982676-3.02619 0.208703-6.156731-0.626108-9.182921z" fill="#666666" p-id="6301"></path><path d="M778.252522 540.122694a37.879548 37.879548 0 0 0 41.740548-24.835626 20.035463 20.035463 0 0 0-3.443595-18.783247c-7.095893-8.661164-14.087435-17.53103-20.870274-26.296545a245.538775 245.538775 0 0 0 1.147865-32.140222 123.238969 123.238969 0 0 0-8.452461-46.749414c-1.147865-2.400082-2.817487-5.113217-0.939162-8.035056a285.50535 285.50535 0 0 1 37.775196 50.19301c0.834811 1.356568 1.878325 2.713136 2.817487 3.965352 6.365434 11.061245 12.20911 23.061653 16.800571 35.270763a310.445328 310.445328 0 0 1 13.774381 43.514522c-4.278406 6.678488-9.287272 12.93957-13.043922 20.035463a147.970244 147.970244 0 0 0-18.052787 68.767553 173.327627 173.327627 0 0 0 9.182921 61.776011 7.408947 7.408947 0 0 1 0 5.32192 108.83848 108.83848 0 0 1-11.165597 18.678896c-1.043514 1.669622-2.087027 3.339244-3.02619 5.113217a344.359523 344.359523 0 0 1-27.966167 31.305411 320.358708 320.358708 0 0 1-95.89891 62.610822 386.934882 386.934882 0 0 1-72.211148 23.061653l-24.105167 4.904515a515.704474 515.704474 0 0 1-57.810659 6.261082c-8.765515 0-17.53103 0-26.192194 0.730459-2.191379 0-4.487109 0-4.695812 3.02619a55.723632 55.723632 0 0 0-15.965759-1.982676 42.992765 42.992765 0 0 0-18.99195 0 144.944054 144.944054 0 0 0-56.036686 12.000408l-2.817487 0.939162a94.43799 94.43799 0 0 1 13.565678-20.870274l-21.392031-4.174055a499.738714 499.738714 0 0 1-54.262712-15.444003 333.298278 333.298278 0 0 1-105.499236-59.480281 223.729339 223.729339 0 0 1-38.610007-41.740548 2.29573 2.29573 0 0 1 2.817487 0 85.463773 85.463773 0 0 0 33.079384 8.452461 405.926832 405.926832 0 0 0 43.097116 4.278406 9.600326 9.600326 0 0 1 7.722002 2.921838c3.339244 4.59146 8.661164 7.304596 11.269948 12.417814a6.678488 6.678488 0 0 0 2.191378 2.713135c10.435137 6.574136 17.426679 16.904922 27.861816 23.479059s20.870274 13.356975 31.305412 19.0963a286.444512 286.444512 0 0 0 92.559665 29.63579l12.835219 1.56527a7.61765 7.61765 0 0 0 8.035056-3.339244 46.018954 46.018954 0 0 1 12.730867 1.252217 180.840925 180.840925 0 0 0 63.96739-4.487109h1.982676a98.403343 98.403343 0 0 0 25.044329-3.547947 268.287374 268.287374 0 0 0 96.73372-40.38398 199.415469 199.415469 0 0 0 61.776012-64.593499 122.821563 122.821563 0 0 0 13.670029-32.453276 140.769999 140.769999 0 0 0 0-78.680933 13.043921 13.043921 0 0 1-0.834811-4.904515c3.965352-8.34811 9.495975-15.861408 13.043922-24.41822 0.939162-2.400082 1.147865-5.008866 3.756649-5.948029z" fill="#BBBBBB" p-id="6302"></path><path d="M179.797412 516.121879a50.819117 50.819117 0 0 1 12.20911 16.696219 152.561704 152.561704 0 0 1 18.887598 65.741364 179.69306 179.69306 0 0 1-10.435137 68.55885c-0.521757 1.669622-0.834811 3.652298-2.817487 4.487109a203.27647 203.27647 0 0 1-18.157139-44.453684 20.870274 20.870274 0 0 0-0.939162-2.29573c-1.773973-10.435137-4.278406-20.035463-5.32192-30.261897a231.346989 231.346989 0 0 1 0.73046-46.227657 165.918679 165.918679 0 0 1 5.843677-32.244574z" fill="#F5F5F5" p-id="6303"></path><path d="M485.964333 798.705391c0 3.130541-1.147865 4.069703-4.487109 3.861001a269.122185 269.122185 0 0 1-74.924284-16.383166 278.722511 278.722511 0 0 1-58.854173-29.531438 148.805055 148.805055 0 0 1-19.409355-14.609191c-3.234892-3.02619-7.200245-5.113217-8.556812-9.809029 0-1.356568-2.608784 0-3.652298-1.043514a14.817895 14.817895 0 0 1-6.678488-7.095893 6.156731 6.156731 0 0 0-2.921838-3.652298 9.495975 9.495975 0 0 1-3.75665-3.130541c-3.02619-6.261082-8.34811-6.574136-14.50484-6.991542a391.735045 391.735045 0 0 1-41.740549-4.487109l-17.113624-2.713136a61.254255 61.254255 0 0 1-16.487517-6.678487l-1.982676-3.02619c9.182921 1.982676 18.157138 4.904514 27.444411 6.365433 12.20911 1.878325 24.418221 3.756649 36.731682 4.695812 8.243758 0.626108 16.383165 1.982676 24.626923 1.982676 2.29573 0 3.234892 1.356568 4.278407 2.713136a244.077856 244.077856 0 0 0 106.960155 71.793743 306.688678 306.688678 0 0 0 59.271578 14.713543h6.991542c2.400082 0 6.88719-0.104351 8.765515 3.02619z" fill="#BBBBBB" p-id="6304"></path><path d="M787.435443 383.178233a67.410985 67.410985 0 0 0 5.217568 15.444003 73.045959 73.045959 0 0 1 4.487109 20.870274 236.77326 236.77326 0 0 1 0 46.540711 5.739325 5.739325 0 0 1-2.087027 4.278406l-50.506064-61.567308c-24.522572-29.948843-48.836441-60.002038-73.045959-89.84653-2.191379-2.713136-2.400082-4.069703 0-6.05238a101.325181 101.325181 0 0 1 11.791705-8.974218 371.386528 371.386528 0 0 1 67.619688 44.558036 295.41873 295.41873 0 0 1 36.52298 34.749006z" fill="#C3C3C3" p-id="6305"></path><path d="M837.211047 671.814124a168.631815 168.631815 0 0 1-10.435137-77.533068 143.691837 143.691837 0 0 1 27.027005-73.04596c1.460919-2.087027 2.817487-4.487109 5.426271-5.426271a210.789769 210.789769 0 0 1-19.200652 151.831244c-0.834811 1.565271-1.147865 3.339244-2.817487 4.174055z" fill="#F5F5F5" p-id="6306"></path><path d="M478.972791 825.31499a22.331193 22.331193 0 0 1 18.99195 0z" fill="#BBBBBB" p-id="6307"></path><path d="M762.391114 568.923673c1.565271 8.243758 3.965352 16.278814 5.32192 24.626923a137.430755 137.430755 0 0 1-1.773974 51.132172c-0.73046 3.339244-1.669622 6.678488-2.608784 10.435137a398.830939 398.830939 0 0 1-98.403342 76.1765 341.020279 341.020279 0 0 1-79.93315 31.305412c-2.191379 0.521757-4.695812 2.191379-6.887191 0a241.36472 241.36472 0 0 1-2.504433-25.670438 366.064608 366.064608 0 0 0-12.522164-63.863038c-1.252216-4.278406-2.817487-8.556812-3.756649-12.835219a8.139407 8.139407 0 0 0-8.765516-6.88719 46.018954 46.018954 0 0 1-7.930704-0.626109 281.748701 281.748701 0 0 0-38.923061 0c-4.904514 0.521757-9.91338 1.147865-14.817895 1.356568a8.035056 8.035056 0 0 0-7.930704 5.426271 166.336085 166.336085 0 0 0-11.791705 34.331601 335.176602 335.176602 0 0 0-6.365433 46.227658c0 6.261082 0 12.626516-1.147865 18.783246v1.460919c-1.565271 8.556812-1.565271 8.556812-10.435137 7.095894a395.178641 395.178641 0 0 1-79.93315-22.226842 232.077448 232.077448 0 0 1-39.653521-18.365842 317.019464 317.019464 0 0 1-33.392439-24.209518 144.631 144.631 0 0 1-29.009681-70.750229 151.726893 151.726893 0 0 1 14.817895-85.359421 205.363497 205.363497 0 0 1 34.018547-49.879955 262.6524 262.6524 0 0 1 135.656782-78.36788 26.400897 26.400897 0 0 1 13.77438-2.087027c0 2.087027-2.087027 2.921838-3.547946 3.965352-5.113217 3.443595-10.435137 6.88719-15.444003 10.435137s-4.800163 3.234892 0 5.948028l31.305411 17.948436 13.878732 7.930704c4.695812 2.817487 4.800163 3.861001 0 7.513299-9.600326 7.930704-19.618058 15.444003-29.218383 23.270356-4.695812 3.756649-4.800163 4.382758 0 8.243758 13.356975 11.478651 26.6096 23.061653 39.966575 34.435952l1.56527 1.252217c4.487109 4.069703 4.382758 5.948028-0.730459 8.974218l-45.392847 27.653113c-8.556812 5.113217-17.113625 10.435137-25.670437 15.2353-1.460919 0.834811-3.443595 1.356568-3.652298 3.861001 2.29573 0.834811 3.756649-0.73046 5.426271-1.669622q33.183736-20.55722 67.202283-40.383981c2.087027-1.252216 4.382758-3.861001 6.678488-2.504433s1.043514 4.800163 0.834811 7.408948c-0.73046 12.626516-3.02619 25.044329-3.443595 37.670844a5.217569 5.217569 0 0 1 0 1.46092 18.052787 18.052787 0 0 0 8.452461 20.870274c9.704677 7.826353 17.948436 17.322328 26.922653 25.87914 1.252216 1.252216 2.191379 3.02619 4.695812 3.026189 0-2.400082-1.773973-3.443595-3.02619-4.695811l-31.305411-31.305411a13.148273 13.148273 0 0 1-3.965352-12.522165c1.878325-12.626516 2.713136-25.357383 3.547947-38.08825a125.221645 125.221645 0 0 1 1.56527-12.835219 8.34811 8.34811 0 0 0-3.130541-8.661164c-13.774381-12.000408-27.757465-23.687761-41.740548-35.896871-4.382758-3.861001-4.382758-4.59146 0-8.34811 10.435137-8.556812 20.870274-16.696219 31.305411-25.14868 2.817487-2.191379 3.02619-3.234892 0-5.113217-15.2353-8.452461-30.366249-17.113625-45.601549-25.774789-5.217569-2.921838-5.426271-4.174055-0.626108-7.513298 10.435137-7.304596 21.600734-13.67003 32.140222-20.870275a4.382758 4.382758 0 0 1 2.817487-0.939162c4.487109 3.02619 8.974218 6.156731 13.565678 9.182921a57.393254 57.393254 0 0 0 17.113625 7.930704 18.365841 18.365841 0 0 0 20.870274-4.904515 64.280444 64.280444 0 0 1 8.869866-7.200244 19.200652 19.200652 0 0 1 10.435138 0 273.922348 273.922348 0 0 1 83.481096 26.192194 242.616937 242.616937 0 0 1 103.51656 93.916233 182.71925 182.71925 0 0 1 14.191786 31.305412 7.513299 7.513299 0 0 1 1.043514 5.634974z" fill="#E1E1E1" p-id="6308"></path><path d="M298.44492 702.597778a38.923061 38.923061 0 0 1 12.313462 8.035056 226.755528 226.755528 0 0 0 65.637012 35.062061 435.45827 435.45827 0 0 0 69.080607 19.305003c3.339244 0.626108 6.88719 0.626108 10.435137 1.460919s4.695812 0 4.278406-3.756649a4.069703 4.069703 0 0 1 0.73046-3.339244c2.191379 1.460919 1.669622 3.756649 1.669622 5.843677v20.870274a4.800163 4.800163 0 0 0 3.861001 5.426271l8.035055 2.608785c1.669622 0.521757 3.652298 0.834811 3.652298 3.339243a233.329665 233.329665 0 0 1-54.262712-10.435137 280.392133 280.392133 0 0 1-77.950474-37.775196 196.911036 196.911036 0 0 1-43.723225-40.697034 14.087435 14.087435 0 0 0-2.29573-1.878325z" fill="#D7D7D7" p-id="6309"></path><path d="M490.034036 407.492102a181.153979 181.153979 0 0 1-20.870274 14.191787c-5.530623 3.861001-11.269948 7.513299-17.426679 11.583002l55.410578 31.305411-13.983083 11.478651c-7.930704 6.261082-15.757057 12.626516-23.792113 18.783247-2.191379 1.669622-2.400082 2.504433 0 4.382757 14.922246 12.730867 29.635789 25.566086 44.558035 38.296953a5.843677 5.843677 0 0 1 2.087028 5.739326 9929.032916 9929.032916 0 0 1-5.739326 55.306226 10.435137 10.435137 0 0 0 3.443596 9.704677c11.374299 10.435137 22.539896 22.122491 33.601141 33.392439 1.356568 1.356568 4.174055 2.504433 1.356568 5.113217s-3.547947 0-4.800163-1.56527c-11.374299-10.956894-22.435545-22.226842-34.018547-32.975034a14.609192 14.609192 0 0 1-4.487109-14.191786c1.878325-16.278814 3.130541-32.557628 4.800163-49.984306l-20.870274 12.626515-53.845307 32.140223c-1.982676 0.626108-4.069703 3.652298-5.843677 0s1.356568-3.547947 3.130541-4.591461l15.548354-9.18292c19.409355-11.583002 38.714359-23.270356 58.228065-34.540304 4.069703-2.400082 3.339244-3.756649 0-6.156731-14.713543-12.626516-29.322735-25.357383-44.14063-37.983899-3.130541-2.608784-3.547947-3.965352 0-6.782839 10.435137-8.035056 20.870274-16.800571 31.305411-24.939977 3.234892-2.504433 3.443595-3.339244 0-5.426272a3771.258535 3771.258535 0 0 1-49.358198-27.966167l-2.608784-1.565271 25.87914-17.217976a112.073372 112.073372 0 0 0 18.052787-12.93957 9.809029 9.809029 0 0 1 4.382757 3.965352zM439.214919 326.411087c1.565271 2.817487 0 6.261082 1.773973 9.182921a94.751045 94.751045 0 0 0-11.165596 7.722001 87.968205 87.968205 0 0 0 15.444002 5.113218l3.861001 8.139406-34.122898-11.165596a156.527056 156.527056 0 0 1 15.444003-10.435137c3.234892-2.713136 8.34811-3.234892 8.765515-8.556813z" fill="#9B9B9B" p-id="6310"></path><path d="M762.391114 568.923673a209.746255 209.746255 0 0 0-20.870274-42.992765 232.703557 232.703557 0 0 0-42.262305-48.523387 267.035157 267.035157 0 0 0-52.697443-35.896872 262.965454 262.965454 0 0 0-44.558035-18.157138 332.463467 332.463467 0 0 0-41.740548-9.704678c-3.443595-0.626108-6.88719-0.834811-10.435137-1.252216 23.687761-19.200652 46.749414-38.296953 70.01977-57.81066 3.02619-2.504433 4.278406-0.834811 5.948028 1.252217l28.279221 34.644655c25.983491 31.827168 52.175685 63.654336 77.950474 95.690207 10.435137 12.522164 20.870274 24.731275 30.157546 37.566493a43.827576 43.827576 0 0 0 16.070111 16.174463 174.475492 174.475492 0 0 1-13.878732 26.713951 15.2353 15.2353 0 0 1-1.982676 2.29573z" fill="#C3C3C3" p-id="6311"></path><path d="M564.853969 393.300316l-21.809436 17.844084a122.404158 122.404158 0 0 0-30.366249-61.880362 120.108428 120.108428 0 0 0-54.680118-41.740549l25.983491-20.870274 87.237746-71.167635 1.669622-1.043513c2.29573 0 3.339244 1.252216 4.174055 2.817487l7.722001 14.400489a9.078569 9.078569 0 0 1 0.73046 7.200244 68.871905 68.871905 0 0 1-13.983084 12.522165c-3.130541 2.713136-6.469785 5.217569-9.704678 7.722001-5.530623 4.278406-10.435137 8.765515-16.383165 13.043922a23.896464 23.896464 0 0 0-5.32192 34.749006 122.717212 122.717212 0 0 0 13.67003 17.739733 67.202283 67.202283 0 0 1 14.922246 59.584633 25.774789 25.774789 0 0 1-3.861001 9.078569z" fill="#F4D0AA" p-id="6312"></path><path d="M681.727504 297.610109l-31.305411 25.87914-5.008866 3.965352a12.313462 12.313462 0 0 1-4.695811-5.634974c-10.435137-20.870274-21.600734-40.801386-32.244574-61.254255l-11.583002-22.018139a13.252624 13.252624 0 0 1-2.29573-7.513298 6.574136 6.574136 0 0 1 2.817487-3.965353c8.556812-6.678488 16.696219-13.67003 25.253032-20.244165l6.678487-5.008866c0.939162-0.73046 1.982676-1.878325 3.443596-0.834811a18.991949 18.991949 0 0 0 3.339243 12.835218c13.356975 25.87914 27.340059 51.445226 40.697035 77.324366 1.565271 2.504433 3.756649 4.069703 4.904514 6.469785z" fill="#D1A170" p-id="6313"></path><path d="M681.727504 297.610109a9.391623 9.391623 0 0 1-5.426271-5.426271q-20.870274-39.444818-41.740548-78.785285c-2.191379-4.069703-5.426271-7.722001-2.191379-12.522165a6.991542 6.991542 0 0 1 3.234893-4.174054c8.869867-7.095893 17.844084-14.087435 26.818302-20.870274 1.147865-0.939162 2.29573-2.608784 4.278406-1.565271a89.220422 89.220422 0 0 0 11.165597 24.835626q16.591868 31.305411 33.079384 62.610823c1.460919 2.713136 5.217569 4.487109 4.069704 8.452461z" fill="#C99866" p-id="6314"></path><path d="M595.741975 230.72088a101.951289 101.951289 0 0 0 10.435137 21.913788c3.652298 7.61765 8.035056 14.817895 12.000408 22.226842q12.20911 23.270356 24.313869 46.645063c1.043514 2.087027 3.443595 3.234892 3.547947 5.843677l-32.035871 26.400896a7.826353 7.826353 0 0 1-1.773974 0.834811c-2.191379-0.521757-3.02619-2.400082-3.965352-4.174054-9.600326-18.365841-19.305004-36.731682-29.009681-55.097524-5.217569-9.809029-10.435137-19.722409-15.548354-29.531438-1.356568-2.504433-3.339244-5.113217-1.460919-8.34811 5.32192-5.530623 11.896056-9.600326 17.635382-14.713543 1.669622-1.565271 3.547947-2.817487 5.321919-4.278406 2.400082-3.443595 4.904514-7.722001 10.539489-7.722002z" fill="#DBAC7C" p-id="6315"></path><path d="M666.596556 321.715276c6.156731 7.304596 12.417813 14.504841 18.470192 21.913787q23.58341 28.800978 46.958117 57.706308c2.608784 3.234892 5.008866 6.574136 7.513299 9.809029 15.548354 27.653113 29.740141 55.932335 44.766738 83.481097 5.113217 9.495975 9.809029 19.200652 15.130948 28.592275 1.252216 2.29573 2.817487 4.695812 0.834811 7.408948-9.495975 7.513299-20.870274 8.869867-30.783654-6.991542a92.455314 92.455314 0 0 0-9.078569-19.722409c-8.243758-15.2353-16.174462-30.574952-24.209518-45.810252-20.870274-38.81871-41.010089-77.950474-61.776012-116.664832-2.608784-4.800163-4.800163-9.809029-7.61765-14.504841-1.043514-1.356568-1.878325-3.652298-0.208702-5.217568z" fill="#CB9B69" p-id="6316"></path><path d="M561.827779 257.643534a24.939978 24.939978 0 0 0 4.174055 10.435137c8.34811 15.861408 16.487517 31.305411 24.939978 47.584225 6.88719 13.043921 13.983084 25.983491 20.870274 38.923061-15.444003 13.252624-31.305411 26.192194-47.062468 38.610008a92.559666 92.559666 0 0 0 4.174055-27.757465 64.280444 64.280444 0 0 0-16.278814-40.801386 128.66524 128.66524 0 0 1-14.087435-18.470193 24.626923 24.626923 0 0 1 3.652298-33.49679 177.39733 177.39733 0 0 1 19.618057-15.026597z" fill="#E6B889" p-id="6317"></path><path d="M715.432997 270.478753c-16.278814-27.548762-30.261897-56.34974-45.392846-84.524611a18.574544 18.574544 0 0 1-3.443595-12.000407 4.59146 4.59146 0 0 1 2.087027-2.921839 18.574544 18.574544 0 0 1 27.548762-0.730459 127.726078 127.726078 0 0 1 35.896871 41.740548 91.829206 91.829206 0 0 1 11.269948 25.87914 3.234892 3.234892 0 0 0 1.773974 2.191379 9.182921 9.182921 0 0 1-3.75665 9.495975z" fill="#C2915E" p-id="6318"></path><path d="M666.596556 321.715276c0 3.339244 1.773973 5.530623 3.130541 8.139407l29.009681 54.471415q25.87914 49.253847 52.175685 98.507694c6.678488 12.730867 13.983084 25.14868 19.82676 38.401304 0.626108 1.356568 1.669622 2.29573-0.626108 2.817487l-65.010904-79.724447a156.527056 156.527056 0 0 0-11.791705-24.626923c-8.661164-16.278814-17.113625-32.661979-25.879139-48.836442-7.304596-12.522164-13.461327-25.253032-20.870275-37.149088 4.069703-3.547947 8.035056-7.304596 12.417814-10.435137 2.087027-1.878325 4.59146-4.174055 7.61765-1.56527z" fill="#D3A473" p-id="6319"></path><path d="M527.913584 420.327321a28.800978 28.800978 0 0 1-17.009273-5.32192 148.492 148.492 0 0 1-65.219607-80.663609 16.487517 16.487517 0 0 1-0.939162-6.887191c1.982676 0 2.087027 1.356568 2.400081 2.400082a92.037909 92.037909 0 0 0 24.105167 36.105574 98.820748 98.820748 0 0 1-20.870274-34.331601 69.184959 69.184959 0 0 0-4.174055-15.2353c3.443595-4.174055 7.930704-3.339244 12.20911-2.29573a53.219199 53.219199 0 0 1 19.931112 10.435137c10.435137 17.948436 19.200652 36.314277 28.90533 54.367064 6.156731 11.478651 12.104759 23.166004 18.365841 34.749006 1.773973 1.878325 3.965352 3.547947 2.29573 6.678488z" fill="#F4D0AA" p-id="6320"></path><path d="M800.270661 531.044125a18.783247 18.783247 0 0 0-3.861-10.435137q-13.252624-25.253032-26.713951-50.401712c-8.765515-16.487517-17.739733-32.870682-26.400897-49.46255-1.565271-2.921838-4.174055-5.634974-3.861001-9.391623 8.035056 7.930704 14.504841 17.217976 21.705085 25.87914 14.504841 17.53103 28.800978 35.166412 43.097116 52.175685 2.087027 2.608784 4.382758 5.008866 6.365434 7.61765a18.678895 18.678895 0 0 1-1.982676 26.818303 33.288087 33.288087 0 0 1-8.34811 7.200244z" fill="#C3915F" p-id="6321"></path><path d="M646.561092 333.715683c2.608784 0 3.02619 2.29573 3.965353 3.965352 5.113217 9.495975 10.435137 18.887598 15.2353 28.487925q19.096301 36.52298 37.983899 73.045959c0.834811 1.565271 2.817487 3.234892 0.626108 5.217569l-31.305411-38.714359c-14.296138-17.426679-28.487924-35.062061-42.888414-52.175685-2.400082-2.921838-2.504433-4.59146 0-6.782839 5.948028-4.59146 11.061245-8.974218 16.383165-13.043922z" fill="#DDAE7F" p-id="6322"></path><path d="M668.579232 171.866707l-1.982676 1.982676-33.914196 26.922654-9.078569 6.887191c-2.608784-1.252216-2.400082-4.174055-3.443595-6.365434-3.130541-6.156731-6.365434-12.313462-9.391624-18.574544l43.931927-35.896872c2.29573-1.356568 3.443595 0 4.382758 1.773974a117.499643 117.499643 0 0 1 9.91338 18.157138 4.069703 4.069703 0 0 1-0.417405 5.113217z" fill="#E1B588" p-id="6323"></path><path d="M527.913584 420.327321c-3.861001-10.435137-9.91338-19.096301-14.50484-28.800978-3.130541-6.574136-6.991542-12.730867-10.435138-19.200653-7.61765-14.400489-15.130949-28.800978-22.644247-43.201467a7.513299 7.513299 0 0 1-1.252216-4.695812 116.560481 116.560481 0 0 1 26.296545 24.105167 154.648731 154.648731 0 0 1 28.592276 46.332008 36.940385 36.940385 0 0 1 3.130541 17.844085c-0.73046 6.156731-2.713136 7.513299-9.182921 7.61765z" fill="#DDAF80" p-id="6324"></path><path d="M610.872924 182.927953a73.045959 73.045959 0 0 1 11.896056 22.018139c0 0.939162 0.626108 1.878325 0.939162 2.817487-9.287272 7.61765-19.096301 14.713543-27.966167 22.957301-4.382758 1.669622-7.095893 5.634974-10.956894 7.930705a14.087435 14.087435 0 0 0-3.130541-10.435137c-3.339244-4.487109-3.861001-10.435137-8.661164-14.191787z" fill="#ECC49B" p-id="6325"></path><path d="M668.579232 171.866707a49.253847 49.253847 0 0 0-8.243759-18.678895c-1.356568-2.400082-1.878325-5.843677-5.634974-6.261082 4.695812-5.843677 10.435137-4.382758 16.278814-2.29573a84.628962 84.628962 0 0 1 27.757465 18.678895 168.318761 168.318761 0 0 1 42.262305 59.062876 107.168858 107.168858 0 0 1 4.278406 17.426679c-2.400082 1.147865-2.400082-1.043514-2.817487-2.29573a143.170081 143.170081 0 0 0-38.714358-59.688984 45.184143 45.184143 0 0 0-16.800571-11.061246 13.356975 13.356975 0 0 0-14.609192 3.02619 5.32192 5.32192 0 0 1-3.756649 2.087027z" fill="#D5A472" p-id="6326"></path><path d="M446.93692 316.393356a7.930704 7.930704 0 0 1 3.965352 6.574136 66.054418 66.054418 0 0 0 15.130949 33.809844c3.02619 4.278406 6.365434 8.243758 9.600326 12.417813-1.878325 1.356568-2.504433 0-3.234892-1.147865a96.525018 96.525018 0 0 1-27.235708-40.592683 10.435137 10.435137 0 0 1 1.773973-11.061245z" fill="#FCF0E2" p-id="6327"></path><path d="M445.267298 348.324875a1.982676 1.982676 0 0 1-2.608784 0.834811l-16.487516-5.634974c5.739325-2.817487 8.974218-7.513299 14.817894-8.035055z" fill="#C2C2C2" p-id="6328"></path><path d="M578.941404 762.495465a337.054927 337.054927 0 0 0 78.054825-28.592275 371.803934 371.803934 0 0 0 68.558851-45.392847c11.791705-10.435137 23.270356-20.244166 34.018547-31.305411 1.043514-1.043514 1.982676-2.29573 3.756649-2.29573a150.892082 150.892082 0 0 1-29.635789 54.471416 236.877611 236.877611 0 0 1-103.099154 70.85458 345.924794 345.924794 0 0 1-61.358606 15.548354 3.756649 3.756649 0 0 1-3.339244-0.626108s0-1.043514 0.834811-1.147865c9.391623-2.29573 9.078569-10.435137 9.600326-17.217976a33.079384 33.079384 0 0 1 2.608784-14.296138z" fill="#D7D7D7" p-id="6329"></path><path d="M578.941404 762.495465c-0.626108 7.513299-1.356568 15.026597-1.878324 22.539896 0 5.217569-2.191379 9.078569-7.930705 9.809029a24.209518 24.209518 0 0 0-3.339243 0.939162 180.840925 180.840925 0 0 1-60.941201 5.634974c-6.365434 0-12.626516-1.773973-18.887598-2.713135l-8.035056-1.252217a59.271579 59.271579 0 0 0-13.148272-4.59146 5.008866 5.008866 0 0 1-3.861001-5.32192v-27.861816a316.289004 316.289004 0 0 1 10.435137-77.220014 139.622134 139.622134 0 0 1 9.495975-25.774789 5.634974 5.634974 0 0 1 5.113217-3.861c5.739325 0 11.478651-0.626108 17.217976-1.043514 13.461327-0.521757 26.818302 0 40.279629 0s14.922246 0 19.305004 14.191786a343.316009 343.316009 0 0 1 14.817894 71.167635c0.313054 8.34811 0.626108 16.800571 1.356568 25.357383z" fill="#5E5050" p-id="6330"></path><path d="M334.446143 660.544176a54.262713 54.262713 0 0 1-11.3743-47.584225 52.801794 52.801794 0 0 1 103.203506 1.982676c0 1.982676 0.73046 3.861001 1.147865 5.843677 5.739325 28.696627-20.870274 58.019362-50.401712 58.332416a56.662794 56.662794 0 0 1-29.531438-7.095893 34.122898 34.122898 0 0 1-13.043921-11.478651zM615.255681 659.918068a54.158361 54.158361 0 0 1-17.113625-39.966575 52.697442 52.697442 0 0 1 100.594722-22.435545 73.045959 73.045959 0 0 1 4.382757 12.522165 34.018547 34.018547 0 0 1 1.043514 21.600733 53.427902 53.427902 0 0 1-46.43636 42.366657 46.540711 46.540711 0 0 1-42.471008-14.087435z" fill="#2D1A1A" p-id="6331"></path><path d="M334.446143 660.544176a59.062876 59.062876 0 0 0 28.487924 16.278814 52.801794 52.801794 0 0 0 64.489147-53.010496v-2.921839a47.897279 47.897279 0 0 1-9.391623 45.601549 49.045144 49.045144 0 0 1-41.740549 19.200652 50.819117 50.819117 0 0 1-40.801385-23.061652 5.217569 5.217569 0 0 1-1.043514-2.087028zM615.255681 659.918068a59.480281 59.480281 0 0 0 32.035871 13.252624 53.427902 53.427902 0 0 0 55.932335-46.227657 82.124529 82.124529 0 0 0 0-16.800571 34.644655 34.644655 0 0 1 4.278406 22.226842 52.175685 52.175685 0 0 1-37.253439 45.7059 52.906145 52.906145 0 0 1-53.636605-15.861408 9.809029 9.809029 0 0 1-1.356568-2.29573z" fill="#B4B4B4" p-id="6332"></path><path d="M543.044533 651.569958h-40.279629a203.27647 203.27647 0 0 1 40.279629 0z" fill="#8D8484" p-id="6333"></path><path d="M574.767349 769.487007a99.864262 99.864262 0 0 1-1.252216 17.426679 4.800163 4.800163 0 0 1-4.069703 4.382757 182.197493 182.197493 0 0 1-52.175686 7.304596 178.858249 178.858249 0 0 1-48.105982-7.61765 6.156731 6.156731 0 0 1-5.217568-7.513298 144.317946 144.317946 0 0 1 0-22.957302 294.166514 294.166514 0 0 1 2.400081-35.896871 224.981555 224.981555 0 0 1 15.861409-64.280445 7.304596 7.304596 0 0 1 7.61765-4.695811c6.365434 0 12.730867-0.73046 19.096301-1.147865a257.33048 257.33048 0 0 1 27.027005 0c5.739325 0 11.478651 1.043514 17.217976 1.252216a3.234892 3.234892 0 0 1 3.443595 2.608784c4.382758 14.087435 7.826353 28.383573 11.374299 42.679711s4.487109 25.983491 6.469785 39.027413a96.838072 96.838072 0 0 1 0 12.417813 58.958524 58.958524 0 0 1 0.313054 17.009273z" fill="#FEFEFE" p-id="6334"></path><path d="M535.94864 654.491797h-27.027005a106.020993 106.020993 0 0 1 27.027005 0z" fill="#877D7D" p-id="6335"></path><path d="M463.946194 760.512789v22.957302a61.149903 61.149903 0 0 1 0-22.957302z" fill="#5F5151" p-id="6336"></path><path d="M574.767349 769.487007V752.582085a37.670845 37.670845 0 0 1 0 16.904922z" fill="#E1E1E1" p-id="6337"></path><path d="M373.890961 674.840314a49.671252 49.671252 0 1 1 50.193009-49.775604 49.984307 49.984307 0 0 1-50.193009 49.775604zM601.585652 620.577601a49.723428 49.723428 0 1 1 99.446856 0 49.723428 49.723428 0 0 1-99.446856 0z" fill="#FEFEFE" p-id="6338"></path></svg>