<?xml version="1.0" standalone="no"?><!DOCTYPE svg PUBLIC "-//W3C//DTD SVG 1.1//EN" "http://www.w3.org/Graphics/SVG/1.1/DTD/svg11.dtd"><svg t="1550212835351" class="icon" style="" viewBox="0 0 1024 1024" version="1.1" xmlns="http://www.w3.org/2000/svg" p-id="3909" xmlns:xlink="http://www.w3.org/1999/xlink" width="200" height="200"><defs><style type="text/css">@font-face { font-family: "Roboto Condensed"; src: url("chrome-extension://lienonopcegannlgdkgonpofbhgmclcc/RobotoCondensed-Regular.ttf"); }
</style></defs><path d="M1023.89762 512v507.392921c0 3.788042-0.819036 4.607079-4.607078 4.607079H4.607079c-3.788042 0-4.607079-0.819036-4.607079-4.607079Q0.10238 512 0 4.607079C0 0.819036 0.819036 0 4.607079 0h1014.785842c3.788042 0 4.607079 0.819036 4.607079 4.607079q-0.204759 253.696461-0.10238 507.392921z" fill="#FEFEFE" p-id="3910"></path><path d="M398.358728 78.934613a307.138572 307.138572 0 0 1 37.982804-8.190362L422.827435 96.134373a98.796241 98.796241 0 0 0-7.166567 14.742652c-3.788042 11.568886 0 17.097381 11.978404 17.916416h4.914217c1.638072 1.945211 0 3.788042 0 5.528495-9.111778 18.735453-17.814037 37.573285-26.618676 56.411117-14.537892 30.713857-29.178164 61.427714-43.408918 92.141572-2.661868 5.938012-5.835633 11.568886-8.395121 17.506899a84.770246 84.770246 0 0 1-16.790242 9.726054 383.513697 383.513697 0 0 0-62.861028 45.661268 336.931014 336.931014 0 0 0-66.034793 80.060788 280.724655 280.724655 0 0 0-32.24955 79.241752 268.95101 268.95101 0 0 0-6.347531 70.129974 191.961608 191.961608 0 0 0 12.490302 58.868226 61.427714 61.427714 0 0 1 3.685663 10.237952 10.85223 10.85223 0 0 1-1.330934 6.245151c-11.364127 23.956809-22.523495 48.015997-33.887622 71.665667l-9.521296 20.475905c-0.819036 1.842831-1.126175 4.40232-4.095181 4.29994a425.182164 425.182164 0 0 1-43.204159-83.84883 440.94861 440.94861 0 0 1-27.642471-113.743651A448.012797 448.012797 0 0 1 361.809238 89.991602a292.703059 292.703059 0 0 1 32.761448-10.237953c1.638072 1.228554 3.173765 1.228554 3.788042-0.819036zM940.970206 384.742252a446.272346 446.272346 0 0 1 17.814037 148.24555 441.767646 441.767646 0 0 1-43.101779 171.690462 395.594481 395.594481 0 0 1-20.475905 38.494701c-2.457109 1.330934-2.764247-1.023795-3.378525-2.252349-10.74985-22.113977-21.192561-44.432713-31.532893-66.853829a40.95181 40.95181 0 0 1-5.221356-12.387923c3.071386-3.378524 0.511898-4.095181-2.354729-4.709458a25.90202 25.90202 0 0 1-5.426115-13.616477c3.173765-11.876025 7.780844-23.342531 10.237953-35.423315a208.75185 208.75185 0 0 0 2.661867-56.615877 299.152969 299.152969 0 0 0-4.709458-35.525695 294.033993 294.033993 0 0 0-58.970606-119.374525 358.328334 358.328334 0 0 0-102.379524-85.9988 28.256749 28.256749 0 0 1-7.780843-5.323735q-28.563887-60.30154-57.230154-121.729254c-6.757049-14.435513-13.411718-28.871026-20.475905-43.20416a26.413917 26.413917 0 0 1-2.661868-6.44991 4.607079 4.607079 0 0 1 5.016597-3.071385 14.845031 14.845031 0 0 0 4.402319-0.511898c10.237952-2.04759 13.514097-7.371326 9.418917-16.892621-5.630874-12.89982-12.183163-25.390122-18.530694-38.494701a48.220756 48.220756 0 0 1 12.89982 2.457108 448.729454 448.729454 0 0 1 285.434113 220.423116 456.715057 456.715057 0 0 1 33.478104 78.013197c0 0.614277 0.511898 1.330934 0 1.842831-2.661868 2.559488-2.04759 4.29994 1.126175 5.630874a3.173765 3.173765 0 0 1 1.740452 1.638073z" fill="#252C3E" p-id="3911"></path><path d="M605.984403 133.912418a67.058588 67.058588 0 0 1 8.395121 15.561687c10.237952 22.011598 20.475905 44.125575 30.713857 66.137173l39.928015 84.565487c0.716657 1.535693 1.126175 3.071386 1.740452 4.607078-2.764247 1.330934-4.811838-0.614277-6.961808-1.638072a369.487702 369.487702 0 0 0-79.958408-29.485303 384.537493 384.537493 0 0 0-71.665667-10.237953 353.004599 353.004599 0 0 0-129.817237 19.656869 342.869026 342.869026 0 0 0-39.620876 16.483104c-1.945211 0.921416-3.992801 2.764247-6.44991 1.228554 5.938012-12.797441 11.773645-25.594881 17.814038-38.392322l45.354129-95.827234 15.254549-32.454309a8.59988 8.59988 0 0 0 1.535693-5.118977h47.913617c1.535693 1.228554 1.535693 3.276145 2.04759 4.914218a39.416117 39.416117 0 0 0 59.482504 22.421115 36.344731 36.344731 0 0 0 16.483103-20.475905 9.418916 9.418916 0 0 1 2.457109-5.323735c11.466507-1.126175 23.035393 0.716657 34.5019 0a4.095181 4.095181 0 0 1 4.095181 3.583284c0 4.40232 3.071386 1.945211 4.607078 2.559488 3.071386 1.228554 0.307139-2.661868 2.14997-2.764247z" fill="#5A5F6D" p-id="3912"></path><path d="M137.086183 756.687063a109.034193 109.034193 0 0 0 9.009398-17.609279c6.757049-13.923615 13.104579-27.94961 19.656869-41.975604l17.609278-37.778045a26.721056 26.721056 0 0 0 1.228554-4.29994c2.866627 0.819036 3.173765 3.685663 4.29994 5.733254s3.276145 6.859428 5.426115 10.237952a223.289742 223.289742 0 0 0 42.385123 54.977804 292.703059 292.703059 0 0 0 66.137172 47.606479 397.94921 397.94921 0 0 0 98.898621 36.447111 5.528494 5.528494 0 0 1 3.890421 1.945211c0.511898 2.866627-1.842831 3.685663-3.480903 4.811837a396.720656 396.720656 0 0 0-57.742052 51.189762c-9.623675 10.237952-18.018796 20.475905-26.925815 31.328135-3.378524 4.095181-6.34753 8.907019-11.978404 10.237952a432.143971 432.143971 0 0 1-83.644071-56.0016 445.862827 445.862827 0 0 1-83.95121-94.59868 16.278344 16.278344 0 0 1-0.819036-2.252349z" fill="#515665" p-id="3913"></path><path d="M305.5005 909.437313a343.380924 343.380924 0 0 0 29.485303-33.478105 405.115777 405.115777 0 0 1 64.4991-58.765847 20.475905 20.475905 0 0 0 6.040392-5.016596c1.535693-2.25235 3.788042-1.740452 5.835633-1.433314 7.268946 0.921416 14.435513 2.457109 21.602079 3.788043a10.237952 10.237952 0 0 0 10.237953-3.071386 61.427714 61.427714 0 0 0 12.79744-17.711658 36.754249 36.754249 0 0 0 3.788043-18.223555 106.065187 106.065187 0 0 1 2.252349-20.475905c1.023795-4.811838 2.457109-9.521296 8.292742-10.237952a14.025995 14.025995 0 0 1 14.230754 7.268946 35.935213 35.935213 0 0 1 5.221355 14.845031c0 4.914217 0 4.914217 4.607079 2.764247a318.502699 318.502699 0 0 1 34.911418-15.971206 106.065187 106.065187 0 0 1 18.837832-4.709458 25.492501 25.492501 0 0 1 10.237952 0.614277 12.183163 12.183163 0 0 1 10.237953 10.237953 10.954609 10.954609 0 0 1-6.44991 11.261747 128.793441 128.793441 0 0 1-25.287743 13.923616c-3.788042 1.535693-4.095181 3.071386-1.945211 6.142771s2.764247 4.504699 4.095181 6.859428a78.832234 78.832234 0 0 1 7.985603 25.90202 36.037592 36.037592 0 0 1-38.187562 37.368526 43.818436 43.818436 0 0 0-28.563887 11.978405 440.231954 440.231954 0 0 0-63.782444 72.484703 11.159368 11.159368 0 0 1-2.661868 2.969006 308.879024 308.879024 0 0 1-43.716056-11.773645 425.182164 425.182164 0 0 1-62.246751-26.106779 16.585483 16.585483 0 0 1-2.354729-1.433313z" fill="#E94949" p-id="3914"></path><path d="M855.073785 661.269346l37.675665 79.54889c0 1.023795 0.511898 2.354729 2.047591 2.354729a424.772645 424.772645 0 0 1-51.80404 69.822836 442.177165 442.177165 0 0 1-61.427714 55.79684c-1.126175 0.921416-2.457109 1.638072-3.788042 2.35473s-3.480904-0.511898-5.016597-1.433314q-39.620876-24.161568-79.036993-48.630274c-2.25235-1.330934-4.40232-2.969006-3.788042-5.835633a89.684463 89.684463 0 0 0 1.228554-24.775844 11.671266 11.671266 0 0 1 6.44991-4.40232A322.802639 322.802639 0 0 0 777.265347 737.132573a238.646671 238.646671 0 0 0 55.796841-67.160967 127.462507 127.462507 0 0 0 11.364127-21.806839c0.716657-1.535693 0.819036-3.685663 3.173765-3.992801 0 4.811838 3.890422 8.292741 5.118976 12.79744a6.55229 6.55229 0 0 1 2.354729 4.29994z" fill="#515665" p-id="3915"></path><path d="M413.613277 948.75105a94.59868 94.59868 0 0 1 15.459308-22.011598 475.655269 475.655269 0 0 1 55.182564-58.458708 37.266147 37.266147 0 0 1 24.878224-8.087983 41.566087 41.566087 0 0 0 34.092382-21.602079 16.175965 16.175965 0 0 1 1.228554-1.535693c5.630874-1.023795 10.237952 2.661868 14.025995 5.118976a58.561088 58.561088 0 0 1 24.161568 29.894821 204.759048 204.759048 0 0 1 13.616476 56.513498 48.630274 48.630274 0 0 1 0 7.985602 46.275545 46.275545 0 0 1-11.466506 17.30214c-8.087982 3.071386-12.490302 0-16.483104-7.473705a121.319736 121.319736 0 0 0-24.878224-26.311538c-7.883223-7.985603-16.278344-15.561688-24.468706-23.444911-1.740452-1.740452-3.071386-2.866627-5.630874 0-13.616477 12.695061-27.437712 25.082983-40.95181 37.573285a60.506299 60.506299 0 0 0-14.640272 19.34973c-1.126175 2.25235-2.25235 3.378524-4.811837 2.969007a321.778844 321.778844 0 0 1-39.313738-7.780844z" fill="#FA665A" p-id="3916"></path><path d="M585.20136 953.767646l10.237952-16.585482a120.295941 120.295941 0 0 1 14.230754-22.728255c11.261748-16.380724 21.909218-33.273345 33.478104-49.44931-0.921416-1.433313-1.945211-0.716657-2.866626-0.614277a64.089582 64.089582 0 0 1-73.918017-56.513497 119.579284 119.579284 0 0 1 0-13.0022 62.963407 62.963407 0 0 1 44.023196-54.670666 61.427714 61.427714 0 0 1 60.506298 10.954609c1.740452 1.330934 3.480904 2.559488 5.016597 4.095181a69.106179 69.106179 0 0 1 16.073585 27.94961c0.511898 2.14997 1.740452 4.29994 0.614278 6.654669a62.041992 62.041992 0 0 1-1.023796 25.492502c0 1.638072 0 2.764247 1.842832 3.583283l84.975005 52.008798a39.416117 39.416117 0 0 1-9.009398 6.961808c-2.457109 0.614277-4.095181-1.126175-5.835633-2.14997-22.933013-14.128374-45.968406-28.154369-68.79904-42.385123l-3.378525-2.04759a3.071386 3.071386 0 0 0-5.016596 1.228554 64.60148 64.60148 0 0 1-8.80464 12.080784c-2.457109 2.764247-1.638072 4.40232 1.330934 6.245151 20.475905 12.695061 41.566087 25.697261 62.34913 38.59708 1.638072 1.023795 4.29994 1.535693 3.992802 4.40232l-8.804639 5.221356c-2.559488 1.330934-4.40232 0-6.347531-1.433314q-19.964007-12.183163-39.723255-24.571086c-3.173765-2.04759-5.221356-1.945211-7.268946 1.433314s-5.221356 7.985603-7.883224 11.978404c-11.671266 16.585483-22.728254 33.478104-34.194761 50.165967-1.330934 1.945211-2.25235 4.095181-4.607078 5.118976a67.365727 67.365727 0 0 1-15.04979 4.095181c-1.330934-2.559488 0.716657-4.095181 1.842831-5.733253 11.261748-16.278344 22.011598-32.863827 33.375725-49.142172 5.323735-7.678464 10.237952-15.561688 15.561688-23.240152 2.14997-3.071386 2.457109-5.323735-1.433314-6.961807a16.380724 16.380724 0 0 1-3.071385-1.740452 3.378524 3.378524 0 0 0-5.733254 1.228554c-2.969006 4.811838-6.44991 9.316537-9.623675 14.025995q-24.161568 36.037592-48.630274 71.665667c-1.228554 1.740452-2.14997 3.788042-4.29994 4.709458a91.220156 91.220156 0 0 1-14.128374 3.071385z" fill="#40220F" p-id="3917"></path><path d="M745.118176 893.875625c-7.371326-5.733253-15.561688-10.237952-23.342531-14.947411q-22.318736-14.025995-44.944611-27.642471c-3.276145-1.945211-3.378524-3.685663-1.023795-6.44991a75.556089 75.556089 0 0 0 10.237952-14.537893c1.228554-2.354729 2.354729-1.945211 4.29994-0.716656 17.916417 11.159368 35.832833 22.113977 53.85163 33.068586l24.980604 15.459308a189.197361 189.197361 0 0 1-24.059189 15.766447z" fill="#5F5C5D" p-id="3918"></path><path d="M560.425515 130.431514a40.95181 40.95181 0 0 1-80.060788-1.023796 172.20236 172.20236 0 0 1 23.75205 0h52.315936c1.433313 0.716657 2.764247 0.921416 3.992802 1.023796z" fill="#FED50B" p-id="3919"></path><path d="M599.329734 951.208158l40.235153-59.789642c7.268946-10.237952 14.537892-21.397321 21.704459-32.14717 1.740452-2.559488 2.866627-3.480904 5.938013-1.638073 9.623675 5.733253 10.237952 5.528494 3.480903 14.742652l-46.480304 68.594281a11.568886 11.568886 0 0 0-2.866626 5.118976 105.45091 105.45091 0 0 1-22.011598 5.118976z" fill="#5F5C5D" p-id="3920"></path><path d="M674.066787 886.094781c3.071386-4.709458 6.245151-9.316537 9.214157-14.128374 1.740452-2.866627 3.173765-2.866627 5.835633-1.126175 14.128374 9.009398 28.461508 17.711658 42.589882 26.516297a7.166567 7.166567 0 0 0 4.504699 1.740452 363.242551 363.242551 0 0 1-45.456509 23.035393c-3.071386-2.354729-3.583283-6.245151-5.118976-9.418917-3.378524-7.166567-6.55229-14.333133-10.237953-21.39732a10.237952 10.237952 0 0 1-1.330933-5.221356z" fill="#5A5F6D" p-id="3921"></path><path d="M674.066787 886.094781a313.486103 313.486103 0 0 1 16.790242 35.935213 324.543091 324.543091 0 0 1-54.465907 19.759248q17.916417-28.256749 37.675665-55.694461z" fill="#E94949" p-id="3922"></path><path d="M490.5003 959.091382h41.566087v0.511897h-41.566087z" fill="#C1BABB" p-id="3923"></path><path d="M532.168766 65.010998h-41.668466v-0.716657h41.463707z" fill="#B3B2B8" p-id="3924"></path><path d="M940.970206 384.742252c-0.716657-2.764247-3.685663 1.945211-5.426115-2.25235s2.354729-4.504699 2.661868-6.961808a25.390122 25.390122 0 0 1 2.764247 9.214158z" fill="#CFCFD2" p-id="3925"></path><path d="M398.358728 78.934613c0.716657 1.433313 0.921416 3.071386-0.716656 3.685663s-2.25235-1.638072-3.173766-2.661868c1.228554-1.330934 2.661868-1.126175 3.890422-1.023795z" fill="#7D818D" p-id="3926"></path><path d="M692.392721 789.960408a72.996601 72.996601 0 0 0-17.609278-33.273345 4.811838 4.811838 0 0 1 2.661868-3.378525 217.863627 217.863627 0 0 0 30.713857-23.64967 5.323735 5.323735 0 0 1 2.14997-1.126175 104.529494 104.529494 0 0 1 14.435513 0 18.837832 18.837832 0 0 0 20.475905-20.475904v-96.339133a17.404519 17.404519 0 0 1 1.228554-8.59988 1.433313 1.433313 0 0 1 1.330934-0.716656c1.740452 1.330934 1.535693 3.276145 1.535693 5.016596v69.822836a142.614677 142.614677 0 0 0 14.537892-76.477505 173.021396 173.021396 0 0 0-43.408918-97.874825 260.760648 260.760648 0 0 0-147.016997-86.408318 282.874625 282.874625 0 0 0-46.992201-5.733253 274.684263 274.684263 0 0 0-120.295941 21.39732 250.420316 250.420316 0 0 0-103.608078 78.320336 172.20236 172.20236 0 0 0-35.832834 80.265547 137.086183 137.086183 0 0 0 10.237953 79.958408 20.475905 20.475905 0 0 1 1.330933 3.173766c1.023795 11.056989 0 22.216357 0 33.273345a18.530694 18.530694 0 0 0 20.475905 20.475905 153.569286 153.569286 0 0 1 18.325935 0 45.763647 45.763647 0 0 1 11.876025 8.907018 267.620076 267.620076 0 0 0 98.693861 49.039792 245.710858 245.710858 0 0 0 24.263947 5.630874c1.638072 0 3.378524 0 3.992802 2.354729a50.370726 50.370726 0 0 1-15.561688 20.475905c-2.14997 2.04759-5.118976 1.228554-7.678464 0.819036-7.678464-1.228554-15.254549-2.457109-22.830634-3.992801a14.230754 14.230754 0 0 0-4.811838 0 469.819636 469.819636 0 0 1-49.039792-13.206959 336.828634 336.828634 0 0 1-106.884223-59.380124 223.80164 223.80164 0 0 1-55.489702-67.263347 20.475905 20.475905 0 0 1 1.638072-7.780844 163.807239 163.807239 0 0 0 10.237953-54.261148 147.016997 147.016997 0 0 0-27.028195-89.172565 14.025995 14.025995 0 0 1-3.173765-5.630874 301.610078 301.610078 0 0 1 70.539492-130.943411 358.328334 358.328334 0 0 1 104.631874-80.879824 26.413917 26.413917 0 0 0 2.457109-1.638073c12.89982-5.630874 25.594881-11.773645 38.801839-16.585483a364.266347 364.266347 0 0 1 73.303739-18.837832 347.168966 347.168966 0 0 1 53.544492-3.583283 363.242551 363.242551 0 0 1 145.993201 32.659068l22.523495 10.237952c11.876025 7.268946 24.059188 14.025995 35.525695 22.113977a333.859628 333.859628 0 0 1 115.996001 135.65287 256.767846 256.767846 0 0 1 17.404519 51.701659 7.883223 7.883223 0 0 1-2.457109 4.811838 145.174165 145.174165 0 0 0-28.666266 77.091782 174.045191 174.045191 0 0 0 8.395121 67.365727 12.490302 12.490302 0 0 1 1.228554 7.268946 181.006999 181.006999 0 0 1-26.618676 38.69946 298.845831 298.845831 0 0 1-107.805639 77.296541z" fill="#FA665A" p-id="3927"></path><path d="M174.966607 514.25235a100.639072 100.639072 0 0 1 19.24735 31.635272 146.914617 146.914617 0 0 1 12.285543 62.861028 166.673865 166.673865 0 0 1-12.89982 62.246751 149.781244 149.781244 0 0 1-8.59988-15.971206 236.70146 236.70146 0 0 1-15.561688-54.363527 217.761248 217.761248 0 0 1 0-54.670666 174.864227 174.864227 0 0 1 5.528495-31.737652z" fill="#F5F5F5" p-id="3928"></path><path d="M231.172965 272.124775l20.475905-49.039792c1.740452-4.29994 3.583283-8.4975 5.323735-12.797441 0.716657-1.842831 1.535693-2.457109 3.583284-1.535692 7.576085 3.378524 15.254549 6.44991 22.933013 9.521295 2.04759 0.819036 2.866627 1.638072 1.842832 3.992802-2.969006 6.654669-5.630874 13.411718-8.70226 20.475905L260.555889 225.234953c-4.40232 10.237952-8.087982 19.042591-11.671266 27.642472l-15.254549 36.651869a20.475905 20.475905 0 0 1-39.518496-3.173765 20.475905 20.475905 0 0 1 10.237952-21.704459 20.475905 20.475905 0 0 1 24.878224 4.811837 15.15217 15.15217 0 0 1 1.945211 2.661868z" fill="#FEE7C1" p-id="3929"></path><path d="M262.5011 264.343931a7.064187 7.064187 0 0 1 10.237952 0c-4.811838 8.087982-5.426115 7.985603-10.237952 0z" fill="#CCCCCF" p-id="3930"></path><path d="M364.163967 190.118776a6.040392 6.040392 0 0 1 3.173765-8.59988c0.819036 0 5.016597 2.764247 4.811838 3.685663-0.819036 3.583283-2.661868 7.064187-7.985603 4.914217z" fill="#C9C9CD" p-id="3931"></path><path d="M132.991002 570.15157c0 2.04759-1.433313 1.433313-2.661868 1.638072s-1.638072-1.535693-1.638072-2.252349 1.535693-2.04759 2.661867-1.842832 2.457109 0.716657 1.638073 2.457109z" fill="#676C7A" p-id="3932"></path><path d="M306.217157 252.365527c-1.842831 0-1.945211-0.819036-1.945211-1.945211a2.25235 2.25235 0 0 1 2.252349-2.14997c0.921416 0 2.25235 0 2.047591 2.04759s-0.204759 2.457109-2.354729 2.047591z" fill="#656A78" p-id="3933"></path><path d="M109.853229 436.546291s-0.614277 0.614277-1.842831 0.716656-2.14997-1.126175-2.354729-2.457108 1.126175-1.740452 1.945211-1.740452 2.457109 0.921416 2.252349 3.480904z" fill="#646977" p-id="3934"></path><path d="M116.815037 700.173565c-1.638072 0-1.945211-1.023795-1.842831-2.252349s0.511898-2.04759 1.740451-1.945211a2.14997 2.14997 0 0 1 2.25235 2.14997c0 1.330934-0.716657 2.14997-2.14997 2.04759z" fill="#656A78" p-id="3935"></path><path d="M171.690462 488.35033c0 1.842831-0.921416 2.14997-1.945211 2.14997a2.04759 2.04759 0 0 1-2.14997-2.14997 2.14997 2.14997 0 0 1 2.252349-2.047591 2.559488 2.559488 0 0 1 1.842832 2.047591z" fill="#6D727F" p-id="3936"></path><path d="M295.979204 167.69766s-0.819036 0.819036-2.14997 0.614278-1.740452-1.535693-1.740452-2.559488a1.842831 1.842831 0 0 1 2.25235-1.433314c0.921416 0.204759 2.457109 0.511898 1.638072 3.378524z" fill="#6C707E" p-id="3937"></path><path d="M162.885823 694.030794a2.764247 2.764247 0 0 1-2.14997 2.354729c-1.638072 0.511898-1.433313-0.716657-1.740452-1.535693s0.819036-2.04759 1.740452-2.354729 1.535693 0.511898 2.14997 1.535693z" fill="#6E7380" p-id="3938"></path><path d="M191.142571 382.694661c0.819036 0 2.04759 0.614277 1.945211 1.842832a2.04759 2.04759 0 0 1-2.252349 2.04759c-1.126175 0-1.842831-0.511898-1.842832-1.740452a2.04759 2.04759 0 0 1 2.14997-2.14997z" fill="#6B707D" p-id="3939"></path><path d="M170.461908 274.684263a2.14997 2.14997 0 0 1 1.740452-1.945211 1.842831 1.842831 0 0 1 2.04759 2.047591c0 0.921416 0 1.945211-1.842831 1.945211s-1.535693-1.228554-1.945211-2.047591z" fill="#717683" p-id="3940"></path><path d="M140.567087 609.977205c-0.614277 1.023795 0 2.25235-1.842832 2.354729s-1.740452-0.716657-2.04759-1.740452 1.228554-1.638072 1.842831-2.559488z" fill="#727784" p-id="3941"></path><path d="M834.290742 670.585883c-17.711658-50.268346-16.175965-98.796241 12.695061-144.969406a66.956209 66.956209 0 0 1 8.702259-11.466507 80.879824 80.879824 0 0 1 4.095181 20.475905 270.589082 270.589082 0 0 1 2.14997 49.039792 195.74965 195.74965 0 0 1-13.104579 57.230154c0 1.023795-0.716657 2.14997-1.023795 3.276145-3.583283 7.371326-7.064187 14.742651-10.237952 22.011597a9.214157 9.214157 0 0 1-3.276145 4.40232z" fill="#F5F5F5" p-id="3942"></path><path d="M756.687063 246.325135a11.773645 11.773645 0 0 1 17.814037-10.237952c3.378524 2.04759 4.40232 1.330934 5.630874-1.740452 0.511898-1.433313 1.433313-2.661868 2.04759-3.992802 1.945211-3.992801 6.55229-8.190362 5.323735-11.671266s-6.859428-4.504699-10.237952-6.552289c-8.804639-4.709458-17.609278-9.214157-26.311538-14.128374-2.559488-1.433313-3.583283-1.023795-4.811837 1.433313q-7.371326 14.128374-15.04979 28.05199a12.080784 12.080784 0 0 1-21.909219-2.559489 11.671266 11.671266 0 0 1 3.992802-13.002199 11.056989 11.056989 0 0 1 13.411718-0.921416c3.276145 2.25235 4.095181 1.023795 5.528494-1.740452 6.142771-11.773645 12.592681-23.342531 18.735453-35.116177 1.433313-2.661868 2.354729-3.173765 5.118976-1.638072q23.956809 13.206959 48.220756 25.90202c3.071386 1.638072 3.071386 3.071386 1.638072 5.630874-8.59988 15.868826-17.097381 31.840032-25.79964 47.708858a12.080784 12.080784 0 0 1-23.342531-5.426115z" fill="#FEFEFE" p-id="3943"></path><path d="M874.525895 352.185563c-3.276145 2.354729-6.142771 4.095181-8.70226 6.142771s-3.071386 1.126175-3.890422-1.535693c-3.173765-11.466507-3.276145-11.466507 8.292742-14.435512 7.166567-1.842831 7.166567-1.740452 8.907018 5.528494 2.457109 10.237952 5.016597 19.554489 7.371326 29.382923 0.614277 2.457109 0.921416 3.788042 3.992802 1.945211a12.183163 12.183163 0 0 1 17.609278 5.426115 12.285543 12.285543 0 0 1-7.371326 16.995001 12.183163 12.183163 0 0 1-16.073585-8.907019c-1.842831-6.757049-3.378524-13.514097-5.118976-20.475904z" fill="#C4DEFE" p-id="3944"></path><path d="M863.161768 311.95041c-5.426115 2.457109-2.04759-4.40232-4.914218-4.607079 1.638072-1.330934 3.276145-3.788042 4.914218-3.788042s3.378524 2.354729 5.016596 3.685663c-2.764247 0.511898 0.204759 7.064187-5.016596 4.709458z" fill="#CACACD" p-id="3945"></path><path d="M694.337932 190.221156c-5.221356 1.535693-2.04759-4.40232-4.914217-4.607079 1.638072-1.330934 3.276145-3.788042 4.914217-3.890422s3.378524 2.354729 5.016597 3.685663c-2.559488 0.819036-0.204759 7.268946-5.016597 4.811838z" fill="#CBCBCF" p-id="3946"></path><path d="M855.073785 661.269346a3.685663 3.685663 0 0 1-1.945211-4.402319c2.04759-1.433313 3.685663-1.126175 4.709458 1.126174s-0.716657 3.173765-2.764247 3.276145z" fill="#838691" p-id="3947"></path><path d="M884.456709 665.978804c0 1.740452 0 2.969006-2.457109 2.764247s-1.842831-0.614277-2.14997-1.842831 1.126175-2.14997 2.25235-2.25235a2.354729 2.354729 0 0 1 2.354729 1.330934z" fill="#626775" p-id="3948"></path><path d="M867.768846 532.066387c0 0.921416 0 2.457109-1.842831 2.354729a2.14997 2.14997 0 0 1-2.25235-2.14997 2.04759 2.04759 0 0 1 1.945211-2.354729 1.945211 1.945211 0 0 1 2.14997 2.14997z" fill="#6A6F7D" p-id="3949"></path><path d="M777.674865 288.30074c0 1.228554-0.716657 2.354729-2.25235 2.354729s-2.25235-0.511898-2.14997-1.945211a2.457109 2.457109 0 0 1 2.047591-2.354729c1.330934-0.614277 1.842831 0.921416 2.354729 1.945211z" fill="#696E7C" p-id="3950"></path><path d="M750.544291 230.558688c0 1.842831 0 2.661868-2.252349 2.866627s-1.535693-1.023795-1.740452-1.945211 0.921416-2.04759 1.842831-2.14997 2.25235 0.307139 2.14997 1.228554z" fill="#676C7A" p-id="3951"></path><path d="M900.018396 543.020996c1.433313 0 2.25235 1.228554 2.354729 2.457108a1.535693 1.535693 0 0 1-1.740452 1.842832c-1.023795 0-1.945211 0-2.04759-1.535693a3.890422 3.890422 0 0 1 1.433313-2.764247z" fill="#6D727F" p-id="3952"></path><path d="M837.669266 428.04879c0.716657 0.921416 1.842831 1.638072 1.842832 2.354729a1.842831 1.842831 0 0 1-2.25235 2.047591 1.945211 1.945211 0 0 1-1.638072-2.14997c0.204759-1.228554 1.228554-1.228554 2.04759-2.25235z" fill="#717683" p-id="3953"></path><path d="M577.113377 259.941612a4.29994 4.29994 0 0 0 4.607079-3.378525c4.607079 2.04759 6.34753 6.654669 3.173765 9.009399s-6.859428-1.023795-7.780844-5.630874z" fill="#D8D7D8" p-id="3954"></path><path d="M239.465707 865.311738c-3.173765-4.607079-0.921416-7.473705 2.764247-10.237953 1.126175 2.04759 3.378524 2.661868 5.118976 3.890422-1.535693 1.740452-1.535693 3.992801-2.252349 6.040392a5.733253 5.733253 0 0 0-5.630874 0.307139z" fill="#D6D5D6" p-id="3955"></path><path d="M309.083783 863.161768c-1.330934 0.819036 0 3.480904-2.866626 2.866626a3.173765 3.173765 0 0 1-2.764248-3.071385c0-1.126175 1.740452-2.25235 2.354729-2.047591s2.764247 0.716657 3.276145 2.25235z" fill="#888C96" p-id="3956"></path><path d="M391.294541 812.483903c0 1.228554-0.614277 2.457109-2.04759 2.559488s-2.661868-1.228554-2.969007-2.661867 1.228554-1.842831 2.14997-1.945211 2.25235 0.819036 2.866627 2.04759z" fill="#9B9EA5" p-id="3957"></path><path d="M456.510298 794.260348c-13.411718-2.969006-26.823435-5.835633-40.030394-10.237952a262.193961 262.193961 0 0 1-96.339132-53.442112 15.868826 15.868826 0 0 1-1.330934-1.535693c2.457109-2.354729 5.630874-1.638072 8.497501-1.638072h119.784043a18.530694 18.530694 0 0 0 19.656868-19.861628v-40.95181c0-10.237952 0-10.237952 10.237953-10.237952h71.665667c7.985603 0 8.907019 0.921416 9.009398 8.804639v40.95181a19.45211 19.45211 0 0 0 21.704459 21.602079h122.65067c2.866627 0 6.040392-0.716657 8.59988 1.535693a164.523895 164.523895 0 0 1-29.178165 23.035393l-6.654669 4.40232a74.839432 74.839432 0 0 0-30.713857-16.687863 62.963407 62.963407 0 0 0-76.272745 50.473106c0 1.638072-0.716657 3.276145-1.126175 4.811837a10.237952 10.237952 0 0 1-6.347531 2.457109c-5.528494 0.921416-11.159368 1.330934-16.790242 1.945211a7.268946 7.268946 0 0 1-5.733253-1.228555l-7.780844-11.773645a178.345131 178.345131 0 0 0 30.713857-16.073585 10.237952 10.237952 0 0 0 5.835633-11.056989 10.237952 10.237952 0 0 0-9.214157-8.4975 51.189762 51.189762 0 0 0-28.154369 4.095181 273.14857 273.14857 0 0 0-36.242351 16.483103l-4.811838 2.457109a38.69946 38.69946 0 0 0-4.095181-21.090182 15.766447 15.766447 0 0 0-5.630874-6.245151 8.907019 8.907019 0 0 0-14.640272 5.528494 92.141572 92.141572 0 0 0-2.764247 22.113977 33.375725 33.375725 0 0 1-4.504699 19.861628z" fill="#F9E7DA" p-id="3958"></path><path d="M538.413917 798.253149l28.871026-3.173765a72.279944 72.279944 0 0 0 7.166567 35.116177 62.963407 62.963407 0 0 0 69.618076 32.044791h1.433313a104.529494 104.529494 0 0 1-9.623675 14.742651q-20.475905 30.09958-40.951809 60.096781a189.29974 189.29974 0 0 0-11.466507-59.072985 61.427714 61.427714 0 0 0-25.390122-34.297141 84.258348 84.258348 0 0 0-14.230754-6.757049 49.44931 49.44931 0 0 0-5.630874-36.344731 7.883223 7.883223 0 0 1 0.204759-2.354729z" fill="#F14E4E" p-id="3959"></path><path d="M739.077784 828.352729c1.433313 0 2.661868 1.126175 2.559489 2.35473s0 2.866627-1.945211 2.559488-2.559488-0.716657-2.866627-2.14997 1.126175-2.14997 2.252349-2.764248z" fill="#898D98" p-id="3960"></path><path d="M855.585683 774.910618c0 1.126175-0.921416 2.04759-2.354729 2.252349s-1.535693-1.330934-1.842832-2.252349 1.023795-2.04759 1.945211-2.047591a2.14997 2.14997 0 0 1 2.25235 2.047591z" fill="#8B8F9A" p-id="3961"></path><path d="M672.326335 832.345531a49.961208 49.961208 0 0 1-30.09958 19.656869 52.315937 52.315937 0 0 1-56.10398-79.344132 29.690062 29.690062 0 0 1 8.292742-10.237952 117.736453 117.736453 0 0 1 18.325935-9.623675 51.189762 51.189762 0 0 1 68.69666 50.575485 56.103979 56.103979 0 0 1-9.111777 28.973405z" fill="#C7CAC9" p-id="3962"></path><path d="M672.326335 832.345531c1.535693-6.142771 4.811838-11.466507 6.245151-17.711658a51.189762 51.189762 0 0 0-30.713858-60.711058 53.74925 53.74925 0 0 0-47.606478 6.142772c-1.638072 0.921416-2.661868 3.583283-5.323735 2.14997a52.827834 52.827834 0 0 1 88.558288 38.187562 46.173165 46.173165 0 0 1-11.159368 31.942412z" fill="#FCFCFC" p-id="3963"></path><path d="M694.337932 891.213757a4.095181 4.095181 0 0 1 3.173766 2.559488 1.740452 1.740452 0 0 1-2.047591 2.14997 3.173765 3.173765 0 0 1-2.969006-2.764247c-0.10238-1.126175 0.819036-1.638072 1.842831-1.945211z" fill="#A0A2A9" p-id="3964"></path><path d="M277.346131 673.759648a136.267147 136.267147 0 0 1-12.89982-75.965607 181.109378 181.109378 0 0 1 53.237352-107.293741 267.005799 267.005799 0 0 1 144.047991-76.989402 254.925015 254.925015 0 0 1 56.411117-4.914217 275.29854 275.29854 0 0 1 173.226155 62.758648 203.530494 203.530494 0 0 1 67.058588 94.70106 143.331334 143.331334 0 0 1-7.166566 109.955609 10.237952 10.237952 0 0 1-3.276145 4.19756v-77.706059c0-1.740452 1.945211-2.04759 3.378524-2.252349-1.638072-2.14997-5.835633 0.819036-6.552289-3.276145a15.459308 15.459308 0 0 0-11.466507-15.254549c-4.29994-1.433313-8.907019 0-13.206959-1.842832-1.945211-1.228554-1.842831-3.378524-2.04759-5.323735-1.126175-7.371326-2.354729-14.640272-2.661868-21.294941 0 7.473705-1.638072 15.664067-2.764247 23.854429a3.890422 3.890422 0 0 1-3.173765 3.378525 42.9994 42.9994 0 0 1-8.497501 0h-122.855428a19.247351 19.247351 0 0 0-19.656869 19.656868v24.980604c0 8.292741-0.921416 9.214157-9.214157 9.214157h-73.303739c-7.985603 0-8.907019-0.921416-8.907019-8.907018v-23.956809a19.247351 19.247351 0 0 0-20.475905-20.987802H298.026795a18.121176 18.121176 0 0 0-17.916417 19.34973v65.420516c-0.819036 3.276145-0.10238 6.34753-2.764247 8.4975z" fill="#F9E7DA" p-id="3965"></path><path d="M277.346131 673.759648c0-23.75205 0.716657-47.606479 0-71.665667a21.294941 21.294941 0 0 1 23.137772-22.933013h145.276545a20.475905 20.475905 0 0 1 22.523495 22.421116v27.94961c0 2.969006 0.614277 3.992801 3.788043 3.992801h80.879824c2.764247 0 3.685663-0.819036 3.685663-3.583283V600.967806a20.475905 20.475905 0 0 1 21.806838-21.704459h133.093381c2.661868 7.473705 0 15.254549-7.064187 16.278345s-16.483103 3.890422-23.64967 5.118976a263.934413 263.934413 0 0 1 27.335333 5.733253 5.221356 5.221356 0 0 1 3.890422 4.709458c1.638072 11.876025 4.19756 23.547291 4.709458 35.525695 0 0.716657 0.819036 0 0 0 0.819036-11.568886 2.559488-23.137772 4.095181-34.604279a6.44991 6.44991 0 0 1 4.607079-5.938012c6.245151-1.842831 12.592681-2.969006 18.940212-4.40232a2.969006 2.969006 0 0 1 3.583283 1.023795v107.191362a19.656869 19.656869 0 0 1-20.475905 19.144971H577.727654a19.759248 19.759248 0 0 1-21.192561-21.192561V662.395521c0-3.685663-0.614277-5.118976-4.811838-5.118976h-78.832233c-3.788042 0-4.709458 0.921416-4.709458 4.709458v45.968406a19.656869 19.656869 0 0 1-21.192562 21.090182H298.436313a19.34973 19.34973 0 0 1-20.475905-20.475905q-0.409518-17.506899-0.614277-34.809038z" fill="#2C1919" p-id="3966"></path><path d="M747.575285 603.117776a189.504499 189.504499 0 0 0-23.75205 5.016597c-2.25235 0-1.842831 2.457109-2.04759 3.992802-0.921416 6.44991-1.740452 12.797441-2.559488 19.24735a184.897421 184.897421 0 0 1-3.480904 18.837833c-1.330934-8.4975-2.559488-16.892621-3.890422-25.390122-0.819036-5.426115 0-12.080784-3.071386-15.766447s-10.237952-2.764247-15.04979-3.992802l-18.428314-4.095181c10.85223-2.661868 20.475905-5.016597 29.792441-7.166566 3.173765-0.716657 4.914217-1.740452 4.811838-5.426115a77.808438 77.808438 0 0 0 0.716657-8.907019l3.992801-29.178164h1.126175l4.29994 29.178164a8.292741 8.292741 0 0 1 2.04759 5.938013c0 4.504699 2.457109 6.44991 6.65467 7.064187s7.473705 1.433313 11.159368 2.252349c1.945211 0 3.992801 0.614277 5.016596 2.661868a50.575485 50.575485 0 0 1 9.316537 2.047591c-1.638072 2.354729-4.709458 1.228554-6.44991 2.866626z" fill="#FEFEFE" p-id="3967"></path><path d="M792.519896 211.106579l-2.661868-1.330934c-11.671266-5.938012-22.933013-12.695061-35.013797-18.633074-3.788042-1.945211-2.04759-3.480904-0.921416-5.630873s2.04759-3.992801 5.323736-2.14997c11.568886 6.55229 23.342531 12.592681 34.911417 18.940212 1.023795 0.614277 3.378524 0.819036 2.047591 3.071385s-1.638072 4.504699-3.685663 5.733254z" fill="#262C3E" p-id="3968"></path><path d="M553.873225 707.954409a59.892022 59.892022 0 0 1-43.920815 30.713857 26.925815 26.925815 0 0 1-24.878225-11.978404c-0.819036-1.023795-3.071386-3.071386 0.511898-3.890422l66.341931-14.845031z" fill="#F4ACAB" p-id="3969"></path><path d="M745.220556 597.589282c-6.44991-1.433313-12.797441-2.969006-19.247351-4.095181-3.173765-0.511898-4.607079-1.842831-4.709458-5.118976s-0.614277-5.835633-0.921415-8.804639a37.880424 37.880424 0 0 1 13.821235 1.023795 19.34973 19.34973 0 0 1 12.285543 13.616477c0.921416 1.433313 1.638072 3.480904-1.228554 3.378524z" fill="#2D1A1A" p-id="3970"></path><path d="M578.034793 685.021396c-23.342531-33.170966-3.276145-86.10118 34.297141-90.810638-28.461508 23.956809-42.692262 52.930214-34.297141 90.810638zM328.126375 594.517896c-27.335333 23.75205-40.95181 52.418316-33.887623 89.377325a53.74925 53.74925 0 0 1-6.040392-52.930214 61.427714 61.427714 0 0 1 39.928015-36.447111z" fill="#ABA4A4" p-id="3971"></path></svg>