<?xml version="1.0" standalone="no"?><!DOCTYPE svg PUBLIC "-//W3C//DTD SVG 1.1//EN" "http://www.w3.org/Graphics/SVG/1.1/DTD/svg11.dtd"><svg t="1550212846915" class="icon" style="" viewBox="0 0 1024 1024" version="1.1" xmlns="http://www.w3.org/2000/svg" p-id="4249" xmlns:xlink="http://www.w3.org/1999/xlink" width="200" height="200"><defs><style type="text/css">@font-face { font-family: "Roboto Condensed"; src: url("chrome-extension://lienonopcegannlgdkgonpofbhgmclcc/RobotoCondensed-Regular.ttf"); }
</style></defs><path d="M1023.414736 512.053206V1019.424296c0 3.72441-0.851294 4.575704-4.575705 4.575704H5.26738c-3.72441 0-4.575704-0.851294-4.575704-4.575704V4.575704C0.691676 0.851294 1.54297 0 5.26738 0h1013.678063c3.72441 0 4.575704 0.851294 4.575704 4.575704q-0.212823 253.685545-0.106411 507.477502z" fill="#FDFEFD" p-id="4250"></path><path d="M200.958537 189.519277a466.296165 466.296165 0 0 1 43.522394-36.818456 417.666009 417.666009 0 0 1 64.91115-40.117219 448.844643 448.844643 0 0 1 82.362673-31.923517 470.126987 470.126987 0 0 1 56.717448-11.811701c12.237348-1.808999 24.581108-2.766705 37.031279-3.405175 8.619349 0 17.238699-0.957705 25.858049-0.851294a456.612699 456.612699 0 0 1 114.499012 15.642523 461.61405 461.61405 0 0 1 81.724203 31.178635 443.09841 443.09841 0 0 1 86.193495 55.546919 490.345215 490.345215 0 0 1 45.224981 42.564688 272.307596 272.307596 0 0 1 22.984932 27.241401 7.661644 7.661644 0 0 1-6.065468 1.489764H806.015588a15.855347 15.855347 0 0 1-10.641173-3.08594 59.271329 59.271329 0 0 1-10.002701-10.641172 231.339083 231.339083 0 0 0-139.292944-74.488205 234.105788 234.105788 0 0 0-124.608127 15.642523 263.369012 263.369012 0 0 0-34.903045 18.089993 8.193703 8.193703 0 0 1-5.426997 2.021822 22.452873 22.452873 0 0 1-5.107763-10.641172c-0.851294-2.553881 0.744882-3.617999 3.08594-3.830822s6.597527 0 10.002702 0 4.788527 0 2.660293-4.36288a650.70768 650.70768 0 0 1-26.922166-61.080329c-3.192352-7.980879-6.278292-15.961758-9.683467-24.793931-4.575704 10.641172-8.300114 21.282344-12.556583 31.923517a554.192248 554.192248 0 0 1-24.368284 54.482801c-1.808999 3.405175 0 3.937234 2.553881 3.937234h9.470644c3.192352 0 5.001351 1.170529 3.511586 5.320586-3.617999 9.789878-7.768056 19.366933-11.811701 29.0504q-14.684818 35.435103-29.156812 70.976619a32.77481 32.77481 0 0 1-3.511586 7.129585 7.448821 7.448821 0 0 1-3.298764 2.128235c-11.598878 4.469292-23.091344 9.151408-34.264574 14.578405a6.384703 6.384703 0 0 1-4.256469 0.957706 8.193703 8.193703 0 0 1-3.298763-4.788528c-9.044996-21.282344-17.557934-42.564689-26.390107-63.847033-2.660293-6.491115-1.915411-7.448821 5.107762-7.555232h9.470643c2.234646 0 3.08594-0.957705 1.915411-3.08594a882.365998 882.365998 0 0 1-39.478748-91.939728l-0.851294-0.851293c-2.660293 7.555232-5.746233 14.578406-8.406526 21.814403-5.001351 13.407877-10.641172 26.496519-16.280994 39.58516-0.851294 1.915411-1.276941 4.788527-4.575704 4.150057-10.109114-1.276941-20.218227 0-30.32734-0.532058a180.899927 180.899927 0 0 1-29.263224-1.064118c-2.021823-0.851294-5.107763-0.212823-4.150057-3.937233z" fill="#D5EDCE" p-id="4251"></path><path d="M950.522706 587.392705a72.040736 72.040736 0 0 1-4.469292 24.793931c-3.405175 9.470643-4.256469 19.260522-7.235997 28.731165a467.573106 467.573106 0 0 1-32.561987 78.957498 388.615608 388.615608 0 0 1-38.414632 59.803387c-2.553881-0.63847-4.043645-2.660293-6.17188-4.043645a20.005404 20.005404 0 0 0-27.134989 3.830822 97.260314 97.260314 0 0 1-6.17188 7.661644 55.01486 55.01486 0 0 0-19.15411 10.641172 1.808999 1.808999 0 0 1-2.341058 0 27.134989 27.134989 0 0 1 2.341058-15.961758c1.383352-3.08594 0-3.937234-2.553881-3.72441-10.109114 0.744882-10.641172-1.170529-6.17188-10.641173 7.235997-15.642523 13.6207-31.923517 20.324639-47.459628q7.555232-17.877169 15.323288-35.647926c1.915411-4.362881 1.915411-4.256469-3.08594-4.362881a20.643874 20.643874 0 0 1-8.832173-0.744882c-1.489764-4.362881 2.766705-6.597527 3.617999-10.002702a180.899927 180.899927 0 0 0 11.386054-22.559285 23.623402 23.623402 0 0 1 2.873116-5.214174 262.517718 262.517718 0 0 0 14.471995-22.772109c-2.553881-1.064117-5.959056 0-6.491115-3.617998a376.271849 376.271849 0 0 0 5.639821-39.904396 115.669542 115.669542 0 0 1 5.214174-10.641172 83.001143 83.001143 0 0 0 6.278292-12.556583 20.218227 20.218227 0 0 0-7.235997 0c-3.617999 0-4.575704-0.957705-3.511587-4.362881a133.440299 133.440299 0 0 1 5.639821-13.727112c1.170529-3.08594 2.234646-6.17188 3.08594-9.364232 7.235997-15.536111 13.088642-31.923517 19.898992-47.246804 1.170529-2.660293 0-3.405175-2.341058-3.617999-6.597527 0-6.703938-0.957705-3.830822-7.129585 6.384703-13.514289 12.024525-27.347813 17.345111-41.287748a34.690221 34.690221 0 0 1 1.276941-3.298764c0-1.064117 0.957705-2.234646 2.341057-2.341057s2.234646 1.170529 2.979529 2.341057a15.216876 15.216876 0 0 1 0.957705 2.234647 462.784579 462.784579 0 0 0 18.302816 42.564688c2.553881 5.107763 2.021823 6.17188-3.511587 6.384704s-3.617999 2.44747-2.553881 5.107762c9.044996 22.133638 18.196404 44.160865 27.134989 66.400915a31.072223 31.072223 0 0 1 1.276941 3.192351c0.744882 2.660293 0 3.830822-2.979528 3.724411a45.863452 45.863452 0 0 0-7.768056-0.532059c5.320586 13.088642 12.98223 23.836226 16.813052 36.392809z" fill="#37A049" p-id="4252"></path><path d="M126.151096 737.85888a419.155773 419.155773 0 0 1-40.968513-91.301258l-5.746233-18.515639c-1.702588-3.192352 0-5.746233 1.702588-8.300115 7.768056-12.556583 15.4297-25.219578 23.091344-37.882573l1.064117-1.702587c2.341058-4.150057 2.021823-4.575704-2.766705-4.682116H82.628702c-6.597527 0-6.597527-1.276941-3.937234-6.597527q19.473345-39.585161 39.797984-78.744674c1.276941-2.341058 4.150057-5.214174 2.553882-7.555232s-5.001351 0-7.555233 0c-8.938585 0.63847-9.151408 0-5.852644-7.980879 12.875818-31.923517 26.496519-63.847033 39.478749-96.40902 2.553881-6.278292 2.553881-6.278292-4.043646-6.384704-9.364232 0-9.364232 0-5.107763-8.619349a158.021407 158.021407 0 0 0 7.448821-15.748935c7.235997-15.323288 12.875818-31.285046 19.260522-46.927569a30.327341 30.327341 0 0 1 1.27694-3.192352c1.276941-2.44747 2.766705-2.766705 4.362881 0a20.537462 20.537462 0 0 1 1.702587 3.617999 652.835914 652.835914 0 0 0 27.879872 65.868855c2.021823 3.937234 1.383352 4.894939-2.979529 5.214175h-2.979528c-7.342409 0-7.448821 0-4.469292 7.129585 5.746233 13.939936 11.598878 27.879871 17.345111 41.819807a18.196404 18.196404 0 0 1 1.808999 5.639821 157.59576 157.59576 0 0 1-10.641172 20.537462 286.14112 286.14112 0 0 0-22.984932 57.036683c-1.064117 3.830822-2.341058 7.555232-3.08594 11.492466a278.6923 278.6923 0 0 0-7.023174 66.72015 7.661644 7.661644 0 0 1-0.63847 3.405175c-4.469292 6.384703-7.874467 13.407877-12.237348 19.898992-1.064117 1.596176-3.08594 3.298763-1.915411 5.320586s3.298763 0.851294 5.107762 0.957706a49.481451 49.481451 0 0 1 12.34376 0.744882 52.035332 52.035332 0 0 1 5.639821 19.047698 185.794866 185.794866 0 0 1-11.598877 28.943988c-10.641172 24.368284-21.282344 48.523745-31.923517 72.998442-0.319235 1.702588-0.532059 4.256469-3.511587 4.150057z" fill="#006738" p-id="4253"></path><path d="M423.146212 949.192559a313.169698 313.169698 0 0 1-44.586511-10.641172 389.892549 389.892549 0 0 1-57.143095-22.24005c-1.064117-1.808999 0-3.192352 0.744882-4.682115a409.897953 409.897953 0 0 1 56.717448-84.384496 187.284631 187.284631 0 0 1 12.662995-13.939935 10.641172 10.641172 0 0 1 4.894939-3.405175 102.793723 102.793723 0 0 1 19.047698 3.085939 10.641172 10.641172 0 0 0 8.406526-1.702587 47.991687 47.991687 0 0 0 16.706641-21.282344 53.205861 53.205861 0 0 0 2.766704-31.923517 85.129378 85.129378 0 0 1-0.63847-17.345111 9.577055 9.577055 0 0 1 5.426998-9.89629 12.875818 12.875818 0 0 1 13.195053 1.702588 31.923517 31.923517 0 0 1 10.641173 16.493817c1.383352 4.894939 1.489764 5.001351 5.639821 1.702587a207.290034 207.290034 0 0 1 39.58516-25.645225 55.653331 55.653331 0 0 1 14.684818-4.682116 14.152759 14.152759 0 0 1 15.216876 6.916762 12.450171 12.450171 0 0 1-4.256469 15.110465 213.781149 213.781149 0 0 1-20.218227 16.174582c-4.682116 3.08594-4.788527 3.617999-0.957705 7.874467a73.104853 73.104853 0 0 1 16.813052 27.986283 15.323288 15.323288 0 0 1 0.63847 2.873116 31.072223 31.072223 0 0 1-5.746233 23.836226 44.054453 44.054453 0 0 0-9.044996 9.364232 25.751637 25.751637 0 0 1-15.536112 8.300114 44.160865 44.160865 0 0 0-29.795282 20.218227 466.189754 466.189754 0 0 0-43.948041 71.615089c-2.553881 5.214174-4.469292 10.641172-6.703938 16.06817-0.957705 1.808999-2.128234 3.72441-5.214175 2.447469z" fill="#E94949" p-id="4254"></path><path d="M207.449652 426.604593c-7.342409-17.557934-14.578406-35.115868-21.920815-52.56739-1.064117-2.553881 0-2.766705 2.021823-2.766705h12.98223a706.786657 706.786657 0 0 1-32.455575-75.765146c-4.575704 11.598878-8.725761 22.24005-13.088642 32.881222a152.275174 152.275174 0 0 1-8.725761 19.898992c-15.004053-1.489764-30.114517 0-45.11857-0.744882a12.024525 12.024525 0 0 1-5.852645-0.532059 259.857425 259.857425 0 0 1 16.387405-37.669749 433.095708 433.095708 0 0 1 29.263224-48.949392 445.758703 445.758703 0 0 1 42.564688-53.205861c5.746233-5.959056 10.641172-12.237348 17.451523-17.664346 3.617999 3.617999 8.406526 2.766705 12.556583 2.873116h47.56604c1.808999 0 4.150057-0.851294 4.682115 2.128235s-0.744882 5.53341-1.808999 7.874467c-2.873116 6.384703-5.959056 12.662995-9.364231 18.728463-1.596176 2.766705-1.064117 3.937234 2.128234 3.830822h10.002702c5.426998 0 6.278292 1.276941 4.362881 6.384703-3.937234 10.641172-8.512938 21.282344-12.769407 31.391458q-18.089993 43.948041-36.073574 88.002494c-2.234646 5.426998-4.575704 10.641172-6.703938 16.06817s-1.702588 5.320586 3.72441 4.575704l10.641172-1.27694c1.915411 0 4.150057-1.064117 5.639821 0.744882s0 4.150057-0.957705 5.959056c-6.065468 12.237348-12.130936 24.368284-18.196404 36.499221a24.793931 24.793931 0 0 0-1.383353 3.192352 21.282344 21.282344 0 0 1-7.555232 10.109113z" fill="#D9EFC9" p-id="4255"></path><path d="M523.918113 829.479372c1.383352-4.150057 5.001351-6.278292 7.980879-8.938584 10.641172 0 21.282344-0.957705 31.178635-1.809a458.102463 458.102463 0 0 0 55.440507-9.577055 13.407877 13.407877 0 0 1 3.937233 0c3.405175 0.63847 5.852645 3.192352 9.044997 4.150058a445.333056 445.333056 0 0 1 49.268627 30.965811 413.835187 413.835187 0 0 1 54.695625 48.523745c1.064117 1.064117 2.766705 2.128234 1.702588 4.150057a407.450483 407.450483 0 0 1-78.425439 36.605632 6.278292 6.278292 0 0 1-4.043646-3.405175c-5.852645-9.044996-12.237348-17.664346-18.409228-26.283695 0-0.63847-0.532059 0 0 0a206.651564 206.651564 0 0 1 8.725761 31.923517 2.341058 2.341058 0 0 1-0.63847 1.808999 285.821885 285.821885 0 0 1-39.053102 10.641172 52.354567 52.354567 0 0 1-12.662995 2.128234c-4.469292 0.744882-3.405175-2.873116-3.405175-4.894939a181.644809 181.644809 0 0 0-2.128234-27.773459 173.876754 173.876754 0 0 0-14.259171-50.758392 58.526447 58.526447 0 0 0-31.285046-29.156811c-4.256469-1.808999-8.619349-3.511587-12.875819-5.214175-2.021823-0.425647-3.937234-0.851294-4.788527-3.08594z" fill="#ED4B4B" p-id="4256"></path><path d="M95.291697 347.008625a9.683467 9.683467 0 0 1 5.746233-1.489764h41.074925c1.808999 0 4.150057-0.744882 4.682115 2.234646a160.894524 160.894524 0 0 1-10.641172 23.091344h12.237348c3.937234 0 3.617999 0.851294 2.44747 3.617998l-18.196405 44.054453-24.900343 60.54827c0 0.744882 0 1.489764-0.957705 2.873117l18.622051-2.021823-47.459628 94.387197h28.624753c3.511587 0 4.043645 0.744882 2.128235 3.72441-9.789878 15.110465-18.302816 29.901694-27.667048 44.160865a7.555232 7.555232 0 0 0-1.596176 5.53341 139.186532 139.186532 0 0 1-7.023173-26.815754 518.757144 518.757144 0 0 1-8.406526-69.699678 402.342721 402.342721 0 0 1 0.532058-51.077627 441.182999 441.182999 0 0 1 22.878521-113.328484c2.341058-6.384703 5.214174-12.98223 7.874467-19.79258z" fill="#E3F4BB" p-id="4257"></path><path d="M950.522706 587.392705l-19.473345-37.563338 13.301465 1.383353-13.301465-31.923517c-5.426998-14.152759-10.641172-28.518341-17.025876-42.351865-1.596176-3.830822-0.744882-4.575704 2.979529-4.256469h6.597526a522.587966 522.587966 0 0 1-23.091343-53.205861 556.639717 556.639717 0 0 1-22.665697 53.737919 68.741972 68.741972 0 0 0 7.023174 0c2.979528 0 3.937234 0.63847 2.766704 3.405175l-19.686168 47.459628a2.766705 2.766705 0 0 1-2.021823 2.021823 8.938585 8.938585 0 0 1-3.298763-4.256469c-10.641172-20.537462-21.282344-41.181336-30.965811-62.144445a2.44747 2.44747 0 0 1 0-1.489764 10.641172 10.641172 0 0 1 9.044996-0.851294c3.72441 0.744882 3.830822-0.532059 2.766705-3.617999a73.743323 73.743323 0 0 1-5.959057-16.174581 54.057155 54.057155 0 0 1 1.915411-10.641173 233.148083 233.148083 0 0 0 4.89494-33.41328c0-2.128234 0-4.469292 2.128234-5.746233a67.677855 67.677855 0 0 1 11.918113 0h72.679206a11.279643 11.279643 0 0 1 8.087291 1.596175 441.927881 441.927881 0 0 1 12.024524 53.950744 466.828224 466.828224 0 0 1 4.788528 91.407669 317.00052 317.00052 0 0 1-5.53341 49.587862c0.319235 0.744882 0.212823 1.915411 0.106412 3.08594z" fill="#E4F4BA" p-id="4258"></path><path d="M939.66871 388.934844h-79.915203a49.907098 49.907098 0 0 1-13.833524-0.851294c-1.915411-1.915411-1.489764-4.362881-1.383352-6.597527a220.059441 220.059441 0 0 0-15.4297-86.619142 224.31591 224.31591 0 0 0-30.646576-54.482801c-1.489764-2.021823-3.937234-3.72441-3.405175-6.81035a25.113166 25.113166 0 0 0 15.642523 2.979528h51.077627a448.738231 448.738231 0 0 1 43.522394 66.400914 490.025979 490.025979 0 0 1 34.051751 83.42679 12.875818 12.875818 0 0 1 0.319235 2.553882z" fill="#DCF0C5" p-id="4259"></path><path d="M523.918113 829.479372a290.610413 290.610413 0 0 1 26.815754 11.70529 49.481451 49.481451 0 0 1 19.79258 18.834875 146.954588 146.954588 0 0 1 17.238699 50.971214 183.985867 183.985867 0 0 1 2.766705 35.435104c0 1.702588 0 3.405175 2.128234 3.830822a42.564689 42.564689 0 0 1-11.918113 2.447469c-4.043645 0.63847-7.980879 1.596176-12.024524 2.341058l-1.064117-0.957705a94.174374 94.174374 0 0 0-21.282345-26.177284c-10.641172-9.683467-21.282344-19.579757-31.285046-29.901694-2.979528-3.08594-4.682116-3.298763-7.980879 0l-40.542866 36.818456a58.1008 58.1008 0 0 0-13.407877 18.409228 3.192352 3.192352 0 0 1-4.575704 1.276941 254.217604 254.217604 0 0 1-25.858049-4.89494c2.44747 0 3.298763-1.383352 4.043646-3.511586a369.993557 369.993557 0 0 1 51.396861-88.32173c2.128234-2.766705 4.256469-5.426998 6.278292-8.300114a33.519692 33.519692 0 0 1 21.920815-11.386054 41.39416 41.39416 0 0 0 17.557934-8.61935z" fill="#FA665A" p-id="4260"></path><path d="M126.151096 737.85888a85.980671 85.980671 0 0 0 8.832173-19.047698c10.641172-23.197755 20.431051-46.501922 30.540164-69.80609 2.44747-5.53341 4.469292-11.279643 6.703939-17.025876 2.766705 0.63847 2.660293 3.192352 3.298763 5.107763a206.119505 206.119505 0 0 0 14.259171 31.923517 212.823444 212.823444 0 0 0 13.939936 22.346461 249.535488 249.535488 0 0 0 65.017562 62.99574c2.660293 1.808999 6.065468 2.979528 7.129585 6.597526a65.123974 65.123974 0 0 1 0 11.492466c0 2.873116-1.170529 5.53341-4.256469 6.065469s-3.72441-2.341058-4.894939-4.256469a14.046347 14.046347 0 0 1-1.383352-7.448821c-3.08594 4.150057-5.852645 8.300114-8.832173 12.237348-1.489764 2.021823-2.766705 5.320586-5.959057 4.256469s-2.128234-4.150057-2.234646-6.597527c0-6.384703-1.596176-12.769407-1.383352-19.366933-2.979528 5.639821-5.214174 11.386054-7.874468 17.025875-1.276941 2.553881-1.808999 6.916762-4.894939 6.810351s-2.979528-4.682116-3.937234-7.235998c-2.341058-6.384703-3.830822-13.088642-6.065468-19.686168a18.409228 18.409228 0 0 1-7.874467 12.98223c-2.44747 2.128234-4.788527 1.915411-5.746233-1.276941a81.617791 81.617791 0 0 1-4.043646-15.004052 150.572587 150.572587 0 0 1 0.638471 21.282344 15.004053 15.004053 0 0 1 0 4.469292 3.937234 3.937234 0 0 1-2.873117 3.08594c-1.596176 0-2.341058-0.957705-3.192351-2.021823a10.641172 10.641172 0 0 1-1.489765-12.024524c-3.830822 5.426998-7.129585 10.641172-10.641172 15.4297-1.064117 1.383352-2.234646 3.298763-4.36288 2.553881s-2.128234-2.766705-2.234646-4.575704c-0.532059-7.235997-1.170529-14.471994-1.489765-22.87852-3.192352 8.300114-6.81035 15.216876-9.683466 22.346461-0.63847 1.596176-1.489764 3.72441-3.724411 3.511587s-2.128234-2.341058-2.447469-3.937234c-2.021823-8.300114-4.894939-16.387405-7.129586-24.793931-0.744882 7.555232-1.915411 14.897641-2.873116 22.24005a4.043645 4.043645 0 0 1-1.276941 3.08594 271.562714 271.562714 0 0 1-27.560636-40.862101z" fill="#029244" p-id="4261"></path><path d="M392.499636 813.730437a439.586823 439.586823 0 0 0-47.459628 60.441859 433.414943 433.414943 0 0 0-23.623402 41.926218 410.642835 410.642835 0 0 1-93.855139-59.803388A52.460979 52.460979 0 0 1 239.905227 851.293775a1046.559285 1046.559285 0 0 1 145.890471-38.30822c2.553881-0.212823 4.682116-1.383352 6.703938 0.744882z" fill="#91C236" p-id="4262"></path><path d="M392.499636 813.730437c-12.130936 1.596176-23.942637 4.362881-35.86075 6.916762a1070.395511 1070.395511 0 0 0-115.882365 31.923517 36.499221 36.499221 0 0 1-13.195054 3.937234 393.723371 393.723371 0 0 1-55.972565-54.802037 8.300114 8.300114 0 0 1 6.597526-1.596176c28.199106 0 56.398213-0.851294 84.597319 0 34.158163 1.276941 68.316325 0 102.474488 0.957706a286.353944 286.353944 0 0 1 28.943989 7.023173c1.064117 0 2.341058 0.63847 2.021823 2.234646z" fill="#6EB030" p-id="4263"></path><path d="M737.167204 896.518757a238.468669 238.468669 0 0 0-25.006755-25.432401 381.592435 381.592435 0 0 0-51.077627-39.265926c-9.683467-6.278292-19.79258-11.918113-29.68887-17.877169a6.17188 6.17188 0 0 1 5.426998-1.808999H681.833108a6.597527 6.597527 0 0 0 8.406526-5.426998 17.238699 17.238699 0 0 1 15.323288-12.450172 22.665697 22.665697 0 0 1 15.536112 3.617999 12.130936 12.130936 0 0 0 6.703938 1.383352 13.301465 13.301465 0 0 1 11.705289 7.980879 10.641172 10.641172 0 0 0 6.384704 6.065469 10.641172 10.641172 0 0 1 2.234646 6.491115l8.512938 56.078977a53.205861 53.205861 0 0 0 1.489764 7.342409 137.271121 137.271121 0 0 1-20.963109 13.301465z" fill="#91C236" p-id="4264"></path><path d="M367.067235 802.557207c-31.391458 0-62.782916 0.957705-94.067962 0-33.626104-1.170529-67.252208 0-100.878313-0.744882a187.071807 187.071807 0 0 1-18.622051-23.091344 291.036059 291.036059 0 0 1 3.192352-28.837577c4.043645 10.641172 7.023174 21.282344 10.641172 31.923517l12.98223-28.837577a264.752364 264.752364 0 0 1 2.447469 26.390107c0 1.489764 0 3.405175 1.276941 3.937234s2.021823-1.383352 2.766705-2.44747l13.727112-19.15411c0 5.639821-3.298763 10.109114 0 14.365583 0.851294 1.064117 1.383352 3.298763 2.766705 2.979528s2.128234-2.660293 2.128234-4.575704v-20.431051-5.00135a89.066611 89.066611 0 0 1 5.426998 15.642523c0 3.298763 1.383352 4.682116 4.894939 1.596176a19.473345 19.473345 0 0 0 7.342409-16.387406h1.383352l9.364232 31.923517c5.852645-8.938585 7.980879-18.941287 13.301465-27.347813a2.660293 2.660293 0 0 1 1.596176 3.192352c-0.63847 7.342409 1.383352 14.471994 1.064117 21.282344 0 1.276941 0 3.08594 1.064117 3.617999s2.553881-1.170529 3.405176-2.341058c3.617999-4.894939 7.129585-10.002702 10.641172-15.004053 0.63847-0.957705 1.064117-2.021823 2.873116-2.021822-0.851294 3.937234-2.128234 7.874467 0.851294 11.279642 0.957705 1.064117 0.957705 3.830822 3.192352 2.979528a4.788527 4.788527 0 0 0 2.979528-4.788527v-12.450172c1.808999-0.957705 3.192352 0 4.575704 1.064118a367.014029 367.014029 0 0 0 81.192144 37.244102c2.234646 1.064117 5.214174 0.851294 6.491115 4.043646z" fill="#006738" p-id="4265"></path><path d="M821.977346 720.833004c-7.235997 16.813052-14.471994 33.626104-21.282344 50.439156-2.234646 5.214174-2.341058 5.320586 3.298763 5.320587 2.766705 0 6.916762-0.957705 8.087291 0s-1.915411 4.682116-2.44747 7.342408c-0.744882 4.362881-1.383352 8.725761-2.021823 13.088642s-2.873116 6.065468-4.469292 9.044997c-2.44747 4.575704-2.234646 5.320586 2.979528 5.426997h27.241401c2.234646 0 4.682116 0 6.491115 1.489764a149.614881 149.614881 0 0 1-16.280993 16.813053 5.959056 5.959056 0 0 1-5.214175 0c-18.51564-5.001351-37.244103-9.044996-55.972565-12.769407a14.791229 14.791229 0 0 1-6.065468-2.021823 6.065468 6.065468 0 0 1-1.915411-3.937234c-2.44747-17.132287-5.320586-34.264574-7.768056-51.503273a7.768056 7.768056 0 0 1 0-2.979528 19.047698 19.047698 0 0 1 10.002702-7.874468 122.267068 122.267068 0 0 1 14.791229 1.170529c2.44747 0 3.298763-0.851294 2.341058-3.298763a20.111815 20.111815 0 0 1-2.341058-7.342409c0-0.63847 0 0 0 0a79.595968 79.595968 0 0 1 21.282344-19.260522h24.793932a5.53341 5.53341 0 0 1 4.469292 0.851294z" fill="#6EB030" p-id="4266"></path><path d="M747.382729 756.587343c1.383352 9.577055 2.553881 19.260522 4.043645 28.837576s3.298763 20.111815 4.89494 30.114518a9.683467 9.683467 0 0 1 2.341057 5.852644c2.44747 16.600229 5.001351 33.094046 7.555233 49.694275a10.641172 10.641172 0 0 1-0.851294 7.235997c-1.915411 2.341058-5.001351 3.08594-7.342409 4.894939-3.192352-0.744882-2.341058-3.511587-2.660293-5.53341-3.192352-20.537462-6.17188-41.181336-9.25782-61.82521a16.387405 16.387405 0 0 0-0.744882-2.341058 83.213967 83.213967 0 0 1-4.150057-20.005404c-0.63847-2.873116-0.957705-5.852645-1.276941-8.725761-0.957705-7.661644-2.021823-15.323288-3.617998-22.87852-2.873116-20.005404-6.278292-39.904396-8.938585-59.9098-6.703938-42.03263-12.875818-84.06526-19.260522-126.09789-3.298763-21.282344-6.597527-42.564689-9.789878-64.485503-1.383352-6.278292-1.383352-6.278292-7.342409-5.107763-3.937234 0.63847-7.874467 1.383352-11.811701 1.915411a11.705289 11.705289 0 0 1-14.152759-8.61935 11.386054 11.386054 0 0 1 10.641172-12.875818l2.979529-0.532059c16.06817-2.44747 31.923517-5.639821 48.098098-7.44882 8.619349-0.744882 14.471994 4.575704 13.195053 12.130936a10.641172 10.641172 0 0 1-8.406526 8.725761c-4.788527 1.170529-9.683467 1.808999-14.578406 2.660293s-6.17188 1.489764-5.320586 7.023174c8.406526 58.845682 17.238699 117.691364 26.283696 176.74987 0 1.276941 0.532059 2.553881 0.744882 3.937234 2.660293 18.834875 5.639821 37.66975 8.512937 56.504624a17.132287 17.132287 0 0 1 0.212824 10.109114z" fill="#161616" p-id="4267"></path><path d="M765.259898 878.428764l-6.597527-45.650628c-0.851294-5.746233-1.596176-11.492466-2.341057-17.132288 21.282344 4.043645 42.564689 8.512938 63.847033 14.471995a24.793931 24.793931 0 0 0 2.873116 0 358.501091 358.501091 0 0 1-45.224982 39.053102c-4.043645 3.511587-8.300114 6.384703-12.556583 9.257819z" fill="#91C236" p-id="4268"></path><path d="M839.322457 813.730437h-37.137691c-4.150057 0-4.362881-1.064117-2.660293-4.36288s5.214174-7.555232 7.555232-11.492466a38.840278 38.840278 0 0 1 21.282344-10.641172 18.941287 18.941287 0 0 1 16.280994 2.873116c3.617999 2.128234 8.087291 3.937234 8.619349 9.151408a117.797776 117.797776 0 0 1-13.939935 14.471994z" fill="#006738" p-id="4269"></path><path d="M852.943157 798.619973a30.008106 30.008106 0 0 0-25.006755-12.024525 27.454224 27.454224 0 0 1 17.983581-15.429699 21.282344 21.282344 0 0 1 21.282345 8.512937 166.747168 166.747168 0 0 1-14.259171 18.941287z" fill="#029244" p-id="4270"></path><path d="M644.589006 937.380858l-9.789879-37.456926c9.151408 10.641172 16.06817 22.24005 23.942638 32.987634a69.061208 69.061208 0 0 1-14.152759 4.469292z" fill="#92C236" p-id="4271"></path><path d="M449.004261 954.19391a4.256469 4.256469 0 0 0 3.937233-2.128234 466.828224 466.828224 0 0 0 78.851086 3.405175c9.789878 0 19.473345-1.276941 29.156812-2.44747a9.151408 9.151408 0 0 1 7.661644 1.064118v0.957705a459.060168 459.060168 0 0 1-61.293152 3.830822 501.944092 501.944092 0 0 1-56.823859-3.937234 6.17188 6.17188 0 0 1-1.489764-0.744882z" fill="#ECE2AD" p-id="4272"></path><path d="M202.767536 691.995428a137.058298 137.058298 0 0 1-13.727112-21.920815 28.305518 28.305518 0 0 1 2.660293-10.002702 159.617583 159.617583 0 0 0 8.61935-67.145796 141.52759 141.52759 0 0 0-27.667048-75.126676 14.365582 14.365582 0 0 1-2.341058-3.830822 302.954172 302.954172 0 0 1 37.137691-87.364024l6.17188-9.683467a172.493401 172.493401 0 0 1 23.942637-31.923516 351.158682 351.158682 0 0 1 57.781565-53.205861 398.299075 398.299075 0 0 1 46.714746-28.837577 7.129585 7.129585 0 0 1 5.107763-1.489764c13.6207-6.491115 27.560636-12.34376 41.500571-17.983581a14.471994 14.471994 0 0 1 5.959057-3.405175 360.522914 360.522914 0 0 1 88.428141-18.089993c9.789878-0.744882 19.473345-0.63847 29.263223-0.744882a360.31009 360.31009 0 0 1 158.340642 37.350515 347.32786 347.32786 0 0 1 43.948042 25.645225c1.702588 1.170529 4.043645 1.808999 3.830822 4.575704a2.341058 2.341058 0 0 1-1.809 0.63847 90.343552 90.343552 0 0 0-35.328691 2.234646c-7.555232 0.851294-15.004053 2.44747-22.559285 3.192352a26.496519 26.496519 0 0 0-26.602931 21.282344 5.426998 5.426998 0 0 1-1.064117 2.234646 104.815546 104.815546 0 0 1-16.600229 5.001351c-6.491115 2.021823-12.875818 4.150057-19.260521 6.703939a11.918113 11.918113 0 0 0-7.98088 11.918113 138.335238 138.335238 0 0 0 2.873117 30.540164 10.641172 10.641172 0 0 1 0.425647 7.44882c-1.915411 1.808999-4.150057 0.851294-6.065468 0a279.011535 279.011535 0 0 0-183.347397 12.130937 258.474073 258.474073 0 0 0-92.365375 65.336797 183.240985 183.240985 0 0 0-44.4801 83.42679 142.698119 142.698119 0 0 0 25.113167 117.052894c1.276941 1.915411 3.08594 3.511587 3.08594 6.065468s-3.08594 1.596176-4.89494 1.489764a451.292113 451.292113 0 0 1-77.680557-10.641172 17.025876 17.025876 0 0 1-7.129585-2.873116z" fill="#FA665A" p-id="4273"></path><path d="M718.225917 328.492986a252.621428 252.621428 0 0 0-40.010807-25.538814 360.629326 360.629326 0 0 0-105.241193-35.86075 378.932142 378.932142 0 0 0-60.229035-5.53341 14.046347 14.046347 0 0 1-4.469292-7.555232c-8.619349-21.282344-17.664346-42.564689-26.177284-63.847033-0.63847-1.596176-2.128234-3.08594-0.744882-5.001351a239.852021 239.852021 0 0 1 77.893381-33.306869 244.74696 244.74696 0 0 1 67.99709-5.426998 226.337733 226.337733 0 0 1 66.613738 13.939936 235.701964 235.701964 0 0 1 64.591915 36.392809 263.794659 263.794659 0 0 1 36.712044 36.179985 247.300842 247.300842 0 0 1 29.476047 47.885275 236.553258 236.553258 0 0 1 19.260522 65.868856 332.643043 332.643043 0 0 1 2.021822 41.39416 220.5915 220.5915 0 0 1-6.597526 45.969864c0 1.276941 0 2.660293-0.532059 3.937233-2.44747 0-2.553881-2.341058-3.192352-3.937233-8.619349-20.537462-16.919464-41.181336-25.432401-61.718799-1.915411-4.575704-0.957705-6.065468 3.937234-6.384703a13.939936 13.939936 0 0 0 5.852644-0.638471c-9.25782-18.196404-16.493817-37.244103-24.368284-57.036683-1.808999 3.937234-2.873116 7.555232-4.256469 10.641173-2.766705 6.597527-5.107763 13.301465-8.193703 19.79258-0.851294 1.702588-1.276941 4.043645-3.937233 3.72441-11.173231-6.597527-23.304167-3.511587-35.22228-3.511587-2.553881 0-5.214174 0.63847-7.874468 0-8.406526 1.170529-12.662995-5.001351-17.877169-10.428348z" fill="#E8DD93" p-id="4274"></path><path d="M347.274654 301.038761a495.772212 495.772212 0 0 0-46.501922 28.624753 355.840798 355.840798 0 0 0-84.490907 85.129378 34.051751 34.051751 0 0 1-2.234646 2.553881c0-2.660293 1.702588-4.575704 2.766704-6.703938 6.384703-12.875818 12.875818-25.751637 19.686169-39.478749l-25.006755 2.766705 60.654682-147.593058h-21.282345a239.639198 239.639198 0 0 0 15.110465-31.285047c9.364232-19.79258 16.813052-40.223631 24.900343-60.441858l3.511587-8.832173a946.425855 946.425855 0 0 0 43.522394 100.665489h-16.919464c-3.405175 0-4.362881 0.532059-2.873116 4.043646 9.683467 23.197755 19.366933 46.927569 29.156811 70.550971z" fill="#029244" p-id="4275"></path><path d="M481.353424 185.901278l31.391458 76.510028a358.607503 358.607503 0 0 0-123.01195 21.282345h-1.383353l45.331394-110.668191h-19.579757a863.637535 863.637535 0 0 0 40.862101-94.812844 876.619765 876.619765 0 0 0 41.074925 94.919256H479.331601c-2.553881 0-3.298763 0.532059-2.234646 3.085939s2.873116 5.959056 4.256469 9.683467z" fill="#365B49" p-id="4276"></path><path d="M747.382729 756.587343c-3.72441-22.027226-7.129585-44.160865-10.109114-66.294503a224.103086 224.103086 0 0 1 10.641172-22.027226 144.294295 144.294295 0 0 0 6.278292-94.600021 12.237348 12.237348 0 0 1-0.744882-5.852645 287.311649 287.311649 0 0 0 18.728463-38.414631A248.897018 248.897018 0 0 0 787.925595 456.71911q0-7.661644 0.63847-15.429699c11.811701-8.406526 8.300114-20.537462 7.980879-31.923517a19.473345 19.473345 0 0 1 0-4.894939c1.808999-3.830822 3.192352-0.744882 4.150058 0a174.195989 174.195989 0 0 1 13.301465 19.686169 326.577575 326.577575 0 0 1 16.387405 29.0504 23.410579 23.410579 0 0 1 1.915411 5.533409 267.199834 267.199834 0 0 1 13.6207 35.009457c1.702588 5.746233 3.08594 11.492466 4.682116 17.238699a5.426998 5.426998 0 0 1 0 3.830822 120.883716 120.883716 0 0 0-23.623402 41.287748 150.040528 150.040528 0 0 0-8.938585 57.781565 177.707576 177.707576 0 0 0 9.151408 49.268627 19.473345 19.473345 0 0 1 1.170529 6.81035l-4.788527 8.938585c0.63847 1.276941 0 2.234646-0.744882 3.192351a232.083965 232.083965 0 0 1-27.347813 35.860751 19.579757 19.579757 0 0 1-4.469292 3.192351l-19.047698 17.664346a41.181336 41.181336 0 0 1-15.642523 12.237348z" fill="#F55954" p-id="4277"></path><path d="M828.894108 669.968201a173.131872 173.131872 0 0 1-10.641172-48.523745 153.764938 153.764938 0 0 1 8.087291-64.91115 139.825003 139.825003 0 0 1 19.579756-37.66975 13.301465 13.301465 0 0 1 4.788528-4.894939c2.021823 0.851294 2.234646 2.766705 2.553881 4.469292a95.77055 95.77055 0 0 1 2.341058 15.961758c1.489764 7.023174 0 14.152759 2.021823 21.282345a41.287748 41.287748 0 0 1 0 18.834875 225.380027 225.380027 0 0 1-5.746233 41.819806 47.353216 47.353216 0 0 1-4.469293 18.302817 43.309571 43.309571 0 0 1-3.617998 7.555232c-3.511587 7.342409-6.916762 14.791229-10.641172 22.133638a61.18674 61.18674 0 0 1-4.256469 5.639821z" fill="#F5F5F5" p-id="4278"></path><path d="M791.117947 720.833004a285.821885 285.821885 0 0 0 32.987633-41.926218h11.811702c3.937234 0 3.617999 1.383352 2.553881 4.043645l-14.046347 31.923517-2.553882 5.852645zM854.007274 534.399667a126.417126 126.417126 0 0 0-3.511587-20.43105 303.805466 303.805466 0 0 0-17.877169-52.460979 13.727112 13.727112 0 0 1-0.63847-2.873117l25.858048 50.65198 8.193703 16.174582c0.851294 3.405175-1.915411 5.852645-2.234646 9.044996a8.619349 8.619349 0 0 1-9.789879-0.106412z" fill="#365B49" p-id="4279"></path><path d="M854.007274 534.399667h9.683467l-7.129585 16.919464 13.407877-1.383352a78.212616 78.212616 0 0 1-8.193703 14.684817 12.98223 12.98223 0 0 1-5.852645-8.832172z" fill="#E7F5B4" p-id="4280"></path><path d="M843.153279 642.08833l8.08729-25.858048a5.107763 5.107763 0 0 0 5.107763 0c2.234646-0.851294 2.873116 0 1.702588 2.234646a195.90398 195.90398 0 0 1-14.897641 23.623402z" fill="#385E4A" p-id="4281"></path><path d="M856.561156 555.682012l5.852644 8.832173a31.923517 31.923517 0 0 1-4.894939 9.89629z" fill="#3A614C" p-id="4282"></path><path d="M170.418373 514.075029a54.908449 54.908449 0 0 1 13.727112 19.15411 152.381586 152.381586 0 0 1 17.664346 85.129377 175.685753 175.685753 0 0 1-10.641173 48.630157 19.473345 19.473345 0 0 1-1.702587 2.979528 182.92175 182.92175 0 0 1-15.855347-35.967162 23.516991 23.516991 0 0 0-0.957705-2.128234l-5.001351-18.834875a50.013509 50.013509 0 0 1-3.830822-27.028577V561.853892a278.053829 278.053829 0 0 1 6.597527-47.778863z" fill="#F5F5F5" p-id="4283"></path><path d="M163.288787 586.115764l3.830822 27.028578h-16.387405c-1.915411 0-4.469292-0.532059-2.873116-2.979529a175.047283 175.047283 0 0 1 15.429699-24.049049z" fill="#029244" p-id="4284"></path><path d="M291.834147 704.871246a196.116803 196.116803 0 0 1-21.282344-35.435103 144.932765 144.932765 0 0 1 1.808999-119.606776 219.953029 219.953029 0 0 1 78.106204-91.726904 270.711421 270.711421 0 0 1 114.392601-45.969864 280.288476 280.288476 0 0 1 121.628598 7.129585l2.873117 0.532059c2.766705 1.276941 2.660293 4.043645 3.192351 6.384703a219.101735 219.101735 0 0 0 10.641173 31.923517 13.301465 13.301465 0 0 0 10.641172 8.938584 127.694066 127.694066 0 0 0 33.200457 0 11.492466 11.492466 0 0 1 7.342409 2.660294 24.261873 24.261873 0 0 0 18.196404 5.00135c3.08594 0 5.001351 0.532059 4.575704 3.937234s2.128234 5.639821 1.064118 8.725761l-3.937234 0.851294a9.406796 9.406796 0 1 0 3.298763 18.51564 170.258755 170.258755 0 0 0 17.132288-2.766705c3.511587-0.851294 3.937234 0.63847 4.256468 3.192352q3.511587 23.836226 7.129586 47.566039l18.941286 122.799127c1.276941 8.300114 2.44747 16.70664 3.724411 25.006755a7.874467 7.874467 0 0 1-2.660294 6.17188 207.502858 207.502858 0 0 1-56.078977 47.991687 289.971942 289.971942 0 0 1-112.583602 39.159513c-4.150057 0.532059-8.193703 0.957705-12.343759 1.596176a8.512938 8.512938 0 0 1-7.129586-0.957705 72.359971 72.359971 0 0 0-19.473345-32.455576c-2.553881-2.660293-2.128234-3.72441 0.957706-5.533409a171.110049 171.110049 0 0 0 24.049049-19.260522 10.641172 10.641172 0 0 0 3.192351-10.641172 9.789878 9.789878 0 0 0-8.725761-7.129585 30.114517 30.114517 0 0 0-16.919464 2.979528 204.948976 204.948976 0 0 0-45.012158 28.943988l-3.617999 2.766705a46.395511 46.395511 0 0 0-6.278291-16.919464 15.323288 15.323288 0 0 0-11.811701-8.087291c-6.703938 0-9.470643 2.021823-10.109114 8.725761a77.999792 77.999792 0 0 0 1.170529 21.282345 54.37639 54.37639 0 0 1-3.192352 30.220929c-1.808999 1.808999-3.937234 1.170529-6.065468 0.744882a271.243479 271.243479 0 0 1-120.777304-59.696976 158.127819 158.127819 0 0 1-21.282344-22.346462 7.980879 7.980879 0 0 1-2.234647-5.214174z" fill="#F9E7DA" p-id="4285"></path><path d="M291.834147 704.871246a231.019848 231.019848 0 0 0 42.564689 40.223631 281.352593 281.352593 0 0 0 103.964252 45.331393 18.089993 18.089993 0 0 0 3.937234 0 51.077627 51.077627 0 0 1-18.196404 22.24005 9.89629 9.89629 0 0 1-7.342409 1.489764l-20.324639-3.72441c-9.683467-3.192352-19.686169-5.53341-29.582459-7.980879-12.769407-4.894939-25.858048-8.938585-38.521043-14.259171a425.646888 425.646888 0 0 1-53.205861-27.667047 338.389276 338.389276 0 0 1-41.500572-31.923517A210.908033 210.908033 0 0 1 202.661124 692.527486a368.078146 368.078146 0 0 0 42.564689 8.512938c15.4297 1.383352 30.859399 3.192352 46.608334 3.830822zM537.858048 796.704562a277.415359 277.415359 0 0 0 59.696976-10.641172 265.284423 265.284423 0 0 0 99.920607-50.65198 193.030864 193.030864 0 0 0 29.263224-29.795282 29.156812 29.156812 0 0 0 2.021823-3.405175l9.044996 60.229035c-0.63847 2.553881-2.979528 3.405175-5.001351 4.575704a370.951263 370.951263 0 0 1-67.145797 31.178634c-6.916762 2.873116-14.259171 4.256469-21.282344 6.916762-5.001351 1.276941-10.002702 2.873116-15.110464 4.043645a8.087291 8.087291 0 0 1-5.639822 0c-11.918113 2.44747-23.729814 5.214174-35.754338 7.235998-9.89629 1.702588-19.898992 2.128234-29.795282 3.830822-7.235997 1.276941-14.471994 0-21.282345 1.702587a3.511587 3.511587 0 0 1-4.575704-1.808999 30.859399 30.859399 0 0 0 5.639821-23.410579z" fill="#F55954" p-id="4286"></path><path d="M623.625896 809.58038l20.111816-5.107762c8.087291-1.170529 12.34376 2.128234 11.386054 8.938584h-24.261873a15.855347 15.855347 0 0 1-7.235997-3.830822z" fill="#039244" p-id="4287"></path><path d="M831.980048 458.740933c-5.001351-8.832173-9.89629-17.770758-15.004053-26.60293a250.706017 250.706017 0 0 0-16.70664-25.219578c-0.851294-1.170529-1.383352-3.08594-3.298764-3.192352s-1.596176-2.128234-1.808999-3.405175c-2.021823-13.833524-5.107763-27.347813-8.406526-40.968513a43.948041 43.948041 0 0 0-5.639821-13.833524c-0.744882-1.064117-1.702588-2.128234-0.957706-3.617998 6.065468-11.811701 10.002702-24.474696 15.4297-37.244103a611.867401 611.867401 0 0 0 27.134989 62.144445h-9.789878c-2.341058 0-3.405175 0-2.341058 3.08594q14.152759 33.838928 28.199106 67.784267l7.874467 20.324639c-5.001351 1.808999-9.89629-2.766705-14.684817 0.744882z" fill="#365B49" p-id="4288"></path><path d="M568.611036 954.087499c-17.770758 1.276941-35.541515 3.298763-53.205861 3.192351a546.956251 546.956251 0 0 1-59.377741-3.08594c-1.489764 0-2.553881 0-2.873116-2.128234a63.847033 63.847033 0 0 1 17.557934-22.452873c12.556583-11.279643 25.113166-22.559285 37.563338-34.051751 2.341058-2.234646 3.72441-2.660293 6.278291 0 14.046347 13.6207 28.305518 27.028577 42.564689 40.649277a48.523745 48.523745 0 0 1 11.492466 17.87717z" fill="#F1F1F1" p-id="4289"></path><path d="M665.020056 797.555856a431.499532 431.499532 0 0 0 53.205861-23.729814c6.384703-3.511587 12.556583-7.342409 18.834875-10.641172l3.298763 21.282344c-1.170529 0.957705-2.44747 0-3.72441 0a28.624753 28.624753 0 0 0-23.304167 8.406526c-2.44747 2.553881-5.639821 2.234646-8.512938 2.979528A15.855347 15.855347 0 0 0 690.239634 808.729087c-0.957705 4.788527-3.08594 5.426998-7.023173 5.107762h-4.469293a19.686169 19.686169 0 0 0-7.980879-7.768055 10.641172 10.641172 0 0 1-5.746233-8.512938z" fill="#45BB54" p-id="4290"></path><path d="M705.350099 795.640445c4.256469-0.63847 6.81035-3.937234 10.109113-6.278292a28.41193 28.41193 0 0 1 25.538814-5.639821c1.489764 10.002702 3.511587 19.79258 4.256468 29.901694-3.72441 0-5.852645 0-6.597526-4.682116a12.024525 12.024525 0 0 0-11.70529-8.193703 11.918113 11.918113 0 0 1-8.300114-2.447469 19.473345 19.473345 0 0 0-13.301465-2.660293z" fill="#6EB030" p-id="4291"></path><path d="M665.020056 797.555856c3.08594 3.511587 5.426998 7.661644 10.641172 9.364231a6.065468 6.065468 0 0 1 3.511587 6.491115h-23.623402c-2.234646-7.235997-3.937234-8.512938-11.386054-8.938584z" fill="#006738" p-id="4292"></path><path d="M218.090824 783.828744c-5.53341-7.661644-0.957705-13.195054 2.341058-19.047699a59.164917 59.164917 0 0 1-2.341058 19.047699z" fill="#029244" p-id="4293"></path><path d="M756.427725 750.734698l15.642523-12.237348 4.89494 12.237348z" fill="#016638" p-id="4294"></path><path d="M678.321521 487.57851a12.450171 12.450171 0 0 1-1.702587-11.70529 27.347813 27.347813 0 0 1-25.32599-6.81035c-0.744882-0.744882-2.553881 0-3.830822-0.532058-8.512938-24.155461-8.832173-49.800686-13.301465-74.488206-1.808999-9.89629-3.192352-19.898992-4.469293-30.008105a7.661644 7.661644 0 0 1 0.744882-6.17188 24.900343 24.900343 0 0 1 23.197756-23.729814c16.919464-2.766705 33.945339-5.107763 50.864803-7.661644a33.200457 33.200457 0 0 1 13.727112 2.021823 40.010807 40.010807 0 0 1 7.342409 5.639821 10.641172 10.641172 0 0 0 9.364231 4.043645c-3.617999 2.553881-2.234646 5.852645-1.702587 9.25782 4.362881 27.134989 8.087291 54.37639 12.130936 81.511379a60.867505 60.867505 0 0 1 1.276941 22.984932 28.092695 28.092695 0 0 1-15.855347 16.06817c-7.129585 2.873116-7.448821 3.937234-4.575704 11.598878l-29.263223 5.001351z" fill="#4F514F" p-id="4295"></path><path d="M754.086667 567.387301c1.596176 8.938585 4.362881 17.557934 5.426998 26.602931a142.698119 142.698119 0 0 1-12.024524 78.212615 88.534553 88.534553 0 0 1-10.641173 18.089993c-2.979528-19.15411-6.065468-38.30822-8.938584-57.46233L710.245038 516.948145l-1.170529-7.874467c-1.064117-7.448821-1.064117-7.448821 6.81035-8.406526 2.766705 0.851294 4.043645 3.298763 5.639821 5.320586a191.541099 191.541099 0 0 1 30.646576 52.354567 17.238699 17.238699 0 0 1 1.915411 9.044996z" fill="#F9E7DA" p-id="4296"></path><path d="M754.086667 567.387301a204.52333 204.52333 0 0 0-22.452873-45.75704c-4.894939-7.129585-10.641172-13.939936-15.323288-21.282345l12.556583-1.808999c6.916762-1.170529 10.641172-4.894939 9.683467-10.641172s-5.001351-8.512938-12.024525-7.980879c-1.064117 0-3.298763 0-2.766704-1.808999a23.304167 23.304167 0 0 0-0.957706-8.938585 26.283695 26.283695 0 0 0 21.282344-14.046347c0-0.957705 1.702588-1.383352 2.660294-2.128235s3.08594-1.702588 4.788527-2.128234a301.464408 301.464408 0 0 0 33.838928-9.577055 3.405175 3.405175 0 0 1 3.72441 0 101.836018 101.836018 0 0 1-1.170529 28.837576 238.468669 238.468669 0 0 1-30.752988 92.897434 36.392809 36.392809 0 0 1-3.08594 4.36288z" fill="#FA665A" p-id="4297"></path><path d="M630.542658 357.756209l5.426998 39.159514q3.72441 25.96446 7.555232 51.822508a31.923517 31.923517 0 0 0 4.894939 16.387405c1.489764 1.915411 0 2.553881-0.957705 3.511587a138.335238 138.335238 0 0 1-33.200457 0 13.833524 13.833524 0 0 1-12.130937-9.364231 211.865738 211.865738 0 0 1-11.598877-36.605633 27.134989 27.134989 0 0 0-0.957706-2.766704 240.171256 240.171256 0 0 1-4.150057-36.499221 14.365582 14.365582 0 0 1 10.641172-15.4297 267.519069 267.519069 0 0 1 34.477398-10.215525zM789.096124 441.289411a289.652707 289.652707 0 0 1-42.564689 11.279642c-1.170529 0-1.596176-0.957705-1.170529-2.234646a51.716097 51.716097 0 0 0-1.276941-24.474696c-2.234646-17.664346-4.788527-35.22228-7.661643-53.205861a229.104437 229.104437 0 0 0-6.065469-33.945339c1.596176-1.170529 3.72441 0 5.107763-1.383353a294.654058 294.654058 0 0 1 30.752988-1.383352 19.260522 19.260522 0 0 1 14.046347 5.107763 73.424088 73.424088 0 0 1 11.386054 31.923516 265.390834 265.390834 0 0 1 5.426998 29.369636 134.504417 134.504417 0 0 1 1.383352 22.240049 16.70664 16.70664 0 0 1-9.364231 16.706641z" fill="#161616" p-id="4298"></path><path d="M400.267692 608.355814h39.372337c1.915411 0 4.575704-0.63847 4.575704 2.341058s-2.553881 2.44747-4.469292 2.44747h-12.450172c-4.150057 0-4.043645 0.63847-3.937233 3.830822v27.879871a21.282344 21.282344 0 0 1-21.282345 21.282344 22.452873 22.452873 0 0 1-23.836225-12.024524 23.091344 23.091344 0 0 1-2.021823-10.641173v-26.390107c0-3.298763-0.851294-4.256469-4.150057-4.043645s-8.300114 0-12.450172 0c-1.702588 0-4.150057 0-4.256469-2.128234s2.234646-2.660293 4.256469-2.660294zM637.672244 606.014756h39.372337c1.808999 0 4.575704-0.851294 4.682115 2.234646s-2.766705 2.660293-4.788527 2.766705a89.705082 89.705082 0 0 1-10.641172 0c-4.362881 0-5.214174 1.276941-5.107763 5.320586v25.858049a21.282344 21.282344 0 0 1-21.282344 22.027226 21.920815 21.920815 0 0 1-25.32599-24.581108v-21.282344c0-7.661644 0-7.661644-7.874467-7.661644h-8.512938c-2.128234 0-4.469292 0-4.362881-2.766705s2.44747-2.128234 4.256469-2.128234z" fill="#2C1919" p-id="4299"></path><path d="M698.326925 692.953133a25.32599 25.32599 0 0 1-13.6207-4.575704 7.235997 7.235997 0 0 1 0-11.598878 23.410579 23.410579 0 0 1 28.092694 0 7.129585 7.129585 0 0 1 0 10.641173 23.410579 23.410579 0 0 1-14.471994 5.533409zM321.629429 692.953133a25.538813 25.538813 0 0 1-13.088641-4.682116 7.235997 7.235997 0 0 1 0-11.918113 22.87852 22.87852 0 0 1 26.390107 0 7.661644 7.661644 0 0 1-1.276941 13.727113 30.008106 30.008106 0 0 1-12.024525 2.873116z" fill="#F090AF" p-id="4300"></path><path d="M563.716097 690.505664a17.025876 17.025876 0 0 1-7.448821 14.046347 17.877169 17.877169 0 0 1-25.432401-2.234646c-2.660293-2.44747-5.001351-5.426998-7.874468-7.661644-5.746233-4.469292-11.598878-5.746233-16.280993 1.702587a21.814403 21.814403 0 0 1-16.70664 10.641172 21.282344 21.282344 0 0 1-19.579757-8.938584c-0.63847-1.064117-2.021823-2.553881-0.744882-3.511587s2.553881 0.744882 3.298763 1.808999a18.302816 18.302816 0 0 0 24.155461 5.214175 33.094046 33.094046 0 0 0 8.406526-9.044997 11.918113 11.918113 0 0 1 17.770758-2.128234c4.362881 3.72441 8.087291 8.193703 12.875818 11.598877 9.89629 7.023174 17.025876 3.08594 23.091344-6.171879a19.473345 19.473345 0 0 1 4.469292-5.320586z" fill="#F5AEAA" p-id="4301"></path><path d="M730.250442 437.671412c0 6.384703-2.341058 9.151408-7.661644 9.89629l-50.01351 7.129586a30.859399 30.859399 0 0 1-5.852644 0.851294 8.300114 8.300114 0 0 1-8.087291-7.98088c-3.830822-25.751637-7.768056-51.609685-10.641172-77.361321-1.702588-13.727112-1.170529-13.833524 13.407877-16.06817l47.459628-6.916762a8.725761 8.725761 0 0 1 9.577055 7.44882c2.766705 19.260522 5.426998 38.521043 8.193702 57.781565 0.957705 8.832173 2.234646 17.664346 3.617999 25.219578z" fill="#161616" p-id="4302"></path><path d="M612.559077 385.848904a7.129585 7.129585 0 0 1-7.44882 7.44882 7.661644 7.661644 0 0 1-7.342409-7.768055 7.448821 7.448821 0 0 1 7.44882-7.555233 7.555232 7.555232 0 0 1 7.342409 7.874468z" fill="#FCF9F8" p-id="4303"></path><path d="M419.421802 622.827808c0 6.065468-3.192352 9.577055-8.406526 9.470644s-8.193703-3.617999-8.193703-9.683467 3.298763-10.002702 8.61935-9.789878 8.087291 3.937234 7.980879 10.002701zM655.97506 619.635457c0 6.278292-2.766705 9.577055-8.087291 9.577055s-8.406526-3.511587-8.300114-9.89629 3.08594-9.364232 8.406526-9.25782 7.980879 3.298763 7.980879 9.577055z" fill="#FDFAFA" p-id="4304"></path></svg>