<?xml version="1.0" standalone="no"?><!DOCTYPE svg PUBLIC "-//W3C//DTD SVG 1.1//EN" "http://www.w3.org/Graphics/SVG/1.1/DTD/svg11.dtd"><svg t="1550212841395" class="icon" style="" viewBox="0 0 1024 1024" version="1.1" xmlns="http://www.w3.org/2000/svg" p-id="4088" xmlns:xlink="http://www.w3.org/1999/xlink" width="200" height="200"><defs><style type="text/css">@font-face { font-family: "Roboto Condensed"; src: url("chrome-extension://lienonopcegannlgdkgonpofbhgmclcc/RobotoCondensed-Regular.ttf"); }
</style></defs><path d="M1023.793277 512.051681v507.400424c0 3.721005-0.82689 4.547895-4.547895 4.547895H4.547895c-3.721005 0-4.547895-0.82689-4.547895-4.547895Q0.103361 512.051681 0 4.547895C0 0.82689 0.82689 0 4.547895 0h1014.800848c3.721005 0 4.547895 0.82689 4.547896 4.547895q-0.103361 253.751893-0.103362 507.503786z" fill="#FEFEFE" p-id="4089"></path><path d="M98.813364 341.402241a273.390532 273.390532 0 0 1 15.710912-35.142828c1.963864-3.927728 4.13445-7.855456 6.201675-11.783184a4.031089 4.031089 0 0 0 2.997477-4.031089 91.784799 91.784799 0 0 1 10.336126-17.881498 405.589583 405.589583 0 0 1 37.72686-50.957101h99.226809a54.057939 54.057939 0 0 1 10.852932 0.723529c1.136974 0 2.48067 0 3.100838 1.240335a115.66125 115.66125 0 0 0 12.713435 14.884021c0 0.723529-0.723529 1.757141 0 2.067225s1.033613-0.930251 1.447058-1.550419a67.28818 67.28818 0 0 0 14.160492-15.917634 3.514283 3.514283 0 0 1 3.410922-1.65378H392.772787a16.641163 16.641163 0 0 0 7.752094-1.447057c4.857979-0.723529 6.615121 2.584031 8.268901 6.201675 0 5.788231 1.240335 7.235288 6.305037 6.408398 2.894115 0 4.341173 2.687393 6.098314 4.547896s3.204199 3.514283 5.064702 5.064702c0 0.930251 0 1.447058 1.240335 1.343696a2.584031 2.584031 0 0 1 1.963864 2.273948c0 2.170586 1.136974 2.067225 2.687393 1.65378a3.204199 3.204199 0 0 1 3.204199 2.067225c0 1.136974-0.516806 2.894115 1.343696 2.997476s1.963864-1.757141 2.480671-2.997476a46.305844 46.305844 0 0 1 10.336126-9.509236 110.80327 110.80327 0 0 1 12.506712-10.336126c1.550419 0 2.273948-1.033613 2.377309-2.48067 2.48067-2.790754 3.514283-7.442011 8.682346-6.925205a19.328556 19.328556 0 0 0 9.302513 1.343697h109.046129a18.915111 18.915111 0 0 1 15.710912 5.581508c1.033613 1.136974 2.377309 3.410922 4.857979 2.067225 4.13445-2.790754 7.338649-7.338649 12.920157-7.545372h216.541839a25.220147 25.220147 0 0 1 12.713435 1.550419 449.828202 449.828202 0 0 1 60.879782 93.748663c0.82689 1.65378 1.343696 3.30756 2.067225 5.064701a5.994953 5.994953 0 0 1-1.757141 2.584032 5.271424 5.271424 0 0 1 2.790754-0.620168 89.40749 89.40749 0 0 1 7.028566 15.917634 60.569698 60.569698 0 0 1-26.977289 0c-1.757141 0-3.514283-1.343696-5.374786-0.516806a39.897446 39.897446 0 0 1-16.744524 1.757141h-96.8495a30.284849 30.284849 0 0 1-11.783184-1.447057c-3.100838-1.240335-5.891592 0.620168-8.785707 1.033612a19.535278 19.535278 0 0 1-11.679822 0c-1.136974-0.516806-1.860503 0.620168-2.790754 0.620168a11.369739 11.369739 0 0 1-6.511759-3.410922 358.250126 358.250126 0 0 0-114.420915-59.226002 345.43333 345.43333 0 0 0-72.352882-14.573937 343.366105 343.366105 0 0 0-137.367114 13.540325c-9.509236 2.894115-18.605027 7.131927-28.320985 9.199152a21.602503 21.602503 0 0 1-4.754618-1.240335 14.884021 14.884021 0 0 0-20.672252 8.785707l-1.65378 3.617644a48.579792 48.579792 0 0 1-14.367215 8.578985 450.138286 450.138286 0 0 0-47.339457 31.008377c-3.204199 2.273948-5.891592 6.098314-10.336126 5.271425a41.344504 41.344504 0 0 0-7.958817-0.620168h-66.771374a5.684869 5.684869 0 0 1-4.341173-2.170586 23.152922 23.152922 0 0 0-29.664681-3.307561 37.003331 37.003331 0 0 0-10.336126 8.682346c-2.48067 3.100838-4.547895 3.204199-7.131927 0a36.796608 36.796608 0 0 0-14.367215-10.336126 22.532755 22.532755 0 0 0-25.42687 4.237812 8.475623 8.475623 0 0 1-4.547896 2.894115c-5.788231-0.206723-11.576461 1.963864-16.744524-0.930251z" fill="#FEE6EE" p-id="4090"></path><path d="M240.521651 156.799031a309.36025 309.36025 0 0 1 32.352075-22.842838A436.804684 436.804684 0 0 1 389.465227 81.655395a457.06349 457.06349 0 0 1 57.055415-12.403351c10.852932-1.65378 21.912587-2.584031 32.972242-3.514283 16.43444-1.343696 32.868881-0.620168 49.199959-0.723529a348.430807 348.430807 0 0 1 60.983144 6.098315 444.453417 444.453417 0 0 1 158.556172 60.77642c14.78066 9.199152 28.73443 19.431917 42.584839 29.871404a10.336126 10.336126 0 0 1 1.550419 1.963864c-0.723529 3.721005-3.824367 2.894115-5.271424 1.653781a41.344504 41.344504 0 0 0-28.320985-4.754618H481.870193a51.68063 51.68063 0 0 0-6.51176 0 10.336126 10.336126 0 0 1-4.96134 0 31.628545 31.628545 0 0 0-28.837791 11.266377c-3.721005 3.824367-4.651257 4.237812-8.372263 0a35.969718 35.969718 0 0 0-21.189058-11.266377c-4.13445-0.620168-8.268901 1.343696-12.403351 0a62.016756 62.016756 0 0 0-10.336126 0H250.030887c-3.514283 0-7.545372 0.620168-9.509236-3.824367z" fill="#FEE7EF" p-id="4091"></path><path d="M98.813364 341.402241a60.259614 60.259614 0 0 1 16.847886 1.033612c0.930251 1.963864 0 3.617644-0.82689 5.168063a32.352074 32.352074 0 0 0 3.410921 30.078127 157.52256 157.52256 0 0 0 41.344504 43.928535 3.927728 3.927728 0 0 0 5.478147 0 197.626729 197.626729 0 0 0 27.90754-24.806702 109.873019 109.873019 0 0 0 15.400828-21.395781 31.008378 31.008378 0 0 0 1.550418-29.664681c-0.516806-1.136974-1.240335-2.377309 0-3.721006a9.612597 9.612597 0 0 1 5.788231-1.033612h66.047845c2.273948 0 4.754618-0.723529 5.994953 2.273948a23.77309 23.77309 0 0 1-11.369739 10.336125 5.891592 5.891592 0 0 1-1.963863 0c-8.475623-2.377309-10.336126-1.550419-12.093268 6.821844 0 0.930251-1.240335 0.723529-1.963864 0.516806s1.65378 0.930251 2.273948 1.65378a3.824367 3.824367 0 0 1 0.82689 3.410922 9.715958 9.715958 0 0 1-3.100838 4.444534 315.561926 315.561926 0 0 0-58.709195 79.58817 245.999798 245.999798 0 0 0-23.876451 64.704148c-2.067225 8.475623-2.894115 17.157969-4.857979 25.633593a7.338649 7.338649 0 0 0-0.516807 5.581508 9.302513 9.302513 0 0 1-0.82689 4.237811 10.336126 10.336126 0 0 0 0 6.925205c0 8.99243-1.136974 17.881498-0.723529 26.873927a199.797315 199.797315 0 0 0 16.847886 67.804987 103.981427 103.981427 0 0 0 6.821843 14.470576 3.721005 3.721005 0 0 1 0.620167 3.30756 85.273039 85.273039 0 0 0-17.674775 13.643687c-2.067225 2.377309-3.824367 0-5.271424-1.550419a36.279802 36.279802 0 0 0-18.708388-11.783184 21.499142 21.499142 0 0 0-25.116786 11.369739 39.277279 39.277279 0 0 1-3.100838 6.201675c-4.13445 9.509236-12.196629 9.095791-20.672252 8.062179a168.99566 168.99566 0 0 1-11.989906-27.804179 433.187039 433.187039 0 0 1-22.739477-87.236903 399.077824 399.077824 0 0 1-4.444535-45.375593c0-8.578985-0.82689-17.26133-0.723528-25.840315a469.776925 469.776925 0 0 1 6.718481-74.420107 446.107197 446.107197 0 0 1 17.674776-68.115071 191.838498 191.838498 0 0 1 9.715958-25.323508z" fill="#FEE5ED" p-id="4092"></path><path d="M104.808317 695.621278c2.170586-1.963864 4.754618-1.033613 7.131927-0.930251a9.715958 9.715958 0 0 0 11.059655-6.408399c0-0.723529 1.136974-1.136974 1.757141-1.65378a2.584031 2.584031 0 0 1 0.930252 2.687393 35.24619 35.24619 0 0 0 6.201675 25.530231 158.866256 158.866256 0 0 0 39.897447 42.274755 4.547895 4.547895 0 0 0 6.305036 0 162.587262 162.587262 0 0 0 40.517614-41.344503c1.136974-1.757141 1.757141-4.13445 4.341173-4.341173a24.910064 24.910064 0 0 1 7.442011 6.511759 294.682951 294.682951 0 0 0 84.962955 60.983143c6.821843 3.410922 13.747048 6.615121 20.672252 9.405875 1.860503 0.723529 3.824367 1.240335 4.754618 3.30756-2.273948 5.994953-4.031089 6.408398-8.578984 2.273948a38.243666 38.243666 0 0 0-3.514283-2.790754 17.984859 17.984859 0 0 0-21.809226-1.136974 20.672252 20.672252 0 0 0-3.824367 21.809226 71.215908 71.215908 0 0 0 19.845362 26.563844c3.617644 3.204199 7.131927 6.408398 11.059655 9.302513a4.031089 4.031089 0 0 0 5.374786 0 105.118401 105.118401 0 0 0 28.941152-31.008378 34.626022 34.626022 0 0 0 4.031089-10.336126c0-2.067225 1.033613-3.927728 3.514283-4.341173a197.523367 197.523367 0 0 1 33.695771 9.81932c0 2.48067-1.343696 4.031089-2.687393 5.581508a411.274452 411.274452 0 0 0-52.404158 80.208337c-3.824367 7.648733-7.235288 15.60755-10.336126 23.566368-0.723529 1.65378-1.136974 3.514283-3.100838 4.237811a449.62148 449.62148 0 0 1-84.032704-46.305844c-1.963864-1.447058-3.927728-2.997477-5.891592-4.444534s1.447058-3.514283 2.687393-4.857979a27.597456 27.597456 0 0 0 5.891591-8.475624 7.131927 7.131927 0 0 0-1.550418-8.682346 6.408398 6.408398 0 0 0-8.682346 0 5.684869 5.684869 0 0 1-7.235288 0c-5.684869-3.617644-8.062178-2.894115-11.369739 2.997477a2.790754 2.790754 0 0 1-1.757141 1.550419 396.390431 396.390431 0 0 1-47.236096-44.652064 434.737458 434.737458 0 0 1-48.476431-62.740285 307.913193 307.913193 0 0 1-28.527708-54.1613zM920.018573 694.587665a491.999596 491.999596 0 0 1-42.378117 74.006662c-6.098314 8.578985-13.023519 16.744524-19.121833 25.323509a338.198042 338.198042 0 0 1-37.830221 41.344504 406.003028 406.003028 0 0 1-49.613405 41.344504 463.781972 463.781972 0 0 1-69.872211 41.344504l-9.81932 4.754617c-4.031089-7.752094-7.235288-15.917634-11.059655-23.876451a404.762693 404.762693 0 0 0-50.750378-78.864641c-2.067225-2.584031-5.374786-4.651257-5.271424-8.682345a63.567175 63.567175 0 0 1 18.708388-5.478147 3.617644 3.617644 0 0 1 3.721005 3.824366 62.016756 62.016756 0 0 0 15.814273 32.662158 196.386393 196.386393 0 0 0 30.284849 28.734431 5.994953 5.994953 0 0 0 8.785707 0 200.107399 200.107399 0 0 0 35.556273-35.349551 58.29575 58.29575 0 0 0 8.785707-16.124357 27.08065 27.08065 0 0 0-4.651256-28.424346 22.326032 22.326032 0 0 0-26.977289-4.754618 36.486525 36.486525 0 0 0-10.852932 7.752094c-6.098314 6.098314-9.81932 5.168063-13.333603-3.100837 0.82689-2.170586 2.894115-2.584031 4.651257-3.410922a325.484607 325.484607 0 0 0 84.756233-51.68063 241.865348 241.865348 0 0 0 34.109215-35.349551c2.170586-2.790754 3.824367-6.408398 8.062179-7.028565 21.395781-0.516806 42.791562 0 64.187342 0 10.336126 0 20.672252 0.516806 31.008378 0.723529a3.824367 3.824367 0 0 1 3.100838 0.310083z" fill="#FEE1EB" p-id="4093"></path><path d="M744.20107 341.402241c0.930251 0 1.240335-1.860503 2.377309-1.343697a15.504189 15.504189 0 0 0 12.610074 0c6.098314-2.687393 11.369739 0.82689 17.054607 0.723529h106.978904a16.43444 16.43444 0 0 0 8.16554-1.550419 7.648733 7.648733 0 0 1 6.408398 0 49.820127 49.820127 0 0 0 20.672252 1.136974 16.744524 16.744524 0 0 1 6.201675 0 409.000505 409.000505 0 0 1 17.98486 51.68063 435.564348 435.564348 0 0 1 12.713435 63.567175c1.136974 9.095791 1.757141 18.398304 2.48067 27.597456 0.82689 11.576461 0.620168 23.256283 0.82689 34.832745a5.684869 5.684869 0 0 1-5.581508 2.48067h-94.472192c-2.894115-0.723529-3.100838-3.204199-3.721005-5.478147a256.85273 256.85273 0 0 0-31.008378-78.968002 292.09892 292.09892 0 0 0-38.450388-52.610881 314.21823 314.21823 0 0 0-39.173918-37.830222c-0.723529-1.343696-2.273948-2.170586-2.067225-4.237811z" fill="#FEE5ED" p-id="4094"></path><path d="M597.738165 950.820228l-20.672252 3.721005c-1.447058 0-2.067225 0-2.687393-1.343696-6.718482-15.710911-20.672252-25.116786-32.145352-36.796608-7.028566-7.235288-14.78066-13.850409-22.015948-20.672252-1.963864-1.963864-3.204199-2.584031-5.581508 0-15.090744 13.95377-30.491572 27.597456-45.478954 41.344504a47.132734 47.132734 0 0 0-10.336126 16.020995c-1.033613 2.377309-2.273948 3.410922-4.857979 2.997476a488.071868 488.071868 0 0 1-72.352882-15.814272 18.708388 18.708388 0 0 1-2.170587-1.033613 7.648733 7.648733 0 0 1 0-5.374785 374.16776 374.16776 0 0 1 33.282326-93.025134 16.537802 16.537802 0 0 1 8.889068-7.442011 140.571313 140.571313 0 0 1 38.450389-10.336126 170.339356 170.339356 0 0 1 65.220955 3.410922 150.080549 150.080549 0 0 1 33.178964 13.436963 63.463813 63.463813 0 0 1 27.494095 34.936106 181.502372 181.502372 0 0 1 12.29999 57.778944 119.692339 119.692339 0 0 1 0.930252 12.403352 7.958817 7.958817 0 0 1-1.447058 5.78823z" fill="#F96358" p-id="4095"></path><path d="M474.014737 159.796508c1.447058-1.65378 3.410922-1.033613 5.168063-1.033613h295.096397a16.847885 16.847885 0 0 1 10.336125 3.824367c2.067225 1.550419 4.444534 4.341173 7.545372 1.240335l8.99243 7.028565c1.240335 2.067225 0 6.201676 4.961341 4.961341l1.963863 1.963864c0.82689 1.65378 0 4.96134 4.03109 2.997476a6.408398 6.408398 0 0 1 2.997476 2.997477c-0.516806 1.860503 0 2.170586 1.963864 1.963864l1.033613 1.033612a31.008378 31.008378 0 0 1 4.341173 4.134451 11.059655 11.059655 0 0 0 11.576461 10.336126l1.033612 1.033612a2.584031 2.584031 0 0 0 1.963864 1.963864l2.067225 2.997477q0 2.377309 1.963864 1.963864l1.963864 1.963864c-1.033613 5.064702 3.721005 6.201676 6.201676 8.889068 0.930251 1.033613 2.584031 1.240335 3.721005 2.170586l1.033613 1.033613H629.883517c-2.067225 0-4.341173 0.82689-6.201676-0.930251s1.550419-3.100838 2.790754-4.237812a94.678914 94.678914 0 0 0 19.431917-23.876451 21.705865 21.705865 0 0 0 3.204199-12.920157 16.43444 16.43444 0 0 0-27.597456-12.093268c-2.584031 1.860503-4.237812 5.684869-7.958817 5.581508s-4.857979-3.721005-7.545372-5.478147a16.951247 16.951247 0 0 0-19.948723-1.963864 17.468053 17.468053 0 0 0-7.442011 18.294943 10.336126 10.336126 0 0 1 0 3.927728 1.550419 1.550419 0 0 0 0.930251 2.377309 7.338649 7.338649 0 0 1 2.790754 5.891592c0 1.033613 0 1.860503 1.033613 1.963864a6.305037 6.305037 0 0 1 3.927728 5.271424c0 3.410922 1.757141 4.651257 4.651256 5.478147a4.96134 4.96134 0 0 1 3.204199 3.100838c0 1.136974 0 1.65378 1.550419 1.447057a78.968002 78.968002 0 0 1 16.124357 14.367216c0.723529 0.930251 2.790754 1.550419 1.550419 3.100837s-2.273948 0-3.410922-0.620167-2.48067-1.343696-3.204199-2.377309c-4.651257-6.615121-11.4731-6.408398-18.501665-6.408398H479.1828c-2.687393 0-5.788231 0.723529-7.028566-2.894116s1.343696-3.617644 2.377309-5.064701a62.533562 62.533562 0 0 0 12.29999-23.049561 26.873928 26.873928 0 0 0-9.715958-29.251237c-1.343696-0.516806-3.30756-0.930251-3.100838-3.100837zM240.521651 156.799031a10.336126 10.336126 0 0 0 7.442011 2.067225h146.462905a11.989906 11.989906 0 0 1 6.821843 1.033613c0 1.963864-1.447058 2.377309-2.584031 3.204199a27.184011 27.184011 0 0 0-10.336126 31.628545 68.11507 68.11507 0 0 0 11.163016 20.672252c1.240335 1.65378 3.204199 3.100838 2.377309 5.581508a5.168063 5.168063 0 0 1-5.168063 3.100838h-78.554558c-1.136974 0-2.377309 0-3.100837-1.033613a5.478147 5.478147 0 0 1-1.343697-3.100837c-1.65378-6.615121-5.374786-8.16554-11.369738-4.547896a6.201676 6.201676 0 0 1-6.821843 0c-7.338649-3.721005-10.336126-1.963864-11.4731 6.51176a3.30756 3.30756 0 0 1-0.930252 2.273947c-2.894115 1.963864-5.684869 0-8.578984 0H179.848592a15.194105 15.194105 0 0 1-8.578985-2.067225 410.550924 410.550924 0 0 1 44.23862-44.858787 253.028364 253.028364 0 0 1 25.013424-20.465529z" fill="#FEE7EE" p-id="4096"></path><path d="M597.738165 950.820228a225.224185 225.224185 0 0 0-12.506712-73.386494 69.458767 69.458767 0 0 0-41.344504-43.205007 163.000707 163.000707 0 0 0-72.352882-10.336126 145.429292 145.429292 0 0 0-51.68063 12.610074 11.266377 11.266377 0 0 0-5.478147 5.374785 375.614818 375.614818 0 0 0-34.109216 93.955385 24.910064 24.910064 0 0 1-0.930251 2.790754 294.372868 294.372868 0 0 1-38.863833-13.12688 400.524881 400.524881 0 0 1 57.778944-99.846976c3.514283-4.444534 7.235288-8.578985 10.852932-12.920158 1.550419-2.48067 3.824367-1.343696 5.891592-0.930251 14.677299 2.584031 29.354598 5.271424 44.238619 6.925204a578.823054 578.823054 0 0 0 87.030181 2.067225 384.400525 384.400525 0 0 0 47.546179-5.064701 20.672252 20.672252 0 0 1 6.408398 0 118.762087 118.762087 0 0 1 16.020995 22.739477 377.785404 377.785404 0 0 1 34.212577 93.025134c0 1.757141 1.240335 3.514283 0 5.168063a284.243464 284.243464 0 0 1-39.277278 11.369738c-4.341173 1.240335-8.889068 1.963864-13.436964 2.790754z" fill="#E94949" p-id="4097"></path><path d="M858.208539 518.976885h94.472192a11.059655 11.059655 0 0 0 6.305037-1.033613v5.064702a55.711719 55.711719 0 0 0-17.98486 13.023519c-2.377309 2.894115-4.547895 1.136974-6.511759-1.136974a33.902493 33.902493 0 0 0-21.809226-11.886545 20.672252 20.672252 0 0 0-20.672252 10.336126 29.974765 29.974765 0 0 0 0 29.147875 88.683961 88.683961 0 0 0 15.814273 22.842839 188.944383 188.944383 0 0 0 25.323509 23.256283c5.374786 4.031089 5.374786 3.927728 10.336126 0 1.65378-1.240335 2.894115-3.514283 5.478146-2.273948a285.587161 285.587161 0 0 1-14.884021 51.68063 1.860503 1.860503 0 0 1-2.170586-0.82689 6.925204 6.925204 0 0 0-10.336126-0.723529 5.684869 5.684869 0 0 1-7.958817 0 5.788231 5.788231 0 0 0-7.33865-0.723528 6.925204 6.925204 0 0 0-2.687393 7.958817 30.284849 30.284849 0 0 0 12.403352 16.331079c2.067225 1.65378 3.927728-0.516806 5.684869-1.65378s2.894115-4.237812 5.994953-3.617645a90.027657 90.027657 0 0 1-7.958817 19.948724 90.027657 90.027657 0 0 1-23.876451 0h-76.073887c-0.516806-2.894115 1.550419-4.547895 2.894115-6.615121a158.142727 158.142727 0 0 0 11.989906-20.052084 204.551933 204.551933 0 0 0 25.943676-81.448673 282.072878 282.072878 0 0 0-3.30756-60.879782c0-2.377309-0.930251-4.651257 0.930251-6.718482z" fill="#FEE3EC" p-id="4098"></path><path d="M948.856364 606.627233a39.794085 39.794085 0 0 0-7.958817 5.788231c-1.65378 1.136974-3.204199 2.067225-4.96134 0.620167a145.946099 145.946099 0 0 1-45.995761-50.647017 28.837791 28.837791 0 0 1 3.204199-33.075603 23.979812 23.979812 0 0 1 31.628546-3.927728 29.664682 29.664682 0 0 1 10.336126 8.062178c2.997477 4.651257 4.547895 2.48067 7.131927 0a27.184011 27.184011 0 0 1 16.951246-10.336126 444.453417 444.453417 0 0 1-10.336126 83.515898z" fill="#FEAFAF" p-id="4099"></path><path d="M650.65913 936.866458a406.726557 406.726557 0 0 0-22.739477-72.352882 186.877158 186.877158 0 0 0-25.633593-45.582315 13.023519 13.023519 0 0 1-1.447057-3.617644c4.547895-3.617644 10.336126-2.687393 15.400827-4.134451 2.687393-0.723529 5.684869-2.170586 8.372262 0a403.108913 403.108913 0 0 1 65.531039 105.01504c0.723529 1.757141 2.067225 3.514283 1.343696 5.684869-12.713435 4.857979-25.323509 10.336126-38.347027 14.470577a17.984859 17.984859 0 0 1-2.48067 0.516806z" fill="#E94949" p-id="4100"></path><path d="M928.080751 674.638942c-2.584031 2.067225-5.168063 4.13445-7.545372 6.408398a3.410922 3.410922 0 0 1-5.271424 0 58.605834 58.605834 0 0 1-11.163016-11.989906 12.920157 12.920157 0 0 1-1.963864-6.098314 8.062178 8.062178 0 0 1 4.13445-8.372262 6.925204 6.925204 0 0 1 8.682346 1.447057c2.170586 2.273948 3.617644 1.757141 5.788231 0 6.098314-4.13445 8.578985-3.617644 13.333602 2.273948a61.189866 61.189866 0 0 1-5.994953 16.331079zM228.531745 857.278288c3.410922-9.199152 6.098314-10.336126 14.78066-4.857979 1.963864 1.136974 2.997477 0 4.341173-0.82689a7.648733 7.648733 0 0 1 10.336126-0.930252 8.682346 8.682346 0 0 1 2.170587 11.163017 60.052892 60.052892 0 0 1-9.715959 12.403351 108.736045 108.736045 0 0 1-21.912587-16.951247z" fill="#FEAFAF" p-id="4101"></path><path d="M834.228727 201.967901c-2.584031 2.377309-4.96134 2.48067-7.028565-0.516806s-8.062178-4.651257-4.961341-10.336126v-0.620167a80.104976 80.104976 0 0 1 11.989906 11.473099zM853.143838 222.640153a18.191582 18.191582 0 0 1-10.336126-6.305036c-1.65378-1.447058-2.790754-3.617644 0.620167-4.754618 4.341173 2.584031 5.581508 8.16554 9.715959 11.059654zM806.321187 175.714142c0 1.343696-0.930251 2.377309-2.170586 1.757141s-3.514283-1.963864-3.410922-4.341173a13.540325 13.540325 0 0 1 0.620168-2.377309zM812.626224 180.675482c0 1.550419-0.516806 2.997477-2.687393 2.067225s-2.48067-2.997477-1.343696-5.064702a4.754618 4.754618 0 0 1 4.031089 2.997477z" fill="#FEE7EF" p-id="4102"></path><path d="M918.054709 324.450994a9.405875 9.405875 0 0 1-5.684869 2.687393c0.620168-2.997477 3.204199-3.30756 4.754617-4.754618z" fill="#FEE5ED" p-id="4103"></path><path d="M817.277481 185.636822c-0.82689 1.343696-1.757141 2.687393-3.307561 0.930252s-0.723529-2.687393 1.240335-2.997477zM841.257293 209.616635c-0.82689 1.447058-1.757141 2.687393-3.30756 0.930251s0-2.273948 1.343696-2.997476z" fill="#FEE7EF" p-id="4104"></path><path d="M123.826789 290.44514c2.067225 3.617644 0 4.237812-2.997476 4.031089z" fill="#FEE7EE" p-id="4105"></path><path d="M822.238821 189.667912v0.930251a6.305037 6.305037 0 0 1-4.031089-4.031089 4.754618 4.754618 0 0 1 4.031089 3.100838zM837.226204 204.655294c-2.48067 1.136974-2.687393 0-1.963864-1.963864a3.410922 3.410922 0 0 1 1.963864 1.963864z" fill="#FEE6EE" p-id="4106"></path><path d="M488.898758 958.055516h6.098315a10.336126 10.336126 0 0 1-6.098315 0.82689v-0.516806z" fill="#FCD6D4" p-id="4107"></path><path d="M529.20965 958.675684a5.891592 5.891592 0 0 1 4.96134 0c-1.447058 0.723529-2.790754 0.310084-4.96134 0z" fill="#FCD3D3" p-id="4108"></path><path d="M465.22903 956.505097a3.514283 3.514283 0 0 1-4.031089 0 3.100838 3.100838 0 0 1 4.031089 0z" fill="#FAC1C2" p-id="4109"></path><path d="M488.898758 958.055516a4.341173 4.341173 0 0 1 0 0.82689c-1.447058 0-2.894115 0.516806-4.237811 0 1.447058-1.343696 2.894115-0.82689 4.237811-0.82689z" fill="#F8B4B4" p-id="4110"></path><path d="M744.20107 341.402241a436.701322 436.701322 0 0 1 36.89997 34.419299l5.478146 6.305037c13.230241 29.147875 11.989906 59.742808 8.578985 90.441102a229.77208 229.77208 0 0 1-30.38821 90.337741c-1.136974 1.963864-1.757141 4.547895-4.754618 4.341173s-2.273948-3.204199-2.894116-5.064701a200.004038 200.004038 0 0 0-44.962148-70.802463 252.614919 252.614919 0 0 0-72.352881-52.920965 269.97961 269.97961 0 0 0-92.404967-26.770567 278.455234 278.455234 0 0 0-41.344503-1.757141 284.450187 284.450187 0 0 0-103.36126 23.77309 257.472898 257.472898 0 0 0-69.355405 44.548703 190.908247 190.908247 0 0 0-64.290704 107.599071 141.708287 141.708287 0 0 0 20.155446 103.36126 61.293227 61.293227 0 0 1 9.612597 16.124356c-3.100838 1.963864-6.511759 0.516806-9.612597 0a382.436661 382.436661 0 0 1-76.073887-11.369738 7.545372 7.545372 0 0 0-3.410922 0c-2.067225 0-2.790754-2.170586-3.824367-3.617644-3.100838-4.444534-5.788231-9.199152-8.785707-13.747048a7.855456 7.855456 0 0 1-1.65378-7.442011 49.19996 49.19996 0 0 1 2.997477-11.059654 161.967094 161.967094 0 0 0-1.343697-106.66882 137.573837 137.573837 0 0 0-16.641163-31.628546 26.25376 26.25376 0 0 1-3.410921-5.994953 222.433431 222.433431 0 0 1 15.090744-45.685677 329.102251 329.102251 0 0 1 70.699101-101.707479 34.419299 34.419299 0 0 1 13.953771-13.023519l11.059654-9.715958a403.108913 403.108913 0 0 1 63.463814-41.344504c2.170586-1.136974 4.341173-2.377309 6.408398-3.617644a65.427677 65.427677 0 0 1 17.984859-9.199153 18.605027 18.605027 0 0 1 8.99243-2.687392 448.174422 448.174422 0 0 1 54.264661-16.331079 376.958514 376.958514 0 0 1 56.538609-7.855456 365.898859 365.898859 0 0 1 244.759463 75.970526z" fill="#FA665A" p-id="4111"></path><path d="M209.719996 342.332492c9.715958 16.641163 3.204199 31.008378-6.615121 44.652064A174.990613 174.990613 0 0 1 165.378016 423.471081a4.031089 4.031089 0 0 1-5.68487 0 175.714142 175.714142 0 0 1-41.344504-42.274755 35.866357 35.866357 0 0 1-2.997476-38.863834c10.956294-14.263854 27.700818-12.093267 40.620975-0.930251 2.377309 2.067225 4.444534 4.237812 6.718482 6.408398a74.62683 74.62683 0 0 1 6.201675-6.408398 30.284849 30.284849 0 0 1 28.424347-8.062178 23.359645 23.359645 0 0 1 12.403351 8.992429zM402.178662 220.572928a140.054507 140.054507 0 0 1-12.920158-20.672252 29.974765 29.974765 0 0 1 7.028566-36.899969c1.550419-1.240335 3.30756-2.170586 4.857979-3.307561a32.765519 32.765519 0 0 1 33.902493 12.506713c1.240335 1.447058 2.377309 2.894115 4.237812 0a32.868881 32.868881 0 0 1 34.626022-13.023519c17.674775 10.336126 18.191582 28.941153 9.405874 44.755425a113.697386 113.697386 0 0 1-11.783183 16.744524l-7.028566 7.958817a2.377309 2.377309 0 0 1-1.963864 1.963864l-22.015948 19.845362c-1.65378 1.757141-3.30756 2.790754-5.064702 0a5.478147 5.478147 0 0 0-2.894115-2.067225 3.721005 3.721005 0 0 1-2.894115-2.067225l-2.067226-1.860503a1.240335 1.240335 0 0 1-1.033612-1.033612l-10.956294-10.336126c-3.824367 0-5.374786-3.30756-6.925204-6.201676a16.43444 16.43444 0 0 0-6.511759-6.305037zM701.616231 240.625013c12.29999-16.227718 30.181488-11.163016 40.827698-1.653781l0.723528 0.723529c5.788231 5.684869 5.581508 5.478147 11.369739 0a29.044514 29.044514 0 0 1 31.008378-8.372262 26.873928 26.873928 0 0 1 14.367215 32.662158 69.252044 69.252044 0 0 1-13.643686 24.59998 210.03008 210.03008 0 0 1-31.008378 29.871404c-4.341173 3.514283-7.545372 4.341173-11.679823 0.620168-1.447058 0-2.170586-1.136974-2.894115-2.170587a26.047037 26.047037 0 0 0-8.062178-6.821843 4.031089 4.031089 0 0 1-3.100838-2.997476 8.889068 8.889068 0 0 0-3.927728-3.927728c-5.374786-1.240335-7.028566-6.305037-10.336126-10.336126l-2.997476-3.927728a1.343696 1.343696 0 0 1-1.033613-1.033613 80.104976 80.104976 0 0 0-7.752094-11.059654 7.338649 7.338649 0 0 1-3.100838-5.994954c0-1.136974 0-2.273948-1.033613-2.997476a3.410922 3.410922 0 0 1-1.136974-4.031089 34.832745 34.832745 0 0 1 0-16.020995 10.336126 10.336126 0 0 1 3.410922-7.131927zM594.740688 214.681336a6.615121 6.615121 0 0 0-2.894115-2.997476 8.578985 8.578985 0 0 1-5.064702-5.994953 10.336126 10.336126 0 0 0-3.824366-5.064702 1.963864 1.963864 0 0 1-1.136974-1.963864 12.610074 12.610074 0 0 0-2.997477-5.994953 2.170586 2.170586 0 0 1-1.033612-1.963864 86.513374 86.513374 0 0 1 0-11.783183c3.410922-15.60755 17.881498-19.225194 30.284849-9.715959 2.170586 1.65378 3.617644 5.374786 6.305037 4.961341s3.824367-3.410922 5.891592-5.064702a19.225194 19.225194 0 0 1 24.289896-1.240335 22.739477 22.739477 0 0 1 3.617644 26.150398 104.704956 104.704956 0 0 1-24.496619 28.631069c-3.721005 2.170586-6.408398 6.098314-10.956293 7.131927l-17.15797-14.057131a1.240335 1.240335 0 0 1-0.82689-1.033613zM283.416574 223.673766a28.217624 28.217624 0 0 1 0-4.341173c0.620168-7.028566 5.994953-9.715958 12.403351-5.891592 2.687393 1.550419 4.444534 2.48067 7.131927 0a7.028566 7.028566 0 0 1 8.372262-0.930251 9.509236 9.509236 0 0 1 4.237812 10.336126 51.68063 51.68063 0 0 1-15.917634 17.984859c-1.033613 0-1.65378 0-2.067225-0.930251a60.569698 60.569698 0 0 1-14.160493-16.227718zM229.565358 276.49137l-8.682346 9.199152c-3.204199 3.30756-6.511759 4.651257-10.336126 0.82689a17.157969 17.157969 0 0 1-7.752094-8.062178 43.928535 43.928535 0 0 1-2.894116-6.718482 8.475623 8.475623 0 0 1 2.894116-9.81932 7.338649 7.338649 0 0 1 10.336126 1.343696c1.860503 1.860503 3.100838 1.550419 4.96134 0s7.028566-4.444534 10.336126-1.240335a9.509236 9.509236 0 0 1 2.273948 11.266378 2.377309 2.377309 0 0 1-1.136974 3.204199zM846.321995 283.313213a8.785707 8.785707 0 0 1 4.031089-7.235288 7.545372 7.545372 0 0 1 8.785707 1.033612 3.927728 3.927728 0 0 0 6.305037 0 7.958817 7.958817 0 0 1 10.336126 0 10.336126 10.336126 0 0 1 1.343696 11.886545 42.584839 42.584839 0 0 1-12.816796 13.850409c-0.82689 0.516806-1.240335 1.136974-2.584032 0.723529a36.89997 36.89997 0 0 1-15.400827-20.258807z" fill="#FEAFAF" p-id="4112"></path><path d="M384.297164 286.620773l-26.460483 11.989906c3.100838-13.95377 12.816796-18.191582 26.460483-11.989906z" fill="#FEB0B0" p-id="4113"></path><path d="M715.46664 293.442616c4.13445 2.48067 5.891592 7.442011 10.336126 10.336126-1.343696 2.48067-3.204199 1.860503-4.134451 0-1.860503-3.617644-8.682346-3.824367-6.718482-10.336126-0.310084 0.103361 0.206723 0.103361 0.516807 0zM202.794792 278.455234l7.855455 8.062178v0.82689a7.442011 7.442011 0 0 1-7.855455-8.889068zM408.276976 227.498133l6.925204 6.201675c-1.136974 1.860503-2.584031 2.48067-4.341173 0.930252s-5.064702-3.617644-2.584031-7.131927zM435.047542 250.651055c1.757141 1.343696 3.410922 0 5.064702 0 0 2.997477-1.136974 4.96134-4.134451 4.237811s-2.48067-2.48067-0.930251-4.237811zM700.582618 271.530029a13.95377 13.95377 0 0 1 3.100838 5.994953c-2.377309 1.343696-3.204199 0-4.13445-1.963864s-0.620168-3.204199 1.033612-4.031089zM701.616231 240.625013l-3.204199 7.958817c-2.170586-4.031089 0.516806-5.994953 3.204199-7.958817zM729.42041 307.499748a6.098314 6.098314 0 0 1 3.100838 2.997476c-0.516806 1.033613-1.136974 2.170586-2.480671 0.930252s-2.377309-2.377309-0.620167-3.927728zM698.928838 264.501464a6.615121 6.615121 0 0 1 1.136974 4.031089c-2.170586 1.033613-2.997477-0.620168-3.30756-2.170587s0.516806-1.65378 2.170586-1.860502zM429.259312 246.516604a3.410922 3.410922 0 0 1 2.894115 2.067226c-0.723529 1.240335-1.550419 2.48067-2.997477 1.240335a1.860503 1.860503 0 0 1 0.103362-3.307561zM297.370344 239.5914l2.067225 0.930251c0.82689 1.860503-0.620168 2.273948-1.757141 2.377309a1.963864 1.963864 0 0 1-2.067225-1.65378c0.206723-1.240335 0.206723-1.550419 1.757141-1.65378zM711.435551 288.481276l1.033612 1.033612c-0.620168 1.033613-1.240335 2.067225-2.584031 1.343697a1.860503 1.860503 0 0 1-0.82689-1.550419c0.206723-1.136974 1.447058-0.723529 2.377309-0.82689zM740.273342 317.319067a3.514283 3.514283 0 0 1 2.894115 2.170587c0 0.723529-0.930251 1.65378-1.757141 1.343696s-1.136974-2.273948-1.136974-3.514283zM229.565358 276.49137l1.240335-2.894116c1.550419 0 1.860503 0.930251 1.136974 2.273948s-1.136974 2.067225-2.377309 0.620168zM198.453619 268.945998c0 0.723529 0 1.240335-1.033613 1.343696s-1.447058 0-1.240335-0.930251a2.170586 2.170586 0 0 1 1.136974-1.343697c0.516806-0.310084 1.136974 0.103361 1.136974 0.930252zM463.058444 230.59897a3.204199 3.204199 0 0 1 1.963863-1.963864c1.033613 0.82689 0.82689 1.550419 0 2.273948a1.240335 1.240335 0 0 1-1.963863-0.310084zM426.055113 243.312405l1.033612 1.033613c-0.723529 0.82689-1.757141 1.447058-2.377309 0s0.516806-1.033613 1.343697-1.033613z" fill="#FEE7EE" p-id="4114"></path><path d="M195.559503 669.57424a31.008378 31.008378 0 0 0 6.615121 13.023519c2.170586 3.824367 4.96134 7.338649 7.442011 11.059655a58.089028 58.089028 0 0 1 13.850409 17.881498c-3.100838 4.237812-6.098314 8.578985-9.199153 12.816796a182.639346 182.639346 0 0 1-35.34955 34.005855c-2.894115 2.273948-4.754618 1.963864-7.648734 0a182.846068 182.846068 0 0 1-35.34955-34.729384 44.548703 44.548703 0 0 1-11.266378-36.693247 23.77309 23.77309 0 0 1 20.672252-18.708388 31.008378 31.008378 0 0 1 26.977289 12.403351c2.997477 3.617644 3.927728 2.584031 6.305037 0a35.142828 35.142828 0 0 1 15.917634-10.336126s0.723529-1.136974 1.033612-0.723529z" fill="#FEAFAF" p-id="4115"></path><path d="M195.559503 669.57424h-0.930251a232.769557 232.769557 0 0 1-18.708388-47.339457 153.388109 153.388109 0 0 1-5.271424-63.773897 10.336126 10.336126 0 0 0 0-1.447057 11.163016 11.163016 0 0 1 0-6.925205l1.033612-4.031089a5.891592 5.891592 0 0 1 0-4.857979l5.064702-27.184011a106.875543 106.875543 0 0 1 20.672252 35.762995 162.690623 162.690623 0 0 1-1.860503 119.7957z" fill="#F4F4F4" p-id="4116"></path><path d="M120.105784 512.051681a8.475623 8.475623 0 0 1 4.237811-8.785707 6.925204 6.925204 0 0 1 7.958817 0.930251c2.377309 1.963864 4.341173 2.790754 7.131927 0a7.028566 7.028566 0 0 1 9.199152 0 7.958817 7.958817 0 0 1 3.2042 9.199152 35.762996 35.762996 0 0 1-14.573938 17.571414 1.860503 1.860503 0 0 1-2.273948 0 39.277279 39.277279 0 0 1-14.884021-17.054608 2.997477 2.997477 0 0 1 0-1.860502zM97.883113 574.068436a7.855456 7.855456 0 0 1 13.333602-6.821843c2.067225 1.860503 3.204199 1.757141 5.374786 0a7.958817 7.958817 0 0 1 10.852932-0.516806 8.475623 8.475623 0 0 1 1.757142 10.336126 41.344504 41.344504 0 0 1-13.436964 14.987383c-1.033613 0.82689-2.48067 1.447058-3.617644 0a44.445342 44.445342 0 0 1-13.747048-16.020996 17.984859 17.984859 0 0 1-0.516806-1.963864zM276.49137 353.288786l-13.95377 13.023518c0-1.136974 0-2.273948-0.930252-2.997476a1.550419 1.550419 0 0 1 0-2.067225c0.103361-9.922681 3.204199-11.576461 14.884022-7.958817z" fill="#FEAFAF" p-id="4117"></path><path d="M261.297265 361.247603v2.067225a20.672252 20.672252 0 0 1-1.963864-1.447058 1.447058 1.447058 0 0 1 0-2.48067c1.550419-0.413445 0.930251 1.550419 1.963864 1.860503z" fill="#FEE7EE" p-id="4118"></path><path d="M170.64944 549.881902v6.925204a5.788231 5.788231 0 0 1 0-6.925204z" fill="#FCD3D3" p-id="4119"></path><path d="M171.786414 540.992833v4.85798a3.30756 3.30756 0 0 1 0-4.85798z" fill="#FCD0D0" p-id="4120"></path><path d="M223.467044 711.538912a211.063692 211.063692 0 0 1-13.953771-17.984859 1.860503 1.860503 0 0 1 2.687393-1.136974 332.099727 332.099727 0 0 0 66.978096 11.163016 132.612496 132.612496 0 0 1 19.121834 1.860503c2.273948 0 3.204199 1.550419 4.237811 2.894115a227.394771 227.394771 0 0 0 79.174725 59.329363 308.016554 308.016554 0 0 0 95.19572 26.460482 342.642576 342.642576 0 0 0 59.226002 1.550419 304.192187 304.192187 0 0 0 105.325124-24.393257 235.146866 235.146866 0 0 0 79.381447-54.057939 155.04189 155.04189 0 0 0 43.618452-89.407489 145.739376 145.739376 0 0 0-3.514283-53.747856c-0.620168-2.48067-2.170586-4.96134 0-7.648733a26.460482 26.460482 0 0 0 6.408398-10.336126A237.730897 237.730897 0 0 0 795.8817 462.334915a250.340971 250.340971 0 0 0-1.757142-53.644494 142.638538 142.638538 0 0 0-7.028565-22.222671c0-1.447058-1.860503-2.894115 0-4.547895a286.207328 286.207328 0 0 1 40.000807 54.884829 268.119108 268.119108 0 0 1 28.837792 71.629353c0 1.757141 0.516806 3.617644 0.82689 5.374785a8.578985 8.578985 0 0 1-2.377309 4.754618 144.705764 144.705764 0 0 0-28.424347 81.448673 189.357828 189.357828 0 0 0 8.578985 63.257091 8.889068 8.889068 0 0 1 0.82689 5.271424c0 4.237812-2.894115 6.821843-4.651257 10.336126-3.100838 5.374786-6.718482 10.336126-10.336126 15.710911a292.202281 292.202281 0 0 1-45.685676 46.926012 329.308973 329.308973 0 0 1-79.794893 47.029373l-4.031089 1.963864a10.956294 10.956294 0 0 1-5.478147 3.307561 344.503079 344.503079 0 0 1-33.902493 11.576461 75.660442 75.660442 0 0 1-7.752094 0.930251 186.050267 186.050267 0 0 0-19.225195 5.478147l-23.77309 4.031089a214.577975 214.577975 0 0 1-24.806702 3.927728 510.604623 510.604623 0 0 1-80.621782 2.894115 397.527405 397.527405 0 0 1-68.631877-7.338649 62.016756 62.016756 0 0 0-17.157969-2.997477c-8.062178-3.410922-16.847885-4.13445-25.116786-6.925204-2.790754-0.930251-5.788231-1.550419-8.682346-2.273948a98.503281 98.503281 0 0 1-34.522661-11.989906c-15.297466-6.821843-31.008378-13.643686-45.16887-21.912587a287.447663 287.447663 0 0 1-72.559604-57.675583z" fill="#F55954" p-id="4121"></path><path d="M341.195518 791.127082l34.109216 11.679822a2.687393 2.687393 0 0 0-1.65378 2.273948 46.305844 46.305844 0 0 1-13.230241 25.013425 153.801554 153.801554 0 0 1-20.672252 18.708388 4.237812 4.237812 0 0 1-6.098315 0 127.134349 127.134349 0 0 1-26.25376-26.667205 29.354598 29.354598 0 0 1-6.408398-23.669729 17.468053 17.468053 0 0 1 28.114263-10.336126 12.713435 12.713435 0 0 1 4.237812 3.307561c3.30756 5.994953 5.581508 3.721005 7.855455-0.310084zM273.493893 771.695165a16.331079 16.331079 0 0 1-4.547895 10.336126l-0.723529 0.723529c-3.824367 3.100838-7.131927 10.336126-11.679822 8.165539a25.323509 25.323509 0 0 1-14.987383-19.121833 7.752094 7.752094 0 0 1 12.920157-6.201675 4.13445 4.13445 0 0 0 6.51176 0 6.718482 6.718482 0 0 1 8.268901-1.136974 7.752094 7.752094 0 0 1 4.237811 7.235288zM643.527203 806.217826c15.917634-4.444534 31.525184-10.336126 47.029373-15.814273a5.168063 5.168063 0 0 0 0 0.82689c6.098314 6.718482 6.098314 6.718482 12.403351 0a31.008378 31.008378 0 0 1 23.669729-9.509236 23.77309 23.77309 0 0 1 20.672252 15.917634 38.760472 38.760472 0 0 1-7.958817 35.762996 180.158676 180.158676 0 0 1-38.863834 38.760472 4.547895 4.547895 0 0 1-6.511759 0 165.378016 165.378016 0 0 1-41.344504-43.411729 46.615928 46.615928 0 0 1-6.821843-20.052084c-0.206723-0.723529-0.206723-2.273948-2.273948-2.48067zM840.327041 803.530433a20.052084 20.052084 0 0 1-3.410921 10.336126 72.352882 72.352882 0 0 1-18.088221 18.605027c-1.136974 0.82689-2.170586 2.273948-3.824366 0.930251a58.709196 58.709196 0 0 1-21.809226-26.25376 13.230241 13.230241 0 0 1 4.13445-13.747047 11.163016 11.163016 0 0 1 14.573938 1.343696c3.617644 3.927728 5.581508 2.997477 8.99243 0a10.852932 10.852932 0 0 1 12.403351-2.170587 12.713435 12.713435 0 0 1 7.028565 10.956294z" fill="#FEAFAF" p-id="4122"></path><path d="M834.952256 668.74735a169.305743 169.305743 0 0 1-11.059655-55.608357 149.35702 149.35702 0 0 1 27.597457-93.025134c1.447058-1.963864 3.204199-3.824367 4.754617-5.684869 1.757141 1.240335 0 3.824367 1.963864 4.96134 0.82689 9.302513 2.584031 18.605027 3.514283 27.90754a191.321692 191.321692 0 0 1-10.852932 89.924296c-3.927728 10.336126-9.095791 19.535278-13.023519 29.56132a3.100838 3.100838 0 0 1-2.894115 1.963864z" fill="#F4F4F4" p-id="4123"></path><path d="M874.64298 370.343394a19.638639 19.638639 0 0 1-3.410922 10.336126 70.492379 70.492379 0 0 1-17.778137 18.501665 3.824367 3.824367 0 0 1-5.581508 0 61.086504 61.086504 0 0 1-19.121833-20.672252 12.816796 12.816796 0 0 1 6.718482-19.431917 11.886545 11.886545 0 0 1 11.679823 3.721006c2.584031 2.48067 4.031089 2.687393 6.718482 0a11.679822 11.679822 0 0 1 20.672251 7.752094zM896.245483 453.859291a27.804179 27.804179 0 0 1-6.821843 14.780661 81.448673 81.448673 0 0 1-14.78066 13.95377c-1.033613 0.930251-2.377309 1.860503-4.031089 0.516806a66.668013 66.668013 0 0 1-20.672252-23.566367 12.610074 12.610074 0 0 1 7.338649-17.984859 11.989906 11.989906 0 0 1 11.369739 3.514282c2.48067 2.170586 4.031089 2.997477 7.131927 0a11.576461 11.576461 0 0 1 20.672252 8.475624z" fill="#FEAFAF" p-id="4124"></path><path d="M586.781871 205.688907l5.064702 5.994953c-3.410922-0.620168-6.615121-1.240335-5.064702-5.994953zM581.820531 198.660341l1.136974 1.963864c-0.930251 0-2.067225 1.550419-2.790754 0s0.310084-1.860503 1.65378-1.963864zM594.740688 214.681336l1.033613 1.033613c0 0.82689 0 1.963864-1.343696 1.343696s-0.620168-1.65378 0.310083-2.377309zM577.892803 190.701524a2.273948 2.273948 0 0 1 1.033613 1.963864c-0.930251 0-2.067225 0-2.480671-0.723529s0.723529-1.033613 1.447058-1.240335z" fill="#FEE7EF" p-id="4125"></path><path d="M760.325426 566.833148a206.722519 206.722519 0 0 1 6.51176 37.210054 139.537701 139.537701 0 0 1-10.336126 61.293227 182.225901 182.225901 0 0 1-65.737761 80.104976 281.659433 281.659433 0 0 1-127.857879 48.993237 324.761078 324.761078 0 0 1-168.995659-20.052084 234.63006 234.63006 0 0 1-95.402443-68.94196 163.31079 163.31079 0 0 1-28.941153-57.3655 150.493994 150.493994 0 0 1 15.917634-112.043605 235.250227 235.250227 0 0 1 95.712527-93.025134 269.876249 269.876249 0 0 1 98.296558-32.145352 279.075401 279.075401 0 0 1 152.251135 22.326032 258.403149 258.403149 0 0 1 81.552034 57.055416 198.867064 198.867064 0 0 1 46.512567 75.246997 12.29999 12.29999 0 0 0 0.516806 1.343696z" fill="#F9E7DA" p-id="4126"></path><path d="M393.186232 608.901181l3.100838-4.237812a37.72686 37.72686 0 0 1 67.908347 22.842839 39.897446 39.897446 0 0 1-20.672252 35.969718 280.62582 280.62582 0 0 0-31.938629 22.9462 158.762895 158.762895 0 0 0-15.297466 14.987382c-2.067225 2.273948-3.617644 2.377309-5.581508 0a211.477137 211.477137 0 0 0-48.476431-40.20753 40.20753 40.20753 0 0 1-14.057131-54.781467 38.243666 38.243666 0 0 1 60.673059-2.894116zM625.645705 690.556576a194.112446 194.112446 0 0 0-35.556273-27.804179 41.964671 41.964671 0 0 1-22.015949-37.003331 33.902493 33.902493 0 0 1 21.912587-33.178964 36.693247 36.693247 0 0 1 41.344504 6.511759 49.096598 49.096598 0 0 1 8.062179 9.405875 93.025134 93.025134 0 0 1 9.612597-10.336126 36.176441 36.176441 0 0 1 37.416776-5.994953 35.039467 35.039467 0 0 1 22.842838 28.631069 40.20753 40.20753 0 0 1-20.672252 43.411729 198.040174 198.040174 0 0 0-46.719289 37.72686c-2.170586 2.48067-3.721005 1.447058-5.271424 0a53.024326 53.024326 0 0 0-7.442011-8.062179c-1.65378-1.033613-3.204199-1.447058-3.514283-3.30756z" fill="#E34C64" p-id="4127"></path><path d="M705.440598 672.571717a16.537802 16.537802 0 0 1 11.886544 3.204199 7.648733 7.648733 0 0 1 0 13.540325 24.083174 24.083174 0 0 1-25.840315-0.82689 7.235288 7.235288 0 0 1 0-12.196629 18.501665 18.501665 0 0 1 13.953771-3.721005zM326.828303 672.675078a19.225194 19.225194 0 0 1 14.367215 3.307561 7.442011 7.442011 0 0 1-0.516806 12.816796 22.842838 22.842838 0 0 1-19.535278 2.790754c-5.994953-1.65378-10.336126-5.581508-9.715958-9.81932a12.920157 12.920157 0 0 1 11.163016-9.095791 29.768043 29.768043 0 0 1 4.237811 0z" fill="#F090AF" p-id="4128"></path><path d="M606.937317 690.03977a8.682346 8.682346 0 0 1-1.240335 1.550419l-30.801655 27.184011c-0.930251 0.723529-1.963864 1.757141-2.997477 0.723529s0-2.790754 1.136974-3.721005l20.672252-17.571415 10.336126-8.992429c0.620168-0.516806 1.240335-1.240335 2.170586-0.82689s1.136974 0.310084 0.723529 1.65378zM559.701221 689.316241c0 1.136974-0.930251 1.65378-1.65378 2.273948l-31.008378 26.563844c-0.930251 0.723529-1.860503 1.757141-2.997476 0s0-2.273948 1.136974-3.100838l31.008378-26.357122c0.82689-0.723529 1.65378-1.757141 2.997476-1.447057s0.516806 1.343696 0.516806 2.067225zM488.692036 687.765822a4.13445 4.13445 0 0 1-1.963864 3.514283l-31.008378 25.840315c-1.033613 0.82689-2.170586 2.273948-3.410921 1.033613s0-2.687393 1.240335-3.617645l31.008378-26.150398c0.723529-0.620168 1.447058-1.550419 2.584031-1.136974a5.581508 5.581508 0 0 1 1.550419 0.516806zM464.815585 688.902796a14.263854 14.263854 0 0 1-1.65378 1.860503l-31.008378 25.840315c-1.033613 0.930251-2.170586 2.687393-3.617644 0.82689s0.516806-2.584031 1.65378-3.514283l31.008378-25.530231c1.033613-0.82689 1.860503-2.067225 3.410921-1.550419s0.413445 0.930251 0.206723 2.067225zM512.878571 688.489351a24.186535 24.186535 0 0 1-2.273948 2.687393l-31.008378 25.840315c-1.136974 0.930251-2.48067 2.584031-3.721005 0.723528s0.620168-2.687393 1.757141-3.617644l29.56132-24.806702c1.136974-1.033613 2.273948-2.067225 3.927728-1.550419zM407.036641 717.637226c-1.550419 0.516806-1.757141 0-2.067225-0.723529s0-1.860503 1.033612-2.48067l19.742001-16.331079 11.679822-10.336126c1.033613-0.82689 2.273948-1.963864 3.30756 0s0 2.067225-1.136973 2.894115l-30.078127 25.323509z" fill="#F7B1B1" p-id="4129"></path><path d="M583.681034 687.765822a14.057131 14.057131 0 0 1-1.757142 2.170587l-30.284849 25.736953-2.067225 1.447058c-0.723529 0-1.65378 0.620168-2.273948 0s0-1.550419 0.723529-2.067225c3.100838-2.790754 6.098314-5.581508 9.302513-8.268901l22.842839-19.018472c0.930251-1.136974 2.273948-2.894115 3.514283 0z" fill="#F7B0B1" p-id="4130"></path><path d="M501.198748 718.7742c-0.723529-0.620168-1.550419-1.033613-1.550419-1.447058a3.617644 3.617644 0 0 1 1.136974-2.067225l20.672252-18.08822 10.336126-8.99243c0.930251-0.723529 1.963864-1.65378 2.997477 0s0 2.170586-0.82689 2.894115l-31.008378 26.563844zM625.645705 690.556576l3.100838 2.894115A136.850308 136.850308 0 0 0 609.831432 708.438074c-3.927728 2.997477-7.545372 6.408398-11.266377 9.715959-1.136974 1.033613-2.687393 2.170586-3.927728 0.930251s0.620168-2.584031 1.550419-3.410922z" fill="#F7B1B1" p-id="4131"></path><path d="M393.599677 613.345715a44.031897 44.031897 0 0 1 17.984859-17.778137 35.142828 35.142828 0 0 1 49.613405 25.013425 38.450389 38.450389 0 0 1-20.672252 41.964672 211.787221 211.787221 0 0 0-45.478954 35.556273c-1.447058 1.550419-1.860503 2.067225-3.514283 0a220.262844 220.262844 0 0 0-47.029373-38.760472 43.101645 43.101645 0 0 1-19.948723-30.078127 34.936106 34.936106 0 0 1 29.354597-37.003331 36.176441 36.176441 0 0 1 37.106693 18.294943c0.516806 1.240335 0.930251 2.584031 2.584031 2.790754zM707.507823 626.369234a38.347027 38.347027 0 0 1-20.672252 35.349551 209.719996 209.719996 0 0 0-45.168871 36.383163c-2.48067 2.790754-3.721005 1.447058-5.374785 0a193.078833 193.078833 0 0 0-44.962148-37.106692 41.344504 41.344504 0 0 1-19.948723-27.184011 33.385687 33.385687 0 0 1 29.354597-41.137782 34.522661 34.522661 0 0 1 36.176441 18.191582c1.860503 2.894115 2.894115 2.894115 4.651257 0a33.799132 33.799132 0 0 1 31.008378-18.605027 34.522661 34.522661 0 0 1 34.936106 34.109216z" fill="#F14C68" p-id="4132"></path></svg>