<?xml version="1.0" standalone="no"?><!DOCTYPE svg PUBLIC "-//W3C//DTD SVG 1.1//EN" "http://www.w3.org/Graphics/SVG/1.1/DTD/svg11.dtd"><svg t="1550212797655" class="icon" style="" viewBox="0 0 1025 1024" version="1.1" xmlns="http://www.w3.org/2000/svg" p-id="2846" xmlns:xlink="http://www.w3.org/1999/xlink" width="200.1953125" height="200"><defs><style type="text/css">@font-face { font-family: "Roboto Condensed"; src: url("chrome-extension://lienonopcegannlgdkgonpofbhgmclcc/RobotoCondensed-Regular.ttf"); }
</style></defs><path d="M512.519481 1024H4.571429c-3.74026 0-4.571429-0.831169-4.571429-4.571429V4.571429C0 0.831169 0.831169 0 4.571429 0h1015.792207c3.74026 0 4.571429 0.831169 4.571429 4.571429v1014.857142c0 3.74026-0.831169 4.571429-4.571429 4.571429z" fill="#FEFEFE" p-id="2847"></path><path d="M63.792208 491.844156a423.584416 423.584416 0 0 1 7.168831-62.337662 442.181818 442.181818 0 0 1 49.454545-136.103897c1.246753-2.181818 2.597403-4.155844 3.948052-6.337662a17.038961 17.038961 0 0 1 6.545455-4.363636 356.675325 356.675325 0 0 1 102.857143-24.935065 322.077922 322.077922 0 0 1 36.25974-1.87013 372.987013 372.987013 0 0 1 121.558442 22.441558 18.181818 18.181818 0 0 0 12.571428 0.623377 354.597403 354.597403 0 0 1 77.194805-14.857143 348.571429 348.571429 0 0 1 67.636364 1.246753 362.285714 362.285714 0 0 1 71.584416 15.272728 11.948052 11.948052 0 0 0 9.454545-0.727273 352.311688 352.311688 0 0 1 75.220779-24.727273 393.766234 393.766234 0 0 1 56.831169-7.272727 365.298701 365.298701 0 0 1 86.753247 6.233766c9.350649 1.662338 18.493506 4.155844 27.636363 6.441559a16.831169 16.831169 0 0 1 5.714286 2.90909 316.25974 316.25974 0 0 1 22.337663 36.363637 446.753247 446.753247 0 0 1 46.337662 131.012987c1.454545 7.584416 2.285714 15.376623 3.428571 23.064935 0.519481 1.246753 0 2.077922-1.038961 2.597403a46.857143 46.857143 0 0 1-13.194805-8.727273 276.467532 276.467532 0 0 0-128.207792-49.038961 104.623377 104.623377 0 0 0-21.922078-1.038961c-3.532468-1.558442-5.194805-4.987013-8.103896-8.103896a108.051948 108.051948 0 0 1 9.246753 44.987013 242.493506 242.493506 0 0 1-26.597403 121.558441 77.194805 77.194805 0 0 1-9.454545 15.688312c-2.909091 0-2.909091-2.285714-3.428571-3.948052a193.558442 193.558442 0 0 0-36.675325-63.584416 252.051948 252.051948 0 0 0-68.25974-55.896104 273.454545 273.454545 0 0 0-103.48052-33.454545 282.597403 282.597403 0 0 0-46.64935-1.662338 277.402597 277.402597 0 0 0-94.857143 20.779221 243.428571 243.428571 0 0 0-118.025974 98.805195 155.844156 155.844156 0 0 0-23.792208 90.701299 147.116883 147.116883 0 0 0 27.948052 76.77922c1.662338 2.493506 5.194805 4.571429 3.116883 8.519481a35.74026 35.74026 0 0 1-14.233766 0 375.272727 375.272727 0 0 1-67.636364-10.389611 11.844156 11.844156 0 0 0-4.883117-0.51948 3.116883 3.116883 0 0 1-2.909091-1.454545 137.350649 137.350649 0 0 1-12.779221-20.779221 6.753247 6.753247 0 0 1-0.623376-3.844156 229.714286 229.714286 0 0 0 11.012987-45.298701c0-3.012987 0-6.025974 0.831169-8.935065a58.493506 58.493506 0 0 0 0-17.246754 164.675325 164.675325 0 0 0-13.298702-54.441558 141.506494 141.506494 0 0 0-17.142857-28.571429 12.155844 12.155844 0 0 1 0.935065-7.272727 294.337662 294.337662 0 0 1 45.194805-95.168831 25.454545 25.454545 0 0 0 3.22078-5.090909 103.896104 103.896104 0 0 0-16.519481 3.012987 272 272 0 0 0-112.415584 56 262.441558 262.441558 0 0 0-21.818182 20.779221c-0.935065 0.727273-1.662338 2.701299-4.051948 2.181818z" fill="#FA665A" p-id="2848"></path><path d="M754.38961 571.948052a89.142857 89.142857 0 0 1 7.168832-13.506494 250.181818 250.181818 0 0 0 25.974026-80.311688 214.857143 214.857143 0 0 0 2.493506-33.974026 118.545455 118.545455 0 0 0-9.350649-54.64935 5.61039 5.61039 0 0 1 0-3.74026l10.38961 11.428571c2.493506 0 3.324675 1.87013 4.467533 3.324676a294.441558 294.441558 0 0 1 54.857142 109.194805 11.116883 11.116883 0 0 1 0 8.311688 152.519481 152.519481 0 0 0-22.233766 39.896104 155.844156 155.844156 0 0 0-8.415584 68.987013 181.194805 181.194805 0 0 0 10.38961 44.987013 6.233766 6.233766 0 0 1-1.350649 4.675325 204.675325 204.675325 0 0 1-27.324676 37.402597c-2.181818 2.38961-3.948052 5.090909-6.337662 7.168831-4.051948 3.948052-8 8-11.948052 11.948052s-5.818182 4.363636-8.207792 7.168831a362.805195 362.805195 0 0 1-48 33.87013 356.883117 356.883117 0 0 1-55.376623 25.246753 418.597403 418.597403 0 0 1-68.155845 18.805195l-3.428571 0.623377c-2.909091 0-3.844156 1.350649-1.766234 4.051948a208.623377 208.623377 0 0 1 23.792208 42.597402 379.324675 379.324675 0 0 1 18.38961 53.714286 127.792208 127.792208 0 0 1 4.675325 19.844156 359.272727 359.272727 0 0 1-45.090909 11.74026l-9.142857 1.87013a52.675325 52.675325 0 0 1-2.285714-17.038961 185.454545 185.454545 0 0 0-15.688312-65.142858 59.220779 59.220779 0 0 0-31.168831-29.506493 154.909091 154.909091 0 0 0-70.857143-13.506494 201.038961 201.038961 0 0 0-23.272727 2.597403 5.298701 5.298701 0 0 0-5.194806 5.818182 146.597403 146.597403 0 0 1-14.233766 57.246753 156.779221 156.779221 0 0 1-34.701299 47.688312c-1.246753 1.142857-2.38961 2.38961-4.363636 1.974026a270.12987 270.12987 0 0 1-36.779221-11.948052 359.064935 359.064935 0 0 1-44.987013-20.155844 9.558442 9.558442 0 0 1-2.38961-7.272728 106.493506 106.493506 0 0 1 11.636364-49.974026c3.012987-6.233766 3.116883-6.337662-2.701299-10.38961a130.285714 130.285714 0 0 0-53.090909-20.779221 163.116883 163.116883 0 0 0-55.584416 0 21.61039 21.61039 0 0 1-5.922078 0.727273 8.935065 8.935065 0 0 1-1.662337-10.909091 535.376623 535.376623 0 0 0 66.493506 4.25974 405.194805 405.194805 0 0 0 45.714286-1.766233c10.38961-1.038961 19.844156-2.077922 29.610389-3.532468a17.662338 17.662338 0 0 0 10.909091-5.298701q7.168831-6.337662 14.753247-13.298702a5.714286 5.714286 0 0 0 1.558442-7.792207 76.883117 76.883117 0 0 1-7.168832-20.051948 50.493506 50.493506 0 0 1-1.246753-26.597403 31.168831 31.168831 0 0 1 15.064935-19.012987 12.883117 12.883117 0 0 1 11.532468-0.519481c4.675325 1.662338 6.441558 0.935065 8.727273-3.532467 0.519481-1.038961 0.935065-2.181818 1.454545-3.220779a14.233766 14.233766 0 0 1 17.662338-7.48052 53.61039 53.61039 0 0 1 20.77922 13.298702 55.064935 55.064935 0 0 0 6.649351 6.025974 6.441558 6.441558 0 0 0 10.38961-1.662338c2.805195-3.74026 5.194805-7.792208 8.207793-11.324675a18.909091 18.909091 0 0 1 27.740259-3.532468 16.519481 16.519481 0 0 1 5.09091 16.727273 80.103896 80.103896 0 0 1-6.129871 19.948052A268.363636 268.363636 0 0 1 458.597403 789.61039c-4.051948 6.025974-4.051948 6.12987 3.220779 7.168831a325.714286 325.714286 0 0 0 59.116883 3.220779 310.753247 310.753247 0 0 0 137.142857-36.363636 200 200 0 0 0 85.194805-83.116883 137.142857 137.142857 0 0 0 15.48052-60.363637 151.688312 151.688312 0 0 0-4.883117-41.558441c0-2.805195-0.935065-4.779221 0.51948-6.649351z" fill="#F0524F" p-id="2849"></path><path d="M726.545455 773.506494c6.753247-5.714286 14.857143-9.454545 22.025974-14.545455 8.831169-6.233766 17.350649-12.779221 25.766233-19.636364 1.87013 0 3.636364 1.038961 4.571429-1.662337s2.597403-3.324675 3.532467-5.194806l11.948052-11.948051a36.363636 36.363636 0 0 1 33.558442-2.597403 46.337662 46.337662 0 0 0-22.857143-2.805195c-1.766234 0-4.051948 1.454545-4.779221-1.558441a260.363636 260.363636 0 0 0 28.883117-40.519481c-1.038961-2.597403 0.519481-4.467532 1.558442-6.441558a208.623377 208.623377 0 0 0 22.64935-67.74026 181.506494 181.506494 0 0 0 0.831169-38.441559 336.103896 336.103896 0 0 0-4.779221-40 24.519481 24.519481 0 0 1 0-3.428571 93.506494 93.506494 0 0 0-6.441558-25.662338 292.155844 292.155844 0 0 0-52.675325-93.506493c4.155844-2.701299 8.623377-1.142857 12.883117-0.727273a281.350649 281.350649 0 0 1 83.116883 20.25974 268.987013 268.987013 0 0 1 66.701299 39.168832c1.454545 0 1.246753 1.87013 1.974026 2.90909l1.038961 3.22078a11.012987 11.012987 0 0 0 0 6.753246v2.181819c1.350649 3.220779 0 6.649351 0.935065 9.870129l0.935065 4.155845a71.168831 71.168831 0 0 0 0 17.766233v19.636364c-1.350649 5.922078 0 11.948052-0.935065 17.87013v4.051948c-1.350649 2.805195 0 6.025974-0.935065 8.831169v3.116883c-1.246753 2.181818 0 4.779221-0.935065 6.857143v2.077922c-1.246753 1.766234 0 4.051948-0.935065 5.922078v2.077922c-1.142857 1.454545 0 3.428571-0.935065 4.883117a164.779221 164.779221 0 0 1-4.779221 28.467532 84.363636 84.363636 0 0 1-3.948051 16.519481 30.337662 30.337662 0 0 1-7.896104 0h-54.025974a9.766234 9.766234 0 0 0-6.649351 1.142857 28.467532 28.467532 0 0 0 10.38961 0.831169h5.506494c6.649351 0 7.272727 0.623377 7.896104 7.376623a14.961039 14.961039 0 0 0 29.818182 1.142857c1.142857-8.623377 4.883117-10.38961 13.506493-7.168831a109.298701 109.298701 0 0 1-6.441558 23.896104 416.415584 416.415584 0 0 1-28.571429 68.155844 385.662338 385.662338 0 0 1-29.402597 49.142857 42.597403 42.597403 0 0 1-3.428572 3.532468 21.714286 21.714286 0 0 1-7.584415 3.532467 340.051948 340.051948 0 0 1-135.064935 8.727273 15.584416 15.584416 0 0 1-9.87013-2.909091c-1.558442-4.155844 1.766234-5.61039 3.844156-7.584415z" fill="#F9E7DA" p-id="2850"></path><path d="M178.077922 214.545455a374.025974 374.025974 0 0 1 46.337662-45.09091 105.350649 105.350649 0 0 1 15.272728-11.844155 21.818182 21.818182 0 0 1 12.987013-0.831169 19.74026 19.74026 0 0 0 5.922078 0h508.051948a36.571429 36.571429 0 0 1 17.558441 1.350649 270.12987 270.12987 0 0 1 27.636364 24.103896 315.636364 315.636364 0 0 1 31.168831 31.168831c1.038961 3.220779-1.350649 4.051948-3.532468 4.883117a20.779221 20.779221 0 0 1-7.376623 0.623377H188.467532a26.077922 26.077922 0 0 1-6.441558 0c-2.077922-0.623377-3.948052-1.350649-3.948052-4.363636z" fill="#FBA17A" p-id="2851"></path><path d="M178.077922 214.545455a6.337662 6.337662 0 0 0 5.922078 3.012987h650.701299c3.324675 0 7.272727 0.831169 8.51948-3.844156a348.779221 348.779221 0 0 1 38.857143 49.87013c-13.818182-3.532468-27.532468-7.064935-41.558441-9.454546a353.246753 353.246753 0 0 0-40.415585-4.571428c-5.61039 0-11.220779-0.935065-16.831169-0.935065a367.688312 367.688312 0 0 0-122.805195 20.77922 307.74026 307.74026 0 0 0-31.168831 12.571429 11.532468 11.532468 0 0 1-9.454545 0.51948 362.077922 362.077922 0 0 0-116.363637-17.558441 353.246753 353.246753 0 0 0-94.857142 14.961039 27.844156 27.844156 0 0 1-19.532468 0 333.714286 333.714286 0 0 0-72.103896-17.766234 347.636364 347.636364 0 0 0-54.441558-3.74026 359.168831 359.168831 0 0 0-75.22078 9.038961 368.831169 368.831169 0 0 0-62.337662 20.779221 340.155844 340.155844 0 0 1 29.194805-44.25974 267.532468 267.532468 0 0 1 23.896104-29.402597z" fill="#FAA779" p-id="2852"></path><path d="M783.688312 158.649351H256.727273c-3.116883 0-7.584416-2.077922-8.831169-1.454546-3.220779 1.87013-5.922078 0-8.727273 0.519481a310.337662 310.337662 0 0 1 38.753247-27.012987 438.857143 438.857143 0 0 1 88.51948-41.558442 209.662338 209.662338 0 0 1 28.571429-8.311688c1.246753 3.012987 2.701299 4.051948 5.194805 1.038961s3.532468-2.909091 5.506494 0a2.285714 2.285714 0 0 0 4.051948 0c4.571429-5.506494 10.38961-2.38961 14.753247-0.623377 2.597403 0.935065 4.571429 2.493506 7.272727 0.831169a1.974026 1.974026 0 0 1 2.285714 0c3.012987 1.87013 5.298701 0.623377 7.376623-1.558441s3.428571-2.701299 5.09091 0c0 0.623377 0.727273 1.974026 1.662337 0.831168 2.805195-3.116883 5.194805 0 7.792208 0 4.25974 0 7.896104 2.181818 12.051948 2.597403 1.350649 0 1.350649-1.142857 2.077922-1.662338s2.701299-2.597403 4.675325-0.831169 0.623377 0 0.623376-0.51948 0-1.766234 0.623377-2.181818 1.87013 0 2.597403 1.038961a28.987013 28.987013 0 0 1 2.701298 3.636363c1.454545 1.974026 3.428571 3.116883 5.402598 1.142858s3.012987 0 4.363636 0a7.584416 7.584416 0 0 0 4.675325-2.077923 2.493506 2.493506 0 0 1 4.155844 0c2.701299 3.428571 3.948052 1.350649 5.194805-1.142857a7.584416 7.584416 0 0 1 2.077922-2.805194c0.727273-0.519481 2.077922-0.935065 2.181818 0 0.623377 5.714286 6.649351 3.532468 9.142858 6.441558h0.623376c1.662338-0.935065 0-4.155844 2.181818-4.25974s2.493506 2.285714 3.324676 4.051948c1.246753-3.428571 4.883117-3.532468 7.376623-4.987013s2.38961 1.350649 3.220779 2.493506 3.012987 3.636364 5.714286 1.766234 3.844156 0 5.818182 0 4.25974 1.142857 4.363636-2.181818l0.727273-0.727273c1.87013 3.74026 5.402597-2.597403 7.376623 1.246753 0.831169 1.454545 1.246753-1.350649 2.285715-0.623376s0.935065 0.727273 0.935064 0.727272a2.493506 2.493506 0 0 0-0.935064-0.935064c-1.142857-3.532468 1.142857-2.38961 2.285714-1.35065a12.467532 12.467532 0 0 0 10.909091 3.74026c4.25974-0.831169 8.415584 1.766234 12.883117 0.831169s8.831169 0 11.844155-4.571429a1.454545 1.454545 0 0 1 2.493507 0v0.935065c0 0.103896 3.636364-5.194805 5.194805 0 1.662338-1.558442 5.090909-0.831169 5.506494-4.051948a91.74026 91.74026 0 0 1 17.142857 4.571429c0.935065 3.532468 4.467532 3.012987 7.584415 5.298701-1.558442-2.285714-4.363636-1.766234-3.740259-4.25974a328.935065 328.935065 0 0 1 49.246753 16.935065 433.558442 433.558442 0 0 1 93.506493 52.883117c2.38961 1.974026 4.779221 4.155844 7.272728 6.12987z" fill="#FC9C7A" p-id="2853"></path><path d="M63.792208 491.844156a272.519481 272.519481 0 0 1 158.233766-84.051948 302.025974 302.025974 0 0 0-52.25974 108.779221 11.116883 11.116883 0 0 1 0 7.272727 321.038961 321.038961 0 0 0-5.714286 60.675325 165.61039 165.61039 0 0 0 5.922078 40.207792c0.623377 2.38961 1.87013 4.675325 0.623377 7.272727a11.428571 11.428571 0 0 1-7.272728 1.246753h-55.688311a8.207792 8.207792 0 0 0-5.818182 0.935065c1.246753 1.350649 2.805195 1.038961 4.155844 1.038961h12.467532c5.506494 0 6.233766 0.935065 6.857143 6.233766a21.922078 21.922078 0 0 0 1.766234 7.168832 14.753247 14.753247 0 0 0 28.155844-5.090909c0.831169-8.415584 0.831169-8.415584 9.142857-8.519481a26.701299 26.701299 0 0 0 6.441559-0.623377c1.662338-0.519481 2.493506 0 3.012987 1.766234a220.883117 220.883117 0 0 0 14.64935 33.558442 9.766234 9.766234 0 0 1 0 2.909091 117.506494 117.506494 0 0 0 15.168832 24.935065 24.935065 24.935065 0 0 1 9.246753 12.363636 31.792208 31.792208 0 0 1-3.636364 6.337662 8.519481 8.519481 0 0 1-13.922078 1.766234l-10.38961-9.558442a44.675325 44.675325 0 0 0-13.922078-8.415584 12.051948 12.051948 0 0 0-16.727273 6.961039 20.779221 20.779221 0 0 1-3.428571 6.025974 5.922078 5.922078 0 0 1-6.649351 1.974026 16.415584 16.415584 0 0 0-20.779221 6.649351c-1.350649 1.766234-2.181818 4.155844-4.675324 4.987013a350.753247 350.753247 0 0 1-19.116883-39.688312c-4.467532-11.428571-9.454545-22.649351-13.194806-34.285714a505.766234 505.766234 0 0 1-13.922077-54.233767 80.831169 80.831169 0 0 1-3.636364-17.246753c-1.142857-1.454545 0-3.428571-0.935065-4.883117v-2.077922c-1.246753-1.766234 0-4.051948-0.935065-5.922078v-2.077922c-1.246753-1.87013 0-4.155844-0.935065-5.922078v-3.116883c-1.350649-2.493506 0-5.402597-0.935065-7.896104v-4.051948c-1.350649-4.25974 0-8.727273-0.935065-12.883117a17.766234 17.766234 0 0 0-0.935065-8.103896 113.038961 113.038961 0 0 0 0-22.857143c1.350649-3.324675 0.519481-6.545455 0.519481-9.558441z" fill="#F9E7DB" p-id="2854"></path><path d="M389.194805 943.168831a154.181818 154.181818 0 0 0 50.701299-93.506493 120.831169 120.831169 0 0 0 1.142857-15.792208c0-3.116883 1.142857-4.571429 4.155844-4.987013a206.649351 206.649351 0 0 1 38.961039-3.012987 145.454545 145.454545 0 0 1 70.649351 20.779221 58.701299 58.701299 0 0 1 21.922078 29.402597 183.376623 183.376623 0 0 1 13.194805 61.714286c0 4.883117 0.935065 9.87013 0.831169 14.857143-7.688312 0.831169-15.168831 3.012987-22.961039 3.012987a0.935065 0.935065 0 0 1-0.727273-1.142858 86.233766 86.233766 0 0 0-22.753247-27.324675c-10.38961-9.766234-20.779221-19.116883-30.337662-28.779221-2.181818-2.077922-3.532468-2.493506-6.025974 0-13.61039 12.675325-27.428571 25.142857-41.558442 37.61039a60.571429 60.571429 0 0 0-13.298701 17.246753 4.155844 4.155844 0 0 1-5.090909 2.597403q-29.298701-4.571429-57.974026-11.844156s-0.415584-0.519481-0.831169-0.831169z" fill="#F86158" p-id="2855"></path><path d="M726.545455 773.506494l-4.259741 6.025974a15.376623 15.376623 0 0 1-6.233766 9.662337 14.441558 14.441558 0 0 0-4.675325 14.753247 51.948052 51.948052 0 0 1 0.519481 10.38961 150.753247 150.753247 0 0 1-28.987013 87.48052 9.662338 9.662338 0 0 0-1.142857 10.909091 22.545455 22.545455 0 0 1 3.948052 11.324675 264 264 0 0 1-40.727273 14.961039 110.961039 110.961039 0 0 1-6.233766-20.779221 304.831169 304.831169 0 0 0-38.753247-90.38961l-5.818182-8.519481a34.285714 34.285714 0 0 1 10.389611-2.181818 430.12987 430.12987 0 0 0 85.610389-25.974026 243.636364 243.636364 0 0 0 35.116883-17.558441c0.103896-0.311688 0.623377-0.831169 1.246754-0.103896z" fill="#EA4B4A" p-id="2856"></path><path d="M685.714286 924.051948c-2.077922-4.675325-3.948052-9.558442-6.233767-14.025974a5.922078 5.922078 0 0 1 0.831169-7.168831 143.376623 143.376623 0 0 0 26.285715-56.311688 157.194805 157.194805 0 0 0 3.948052-32.415585 8.311688 8.311688 0 0 1 5.714285-2.597402 160.103896 160.103896 0 0 1 95.064935 10.38961 91.116883 91.116883 0 0 1 10.389611 5.714286c1.246753 0.727273 2.805195 1.350649 2.493506 3.324675a408 408 0 0 1-54.64935 46.025974A428.363636 428.363636 0 0 1 685.714286 924.051948z" fill="#FA665A" p-id="2857"></path><path d="M117.714286 726.649351a31.792208 31.792208 0 0 1 12.883117-13.402598 10.38961 10.38961 0 0 1 11.324675 0c3.948052 2.597403 6.441558 1.142857 8.51948-2.38961a30.337662 30.337662 0 0 0 1.766234-3.532468 13.090909 13.090909 0 0 1 18.389611-8.207792 60.779221 60.779221 0 0 1 20.77922 13.922078c1.454545 1.350649 2.805195 2.805195 4.259741 4.155844 5.402597 4.675325 8.935065 4.155844 13.090909-1.662337l4.051948-5.61039c1.662338-0.727273 2.38961 0.623377 3.220779 1.558441a178.597403 178.597403 0 0 0 21.714286 22.129871 7.272727 7.272727 0 0 1 3.012987 4.363636 36.675325 36.675325 0 0 1-6.233767 15.064935 404.363636 404.363636 0 0 1-23.376623 37.090909 35.012987 35.012987 0 0 1-3.948052 5.090909 18.909091 18.909091 0 0 0-7.896104 16.623377c0 0.831169-0.623377 1.454545-1.454545 1.87013a55.272727 55.272727 0 0 0 0.935065 10.38961 9.142857 9.142857 0 0 1-1.038961 8.415585 393.662338 393.662338 0 0 1-45.818182-51.948052 454.961039 454.961039 0 0 1-34.181818-53.922078z" fill="#E94949" p-id="2858"></path><path d="M197.506494 831.792208c0.623377-2.805195-0.935065-5.818182 1.038961-8.415585a172.883117 172.883117 0 0 1 51.324675-3.220779 145.454545 145.454545 0 0 1 55.376623 16.103896c4.25974 2.285714 8.103896 5.090909 12.155844 7.688312s3.636364 4.467532 1.662338 8.207792a103.168831 103.168831 0 0 0-12.675325 51.948052 24.831169 24.831169 0 0 0 1.038961 7.376623 435.74026 435.74026 0 0 1-109.922077-79.688311z" fill="#FA6459" p-id="2859"></path><path d="M824.311688 831.480519a124.675325 124.675325 0 0 0-45.402597-17.974025 145.454545 145.454545 0 0 0-38.025974-3.012988 184.831169 184.831169 0 0 0-30.441559 3.948052 73.974026 73.974026 0 0 0-0.831168-11.740259 12.883117 12.883117 0 0 1 4.467532-13.714286 55.688312 55.688312 0 0 0 8.103896-9.766234 53.61039 53.61039 0 0 0 20.779221 3.844156 331.220779 331.220779 0 0 0 131.220779-11.532467h1.038961a204.25974 204.25974 0 0 1-20.779221 28.155844 283.74026 283.74026 0 0 1-30.12987 31.792207z" fill="#F14E4E" p-id="2860"></path><path d="M561.87013 81.974026c-1.454545 0-1.766234 1.87013-2.389611 3.116883-0.831169-1.246753-1.454545-3.220779-2.285714-3.324675s-2.077922 1.766234-2.805195 3.428571l-2.285714-3.74026v1.038961c0.623377 2.701299 2.077922 5.298701-3.324675 3.428572-1.350649 0-6.12987-2.701299-8.519481 0.935065-1.142857 1.662338-2.181818 0.519481-3.220779 0a29.922078 29.922078 0 0 1-4.25974-5.818182c-1.766234 3.324675-7.168831 1.974026-7.48052 7.272727-2.077922-3.012987-2.285714-5.818182-4.363636-6.857143-1.974026 1.558442 2.701299 4.051948-0.831169 4.779221-1.142857 0-3.324675 1.87013-3.324675 0.831169 0-3.636364-4.467532-0.727273-4.779221-3.428571-5.298701 1.87013-3.428571-1.87013-3.220779-4.571429-2.701299 1.558442-2.909091 4.571429-4.363637 6.545455s-2.701299 3.012987-3.740259 0.623376c-2.38961-5.714286-5.298701-1.142857-7.896104-0.623376 0 0-0.831169 0.935065-1.246753 1.454545-2.805195-3.948052-5.298701 0-7.896104 0s-2.285714-2.077922-3.324676-3.220779-1.662338-3.636364-4.051948-4.675325c0 1.974026 3.324675 3.844156 0 5.714286l-3.428571-4.25974c-1.246753 1.558442-2.493506 2.909091-3.532468 4.363636s-1.038961 1.350649-1.662337 0-1.87013-0.935065-3.428572 0-3.948052-0.623377-5.610389-2.493507 0-1.662338-0.623377-1.038961c-1.558442 4.363636-2.701299 0-3.532468 0a4.987013 4.987013 0 0 0-6.857142 3.22078l-2.909091-5.194806c-6.649351 5.818182-10.38961 6.753247-11.324676 2.701299-3.012987 4.25974-5.922078 2.493506-9.038961 0-1.558442-1.038961-4.571429-2.285714-5.298701-1.662337-3.116883 2.805195-3.844156 0.623377-4.675325-2.805195-0.935065 4.25974-4.25974 4.779221-6.12987 6.753246-0.935065-1.974026-5.090909 0-4.051948-4.25974a4.467532 4.467532 0 0 0-3.636363 2.597403 4.363636 4.363636 0 0 1-5.09091 1.766234c-2.285714-0.623377 0-2.805195 0-4.363637a339.012987 339.012987 0 0 1 49.87013-10.38961 430.961039 430.961039 0 0 1 73.35065-4.883117 469.194805 469.194805 0 0 1 91.324675 11.324675 26.493506 26.493506 0 0 1 2.805195 0.935065c1.766234 3.324675 1.766234 3.532468-1.766234 3.532468s-1.87013 2.909091-4.155844 3.116883 0-2.909091-1.246753-4.883117c-1.454545 1.974026-1.766234 4.051948-3.428572 5.090909-1.662338-0.727273-0.831169-2.597403-1.558441-3.948052 0 0-0.831169 0.727273-1.038961 1.142857-0.831169 2.285714-0.623377 6.233766-4.675325 2.493507-2.38961 5.922078-8 0-11.220779 3.116883 0 0-1.142857 0.623377-1.246754 0-3.532468-3.428571-7.688312-1.558442-11.636363-1.350649-2.181818 0-4.467532 0-2.701299-3.22078-2.181818 0-1.454545 1.662338-2.38961 2.181818-0.831169-1.454545-1.454545-3.428571-2.701299-4.363636s-1.246753 1.038961-1.142857 1.87013z" fill="#FC987A" p-id="2861"></path><path d="M943.064935 627.636364h-1.454545c-3.116883 0-6.857143-0.935065-9.246754 0s-0.623377 5.506494-1.142857 8.415584A16.415584 16.415584 0 0 1 914.285714 649.766234a16.207792 16.207792 0 0 1-15.896104-14.12987 17.974026 17.974026 0 0 1 0-4.467533c0-3.012987-0.623377-4.051948-3.844155-3.948052h-18.493507c-1.974026 0-3.116883 0-3.012987-2.701298s1.142857-1.766234 2.597403-1.766234h66.285714c0.935065 0 2.077922 0 2.38961 1.246753z" fill="#2C1919" p-id="2862"></path><path d="M521.974026 960h-33.766234v-0.831169h33.766234v0.623377z" fill="#F8D3C8" p-id="2863"></path><path d="M633.766234 82.493506a9.246753 9.246753 0 0 1 2.285714 1.766234c0.623377 0.935065 3.324675-1.142857 2.285714 1.87013s-2.493506 0-3.116883 0c-2.285714-0.623377-7.168831 0.831169-5.194805-4.675325 1.246753 0.415584 2.701299 0.103896 3.74026 1.038961z" fill="#FC987A" p-id="2864"></path><path d="M62.961039 501.090909a56.519481 56.519481 0 0 1 0 22.857143v-22.857143z" fill="#FACFC1" p-id="2865"></path><path d="M958.025974 502.961039a35.324675 35.324675 0 0 1 0-17.766234v17.766234z" fill="#F8C5BA" p-id="2866"></path><path d="M957.298701 540.883117a66.493506 66.493506 0 0 1 0.935065-17.87013 63.064935 63.064935 0 0 1-0.935065 17.87013z" fill="#F8C6BA" p-id="2867"></path><path d="M521.974026 960v-0.831169h11.844156v0.831169z" fill="#FAC5B7" p-id="2868"></path><path d="M63.792208 532.051948c2.181818 4.155844 0 8.623377 0.935065 12.883117-1.974026-4.155844-0.311688-8.623377-0.935065-12.883117z" fill="#F9C6BA" p-id="2869"></path><path d="M548.883117 958.857143h-8.831169 8.831169z" fill="#F9CDC0" p-id="2870"></path><path d="M473.038961 958.649351a19.948052 19.948052 0 0 1 8.935065 0 19.948052 19.948052 0 0 1-8.935065 0z" fill="#F9CFC2" p-id="2871"></path><path d="M957.298701 481.038961c-1.974026-3.116883 0-6.545455-0.935065-9.87013 1.662338 3.116883 0.311688 6.12987 0.935065 9.87013zM956.051948 553.87013c0-2.909091-1.038961-6.12987 0.935065-8.831169-0.311688 2.909091 1.038961 6.025974-0.935065 8.831169zM64.935065 548.987013c1.974026 2.38961 0 5.298701 0.935065 7.896104-2.077922-2.38961-0.519481-5.298701-0.935065-7.896104z" fill="#F9C7BB" p-id="2872"></path><path d="M558.753247 957.402597a8.935065 8.935065 0 0 1-6.025974 0c2.181818-1.038961 4.155844 0 6.025974 0z" fill="#F9D0C4" p-id="2873"></path><path d="M955.012987 563.844156c0-2.285714-0.935065-4.779221 0.935065-6.857143-0.207792 2.285714 1.350649 4.779221-0.935065 6.857143z" fill="#F9C8BC" p-id="2874"></path><path d="M453.090909 956.779221a6.649351 6.649351 0 0 1 5.818182 0z" fill="#F9C8B9" p-id="2875"></path><path d="M567.168831 955.220779l0.727273 1.142857c-1.350649 1.974026-3.220779 0.831169-5.506494 1.35065 1.662338-2.493506 3.948052-1.038961 4.779221-2.493507z" fill="#F9CEC1" p-id="2876"></path><path d="M955.948052 469.090909a5.922078 5.922078 0 0 1 0-6.753247v6.753247z" fill="#F8C6BA" p-id="2877"></path><path d="M955.012987 459.012987l-1.974026-2.493506c0.935065 0 0.935065-1.350649 1.142857-2.077923 1.350649 1.142857 0.727273 2.909091 0.831169 4.571429z" fill="#F9B8AB" p-id="2878"></path><path d="M65.974026 560.415584c1.87013 1.766234 0.623377 3.948052 0.935065 5.922078-1.766234-2.181818-0.727273-4.363636-0.935065-5.922078zM66.909091 568c1.766234 1.766234 0.623377 3.948052 0.935065 5.922078-1.766234-1.766234-0.623377-3.948052-0.935065-5.922078z" fill="#F9C6BA" p-id="2879"></path><path d="M954.077922 571.844156c0-1.974026-0.831169-4.155844 0.935065-5.922078-0.207792 1.974026 0.831169 4.25974-0.935065 5.922078z" fill="#F9C7BB" p-id="2880"></path><path d="M67.948052 575.896104c1.662338 1.350649 0.727273 3.324675 0.935065 4.883117-1.662338-1.246753-0.727273-3.220779-0.935065-4.883117zM953.038961 578.909091c0-1.662338-0.727273-3.532468 0.935065-4.883117-0.103896 1.558442 0.727273 3.428571-0.935065 4.883117z" fill="#F9C8BC" p-id="2881"></path><path d="M462.545455 957.61039a3.948052 3.948052 0 0 1 3.636363 0c-0.935065 1.038961-2.077922 0.415584-3.636363 0z" fill="#FAC3B5" p-id="2882"></path><path d="M754.38961 571.948052a202.285714 202.285714 0 0 1 6.129871 38.753247 147.116883 147.116883 0 0 1-33.974026 98.077922 237.61039 237.61039 0 0 1-115.428572 76.467532 321.246753 321.246753 0 0 1-81.974026 15.272728 360.311688 360.311688 0 0 1-72-3.324676c-3.844156-0.519481-4.675325-1.246753-2.077922-4.987013a231.272727 231.272727 0 0 0 32.207792-59.324675 51.220779 51.220779 0 0 0 2.493507-12.363636 13.922078 13.922078 0 0 0-7.272728-14.649351 16 16 0 0 0-17.870129 0 51.948052 51.948052 0 0 0-12.883117 15.064935c-4.571429 6.753247-8.519481 7.272727-14.441559 1.558441a91.844156 91.844156 0 0 0-18.493506-14.961038c-9.454545-5.298701-17.038961-4.467532-21.714286 2.38961a47.272727 47.272727 0 0 0-2.805195 5.818182c-2.597403 5.090909-4.571429 5.818182-9.662337 3.428571a11.116883 11.116883 0 0 0-10.909091 0 32.311688 32.311688 0 0 0-14.961039 35.636364c0 2.909091 1.142857 5.818182 1.662337 8.831169-1.974026 1.350649-3.428571 0-4.987013-0.935065a223.272727 223.272727 0 0 1-52.675324-39.792208 41.558442 41.558442 0 0 1-11.116883-14.441559 179.74026 179.74026 0 0 1-23.168832-40.51948 145.454545 145.454545 0 0 1 4.363637-117.090909 219.428571 219.428571 0 0 1 72.727273-86.753247 270.753247 270.753247 0 0 1 109.922077-47.480519 279.584416 279.584416 0 0 1 103.896104-0.727273 272.727273 272.727273 0 0 1 108.051948 43.844156 222.233766 222.233766 0 0 1 79.064935 91.116883c3.012987 6.857143 5.090909 14.025974 7.896104 21.090909z" fill="#F9E7DA" p-id="2883"></path><path d="M291.636364 708.571429a219.844156 219.844156 0 0 0 51.948052 46.233766 90.597403 90.597403 0 0 0 17.142857 9.766234 114.285714 114.285714 0 0 0 8.831169 22.545454c1.038961 1.974026 0 3.012987-1.142858 4.25974l-19.532467 18.389611c-4.155844 4.155844-10.38961 3.324675-14.961039 3.948052a489.142857 489.142857 0 0 1-60.779221 4.363636c-20.155844 0-40.103896-0.727273-60.155844-2.38961a33.038961 33.038961 0 0 1-15.480519-2.805195c-1.454545-9.766234 4.883117-15.792208 10.38961-22.12987a22.857143 22.857143 0 0 0 1.350649-1.766234 17.246753 17.246753 0 0 1 8.831169 0 328.623377 328.623377 0 0 0 60.467533 3.428571 353.246753 353.246753 0 0 0 40.207792-3.428571c-8.519481-3.844156-17.558442-8.207792-26.389611-13.194805a295.064935 295.064935 0 0 1-48.831168-33.454546 13.090909 13.090909 0 0 1-3.844156-4.467532c-2.181818-4.155844-6.545455-6.025974-9.558442-9.246753l-17.766234-19.116883-8.727272-11.948052c0-2.805195 2.285714-1.246753 3.428571-0.935065a238.233766 238.233766 0 0 0 31.168831 6.441558c10.38961 1.454545 20.25974 2.909091 30.441559 3.532468 7.896104 0.519481 15.480519 1.246753 22.961039 1.974026z" fill="#F55954" p-id="2884"></path><path d="M188.467532 672.623377a187.012987 187.012987 0 0 1-16.51948-37.922078c-1.558442 0-2.181818-1.350649-1.246753-2.909091a173.61039 173.61039 0 0 1-7.272728-67.324676 464.935065 464.935065 0 0 1 6.441559-47.896103 97.558442 97.558442 0 0 1 17.766234 28.155844 154.701299 154.701299 0 0 1 12.571428 46.857143c0 2.805195 0 5.61039 0.519481 8.415584a105.558442 105.558442 0 0 1 0 18.701299 159.792208 159.792208 0 0 1-12.259741 53.922078z" fill="#F4EEEC" p-id="2885"></path><path d="M200.727273 618.181818v-18.701299a44.155844 44.155844 0 0 1 0 18.701299z" fill="#F9E7DB" p-id="2886"></path><path d="M849.454545 517.090909a72.727273 72.727273 0 0 1 4.571429 23.064935 329.038961 329.038961 0 0 1 2.285714 38.025974 184.415584 184.415584 0 0 1-16.727272 72.727273c-3.324675 7.376623-6.857143 14.649351-10.389611 21.922078a97.766234 97.766234 0 0 1-8.51948-27.74026 156.779221 156.779221 0 0 1 14.857143-107.532467 97.246753 97.246753 0 0 1 13.922077-20.467533z" fill="#F5F5F5" p-id="2887"></path><path d="M800.311688 713.558442c1.038961 1.454545 2.285714 0.623377 3.532468 0a48.207792 48.207792 0 0 1 24.831169 2.493506c1.246753 0 2.805195 0.727273 2.285714 2.493507s-1.974026 0.831169-2.909091 0a41.558442 41.558442 0 0 0-33.558442 1.038961z" fill="#F4ADAB" p-id="2888"></path><path d="M782.337662 732.467532c0 2.701299-2.285714 4.25974-3.012987 6.545455s-0.727273 3.116883-2.38961 3.324675-1.246753-2.493506-2.701299-3.012987a41.558442 41.558442 0 0 1 8.103896-6.857143z" fill="#F5AFAB" p-id="2889"></path><path d="M622.337662 84.571429l-4.363636-3.324676c3.532468-1.454545 4.155844 0.831169 5.298701 2.077922zM451.636364 85.402597c-0.727273 0-1.142857-0.623377-0.935065-1.350649s0-1.350649 1.038961-1.246753 0.623377 0.727273 0.727272 1.142857-0.103896 1.246753-0.831168 1.454545zM562.493506 82.493506c0.831169 1.038961 1.974026 1.766234 0.935065 3.012988a1.246753 1.246753 0 0 1-1.142857 0c-1.662338-1.454545 0.207792-3.012987 0.207792-3.012988z" fill="#FC987A" p-id="2890"></path><path d="M170.701299 631.792208c0 1.246753 0.727273 1.974026 1.246753 2.909091s0 1.87013-1.662338 1.87013h-4.987013c-7.896104 0-7.896104 0-8.311688 7.792207a16.103896 16.103896 0 0 1-16.415584 14.753247 16.415584 16.415584 0 0 1-16.831169-15.584415c0-6.961039 0-6.961039-7.584416-6.961039H102.233766c-1.87013 0-3.636364 0-3.636363-2.701299s1.662338-2.38961 3.324675-2.389611z" fill="#2C1919" p-id="2891"></path><path d="M239.688312 737.87013c11.220779 8.519481 22.025974 17.558442 33.974026 25.142857a380.051948 380.051948 0 0 0 48.311688 25.974026 26.38961 26.38961 0 0 1-9.246753 2.077922 61.298701 61.298701 0 0 1-8.831169 1.142857 336.727273 336.727273 0 0 1-50.701299 1.766234 281.350649 281.350649 0 0 1-43.948052-4.987013 340.155844 340.155844 0 0 0 27.324676-45.090909c1.454545-1.766234 2.181818-3.844156 3.116883-6.025974z" fill="#F9E7DA" p-id="2892"></path><path d="M381.922078 638.649351h36.363636c1.766234 0 4.155844-0.831169 3.948052 2.597402s-2.181818 2.285714-3.844156 2.285715a97.142857 97.142857 0 0 1-11.740259 0c-4.987013-0.519481-6.753247 0.831169-6.545455 6.233766a16.467532 16.467532 0 1 1-32.935065-0.623377c0-4.571429-1.142857-6.025974-5.714286-5.714286s-10.38961 0-15.376623 0c-1.766234 0-4.25974 0.935065-4.363636-2.38961s2.38961-2.493506 4.155844-2.493506zM643.74026 638.649351h36.363636c1.662338 0 3.74026-0.727273 3.844156 2.38961s-1.766234 2.597403-3.636364 2.597403h-12.987013c-4.363636 0-5.922078 0.623377-5.610389 5.298701a15.168831 15.168831 0 0 1-7.376624 14.753247 16.311688 16.311688 0 0 1-25.558441-13.818182c0-5.506494-1.87013-6.649351-6.649351-6.233766a92.675325 92.675325 0 0 1-13.402597 0c-1.87013 0-5.090909 1.766234-5.298702-2.285715s3.116883-2.493506 4.987013-2.493506c11.74026-0.311688 23.480519-0.207792 35.324676-0.207792z" fill="#2C1919" p-id="2893"></path><path d="M321.350649 675.636364a17.142857 17.142857 0 0 1 13.818182 4.25974 7.376623 7.376623 0 0 1-1.246753 12.363636 25.142857 25.142857 0 0 1-25.87013-0.831169 7.792208 7.792208 0 0 1-1.142857-11.012987 16.831169 16.831169 0 0 1 14.441558-4.77922z" fill="#F090AF" p-id="2894"></path><path d="M697.558442 695.480519a21.61039 21.61039 0 0 1-13.194806-4.77922 7.376623 7.376623 0 0 1 0.935065-12.155844 26.285714 26.285714 0 0 1 25.558442 0 7.688312 7.688312 0 0 1-1.246753 13.922077 30.12987 30.12987 0 0 1-12.051948 3.012987z" fill="#F08FAF" p-id="2895"></path><path d="M561.558442 734.649351c0 2.077922-1.974026 1.350649-3.116884 0.935065a51.220779 51.220779 0 0 0-13.506493-3.012987 35.324675 35.324675 0 0 0-34.38961 22.233766c-0.727273 1.454545-0.727273 4.363636-3.22078 3.220779s0-3.012987 0-4.467532a40 40 0 0 1 27.22078-23.48052 42.805195 42.805195 0 0 1 25.350649 2.493507c1.350649 0.727273 1.766234 1.246753 1.662338 2.077922z" fill="#F4ADAA" p-id="2896"></path><path d="M531.324675 696.207792c1.038961 4.467532-0.831169 5.61039-5.194805 5.61039s-5.714286-1.038961-5.714286-5.506494 1.142857-5.714286 5.61039-5.610389 6.857143 0.935065 5.298701 5.506493z" fill="#301D1C" p-id="2897"></path><path d="M500.155844 696.415584c-1.454545 2.077922-1.87013 5.714286-5.714286 6.129871s-7.480519-4.363636-6.64935-6.129871 2.077922-6.233766 6.025974-6.337662a8.727273 8.727273 0 0 1 6.337662 6.337662z" fill="#2C1919" p-id="2898"></path><path d="M457.350649 570.805195c-0.727273 0-2.285714 0.727273-2.38961-1.038961s1.246753-1.454545 2.077922-1.558442a16.519481 16.519481 0 0 0 16.623377-15.272727c0-0.831169 0-1.766234 1.350649-1.558442s1.350649 1.454545 1.246753 2.389611a18.077922 18.077922 0 0 1-9.142857 14.545454 19.012987 19.012987 0 0 1-9.766234 2.493507z" fill="#311E1E" p-id="2899"></path><path d="M547.428571 552.623377c1.558442 0 1.350649 0.935065 1.662338 1.870129a20.779221 20.779221 0 0 0 13.402597 15.272728c1.142857 0 2.285714 1.142857 1.558442 2.493506s-1.662338 0.519481-2.701299 0a24.519481 24.519481 0 0 1-14.64935-17.558441c-0.623377-0.935065-0.519481-1.766234 0.727272-2.077922z" fill="#321F1E" p-id="2900"></path><path d="M536.935065 552.727273a11.532468 11.532468 0 0 0 1.558441 6.545454c0 0.935065 0.831169 1.974026 0 2.493507s-1.87013 0-2.285714-1.246753a12.25974 12.25974 0 0 1-1.766234-8c0-1.350649 0-4.051948 2.077923-3.532468s0.207792 2.38961 0.415584 3.74026z" fill="#332020" p-id="2901"></path><path d="M497.766234 686.025974a36.987013 36.987013 0 0 0-10.389611 0.727273 9.246753 9.246753 0 0 1 10.389611-0.727273z" fill="#5E4B48" p-id="2902"></path><path d="M483.844156 690.38961a3.636364 3.636364 0 0 1-1.246753 4.467533c-1.038961-1.87013-0.311688-3.116883 1.246753-4.467533z" fill="#8D7B74" p-id="2903"></path><path d="M505.766234 696.415584c-1.142857-1.350649-1.974026-2.38961-1.142857-3.012987s0.935065 0.519481 1.142857 1.038961a7.584416 7.584416 0 0 1 0 1.974026z" fill="#5E4B48" p-id="2904"></path></svg>