<?xml version="1.0" standalone="no"?><!DOCTYPE svg PUBLIC "-//W3C//DTD SVG 1.1//EN" "http://www.w3.org/Graphics/SVG/1.1/DTD/svg11.dtd"><svg t="1550212789428" class="icon" style="" viewBox="0 0 1025 1024" version="1.1" xmlns="http://www.w3.org/2000/svg" p-id="2460" xmlns:xlink="http://www.w3.org/1999/xlink" width="200.1953125" height="200"><defs><style type="text/css">@font-face { font-family: "Roboto Condensed"; src: url("chrome-extension://lienonopcegannlgdkgonpofbhgmclcc/RobotoCondensed-Regular.ttf"); }
</style></defs><path d="M512.411741 1023.794129H4.632087c-3.705669 0-4.632087-0.823482-4.632087-4.632086Q0.102935 511.897065 0.102935 4.529152C0.102935 0.823482 0.823482 0 4.632087 0h1015.662244c3.705669 0 4.632087 0.823482 4.632086 4.632087v1014.735826c0 3.705669-0.823482 4.632087-4.632086 4.632087z" fill="#FEFEFE" p-id="2461"></path><path d="M956.783273 477.928428a423.063932 423.063932 0 0 1 0 72.054684 448.180137 448.180137 0 0 1-257.338158 368.714114c-2.676317 1.235223-5.455569 2.264576-8.234821 3.396863-3.808605-2.058705-4.117411-6.279051-5.558505-9.572979a405.873743 405.873743 0 0 0-60.011258-95.215119c-1.029353-1.235223-2.470446-2.367511-2.161641-4.220346s3.602734-2.058705 5.66144-2.573381a370.566948 370.566948 0 0 0 125.992762-54.55569 253.220748 253.220748 0 0 0 78.745477-84.509851 198.459188 198.459188 0 0 0 26.557298-82.348211 223.987133 223.987133 0 0 0-1.235224-48.173703 25.836751 25.836751 0 0 1 0-6.484922 6.176116 6.176116 0 0 1 4.529152-5.249698 82.348211 82.348211 0 0 0 12.249296-7.82308 54.967431 54.967431 0 0 1 8.646562-4.323281 95.420989 95.420989 0 0 0 16.263772-10.293526c6.073181-3.91154 12.763973-6.381986 18.631283-10.293527s13.48452-7.205468 19.5577-11.631685a117.14033 117.14033 0 0 1 13.381584-7.102533c1.235223-0.720547 3.088058-2.161641 4.323281 0.205871zM224.604745 169.637314a415.034982 415.034982 0 0 1 66.084439-45.909127 439.945316 439.945316 0 0 1 148.535585-52.188179 452.915159 452.915159 0 0 1 98.303176-4.837957 444.989144 444.989144 0 0 1 250.853237 95.523924c2.676317 2.161641 4.426216 5.455569 7.82308 6.690792 0 2.367511-2.058705 2.779252-3.91154 3.088058a39.1154 39.1154 0 0 1-6.484921 0H675.049457a19.454765 19.454765 0 0 1-8.749497-0.926417c-2.470446-2.573382-0.514676-4.735022 1.029352-6.484922a38.703659 38.703659 0 0 1 18.837154-12.352231 20.587053 20.587053 0 0 1-5.86731 0.514676 55.687977 55.687977 0 0 0-37.468436 14.925613 12.146361 12.146361 0 0 1-6.690792 4.014475 50.026538 50.026538 0 0 1-7.514275 0H234.280659a38.394853 38.394853 0 0 1-5.970245 0c-1.749899-0.308806-3.396864 0.308806-3.705669-2.058705zM891.934057 279.46924a280.601528 280.601528 0 0 1 22.439888 40.247688 438.813028 438.813028 0 0 1 32.012866 90.994773 192.591878 192.591878 0 0 1 5.558505 30.160032c-0.926417 3.499799-3.088058 1.235223-4.426217 0.720547l-19.043023-8.337756c-10.293526-4.117411-20.587053-9.367109-31.909932-12.866908-7.308404-2.882187-14.719743-5.764375-22.131082-8.234821l-3.396863-1.235224a26.454363 26.454363 0 0 0-3.499799-1.029352c-12.146361-4.529152-24.292722-9.058303-36.850825-12.455167-14.513872-4.735022-29.13068-9.161238-43.850422-13.175714a16.984318 16.984318 0 0 1-6.587857-5.146763 411.741053 411.741053 0 0 0-39.012464-35.821472 412.4616 412.4616 0 0 0-56.30559-36.644953c-1.749899-0.926417-4.323281-1.338158-4.014475-4.323281a29.748291 29.748291 0 0 1 12.455167-4.735023 566.143949 566.143949 0 0 1 96.965018-21.616405 15.64616 15.64616 0 0 0 5.558504-0.514676 23.572175 23.572175 0 0 1 4.735022 0 14.822678 14.822678 0 0 0 5.455569-0.617612 27.895456 27.895456 0 0 1 5.86731 0 32.321673 32.321673 0 0 0 10.293527-0.720547 269.999196 269.999196 0 0 1 67.010856 4.632087 8.028951 8.028951 0 0 1 2.676317 0.720547z" fill="#3E72A7" p-id="2462"></path><path d="M800.321673 276.381182h-4.940893c-1.544029 1.132288-3.499799 0-4.940893 1.029353a483.795738 483.795738 0 0 0-49.614797 8.852432c-19.5577 4.426216-38.703659 10.293526-57.849618 15.852031a18.528347 18.528347 0 0 0-2.264575 1.029353c-2.367511 1.029353-4.220346 0-6.073181-1.338159A367.170084 367.170084 0 0 0 557.497386 267.631685a322.187374 322.187374 0 0 0-45.18858-2.676317 359.141134 359.141134 0 0 0-102.935264 16.675513 27.792521 27.792521 0 0 1-9.161238 2.16164H229.442702a47.967833 47.967833 0 0 1-8.955368 0c-2.161641 0-3.602734-2.161641-2.676317-3.91154 1.852835-3.499799 0-4.837957-2.573381-6.176116-0.720547 0-1.029353-1.338158-1.646965-1.95577s-1.132288 1.544029-1.95577 1.95577c-2.676317 1.338158-4.529152 2.779252-2.470446 6.176116 0.720547 1.132288 0 2.470446-1.646964 3.293929a12.661037 12.661037 0 0 1-5.86731 1.029352h-66.599115c-2.367511 0-5.455569 0.823482-6.381987-2.779252a279.983916 279.983916 0 0 1 24.086852-35.718536c9.572979 0.617612 19.248894 0 28.924809 0h447.45959c3.088058 0 4.220346 2.058705 5.764374 3.91154a58.878971 58.878971 0 0 0 36.027343 22.234017 60.320064 60.320064 0 0 0 47.350221-10.293527c1.749899-1.235223 3.190993-2.985123 5.558504-3.088058h126.095698a73.907519 73.907519 0 0 1 10.911138-0.514676c4.735022 0.720547 4.837957-3.91154 7.102533-6.073181s1.029353-3.293928 3.396863-2.882187l8.852433 12.043426a27.998392 27.998392 0 0 0 8.749497 13.278649v0.926417c0 1.338158 0.720547 2.779252 0 4.117411a269.896261 269.896261 0 0 0-30.880579-4.014475c-12.352232-1.029353-24.189787-1.029353-36.850824-1.029353-3.190993 1.338158-6.793727 0-10.293526 1.029353h-5.970245c-1.132288 1.235223-3.190993-0.102935-4.632087 1.029352z" fill="#497CAE" p-id="2463"></path><path d="M597.127463 951.739445c-6.793727 2.264576-13.999196 2.367511-20.587053 4.014475-1.029353 0-1.749899 0-2.264576-1.338158a110.758343 110.758343 0 0 0-28.616003-32.115802c-8.543627-8.337756-17.39606-16.366707-25.939686-24.704463-2.058705-1.95577-3.190993-2.470446-5.558504 0-14.205066 13.175714-28.718938 26.145557-42.924005 39.32127a59.908323 59.908323 0 0 0-13.278649 18.528348c0 0.926417-0.926417 1.749899-2.161641 1.749899s-4.014475 0-5.86731-0.926417a221.928428 221.928428 0 0 1-30.880579-5.043828 264.955368 264.955368 0 0 1-41.174105-10.808203 247.765179 247.765179 0 0 1 7.205468-27.895456 350.494572 350.494572 0 0 1 23.26337-61.761158 76.06916 76.06916 0 0 1 6.07318-10.293527 61.761158 61.761158 0 0 1 25.322075-10.293526 168.505026 168.505026 0 0 1 52.59992-5.558504 57.232006 57.232006 0 0 0 7.720144 0 162.843587 162.843587 0 0 1 50.64415 13.999196 61.761158 61.761158 0 0 1 33.145155 35.306795 188.680338 188.680338 0 0 1 13.278649 60.731805c0 3.190993 0.514676 6.279051 0.823482 9.470045a9.675915 9.675915 0 0 1-0.823482 7.617209z" fill="#FA665A" p-id="2464"></path><path d="M630.684359 246.735826c-1.646964 1.235223-3.499799 0.720547-5.352634 0.720547h-462.179333c-3.499799 0-7.617209 1.646964-10.293526-2.058705a360.273422 360.273422 0 0 1 26.145557-32.012867c1.544029-1.749899 3.190993-3.293928 4.837957-4.837957 27.483715-5.249698 55.276236-1.338158 82.862887-2.470447a18.425412 18.425412 0 0 1 10.293527 2.367511 12.763973 12.763973 0 0 0 12.866908 0 19.454765 19.454765 0 0 1 9.572979-2.16164h307.467632c5.455569 0 8.646562 3.396864 12.969843 5.146763 2.470446 1.338158 2.470446 3.91154 2.676317 6.07318a96.553277 96.553277 0 0 0 4.11741 19.248895 10.293526 10.293526 0 0 0 2.470447 6.587857 5.455569 5.455569 0 0 1 1.544029 3.396863z" fill="#4679AC" p-id="2465"></path><path d="M620.699638 211.531966c-2.676317 1.235223-5.249698 1.95577-5.970245-2.058705 0-1.749899-1.544029-1.852835-2.985123-1.852835H299.232811a11.014073 11.014073 0 0 0-8.646563 2.367511 14.719743 14.719743 0 0 1-15.749095-1.029352 5.86731 5.86731 0 0 0-4.529151-1.338159h-74.628066a10.293526 10.293526 0 0 0-5.558505 1.7499c-2.161641 1.338158-4.632087 2.367511-6.381986-0.823482a351.318054 351.318054 0 0 1 41.174105-38.806595c1.132288 1.338158 2.779252 0.926417 4.220346 0.926418h408.652996c1.029353 1.95577-0.617612 3.088058-1.544029 4.220345a58.6731 58.6731 0 0 0-12.969843 32.012867 5.352634 5.352634 0 0 1-2.573382 4.632087z" fill="#4376AA" p-id="2466"></path><path d="M63.922799 501.912344a206.488138 206.488138 0 0 1 2.16164-36.850824c27.071974-14.822678 53.526337-30.880579 80.289506-46.114998 45.806192-26.248492 91.406514-52.80579 137.10977-79.157218 6.279051-3.602734 12.763973-7.205468 18.940089-11.014073 2.470446-1.544029 4.940893-2.161641 4.323281 2.367511-5.043828 4.323281-10.293526 8.131886-15.64616 12.249297a360.273422 360.273422 0 0 0-55.996783 55.790912 352.965018 352.965018 0 0 0-32.321673 50.129474c-0.720547 1.338158-1.338158 2.676317-2.882188 3.293928a3.088058 3.088058 0 0 1-2.367511 0c-1.441094 4.632087-3.602734 3.293928-5.86731 0.720547s-1.852835 0-2.985122 0a121.25774 121.25774 0 0 0-15.954966 9.058303 19.35183 19.35183 0 0 0-8.028951 6.690792c-1.749899 2.985123-5.146763 0-7.926015 1.852835a3.293928 3.293928 0 0 1-0.926417 3.91154c-1.852835 1.441094-2.985123 0.617612-3.808605-1.338159-1.646964 0.926417-3.396864 1.749899-3.602734 3.911541a7.617209 7.617209 0 0 1-1.338159 4.220345c-1.646964 2.058705-3.396864 4.632087-6.279051 1.338159-1.441094-1.646964-2.573382-1.132288-3.293928 0.823482a10.293526 10.293526 0 0 1-4.220346 5.352634c-1.544029 1.132288-2.573382 1.95577-4.014475 0a1.852835 1.852835 0 0 0-3.293929 0c-1.235223 2.264576-3.088058-1.235223-4.11741 0.720546s-2.264576 3.602734-3.396864 5.558505a4.117411 4.117411 0 0 1-4.529151 2.367511 8.543627 8.543627 0 0 0-7.720145 2.367511 7.308404 7.308404 0 0 1-8.131886 2.367511 2.676317 2.676317 0 0 0-3.088058 1.029352c-3.190993 3.602734-7.514274 6.279051-8.440692 11.837556a6.279051 6.279051 0 0 1-7.411338 5.043828c-3.808605 0-6.999598 0-9.058304 3.91154-1.235223 2.676317-4.735022 1.338158-6.896662-2.470447a154.402895 154.402895 0 0 1 0.720547-19.969441z" fill="#608ABA" p-id="2467"></path><path d="M340.406916 926.520306a420.07881 420.07881 0 0 1-83.789304-45.703257c0.823482-4.837957 5.558504-5.249698 8.646562-7.308404 7.720145-5.146763 16.160836-9.264174 23.67511-14.822678a9.264174 9.264174 0 0 1 2.161641-1.235223 126.91918 126.91918 0 0 0 11.631685-5.970245c7.926015-4.117411 14.925613-10.293526 23.160434-13.381585a212.149578 212.149578 0 0 0 22.336952-12.763972 285.954162 285.954162 0 0 1 28.821874-15.131484c1.029353 0 2.367511-1.132288 0-2.573382s0-2.058705 1.132288-2.470446c9.470044 1.338158 18.528347 4.632087 27.792521 6.587857a3.088058 3.088058 0 0 1 2.779252 2.470446 8.955368 8.955368 0 0 1-2.779252 5.146763 396.60957 396.60957 0 0 0-62.481705 102.935264c-0.720547 1.646964-0.926417 3.705669-3.088058 4.220346z" fill="#3F73A8" p-id="2468"></path><path d="M64.025734 522.911138c1.029353 0 2.161641-1.132288 3.088058 0s2.367511 1.029353 2.676317-0.617612c0.823482-5.352634 4.735022-4.529152 8.234821-4.220345 5.970245 0 7.308404-0.617612 7.514274-6.587857 0-1.029353 0.720547-1.338158 1.235223-1.95577l8.234821-8.646562c1.338158-1.544029 2.264576-1.95577 4.426216-0.617612s5.352634-0.720547 6.587857-2.470446a6.279051 6.279051 0 0 1 7.308404-2.470447c3.293928 1.029353 4.426216 0 4.940893-2.676317s3.499799-3.190993 3.602734-5.764374c2.470446 3.91154 6.793727-6.176116 8.955368 1.132288 0 1.338158 0.617612 0 1.029352 0a8.234821 8.234821 0 0 0 4.940893-6.073181 2.573382 2.573382 0 0 1 4.529152-1.646964c2.676317 2.367511 5.558504 2.161641 5.455569-1.235223s3.499799-5.764375 5.455569-8.440692c1.235223 0.823482 0 3.91154 2.470446 3.396864s1.338158-2.161641 1.132288-3.70567 0.926417-3.190993 4.837957-1.646964 4.117411-0.617612 4.220346-1.749899c0.617612-6.073181 6.999598-4.014475 9.470044-7.411339 0.823482 0.823482 1.338158 0 1.7499 0a10.293526 10.293526 0 0 1 8.337756-5.352634c3.088058-0.514676 4.323281-3.293928 6.587857-4.426216 1.852835 0 0.617612 2.161641 1.646964 2.882187s2.676317 4.014475 4.117411 0c0.617612-1.852835 2.058705 0 2.985122 0 1.441094 2.985123-0.720547 5.043828-1.852835 7.308404a243.441898 243.441898 0 0 0-20.587052 56.099718 21.410535 21.410535 0 0 1-2.264576 5.352634c-2.470446 2.779252-4.014475 0-6.587857-1.441094a21.204664 21.204664 0 0 1-1.132288 8.852433c0 1.029353 0 2.573382-1.749899 2.470446s-1.852835-1.338158-1.95577-2.470446a10.293526 10.293526 0 0 0-3.190993-5.558504c-1.544029 4.940893-5.249698 9.367109-4.632087 15.028548a1.749899 1.749899 0 0 1-1.235223 0c-2.367511-2.367511-2.367511-2.367511-2.882188-7.82308a19.35183 19.35183 0 0 0-5.352633 11.52875c0 1.235223-0.514676 2.367511-1.7499 2.779252s-1.95577-0.926417-2.573382-1.852835-1.544029-2.161641-2.367511-3.190993a10.293526 10.293526 0 0 1-1.235223-3.190993c-1.132288 2.161641 0 3.293928 0.617612 4.735022s0 2.367511-1.441094 2.676317c-4.014475 1.029353-4.014475 0.926417-4.11741 5.146763 0 1.749899 0 3.91154-2.058706 5.043828-2.882187-1.544029-1.235223-4.940893-3.088058-7.102533-1.441094 2.058705 0 3.705669 0 5.455569s0.514676 3.396864-1.132287 4.632086a28.513068 28.513068 0 0 0-7.720145-5.86731c-0.926417 1.338158 2.573382 6.690792-3.293929 4.014476-0.514676 0-0.823482 1.338158-0.823482 2.058705a5.86731 5.86731 0 0 1-2.058705 5.249698c-1.441094 0.926417-1.441094 3.499799-3.808605 3.396864a12.352232 12.352232 0 0 0-5.043828-8.646562c-5.86731 2.676317-1.338158 6.279051 0 9.572979-3.088058 3.293928-4.735022 8.028951-10.293526 8.131886a13.072778 13.072778 0 0 0-6.484922 4.323281c-2.470446 2.882187-6.381986 2.882187-8.955368 5.66144a8.852433 8.852433 0 0 1-8.234821 2.058705 127.742662 127.742662 0 0 1-3.705669-23.675111 254.970647 254.970647 0 0 1-2.161641-39.424205v-0.720547z" fill="#5E87B8" p-id="2469"></path><path d="M70.098914 437.063128a317.555287 317.555287 0 0 1 8.646562-40.453558 424.402091 424.402091 0 0 1 16.160837-48.68838 10.293526 10.293526 0 0 1 1.029352-1.646964 10.293526 10.293526 0 0 1 5.86731-2.470446q57.952553-10.293526 116.728589-16.057901c9.264174-0.926417 18.322477-1.95577 28.616003-2.676317a28.924809 28.924809 0 0 1 9.367109 0c2.882187 1.132288 1.338158 2.264576 0 3.499799a41.894652 41.894652 0 0 1-8.543627 5.043828c-10.293526 5.661439-20.587053 11.425814-30.057096 17.293124s-22.645758 12.455167-33.556896 19.454765c-5.249698 3.396864-11.117008 5.86731-16.263772 9.572979-8.440692 6.073181-18.013671 10.293526-26.866104 15.543225s-17.807801 10.293526-26.660233 14.925613q-16.366707 9.161238-32.115802 18.322477c-4.117411 2.985123-8.440692 5.352634-12.352232 8.337756z" fill="#688FBD" p-id="2470"></path><path d="M597.127463 951.739445a223.781263 223.781263 0 0 0-13.69039-75.554483 65.055086 65.055086 0 0 0-39.630077-39.1154 167.578609 167.578609 0 0 0-43.541616-10.911138c1.132288-3.293928 3.91154-2.367511 6.176116-2.470447 10.293526 0 19.866506 0 29.851226-0.823482a555.232811 555.232811 0 0 0 55.996783-5.249698 22.439887 22.439887 0 0 1 6.381987 0c2.882187 0.617612 4.323281 2.985123 5.86731 5.043828a233.868918 233.868918 0 0 1 29.233615 56.305589 457.856051 457.856051 0 0 1 16.160836 52.80579c0.514676 2.161641 1.544029 4.529152 0 6.690792a274.837153 274.837153 0 0 1-52.80579 13.278649z" fill="#F14E4E" p-id="2471"></path><path d="M227.589867 859.200643a441.695215 441.695215 0 0 1-40.659429-37.468436 30.880579 30.880579 0 0 1-2.16164-2.676316c0-5.352634 5.661439-5.043828 8.543627-7.102534a54.452754 54.452754 0 0 1 13.484519-7.411339c4.837957-1.544029 7.720145-6.793727 13.48452-6.279051 1.544029-5.146763 8.337756-4.529152 10.293526-9.264173a3.088058 3.088058 0 0 1 2.264576-1.852835 61.761158 61.761158 0 0 0 18.322477-9.058303 42.924005 42.924005 0 0 1 5.86731-2.573382c1.029353 0 0.823482 1.132288 0.926417 1.852835v-2.676317c0-0.823482 0.720547-1.338158 1.338158-1.338158 7.102533 0 11.219944-5.764375 16.469643-9.470045a4.529152 4.529152 0 0 1 5.86731 0 6.793727 6.793727 0 0 0 4.529151 1.95577 66.084439 66.084439 0 0 1 15.337354 8.131886 347.097708 347.097708 0 0 0 38.703659 18.116607c1.95577 0.823482 4.220346 1.235223 5.249699 3.499799-1.029353 3.293928-3.808605 2.264576-5.764375 1.852834a10.293526 10.293526 0 0 0-8.646562 2.367511 273.190189 273.190189 0 0 1-24.601528 15.028549c-13.278649 8.131886-27.277845 15.028548-40.556494 23.263369-11.631685 7.205468-23.778046 13.793325-35.615601 20.587053a5.558504 5.558504 0 0 1-2.676317 0.514676z" fill="#4577AB" p-id="2472"></path><path d="M70.098914 437.063128c3.088058-6.176116 10.293526-7.617209 15.028549-10.293526 8.131886-4.940893 16.984318-9.161238 24.704463-14.410937a154.402895 154.402895 0 0 0 15.64616-9.367109 103.552875 103.552875 0 0 1 15.131484-7.926015c5.352634-3.088058 11.322879-5.352634 16.057901-8.646562 6.793727-4.837957 13.999196-8.852433 20.587053-13.175714 11.322879-7.102533 23.160434-13.175714 34.792119-19.763571l33.24809-19.145959c4.014475-2.367511 7.926015-4.940893 11.94049-7.411339a4.323281 4.323281 0 0 1 4.529152-2.367511c16.469642 0 32.939284-1.95577 49.408926-2.058705a13.48452 13.48452 0 0 1 4.837958 0.514676c0.926417 0 1.852835 1.235223 0.823482 2.161641-3.088058 2.985123-5.86731 6.484922-10.293527 6.484922 0-2.161641 0-3.088058-2.779252-1.646965q-37.262565 21.822276-74.628066 43.438682l-67.113791 38.600723-88.524327 51.467632c-2.161641 1.235223-4.220346 3.499799-7.205468 2.367511a199.591476 199.591476 0 0 1 3.808604-28.821874z" fill="#648CBB" p-id="2473"></path><path d="M317.452352 323.422598c-18.940088 0-37.674306 2.161641-56.614395 1.95577a12.043426 12.043426 0 0 0-3.293928 0.926417c-15.852031 0-31.498191 2.367511-47.247286 3.705669-12.969843 1.132288-25.836751 2.779252-38.806594 4.323281-16.469642 2.058705-32.939284 4.735022-49.305991 7.308404-8.749497 1.338158-17.498995 3.088058-26.248493 4.632087a299.232811 299.232811 0 0 1 19.557701-41.997587 11.73462 11.73462 0 0 1 7.205468-1.544029h219.663852a21.822276 21.822276 0 0 1 4.940893 0c1.95577 0.617612 2.985123 1.544029 1.029352 3.293928a20.587053 20.587053 0 0 1-4.11741 2.779252c-7.308404 3.808605-14.308002 8.131886-21.3076 12.558102a6.279051 6.279051 0 0 1-5.455569 2.058706z" fill="#4E7EB1" p-id="2474"></path><path d="M349.568154 304.482509H115.493366a160.681946 160.681946 0 0 1 13.175713-23.160434c1.338158 1.852835 3.293928 1.235223 5.043828 1.235223h69.481303a8.131886 8.131886 0 0 0 5.249698-1.029353 74.833936 74.833936 0 0 0 10.293527 1.029353h182.813027c0 2.573382-2.367511 2.573382-3.91154 3.088058a393.830318 393.830318 0 0 0-42.203458 17.910736c-2.058705 0.617612-3.705669 1.646964-5.86731 0.926417z" fill="#4B7EB0" p-id="2475"></path><path d="M830.275834 200.414958a228.104544 228.104544 0 0 1 21.925211 24.086851c0 2.779252-2.779252 2.367511-4.632086 2.573382s-6.587857 0-10.293527 0h-83.686369a49.511862 49.511862 0 0 1-7.926015 0c-1.235223 1.235223-1.646964-2.985123-3.088058 0s-4.426216 7.720145-9.57298 8.028951a15.543225 15.543225 0 0 0-14.205066-4.323282h-49.511862a6.999598 6.999598 0 0 1-4.632086-3.396863 51.467632 51.467632 0 0 1-10.293527-28.924809 7.720145 7.720145 0 0 1 0.823482-4.837958c0.720547-1.132288 1.544029-1.029353 2.264576 0 0.617612 4.837957 3.808605 5.661439 8.131886 5.66144h133.815842a138.550864 138.550864 0 0 1 30.880579 1.132288z" fill="#4577AB" p-id="2476"></path><path d="M830.275834 200.414958c0 1.338158-0.720547 2.470446-2.264575 1.544029a18.425412 18.425412 0 0 0-10.293527-1.338159H664.858866c-8.131886 0-8.131886 0-8.337756-8.131885a3.808605 3.808605 0 0 1-0.926418-3.70567 44.673904 44.673904 0 0 1 6.793728-17.396059c0.720547-1.132288 1.544029-2.161641 3.190993-1.852835s3.396864 1.029353 5.146763 1.029352h119.610776c2.058705 0 4.426216 0.720547 5.86731-1.646964a314.981906 314.981906 0 0 1 34.071572 31.498191z" fill="#4175A9" p-id="2477"></path><path d="M227.589867 859.200643c6.690792-5.146763 14.410937-8.646562 21.410535-13.072778s15.543225-8.440692 22.851629-13.48452 12.866908-6.793727 19.043023-10.293526a382.610374 382.610374 0 0 0 42.203458-25.733816 6.381986 6.381986 0 0 1 6.176116 0 6.279051 6.279051 0 0 0 6.176116 0c1.338158-1.235223 2.779252 0 4.11741 0l24.704464 8.337757c1.338158 0 3.088058 0.514676 3.088058 2.573381s3.088058 1.029353 3.499798 2.779252c-8.028951 4.632087-16.160836 8.955368-24.292722 13.072779s-15.954966 11.322879-24.910333 14.925613a76.480901 76.480901 0 0 0-16.675513 9.058303c-4.426216 3.190993-10.293526 3.499799-13.587455 8.646562a1.338158 1.338158 0 0 1-0.720547 0.617612 55.482107 55.482107 0 0 0-20.587052 10.293526 209.164455 209.164455 0 0 0-23.880981 15.131484 295.012465 295.012465 0 0 1-28.616004-22.851629z" fill="#4174A9" p-id="2478"></path><path d="M928.990752 432.122236l20.587053 9.264173c1.029353 0 1.852835 0.720547 2.470446 0a152.138319 152.138319 0 0 1 3.808605 26.660234 35.512666 35.512666 0 0 1 0.926417 10.293526c-1.852835-1.132288-3.705669 0-4.940893 0.926417-13.999196 8.028951-27.689586 16.778448-41.997587 24.189787a53.629272 53.629272 0 0 0-6.690792 4.220346c-2.882187 2.161641-7.205468 2.058705-9.367109 5.043828s-7.926015 4.837957-11.837555 6.896662a80.289505 80.289505 0 0 0-13.896261 8.646563c-2.470446 2.058705-6.896663 0.926417-7.82308 5.043828-2.367511-0.514676-2.058705-2.676317-2.470446-4.323282a114.464013 114.464013 0 0 0-2.676317-12.352231 174.166466 174.166466 0 0 1-4.735022-20.587053c1.132288-3.088058 4.220346-3.705669 6.690792-4.735022 13.587455-5.661439 25.322075-14.513872 38.086047-21.410535 4.940893-2.676317 9.675915-5.764375 14.822678-8.02895 2.985123-1.338158 4.220346-3.088058 2.161641-6.176116a19.248894 19.248894 0 0 1-1.852835-7.720145 4.940893 4.940893 0 0 1 2.676317-5.455569c5.352634-3.499799 10.602332-7.308404 16.057901-10.396461z" fill="#4174AA" p-id="2479"></path><path d="M743.604343 225.531162h102.935263c1.852835 0 4.014475 0.720547 5.661439-1.029353a151.932449 151.932449 0 0 1 19.145959 24.910334c-0.926417 0-1.646964 0.823482-1.646964 2.161641s0.617612 3.808605-2.367511 3.602734c0 0-1.441094 1.132288-1.338158 1.235223 2.882187 5.86731-2.573382 2.985123-3.808605 3.190993a65.981504 65.981504 0 0 1-11.73462 0.720547H728.266988c-1.646964 0-3.293928 0-4.837957-0.720547 0-2.058705 1.646964-3.088058 2.882187-4.426216a71.231202 71.231202 0 0 0 14.925614-26.763169 6.176116 6.176116 0 0 1 2.367511-2.882187z" fill="#477AAD" p-id="2480"></path><path d="M285.542421 766.04423l-0.720547 0.617612c-7.82308-6.587857-11.73462 1.646964-16.778448 4.735022-1.749899 1.029353-3.293928 2.779252-5.455569 2.573381-4.220346 0-4.529152 1.95577-4.014475 6.587857-1.852835-6.279051-4.529152-1.749899-6.484922-2.367511 0 2.779252-2.367511 0.926417-2.985123 1.95577a20.587053 20.587053 0 0 1-12.969843 7.102533c-5.043828 1.646964-6.690792 7.82308-12.455167 7.514274-1.852835 0 0.617612 2.470446-1.544029 2.882188s-2.882187 2.676317-4.11741 2.470446c-3.91154 0-4.940893 1.338158-5.764375 4.632087 0 1.544029 0-2.882187-2.573382-0.926417s-6.073181 5.455569-10.293526 4.837957c-1.338158 5.043828-8.337756 2.882187-10.293526 7.720145-2.264576-0.720547-3.293928 0.617612-4.220346 2.367511a270.102131 270.102131 0 0 1-27.071974-31.601126c0-3.088058 2.367511-3.808605 4.220346-4.837957l60.217129-34.483314a99.950141 99.950141 0 0 0 16.366706-10.293526 9.470044 9.470044 0 0 1 7.102534-1.646964 48.070768 48.070768 0 0 1 10.293526 7.308404 314.776035 314.776035 0 0 0 25.836751 18.528347c1.235223 0.926417 3.602734 1.646964 3.70567 4.323281z" fill="#497AAD" p-id="2481"></path><path d="M649.727382 938.049055a205.870527 205.870527 0 0 0-7.617209-30.160032 329.392843 329.392843 0 0 0-24.292722-61.761158 178.283876 178.283876 0 0 0-17.910736-27.895456 2.882187 2.882187 0 0 1 2.058705-1.95577 158.314435 158.314435 0 0 1 19.866506-3.91154 2.470446 2.470446 0 0 1 2.161641 0.926417 406.59429 406.59429 0 0 1 56.820265 85.84801c3.705669 7.617209 6.999598 15.337354 10.293526 22.954563a292.542018 292.542018 0 0 1-41.379976 15.954966z" fill="#E94949" p-id="2482"></path><path d="M93.87696 674.534781a275.145959 275.145959 0 0 1-15.749095-48.89425 3.602734 3.602734 0 0 1 4.323281-2.264576c1.029353 2.161641 0 4.220346 0 6.279051s0 3.088058 1.95577 3.70567 2.779252-0.514676 3.602734-1.852835 1.441094-2.985123 3.602734-2.882188 0-1.235223 0.514677-1.749899-0.617612-4.735022 1.852834-5.043828 1.749899 2.882187 2.985123 5.146763a42.203458 42.203458 0 0 1 1.235223-9.675915c0-1.235223 0.617612-2.882187 2.470447-2.470446s1.544029 1.95577 1.544029 3.293929-1.029353 2.779252-1.029353 4.323281 0.926417 0.617612 0 0a4.014475 4.014475 0 0 0 2.16164-5.455569c0-1.235223 0.617612-2.573382 1.95577-3.190994s2.058705 0 2.985123 1.235224c4.117411 3.705669 4.940893 3.396864 7.61721-1.646965a8.337756 8.337756 0 0 1 6.279051-3.190993c1.235223 0 1.852835 0 1.749899-1.338158s0.720547-2.573382 0.926417-3.808605 0-3.705669 1.95577-4.220346a4.323281 4.323281 0 0 1 5.043828 2.264576 6.690792 6.690792 0 0 0 0.617612-6.484922 2.161641 2.161641 0 0 1 1.441094-3.190993c1.646964 0 1.852835 1.029353 2.264575 2.058706a7.82308 7.82308 0 0 1 0 7.82308 7.617209 7.617209 0 0 1 4.837958-2.470447c3.602734 0 5.043828-2.573382 5.146763-6.07318s5.455569-6.073181 8.749497-4.735022a5.661439 5.661439 0 0 0 5.66144-2.058706c1.441094-4.220346 3.190993-3.499799 5.86731-1.338158h1.95577c0.720547 0 0.617612 2.882187 0.823482 4.426216a10.293526 10.293526 0 0 0 1.338158 5.043828c1.852835 10.293526 3.602734 19.866506 5.66144 29.645356 0 3.705669-3.190993 5.352634-5.970245 6.793727-9.572979 4.837957-18.219542 11.322879-27.895457 15.852031a96.759148 96.759148 0 0 0-14.925613 8.234821 90.583032 90.583032 0 0 1-20.587053 11.219944 21.3076 21.3076 0 0 0-6.896662 4.529151 7.82308 7.82308 0 0 1-6.073181 2.161641z" fill="#5682B4" p-id="2483"></path><path d="M340.406916 926.520306a399.080016 399.080016 0 0 1 66.907921-110.758344l0.823482-0.617611c0.720547-0.926417 1.441094-2.058705 2.779252-1.852835a41.174105 41.174105 0 0 1 19.454765 4.837957c0.617612 1.646964 0 2.882187-1.338158 4.014476-4.940893 6.073181-8.749497 12.969843-13.69039 18.940088a361.40571 361.40571 0 0 0-34.792119 93.979895 8.234821 8.234821 0 0 1-2.161641 4.837958 305.717732 305.717732 0 0 1-37.983112-13.381584z" fill="#E94949" p-id="2484"></path><path d="M82.451146 623.684761l-4.837957 1.95577a222.443104 222.443104 0 0 1-8.234821-38.703659c1.029353-3.088058 6.381986 0 6.484921-4.220346 0.823482 1.441094 1.441094 2.470446 2.161641 0 0-0.720547 1.95577-3.705669 3.808604-0.720547 1.132288-1.235223 2.161641-3.190993 3.499799-3.499799 3.499799-0.720547 5.970245-5.146763 7.61721-5.043828 5.661439 0 6.793727-4.837957 10.293526-6.484921a50.335344 50.335344 0 0 0 5.970245-1.029353c1.441094-1.029353 0.926417-3.499799 2.985123-4.014475 3.293928 1.132288 5.352634-1.338158 7.308404-2.985123a6.999598 6.999598 0 0 1 6.690792-1.95577c1.646964-1.441094 0.720547-3.293928 1.029353-4.940893 1.852835-0.514676 1.852835 1.544029 2.985122 1.95577 1.852835-1.132288 0-3.808605 1.95577-4.940892 2.573382 1.338158 4.220346-0.720547 6.381986-1.338159 6.176116-1.749899 10.293526-7.308404 15.646161-9.572979h1.029352c2.882187-0.720547 5.558504-1.749899 6.484922-5.146763 0-0.926417 1.235223-2.264576 1.95577-1.7499 4.117411 2.676317 4.426216-1.132288 5.86731-3.190993s1.132288-2.367511 2.470446-1.749899 1.029353 1.95577 1.029353 3.088058c-1.029353 9.675915-2.367511 19.454765-3.088058 29.130679a40.247688 40.247688 0 0 1-0.926418 11.837555c-1.646964 2.470446-2.470446 5.455569-5.146763 7.205469s-5.249698 3.396864-8.234821 0a26.042622 26.042622 0 0 1-5.86731 8.02895c-2.985123 3.293928-3.602734 1.029353-4.632087-1.235223s-1.338158-3.705669-4.014475-3.602734c1.544029 1.029353 3.602734 1.749899 4.014475 3.808605a6.587857 6.587857 0 0 1-6.279051 7.102533 9.470044 9.470044 0 0 0-7.926015 4.837957 6.073181 6.073181 0 0 1-2.573382 1.852835 140.60957 140.60957 0 0 0-13.587454 7.205468 237.883394 237.883394 0 0 1-32.321673 18.116607z" fill="#5A85B6" p-id="2485"></path><path d="M93.87696 674.534781c1.852835-1.95577 6.690792 0 6.279051-5.146763 4.735022 1.235223 7.205468-3.293928 10.911138-4.632087a67.937274 67.937274 0 0 0 12.969843-7.205469c3.91154-2.573382 6.896663-6.587857 11.52875-7.82308a113.22879 113.22879 0 0 0 21.410535-11.014073c2.264576-1.132288 7.308404-1.235223 6.999598-6.176116a9.264174 9.264174 0 0 0 7.411339-2.16164 23.46924 23.46924 0 0 0 4.11741-3.808605 5.455569 5.455569 0 0 1 2.676317 4.014475 250.750302 250.750302 0 0 0 14.205066 35.512666 6.690792 6.690792 0 0 1 0.720547 2.882188c-0.514676 3.396864-3.602734 2.882187-5.455569 2.779252a20.587053 20.587053 0 0 0-14.102131 7.82308c-1.749899 1.544029-2.779252 4.529152-5.86731 3.499799-1.235223 0 0 0 0 0 0 1.646964 0 3.91154-1.95577 3.808604s-1.852835-2.470446-1.95577-4.11741c-0.514676 2.058705-0.617612 5.146763-3.808605 1.852835 0 0-0.823482-1.235223-1.544029-0.617612-2.470446 2.161641-5.764375 3.705669-7.82308 5.558504a16.881383 16.881383 0 0 1-11.117008 5.455569 1.749899 1.749899 0 0 0-1.235223 0.720547c-2.058705 3.396864-7.411339 2.985123-8.440692 7.514274 0 0 0 0.720547-0.617611 0.720547-7.926015-0.514676-7.205468 6.690792-10.293527 10.911138-0.617612 1.029353-1.029353 2.264576-2.470446 2.058705s-1.235223-1.235223-1.029353-1.95577c1.441094-5.558504-1.646964-5.764375-5.661439-4.837957a243.133092 243.133092 0 0 1-15.852031-35.615601z" fill="#527FB2" p-id="2486"></path><path d="M245.603538 736.398874c-7.514274 0-11.940491 6.381986-17.8078 9.675915-21.822276 12.043426-42.409329 24.292722-63.819863 36.644954a15.543225 15.543225 0 0 0-6.279052 4.735022 325.481303 325.481303 0 0 1-21.71934-30.057097c1.029353-1.235223 2.573382-1.749899 3.705669-2.779252 4.014475-3.499799 9.470044-4.837957 12.969844-8.955368 8.749497 1.441094 11.322879-7.926015 18.013671-10.293526 0.823482 0 1.235223-1.338158 2.470446-0.514677 3.293928 2.161641 6.999598-1.235223 7.411339-2.16164 2.985123-6.279051 3.91154 0 5.764375 0.617611s1.235223-2.573382 1.646964-4.014475 0-2.161641 1.029353-2.058705c3.293928 1.029353 3.602734-1.852835 5.249698-3.396864s2.161641 1.646964 3.396864 2.367511a12.866908 12.866908 0 0 0 2.16164-4.529152c0-1.132288 1.029353-2.058705 2.573382-1.338158 3.808605 1.852835 4.837957 1.441094 6.484921-2.470446s2.161641-3.705669 4.735022-0.617612c1.749899-2.573382 2.882187-5.661439 5.867311-7.205468a2.058705 2.058705 0 0 1 2.367511 2.16164c0 0.720547-0.926417 1.235223-1.132288 2.058706s1.235223-0.926417 1.95577-1.132288a4.117411 4.117411 0 0 1 3.293928 1.95577 222.75191 222.75191 0 0 0 18.837153 19.145959 1.852835 1.852835 0 0 1 0.823482 2.16164z" fill="#4C7BAE" p-id="2487"></path><path d="M139.786088 755.338963a3.396864 3.396864 0 0 1-3.808605 1.95577 386.727784 386.727784 0 0 1-26.454363-46.73261c2.264576 0 3.808605-3.705669 6.073181-2.367511s0 4.837957 0.720547 7.308404c0 0 0 0.926417 0.926417 1.338158 0-3.808605 3.705669-5.86731 2.882187-10.293526a2.264576 2.264576 0 0 1 3.190994-2.573382c0.823482 0 5.455569-3.705669 5.970245-3.602734s0.823482-5.661439 3.602734-1.235223c0.617612 1.029353 0.617612-1.029353 1.029353-1.338159 2.367511-1.95577 3.705669-5.661439 8.02895-3.808604 2.676317 1.132288 1.132288-2.264576 2.470447-2.985123l0.926417 2.573382c0.926417-1.749899 2.985123-2.470446 2.985123-4.426217s1.544029-1.338158 2.367511-1.852834l5.146763-2.573382c3.602734-3.705669 3.705669-3.705669 5.249698 0.720547 2.058705-0.823482 1.235223-3.190993 2.367511-4.529152l2.161641 6.896663 1.544029-8.337756c0.823482 1.646964 1.235223 4.220346 3.293928 1.441093s3.602734-6.073181 5.455569-6.07318 3.396864-3.088058 5.86731-4.014476 5.455569 0 8.131886-0.617611c0.926417 0 1.749899-1.132288 2.779252-1.235223a3.91154 3.91154 0 0 1 2.882187 1.95577 180.857258 180.857258 0 0 0 12.969844 21.410534c0.926417 1.852835 2.882187 3.190993 2.367511 5.66144a11.528749 11.528749 0 0 0-10.293527 4.735022 2.985123 2.985123 0 0 1-3.088058 1.029353 7.82308 7.82308 0 0 0-6.381986 2.367511 22.131082 22.131082 0 0 1-6.793727 4.735022 2.985123 2.985123 0 0 0-1.7499 1.646964c-0.617612 1.749899 0 5.146763-3.705669 1.95577-2.264576 2.779252-6.690792 1.646964-8.852433 4.632087a5.661439 5.661439 0 0 1-4.014475 2.367511 22.028146 22.028146 0 0 0-15.337354 10.293526c-1.544029 2.470446-3.808605 1.544029-5.66144 2.470447s-2.985123 0-4.426216 0.617611-2.264576 1.338158-1.029353 3.499799a3.190993 3.190993 0 0 1 0 2.367511 30.880579 30.880579 0 0 0 0.205871 14.616808z" fill="#4F7FB2" p-id="2488"></path><path d="M888.948934 274.322477c-6.073181 0.617612-4.940893-5.86731-7.82308-8.337756-0.823482-0.720547-2.882187-2.676317-0.823482-4.632087a82.348211 82.348211 0 0 1 8.646562 12.969843z" fill="#497CAE" p-id="2489"></path><path d="M64.025734 522.911138a7.82308 7.82308 0 0 0 0 0.926417 62.996381 62.996381 0 0 1 0-21.925211z" fill="#648CBB" p-id="2490"></path><path d="M517.970245 960.591878h-13.999196 14.102132z" fill="#CFBFC9" p-id="2491"></path><path d="M889.154805 279.46924c0-1.441094-1.235223-2.779252 0-4.11741a10.293526 10.293526 0 0 1 2.573382 4.11741z" fill="#497CAE" p-id="2492"></path><path d="M533.822276 958.841978h7.205468a13.072778 13.072778 0 0 1-7.102533 1.029353v-0.617612c0-0.617612-0.205871-0.411741-0.102935-0.411741z" fill="#C5B6BA" p-id="2493"></path><path d="M553.688782 958.327302a8.955368 8.955368 0 0 1-6.176116 0 8.955368 8.955368 0 0 1 6.176116 0z" fill="#C4B8BB" p-id="2494"></path><path d="M533.822276 958.841978v1.029353h-4.837958v-1.029353z" fill="#E9DAD0" p-id="2495"></path><path d="M488.016084 958.944914c1.749899 0 3.499799-0.514676 5.249698 0a11.425814 11.425814 0 0 1-5.249698 0v-0.617612z" fill="#EFDCCF" p-id="2496"></path><path d="M488.016084 958.944914a4.323281 4.323281 0 0 1 0 0.823482 10.293526 10.293526 0 0 1-5.352634 0 11.425814 11.425814 0 0 1 5.352634-0.823482z" fill="#BBACAA" p-id="2497"></path><path d="M450.135907 955.856856c1.95577 0 4.117411-0.617612 5.86731 0.926417a7.720145 7.720145 0 0 1-5.86731-0.926417z" fill="#B56978" p-id="2498"></path><path d="M567.585042 956.371532a3.088058 3.088058 0 0 1 3.293929 0 2.573382 2.573382 0 0 1-3.293929 0z" fill="#BBACAA" p-id="2499"></path><path d="M210.708484 698.415762l-2.985123-4.940893c1.441094-1.132288 2.882187 0 4.220346 0a341.84801 341.84801 0 0 0 64.643346 10.911138 148.123844 148.123844 0 0 1 21.204664 2.264576 30.160032 30.160032 0 0 1 7.926015 8.131886 216.164053 216.164053 0 0 0 58.158424 46.423804 291.20386 291.20386 0 0 0 110.964214 35.40973 326.40772 326.40772 0 0 0 136.080418-11.631685 255.176518 255.176518 0 0 0 96.553277-52.394049 159.034982 159.034982 0 0 0 57.026136-103.65581 130.007238 130.007238 0 0 0-3.088058-47.041415 32.115802 32.115802 0 0 1-2.16164-12.146361 15.337354 15.337354 0 0 1 2.058705-4.529152 235.104142 235.104142 0 0 0 32.424608-105.61158 249.720949 249.720949 0 0 0-1.029353-47.144351 109.008444 109.008444 0 0 0-6.793727-22.336952c-0.720547-1.95577-2.058705-4.014475 0-6.07318s3.190993 1.029353 4.426216 2.264575a265.470044 265.470044 0 0 1 19.35183 24.189787 307.158826 307.158826 0 0 1 19.969441 30.880579c2.779252 5.043828 5.558504 10.293526 8.131886 15.234419 4.529152 10.293526 8.955368 20.587053 12.558102 30.880579a19.5577 19.5577 0 0 1 1.235223 7.205469l5.043828 20.587052a15.337354 15.337354 0 0 1-3.396864 5.970246 146.68275 146.68275 0 0 0-28.101327 85.539204 170.975472 170.975472 0 0 0 8.749498 58.6731 12.969843 12.969843 0 0 1 1.029352 6.793727 245.500603 245.500603 0 0 1-68.246079 76.892642 363.876156 363.876156 0 0 1-140.4037 63.099316 15.44029 15.44029 0 0 0-2.264575 0.926418 236.751106 236.751106 0 0 0-24.189787 4.940892c-12.249296 1.544029-24.395657 3.293928-36.644954 4.735022a142.256534 142.256534 0 0 1-15.749095 1.235224c-14.513872 0-29.027744 1.749899-43.644552 1.029352-1.338158 0-2.676317 0-3.70567 1.029353-2.676317 0-5.558504 1.029353-8.02895-1.029353a2.470446 2.470446 0 0 1 1.749899-0.514676h-18.837153a275.248894 275.248894 0 0 1-44.776839-5.352634 39.012465 39.012465 0 0 0-22.028147-4.014475c0-0.823482 0-1.646964-1.029352-1.852835l-29.645356-7.102533-32.012867-10.808203a432.328106 432.328106 0 0 1-46.835545-22.131081l-12.969843-7.308404a423.784479 423.784479 0 0 1-39.938882-29.645356c-8.131886-7.205468-15.337354-15.337354-22.954564-23.057499a1.441094 1.441094 0 0 1-0.926417-0.926417l-1.95577-2.264576a21.822276 21.822276 0 0 1-9.161239-11.73462z" fill="#F55954" p-id="2500"></path><path d="M834.907921 672.37314c-18.837153-52.188179-16.263772-102.214717 15.234419-149.256132a30.262967 30.262967 0 0 1 5.970245-7.308403 139.374347 139.374347 0 0 1 4.014476 17.190189 315.496582 315.496582 0 0 1 2.058705 53.526337 197.223965 197.223965 0 0 1-27.277845 85.848009z" fill="#F5F5F5" p-id="2501"></path><path d="M742.472055 228.61922a60.937676 60.937676 0 0 1-72.054685 44.879775 59.393647 59.393647 0 0 1-37.056694-23.26337l-2.779253-3.396863-2.058705-3.396864a45.703257 45.703257 0 0 1-2.779252-5.970245 89.244873 89.244873 0 0 1-5.043828-25.939687 74.731001 74.731001 0 0 1 7.308404-27.483715 131.963008 131.963008 0 0 1 9.264174-13.381584 64.128669 64.128669 0 0 1 35.306795-18.528348 60.423 60.423 0 0 1 16.675513 0 47.967833 47.967833 0 0 0-23.983917 17.704866 39.1154 39.1154 0 0 0-8.749497 22.131081 43.438681 43.438681 0 0 0 12.661037 37.571371 51.467632 51.467632 0 0 1 4.940893 3.293929 45.909127 45.909127 0 0 0 55.070366 3.499799c1.852835-1.132288 3.808605-1.95577 5.661439-2.882188a44.262163 44.262163 0 0 0 8.131886-8.337756 2.985123 2.985123 0 0 1-0.514676 3.499799z" fill="#FEFEFE" p-id="2502"></path><path d="M513.852835 109.626055a6.690792 6.690792 0 0 1 10.293526 0.617612c-1.235223 1.544029-3.293928 3.293928-1.749899 5.764375-4.735022 0.823482-8.234821-0.617612-8.543627-6.381987z" fill="#F9F9FA" p-id="2503"></path><path d="M297.585846 707.37113c-18.219542-1.646964-36.542018-2.882187-54.658624-5.86731a212.561319 212.561319 0 0 1-35.203861-8.028951 115.596301 115.596301 0 0 1-13.175713-21.410534 25.116204 25.116204 0 0 1 2.16164-8.646563 172.313631 172.313631 0 0 0 9.264174-58.776035 147.815038 147.815038 0 0 0-26.969039-83.274628c-1.132288-1.646964-2.676317-2.985123-2.573382-5.249698a225.428227 225.428227 0 0 1 16.366707-48.894251c2.161641-5.043828 4.632087-10.293526 6.896663-14.822677 7.205468-13.381584 15.234419-26.248492 23.675111-38.90953a244.471251 244.471251 0 0 1 18.425412-23.46924 349.979895 349.979895 0 0 1 37.880177-37.880177 206.796944 206.796944 0 0 1 26.763168-20.587053l11.014073-7.720144 32.115802-18.940089c15.028548-6.793727 29.748291-14.102131 45.394452-19.454765 2.161641-0.720547 4.220346-1.646964 6.381986-2.573381 15.64616-4.426216 30.880579-9.161238 47.144351-12.146361a392.286289 392.286289 0 0 1 52.702854-6.690792 358.420587 358.420587 0 0 1 149.770809 25.836751c10.293526 4.014475 19.660635 8.749497 29.54242 13.072778a408.55006 408.55006 0 0 1 60.731806 39.321271 446.121431 446.121431 0 0 1 44.468033 41.174105h0.926418l-0.720547 0.617612c-1.441094 3.705669 1.235223 6.690792 2.470446 9.675914a85.642139 85.642139 0 0 1 6.381986 29.851227 252.08846 252.08846 0 0 1-12.352231 98.817853 241.486128 241.486128 0 0 1-22.336952 47.556091c-1.95577 0-2.264576-2.264576-2.779252-3.808604a220.899075 220.899075 0 0 0-94.700443-112.714114 270.513872 270.513872 0 0 0-113.228789-39.835947 276.072376 276.072376 0 0 0-113.846402 9.675915 266.499397 266.499397 0 0 0-88.421391 44.879775 208.649779 208.649779 0 0 0-73.598713 98.920788 142.256534 142.256534 0 0 0 6.690792 109.626055 169.328508 169.328508 0 0 0 15.028548 24.704464c1.235223 1.95577 3.396864 3.499799 2.367511 5.970245z" fill="#FA665A" p-id="2504"></path><path d="M851.068758 495.221552c-4.529152-12.763973-9.572979-25.42501-14.925614-37.880177 0-3.088058-2.985123-5.558504-2.573381-8.955368s0.720547-3.602734 2.882187-1.544029 3.190993 0 3.70567-1.646964a16.778448 16.778448 0 0 1 0-2.470446c0-0.926417 1.029353-1.852835 2.16164-1.646964s1.029353 1.132288 1.235223 1.95577a10.808203 10.808203 0 0 0 2.161641 5.455569 13.48452 13.48452 0 0 0 0-4.837958c0-1.852835 1.029353-3.396864 2.882187-3.499799a22.542823 22.542823 0 0 0 11.73462-5.558504c4.117411-2.882187 7.514274-6.176116 11.322879-9.264174s6.587857-4.837957 8.749498-4.632087a14.719743 14.719743 0 0 0 8.646562-2.264575 2.573382 2.573382 0 0 1 3.190993 0.617611 3.088058 3.088058 0 0 0 4.11741 0l31.909932 12.969843c-3.088058 4.940893-8.749497 6.279051-13.175714 9.470045a8.543627 8.543627 0 0 0-2.573381 12.969843c3.088058 4.014475 1.646964 5.661439-2.058705 7.514274-14.616807 6.999598-28.101327 15.852031-41.997588 24.189787-5.043828 3.499799-11.322879 6.073181-17.396059 9.058303z" fill="#4577AB" p-id="2505"></path><path d="M828.114194 442.106956l-19.866506-30.880579c0-2.470446 1.95577-2.779252 3.293928-3.602734 6.484922-3.91154 13.072778-7.514274 19.660636-11.322879a370.566948 370.566948 0 0 1 36.953759 12.969843c0.720547 1.029353 1.95577 0.720547 2.985123 1.029353l2.985123 1.029352a13.072778 13.072778 0 0 1-2.367512 12.146362 5.86731 5.86731 0 0 1-4.735022 2.882187 8.131886 8.131886 0 0 0-6.999598 3.705669 5.661439 5.661439 0 0 1-7.205468 2.779252c-1.441094-0.720547-1.95577 0-2.779252 1.338159a30.880579 30.880579 0 0 1-18.631283 8.852433 4.529152 4.529152 0 0 1-3.293928-0.926418z" fill="#497AAD" p-id="2506"></path><path d="M828.114194 442.106956a56.614395 56.614395 0 0 0 18.425412-5.661439c0.926417 0 1.646964-1.544029 2.264576-2.470447s1.852835-5.455569 5.661439-2.058705c1.235223 1.029353 2.985123-2.573382 5.249699-2.470446 0-6.176116 5.764375-4.529152 7.720144-4.837958 4.220346 0 3.602734-3.808605 5.249699-5.661439s0-5.352634 1.544029-7.82308c7.926015 1.852835 15.234419 5.661439 22.954564 8.02895-1.749899 0.720547-3.396864 5.146763-5.146764 0-1.338158 0.823482-4.117411-1.132288-4.323281 2.161641 0 1.338158-1.646964 2.676317-2.058705 2.161641-4.735022-5.352634-6.279051 2.058705-9.367109 2.16164-6.690792 0-7.102533 9.470044-13.89626 9.058303-1.132288 0-1.338158 0.926417-1.441094 1.646964s0 4.117411-3.602734 2.470447c-1.441094-0.720547-2.058705 1.235223-3.088058 1.95577s-2.058705 3.190993-3.808605 0.617611-1.749899 0-2.264576 0.617612a4.323281 4.323281 0 0 0 0 1.749899c0 2.264576 1.441094 6.587857-0.720547 6.381987s-4.117411-4.529152-4.014475-8.028951h-0.720547c-1.235223 3.088058 0 7.82308-4.323281 8.852433-2.058705 0-0.926417-2.985123-2.779252-3.602734-1.441094 3.705669 1.235223 6.999598 1.132288 10.293526z" fill="#4678AC" p-id="2507"></path><path d="M831.202252 396.197829c-3.602734 5.146763-10.293526 6.279051-14.513872 9.77885-2.676317 1.95577-5.558504 3.499799-8.440692 5.249698a320.231604 320.231604 0 0 0-22.234017-26.866104 3.808605 3.808605 0 0 0 0-0.926417 184.048251 184.048251 0 0 1 26.763169 7.205468c6.176116 1.544029 12.249296 3.602734 18.425412 5.558505z" fill="#4C7AAE" p-id="2508"></path><path d="M811.232811 275.454765c3.190993-2.058705 6.690792-0.514676 10.293526-1.029353-3.396864 2.058705-6.896663 0.514676-10.293526 1.029353zM800.321673 276.381182c1.441094-1.646964 3.293928-0.720547 4.940892-1.029352-1.338158 1.749899-3.293928 0.823482-4.940892 1.029352z" fill="#477AAD" p-id="2509"></path><path d="M871.141134 410.094089c-1.852835 2.161641-2.367511 0-2.985123-1.029352 1.132288 0.102935 2.264576-0.102935 2.985123 1.029352z" fill="#4678AC" p-id="2510"></path><path d="M790.336952 277.410535c1.441094-1.646964 3.293928-0.720547 4.940893-1.029353-1.338158 1.749899-3.293928 0.823482-4.940893 1.029353z" fill="#477AAD" p-id="2511"></path><path d="M218.84037 282.454363c0 0.823482 0 2.573382-1.441094 1.852834a7.617209 7.617209 0 0 0-7.720145 0c-2.058705 0.926417-0.823482-1.749899-1.338158-2.676316 1.441094-3.396864-2.676317-4.117411-3.293928-6.896663a6.896663 6.896663 0 0 0 7.926015-6.484922c2.264576 3.91154 4.323281 7.205468 9.264174 6.279051-1.646964 2.676317-5.146763 4.323281-3.396864 7.926016z" fill="#FCFCFC" p-id="2512"></path><path d="M430.166466 819.261761a51.467632 51.467632 0 0 1 17.396059 1.441094c7.720145 0.514676 15.337354 2.058705 23.057499 2.470446a148.63852 148.63852 0 0 0 27.17491 0.823482v1.235223h-5.86731c-7.617209 0-15.337354 0-22.954564 1.029353a129.183756 129.183756 0 0 0-53.835143 14.925613 87.186168 87.186168 0 0 1 15.028549-21.925211z" fill="#F14E4E" p-id="2513"></path><path d="M422.137515 229.957378c-4.940893 2.161641-2.058705-3.808605-4.529152-4.220345 0.823482-1.95577 3.602734-1.544029 4.220346-3.70567l4.632087 3.808605c-2.264576 0.308806 0.514676 6.381986-4.323281 4.11741z" fill="#FBFBFB" p-id="2514"></path><path d="M625.743466 237.471653a13.072778 13.072778 0 0 1 2.779252 5.970245 6.587857 6.587857 0 0 1-2.779252-5.970245z" fill="#497CAE" p-id="2515"></path><path d="M284.513068 201.44431a2.264576 2.264576 0 0 1-2.573382 2.161641 2.058705 2.058705 0 0 1-2.058705-2.161641 2.470446 2.470446 0 0 1 2.470446-2.573381c1.441094-0.102935 1.95577 1.132288 2.161641 2.573381z" fill="#EAEDF1" p-id="2516"></path><path d="M176.431041 515.808605a135.565742 135.565742 0 0 1 27.895457 60.114194 167.784479 167.784479 0 0 1-7.926015 92.641737 23.366305 23.366305 0 0 1-1.852835 3.396863l-2.058705-2.470446a276.792923 276.792923 0 0 1-17.39606-42.82107 288.218737 288.218737 0 0 1-5.970245-32.012867c-0.926417-1.132288 0-2.676317-0.823482-3.808604V586.731001a20.587053 20.587053 0 0 1 0-15.954966c0.926417-11.73462 1.749899-23.46924 2.882187-35.100924a49.820667 49.820667 0 0 0 1.235223-6.999598c0.926417-2.470446-0.720547-5.661439 1.852835-7.720145z" fill="#F5F5F5" p-id="2517"></path><path d="M154.50583 537.836751a48.070768 48.070768 0 0 1-21.925211 13.48452v-2.470447c-1.029353-1.544029-2.470446-3.088058 0-4.426216s0.926417-3.088058 2.161641-4.014475 0 3.190993 2.779252 2.882187 0-2.882187-1.235223-4.220346 0-3.088058 1.544029-3.499799 1.235223 0.617612 1.646964 2.058706 3.293928 3.91154 4.837957 6.690792c-0.926417-7.308404 4.735022-11.322879 7.205469-17.60193 2.985123 3.808605 0.308806 8.234821 2.985122 11.117008zM174.578207 521.367109c-0.926417 2.470446 0 5.352634-1.852835 7.720145v-1.441094c0-0.308806-0.926417 0-1.132288 0a14.513872 14.513872 0 0 1-2.573382 4.632087c-2.058705 1.95577-3.705669 3.602734-4.837957-1.441094 0 5.352634-3.602734 6.896663-7.308404 8.028951-1.235223 0-0.720547-0.720547-0.926417-1.132288a10.293526 10.293526 0 0 1 1.749899-10.808203 15.028548 15.028548 0 0 0 2.264576-6.999598c2.779252 3.602734 6.690792 5.352634 5.86731 10.293527 0-3.808605 3.808605-6.690792 1.441094-10.293527 0-0.823482 0.720547-1.852835 1.544029-2.264576s1.646964 0 2.16164 1.338159 1.338158 3.088058 3.602735 2.367511zM126.816244 556.77684a33.762766 33.762766 0 0 0-10.911137 6.484921c-2.367511 1.95577-2.676317 0-2.985123-1.544029 2.985123-2.470446 0.514676-6.896663 3.396864-9.572979 0 0 0.823482 0 1.029352 0.823482s0 2.367511 1.235223 2.16164 0.720547-1.544029 0-2.367511-2.676317-2.676317 0-4.014475 1.95577 1.441094 2.985123 2.264576 6.587857 1.235223 5.249698 5.764375zM109.831926 565.732207a3.808605 3.808605 0 0 1-5.970245 1.029353c-4.323281-5.455569-4.323281-5.455569 1.749899-12.455167 0.926417 2.367511 0.514676 5.86731 4.735022 5.146763 1.235223 0 1.029353 1.235223 0 2.161641s-0.411741 2.676317-0.514676 4.11741zM130.83072 553.791717c-2.161641 1.132288-1.646964-1.852835-2.985123-1.95577-3.602734-2.676317-1.132288-4.940893 0-7.514274a14.308002 14.308002 0 0 1 2.985123 9.470044zM113.331725 552.247688c-0.514676 0-0.926417 0.720547-1.338158 0.720547a0.823482 0.823482 0 0 1-1.029353-1.132288 1.235223 1.235223 0 0 1 0.926417-0.720547l1.441094 1.132288zM124.448733 548.027342s0 0.926417-0.823482 1.132288a0.926417 0.926417 0 0 1-1.235223-0.926417s0.514676-0.823482 0.823482-0.926418 0.411741 0.514676 1.235223 0.720547z" fill="#5B86B7" p-id="2518"></path><path d="M734.237234 233.148372a46.73261 46.73261 0 0 1-65.055087-3.602735 26.454363 26.454363 0 0 1 7.82308-1.029352h47.761962c3.190993 0 7.205468-1.132288 7.308404 4.426216 0 0.205871 1.441094 0.205871 2.161641 0.205871z" fill="#477AAD" p-id="2519"></path><path d="M742.472055 228.61922v-3.396864c0-0.514676 0-1.132288 0.720547-0.926417s0 0.823482 0.514676 1.235223z" fill="#C5CFDC" p-id="2520"></path><path d="M805.777242 243.441898c-2.779252 0-2.779252-1.029353-2.779252-2.882188a2.676317 2.676317 0 0 1 3.190993-2.779252 2.985123 2.985123 0 0 1 2.779252 3.396864c0 2.264576-1.441094 2.264576-3.190993 2.264576z" fill="#F3F4F6" p-id="2521"></path><path d="M168.607961 570.776035V586.731001c-1.646964 0-2.058705 2.985123-4.11741 2.161641s0-2.470446 0-3.602734a2.573382 2.573382 0 0 0-1.852835 2.573381c0 1.235223 1.029353 4.735022-2.367511 1.7499-0.926417-0.823482-1.235223 0.617612-1.749899 1.132287s-1.544029 2.470446-2.985123 2.367512 0-2.779252-1.544029-3.602735-2.367511 5.249698-6.176116 3.088058c-0.514676 0 0 0.823482 0 1.441094a6.381986 6.381986 0 0 1-6.07318 8.234821c-2.367511 0-3.293928 0-3.808605 2.676317s-0.926417 1.95577-2.161641 1.029352-1.749899-1.441094-0.720546-2.470446c3.396864-3.190993 0.823482-6.176116-0.617612-9.264174-0.514676 3.499799 2.676317 7.720145-2.058705 10.293527 0-1.95577-2.779252-2.779252-4.632087-2.676317s0 2.470446-0.926418 3.602734-2.161641 4.940893 0 7.61721c-3.190993 0.617612-3.499799-2.161641-5.455568-2.367511s1.235223 2.573382 0 3.499799-2.058705-1.441094-3.602735-1.441094a4.837957 4.837957 0 0 1-3.088058 6.279051c-1.646964 0-5.661439 1.441094-6.279051-2.779252 0-0.823482-0.720547-2.161641-1.95577-1.544029a2.367511 2.367511 0 0 0-1.235223 3.293928 4.117411 4.117411 0 0 1 0 3.70567c-1.029353 3.91154-1.132288-1.441094-2.16164 0s0.617612 3.705669-1.646965 5.043828c-2.470446-3.602734 1.029353-7.411339 0-11.73462a19.5577 19.5577 0 0 0-2.264575 10.293526c0 1.749899 0 4.323281-1.95577 4.426216s0-2.985123-1.441094-4.323281 0.617612-1.95577-1.338158-2.470446l-0.823483 10.293526c-2.676317 0-0.514676-2.264576-1.852834-2.779252s-1.441094 2.470446-2.161641 3.602734a3.91154 3.91154 0 0 1-5.043828 0.514677c-1.852835-0.720547-3.705669-2.058705-3.293928-4.323281s0-5.043828 1.749899-6.999598c5.970245-4.323281 12.558102-7.617209 18.734218-11.425815a132.271813 132.271813 0 0 0 17.704866-11.219943 39.1154 39.1154 0 0 1 10.293526-4.220346c0.823482 0 1.338158-1.235223 1.95577-1.852835 2.470446-2.161641 3.293928-6.279051 8.543627-4.940892 2.779252 0.720547 4.735022-3.293928 6.07318-6.176116l2.470447 2.264576a28.924809 28.924809 0 0 0 5.764374-6.793728c1.235223-3.088058 0.617612-5.764375 4.735022-1.544029 2.367511 2.367511 5.558504-1.338158 7.205469-3.602734a10.808203 10.808203 0 0 1 2.16164-2.985123z" fill="#5883B5" p-id="2522"></path><path d="M152.961801 596.818657a6.073181 6.073181 0 0 1-0.617611-1.441094 0.926417 0.926417 0 0 1 1.029352-1.132288 1.235223 1.235223 0 0 1 0.823483 0.926418s-0.514676 0.720547-1.235224 1.646964zM168.710897 590.848412c1.338158 1.029353 0.823482 2.470446 0.823482 3.808604-2.161641-1.235223-0.823482-2.470446-0.823482-3.808604zM140.300764 580.760756c0-2.985123 1.95577-2.058705 2.367511-1.852835s3.602734 0.823482 4.323281 2.779252c0 0-1.029353 2.264576-1.646964 1.7499s-4.735022-0.308806-5.043828-2.676317zM86.259751 608.347407a6.484922 6.484922 0 0 1 0 6.793727 6.484922 6.484922 0 0 1 0-6.793727zM128.257338 591.157218a2.470446 2.470446 0 0 1-1.852835 1.95577c-1.029353 0-1.235223-0.720547-1.132287-1.646965s0-2.161641 1.029352-2.16164 1.646964 0.926417 1.95577 1.852835zM98.406112 606.082831a2.367511 2.367511 0 0 1-1.852835 2.058705c-1.029353 0-1.235223-0.720547-1.132288-1.544029s0-2.161641 0.926418-2.264576 1.646964 0.823482 2.058705 1.7499zM114.052272 599.392039c1.338158-1.852835 2.676317-1.132288 4.014475-0.720547s0 1.132288 0 1.132288a3.499799 3.499799 0 0 1-4.014475-0.411741zM112.405308 599.083233a2.573382 2.573382 0 0 1-1.95577 2.058705s-0.926417-0.617612-0.926418-0.926417a2.264576 2.264576 0 0 1 1.852835-1.95577s0.720547 0.514676 1.029353 0.823482zM123.625251 592.907117c0 0.617612 1.029353 1.029353 1.029353 1.338158a2.264576 2.264576 0 0 1-1.852835 1.95577l-0.926417-0.823482a28.821874 28.821874 0 0 1 1.749899-2.470446zM80.289505 612.053076s0.926417 0.617612 1.029353 0.926417a0.823482 0.823482 0 0 1-0.926417 1.029353 1.235223 1.235223 0 0 1-0.823482-0.926417s0.308806-0.617612 0.720546-1.029353zM90.171291 612.979493s0.926417 0.514676 1.029352 0.823482a0.823482 0.823482 0 0 1-0.926417 1.235224s-0.823482-0.514676-0.926417-0.926418 0.514676-0.102935 0.823482-1.132288z" fill="#5883B5" p-id="2523"></path><path d="M210.708484 698.415762l9.058303 11.631685c-1.235223 3.088058-4.940893 4.940893-4.632087 8.955368a1.029353 1.029353 0 0 1-1.544029 0.720546 4.529152 4.529152 0 0 1-2.264575-4.426216c0 5.970245-4.735022 7.411339-8.543627 9.57298-1.646964-1.029353 0-2.882187-1.441094-4.426217-1.132288 2.985123-1.235223 6.279051-4.426216 8.131886a3.602734 3.602734 0 0 1-0.823482-4.632087c-3.499799 0 0 10.293526-6.690792 3.808605v1.95577c0 0.411741 0 5.249698-2.779253 5.970245s-1.544029-3.705669-4.220345-4.735022c-0.823482 1.544029 1.338158 3.705669-0.720547 4.735022s-1.646964-1.852835-3.293929-1.749899c1.338158 7.102533-4.220346 0-5.352633 2.573381 0 0-0.617612-1.646964-1.029353-1.029352-2.882187 4.014475-8.028951 5.146763-11.014073 9.058303a6.381986 6.381986 0 0 1-7.308404 2.264576c-1.95577 0 0 1.852835-1.749899 2.16164-4.632087 1.029353-7.82308 4.837957-12.146361 6.381987-4.220346-5.043828-1.441094-10.293526-1.338159-16.160837-1.646964 0-1.749899 3.293928-3.602734 1.338159s0.617612-2.264576 1.235223-3.396864a6.279051 6.279051 0 0 1 5.66144-3.293928 9.470044 9.470044 0 0 0 8.337756-3.602735 19.969441 19.969441 0 0 1 17.087254-9.367109c0-6.484922 8.749497-2.264576 10.293526-8.02895 0-1.544029 1.544029-1.029353 3.088058 3.499799 0-5.146763 2.676317-6.279051 6.279051-7.720145s4.323281-4.323281 7.720145-4.837957a18.837153 18.837153 0 0 0 9.572979-5.558505c1.852835-1.852835 4.323281-0.617612 6.587857 0.205871zM221.722557 712.414958l0.926418 0.926417c0 1.749899-0.823482 3.190993-2.676317 3.396864 0 0-1.029353-0.823482-1.132288-1.338159-0.308806-2.058705 1.029353-2.779252 2.882187-2.985122zM131.242461 739.898673s0.823482 0 0.926417 0.823482a1.544029 1.544029 0 0 1-0.926417 1.95577s-0.617612-0.720547-0.823482-1.132288 0-1.235223 0.823482-1.646964z" fill="#4D7DB0" p-id="2524"></path><path d="M135.359871 745.045436s-0.926417-0.617612-1.029352-0.926417a0.823482 0.823482 0 0 1 1.029352-1.132288 1.235223 1.235223 0 0 1 0.823482 0.926417s-0.411741 0.720547-0.823482 1.132288z" fill="#4D7DB0" p-id="2525"></path><path d="M297.585846 707.37113a218.737435 218.737435 0 0 1-20.587052-34.174508 145.447527 145.447527 0 0 1 3.808604-127.433856 228.310414 228.310414 0 0 1 93.46522-97.376759 270.410937 270.410937 0 0 1 100.361881-35.100925 277.925211 277.925211 0 0 1 168.607962 27.792522 241.897869 241.897869 0 0 1 97.170888 87.083232 216.164053 216.164053 0 0 1 19.5577 41.791717c1.646964 8.955368 4.323281 17.704865 5.352634 26.763169a142.153599 142.153599 0 0 1-16.469642 86.156815 200.209087 200.209087 0 0 1-79.671894 78.436671 295.938882 295.938882 0 0 1-118.272617 37.15963 324.554885 324.554885 0 0 1-146.991557-17.293124 233.765983 233.765983 0 0 1-105.302774-72.466426 10.293526 10.293526 0 0 0-1.029353-1.338158z" fill="#F9E7DA" p-id="2526"></path><path d="M552.762364 267.117008c0.617612 0 1.646964 0.926417 1.544029 2.676317s-1.544029 1.852835-2.882187 1.852835-2.676317 0-2.779252-2.058705 1.235223-2.470446 4.11741-2.470447z" fill="#FCF0EF" p-id="2527"></path><path d="M389.198231 605.67109a82.965822 82.965822 0 0 1 40.144753-29.748291 222.648975 222.648975 0 0 1 62.996381-14.308002 284.616003 284.616003 0 0 1 49.203056-0.617612 209.164455 209.164455 0 0 1 76.172094 18.734218 69.069562 69.069562 0 0 1 30.880579 25.939687c-1.544029 1.749899-3.602734 1.441094-5.558504 1.338158a199.797346 199.797346 0 0 0-37.15963 2.985123 53.732207 53.732207 0 0 0-19.76357 6.381986c-5.352634 3.293928-5.352634 7.308404 0 10.293526a63.922799 63.922799 0 0 0 23.160434 6.999598 163.667069 163.667069 0 0 0 32.733414 2.058706c2.264576 0 4.735022-0.617612 6.484921 1.544029a62.275834 62.275834 0 0 1-26.866104 23.67511 187.342179 187.342179 0 0 1-56.305589 17.910736 263.926015 263.926015 0 0 1-47.14435 4.014475 248.073985 248.073985 0 0 1-86.877362-14.925613 93.465219 93.465219 0 0 1-38.600724-25.527945c-1.441094-1.646964-1.646964-4.014475-3.70567-5.146763 2.161641-2.367511 4.940893-1.441094 7.514274-1.441094a136.286289 136.286289 0 0 0 46.52674-6.690792c4.117411-1.441094 8.955368-2.779252 8.955367-8.028951s-5.146763-6.073181-8.955367-7.411339a108.390832 108.390832 0 0 0-31.601126-6.176116c-6.279051 0-12.558102-1.029353-18.837154-0.926417a4.220346 4.220346 0 0 1-3.396863-0.926417z" fill="#EFDCCF" p-id="2528"></path><path d="M648.595094 637.786892a223.884198 223.884198 0 0 1-44.570969-3.190993 60.011259 60.011259 0 0 1-18.322476-6.073181c-6.999598-4.014475-7.102533-9.675915 0-13.587455a76.480901 76.480901 0 0 1 26.763168-7.411339 306.541214 306.541214 0 0 1 36.233213-2.058705 187.75392 187.75392 0 0 1 39.218335 5.970245 37.365501 37.365501 0 0 1 9.058303 3.91154c5.86731 3.808605 5.86731 8.749497 0 12.558103a54.041013 54.041013 0 0 1-19.145959 6.484921 205.252915 205.252915 0 0 1-29.233615 3.396864z" fill="#2F1D1D" p-id="2529"></path><path d="M389.198231 605.67109a226.457579 226.457579 0 0 1 43.541616 3.91154 61.761158 61.761158 0 0 1 15.44029 5.249698c2.882187 1.544029 5.661439 3.293928 5.764374 6.896663s-2.779252 5.86731-5.764374 7.308403a90.171291 90.171291 0 0 1-30.160032 7.514275 235.207077 235.207077 0 0 1-28.821874 1.338158 153.476478 153.476478 0 0 1-44.056293-6.279051 35.409731 35.409731 0 0 1-8.02895-3.808605 6.484922 6.484922 0 0 1 0-11.94049 50.232409 50.232409 0 0 1 16.675512-6.176116 218.84037 218.84037 0 0 1 35.409731-4.014475z" fill="#2F1C1D" p-id="2530"></path><path d="M326.819461 694.607157a31.498191 31.498191 0 0 1-11.528749-3.190993 8.234821 8.234821 0 0 1-4.837958-7.514274 7.926015 7.926015 0 0 1 4.940893-6.896663 25.013269 25.013269 0 0 1 20.587053-1.235223 9.264174 9.264174 0 0 1 6.999598 8.234821c0 4.426216-2.882187 6.484922-6.073181 8.234821a32.115802 32.115802 0 0 1-10.087656 2.367511z" fill="#F090AF" p-id="2531"></path><path d="M703.047849 674.534781a21.3076 21.3076 0 0 1 12.558102 2.676317 7.617209 7.617209 0 0 1 0.926417 13.89626 22.645758 22.645758 0 0 1-27.071974-2.058705 6.793727 6.793727 0 0 1 0.823482-10.293526 17.39606 17.39606 0 0 1 12.763973-4.220346z" fill="#F08FAF" p-id="2532"></path><path d="M527.852031 718.591074c5.764375 2.470446 10.293526 5.249698 10.293526 12.043425a7.411339 7.411339 0 0 1-2.573382 5.66144 31.498191 31.498191 0 0 1-17.087253 5.970245c-1.235223 0-2.676317 0-2.779253-1.441094s1.441094-1.235223 2.470447-1.544028c3.808605-0.926417 7.720145-1.749899 11.425814-2.985123a6.999598 6.999598 0 0 0 5.352634-6.381986 7.102533 7.102533 0 0 0-5.249699-7.102534 25.42501 25.42501 0 0 0-10.293526-2.470446c-1.852835 0-4.426216 0-4.529152-1.95577s2.470446-1.95577 4.220346-1.95577a25.939686 25.939686 0 0 0 11.73462-3.499799 6.073181 6.073181 0 0 0 1.132288-10.808203 24.704463 24.704463 0 0 0-14.410937-4.632086c-1.235223 0-3.088058 0-2.985122-1.646965s1.646964-1.338158 2.882187-1.338158a28.410133 28.410133 0 0 1 16.469642 4.837957 10.293526 10.293526 0 0 1-1.852835 16.881384 11.014073 11.014073 0 0 0-4.220345 2.367511z" fill="#F7AAA6" p-id="2533"></path><path d="M644.065943 635.728187a174.989948 174.989948 0 0 1-48.070768-5.249699 47.144351 47.144351 0 0 1-8.337756-3.293928c-2.367511-1.132288-5.146763-2.470446-5.043828-5.558505s2.676317-3.91154 4.837957-5.146763a49.717732 49.717732 0 0 1 15.543225-5.043828 189.70969 189.70969 0 0 1 84.303981 2.161641 27.792521 27.792521 0 0 1 9.77885 4.735022c2.985123 2.264576 2.985123 4.632087 0 6.896663a32.115802 32.115802 0 0 1-12.146362 5.455569 161.711299 161.711299 0 0 1-40.865299 5.043828zM396.81544 635.728187a179.72497 179.72497 0 0 1-47.967832-5.146764 36.644954 36.644954 0 0 1-9.675915-3.91154c-5.558504-3.396864-5.558504-6.381986 0-9.77885a50.541214 50.541214 0 0 1 17.396059-5.764374 194.856454 194.856454 0 0 1 80.495376 1.544029 32.527543 32.527543 0 0 1 11.425815 4.735022c4.529152 3.190993 4.529152 5.661439 0 8.646562a57.746683 57.746683 0 0 1-23.057499 7.205468 164.696421 164.696421 0 0 1-28.616004 2.470447z" fill="#FEFEFE" p-id="2534"></path><path d="M652.60957 621.831926a11.631685 11.631685 0 0 1-12.043426 11.73462 11.940491 11.940491 0 0 1 0-23.778046 11.73462 11.73462 0 0 1 12.043426 12.043426z" fill="#2C191A" p-id="2535"></path><path d="M405.359067 621.831926a11.425814 11.425814 0 0 1-11.94049 11.837555 11.940491 11.940491 0 1 1 11.94049-11.837555z" fill="#2C1919" p-id="2536"></path></svg>