<?xml version="1.0" standalone="no"?><!DOCTYPE svg PUBLIC "-//W3C//DTD SVG 1.1//EN" "http://www.w3.org/Graphics/SVG/1.1/DTD/svg11.dtd"><svg t="1550212881851" class="icon" style="" viewBox="0 0 1024 1024" version="1.1" xmlns="http://www.w3.org/2000/svg" p-id="5626" xmlns:xlink="http://www.w3.org/1999/xlink" width="200" height="200"><defs><style type="text/css">@font-face { font-family: "Roboto Condensed"; src: url("chrome-extension://lienonopcegannlgdkgonpofbhgmclcc/RobotoCondensed-Regular.ttf"); }
</style></defs><path d="M0.590903 511.462862V4.619387C0.590903 0.859421 1.450323 0 5.21029 0h1013.579522c3.759966 0 4.619387 0.859421 4.619387 4.619387v1014.761226c0 3.759966-0.859421 4.619387-4.619387 4.619387H5.102862c-3.759966 0-4.619387-0.859421-4.619387-4.619387q0.107428-253.958875 0.107428-507.917751z" fill="#FEFEFE" p-id="5627"></path><path d="M238.757919 158.455728a433.470415 433.470415 0 0 1 116.881242-64.456567 438.626941 438.626941 0 0 1 108.072178-25.997482 449.799413 449.799413 0 0 1 105.171632 1.289131 431.751574 431.751574 0 0 1 109.36131 28.683172 440.45321 440.45321 0 0 1 62.630298 31.691146c8.271926 5.049098 16.328997 10.742761 24.493495 15.577004 0 3.437684-2.148552 4.189677-4.619387 4.619387a35.55854 35.55854 0 0 1-6.982795 0h-96.684851c-2.900546 0-6.230802-0.644566-6.875367 3.759967 0 0.751993-0.859421 2.041125-1.396559 1.718841-4.189677-2.363407-5.049098 1.181704-6.553084 3.437684a253.636593 253.636593 0 0 0-17.832984 34.699119c-0.966849 2.25598-1.718842 4.834243-5.156525 4.404532a39.318506 39.318506 0 0 0-10.957617-0.966849H440.077264a21.485522 21.485522 0 0 1-10.742761-1.718842 7.19765 7.19765 0 0 1-3.115401-4.297104 56.936634 56.936634 0 0 0-40.500209-36.955099 59.40747 59.40747 0 0 0-57.366345 11.817038 6.445657 6.445657 0 0 1-5.371381 2.148552 197.344524 197.344524 0 0 0-27.716324-1.181704c-6.445657 0-12.891313 0.966849-19.33697 0.859421a7.734788 7.734788 0 0 1-7.412505-3.115401c-1.289131-2.041125-3.222828-1.933697-5.263953-1.933697h-19.874109c-2.363407 0.214855-5.693663 0.214855-4.619387-4.082249z" fill="#38CCDF" p-id="5628"></path><path d="M335.657625 923.125472a325.505665 325.505665 0 0 1-48.449853-24.171213 445.824591 445.824591 0 0 1-111.724717-91.528325 448.187998 448.187998 0 0 1-103.130507-207.120437 57.258917 57.258917 0 0 1-2.25598-16.006714c0-4.51196 0.751993-5.908519 5.263953-6.338229a105.493915 105.493915 0 0 1 19.33697 1.181704c18.477549 1.503987 36.955099 3.330256 55.432648 4.726815 3.007973 0 5.908519 0.751993 8.916492 1.074276a5.049098 5.049098 0 0 1 4.511959 3.437683 289.195132 289.195132 0 0 0 7.305078 38.996224 192.295426 192.295426 0 0 0 18.370122 44.904741 163.612253 163.612253 0 0 0 14.3953 23.634075 251.165757 251.165757 0 0 0 60.159463 58.977759 358.700797 358.700797 0 0 0 114.840117 52.63953c6.123374 1.611414 12.13932 3.330256 18.370122 4.619388a8.916492 8.916492 0 0 1 5.37138 2.255979c0.644566 2.578263-1.503987 3.974822-2.793118 5.478809a396.515317 396.515317 0 0 0-39.10365 55.647503 464.624423 464.624423 0 0 0-21.485523 42.971045c-1.074276 1.826269-1.396559 3.759966-3.330256 4.619387z" fill="#3CD1E6" p-id="5629"></path><path d="M932.525439 659.820394a422.083089 422.083089 0 0 1-39.963072 84.975242 466.343265 466.343265 0 0 1-28.683172 41.35963 426.702476 426.702476 0 0 1-93.247168 89.702057 409.514058 409.514058 0 0 1-85.94209 48.12757 26.964331 26.964331 0 0 1-6.230801-11.70961 398.771297 398.771297 0 0 0-53.713806-87.660931 33.947125 33.947125 0 0 1-8.164499-10.742762 3.330256 3.330256 0 0 1 1.181704-0.966848 466.235837 466.235837 0 0 0 67.679396-21.485523 320.134285 320.134285 0 0 0 90.776332-55.75493 237.737306 237.737306 0 0 0 51.028116-62.630298 139.655896 139.655896 0 0 0 9.238775-17.940411c1.396559-3.007973 1.826269-6.76794 5.586235-8.164499 15.469576 0 30.724297 2.25598 46.086446 3.545111 12.891313 1.074276 25.782627 1.933697 38.67394 3.545111 3.759966 0 6.338229 1.289131 5.693664 5.801091z" fill="#3BD0E6" p-id="5630"></path><path d="M451.142308 955.353756a455.922786 455.922786 0 0 1-76.058749-17.188418l-1.933697-0.859421a7.19765 7.19765 0 0 1 0-5.263953 410.373479 410.373479 0 0 1 26.856903-77.777591c1.933697-4.082249 4.297104-7.842216 6.445657-11.817038a12.13932 12.13932 0 0 1 6.338229-5.37138 122.789761 122.789761 0 0 1 29.864876-8.916492 95.932858 95.932858 0 0 0 10.742761-1.718842h2.578263a188.105749 188.105749 0 0 1 42.326479 0 166.942509 166.942509 0 0 1 47.805288 13.96559 60.696601 60.696601 0 0 1 30.187159 32.228283 180.048678 180.048678 0 0 1 14.717583 72.621066 8.916492 8.916492 0 0 1-1.396559 6.660512l-19.014688 3.330256a4.51196 4.51196 0 0 1-5.801091-2.363407 103.560218 103.560218 0 0 0-24.171213-27.394041c-8.916492-8.164499-17.295846-16.866135-26.319765-24.815779-3.007973-2.68569-4.834243-2.68569-7.842215 0-12.891313 11.602182-25.567772 23.526647-38.673941 34.913974a59.514897 59.514897 0 0 0-12.676458 15.791859c-0.859421 1.826269-1.396559 3.974822-3.974822 3.974822z" fill="#FA665A" p-id="5631"></path><path d="M162.914025 589.240453c-2.25598-5.371381-7.519933-3.330256-10.742762-3.759966-13.535879-1.611414-27.179186-2.041125-40.715065-3.330256-11.602182-1.074276-23.204364-2.470835-34.806546-2.900546-3.545111 0-5.801091 1.181704-5.801091 5.049098a148.572388 148.572388 0 0 1-3.867394-25.352916 415.207721 415.207721 0 0 1-1.933697-64.456568 399.52329 399.52329 0 0 1 11.494754-83.68611 18.262694 18.262694 0 0 1 12.676459 0c4.726815 0.644566 9.45363 1.074276 14.287872 1.289132 9.88334 0 19.659253 1.289131 29.435166 2.363407s19.33697 1.826269 29.005455 2.578263 20.411246 1.933697 30.61687 2.68569a113.873269 113.873269 0 0 0 16.758707 0.966849 3.545111 3.545111 0 0 1 3.115401 1.074276c1.074276 2.470835-0.751993 4.082249-1.933697 5.801091a307.028116 307.028116 0 0 0-37.277382 80.892992c-0.859421 3.007973-1.611414 6.123374-2.255979 9.131347a249.446916 249.446916 0 0 0-6.445657 50.490978 11.387327 11.387327 0 0 1-1.074276 5.801091 7.412505 7.412505 0 0 0-3.007973 6.875367c0 1.933697 1.074276 2.900546 3.007973 3.007973a4.297104 4.297104 0 0 1-0.537138 5.478808zM932.525439 659.820394c-1.289131-7.412505-7.949643-4.94167-12.031893-5.478808-13.321024-1.718842-26.856903-2.148552-40.285354-3.330256s-24.386068-2.900546-36.740244-2.900545a7.519933 7.519933 0 0 1-2.25598-0.859421c-1.181704-2.041125 0-3.867394 0.644566-5.693664a209.913554 209.913554 0 0 0 12.13932-52.63953 189.932018 189.932018 0 0 0 0-29.22031 275.122115 275.122115 0 0 0-4.189677-35.98825 57.473773 57.473773 0 0 0-1.718841-6.76794 197.237096 197.237096 0 0 0-6.982795-25.030633c-0.751993-2.25598-2.148552-4.619387 0-6.875368a28.468317 28.468317 0 0 1 13.213596 0c20.733529 1.826269 41.467058 3.652539 62.308015 5.263953 9.668485 0.751993 19.014687 2.793118 28.468318 4.189677 4.082249 0.644566 8.271926-1.181704 12.13932 0.859421a335.926144 335.926144 0 0 1-1.718842 62.415443 431.536718 431.536718 0 0 1-21.485523 97.544272c0.107428 1.718842 0.107428 3.545111-1.503986 4.511959z" fill="#51D6E9" p-id="5632"></path><path d="M92.978649 354.833403c0-1.074276 0-2.148552 1.289131-2.900545q35.98825-26.964331 71.869073-53.713806c27.179186-20.626102 54.573227-41.144775 81.644985-61.878305 1.396559-1.074276 2.68569-2.578263 4.834243-2.041125a0.751993 0.751993 0 0 0 1.181704 0 39.318506 39.318506 0 0 1 32.228283-21.485522 28.36089 28.36089 0 0 1 28.36089 11.817037 26.642048 26.642048 0 0 1 2.148552 31.368863 23.634075 23.634075 0 0 1-40.070499 3.222828 19.229543 19.229543 0 0 1 1.181704-25.138061 12.031893 12.031893 0 0 1 5.156525-3.007973c1.718842 0 3.867394-1.503987 4.94167 0.644566s-1.181704 2.793118-2.363407 3.759966a12.569031 12.569031 0 0 0-4.404532 15.899287 14.073017 14.073017 0 0 0 16.114141 6.982794 16.543852 16.543852 0 0 0 11.387327-10.742761 17.510701 17.510701 0 0 0-3.652539-18.477549 18.477549 18.477549 0 0 0-18.262694-6.875367 24.171213 24.171213 0 0 0-20.840956 25.030633 26.642048 26.642048 0 0 0 24.600923 25.6752 29.542593 29.542593 0 0 0 29.757448-16.866135 30.724297 30.724297 0 0 0-4.511959-35.773395 11.494755 11.494755 0 0 1-3.007973-11.387327 60.911456 60.911456 0 0 1 12.461603-25.782627 7.842216 7.842216 0 0 1 3.652538-3.222828c5.049098 0 8.379354 4.297104 12.676459 6.338229s8.809064 5.263953 13.321024 7.62736a4.51196 4.51196 0 0 1 3.007973 3.652539 4.834243 4.834243 0 0 1-1.611414 3.007973c-16.973563 16.758708-8.271926 40.50021 12.676458 49.309274a42.971045 42.971045 0 0 0 46.408728-12.246748c1.289131-1.503987 2.363407-3.222828 4.404532-3.867394a9.775913 9.775913 0 0 1 7.19765 2.685691 8.809064 8.809064 0 0 0 10.742762 0c12.676458-8.164499 25.675199-15.577004 38.566512-23.311792 1.396559-0.859421 2.68569-2.041125 4.51196-1.611414 1.503987 3.330256-1.396559 4.404532-3.222828 5.801091q-15.039866 11.172472-30.831725 22.559798c-6.015946 4.297104-6.015946 4.404532 0 8.271926l23.956358 13.213597c1.933697 1.181704 4.94167 1.933697 3.1154 5.478808s-6.76794 1.396559-10.098195 1.933697a392.970206 392.970206 0 0 0-68.8611 16.436425 23.526647 23.526647 0 0 1-4.834242 1.289131c-16.114142 2.041125-32.228284 3.330256-48.449853 5.478808a1090.067982 1090.067982 0 0 0-129.342845 24.708351c-13.858162 3.545111-27.501469 7.62736-41.252204 11.602182a677.653378 677.653378 0 0 0-72.621065 26.964331c-1.289131 0.751993-3.545111 2.793118-5.156526-0.429711z" fill="#07BDD0" p-id="5633"></path><path d="M92.978649 354.833403c1.611414 2.041125 3.007973 0 4.297105 0a658.853546 658.853546 0 0 1 72.835921-27.071758 193.369702 193.369702 0 0 0 25.138061 2.148552c14.717583 0.859421 29.327738 2.68569 44.045321 3.545111s26.964331 3.115401 40.607637 3.545112c3.007973 0 6.123374 0 7.412506 3.652538s-2.041125 4.404532-3.974822 5.908519a358.163659 358.163659 0 0 0-67.03483 71.654218c-1.074276 1.503987-1.718842 3.759966-4.297104 3.545111s-6.982795 0-10.742762 0c-10.205623-1.289131-20.411246-2.68569-30.616869-3.007973a138.259337 138.259337 0 0 0-18.370122-1.074277 38.029375 38.029375 0 0 1-12.246748-1.074276 91.098615 91.098615 0 0 0-16.328997-1.826269c-8.809064-0.537138-17.618128-1.826269-26.53462-1.718842a193.369702 193.369702 0 0 1-21.485522-2.041125 326.687369 326.687369 0 0 1 17.295845-56.184641z" fill="#73DEED" p-id="5634"></path><path d="M957.341217 495.563575a74.554763 74.554763 0 0 1-28.7906-2.148552q-13.96559-1.611414-27.931179-2.793118c-14.3953-1.181704-28.898028-2.148552-42.971045-3.867394-5.586236-0.644566-10.742761-0.751993-16.758707-1.074276-2.578263-0.644566-2.68569-3.222828-3.437684-5.049098a304.664708 304.664708 0 0 0-45.334452-78.207301c-1.611414-2.041125-3.867394-3.974822-2.25598-6.982795a4.834243 4.834243 0 0 1 4.51196-1.396559c18.799832 1.503987 37.707092 3.222828 56.506924 4.834242l52.532102 4.51196c12.246748 0.966849 24.386068 2.25598 36.632816 3.115401a8.809064 8.809064 0 0 1 5.37138 2.25598 241.282417 241.282417 0 0 1 7.519933 37.062526 321.423416 321.423416 0 0 1 4.297105 45.764163c0.322283 1.289131 0.214855 2.68569 0.107427 3.974821z" fill="#6DDDEC" p-id="5635"></path><path d="M945.739035 408.762065c-15.469576-1.289131-30.939152-2.363407-46.301301-3.974822-19.014687-1.933697-38.136802-3.437684-57.151489-5.049098-16.221569-1.289131-32.228284-3.007973-48.664709-4.619387a3.007973 3.007973 0 0 0-3.545111 1.933697c-5.049098-2.041125-7.19765-7.090222-10.742761-10.742761a357.841376 357.841376 0 0 0-44.904742-42.111624 12.246748 12.246748 0 0 1-6.76794-7.627361v-27.608896a4.51196 4.51196 0 0 1 0.644566-1.611414c2.041125-1.933697 4.404532-1.074276 6.553084-0.537138 23.526647 5.478808 46.945867 11.279899 69.935376 18.907259a895.731431 895.731431 0 0 1 116.236676 44.582459 56.506924 56.506924 0 0 1 16.22157 8.594209 161.141418 161.141418 0 0 1 8.486781 29.864877z" fill="#80E1EF" p-id="5636"></path><path d="M589.723928 951.916072a184.775493 184.775493 0 0 0-9.88334-66.712547 77.133026 77.133026 0 0 0-20.411246-34.699119 87.983214 87.983214 0 0 0-25.138062-13.858162 139.655896 139.655896 0 0 0-35.343684-9.238774c0-3.867394 3.545111-3.330256 6.015946-3.437684l27.823752-0.751993a446.039446 446.039446 0 0 0 76.273604-9.668485c2.470835 0 5.049098-1.826269 7.627361 0a393.399916 393.399916 0 0 1 65.423416 103.130507c0.966849 2.25598 1.933697 4.619387 2.793118 6.875368a424.983634 424.983634 0 0 1-82.611834 26.104909 57.5812 57.5812 0 0 1-12.569031 2.25598z" fill="#EF4D4D" p-id="5637"></path><path d="M649.561108 155.555183c0-6.982795 0-6.982795 6.875367-6.982795h101.948804c3.007973 0 5.693663 0 6.982795-3.330256a366.435585 366.435585 0 0 1 37.492237 29.005455 434.222409 434.222409 0 0 1 34.484263 33.409987c4.404532 4.619387 8.379354 9.668485 12.569031 14.502728 1.181704 2.900546 0 5.263953-2.793118 5.371381a111.724717 111.724717 0 0 1-21.485522 0c-1.826269-0.966849-2.148552-2.793118-2.793118-4.51196a35.880822 35.880822 0 0 0-27.931179-24.171213 32.228284 32.228284 0 0 0-35.021402 18.692405 28.253462 28.253462 0 0 1-3.222828 7.734788c-2.793118 0-2.470835-2.148552-3.007974-3.652539a272.65128 272.65128 0 0 0-25.782626-53.713806c-2.68569-4.404532-3.115401-4.404532-5.801092 0a264.057071 264.057071 0 0 0-26.104909 53.713806c-0.644566 1.933697-0.751993 4.404532-3.115401 5.371381a10.742761 10.742761 0 0 0-14.502728-1.181704c-1.933697-0.751993-1.933697-2.578263-2.25598-4.189677a202.501049 202.501049 0 0 0-24.27864-59.514897c-1.396559-2.148552-3.222828-3.867394-2.25598-6.553084z" fill="#3FCFE1" p-id="5638"></path><path d="M825.205254 226.349979c7.305078 0 14.502728-0.859421 21.485523 0 2.793118 0 2.041125-2.793118 2.900545-4.404532a221.945447 221.945447 0 0 1 22.452371 27.716324A426.272765 426.272765 0 0 1 913.618179 319.060008a18.584977 18.584977 0 0 1 0.751993 2.363408c-3.437684 0-5.263953-2.470835-7.412505-4.404532-12.676458-10.742761-25.460344-21.485522-37.921947-32.87285-2.68569-2.363407-4.619387-1.503987-6.982795 0-11.387327 8.486781-22.452371 17.618128-34.054553 25.890055-7.842216 5.586236-14.932438 12.031893-23.204364 17.08099-24.171213-7.949643-48.772136-14.073017-73.480487-19.76668a13.106169 13.106169 0 0 0-2.470835 0c-1.718842-3.867394 1.611414-3.974822 3.759966-4.726815a37.707092 37.707092 0 0 0 25.6752-26.212338 19.014687 19.014687 0 0 1 2.578263-7.949643 5.586236 5.586236 0 0 1 4.297104 0.751993 41.789341 41.789341 0 0 0 45.227025-5.586236 37.169954 37.169954 0 0 0 13.965589-31.798573c0-1.826269-1.181704-3.867394 0.859421-5.478808z" fill="#54DCEB" p-id="5639"></path><path d="M238.757919 158.455728c0 2.578263 1.933697 3.115401 4.189677 3.115401h22.882081c1.181704 0 2.900546 0 3.115401 0.644566 2.041125 7.842216 8.486781 4.726815 12.676458 4.297104 8.916492-0.966849 17.725556 0 26.53462 0a61.448594 61.448594 0 0 1 13.53588 0.644566 2.470835 2.470835 0 0 1 1.933697 1.396559c0 2.041125-0.859421 3.330256-2.041125 4.726815a122.36005 122.36005 0 0 0-9.131347 12.891313c-1.289131 1.503987-1.396559 3.867394-3.330256 5.049098a232.365925 232.365925 0 0 0-22.667226 14.610155c-0.537138 0 0 1.181704-0.644566 1.826269a2.578263 2.578263 0 0 1-1.611414 1.074277 39.103651 39.103651 0 0 0-25.030634 15.577003 5.586236 5.586236 0 0 1-2.041124 1.396559c-7.090222 3.974822-13.535879 8.701637-20.518674 12.891314-1.611414 0.966849-3.437684 3.222828-5.371381 0 0-1.396559 1.181704-2.25598 0.966849-3.759967-15.362149 0-30.724297 0-46.086446-0.644565a84.008393 84.008393 0 0 1-21.485523-3.759967 356.7671 356.7671 0 0 1 37.921948-41.35963 330.984473 330.984473 0 0 1 36.203105-30.61687z" fill="#45D3E4" p-id="5640"></path><path d="M805.116291 327.009652a83.256399 83.256399 0 0 1 15.899286-13.106169c13.106169-10.742761 26.856903-20.303819 40.0705-30.616869a6.338229 6.338229 0 0 1 9.88334 0c14.180445 12.783886 29.005455 25.030634 43.508183 37.384809a198.633655 198.633655 0 0 1 13.96559 31.583718c3.437684 8.594209 6.015946 17.403273 8.916491 26.212337-9.561057-4.297104-19.229543-8.486781-28.7906-12.998741-15.684431-7.305078-32.228284-13.750734-47.912715-19.766681-18.155266-6.553084-36.310533-13.535879-55.540075-18.692404z" fill="#07BDD0" p-id="5641"></path><path d="M443.192665 829.448594a106.138481 106.138481 0 0 0-31.583718 9.883341c-4.619387 2.25598-5.908519 7.519933-7.949643 11.602182a354.51112 354.51112 0 0 0-24.278641 64.456567l-6.015946 21.485522a290.054553 290.054553 0 0 1-37.599664-14.180444 393.507344 393.507344 0 0 1 64.456567-106.245909l1.718842-2.363407a3.007973 3.007973 0 0 1 1.396559-0.859421 68.109106 68.109106 0 0 1 22.130088 4.726815 84.545531 84.545531 0 0 0 20.948384 3.652539 60.374318 60.374318 0 0 1 7.305078 1.289131c2.363407 0.751993 3.652539 2.041125 0.966849 4.082249h-1.933697a17.295846 17.295846 0 0 0-9.561058 2.470835z" fill="#E94949" p-id="5642"></path><path d="M451.142308 955.353756c12.354175-21.485522 33.624843-34.913974 50.813261-51.994965 2.68569-2.578263 5.156525-7.090222 8.701637-6.767939s5.693663 4.619387 8.486781 7.19765l35.773395 34.376836a48.664708 48.664708 0 0 1 10.742761 14.717583 4.404532 4.404532 0 0 0 4.94167 3.007973 136.540495 136.540495 0 0 1-21.485522 2.68569 537.782627 537.782627 0 0 1-61.448594 0.966849 207.227864 207.227864 0 0 1-36.525389-4.189677z" fill="#F1F1F1" p-id="5643"></path><path d="M164.955149 230.324801a73.695342 73.695342 0 0 1 15.577004 1.826269c8.164499 0.966849 16.436425 0 24.600923 0.644566 9.88334 0.537138 19.766681 0 29.757449 0.751993 0 2.578263-3.437684 3.222828-3.115401 5.801091s-1.933697 2.900546-3.330256 3.867394l-75.199328 49.738985-40.177927 26.642047c-1.826269 1.181704-3.545111 3.222828-6.230802 2.363408a275.122115 275.122115 0 0 1 19.229543-36.417961 433.792698 433.792698 0 0 1 36.955098-53.713806 16.758708 16.758708 0 0 1 1.933697-1.503986z" fill="#51DAE9" p-id="5644"></path><path d="M107.266522 322.067982l43.830465-28.468318 80.785565-53.713806c6.982795-3.545111 13.321024-8.164499 19.874108-12.354175 1.718842-1.074276 3.222828-2.900546 5.586236-2.685691a21.485522 21.485522 0 0 1-4.726815 9.990768 246.438943 246.438943 0 0 0-21.485523 16.006715q-42.219052 31.583718-84.11582 63.489718l-46.731011 35.343685c-1.718842 1.289131-3.222828 3.222828-5.801091 2.793118a160.496853 160.496853 0 0 1 12.783886-30.402014z" fill="#01AECB" p-id="5645"></path><path d="M480.577474 211.417541l-45.334452 27.608896a5.801091 5.801091 0 0 1-6.015947 0 45.549308 45.549308 0 0 0-9.668485-5.049098 2.470835 2.470835 0 0 1 0-1.611414 65.530843 65.530843 0 0 0 7.519933-21.485522 42.971045 42.971045 0 0 0 0-12.246748 5.801091 5.801091 0 0 1 0.859421-5.586236 16.973563 16.973563 0 0 0 9.02392 2.041125h173.603021a20.518674 20.518674 0 0 1 10.742761 2.041124c1.074276 3.545111-0.859421 6.445657-1.933697 9.45363a81.215275 81.215275 0 0 0-3.652539 41.037348 33.73227 33.73227 0 0 0 23.634075 28.575745c5.478808 1.718842 6.553084 5.586236 4.297105 13.535879a3.330256 3.330256 0 0 1-3.652539 0.644566c-11.70961-4.619387-24.063785-7.734788-35.880823-12.246748-8.271926-6.015946-17.725556-11.387327-26.856903-16.758707l-51.457826-32.228284c-9.775913-6.230802-19.874108-12.13932-29.435166-18.692405a8.057071 8.057071 0 0 0-10.742761 0 4.619387 4.619387 0 0 1-5.049098 0.966849z" fill="#4ED8E8" p-id="5646"></path><path d="M643.330307 290.269408a30.724297 30.724297 0 0 0 0-9.88334c-1.181704-3.115401-5.371381-2.25598-8.164499-3.652539a35.880822 35.880822 0 0 1-20.088963-27.716324 89.594629 89.594629 0 0 1 6.875367-51.135543 395.333613 395.333613 0 0 1 21.485522-41.681914c3.007973-4.726815 4.082249-3.545111 6.338229 0a256.42971 256.42971 0 0 1 24.171213 52.102392c1.718842 5.586236 3.007973 11.387327 4.51196 17.080991a44.045321 44.045321 0 0 1 0.966848 24.386067 34.269408 34.269408 0 0 1-22.667226 28.038607 7.519933 7.519933 0 0 0-5.908518 8.809064 15.254721 15.254721 0 0 1 0 4.941671 3.867394 3.867394 0 0 1-0.751994 1.396559 5.156525 5.156525 0 0 1-6.767939-2.685691z" fill="#059EA9" p-id="5647"></path><path d="M428.152799 193.47713a53.713806 53.713806 0 0 1-3.759966 32.228283 31.583718 31.583718 0 0 1-4.297105 7.19765 36.632816 36.632816 0 0 1-17.295845-9.131347 5.049098 5.049098 0 0 1 1.181704-4.189677 33.839698 33.839698 0 0 0-9.346203-44.152748 45.549308 45.549308 0 0 0-57.044062 0 20.518674 20.518674 0 0 1-7.412505 4.834242 16.65128 16.65128 0 0 0-10.742761 3.867394c-2.041125 1.396559-4.082249 3.545111-6.982795 1.611415a110.865296 110.865296 0 0 1 12.031893-17.618129 77.992446 77.992446 0 0 1 25.997482-15.039866 64.456567 64.456567 0 0 1 75.199328 31.476291c0.322283 2.68569 1.181704 5.908519 2.470835 8.916492z" fill="#D9F6F9" p-id="5648"></path><path d="M484.230013 145.456987a12.461603 12.461603 0 0 1 12.891313 12.891313 13.052455 13.052455 0 1 1-26.104909 0 12.569031 12.569031 0 0 1 13.213596-12.891313z" fill="#D5F4F8" p-id="5649"></path><path d="M643.330307 290.269408a17.188418 17.188418 0 0 0 6.445656 2.685691 67.786823 67.786823 0 0 1 20.518674 8.271926 383.086865 383.086865 0 0 1 51.135544 30.294586l1.181704 0.751994a32.228284 32.228284 0 0 1 6.123373 5.049097 3.437684 3.437684 0 0 1 0.644566 1.074277 440.45321 440.45321 0 0 1 38.996223 34.699118l11.817038 12.676459c0 2.25598 1.396559 4.082249 2.148552 6.015946a152.010071 152.010071 0 0 1 7.62736 67.571968 245.257239 245.257239 0 0 1-10.742761 57.688628 226.135124 226.135124 0 0 1-20.840957 47.805287c-1.181704 2.041125-2.25598 4.189677-4.726815 4.834243s-3.007973-2.363407-3.652538-4.082249a201.749056 201.749056 0 0 0-42.971045-69.29081 271.362149 271.362149 0 0 0-167.264793-81.967269 280.600923 280.600923 0 0 0-131.598825 17.080991 262.123374 262.123374 0 0 0-80.892992 48.986991 197.344524 197.344524 0 0 0-63.167436 98.833403 140.8376 140.8376 0 0 0 18.799833 114.088124c2.25598 3.545111 4.619387 6.875367 6.875367 10.742762 0.966849 1.503987 2.363407 3.007973 0 4.834242a32.228284 32.228284 0 0 1-15.147294 0 362.675619 362.675619 0 0 1-67.46454-10.742761l-4.726815-1.611414a123.004616 123.004616 0 0 1-14.287872-22.882082 102.056232 102.056232 0 0 1 5.263953-19.659253 161.141418 161.141418 0 0 0-5.156526-103.02308 136.003357 136.003357 0 0 0-15.577004-28.253462 15.362149 15.362149 0 0 1-3.007973-5.586236 264.809064 264.809064 0 0 1 21.485523-58.548048 269.213596 269.213596 0 0 1 20.840957-36.847671 381.905162 381.905162 0 0 1 74.66219-79.926144 59.729752 59.729752 0 0 1 13.428452-10.742761 378.252623 378.252623 0 0 1 76.703315-41.789341 128.913135 128.913135 0 0 1 13.321024-3.867394 419.827109 419.827109 0 0 1 50.061267-13.321024 228.713386 228.713386 0 0 1 30.079731-4.619387 21.485522 21.485522 0 0 0 3.867394-0.859421 25.567772 25.567772 0 0 1 13.428452-2.363408 371.914394 371.914394 0 0 1 106.460764 9.561058 42.111624 42.111624 0 0 1 10.742761 3.974821z" fill="#FA665A" p-id="5650"></path><path d="M202.877096 696.0235c1.826269-1.933697 3.867394 0 5.478809 0a292.310533 292.310533 0 0 0 49.846412 8.701636c10.742761 1.289131 21.485522 2.470835 32.872849 2.793118a38.351658 38.351658 0 0 1 13.535879 15.791859c0.859421 6.982795 1.611414 7.734788 8.164499 7.412506a6.660512 6.660512 0 0 1 3.759966 2.255979 239.671003 239.671003 0 0 0 50.705833 34.699119c1.933697 1.074276 4.51196 1.503987 5.478808 3.974822a5.478808 5.478808 0 0 0 0 0.644565 2.578263 2.578263 0 0 1 1.181704-0.85942 15.254721 15.254721 0 0 1 6.660512 2.041124 308.746958 308.746958 0 0 0 100.874528 25.030634 327.54679 327.54679 0 0 0 133.425094-16.114142 242.678976 242.678976 0 0 0 98.511121-61.018884 157.274024 157.274024 0 0 0 44.045321-86.908938 142.341586 142.341586 0 0 0-3.867394-57.15149c-0.644566-2.470835-2.041125-5.049098-0.644566-7.734788 3.867394-1.718842 4.94167-5.801091 6.660512-9.023919A234.944188 234.944188 0 0 0 785.886748 483.424255a220.226605 220.226605 0 0 0 3.115401-49.416701 112.691565 112.691565 0 0 0-8.271926-42.004197c-0.751993-1.718842-2.578263-3.759966-0.751994-5.908519l9.990768 10.742762c6.660512 9.45363 13.750734 18.370122 20.088964 28.038606a294.029375 294.029375 0 0 1 29.542593 58.333194 23.096937 23.096937 0 0 0 1.074276 2.148552c2.470835 8.701637 5.049098 17.295846 7.519933 25.997482a49.309274 49.309274 0 0 1 0.859421 4.834243c0 2.793118-1.826269 4.51196-3.222828 6.445657a150.398657 150.398657 0 0 0-27.501469 75.199328 171.88418 171.88418 0 0 0 8.809064 67.571968 18.799832 18.799832 0 0 1 1.181704 6.76794 242.03441 242.03441 0 0 1-64.456567 74.339908 364.072178 364.072178 0 0 1-140.300462 64.456567l-5.371381 0.966848c-2.148552-2.793118-4.94167-1.396559-7.305077-0.85942a393.614771 393.614771 0 0 1-42.111624 6.982794 257.826269 257.826269 0 0 1-33.624843 2.578263c-4.94167 0-9.88334 0.966849-14.82501 1.074276a533.915233 533.915233 0 0 1-109.253882-9.561057c-2.363407 0-5.263953-2.148552-7.090222 1.074276h-0.966849a451.195971 451.195971 0 0 1-75.199328-23.634075 297.467058 297.467058 0 0 1-110.650441-77.347881 88.842635 88.842635 0 0 1-14.287873-16.221569z" fill="#F55954" p-id="5651"></path><path d="M170.111675 516.619387a115.806966 115.806966 0 0 1 22.344943 39.855644 164.579102 164.579102 0 0 1-3.115401 115.377256 8.594209 8.594209 0 0 1-0.751993 1.289131 149.539236 149.539236 0 0 1-14.717583-32.228283 196.699958 196.699958 0 0 1-10.742761-51.672682c0-2.148552 0.644566-4.297104-0.644566-6.230801a6.660512 6.660512 0 0 1 0-8.701637c1.718842-7.62736 0.751993-15.469576 1.82627-23.204364a196.270248 196.270248 0 0 1 5.801091-34.484264zM828.213227 672.926563a161.141418 161.141418 0 0 1-10.742761-44.475031 153.621486 153.621486 0 0 1 12.354176-80.355854 139.655896 139.655896 0 0 1 19.33697-31.691146 72.728493 72.728493 0 0 1 4.619387 22.989509 267.817037 267.817037 0 0 1 2.148552 41.144776 196.270248 196.270248 0 0 1-13.750734 63.704574c0 0.966849-0.644566 1.826269-0.966849 2.793118a162.967688 162.967688 0 0 1-12.998741 25.890054z" fill="#F5F5F5" p-id="5652"></path><path d="M403.337021 814.516156c-1.396559-2.793118-0.537138-4.297104 2.578263-3.652539q21.485522 4.726815 44.260176 7.412506c8.057071 0.966849 16.006714 1.718842 24.063785 2.148552 16.543852 0.859421 33.087705 1.611414 49.631557 0.966848a546.376836 546.376836 0 0 0 73.587914-7.62736c5.801091-1.074276 11.602182-2.363407 17.295846-3.759967a3.867394 3.867394 0 0 1 4.297104 1.503987s-0.966849 1.181704-1.396559 1.826269h-0.966848a526.3953 526.3953 0 0 1-54.358372 9.02392 571.622325 571.622325 0 0 1-58.118338 2.900545c-1.933697 0-4.082249 0-5.156526 1.933697a209.054133 209.054133 0 0 0-43.830465 0c1.181704-2.041125 0.644566-2.793118-1.82627-3.007973-7.19765-0.859421-14.287872-2.363407-21.485522-2.793118-5.371381 0-9.131347-4.404532-14.3953-4.726815a118.170373 118.170373 0 0 1-14.180445-2.148552zM443.192665 829.448594a8.271926 8.271926 0 0 1 9.990768-2.041124 55.754931 55.754931 0 0 1-9.990768 2.041124z" fill="#F55954" p-id="5653"></path><path d="M162.162031 574.200587v8.701637c0 0.859421 0 2.363407-1.826269 0.966849a6.445657 6.445657 0 0 1 1.826269-9.668486z" fill="#3CD1E6" p-id="5654"></path><path d="M604.656366 277.485522c-13.321024-2.900546-26.427193-6.123374-39.855644-8.164498a373.41838 373.41838 0 0 0-85.94209-3.007973h-4.511959a68.753672 68.753672 0 0 0-16.436425-10.742761c-4.94167-3.330256-10.098196-6.230802-15.254721-9.131347-3.007973-1.718842-3.437684-3.007973 0-5.156526 12.031893-8.486781 23.741502-17.188418 35.665967-25.675199 1.503987-1.074276 3.115401-1.933697 3.222829-4.082249l7.519933-4.834243a3.652539 3.652539 0 0 1 4.511959 0q21.485522 13.96559 42.971045 27.608896c13.321024 8.379354 26.749475 16.436425 39.963072 24.815779a289.409987 289.409987 0 0 1 28.146034 18.370121z" fill="#18C4D6" p-id="5655"></path><path d="M390.123425 285.327738a399.52329 399.52329 0 0 0-65.208561 30.939152 374.707512 374.707512 0 0 0-34.054553 22.989509c-1.289131 0.966849-2.363407 2.363407-4.082249 2.578263 0-3.222828-2.148552-3.759966-4.619388-3.867394-17.618128 0-35.021402-3.222828-52.63953-4.297104s-34.376836-3.115401-51.672681-3.867394a8.916492 8.916492 0 0 1-7.627361-2.685691q35.343684-10.742761 71.654218-19.122115c21.485522-4.726815 42.326479-8.916492 63.704574-12.354175 18.90726-3.007973 37.921947-5.693663 57.044062-7.627361z" fill="#7EE1EF" p-id="5656"></path><path d="M311.59384 185.527486a14.717583 14.717583 0 0 0 9.023919-4.511959 8.164499 8.164499 0 0 1 9.02392-1.396559v0.859421a57.473773 57.473773 0 0 0-15.791859 30.939152 7.734788 7.734788 0 0 0 2.900545 7.412505 33.517415 33.517415 0 0 1-15.469576 54.788082 28.36089 28.36089 0 0 1-30.294586-9.990768 26.856903 26.856903 0 0 1-2.470835-30.402014 24.27864 24.27864 0 0 1 24.815778-12.031892 20.733529 20.733529 0 0 1 17.618128 18.692404 17.510701 17.510701 0 0 1-7.734788 17.295846 15.577004 15.577004 0 0 1-17.403273 1.396559 13.858162 13.858162 0 0 1-1.503986-23.84893l3.545111-2.148552a7.19765 7.19765 0 0 0-7.949644 1.503986 17.832984 17.832984 0 0 0-2.148552 24.923206 22.989509 22.989509 0 0 0 39.103651-8.379354 26.212337 26.212337 0 0 0-4.726815-27.931179 27.823752 27.823752 0 0 0-27.179186-9.990768 39.211078 39.211078 0 0 0-32.228283 24.815779v-3.330256a28.898028 28.898028 0 0 1 4.726814-9.990768 40.92992 40.92992 0 0 1 28.468318-17.725556 11.70961 11.70961 0 0 1 10.742761-0.751994c3.652539 0.859421 5.263953 0 6.338229-3.652538s1.289131-9.023919 5.586236-11.70961z" fill="#CCF1F5" p-id="5657"></path><path d="M329.534251 180.478389v-0.859421a57.5812 57.5812 0 0 1 32.228284-15.469576 43.723038 43.723038 0 0 1 47.69786 37.814519 39.425934 39.425934 0 0 1-6.875367 22.452371 1.396559 1.396559 0 0 1-1.396559 0c-6.123374-3.974822-12.569031-7.305078-18.799832-10.742761 1.718842-13.428452-7.19765-20.626102-20.303819-16.328997-1.718842 0.537138-3.222828 1.718842-5.156526 0.751993a40.715065 40.715065 0 0 0-10.742761-7.090222c-5.263953-3.974822-10.957616-7.19765-16.65128-10.527906z" fill="#43D2E3" p-id="5658"></path><path d="M402.262745 224.416282h0.859421c6.123374 1.933697 10.742761 6.553084 16.866135 8.916492a3.222828 3.222828 0 0 1 0 0.859421 50.490978 50.490978 0 0 1-34.054553 19.551825c-20.411246 2.68569-46.086446-16.973563-38.566513-41.681913a28.898028 28.898028 0 0 1 10.205623-14.3953 21.485522 21.485522 0 0 1 17.510701-2.363408 12.569031 12.569031 0 0 1 8.809064 18.155267c-0.859421 4.297104-4.297104 3.867394-7.305078 4.082249s-3.867394-0.537138-4.834242 1.503986a6.338229 6.338229 0 0 0 0.966848 6.553085 16.221569 16.221569 0 0 0 17.832984 5.263953c4.082249-1.718842 7.412505-4.726815 11.70961-6.445657z" fill="#CCF1F5" p-id="5659"></path><path d="M722.074746 333.455308l-0.966848-0.644565a27.394041 27.394041 0 0 1-1.289131-12.246748v-3.437684c0-10.098196 0-10.098196-9.238775-13.750734a44.582459 44.582459 0 0 1-23.634075-38.996223v-15.577004a63.167436 63.167436 0 0 1 3.115401-18.692405 5.586236 5.586236 0 0 1 2.25598-3.652538 310.89551 310.89551 0 0 1 18.584977-42.111624c3.652539-6.553084 7.412505-12.891313 10.742761-19.336971 2.363407-3.974822 3.007973-3.867394 5.478808 0a288.765422 288.765422 0 0 1 28.575745 60.266891 4.297104 4.297104 0 0 1 1.396559 3.545111 70.042803 70.042803 0 0 0 4.94167 17.295846c0 3.974822 0.751993 7.949643 0.966849 11.924465 0 1.933697 0 3.974822-1.503987 5.478808s-4.404532-0.966849-6.123374-2.470835a42.971045 42.971045 0 0 1-14.610155-35.451112v-3.437684a45.549308 45.549308 0 0 0 12.569031 38.566513 50.813261 50.813261 0 0 1 7.090222 6.875367v0.751993a39.103651 39.103651 0 0 1-28.253462 35.343685c-1.718842 0.537138-4.297104 0-3.759966 3.330256a3.330256 3.330256 0 0 0 0 0.859421 1.289131 1.289131 0 0 1-1.503987 0c-3.115401-1.718842-3.759966 0-3.759966 2.68569v16.758708c0.537138 2.25598 0.859421 4.51196-1.074277 6.123373z" fill="#059EA9" p-id="5660"></path><path d="M728.412976 308.102392h0.644565v30.509442a1.289131 1.289131 0 0 1-0.751993 0 7.19765 7.19765 0 0 1-1.718842-4.51196v-21.485522a4.94167 4.94167 0 0 1 1.82627-4.51196z" fill="#54DCEB" p-id="5661"></path><path d="M761.285825 246.224087a43.830466 43.830466 0 0 1-5.156525-20.840956 34.161981 34.161981 0 0 1 34.913974-28.468318 37.707092 37.707092 0 0 1 33.302559 26.10491c0 1.074276 0.751993 2.148552 1.074276 3.222828a40.392782 40.392782 0 0 1-36.955098 47.912715 40.822493 40.822493 0 0 1-27.071758-5.908518c-1.289131-1.933697-0.644566-3.115401 1.396559-3.759967a12.354175 12.354175 0 0 1 6.553084 1.82627 35.773395 35.773395 0 0 0 48.879563-26.427193 29.112883 29.112883 0 0 0-13.750734-29.864876 24.600923 24.600923 0 0 0-29.435166 1.503987 19.122115 19.122115 0 0 0 1.611415 31.583718 9.88334 9.88334 0 0 0 7.519932 1.289131 14.3953 14.3953 0 0 0-3.867394-1.933697 14.180445 14.180445 0 0 1-8.379353-17.188418 16.543852 16.543852 0 0 1 13.858162-11.924465 19.551825 19.551825 0 0 1 21.485522 11.387327 22.989509 22.989509 0 0 1-4.404532 27.286613 27.179186 27.179186 0 0 1-41.574486-5.801091z" fill="#C0F1F6" p-id="5662"></path><path d="M692.317298 226.349979a95.288292 95.288292 0 0 0-4.082249 21.485522 73.050776 73.050776 0 0 0 0 16.866136 44.475031 44.475031 0 0 0 22.237515 36.740243 4.189677 4.189677 0 0 1-4.511959 1.181704c-17.832984-3.759966-35.880822-6.445657-53.713806-9.990768a5.908519 5.908519 0 0 1-2.25598-0.966849v-1.933697a11.70961 11.70961 0 0 1 8.809064-14.932438 32.228284 32.228284 0 0 0 20.196391-29.327738c0.966849-6.982795-0.644566-13.750734 0-20.626102a8.271926 8.271926 0 0 1 13.321024 1.503987z" fill="#53DBEA" p-id="5663"></path><path d="M308.693295 190.469157a49.95384 49.95384 0 0 0-4.941671 15.362148c0 2.578263-1.503987 3.007973-3.652538 2.25598a35.55854 35.55854 0 0 0-14.073018-1.503987c-0.644566 0-2.578263 0-0.966848-1.611414 7.412505-5.049098 14.932438-9.88334 22.452371-14.82501 0.107428-0.107428 1.181704 0.214855 1.181704 0.322283z" fill="#07BBD0" p-id="5664"></path><path d="M649.883391 292.203105a262.982795 262.982795 0 0 1 29.650021 4.404532c10.742761 1.503987 20.518674 4.619387 30.939152 5.371381 3.437684 1.826269 8.701637 0.859421 10.742762 4.404532a28.468317 28.468317 0 0 1 0 10.742761v15.254721a419.827109 419.827109 0 0 0-71.439363-39.855644 1.289131 1.289131 0 0 1 0.107428-0.322283z" fill="#8DE4F0" p-id="5665"></path><path d="M483.90773 167.694503a9.346202 9.346202 0 0 1-9.45363-9.561058 10.742761 10.742761 0 0 1 9.883341-9.45363 10.742761 10.742761 0 0 1 9.453629 9.883341 9.668485 9.668485 0 0 1-9.88334 9.131347z" fill="#42D0E2" p-id="5666"></path><path d="M303.751624 722.55812l-12.676458-14.82501a178.437264 178.437264 0 0 1-25.352916-46.193874 144.919849 144.919849 0 0 1 4.189677-104.741922 208.624423 208.624423 0 0 1 58.225765-78.959295 269.321024 269.321024 0 0 1 134.821654-62.630298 277.807805 277.807805 0 0 1 98.403693 1.289132A272.436425 272.436425 0 0 1 677.277432 467.632396a223.664289 223.664289 0 0 1 64.456568 75.199329 207.657574 207.657574 0 0 1 10.742761 26.427192 166.620227 166.620227 0 0 1 7.412505 41.574486 146.531263 146.531263 0 0 1-27.716324 89.487201 211.632396 211.632396 0 0 1-75.199329 65.101133 294.888796 294.888796 0 0 1-109.146454 33.087705 322.819975 322.819975 0 0 1-173.495593-26.642048 9.775913 9.775913 0 0 0-1.933697 0 375.996643 375.996643 0 0 1-38.029375-22.882081c-7.62736-5.478808-14.717583-11.602182-21.485523-17.618129a14.610155 14.610155 0 0 1-9.131347-8.809064z" fill="#F9E7DA" p-id="5667"></path><path d="M728.412976 308.102392v29.864876a24.063785 24.063785 0 0 1-6.33823-4.619387v-24.600923c0-1.611414 0-3.437684 2.148553-3.652539s4.189677 0.322283 4.189677 3.007973z" fill="#038492" p-id="5668"></path><path d="M303.751624 722.55812l8.809065 8.486781c-6.875367 1.718842-9.131347-0.322283-8.809065-8.486781zM372.505296 771.545111v1.503987a2.25598 2.25598 0 0 1-1.611414 2.25598 1.289131 1.289131 0 0 1-1.074276-0.644566c0-1.289131 0-2.148552 1.396559-2.68569a6.123374 6.123374 0 0 1 1.396559 0z" fill="#F55954" p-id="5669"></path><path d="M402.262745 224.416282a21.485522 21.485522 0 0 1-26.642048 6.230802 10.742761 10.742761 0 0 1-6.230802-9.45363c0-3.437684 0.859421-6.338229 5.586236-5.049098a7.090222 7.090222 0 0 0 8.379354-2.68569 43.723038 43.723038 0 0 1 18.90726 10.957616z" fill="#07BDD0" p-id="5670"></path><path d="M761.285825 246.224087a42.971045 42.971045 0 0 0 12.569031 9.45363 24.923206 24.923206 0 0 0 34.484263-18.584977 21.485522 21.485522 0 0 0-10.742761-21.485522 18.90726 18.90726 0 0 0-20.840957 2.470835 13.321024 13.321024 0 0 0 4.619387 23.311792c2.041125 0.859421 4.189677 1.611414 6.553085 2.470835a13.106169 13.106169 0 0 1-17.725556-4.726815 21.485522 21.485522 0 0 1 13.643307-33.624843 26.856903 26.856903 0 0 1 28.253462 8.809064 29.650021 29.650021 0 0 1 5.156525 33.732271 37.169954 37.169954 0 0 1-49.201846 19.014687l-4.51196-1.933697c-0.537138-0.751993-2.470835 0-2.041125-1.826269 2.148552-3.759966 0-7.519933 0-11.2799 0.107428-1.933697-0.107428-3.867394-0.214855-5.801091z" fill="#4CD7E7" p-id="5671"></path><path d="M761.178397 263.305078l2.041125 1.826269c-1.933697 0-2.148552 1.503987-2.041125 3.007973-18.692405-10.742761-25.890055-36.632816-19.014687-50.276122a45.334452 45.334452 0 0 0 19.014687 45.44188z" fill="#A0E1E9" p-id="5672"></path><path d="M688.235049 265.238775a32.228284 32.228284 0 0 1 0-16.866135v16.866135z" fill="#3FCFE1" p-id="5673"></path><path d="M490.245959 158.885439a5.586236 5.586236 0 0 1-6.230801 5.801091 5.801091 5.801091 0 0 1-6.015947-6.445657 5.478808 5.478808 0 0 1 6.015947-5.801091c4.082249-0.107428 6.230802 1.503987 6.230801 6.445657z" fill="#D7F5F8" p-id="5674"></path><path d="M378.413815 681.950483a40.285355 40.285355 0 0 1-41.359631-32.228284 37.81452 37.81452 0 0 1 20.518674-39.103651 38.351658 38.351658 0 0 1 42.971045 10.742761 23.311792 23.311792 0 0 1-1.611414 29.864876 23.634075 23.634075 0 0 1-27.179186 7.734789 18.370122 18.370122 0 0 1-8.057071-25.997483 17.188418 17.188418 0 0 1 21.485522-3.330256c0.751993 0.644566 1.074276 1.396559 0.644566 2.148553a1.611414 1.611414 0 0 1-2.148552 0 20.518674 20.518674 0 0 0-7.627361-1.933697 10.742761 10.742761 0 0 0-11.602182 8.164498 15.684431 15.684431 0 0 0 6.76794 16.866135 21.485522 21.485522 0 0 0 28.7906-11.494754 18.155266 18.155266 0 0 0-3.974822-22.774654 32.765422 32.765422 0 0 0-35.236257-8.486781 31.583718 31.583718 0 0 0-21.485522 29.864876 30.939152 30.939152 0 0 0 18.262694 30.616869 41.574486 41.574486 0 0 0 56.292069-13.750734c1.826269-2.578263 3.437684-5.263953 5.156525-7.949643 0.644566-0.966849 1.181704-2.25598 2.578263-1.289132s0.644566 1.718842 0 2.685691c-7.519933 13.858162-22.774654 30.079731-43.1859 29.650021zM638.496064 681.950483a40.392782 40.392782 0 0 1-41.252203-31.261436 37.492237 37.492237 0 0 1 20.948384-39.748216 38.029375 38.029375 0 0 1 42.971045 11.602182 23.096937 23.096937 0 0 1-0.537138 27.823752 23.956358 23.956358 0 0 1-26.10491 9.990768 18.262694 18.262694 0 0 1-12.783885-21.485523 15.791859 15.791859 0 0 1 23.84893-8.271926 2.25598 2.25598 0 0 1 0.85942 1.611414c0 1.074276-1.074276 1.181704-1.933697 1.074276s-1.503987-0.537138-2.363407-0.751993a12.13932 12.13932 0 0 0-16.866135 15.577004 14.073017 14.073017 0 0 0 12.354175 9.990768 21.485522 21.485522 0 0 0 23.204364-14.932438 19.33697 19.33697 0 0 0-7.519932-24.063786 32.228284 32.228284 0 0 0-52.63953 33.409988 35.021402 35.021402 0 0 0 28.468317 25.352916 42.971045 42.971045 0 0 0 45.87159-20.626101c1.396559-2.041125 2.578263-4.189677 3.974822-6.338229s1.074276-2.363407 2.578263-1.181704 0.644566 1.718842 0 2.68569a51.350399 51.350399 0 0 1-43.078473 29.542594z" fill="#2C1919" p-id="5675"></path><path d="M321.799463 674.967688a19.122115 19.122115 0 0 1 10.742761 2.68569c6.875367 3.759966 7.519933 10.742761 0.859421 14.3953a22.667226 22.667226 0 0 1-25.782627-0.966848 7.519933 7.519933 0 0 1 1.074277-12.569031 22.989509 22.989509 0 0 1 13.106168-3.545111zM697.366396 674.967688a19.122115 19.122115 0 0 1 12.246747 3.115401 7.090222 7.090222 0 0 1 1.396559 12.998741 21.485522 21.485522 0 0 1-27.608896 0 6.982795 6.982795 0 0 1 1.289131-12.569031 19.014687 19.014687 0 0 1 12.676459-3.545111z" fill="#F090AF" p-id="5676"></path><path d="M510.227495 687.966429a38.029375 38.029375 0 0 1 39.103651 30.831725 19.551825 19.551825 0 0 1 0 2.900545c0 1.074276 0 2.25598-1.289131 2.363408s-1.503987-0.966849-1.718842-1.933697a47.268149 47.268149 0 0 0-3.437684-11.387327 33.409987 33.409987 0 0 0-27.071758-19.122115 42.971045 42.971045 0 0 0-27.394041 4.404532 34.376836 34.376836 0 0 0-16.543852 24.27864c0 1.074276 0 3.330256-1.611415 3.007973s-1.396559-2.041125-1.074276-3.652539a37.384809 37.384809 0 0 1 41.037348-31.691145z" fill="#F6ABA8" p-id="5677"></path></svg>